<?xml version="1.0" encoding="UTF-8" standalone="no"?>
<!DOCTYPE svg PUBLIC "-//W3C//DTD SVG 1.1//EN"
 "http://www.w3.org/Graphics/SVG/1.1/DTD/svg11.dtd">
<!-- Generated by graphviz version 8.0.5 (20230506.1012)
 -->
<!-- Title: DrawSpecs Pages: 1 -->
<svg width="428pt" height="162pt"
 viewBox="0.00 0.00 428.00 162.12" xmlns="http://www.w3.org/2000/svg" xmlns:xlink="http://www.w3.org/1999/xlink">
<g id="graph0" class="graph" transform="scale(1 1) rotate(0) translate(4 158.12)">
<title>DrawSpecs</title>
<polygon fill="white" stroke="none" points="-4,4 -4,-158.12 424,-158.12 424,4 -4,4"/>
<!-- Node1 -->
<g id="node1" class="node">
<title>Node1</title>
<g id="a_node1"><a xlink:title="The class where options for the plotted element can be specified.">
<polygon fill="#bfbfbf" stroke="black" points="350,-72.88 350,-93.62 420,-93.62 420,-72.88 350,-72.88"/>
<text text-anchor="middle" x="385" y="-80.12" font-family="Helvetica,sans-Serif" font-size="10.00">DrawSpecs</text>
</a>
</g>
</g>
<!-- Node2 -->
<g id="node2" class="node">
<title>Node2</title>
<g id="a_node2"><a xlink:href="classsciplot_1_1LineSpecsOf.html" target="_top" xlink:title=" ">
<polygon fill="white" stroke="black" points="159.25,-132.88 159.25,-153.62 311.75,-153.62 311.75,-132.88 159.25,-132.88"/>
<text text-anchor="middle" x="235.5" y="-140.12" font-family="Helvetica,sans-Serif" font-size="10.00">LineSpecsOf&lt; DrawSpecs &gt;</text>
</a>
</g>
</g>
<!-- Node2&#45;&gt;Node1 -->
<g id="edge1" class="edge">
<title>Node2&#45;&gt;Node1</title>
<path fill="none" stroke="midnightblue" d="M294.92,-129.97C301.44,-127.96 307.92,-125.72 314,-123.25 333.84,-115.19 354.97,-102.48 368.76,-93.55"/>
<polygon fill="midnightblue" stroke="midnightblue" points="294.32,-126.79 285.69,-132.94 296.27,-133.51 294.32,-126.79"/>
</g>
<!-- Node3 -->
<g id="node3" class="node">
<title>Node3</title>
<g id="a_node3"><a xlink:href="classsciplot_1_1Specs.html" target="_top" xlink:title=" ">
<polygon fill="white" stroke="black" points="0,-72.88 0,-93.62 121,-93.62 121,-72.88 0,-72.88"/>
<text text-anchor="middle" x="60.5" y="-80.12" font-family="Helvetica,sans-Serif" font-size="10.00">Specs&lt; DrawSpecs &gt;</text>
</a>
</g>
</g>
<!-- Node3&#45;&gt;Node2 -->
<g id="edge2" class="edge">
<title>Node3&#45;&gt;Node2</title>
<path fill="none" stroke="midnightblue" d="M93.41,-97.97C111.76,-106.1 135.39,-115.98 157,-123.25 167.54,-126.8 179.06,-130.08 189.91,-132.92"/>
<polygon fill="midnightblue" stroke="midnightblue" points="95.09,-94.44 84.54,-93.55 92.23,-100.83 95.09,-94.44"/>
</g>
<!-- Node4 -->
<g id="node4" class="node">
<title>Node4</title>
<g id="a_node4"><a xlink:href="classsciplot_1_1PointSpecsOf.html" target="_top" xlink:title=" ">
<polygon fill="white" stroke="black" points="157,-92.88 157,-113.62 314,-113.62 314,-92.88 157,-92.88"/>
<text text-anchor="middle" x="235.5" y="-100.12" font-family="Helvetica,sans-Serif" font-size="10.00">PointSpecsOf&lt; DrawSpecs &gt;</text>
</a>
</g>
</g>
<!-- Node3&#45;&gt;Node4 -->
<g id="edge4" class="edge">
<title>Node3&#45;&gt;Node4</title>
<path fill="none" stroke="midnightblue" d="M131.47,-91.34C139.89,-92.31 148.53,-93.31 157.05,-94.3"/>
<polygon fill="midnightblue" stroke="midnightblue" points="131.89,-87.75 121.55,-90.08 131.08,-94.7 131.89,-87.75"/>
</g>
<!-- Node5 -->
<g id="node5" class="node">
<title>Node5</title>
<g id="a_node5"><a xlink:href="classsciplot_1_1FillSpecsOf.html" target="_top" xlink:title=" ">
<polygon fill="white" stroke="black" points="162.25,-52.88 162.25,-73.62 308.75,-73.62 308.75,-52.88 162.25,-52.88"/>
<text text-anchor="middle" x="235.5" y="-60.12" font-family="Helvetica,sans-Serif" font-size="10.00">FillSpecsOf&lt; DrawSpecs &gt;</text>
</a>
</g>
</g>
<!-- Node3&#45;&gt;Node5 -->
<g id="edge6" class="edge">
<title>Node3&#45;&gt;Node5</title>
<path fill="none" stroke="midnightblue" d="M131.17,-75.2C141.51,-74 152.17,-72.77 162.55,-71.57"/>
<polygon fill="midnightblue" stroke="midnightblue" points="131.08,-71.8 121.55,-76.42 131.89,-78.75 131.08,-71.8"/>
</g>
<!-- Node6 -->
<g id="node6" class="node">
<title>Node6</title>
<g id="a_node6"><a xlink:href="classsciplot_1_1FilledCurvesSpecsOf.html" target="_top" xlink:title=" ">
<polygon fill="white" stroke="black" points="177.62,-0.5 177.62,-34 293.38,-34 293.38,-0.5 177.62,-0.5"/>
<text text-anchor="start" x="185.62" y="-20.5" font-family="Helvetica,sans-Serif" font-size="10.00">FilledCurvesSpecsOf</text>
<text text-anchor="middle" x="235.5" y="-7.75" font-family="Helvetica,sans-Serif" font-size="10.00">&lt; DrawSpecs &gt;</text>
</a>
</g>
</g>
<!-- Node3&#45;&gt;Node6 -->
<g id="edge8" class="edge">
<title>Node3&#45;&gt;Node6</title>
<path fill="none" stroke="midnightblue" d="M94.72,-68.63C112.97,-60.78 136.09,-51.12 157,-43.25 165.37,-40.1 174.31,-36.92 183.04,-33.93"/>
<polygon fill="midnightblue" stroke="midnightblue" points="93.64,-65.72 85.86,-72.91 96.42,-72.14 93.64,-65.72"/>
</g>
<!-- Node4&#45;&gt;Node1 -->
<g id="edge3" class="edge">
<title>Node4&#45;&gt;Node1</title>
<path fill="none" stroke="midnightblue" d="M323.51,-91.45C332.88,-90.18 341.95,-88.95 350.09,-87.85"/>
<polygon fill="midnightblue" stroke="midnightblue" points="323.28,-88.09 313.84,-92.9 324.22,-95.02 323.28,-88.09"/>
</g>
<!-- Node5&#45;&gt;Node1 -->
<g id="edge5" class="edge">
<title>Node5&#45;&gt;Node1</title>
<path fill="none" stroke="midnightblue" d="M319.13,-74.45C330.15,-75.95 340.89,-77.4 350.37,-78.69"/>
<polygon fill="midnightblue" stroke="midnightblue" points="319.9,-70.89 309.52,-73.02 318.96,-77.83 319.9,-70.89"/>
</g>
<!-- Node6&#45;&gt;Node1 -->
<g id="edge7" class="edge">
<title>Node6&#45;&gt;Node1</title>
<path fill="none" stroke="midnightblue" d="M300.76,-37.71C305.28,-39.49 309.73,-41.34 314,-43.25 333.29,-51.9 354.17,-64.26 368.07,-72.95"/>
<polygon fill="midnightblue" stroke="midnightblue" points="302.4,-34.21 291.8,-33.96 299.93,-40.76 302.4,-34.21"/>
</g>
</g>
</svg>
