<?xml version="1.0" encoding="UTF-8" standalone="no"?>
<!DOCTYPE svg PUBLIC "-//W3C//DTD SVG 1.1//EN"
 "http://www.w3.org/Graphics/SVG/1.1/DTD/svg11.dtd">
<!-- Generated by graphviz version 7.1.0 (20230122.1345)
 -->
<!-- Title: LegendSpecs Pages: 1 -->
<svg width="669pt" height="142pt"
 viewBox="0.00 0.00 669.00 142.00" xmlns="http://www.w3.org/2000/svg" xmlns:xlink="http://www.w3.org/1999/xlink">
<g id="graph0" class="graph" transform="scale(1 1) rotate(0) translate(4 138)">
<title>LegendSpecs</title>
<polygon fill="white" stroke="none" points="-4,4 -4,-138 665,-138 665,4 -4,4"/>
<!-- Node1 -->
<g id="node1" class="node">
<title>Node1</title>
<g id="a_node1"><a xlink:title="The class used to specify options for legend.">
<polygon fill="#bfbfbf" stroke="black" points="581,-57.5 581,-76.5 661,-76.5 661,-57.5 581,-57.5"/>
<text text-anchor="middle" x="621" y="-64.5" font-family="Helvetica,sans-Serif" font-size="10.00">LegendSpecs</text>
</a>
</g>
</g>
<!-- Node2 -->
<g id="node2" class="node">
<title>Node2</title>
<g id="a_node2"><a xlink:href="classsciplot_1_1TextSpecsOf.html" target="_top" xlink:title=" ">
<polygon fill="white" stroke="black" points="379,-114.5 379,-133.5 542,-133.5 542,-114.5 379,-114.5"/>
<text text-anchor="middle" x="460.5" y="-121.5" font-family="Helvetica,sans-Serif" font-size="10.00">TextSpecsOf&lt; LegendSpecs &gt;</text>
</a>
</g>
</g>
<!-- Node2&#45;&gt;Node1 -->
<g id="edge1" class="edge">
<title>Node2&#45;&gt;Node1</title>
<path fill="none" stroke="midnightblue" d="M523.49,-111.69C530.82,-109.71 538.13,-107.48 545,-105 566.28,-97.32 589.29,-85.01 604.13,-76.49"/>
<polygon fill="midnightblue" stroke="midnightblue" points="522.71,-108.28 513.88,-114.13 524.43,-115.06 522.71,-108.28"/>
</g>
<!-- Node3 -->
<g id="node3" class="node">
<title>Node3</title>
<g id="a_node3"><a xlink:href="classsciplot_1_1FontSpecsOf.html" target="_top" xlink:title=" ">
<polygon fill="white" stroke="black" points="171.5,-114.5 171.5,-133.5 335.5,-133.5 335.5,-114.5 171.5,-114.5"/>
<text text-anchor="middle" x="253.5" y="-121.5" font-family="Helvetica,sans-Serif" font-size="10.00">FontSpecsOf&lt; LegendSpecs &gt;</text>
</a>
</g>
</g>
<!-- Node3&#45;&gt;Node2 -->
<g id="edge2" class="edge">
<title>Node3&#45;&gt;Node2</title>
<path fill="none" stroke="midnightblue" d="M346.51,-124C357.4,-124 368.46,-124 379.18,-124"/>
<polygon fill="midnightblue" stroke="midnightblue" points="346.74,-120.5 336.74,-124 346.74,-127.5 346.74,-120.5"/>
</g>
<!-- Node4 -->
<g id="node4" class="node">
<title>Node4</title>
<g id="a_node4"><a xlink:href="classsciplot_1_1Specs.html" target="_top" xlink:title=" ">
<polygon fill="white" stroke="black" points="0,-57.5 0,-76.5 131,-76.5 131,-57.5 0,-57.5"/>
<text text-anchor="middle" x="65.5" y="-64.5" font-family="Helvetica,sans-Serif" font-size="10.00">Specs&lt; LegendSpecs &gt;</text>
</a>
</g>
</g>
<!-- Node4&#45;&gt;Node3 -->
<g id="edge3" class="edge">
<title>Node4&#45;&gt;Node3</title>
<path fill="none" stroke="midnightblue" d="M104.88,-80.04C123.56,-86.27 146.39,-93.73 167,-100 183.52,-105.03 201.95,-110.25 217.46,-114.53"/>
<polygon fill="midnightblue" stroke="midnightblue" points="106.15,-76.77 95.56,-76.91 103.93,-83.41 106.15,-76.77"/>
</g>
<!-- Node5 -->
<g id="node5" class="node">
<title>Node5</title>
<g id="a_node5"><a xlink:href="classsciplot_1_1ShowSpecsOf.html" target="_top" xlink:title=" ">
<polygon fill="white" stroke="black" points="376,-76.5 376,-95.5 545,-95.5 545,-76.5 376,-76.5"/>
<text text-anchor="middle" x="460.5" y="-83.5" font-family="Helvetica,sans-Serif" font-size="10.00">ShowSpecsOf&lt; LegendSpecs &gt;</text>
</a>
</g>
</g>
<!-- Node4&#45;&gt;Node5 -->
<g id="edge5" class="edge">
<title>Node4&#45;&gt;Node5</title>
<path fill="none" stroke="midnightblue" d="M142.27,-70.66C209.31,-73.9 306.96,-78.63 376.18,-81.97"/>
<polygon fill="midnightblue" stroke="midnightblue" points="142.63,-67.18 132.47,-70.19 142.29,-74.17 142.63,-67.18"/>
</g>
<!-- Node6 -->
<g id="node6" class="node">
<title>Node6</title>
<g id="a_node6"><a xlink:href="classsciplot_1_1TitleSpecsOf.html" target="_top" xlink:title=" ">
<polygon fill="white" stroke="black" points="378.5,-38.5 378.5,-57.5 542.5,-57.5 542.5,-38.5 378.5,-38.5"/>
<text text-anchor="middle" x="460.5" y="-45.5" font-family="Helvetica,sans-Serif" font-size="10.00">TitleSpecsOf&lt; LegendSpecs &gt;</text>
</a>
</g>
</g>
<!-- Node4&#45;&gt;Node6 -->
<g id="edge7" class="edge">
<title>Node4&#45;&gt;Node6</title>
<path fill="none" stroke="midnightblue" d="M142.4,-63.33C210.25,-60.05 309.36,-55.26 378.66,-51.91"/>
<polygon fill="midnightblue" stroke="midnightblue" points="142.29,-59.83 132.47,-63.81 142.63,-66.82 142.29,-59.83"/>
</g>
<!-- Node7 -->
<g id="node7" class="node">
<title>Node7</title>
<g id="a_node7"><a xlink:href="classsciplot_1_1FrameSpecsOf.html" target="_top" xlink:title=" ">
<polygon fill="white" stroke="black" points="167,-0.5 167,-19.5 340,-19.5 340,-0.5 167,-0.5"/>
<text text-anchor="middle" x="253.5" y="-7.5" font-family="Helvetica,sans-Serif" font-size="10.00">FrameSpecsOf&lt; LegendSpecs &gt;</text>
</a>
</g>
</g>
<!-- Node4&#45;&gt;Node7 -->
<g id="edge9" class="edge">
<title>Node4&#45;&gt;Node7</title>
<path fill="none" stroke="midnightblue" d="M104.88,-53.96C123.56,-47.73 146.39,-40.27 167,-34 183.52,-28.97 201.95,-23.75 217.46,-19.47"/>
<polygon fill="midnightblue" stroke="midnightblue" points="103.93,-50.59 95.56,-57.09 106.15,-57.23 103.93,-50.59"/>
</g>
<!-- Node5&#45;&gt;Node1 -->
<g id="edge4" class="edge">
<title>Node5&#45;&gt;Node1</title>
<path fill="none" stroke="midnightblue" d="M551.94,-75.16C562.19,-73.93 572.19,-72.73 581.23,-71.65"/>
<polygon fill="midnightblue" stroke="midnightblue" points="551.77,-71.65 542.25,-76.32 552.6,-78.6 551.77,-71.65"/>
</g>
<!-- Node6&#45;&gt;Node1 -->
<g id="edge6" class="edge">
<title>Node6&#45;&gt;Node1</title>
<path fill="none" stroke="midnightblue" d="M551.94,-58.84C562.19,-60.07 572.19,-61.27 581.23,-62.35"/>
<polygon fill="midnightblue" stroke="midnightblue" points="552.6,-55.4 542.25,-57.68 551.77,-62.35 552.6,-55.4"/>
</g>
<!-- Node7&#45;&gt;Node1 -->
<g id="edge8" class="edge">
<title>Node7&#45;&gt;Node1</title>
<path fill="none" stroke="midnightblue" d="M351.12,-6.68C408.41,-7.07 481.93,-11.74 545,-29 567.53,-35.17 591.19,-48.47 605.77,-57.58"/>
<polygon fill="midnightblue" stroke="midnightblue" points="351.4,-3.18 341.4,-6.66 351.39,-10.18 351.4,-3.18"/>
</g>
</g>
</svg>
