<?xml version="1.0" encoding="UTF-8" standalone="no"?>
<!DOCTYPE svg PUBLIC "-//W3C//DTD SVG 1.1//EN"
 "http://www.w3.org/Graphics/SVG/1.1/DTD/svg11.dtd">
<!-- Generated by graphviz version 8.0.3 (20230418.1244)
 -->
<!-- Title: TicsSpecsBaseOf&lt; DerivedSpecs &gt; Pages: 1 -->
<svg width="746pt" height="104pt"
 viewBox="0.00 0.00 746.00 104.00" xmlns="http://www.w3.org/2000/svg" xmlns:xlink="http://www.w3.org/1999/xlink">
<g id="graph0" class="graph" transform="scale(1 1) rotate(0) translate(4 100)">
<title>TicsSpecsBaseOf&lt; DerivedSpecs &gt;</title>
<polygon fill="white" stroke="none" points="-4,4 -4,-100 742,-100 742,4 -4,4"/>
<!-- Node1 -->
<g id="node1" class="node">
<title>Node1</title>
<g id="a_node1"><a xlink:title="The class used to attach common tic options to a type that also specifies tic options.">
<polygon fill="#bfbfbf" stroke="black" points="589,-33 589,-63 738,-63 738,-33 589,-33"/>
<text text-anchor="start" x="597" y="-51" font-family="Helvetica,sans-Serif" font-size="10.00">TicsSpecsBaseOf&lt; Derived</text>
<text text-anchor="middle" x="663.5" y="-40" font-family="Helvetica,sans-Serif" font-size="10.00">Specs &gt;</text>
</a>
</g>
</g>
<!-- Node2 -->
<g id="node2" class="node">
<title>Node2</title>
<g id="a_node2"><a xlink:href="classsciplot_1_1TextSpecsOf.html" target="_top" xlink:title="The class used to attach text options to a type.">
<polygon fill="white" stroke="black" points="382.5,-76.5 382.5,-95.5 548.5,-95.5 548.5,-76.5 382.5,-76.5"/>
<text text-anchor="middle" x="465.5" y="-83.5" font-family="Helvetica,sans-Serif" font-size="10.00">TextSpecsOf&lt; DerivedSpecs &gt;</text>
</a>
</g>
</g>
<!-- Node2&#45;&gt;Node1 -->
<g id="edge1" class="edge">
<title>Node2&#45;&gt;Node1</title>
<path fill="none" stroke="midnightblue" d="M526.23,-74.42C546.15,-70.56 568.56,-66.21 589.37,-62.18"/>
<polygon fill="midnightblue" stroke="midnightblue" points="525.6,-71.17 516.45,-76.51 526.94,-78.04 525.6,-71.17"/>
</g>
<!-- Node3 -->
<g id="node3" class="node">
<title>Node3</title>
<g id="a_node3"><a xlink:href="classsciplot_1_1FontSpecsOf.html" target="_top" xlink:title="The class used to attach font options to a type.">
<polygon fill="white" stroke="black" points="172.5,-76.5 172.5,-95.5 339.5,-95.5 339.5,-76.5 172.5,-76.5"/>
<text text-anchor="middle" x="256" y="-83.5" font-family="Helvetica,sans-Serif" font-size="10.00">FontSpecsOf&lt; DerivedSpecs &gt;</text>
</a>
</g>
</g>
<!-- Node3&#45;&gt;Node2 -->
<g id="edge2" class="edge">
<title>Node3&#45;&gt;Node2</title>
<path fill="none" stroke="midnightblue" d="M350.09,-86C360.94,-86 371.95,-86 382.63,-86"/>
<polygon fill="midnightblue" stroke="midnightblue" points="350.31,-82.5 340.31,-86 350.31,-89.5 350.31,-82.5"/>
</g>
<!-- Node4 -->
<g id="node4" class="node">
<title>Node4</title>
<g id="a_node4"><a xlink:href="classsciplot_1_1Specs.html" target="_top" xlink:title="The base class for other specs classes (e.g., LineSpecsOf, DrawSpecs, BorderSpecs,...">
<polygon fill="white" stroke="black" points="0,-38.5 0,-57.5 134,-57.5 134,-38.5 0,-38.5"/>
<text text-anchor="middle" x="67" y="-45.5" font-family="Helvetica,sans-Serif" font-size="10.00">Specs&lt; DerivedSpecs &gt;</text>
</a>
</g>
</g>
<!-- Node4&#45;&gt;Node3 -->
<g id="edge3" class="edge">
<title>Node4&#45;&gt;Node3</title>
<path fill="none" stroke="midnightblue" d="M125.44,-59.67C152.11,-65.09 183.41,-71.45 208.57,-76.56"/>
<polygon fill="midnightblue" stroke="midnightblue" points="126.2,-56.05 115.71,-57.49 124.81,-62.91 126.2,-56.05"/>
</g>
<!-- Node5 -->
<g id="node5" class="node">
<title>Node5</title>
<g id="a_node5"><a xlink:href="classsciplot_1_1OffsetSpecsOf.html" target="_top" xlink:title="The class used to attach offset options to a type.">
<polygon fill="white" stroke="black" points="378,-38.5 378,-57.5 553,-57.5 553,-38.5 378,-38.5"/>
<text text-anchor="middle" x="465.5" y="-45.5" font-family="Helvetica,sans-Serif" font-size="10.00">OffsetSpecsOf&lt; DerivedSpecs &gt;</text>
</a>
</g>
</g>
<!-- Node4&#45;&gt;Node5 -->
<g id="edge5" class="edge">
<title>Node4&#45;&gt;Node5</title>
<path fill="none" stroke="midnightblue" d="M144.81,-48C211.75,-48 308.73,-48 378.3,-48"/>
<polygon fill="midnightblue" stroke="midnightblue" points="144.92,-44.5 134.92,-48 144.92,-51.5 144.92,-44.5"/>
</g>
<!-- Node6 -->
<g id="node6" class="node">
<title>Node6</title>
<g id="a_node6"><a xlink:href="classsciplot_1_1ShowSpecsOf.html" target="_top" xlink:title="The class used to attach visibility options to a type.">
<polygon fill="white" stroke="black" points="170,-0.5 170,-19.5 342,-19.5 342,-0.5 170,-0.5"/>
<text text-anchor="middle" x="256" y="-7.5" font-family="Helvetica,sans-Serif" font-size="10.00">ShowSpecsOf&lt; DerivedSpecs &gt;</text>
</a>
</g>
</g>
<!-- Node4&#45;&gt;Node6 -->
<g id="edge7" class="edge">
<title>Node4&#45;&gt;Node6</title>
<path fill="none" stroke="midnightblue" d="M125.44,-36.33C152.11,-30.91 183.41,-24.55 208.57,-19.44"/>
<polygon fill="midnightblue" stroke="midnightblue" points="124.81,-33.09 115.71,-38.51 126.2,-39.95 124.81,-33.09"/>
</g>
<!-- Node5&#45;&gt;Node1 -->
<g id="edge4" class="edge">
<title>Node5&#45;&gt;Node1</title>
<path fill="none" stroke="midnightblue" d="M563.59,-48C572.17,-48 580.75,-48 589.08,-48"/>
<polygon fill="midnightblue" stroke="midnightblue" points="563.75,-44.5 553.75,-48 563.75,-51.5 563.75,-44.5"/>
</g>
<!-- Node6&#45;&gt;Node1 -->
<g id="edge6" class="edge">
<title>Node6&#45;&gt;Node1</title>
<path fill="none" stroke="midnightblue" d="M352.39,-13.51C410.51,-16.3 486.2,-21.08 553,-29 564.69,-30.39 577.02,-32.19 589.03,-34.13"/>
<polygon fill="midnightblue" stroke="midnightblue" points="352.9,-9.99 342.75,-13.01 352.57,-16.98 352.9,-9.99"/>
</g>
</g>
</svg>
