<?xml version="1.0" encoding="UTF-8" standalone="no"?>
<!DOCTYPE svg PUBLIC "-//W3C//DTD SVG 1.1//EN"
 "http://www.w3.org/Graphics/SVG/1.1/DTD/svg11.dtd">
<!-- Generated by graphviz version 7.0.5 (20221231.0122)
 -->
<!-- Title: TextSpecsOf&lt; DerivedSpecs &gt; Pages: 1 -->
<svg width="175pt" height="140pt"
 viewBox="0.00 0.00 175.00 140.00" xmlns="http://www.w3.org/2000/svg" xmlns:xlink="http://www.w3.org/1999/xlink">
<g id="graph0" class="graph" transform="scale(1 1) rotate(0) translate(4 136)">
<title>TextSpecsOf&lt; DerivedSpecs &gt;</title>
<polygon fill="white" stroke="none" points="-4,4 -4,-136 171,-136 171,4 -4,4"/>
<!-- Node1 -->
<g id="node1" class="node">
<title>Node1</title>
<g id="a_node1"><a xlink:title="The class used to attach text options to a type.">
<polygon fill="#bfbfbf" stroke="black" points="0.5,-0.5 0.5,-19.5 166.5,-19.5 166.5,-0.5 0.5,-0.5"/>
<text text-anchor="middle" x="83.5" y="-7.5" font-family="Helvetica,sans-Serif" font-size="10.00">TextSpecsOf&lt; DerivedSpecs &gt;</text>
</a>
</g>
</g>
<!-- Node2 -->
<g id="node2" class="node">
<title>Node2</title>
<g id="a_node2"><a xlink:href="classsciplot_1_1FontSpecsOf.html" target="_top" xlink:title="The class used to attach font options to a type.">
<polygon fill="white" stroke="black" points="0,-56.5 0,-75.5 167,-75.5 167,-56.5 0,-56.5"/>
<text text-anchor="middle" x="83.5" y="-63.5" font-family="Helvetica,sans-Serif" font-size="10.00">FontSpecsOf&lt; DerivedSpecs &gt;</text>
</a>
</g>
</g>
<!-- Node2&#45;&gt;Node1 -->
<g id="edge1" class="edge">
<title>Node2&#45;&gt;Node1</title>
<path fill="none" stroke="midnightblue" d="M83.5,-45.1C83.5,-36.14 83.5,-26.06 83.5,-19.2"/>
<polygon fill="midnightblue" stroke="midnightblue" points="80,-45.05 83.5,-55.05 87,-45.05 80,-45.05"/>
</g>
<!-- Node3 -->
<g id="node3" class="node">
<title>Node3</title>
<g id="a_node3"><a xlink:href="classsciplot_1_1Specs.html" target="_top" xlink:title="The base class for other specs classes (e.g., LineSpecsOf, DrawSpecs, BorderSpecs,...">
<polygon fill="white" stroke="black" points="16.5,-112.5 16.5,-131.5 150.5,-131.5 150.5,-112.5 16.5,-112.5"/>
<text text-anchor="middle" x="83.5" y="-119.5" font-family="Helvetica,sans-Serif" font-size="10.00">Specs&lt; DerivedSpecs &gt;</text>
</a>
</g>
</g>
<!-- Node3&#45;&gt;Node2 -->
<g id="edge2" class="edge">
<title>Node3&#45;&gt;Node2</title>
<path fill="none" stroke="midnightblue" d="M83.5,-101.1C83.5,-92.14 83.5,-82.06 83.5,-75.2"/>
<polygon fill="midnightblue" stroke="midnightblue" points="80,-101.05 83.5,-111.05 87,-101.05 80,-101.05"/>
</g>
</g>
</svg>
