<?xml version="1.0" encoding="UTF-8" standalone="no"?>
<!DOCTYPE svg PUBLIC "-//W3C//DTD SVG 1.1//EN"
 "http://www.w3.org/Graphics/SVG/1.1/DTD/svg11.dtd">
<!-- Generated by graphviz version 8.0.4 (20230426.1303)
 -->
<!-- Title: GridSpecsBase Pages: 1 -->
<svg width="489pt" height="110pt"
 viewBox="0.00 0.00 488.75 109.75" xmlns="http://www.w3.org/2000/svg" xmlns:xlink="http://www.w3.org/1999/xlink">
<g id="graph0" class="graph" transform="scale(1 1) rotate(0) translate(4 105.75)">
<title>GridSpecsBase</title>
<polygon fill="white" stroke="none" points="-4,4 -4,-105.75 484.75,-105.75 484.75,4 -4,4"/>
<!-- Node1 -->
<g id="node1" class="node">
<title>Node1</title>
<g id="a_node1"><a xlink:title="The class used to specify options for grid lines along axis tics (major or minor).">
<polygon fill="#bfbfbf" stroke="black" points="392,-40.5 392,-61.25 480.75,-61.25 480.75,-40.5 392,-40.5"/>
<text text-anchor="middle" x="436.38" y="-47.75" font-family="Helvetica,sans-Serif" font-size="10.00">GridSpecsBase</text>
</a>
</g>
</g>
<!-- Node2 -->
<g id="node2" class="node">
<title>Node2</title>
<g id="a_node2"><a xlink:href="classsciplot_1_1LineSpecsOf.html" target="_top" xlink:title=" ">
<polygon fill="white" stroke="black" points="180.25,-80.5 180.25,-101.25 351.5,-101.25 351.5,-80.5 180.25,-80.5"/>
<text text-anchor="middle" x="265.88" y="-87.75" font-family="Helvetica,sans-Serif" font-size="10.00">LineSpecsOf&lt; GridSpecsBase &gt;</text>
</a>
</g>
</g>
<!-- Node2&#45;&gt;Node1 -->
<g id="edge1" class="edge">
<title>Node2&#45;&gt;Node1</title>
<path fill="none" stroke="midnightblue" d="M324.79,-78.11C335.19,-75.75 345.92,-73.27 356,-70.88 368.86,-67.81 382.85,-64.34 395.45,-61.15"/>
<polygon fill="midnightblue" stroke="midnightblue" points="324.09,-74.9 315.11,-80.52 325.63,-81.73 324.09,-74.9"/>
</g>
<!-- Node3 -->
<g id="node3" class="node">
<title>Node3</title>
<g id="a_node3"><a xlink:href="classsciplot_1_1Specs.html" target="_top" xlink:title=" ">
<polygon fill="white" stroke="black" points="0,-40.5 0,-61.25 139.75,-61.25 139.75,-40.5 0,-40.5"/>
<text text-anchor="middle" x="69.88" y="-47.75" font-family="Helvetica,sans-Serif" font-size="10.00">Specs&lt; GridSpecsBase &gt;</text>
</a>
</g>
</g>
<!-- Node3&#45;&gt;Node2 -->
<g id="edge2" class="edge">
<title>Node3&#45;&gt;Node2</title>
<path fill="none" stroke="midnightblue" d="M131.51,-63.38C158.3,-68.9 189.43,-75.32 214.87,-80.57"/>
<polygon fill="midnightblue" stroke="midnightblue" points="132.59,-59.82 122.09,-61.23 131.17,-66.68 132.59,-59.82"/>
</g>
<!-- Node4 -->
<g id="node4" class="node">
<title>Node4</title>
<g id="a_node4"><a xlink:href="classsciplot_1_1DepthSpecsOf.html" target="_top" xlink:title=" ">
<polygon fill="white" stroke="black" points="175.75,-40.5 175.75,-61.25 356,-61.25 356,-40.5 175.75,-40.5"/>
<text text-anchor="middle" x="265.88" y="-47.75" font-family="Helvetica,sans-Serif" font-size="10.00">DepthSpecsOf&lt; GridSpecsBase &gt;</text>
</a>
</g>
</g>
<!-- Node3&#45;&gt;Node4 -->
<g id="edge4" class="edge">
<title>Node3&#45;&gt;Node4</title>
<path fill="none" stroke="midnightblue" d="M150.45,-50.88C158.85,-50.88 167.42,-50.88 175.91,-50.88"/>
<polygon fill="midnightblue" stroke="midnightblue" points="150.55,-47.38 140.55,-50.88 150.55,-54.38 150.55,-47.38"/>
</g>
<!-- Node5 -->
<g id="node5" class="node">
<title>Node5</title>
<g id="a_node5"><a xlink:href="classsciplot_1_1ShowSpecsOf.html" target="_top" xlink:title=" ">
<polygon fill="white" stroke="black" points="177.25,-0.5 177.25,-21.25 354.5,-21.25 354.5,-0.5 177.25,-0.5"/>
<text text-anchor="middle" x="265.88" y="-7.75" font-family="Helvetica,sans-Serif" font-size="10.00">ShowSpecsOf&lt; GridSpecsBase &gt;</text>
</a>
</g>
</g>
<!-- Node3&#45;&gt;Node5 -->
<g id="edge6" class="edge">
<title>Node3&#45;&gt;Node5</title>
<path fill="none" stroke="midnightblue" d="M131.51,-38.37C158.3,-32.85 189.43,-26.43 214.87,-21.18"/>
<polygon fill="midnightblue" stroke="midnightblue" points="131.17,-35.07 122.09,-40.52 132.59,-41.93 131.17,-35.07"/>
</g>
<!-- Node4&#45;&gt;Node1 -->
<g id="edge3" class="edge">
<title>Node4&#45;&gt;Node1</title>
<path fill="none" stroke="midnightblue" d="M366.51,-50.88C375.4,-50.88 384.06,-50.88 392.06,-50.88"/>
<polygon fill="midnightblue" stroke="midnightblue" points="366.57,-47.38 356.57,-50.88 366.57,-54.38 366.57,-47.38"/>
</g>
<!-- Node5&#45;&gt;Node1 -->
<g id="edge5" class="edge">
<title>Node5&#45;&gt;Node1</title>
<path fill="none" stroke="midnightblue" d="M324.79,-23.64C335.19,-26 345.92,-28.48 356,-30.88 368.86,-33.94 382.85,-37.41 395.45,-40.6"/>
<polygon fill="midnightblue" stroke="midnightblue" points="325.63,-20.02 315.11,-21.23 324.09,-26.85 325.63,-20.02"/>
</g>
</g>
</svg>
