<?xml version="1.0" encoding="UTF-8" standalone="no"?>
<!DOCTYPE svg PUBLIC "-//W3C//DTD SVG 1.1//EN"
 "http://www.w3.org/Graphics/SVG/1.1/DTD/svg11.dtd">
<!-- Generated by graphviz version 2.47.1 (20210418.0311)
 -->
<!-- Title: FilledCurvesSpecs Pages: 1 -->
<svg width="152pt" height="151pt"
 viewBox="0.00 0.00 152.00 151.00" xmlns="http://www.w3.org/2000/svg" xmlns:xlink="http://www.w3.org/1999/xlink">
<g id="graph0" class="graph" transform="scale(1 1) rotate(0) translate(4 147)">
<title>FilledCurvesSpecs</title>
<polygon fill="white" stroke="transparent" points="-4,4 -4,-147 148,-147 148,4 -4,4"/>
<!-- Node1 -->
<g id="node1" class="node">
<title>Node1</title>
<g id="a_node1"><a xlink:title="The class used to specify color or pattern fill options.">
<polygon fill="#bfbfbf" stroke="black" points="23,-0.5 23,-19.5 121,-19.5 121,-0.5 23,-0.5"/>
<text text-anchor="middle" x="72" y="-7.5" font-family="Helvetica" font-size="10.00">FilledCurvesSpecs</text>
</a>
</g>
</g>
<!-- Node2 -->
<g id="node2" class="node">
<title>Node2</title>
<g id="a_node2"><a xlink:href="classsciplot_1_1FilledCurvesSpecsOf.html" target="_top" xlink:title=" ">
<polygon fill="white" stroke="black" points="14,-56.5 14,-86.5 130,-86.5 130,-56.5 14,-56.5"/>
<text text-anchor="start" x="22" y="-74.5" font-family="Helvetica" font-size="10.00">FilledCurvesSpecsOf</text>
<text text-anchor="middle" x="72" y="-63.5" font-family="Helvetica" font-size="10.00">&lt; FilledCurvesSpecs &gt;</text>
</a>
</g>
</g>
<!-- Node2&#45;&gt;Node1 -->
<g id="edge1" class="edge">
<title>Node2&#45;&gt;Node1</title>
<path fill="none" stroke="midnightblue" d="M72,-46.29C72,-36.86 72,-26.65 72,-19.66"/>
<polygon fill="midnightblue" stroke="midnightblue" points="68.5,-46.4 72,-56.4 75.5,-46.4 68.5,-46.4"/>
</g>
<!-- Node3 -->
<g id="node3" class="node">
<title>Node3</title>
<g id="a_node3"><a xlink:href="classsciplot_1_1Specs.html" target="_top" xlink:title=" ">
<polygon fill="white" stroke="black" points="0,-123.5 0,-142.5 144,-142.5 144,-123.5 0,-123.5"/>
<text text-anchor="middle" x="72" y="-130.5" font-family="Helvetica" font-size="10.00">Specs&lt; FilledCurvesSpecs &gt;</text>
</a>
</g>
</g>
<!-- Node3&#45;&gt;Node2 -->
<g id="edge2" class="edge">
<title>Node3&#45;&gt;Node2</title>
<path fill="none" stroke="midnightblue" d="M72,-113.23C72,-104.59 72,-94.5 72,-86.52"/>
<polygon fill="midnightblue" stroke="midnightblue" points="68.5,-113.48 72,-123.48 75.5,-113.48 68.5,-113.48"/>
</g>
</g>
</svg>
