<?xml version="1.0" encoding="UTF-8" standalone="no"?>
<!DOCTYPE svg PUBLIC "-//W3C//DTD SVG 1.1//EN"
 "http://www.w3.org/Graphics/SVG/1.1/DTD/svg11.dtd">
<!-- Generated by graphviz version 8.0.4 (20230426.1303)
 -->
<!-- Title: Plot Pages: 1 -->
<svg width="1175pt" height="892pt"
 viewBox="0.00 0.00 1174.50 891.75" xmlns="http://www.w3.org/2000/svg" xmlns:xlink="http://www.w3.org/1999/xlink">
<g id="graph0" class="graph" transform="scale(1 1) rotate(0) translate(4 887.75)">
<title>Plot</title>
<polygon fill="white" stroke="none" points="-4,4 -4,-887.75 1170.5,-887.75 1170.5,4 -4,4"/>
<!-- Node1 -->
<g id="node1" class="node">
<title>Node1</title>
<g id="a_node1"><a xlink:title="The class used to create a plot containing graphical elements.">
<polygon fill="#bfbfbf" stroke="black" points="1131.75,-435.5 1131.75,-456.25 1166.5,-456.25 1166.5,-435.5 1131.75,-435.5"/>
<text text-anchor="middle" x="1149.12" y="-442.75" font-family="Helvetica,sans-Serif" font-size="10.00">Plot</text>
</a>
</g>
</g>
<!-- Node2 -->
<g id="node2" class="node">
<title>Node2</title>
<g id="a_node2"><a xlink:href="classsciplot_1_1BorderSpecs.html" target="_top" xlink:title="The class used to specify options for plot border.">
<polygon fill="white" stroke="black" points="864.12,-822.5 864.12,-843.25 940.88,-843.25 940.88,-822.5 864.12,-822.5"/>
<text text-anchor="middle" x="902.5" y="-829.75" font-family="Helvetica,sans-Serif" font-size="10.00">BorderSpecs</text>
</a>
</g>
</g>
<!-- Node2&#45;&gt;Node1 -->
<g id="edge1" class="edge">
<title>Node2&#45;&gt;Node1</title>
<path fill="none" stroke="#9a32cd" stroke-dasharray="5,2" d="M951.56,-836.85C1000.12,-837.97 1073.56,-831.16 1113.75,-785.88 1136.25,-760.53 1145.97,-509.55 1147.8,-455.92"/>
<polygon fill="#9a32cd" stroke="#9a32cd" points="951.81,-833.32 941.69,-836.46 951.56,-840.32 951.81,-833.32"/>
<text text-anchor="middle" x="1057.5" y="-837.12" font-family="Helvetica,sans-Serif" font-size="10.00"> m_border</text>
</g>
<!-- Node3 -->
<g id="node3" class="node">
<title>Node3</title>
<g id="a_node3"><a xlink:href="classsciplot_1_1LineSpecsOf.html" target="_top" xlink:title=" ">
<polygon fill="white" stroke="black" points="567.25,-862.5 567.25,-883.25 726.5,-883.25 726.5,-862.5 567.25,-862.5"/>
<text text-anchor="middle" x="646.88" y="-869.75" font-family="Helvetica,sans-Serif" font-size="10.00">LineSpecsOf&lt; BorderSpecs &gt;</text>
</a>
</g>
</g>
<!-- Node3&#45;&gt;Node2 -->
<g id="edge2" class="edge">
<title>Node3&#45;&gt;Node2</title>
<path fill="none" stroke="midnightblue" d="M724.15,-860.85C770.55,-853.53 827.74,-844.51 864.41,-838.73"/>
<polygon fill="midnightblue" stroke="midnightblue" points="723.85,-857.51 714.52,-862.52 724.94,-864.42 723.85,-857.51"/>
</g>
<!-- Node4 -->
<g id="node4" class="node">
<title>Node4</title>
<g id="a_node4"><a xlink:href="classsciplot_1_1Specs.html" target="_top" xlink:title=" ">
<polygon fill="white" stroke="black" points="194,-862.5 194,-883.25 321.75,-883.25 321.75,-862.5 194,-862.5"/>
<text text-anchor="middle" x="257.88" y="-869.75" font-family="Helvetica,sans-Serif" font-size="10.00">Specs&lt; BorderSpecs &gt;</text>
</a>
</g>
</g>
<!-- Node4&#45;&gt;Node3 -->
<g id="edge3" class="edge">
<title>Node4&#45;&gt;Node3</title>
<path fill="none" stroke="midnightblue" d="M332.39,-872.88C399.56,-872.88 498.59,-872.88 567.3,-872.88"/>
<polygon fill="midnightblue" stroke="midnightblue" points="332.48,-869.38 322.48,-872.88 332.48,-876.38 332.48,-869.38"/>
</g>
<!-- Node5 -->
<g id="node5" class="node">
<title>Node5</title>
<g id="a_node5"><a xlink:href="classsciplot_1_1DepthSpecsOf.html" target="_top" xlink:title=" ">
<polygon fill="white" stroke="black" points="562.75,-822.5 562.75,-843.25 731,-843.25 731,-822.5 562.75,-822.5"/>
<text text-anchor="middle" x="646.88" y="-829.75" font-family="Helvetica,sans-Serif" font-size="10.00">DepthSpecsOf&lt; BorderSpecs &gt;</text>
</a>
</g>
</g>
<!-- Node4&#45;&gt;Node5 -->
<g id="edge5" class="edge">
<title>Node4&#45;&gt;Node5</title>
<path fill="none" stroke="midnightblue" d="M332.18,-865.3C397.99,-858.5 494.52,-848.52 563.09,-841.43"/>
<polygon fill="midnightblue" stroke="midnightblue" points="332.07,-861.89 322.48,-866.4 332.79,-868.86 332.07,-861.89"/>
</g>
<!-- Node5&#45;&gt;Node2 -->
<g id="edge4" class="edge">
<title>Node5&#45;&gt;Node2</title>
<path fill="none" stroke="midnightblue" d="M741.9,-832.88C784.44,-832.88 832.27,-832.88 864.38,-832.88"/>
<polygon fill="midnightblue" stroke="midnightblue" points="741.92,-829.38 731.92,-832.88 741.92,-836.38 741.92,-829.38"/>
</g>
<!-- Node6 -->
<g id="node6" class="node">
<title>Node6</title>
<g id="a_node6"><a xlink:title=" ">
<polygon fill="white" stroke="#bfbfbf" points="821.75,-782.5 821.75,-803.25 983.25,-803.25 983.25,-782.5 821.75,-782.5"/>
<text text-anchor="middle" x="902.5" y="-789.75" font-family="Helvetica,sans-Serif" font-size="10.00">vector&lt; sciplot::DrawSpecs &gt;</text>
</a>
</g>
</g>
<!-- Node6&#45;&gt;Node1 -->
<g id="edge6" class="edge">
<title>Node6&#45;&gt;Node1</title>
<path fill="none" stroke="#9a32cd" stroke-dasharray="5,2" d="M965.13,-780.31C1025.34,-767.77 1108.68,-749.56 1113.75,-743.88 1152.75,-700.15 1149.75,-503.09 1148.45,-456"/>
<polygon fill="#9a32cd" stroke="#9a32cd" points="964.64,-777.05 955.56,-782.51 966.06,-783.9 964.64,-777.05"/>
<text text-anchor="middle" x="1057.5" y="-774.12" font-family="Helvetica,sans-Serif" font-size="10.00"> m_drawspecs</text>
</g>
<!-- Node7 -->
<g id="node7" class="node">
<title>Node7</title>
<g id="a_node7"><a xlink:href="classsciplot_1_1DrawSpecs.html" target="_top" xlink:title="The class where options for the plotted element can be specified.">
<polygon fill="white" stroke="black" points="611.88,-782.5 611.88,-803.25 681.88,-803.25 681.88,-782.5 611.88,-782.5"/>
<text text-anchor="middle" x="646.88" y="-789.75" font-family="Helvetica,sans-Serif" font-size="10.00">DrawSpecs</text>
</a>
</g>
</g>
<!-- Node7&#45;&gt;Node6 -->
<g id="edge7" class="edge">
<title>Node7&#45;&gt;Node6</title>
<path fill="none" stroke="#9a32cd" stroke-dasharray="5,2" d="M692.38,-792.88C728.11,-792.88 779.16,-792.88 821.89,-792.88"/>
<polygon fill="#9a32cd" stroke="#9a32cd" points="692.82,-789.38 682.82,-792.88 692.82,-796.38 692.82,-789.38"/>
<text text-anchor="middle" x="779.38" y="-796.12" font-family="Helvetica,sans-Serif" font-size="10.00"> elements</text>
</g>
<!-- Node8 -->
<g id="node8" class="node">
<title>Node8</title>
<g id="a_node8"><a xlink:href="classsciplot_1_1LineSpecsOf.html" target="_top" xlink:title=" ">
<polygon fill="white" stroke="black" points="181.62,-822.5 181.62,-843.25 334.12,-843.25 334.12,-822.5 181.62,-822.5"/>
<text text-anchor="middle" x="257.88" y="-829.75" font-family="Helvetica,sans-Serif" font-size="10.00">LineSpecsOf&lt; DrawSpecs &gt;</text>
</a>
</g>
</g>
<!-- Node8&#45;&gt;Node7 -->
<g id="edge8" class="edge">
<title>Node8&#45;&gt;Node7</title>
<path fill="none" stroke="midnightblue" d="M344.89,-825.13C400.28,-820 473.81,-812.95 538.75,-805.88 563.33,-803.2 591.05,-799.83 612.13,-797.19"/>
<polygon fill="midnightblue" stroke="midnightblue" points="344.7,-821.72 335.06,-826.13 345.34,-828.69 344.7,-821.72"/>
</g>
<!-- Node9 -->
<g id="node9" class="node">
<title>Node9</title>
<g id="a_node9"><a xlink:href="classsciplot_1_1Specs.html" target="_top" xlink:title=" ">
<polygon fill="white" stroke="black" points="4.88,-762.5 4.88,-783.25 125.88,-783.25 125.88,-762.5 4.88,-762.5"/>
<text text-anchor="middle" x="65.38" y="-769.75" font-family="Helvetica,sans-Serif" font-size="10.00">Specs&lt; DrawSpecs &gt;</text>
</a>
</g>
</g>
<!-- Node9&#45;&gt;Node8 -->
<g id="edge9" class="edge">
<title>Node9&#45;&gt;Node8</title>
<path fill="none" stroke="midnightblue" d="M99.32,-787.37C118.92,-795.63 144.45,-805.71 167.75,-812.88 179.57,-816.51 192.47,-819.79 204.68,-822.59"/>
<polygon fill="midnightblue" stroke="midnightblue" points="100.93,-783.83 90.36,-783.13 98.19,-790.27 100.93,-783.83"/>
</g>
<!-- Node10 -->
<g id="node10" class="node">
<title>Node10</title>
<g id="a_node10"><a xlink:href="classsciplot_1_1PointSpecsOf.html" target="_top" xlink:title=" ">
<polygon fill="white" stroke="black" points="179.38,-782.5 179.38,-803.25 336.38,-803.25 336.38,-782.5 179.38,-782.5"/>
<text text-anchor="middle" x="257.88" y="-789.75" font-family="Helvetica,sans-Serif" font-size="10.00">PointSpecsOf&lt; DrawSpecs &gt;</text>
</a>
</g>
</g>
<!-- Node9&#45;&gt;Node10 -->
<g id="edge11" class="edge">
<title>Node9&#45;&gt;Node10</title>
<path fill="none" stroke="midnightblue" d="M136.44,-780.23C150.5,-781.71 165.35,-783.27 179.64,-784.77"/>
<polygon fill="midnightblue" stroke="midnightblue" points="137.18,-776.68 126.87,-779.12 136.45,-783.65 137.18,-776.68"/>
</g>
<!-- Node11 -->
<g id="node11" class="node">
<title>Node11</title>
<g id="a_node11"><a xlink:href="classsciplot_1_1FillSpecsOf.html" target="_top" xlink:title=" ">
<polygon fill="white" stroke="black" points="184.62,-742.5 184.62,-763.25 331.12,-763.25 331.12,-742.5 184.62,-742.5"/>
<text text-anchor="middle" x="257.88" y="-749.75" font-family="Helvetica,sans-Serif" font-size="10.00">FillSpecsOf&lt; DrawSpecs &gt;</text>
</a>
</g>
</g>
<!-- Node9&#45;&gt;Node11 -->
<g id="edge13" class="edge">
<title>Node9&#45;&gt;Node11</title>
<path fill="none" stroke="midnightblue" d="M136.57,-765.51C152.29,-763.85 168.99,-762.1 184.79,-760.44"/>
<polygon fill="midnightblue" stroke="midnightblue" points="136.45,-762.1 126.87,-766.63 137.18,-769.07 136.45,-762.1"/>
</g>
<!-- Node12 -->
<g id="node12" class="node">
<title>Node12</title>
<g id="a_node12"><a xlink:href="classsciplot_1_1FilledCurvesSpecsOf.html" target="_top" xlink:title=" ">
<polygon fill="white" stroke="black" points="200,-690.12 200,-723.62 315.75,-723.62 315.75,-690.12 200,-690.12"/>
<text text-anchor="start" x="208" y="-710.12" font-family="Helvetica,sans-Serif" font-size="10.00">FilledCurvesSpecsOf</text>
<text text-anchor="middle" x="257.88" y="-697.38" font-family="Helvetica,sans-Serif" font-size="10.00">&lt; DrawSpecs &gt;</text>
</a>
</g>
</g>
<!-- Node9&#45;&gt;Node12 -->
<g id="edge15" class="edge">
<title>Node9&#45;&gt;Node12</title>
<path fill="none" stroke="midnightblue" d="M100.66,-758.44C120.17,-750.45 145.14,-740.61 167.75,-732.88 178.12,-729.33 189.27,-725.83 200.05,-722.6"/>
<polygon fill="midnightblue" stroke="midnightblue" points="99.63,-755.49 91.72,-762.54 102.3,-761.96 99.63,-755.49"/>
</g>
<!-- Node10&#45;&gt;Node7 -->
<g id="edge10" class="edge">
<title>Node10&#45;&gt;Node7</title>
<path fill="none" stroke="midnightblue" d="M347.08,-792.88C431.13,-792.88 553.28,-792.88 611.95,-792.88"/>
<polygon fill="midnightblue" stroke="midnightblue" points="347.26,-789.38 337.26,-792.88 347.26,-796.38 347.26,-789.38"/>
</g>
<!-- Node11&#45;&gt;Node7 -->
<g id="edge12" class="edge">
<title>Node11&#45;&gt;Node7</title>
<path fill="none" stroke="midnightblue" d="M341.57,-761.42C425.67,-770.12 551.91,-783.16 611.89,-789.36"/>
<polygon fill="midnightblue" stroke="midnightblue" points="342.07,-757.85 331.76,-760.3 341.35,-764.81 342.07,-757.85"/>
</g>
<!-- Node12&#45;&gt;Node7 -->
<g id="edge14" class="edge">
<title>Node12&#45;&gt;Node7</title>
<path fill="none" stroke="midnightblue" d="M326.59,-711.39C384.82,-717.18 470.04,-730.31 538.75,-759.88 547.81,-763.78 547.75,-768.82 556.75,-772.88 574.25,-780.75 595.11,-785.65 612.26,-788.63"/>
<polygon fill="midnightblue" stroke="midnightblue" points="326.96,-707.81 316.68,-710.35 326.31,-714.78 326.96,-707.81"/>
</g>
<!-- Node13 -->
<g id="node13" class="node">
<title>Node13</title>
<g id="a_node13"><a xlink:href="classsciplot_1_1HistogramStyleSpecs.html" target="_top" xlink:title="The class used to specify histogram style options.">
<polygon fill="white" stroke="black" points="842.38,-742.5 842.38,-763.25 962.62,-763.25 962.62,-742.5 842.38,-742.5"/>
<text text-anchor="middle" x="902.5" y="-749.75" font-family="Helvetica,sans-Serif" font-size="10.00">HistogramStyleSpecs</text>
</a>
</g>
</g>
<!-- Node13&#45;&gt;Node1 -->
<g id="edge16" class="edge">
<title>Node13&#45;&gt;Node1</title>
<path fill="none" stroke="#9a32cd" stroke-dasharray="5,2" d="M965.5,-739.74C1014.36,-725.91 1079.73,-698.92 1113.75,-648.88 1135.61,-616.73 1145.14,-492.67 1147.51,-456.09"/>
<polygon fill="#9a32cd" stroke="#9a32cd" points="964.77,-736.59 956.03,-742.58 966.6,-743.34 964.77,-736.59"/>
<text text-anchor="middle" x="1057.5" y="-730.12" font-family="Helvetica,sans-Serif" font-size="10.00"> m_style_histogram</text>
</g>
<!-- Node14 -->
<g id="node14" class="node">
<title>Node14</title>
<g id="a_node14"><a xlink:href="classsciplot_1_1Specs.html" target="_top" xlink:title=" ">
<polygon fill="white" stroke="black" points="561.25,-742.5 561.25,-763.25 732.5,-763.25 732.5,-742.5 561.25,-742.5"/>
<text text-anchor="middle" x="646.88" y="-749.75" font-family="Helvetica,sans-Serif" font-size="10.00">Specs&lt; HistogramStyleSpecs &gt;</text>
</a>
</g>
</g>
<!-- Node14&#45;&gt;Node13 -->
<g id="edge17" class="edge">
<title>Node14&#45;&gt;Node13</title>
<path fill="none" stroke="midnightblue" d="M743.06,-752.88C776.49,-752.88 813.06,-752.88 842.63,-752.88"/>
<polygon fill="midnightblue" stroke="midnightblue" points="743.33,-749.38 733.33,-752.88 743.33,-756.38 743.33,-749.38"/>
</g>
<!-- Node15 -->
<g id="node15" class="node">
<title>Node15</title>
<g id="a_node15"><a xlink:title="STL class.">
<polygon fill="white" stroke="#bfbfbf" points="625,-624.5 625,-645.25 668.75,-645.25 668.75,-624.5 625,-624.5"/>
<text text-anchor="middle" x="646.88" y="-631.75" font-family="Helvetica,sans-Serif" font-size="10.00">string</text>
</a>
</g>
</g>
<!-- Node15&#45;&gt;Node1 -->
<g id="edge18" class="edge">
<title>Node15&#45;&gt;Node1</title>
<path fill="none" stroke="#9a32cd" stroke-dasharray="5,2" d="M679.35,-635.72C778.68,-638.1 1080.88,-642.93 1113.75,-614.88 1138.23,-593.98 1145.84,-488.98 1147.65,-455.88"/>
<polygon fill="#9a32cd" stroke="#9a32cd" points="679.62,-632.2 669.54,-635.45 679.45,-639.2 679.62,-632.2"/>
<text text-anchor="middle" x="902.5" y="-716.62" font-family="Helvetica,sans-Serif" font-size="10.00"> m_boxwidth</text>
<text text-anchor="middle" x="902.5" y="-703.88" font-family="Helvetica,sans-Serif" font-size="10.00">m_data</text>
<text text-anchor="middle" x="902.5" y="-691.12" font-family="Helvetica,sans-Serif" font-size="10.00">m_datafilename</text>
<text text-anchor="middle" x="902.5" y="-678.38" font-family="Helvetica,sans-Serif" font-size="10.00">m_palette</text>
<text text-anchor="middle" x="902.5" y="-665.62" font-family="Helvetica,sans-Serif" font-size="10.00">m_samples</text>
<text text-anchor="middle" x="902.5" y="-652.88" font-family="Helvetica,sans-Serif" font-size="10.00">m_xrange</text>
<text text-anchor="middle" x="902.5" y="-640.12" font-family="Helvetica,sans-Serif" font-size="10.00">m_yrange</text>
</g>
<!-- Node38 -->
<g id="node35" class="node">
<title>Node38</title>
<g id="a_node35"><a xlink:title=" ">
<polygon fill="white" stroke="#bfbfbf" points="843.5,-577.5 843.5,-598.25 961.5,-598.25 961.5,-577.5 843.5,-577.5"/>
<text text-anchor="middle" x="902.5" y="-584.75" font-family="Helvetica,sans-Serif" font-size="10.00">vector&lt; std::string &gt;</text>
</a>
</g>
</g>
<!-- Node15&#45;&gt;Node38 -->
<g id="edge42" class="edge">
<title>Node15&#45;&gt;Node38</title>
<path fill="none" stroke="#9a32cd" stroke-dasharray="5,2" d="M679.04,-626.15C700.31,-620.43 729.2,-613.12 755,-608.12 783.99,-602.52 816.5,-597.86 843.51,-594.43"/>
<polygon fill="#9a32cd" stroke="#9a32cd" points="678.39,-622.97 669.66,-628.98 680.23,-629.73 678.39,-622.97"/>
<text text-anchor="middle" x="779.38" y="-611.12" font-family="Helvetica,sans-Serif" font-size="10.00"> elements</text>
</g>
<!-- Node16 -->
<g id="node16" class="node">
<title>Node16</title>
<g id="a_node16"><a xlink:title="STL class.">
<polygon fill="white" stroke="#bfbfbf" points="198.88,-646.5 198.88,-667.25 316.88,-667.25 316.88,-646.5 198.88,-646.5"/>
<text text-anchor="middle" x="257.88" y="-653.75" font-family="Helvetica,sans-Serif" font-size="10.00">basic_string&lt; char &gt;</text>
</a>
</g>
</g>
<!-- Node16&#45;&gt;Node15 -->
<g id="edge19" class="edge">
<title>Node16&#45;&gt;Node15</title>
<path fill="none" stroke="midnightblue" d="M327.72,-652.96C417.62,-647.85 570.02,-639.19 625.17,-636.05"/>
<polygon fill="midnightblue" stroke="midnightblue" points="327.6,-649.52 317.81,-653.58 328,-656.51 327.6,-649.52"/>
</g>
<!-- Node17 -->
<g id="node17" class="node">
<title>Node17</title>
<g id="a_node17"><a xlink:href="classsciplot_1_1TicsSpecsMinor.html" target="_top" xlink:title="The class used to specify options for minor tics of a specific axis.">
<polygon fill="white" stroke="black" points="856.62,-527.5 856.62,-548.25 948.38,-548.25 948.38,-527.5 856.62,-527.5"/>
<text text-anchor="middle" x="902.5" y="-534.75" font-family="Helvetica,sans-Serif" font-size="10.00">TicsSpecsMinor</text>
</a>
</g>
</g>
<!-- Node17&#45;&gt;Node1 -->
<g id="edge20" class="edge">
<title>Node17&#45;&gt;Node1</title>
<path fill="none" stroke="#9a32cd" stroke-dasharray="5,2" d="M945.3,-524.39C962.53,-519.05 982.76,-513.09 1001.25,-508.38 1050.75,-495.76 1069.6,-510.57 1113.75,-484.88 1125.76,-477.88 1135.76,-465.19 1141.82,-456.19"/>
<polygon fill="#9a32cd" stroke="#9a32cd" points="944.5,-521.28 936,-527.61 946.59,-527.96 944.5,-521.28"/>
<text text-anchor="middle" x="1057.5" y="-574.88" font-family="Helvetica,sans-Serif" font-size="10.00"> m_rtics_minor</text>
<text text-anchor="middle" x="1057.5" y="-562.12" font-family="Helvetica,sans-Serif" font-size="10.00">m_xtics_minor_bottom</text>
<text text-anchor="middle" x="1057.5" y="-549.38" font-family="Helvetica,sans-Serif" font-size="10.00">m_xtics_minor_top</text>
<text text-anchor="middle" x="1057.5" y="-536.62" font-family="Helvetica,sans-Serif" font-size="10.00">m_ytics_minor_left</text>
<text text-anchor="middle" x="1057.5" y="-523.88" font-family="Helvetica,sans-Serif" font-size="10.00">m_ytics_minor_right</text>
<text text-anchor="middle" x="1057.5" y="-511.12" font-family="Helvetica,sans-Serif" font-size="10.00">m_ztics_minor</text>
</g>
<!-- Node18 -->
<g id="node18" class="node">
<title>Node18</title>
<g id="a_node18"><a xlink:href="classsciplot_1_1ShowSpecsOf.html" target="_top" xlink:title=" ">
<polygon fill="white" stroke="black" points="556.75,-580.5 556.75,-601.25 737,-601.25 737,-580.5 556.75,-580.5"/>
<text text-anchor="middle" x="646.88" y="-587.75" font-family="Helvetica,sans-Serif" font-size="10.00">ShowSpecsOf&lt; TicsSpecsMinor &gt;</text>
</a>
</g>
</g>
<!-- Node18&#45;&gt;Node17 -->
<g id="edge21" class="edge">
<title>Node18&#45;&gt;Node17</title>
<path fill="none" stroke="midnightblue" d="M708.03,-578.3C753.69,-568.76 815.45,-555.86 856.79,-547.22"/>
<polygon fill="midnightblue" stroke="midnightblue" points="707.45,-575.06 698.38,-580.53 708.88,-581.91 707.45,-575.06"/>
</g>
<!-- Node19 -->
<g id="node19" class="node">
<title>Node19</title>
<g id="a_node19"><a xlink:href="classsciplot_1_1Specs.html" target="_top" xlink:title=" ">
<polygon fill="white" stroke="black" points="186.5,-606.5 186.5,-627.25 329.25,-627.25 329.25,-606.5 186.5,-606.5"/>
<text text-anchor="middle" x="257.88" y="-613.75" font-family="Helvetica,sans-Serif" font-size="10.00">Specs&lt; TicsSpecsMinor &gt;</text>
</a>
</g>
</g>
<!-- Node19&#45;&gt;Node18 -->
<g id="edge22" class="edge">
<title>Node19&#45;&gt;Node18</title>
<path fill="none" stroke="midnightblue" d="M339.71,-611.44C403.18,-607.18 491.45,-601.25 556.91,-596.85"/>
<polygon fill="midnightblue" stroke="midnightblue" points="339.7,-608 329.96,-612.17 340.17,-614.99 339.7,-608"/>
</g>
<!-- Node20 -->
<g id="node20" class="node">
<title>Node20</title>
<g id="a_node20"><a xlink:href="classsciplot_1_1AxisLabelSpecs.html" target="_top" xlink:title="The specifications for an axis label (e.g., xlabel, ylabel, etc.)">
<polygon fill="white" stroke="black" points="856.62,-477.5 856.62,-498.25 948.38,-498.25 948.38,-477.5 856.62,-477.5"/>
<text text-anchor="middle" x="902.5" y="-484.75" font-family="Helvetica,sans-Serif" font-size="10.00">AxisLabelSpecs</text>
</a>
</g>
</g>
<!-- Node20&#45;&gt;Node1 -->
<g id="edge23" class="edge">
<title>Node20&#45;&gt;Node1</title>
<path fill="none" stroke="#9a32cd" stroke-dasharray="5,2" d="M931.42,-472.6C950.47,-463.06 976.62,-451.67 1001.25,-446.62 1047.96,-437.05 1104.8,-441.06 1132.05,-443.92"/>
<polygon fill="#9a32cd" stroke="#9a32cd" points="930.18,-469.82 922.89,-477.51 933.38,-476.04 930.18,-469.82"/>
<text text-anchor="middle" x="1057.5" y="-474.62" font-family="Helvetica,sans-Serif" font-size="10.00"> m_rlabel</text>
<text text-anchor="middle" x="1057.5" y="-461.88" font-family="Helvetica,sans-Serif" font-size="10.00">m_xlabel</text>
<text text-anchor="middle" x="1057.5" y="-449.12" font-family="Helvetica,sans-Serif" font-size="10.00">m_ylabel</text>
</g>
<!-- Node21 -->
<g id="node21" class="node">
<title>Node21</title>
<g id="a_node21"><a xlink:href="classsciplot_1_1TextSpecsOf.html" target="_top" xlink:title=" ">
<polygon fill="white" stroke="black" points="559.75,-531.5 559.75,-552.25 734,-552.25 734,-531.5 559.75,-531.5"/>
<text text-anchor="middle" x="646.88" y="-538.75" font-family="Helvetica,sans-Serif" font-size="10.00">TextSpecsOf&lt; AxisLabelSpecs &gt;</text>
</a>
</g>
</g>
<!-- Node21&#45;&gt;Node20 -->
<g id="edge24" class="edge">
<title>Node21&#45;&gt;Node20</title>
<path fill="none" stroke="midnightblue" d="M707.15,-529.26C752.92,-519.51 815.28,-506.23 856.89,-497.37"/>
<polygon fill="midnightblue" stroke="midnightblue" points="706.53,-526.02 697.48,-531.53 707.99,-532.87 706.53,-526.02"/>
</g>
<!-- Node22 -->
<g id="node22" class="node">
<title>Node22</title>
<g id="a_node22"><a xlink:href="classsciplot_1_1FontSpecsOf.html" target="_top" xlink:title=" ">
<polygon fill="white" stroke="red" points="170.38,-566.5 170.38,-587.25 345.38,-587.25 345.38,-566.5 170.38,-566.5"/>
<text text-anchor="middle" x="257.88" y="-573.75" font-family="Helvetica,sans-Serif" font-size="10.00">FontSpecsOf&lt; AxisLabelSpecs &gt;</text>
</a>
</g>
</g>
<!-- Node22&#45;&gt;Node21 -->
<g id="edge25" class="edge">
<title>Node22&#45;&gt;Node21</title>
<path fill="none" stroke="midnightblue" d="M355.93,-568.1C418.6,-562.43 499.39,-555.12 559.77,-549.66"/>
<polygon fill="midnightblue" stroke="midnightblue" points="355.89,-564.68 346.24,-569.06 356.52,-571.65 355.89,-564.68"/>
</g>
<!-- Node24 -->
<g id="node23" class="node">
<title>Node24</title>
<g id="a_node23"><a xlink:href="classsciplot_1_1TicsSpecs.html" target="_top" xlink:title="The class used to specify options for tics.">
<polygon fill="white" stroke="black" points="870.5,-417.5 870.5,-438.25 934.5,-438.25 934.5,-417.5 870.5,-417.5"/>
<text text-anchor="middle" x="902.5" y="-424.75" font-family="Helvetica,sans-Serif" font-size="10.00">TicsSpecs</text>
</a>
</g>
</g>
<!-- Node24&#45;&gt;Node1 -->
<g id="edge26" class="edge">
<title>Node24&#45;&gt;Node1</title>
<path fill="none" stroke="#9a32cd" stroke-dasharray="5,2" d="M942.44,-414.42C985.96,-401.69 1057.68,-387.72 1113.75,-411.12 1125.65,-416.09 1135.54,-427.41 1141.61,-435.79"/>
<polygon fill="#9a32cd" stroke="#9a32cd" points="941.55,-411.34 933.01,-417.61 943.59,-418.04 941.55,-411.34"/>
<text text-anchor="middle" x="1057.5" y="-414.12" font-family="Helvetica,sans-Serif" font-size="10.00"> m_tics</text>
</g>
<!-- Node25 -->
<g id="node24" class="node">
<title>Node25</title>
<g id="a_node24"><a xlink:href="classsciplot_1_1TicsSpecsBaseOf.html" target="_top" xlink:title=" ">
<polygon fill="white" stroke="black" points="562,-466.5 562,-487.25 731.75,-487.25 731.75,-466.5 562,-466.5"/>
<text text-anchor="middle" x="646.88" y="-473.75" font-family="Helvetica,sans-Serif" font-size="10.00">TicsSpecsBaseOf&lt; TicsSpecs &gt;</text>
</a>
</g>
</g>
<!-- Node25&#45;&gt;Node24 -->
<g id="edge27" class="edge">
<title>Node25&#45;&gt;Node24</title>
<path fill="none" stroke="midnightblue" d="M711.91,-464.5C762.74,-454.68 831.57,-441.38 870.78,-433.81"/>
<polygon fill="midnightblue" stroke="midnightblue" points="711.51,-461.21 702.35,-466.54 712.83,-468.08 711.51,-461.21"/>
</g>
<!-- Node26 -->
<g id="node25" class="node">
<title>Node26</title>
<g id="a_node25"><a xlink:href="classsciplot_1_1TextSpecsOf.html" target="_top" xlink:title=" ">
<polygon fill="white" stroke="red" points="184.62,-526.5 184.62,-547.25 331.12,-547.25 331.12,-526.5 184.62,-526.5"/>
<text text-anchor="middle" x="257.88" y="-533.75" font-family="Helvetica,sans-Serif" font-size="10.00">TextSpecsOf&lt; TicsSpecs &gt;</text>
</a>
</g>
</g>
<!-- Node26&#45;&gt;Node25 -->
<g id="edge28" class="edge">
<title>Node26&#45;&gt;Node25</title>
<path fill="none" stroke="midnightblue" d="M341.96,-528.23C397.8,-521.92 472.94,-512.45 538.75,-500.88 560.34,-497.08 584.15,-491.85 603.83,-487.24"/>
<polygon fill="midnightblue" stroke="midnightblue" points="341.6,-524.86 332.05,-529.45 342.38,-531.81 341.6,-524.86"/>
</g>
<!-- Node29 -->
<g id="node26" class="node">
<title>Node29</title>
<g id="a_node26"><a xlink:href="classsciplot_1_1OffsetSpecsOf.html" target="_top" xlink:title=" ">
<polygon fill="white" stroke="red" points="180.12,-486.5 180.12,-507.25 335.62,-507.25 335.62,-486.5 180.12,-486.5"/>
<text text-anchor="middle" x="257.88" y="-493.75" font-family="Helvetica,sans-Serif" font-size="10.00">OffsetSpecsOf&lt; TicsSpecs &gt;</text>
</a>
</g>
</g>
<!-- Node29&#45;&gt;Node25 -->
<g id="edge29" class="edge">
<title>Node29&#45;&gt;Node25</title>
<path fill="none" stroke="midnightblue" d="M346.31,-492.36C410.96,-489.02 498.46,-484.49 562.2,-481.2"/>
<polygon fill="midnightblue" stroke="midnightblue" points="346.14,-488.91 336.33,-492.92 346.5,-495.9 346.14,-488.91"/>
</g>
<!-- Node30 -->
<g id="node27" class="node">
<title>Node30</title>
<g id="a_node27"><a xlink:href="classsciplot_1_1ShowSpecsOf.html" target="_top" xlink:title=" ">
<polygon fill="white" stroke="red" points="181.62,-446.5 181.62,-467.25 334.12,-467.25 334.12,-446.5 181.62,-446.5"/>
<text text-anchor="middle" x="257.88" y="-453.75" font-family="Helvetica,sans-Serif" font-size="10.00">ShowSpecsOf&lt; TicsSpecs &gt;</text>
</a>
</g>
</g>
<!-- Node30&#45;&gt;Node25 -->
<g id="edge30" class="edge">
<title>Node30&#45;&gt;Node25</title>
<path fill="none" stroke="midnightblue" d="M344.55,-461.3C409.39,-464.65 497.96,-469.23 562.28,-472.55"/>
<polygon fill="midnightblue" stroke="midnightblue" points="345.12,-457.78 334.95,-460.75 344.76,-464.77 345.12,-457.78"/>
</g>
<!-- Node31 -->
<g id="node28" class="node">
<title>Node31</title>
<g id="a_node28"><a xlink:href="classsciplot_1_1LegendSpecs.html" target="_top" xlink:title="The class used to specify options for legend.">
<polygon fill="white" stroke="black" points="862.62,-363.5 862.62,-384.25 942.38,-384.25 942.38,-363.5 862.62,-363.5"/>
<text text-anchor="middle" x="902.5" y="-370.75" font-family="Helvetica,sans-Serif" font-size="10.00">LegendSpecs</text>
</a>
</g>
</g>
<!-- Node31&#45;&gt;Node1 -->
<g id="edge31" class="edge">
<title>Node31&#45;&gt;Node1</title>
<path fill="none" stroke="#9a32cd" stroke-dasharray="5,2" d="M952.86,-362.46C998.22,-354.82 1065.54,-350.99 1113.75,-381.12 1133.39,-393.4 1142.48,-420.95 1146.09,-435.85"/>
<polygon fill="#9a32cd" stroke="#9a32cd" points="952.32,-359.18 943.11,-364.41 953.57,-366.07 952.32,-359.18"/>
<text text-anchor="middle" x="1057.5" y="-384.12" font-family="Helvetica,sans-Serif" font-size="10.00"> m_legend</text>
</g>
<!-- Node32 -->
<g id="node29" class="node">
<title>Node32</title>
<g id="a_node29"><a xlink:href="classsciplot_1_1TextSpecsOf.html" target="_top" xlink:title=" ">
<polygon fill="white" stroke="black" points="565.75,-406.5 565.75,-427.25 728,-427.25 728,-406.5 565.75,-406.5"/>
<text text-anchor="middle" x="646.88" y="-413.75" font-family="Helvetica,sans-Serif" font-size="10.00">TextSpecsOf&lt; LegendSpecs &gt;</text>
</a>
</g>
</g>
<!-- Node32&#45;&gt;Node31 -->
<g id="edge32" class="edge">
<title>Node32&#45;&gt;Node31</title>
<path fill="none" stroke="midnightblue" d="M725.24,-404.83C750.31,-400.83 778.23,-396.27 803.75,-391.88 823.31,-388.51 845.02,-384.53 863,-381.18"/>
<polygon fill="midnightblue" stroke="midnightblue" points="725.01,-401.48 715.68,-406.51 726.11,-408.39 725.01,-401.48"/>
</g>
<!-- Node33 -->
<g id="node30" class="node">
<title>Node33</title>
<g id="a_node30"><a xlink:href="classsciplot_1_1FontSpecsOf.html" target="_top" xlink:title=" ">
<polygon fill="white" stroke="black" points="176.38,-406.5 176.38,-427.25 339.38,-427.25 339.38,-406.5 176.38,-406.5"/>
<text text-anchor="middle" x="257.88" y="-413.75" font-family="Helvetica,sans-Serif" font-size="10.00">FontSpecsOf&lt; LegendSpecs &gt;</text>
</a>
</g>
</g>
<!-- Node33&#45;&gt;Node32 -->
<g id="edge33" class="edge">
<title>Node33&#45;&gt;Node32</title>
<path fill="none" stroke="midnightblue" d="M349.79,-416.88C415.31,-416.88 502.9,-416.88 565.79,-416.88"/>
<polygon fill="midnightblue" stroke="midnightblue" points="350.06,-413.38 340.06,-416.88 350.06,-420.38 350.06,-413.38"/>
</g>
<!-- Node34 -->
<g id="node31" class="node">
<title>Node34</title>
<g id="a_node31"><a xlink:href="classsciplot_1_1Specs.html" target="_top" xlink:title=" ">
<polygon fill="white" stroke="black" points="0,-348.5 0,-369.25 130.75,-369.25 130.75,-348.5 0,-348.5"/>
<text text-anchor="middle" x="65.38" y="-355.75" font-family="Helvetica,sans-Serif" font-size="10.00">Specs&lt; LegendSpecs &gt;</text>
</a>
</g>
</g>
<!-- Node34&#45;&gt;Node33 -->
<g id="edge34" class="edge">
<title>Node34&#45;&gt;Node33</title>
<path fill="none" stroke="midnightblue" d="M99.25,-373.39C114.16,-379.63 132.15,-386.66 148.75,-391.88 166.77,-397.53 186.83,-402.52 204.74,-406.52"/>
<polygon fill="midnightblue" stroke="midnightblue" points="101.04,-369.93 90.46,-369.23 98.3,-376.37 101.04,-369.93"/>
</g>
<!-- Node35 -->
<g id="node32" class="node">
<title>Node35</title>
<g id="a_node32"><a xlink:href="classsciplot_1_1ShowSpecsOf.html" target="_top" xlink:title=" ">
<polygon fill="white" stroke="black" points="368.25,-367.5 368.25,-388.25 536.5,-388.25 536.5,-367.5 368.25,-367.5"/>
<text text-anchor="middle" x="452.38" y="-374.75" font-family="Helvetica,sans-Serif" font-size="10.00">ShowSpecsOf&lt; LegendSpecs &gt;</text>
</a>
</g>
</g>
<!-- Node34&#45;&gt;Node35 -->
<g id="edge36" class="edge">
<title>Node34&#45;&gt;Node35</title>
<path fill="none" stroke="midnightblue" d="M140.99,-362.56C206.21,-365.78 300.79,-370.44 368.38,-373.78"/>
<polygon fill="midnightblue" stroke="midnightblue" points="141.54,-359.03 131.38,-362.03 141.2,-366.02 141.54,-359.03"/>
</g>
<!-- Node36 -->
<g id="node33" class="node">
<title>Node36</title>
<g id="a_node33"><a xlink:href="classsciplot_1_1TitleSpecsOf.html" target="_top" xlink:title=" ">
<polygon fill="white" stroke="black" points="370.5,-329.5 370.5,-350.25 534.25,-350.25 534.25,-329.5 370.5,-329.5"/>
<text text-anchor="middle" x="452.38" y="-336.75" font-family="Helvetica,sans-Serif" font-size="10.00">TitleSpecsOf&lt; LegendSpecs &gt;</text>
</a>
</g>
</g>
<!-- Node34&#45;&gt;Node36 -->
<g id="edge38" class="edge">
<title>Node34&#45;&gt;Node36</title>
<path fill="none" stroke="midnightblue" d="M141.12,-355.19C207.12,-351.93 303.12,-347.19 370.82,-343.85"/>
<polygon fill="midnightblue" stroke="midnightblue" points="141.2,-351.73 131.38,-355.72 141.54,-358.72 141.2,-351.73"/>
</g>
<!-- Node37 -->
<g id="node34" class="node">
<title>Node37</title>
<g id="a_node34"><a xlink:href="classsciplot_1_1FrameSpecsOf.html" target="_top" xlink:title=" ">
<polygon fill="white" stroke="black" points="366,-291.5 366,-312.25 538.75,-312.25 538.75,-291.5 366,-291.5"/>
<text text-anchor="middle" x="452.38" y="-298.75" font-family="Helvetica,sans-Serif" font-size="10.00">FrameSpecsOf&lt; LegendSpecs &gt;</text>
</a>
</g>
</g>
<!-- Node34&#45;&gt;Node37 -->
<g id="edge40" class="edge">
<title>Node34&#45;&gt;Node37</title>
<path fill="none" stroke="midnightblue" d="M132.88,-346.68C144.49,-344.66 156.46,-342.65 167.75,-340.88 235.75,-330.17 313.19,-319.63 369.95,-312.21"/>
<polygon fill="midnightblue" stroke="midnightblue" points="132.59,-343.36 123.35,-348.53 133.8,-350.25 132.59,-343.36"/>
</g>
<!-- Node35&#45;&gt;Node31 -->
<g id="edge35" class="edge">
<title>Node35&#45;&gt;Node31</title>
<path fill="none" stroke="midnightblue" d="M547.11,-377.04C644.73,-376.17 792.94,-374.84 862.66,-374.22"/>
<polygon fill="midnightblue" stroke="midnightblue" points="547.32,-373.55 537.35,-377.13 547.38,-380.54 547.32,-373.55"/>
</g>
<!-- Node36&#45;&gt;Node31 -->
<g id="edge37" class="edge">
<title>Node36&#45;&gt;Node31</title>
<path fill="none" stroke="midnightblue" d="M544.76,-346.81C642.39,-354.22 792.56,-365.61 862.79,-370.94"/>
<polygon fill="midnightblue" stroke="midnightblue" points="545.24,-343.26 535.01,-345.99 544.71,-350.24 545.24,-343.26"/>
</g>
<!-- Node37&#45;&gt;Node31 -->
<g id="edge39" class="edge">
<title>Node37&#45;&gt;Node31</title>
<path fill="none" stroke="midnightblue" d="M542.06,-313.7C598.06,-321.42 671.88,-332.04 737,-342.88 780.14,-350.06 829.41,-359.51 862.7,-366.08"/>
<polygon fill="midnightblue" stroke="midnightblue" points="542.84,-310.14 532.46,-312.25 541.89,-317.08 542.84,-310.14"/>
</g>
<!-- Node38&#45;&gt;Node1 -->
<g id="edge41" class="edge">
<title>Node38&#45;&gt;Node1</title>
<path fill="none" stroke="#9a32cd" stroke-dasharray="5,2" d="M972.09,-595.63C1024.95,-600.04 1092.49,-601.76 1113.75,-584.88 1134.19,-568.64 1144.23,-485.51 1147.17,-456.15"/>
<polygon fill="#9a32cd" stroke="#9a32cd" points="972.66,-592.08 962.39,-594.68 972.05,-599.05 972.66,-592.08"/>
<text text-anchor="middle" x="1057.5" y="-601.12" font-family="Helvetica,sans-Serif" font-size="10.00"> m_customcmds</text>
</g>
<!-- Node39 -->
<g id="node36" class="node">
<title>Node39</title>
<g id="a_node36"><a xlink:href="classsciplot_1_1FillStyleSpecs.html" target="_top" xlink:title="The class used to attach color or pattern fill options to a type.">
<polygon fill="white" stroke="black" points="860.75,-293.5 860.75,-314.25 944.25,-314.25 944.25,-293.5 860.75,-293.5"/>
<text text-anchor="middle" x="902.5" y="-300.75" font-family="Helvetica,sans-Serif" font-size="10.00">FillStyleSpecs</text>
</a>
</g>
</g>
<!-- Node39&#45;&gt;Node1 -->
<g id="edge43" class="edge">
<title>Node39&#45;&gt;Node1</title>
<path fill="none" stroke="#9a32cd" stroke-dasharray="5,2" d="M954.67,-309.91C1013,-317.21 1101.85,-329.82 1113.75,-340.12 1142.5,-365.02 1147.36,-414.22 1148.07,-435.58"/>
<polygon fill="#9a32cd" stroke="#9a32cd" points="955.16,-306.32 944.8,-308.56 954.3,-313.26 955.16,-306.32"/>
<text text-anchor="middle" x="1057.5" y="-343.12" font-family="Helvetica,sans-Serif" font-size="10.00"> m_style_fill</text>
</g>
<!-- Node40 -->
<g id="node37" class="node">
<title>Node40</title>
<g id="a_node37"><a xlink:href="classsciplot_1_1Specs.html" target="_top" xlink:title=" ">
<polygon fill="white" stroke="black" points="579.62,-252.5 579.62,-273.25 714.12,-273.25 714.12,-252.5 579.62,-252.5"/>
<text text-anchor="middle" x="646.88" y="-259.75" font-family="Helvetica,sans-Serif" font-size="10.00">Specs&lt; FillStyleSpecs &gt;</text>
</a>
</g>
</g>
<!-- Node40&#45;&gt;Node39 -->
<g id="edge44" class="edge">
<title>Node40&#45;&gt;Node39</title>
<path fill="none" stroke="midnightblue" d="M723.45,-274.95C748.96,-279.03 777.59,-283.64 803.75,-287.88 822.59,-290.93 843.47,-294.34 861.08,-297.23"/>
<polygon fill="midnightblue" stroke="midnightblue" points="724.15,-271.35 713.72,-273.23 723.05,-278.27 724.15,-271.35"/>
</g>
<!-- Node41 -->
<g id="node38" class="node">
<title>Node41</title>
<g id="a_node38"><a xlink:href="classsciplot_1_1TicsSpecsMajor.html" target="_top" xlink:title="The class used to specify options for major tics of a specific axis.">
<polygon fill="white" stroke="black" points="856.62,-220.5 856.62,-241.25 948.38,-241.25 948.38,-220.5 856.62,-220.5"/>
<text text-anchor="middle" x="902.5" y="-227.75" font-family="Helvetica,sans-Serif" font-size="10.00">TicsSpecsMajor</text>
</a>
</g>
</g>
<!-- Node41&#45;&gt;Node1 -->
<g id="edge45" class="edge">
<title>Node41&#45;&gt;Node1</title>
<path fill="none" stroke="#9a32cd" stroke-dasharray="5,2" d="M958.85,-224.39C1013.3,-219.33 1091.44,-216 1113.75,-235.38 1144.36,-261.96 1147.76,-397.11 1148.1,-435.62"/>
<polygon fill="#9a32cd" stroke="#9a32cd" points="958.56,-221 948.95,-225.46 959.25,-227.97 958.56,-221"/>
<text text-anchor="middle" x="1057.5" y="-301.88" font-family="Helvetica,sans-Serif" font-size="10.00"> m_rtics_major</text>
<text text-anchor="middle" x="1057.5" y="-289.12" font-family="Helvetica,sans-Serif" font-size="10.00">m_xtics_major_bottom</text>
<text text-anchor="middle" x="1057.5" y="-276.38" font-family="Helvetica,sans-Serif" font-size="10.00">m_xtics_major_top</text>
<text text-anchor="middle" x="1057.5" y="-263.62" font-family="Helvetica,sans-Serif" font-size="10.00">m_ytics_major_left</text>
<text text-anchor="middle" x="1057.5" y="-250.88" font-family="Helvetica,sans-Serif" font-size="10.00">m_ytics_major_right</text>
<text text-anchor="middle" x="1057.5" y="-238.12" font-family="Helvetica,sans-Serif" font-size="10.00">m_ztics_major</text>
</g>
<!-- Node42 -->
<g id="node39" class="node">
<title>Node42</title>
<g id="a_node39"><a xlink:href="classsciplot_1_1TicsSpecsBaseOf.html" target="_top" xlink:title=" ">
<polygon fill="white" stroke="black" points="567.62,-200.12 567.62,-233.62 726.12,-233.62 726.12,-200.12 567.62,-200.12"/>
<text text-anchor="start" x="575.62" y="-220.12" font-family="Helvetica,sans-Serif" font-size="10.00">TicsSpecsBaseOf&lt; TicsSpecs</text>
<text text-anchor="middle" x="646.88" y="-207.38" font-family="Helvetica,sans-Serif" font-size="10.00">Major &gt;</text>
</a>
</g>
</g>
<!-- Node42&#45;&gt;Node41 -->
<g id="edge46" class="edge">
<title>Node42&#45;&gt;Node41</title>
<path fill="none" stroke="midnightblue" d="M736.77,-221.78C777.36,-224.02 823.65,-226.58 856.8,-228.41"/>
<polygon fill="midnightblue" stroke="midnightblue" points="737.22,-218.25 727.04,-221.19 736.83,-225.24 737.22,-218.25"/>
</g>
<!-- Node43 -->
<g id="node40" class="node">
<title>Node43</title>
<g id="a_node40"><a xlink:href="classsciplot_1_1TextSpecsOf.html" target="_top" xlink:title=" ">
<polygon fill="white" stroke="red" points="170.75,-252.5 170.75,-273.25 345,-273.25 345,-252.5 170.75,-252.5"/>
<text text-anchor="middle" x="257.88" y="-259.75" font-family="Helvetica,sans-Serif" font-size="10.00">TextSpecsOf&lt; TicsSpecsMajor &gt;</text>
</a>
</g>
</g>
<!-- Node43&#45;&gt;Node42 -->
<g id="edge47" class="edge">
<title>Node43&#45;&gt;Node42</title>
<path fill="none" stroke="midnightblue" d="M355.9,-252.17C409.78,-246.13 478.01,-238.32 538.75,-230.88 548.15,-229.72 558.01,-228.48 567.79,-227.23"/>
<polygon fill="midnightblue" stroke="midnightblue" points="355.52,-248.8 345.97,-253.39 356.3,-255.76 355.52,-248.8"/>
</g>
<!-- Node46 -->
<g id="node41" class="node">
<title>Node46</title>
<g id="a_node41"><a xlink:href="classsciplot_1_1OffsetSpecsOf.html" target="_top" xlink:title=" ">
<polygon fill="white" stroke="red" points="185.75,-200.12 185.75,-233.62 330,-233.62 330,-200.12 185.75,-200.12"/>
<text text-anchor="start" x="193.75" y="-220.12" font-family="Helvetica,sans-Serif" font-size="10.00">OffsetSpecsOf&lt; TicsSpecs</text>
<text text-anchor="middle" x="257.88" y="-207.38" font-family="Helvetica,sans-Serif" font-size="10.00">Major &gt;</text>
</a>
</g>
</g>
<!-- Node46&#45;&gt;Node42 -->
<g id="edge48" class="edge">
<title>Node46&#45;&gt;Node42</title>
<path fill="none" stroke="midnightblue" d="M340.78,-216.88C407.73,-216.88 501.77,-216.88 567.69,-216.88"/>
<polygon fill="midnightblue" stroke="midnightblue" points="340.86,-213.38 330.86,-216.88 340.86,-220.38 340.86,-213.38"/>
</g>
<!-- Node47 -->
<g id="node42" class="node">
<title>Node47</title>
<g id="a_node42"><a xlink:href="classsciplot_1_1ShowSpecsOf.html" target="_top" xlink:title=" ">
<polygon fill="white" stroke="red" points="167.75,-160.5 167.75,-181.25 348,-181.25 348,-160.5 167.75,-160.5"/>
<text text-anchor="middle" x="257.88" y="-167.75" font-family="Helvetica,sans-Serif" font-size="10.00">ShowSpecsOf&lt; TicsSpecsMajor &gt;</text>
</a>
</g>
</g>
<!-- Node47&#45;&gt;Node42 -->
<g id="edge49" class="edge">
<title>Node47&#45;&gt;Node42</title>
<path fill="none" stroke="midnightblue" d="M356.46,-182.47C421.9,-190.25 506.92,-200.36 567.85,-207.6"/>
<polygon fill="midnightblue" stroke="midnightblue" points="357.07,-178.9 346.73,-181.2 356.24,-185.85 357.07,-178.9"/>
</g>
<!-- Node48 -->
<g id="node43" class="node">
<title>Node48</title>
<g id="a_node43"><a xlink:href="classsciplot_1_1GridSpecs.html" target="_top" xlink:title="The class used to specify options for grid.">
<polygon fill="white" stroke="black" points="870.12,-179.5 870.12,-200.25 934.88,-200.25 934.88,-179.5 870.12,-179.5"/>
<text text-anchor="middle" x="902.5" y="-186.75" font-family="Helvetica,sans-Serif" font-size="10.00">GridSpecs</text>
</a>
</g>
</g>
<!-- Node48&#45;&gt;Node1 -->
<g id="edge50" class="edge">
<title>Node48&#45;&gt;Node1</title>
<path fill="none" stroke="#9a32cd" stroke-dasharray="5,2" d="M945.45,-186.54C999.73,-183.2 1090.14,-181.28 1113.75,-203.12 1148.35,-235.14 1148.81,-393.48 1148.31,-435.58"/>
<polygon fill="#9a32cd" stroke="#9a32cd" points="945.53,-183.09 935.78,-187.24 945.99,-190.08 945.53,-183.09"/>
<text text-anchor="middle" x="1057.5" y="-206.12" font-family="Helvetica,sans-Serif" font-size="10.00"> m_grid</text>
</g>
<!-- Node49 -->
<g id="node44" class="node">
<title>Node49</title>
<g id="a_node44"><a xlink:href="classsciplot_1_1GridSpecsBase.html" target="_top" xlink:title="The class used to specify options for grid lines along axis tics (major or minor).">
<polygon fill="white" stroke="black" points="602.5,-100.5 602.5,-121.25 691.25,-121.25 691.25,-100.5 602.5,-100.5"/>
<text text-anchor="middle" x="646.88" y="-107.75" font-family="Helvetica,sans-Serif" font-size="10.00">GridSpecsBase</text>
</a>
</g>
</g>
<!-- Node49&#45;&gt;Node48 -->
<g id="edge51" class="edge">
<title>Node49&#45;&gt;Node48</title>
<path fill="none" stroke="midnightblue" d="M691.39,-124.43C742.32,-140.29 825.41,-166.18 870.33,-180.16"/>
<polygon fill="midnightblue" stroke="midnightblue" points="692.62,-120.84 682.03,-121.2 690.54,-127.52 692.62,-120.84"/>
</g>
<!-- Node50 -->
<g id="node45" class="node">
<title>Node50</title>
<g id="a_node45"><a xlink:href="classsciplot_1_1LineSpecsOf.html" target="_top" xlink:title=" ">
<polygon fill="white" stroke="red" points="172.25,-120.5 172.25,-141.25 343.5,-141.25 343.5,-120.5 172.25,-120.5"/>
<text text-anchor="middle" x="257.88" y="-127.75" font-family="Helvetica,sans-Serif" font-size="10.00">LineSpecsOf&lt; GridSpecsBase &gt;</text>
</a>
</g>
</g>
<!-- Node50&#45;&gt;Node49 -->
<g id="edge52" class="edge">
<title>Node50&#45;&gt;Node49</title>
<path fill="none" stroke="midnightblue" d="M353.83,-125.97C433.22,-121.86 542.8,-116.2 602.62,-113.11"/>
<polygon fill="midnightblue" stroke="midnightblue" points="354.13,-122.5 344.33,-126.51 354.49,-129.49 354.13,-122.5"/>
</g>
<!-- Node52 -->
<g id="node46" class="node">
<title>Node52</title>
<g id="a_node46"><a xlink:href="classsciplot_1_1DepthSpecsOf.html" target="_top" xlink:title=" ">
<polygon fill="white" stroke="red" points="167.75,-80.5 167.75,-101.25 348,-101.25 348,-80.5 167.75,-80.5"/>
<text text-anchor="middle" x="257.88" y="-87.75" font-family="Helvetica,sans-Serif" font-size="10.00">DepthSpecsOf&lt; GridSpecsBase &gt;</text>
</a>
</g>
</g>
<!-- Node52&#45;&gt;Node49 -->
<g id="edge53" class="edge">
<title>Node52&#45;&gt;Node49</title>
<path fill="none" stroke="midnightblue" d="M358.61,-96.03C437.55,-100.11 543.96,-105.61 602.59,-108.64"/>
<polygon fill="midnightblue" stroke="midnightblue" points="358.83,-92.48 348.66,-95.46 358.47,-99.47 358.83,-92.48"/>
</g>
<!-- Node53 -->
<g id="node47" class="node">
<title>Node53</title>
<g id="a_node47"><a xlink:href="classsciplot_1_1ShowSpecsOf.html" target="_top" xlink:title=" ">
<polygon fill="white" stroke="red" points="169.25,-40.5 169.25,-61.25 346.5,-61.25 346.5,-40.5 169.25,-40.5"/>
<text text-anchor="middle" x="257.88" y="-47.75" font-family="Helvetica,sans-Serif" font-size="10.00">ShowSpecsOf&lt; GridSpecsBase &gt;</text>
</a>
</g>
</g>
<!-- Node53&#45;&gt;Node49 -->
<g id="edge54" class="edge">
<title>Node53&#45;&gt;Node49</title>
<path fill="none" stroke="midnightblue" d="M344.64,-62.76C400.09,-70.61 473.76,-81.35 538.75,-91.88 559.82,-95.29 583.16,-99.39 602.66,-102.91"/>
<polygon fill="midnightblue" stroke="midnightblue" points="345.2,-59.16 334.81,-61.23 344.22,-66.09 345.2,-59.16"/>
</g>
<!-- Node54 -->
<g id="node48" class="node">
<title>Node54</title>
<g id="a_node48"><a xlink:href="classsciplot_1_1FontSpecs.html" target="_top" xlink:title="The class used to specify font options.">
<polygon fill="white" stroke="black" points="869.75,-124.5 869.75,-145.25 935.25,-145.25 935.25,-124.5 869.75,-124.5"/>
<text text-anchor="middle" x="902.5" y="-131.75" font-family="Helvetica,sans-Serif" font-size="10.00">FontSpecs</text>
</a>
</g>
</g>
<!-- Node54&#45;&gt;Node1 -->
<g id="edge55" class="edge">
<title>Node54&#45;&gt;Node1</title>
<path fill="none" stroke="#9a32cd" stroke-dasharray="5,2" d="M945.7,-127.9C993.56,-122.63 1070.55,-122.63 1113.75,-167.12 1151.79,-206.31 1149.58,-390.34 1148.43,-435.73"/>
<polygon fill="#9a32cd" stroke="#9a32cd" points="945.57,-124.51 936.07,-129.21 946.43,-131.46 945.57,-124.51"/>
<text text-anchor="middle" x="1057.5" y="-170.12" font-family="Helvetica,sans-Serif" font-size="10.00"> m_font</text>
</g>
<!-- Node55 -->
<g id="node49" class="node">
<title>Node55</title>
<g id="a_node49"><a xlink:href="classsciplot_1_1FontSpecsOf.html" target="_top" xlink:title=" ">
<polygon fill="white" stroke="black" points="572.5,-20.5 572.5,-41.25 721.25,-41.25 721.25,-20.5 572.5,-20.5"/>
<text text-anchor="middle" x="646.88" y="-27.75" font-family="Helvetica,sans-Serif" font-size="10.00">FontSpecsOf&lt; FontSpecs &gt;</text>
</a>
</g>
</g>
<!-- Node55&#45;&gt;Node54 -->
<g id="edge56" class="edge">
<title>Node55&#45;&gt;Node54</title>
<path fill="none" stroke="midnightblue" d="M683.21,-45.36C735.17,-66.67 830.95,-105.95 876.36,-124.56"/>
<polygon fill="midnightblue" stroke="midnightblue" points="684.7,-41.78 674.12,-41.23 682.05,-48.26 684.7,-41.78"/>
</g>
<!-- Node56 -->
<g id="node50" class="node">
<title>Node56</title>
<g id="a_node50"><a xlink:href="classsciplot_1_1Specs.html" target="_top" xlink:title=" ">
<polygon fill="white" stroke="black" points="199.62,-0.5 199.62,-21.25 316.12,-21.25 316.12,-0.5 199.62,-0.5"/>
<text text-anchor="middle" x="257.88" y="-7.75" font-family="Helvetica,sans-Serif" font-size="10.00">Specs&lt; FontSpecs &gt;</text>
</a>
</g>
</g>
<!-- Node56&#45;&gt;Node55 -->
<g id="edge57" class="edge">
<title>Node56&#45;&gt;Node55</title>
<path fill="none" stroke="midnightblue" d="M326.7,-14.38C395.58,-17.94 501.9,-23.43 572.66,-27.09"/>
<polygon fill="midnightblue" stroke="midnightblue" points="327.15,-10.85 316.98,-13.83 326.78,-17.84 327.15,-10.85"/>
</g>
</g>
</svg>
