<?xml version="1.0" encoding="UTF-8" standalone="no"?>
<!DOCTYPE svg PUBLIC "-//W3C//DTD SVG 1.1//EN"
 "http://www.w3.org/Graphics/SVG/1.1/DTD/svg11.dtd">
<!-- Generated by graphviz version 8.0.4 (20230426.1303)
 -->
<!-- Title: BorderSpecs Pages: 1 -->
<svg width="354pt" height="145pt"
 viewBox="0.00 0.00 353.75 145.25" xmlns="http://www.w3.org/2000/svg" xmlns:xlink="http://www.w3.org/1999/xlink">
<g id="graph0" class="graph" transform="scale(1 1) rotate(0) translate(4 141.25)">
<title>BorderSpecs</title>
<polygon fill="white" stroke="none" points="-4,4 -4,-141.25 349.75,-141.25 349.75,4 -4,4"/>
<!-- Node1 -->
<g id="node1" class="node">
<title>Node1</title>
<g id="a_node1"><a xlink:title="The class used to specify options for plot border.">
<polygon fill="#bfbfbf" stroke="black" points="132.25,-0.5 132.25,-21.25 209,-21.25 209,-0.5 132.25,-0.5"/>
<text text-anchor="middle" x="170.62" y="-7.75" font-family="Helvetica,sans-Serif" font-size="10.00">BorderSpecs</text>
</a>
</g>
</g>
<!-- Node2 -->
<g id="node2" class="node">
<title>Node2</title>
<g id="a_node2"><a xlink:href="classsciplot_1_1LineSpecsOf.html" target="_top" xlink:title=" ">
<polygon fill="white" stroke="black" points="0,-58.25 0,-79 159.25,-79 159.25,-58.25 0,-58.25"/>
<text text-anchor="middle" x="79.62" y="-65.5" font-family="Helvetica,sans-Serif" font-size="10.00">LineSpecsOf&lt; BorderSpecs &gt;</text>
</a>
</g>
</g>
<!-- Node2&#45;&gt;Node1 -->
<g id="edge1" class="edge">
<title>Node2&#45;&gt;Node1</title>
<path fill="none" stroke="midnightblue" d="M103.69,-52.88C120.16,-42.79 141.47,-29.73 155.58,-21.09"/>
<polygon fill="midnightblue" stroke="midnightblue" points="102.35,-50.21 95.65,-58.42 106.01,-56.18 102.35,-50.21"/>
</g>
<!-- Node3 -->
<g id="node3" class="node">
<title>Node3</title>
<g id="a_node3"><a xlink:href="classsciplot_1_1Specs.html" target="_top" xlink:title=" ">
<polygon fill="white" stroke="black" points="106.75,-116 106.75,-136.75 234.5,-136.75 234.5,-116 106.75,-116"/>
<text text-anchor="middle" x="170.62" y="-123.25" font-family="Helvetica,sans-Serif" font-size="10.00">Specs&lt; BorderSpecs &gt;</text>
</a>
</g>
</g>
<!-- Node3&#45;&gt;Node2 -->
<g id="edge2" class="edge">
<title>Node3&#45;&gt;Node2</title>
<path fill="none" stroke="midnightblue" d="M146.56,-110.63C130.09,-100.54 108.78,-87.48 94.67,-78.84"/>
<polygon fill="midnightblue" stroke="midnightblue" points="144.24,-113.93 154.6,-116.17 147.9,-107.96 144.24,-113.93"/>
</g>
<!-- Node4 -->
<g id="node4" class="node">
<title>Node4</title>
<g id="a_node4"><a xlink:href="classsciplot_1_1DepthSpecsOf.html" target="_top" xlink:title=" ">
<polygon fill="white" stroke="black" points="177.5,-58.25 177.5,-79 345.75,-79 345.75,-58.25 177.5,-58.25"/>
<text text-anchor="middle" x="261.62" y="-65.5" font-family="Helvetica,sans-Serif" font-size="10.00">DepthSpecsOf&lt; BorderSpecs &gt;</text>
</a>
</g>
</g>
<!-- Node3&#45;&gt;Node4 -->
<g id="edge4" class="edge">
<title>Node3&#45;&gt;Node4</title>
<path fill="none" stroke="midnightblue" d="M194.69,-110.63C211.16,-100.54 232.47,-87.48 246.58,-78.84"/>
<polygon fill="midnightblue" stroke="midnightblue" points="193.35,-107.96 186.65,-116.17 197.01,-113.93 193.35,-107.96"/>
</g>
<!-- Node4&#45;&gt;Node1 -->
<g id="edge3" class="edge">
<title>Node4&#45;&gt;Node1</title>
<path fill="none" stroke="midnightblue" d="M237.56,-52.88C221.09,-42.79 199.78,-29.73 185.67,-21.09"/>
<polygon fill="midnightblue" stroke="midnightblue" points="235.24,-56.18 245.6,-58.42 238.9,-50.21 235.24,-56.18"/>
</g>
</g>
</svg>
