<?xml version="1.0" encoding="UTF-8" standalone="no"?>
<!DOCTYPE svg PUBLIC "-//W3C//DTD SVG 1.1//EN"
 "http://www.w3.org/Graphics/SVG/1.1/DTD/svg11.dtd">
<!-- Generated by graphviz version 2.47.0 (20210327.0129)
 -->
<!-- Title: TicsSpecsMajor Pages: 1 -->
<svg width="853pt" height="113pt"
 viewBox="0.00 0.00 853.00 113.00" xmlns="http://www.w3.org/2000/svg" xmlns:xlink="http://www.w3.org/1999/xlink">
<g id="graph0" class="graph" transform="scale(1 1) rotate(0) translate(4 109)">
<title>TicsSpecsMajor</title>
<polygon fill="white" stroke="transparent" points="-4,4 -4,-109 849,-109 849,4 -4,4"/>
<!-- Node1 -->
<g id="node1" class="node">
<title>Node1</title>
<g id="a_node1"><a xlink:title="The class used to specify options for major tics of a specific axis.">
<polygon fill="#bfbfbf" stroke="black" points="758,-41.5 758,-60.5 845,-60.5 845,-41.5 758,-41.5"/>
<text text-anchor="middle" x="801.5" y="-48.5" font-family="Helvetica" font-size="10.00">TicsSpecsMajor</text>
</a>
</g>
</g>
<!-- Node2 -->
<g id="node2" class="node">
<title>Node2</title>
<g id="a_node2"><a xlink:href="classsciplot_1_1TicsSpecsBaseOf.html" target="_top" xlink:title=" ">
<polygon fill="white" stroke="black" points="570,-36 570,-66 722,-66 722,-36 570,-36"/>
<text text-anchor="start" x="578" y="-54" font-family="Helvetica" font-size="10.00">TicsSpecsBaseOf&lt; TicsSpecs</text>
<text text-anchor="middle" x="646" y="-43" font-family="Helvetica" font-size="10.00">Major &gt;</text>
</a>
</g>
</g>
<!-- Node2&#45;&gt;Node1 -->
<g id="edge1" class="edge">
<title>Node2&#45;&gt;Node1</title>
<path fill="none" stroke="midnightblue" d="M732.62,-51C741.29,-51 749.8,-51 757.72,-51"/>
<polygon fill="midnightblue" stroke="midnightblue" points="732.4,-47.5 722.4,-51 732.4,-54.5 732.4,-47.5"/>
</g>
<!-- Node3 -->
<g id="node3" class="node">
<title>Node3</title>
<g id="a_node3"><a xlink:href="classsciplot_1_1TextSpecsOf.html" target="_top" xlink:title=" ">
<polygon fill="white" stroke="black" points="372,-85.5 372,-104.5 534,-104.5 534,-85.5 372,-85.5"/>
<text text-anchor="middle" x="453" y="-92.5" font-family="Helvetica" font-size="10.00">TextSpecsOf&lt; TicsSpecsMajor &gt;</text>
</a>
</g>
</g>
<!-- Node3&#45;&gt;Node2 -->
<g id="edge2" class="edge">
<title>Node3&#45;&gt;Node2</title>
<path fill="none" stroke="midnightblue" d="M505.28,-83.19C528.13,-77.92 555.31,-71.66 579.6,-66.07"/>
<polygon fill="midnightblue" stroke="midnightblue" points="504.4,-79.8 495.44,-85.45 505.97,-86.62 504.4,-79.8"/>
</g>
<!-- Node4 -->
<g id="node4" class="node">
<title>Node4</title>
<g id="a_node4"><a xlink:href="classsciplot_1_1FontSpecsOf.html" target="_top" xlink:title=" ">
<polygon fill="white" stroke="black" points="171,-82.5 171,-101.5 334,-101.5 334,-82.5 171,-82.5"/>
<text text-anchor="middle" x="252.5" y="-89.5" font-family="Helvetica" font-size="10.00">FontSpecsOf&lt; TicsSpecsMajor &gt;</text>
</a>
</g>
</g>
<!-- Node4&#45;&gt;Node3 -->
<g id="edge3" class="edge">
<title>Node4&#45;&gt;Node3</title>
<path fill="none" stroke="midnightblue" d="M344.52,-93.38C353.69,-93.51 362.94,-93.65 371.98,-93.79"/>
<polygon fill="midnightblue" stroke="midnightblue" points="344.29,-89.87 334.24,-93.22 344.18,-96.87 344.29,-89.87"/>
</g>
<!-- Node5 -->
<g id="node5" class="node">
<title>Node5</title>
<g id="a_node5"><a xlink:href="classsciplot_1_1Specs.html" target="_top" xlink:title=" ">
<polygon fill="white" stroke="black" points="0,-41.5 0,-60.5 133,-60.5 133,-41.5 0,-41.5"/>
<text text-anchor="middle" x="66.5" y="-48.5" font-family="Helvetica" font-size="10.00">Specs&lt; TicsSpecsMajor &gt;</text>
</a>
</g>
</g>
<!-- Node5&#45;&gt;Node4 -->
<g id="edge4" class="edge">
<title>Node5&#45;&gt;Node4</title>
<path fill="none" stroke="midnightblue" d="M120.22,-62.75C148.28,-69 182.34,-76.59 208.74,-82.47"/>
<polygon fill="midnightblue" stroke="midnightblue" points="120.7,-59.27 110.18,-60.51 119.18,-66.1 120.7,-59.27"/>
</g>
<!-- Node6 -->
<g id="node6" class="node">
<title>Node6</title>
<g id="a_node6"><a xlink:href="classsciplot_1_1OffsetSpecsOf.html" target="_top" xlink:title=" ">
<polygon fill="white" stroke="black" points="384.5,-36 384.5,-66 521.5,-66 521.5,-36 384.5,-36"/>
<text text-anchor="start" x="392.5" y="-54" font-family="Helvetica" font-size="10.00">OffsetSpecsOf&lt; TicsSpecs</text>
<text text-anchor="middle" x="453" y="-43" font-family="Helvetica" font-size="10.00">Major &gt;</text>
</a>
</g>
</g>
<!-- Node5&#45;&gt;Node6 -->
<g id="edge6" class="edge">
<title>Node5&#45;&gt;Node6</title>
<path fill="none" stroke="midnightblue" d="M143.27,-51C213.45,-51 316.88,-51 384.35,-51"/>
<polygon fill="midnightblue" stroke="midnightblue" points="143.16,-47.5 133.16,-51 143.16,-54.5 143.16,-47.5"/>
</g>
<!-- Node7 -->
<g id="node7" class="node">
<title>Node7</title>
<g id="a_node7"><a xlink:href="classsciplot_1_1ShowSpecsOf.html" target="_top" xlink:title=" ">
<polygon fill="white" stroke="black" points="169,-0.5 169,-19.5 336,-19.5 336,-0.5 169,-0.5"/>
<text text-anchor="middle" x="252.5" y="-7.5" font-family="Helvetica" font-size="10.00">ShowSpecsOf&lt; TicsSpecsMajor &gt;</text>
</a>
</g>
</g>
<!-- Node5&#45;&gt;Node7 -->
<g id="edge8" class="edge">
<title>Node5&#45;&gt;Node7</title>
<path fill="none" stroke="midnightblue" d="M120.22,-39.25C148.28,-33 182.34,-25.41 208.74,-19.53"/>
<polygon fill="midnightblue" stroke="midnightblue" points="119.18,-35.9 110.18,-41.49 120.7,-42.73 119.18,-35.9"/>
</g>
<!-- Node6&#45;&gt;Node2 -->
<g id="edge5" class="edge">
<title>Node6&#45;&gt;Node2</title>
<path fill="none" stroke="midnightblue" d="M531.96,-51C544.41,-51 557.28,-51 569.68,-51"/>
<polygon fill="midnightblue" stroke="midnightblue" points="531.61,-47.5 521.61,-51 531.61,-54.5 531.61,-47.5"/>
</g>
<!-- Node7&#45;&gt;Node2 -->
<g id="edge7" class="edge">
<title>Node7&#45;&gt;Node2</title>
<path fill="none" stroke="midnightblue" d="M346.13,-11.46C400.98,-13.27 471.7,-17.27 534,-26 551.21,-28.41 569.71,-32.12 586.57,-35.95"/>
<polygon fill="midnightblue" stroke="midnightblue" points="346.19,-7.96 336.08,-11.14 345.97,-14.96 346.19,-7.96"/>
</g>
</g>
</svg>
