<?xml version="1.0" encoding="UTF-8" standalone="no"?>
<!DOCTYPE svg PUBLIC "-//W3C//DTD SVG 1.1//EN"
 "http://www.w3.org/Graphics/SVG/1.1/DTD/svg11.dtd">
<!-- Generated by graphviz version 2.47.1 (20210418.0311)
 -->
<!-- Title: LegendSpecs Pages: 1 -->
<svg width="630pt" height="142pt"
 viewBox="0.00 0.00 630.00 142.00" xmlns="http://www.w3.org/2000/svg" xmlns:xlink="http://www.w3.org/1999/xlink">
<g id="graph0" class="graph" transform="scale(1 1) rotate(0) translate(4 138)">
<title>LegendSpecs</title>
<polygon fill="white" stroke="transparent" points="-4,4 -4,-138 626,-138 626,4 -4,4"/>
<!-- Node1 -->
<g id="node1" class="node">
<title>Node1</title>
<g id="a_node1"><a xlink:title="The class used to specify options for legend.">
<polygon fill="#bfbfbf" stroke="black" points="546,-57.5 546,-76.5 622,-76.5 622,-57.5 546,-57.5"/>
<text text-anchor="middle" x="584" y="-64.5" font-family="Helvetica" font-size="10.00">LegendSpecs</text>
</a>
</g>
</g>
<!-- Node2 -->
<g id="node2" class="node">
<title>Node2</title>
<g id="a_node2"><a xlink:href="classsciplot_1_1TextSpecsOf.html" target="_top" xlink:title=" ">
<polygon fill="white" stroke="black" points="356.5,-114.5 356.5,-133.5 507.5,-133.5 507.5,-114.5 356.5,-114.5"/>
<text text-anchor="middle" x="432" y="-121.5" font-family="Helvetica" font-size="10.00">TextSpecsOf&lt; LegendSpecs &gt;</text>
</a>
</g>
</g>
<!-- Node2&#45;&gt;Node1 -->
<g id="edge1" class="edge">
<title>Node2&#45;&gt;Node1</title>
<path fill="none" stroke="midnightblue" d="M489.66,-111.66C496.59,-109.67 503.51,-107.45 510,-105 530.59,-97.23 552.82,-85.06 567.27,-76.59"/>
<polygon fill="midnightblue" stroke="midnightblue" points="488.29,-108.41 479.56,-114.41 490.12,-115.16 488.29,-108.41"/>
</g>
<!-- Node3 -->
<g id="node3" class="node">
<title>Node3</title>
<g id="a_node3"><a xlink:href="classsciplot_1_1FontSpecsOf.html" target="_top" xlink:title=" ">
<polygon fill="white" stroke="black" points="162,-114.5 162,-133.5 314,-133.5 314,-114.5 162,-114.5"/>
<text text-anchor="middle" x="238" y="-121.5" font-family="Helvetica" font-size="10.00">FontSpecsOf&lt; LegendSpecs &gt;</text>
</a>
</g>
</g>
<!-- Node3&#45;&gt;Node2 -->
<g id="edge2" class="edge">
<title>Node3&#45;&gt;Node2</title>
<path fill="none" stroke="midnightblue" d="M324.23,-124C334.93,-124 345.8,-124 356.31,-124"/>
<polygon fill="midnightblue" stroke="midnightblue" points="324.06,-120.5 314.06,-124 324.06,-127.5 324.06,-120.5"/>
</g>
<!-- Node4 -->
<g id="node4" class="node">
<title>Node4</title>
<g id="a_node4"><a xlink:href="classsciplot_1_1Specs.html" target="_top" xlink:title=" ">
<polygon fill="white" stroke="black" points="0,-57.5 0,-76.5 122,-76.5 122,-57.5 0,-57.5"/>
<text text-anchor="middle" x="61" y="-64.5" font-family="Helvetica" font-size="10.00">Specs&lt; LegendSpecs &gt;</text>
</a>
</g>
</g>
<!-- Node4&#45;&gt;Node3 -->
<g id="edge3" class="edge">
<title>Node4&#45;&gt;Node3</title>
<path fill="none" stroke="midnightblue" d="M98.31,-79.83C116.23,-86.07 138.19,-93.59 158,-100 173.27,-104.94 190.3,-110.16 204.63,-114.45"/>
<polygon fill="midnightblue" stroke="midnightblue" points="99.41,-76.5 88.81,-76.51 97.09,-83.11 99.41,-76.5"/>
</g>
<!-- Node5 -->
<g id="node5" class="node">
<title>Node5</title>
<g id="a_node5"><a xlink:href="classsciplot_1_1ShowSpecsOf.html" target="_top" xlink:title=" ">
<polygon fill="white" stroke="black" points="354,-76.5 354,-95.5 510,-95.5 510,-76.5 354,-76.5"/>
<text text-anchor="middle" x="432" y="-83.5" font-family="Helvetica" font-size="10.00">ShowSpecsOf&lt; LegendSpecs &gt;</text>
</a>
</g>
</g>
<!-- Node4&#45;&gt;Node5 -->
<g id="edge5" class="edge">
<title>Node4&#45;&gt;Node5</title>
<path fill="none" stroke="midnightblue" d="M132.4,-70.62C195.74,-73.89 288.61,-78.67 353.93,-82.03"/>
<polygon fill="midnightblue" stroke="midnightblue" points="132.27,-67.11 122.11,-70.09 131.91,-74.1 132.27,-67.11"/>
</g>
<!-- Node6 -->
<g id="node6" class="node">
<title>Node6</title>
<g id="a_node6"><a xlink:href="classsciplot_1_1TitleSpecsOf.html" target="_top" xlink:title=" ">
<polygon fill="white" stroke="black" points="356.5,-38.5 356.5,-57.5 507.5,-57.5 507.5,-38.5 356.5,-38.5"/>
<text text-anchor="middle" x="432" y="-45.5" font-family="Helvetica" font-size="10.00">TitleSpecsOf&lt; LegendSpecs &gt;</text>
</a>
</g>
</g>
<!-- Node4&#45;&gt;Node6 -->
<g id="edge7" class="edge">
<title>Node4&#45;&gt;Node6</title>
<path fill="none" stroke="midnightblue" d="M132.12,-63.39C196.22,-60.09 290.74,-55.22 356.25,-51.85"/>
<polygon fill="midnightblue" stroke="midnightblue" points="131.91,-59.9 122.11,-63.91 132.27,-66.89 131.91,-59.9"/>
</g>
<!-- Node7 -->
<g id="node7" class="node">
<title>Node7</title>
<g id="a_node7"><a xlink:href="classsciplot_1_1FrameSpecsOf.html" target="_top" xlink:title=" ">
<polygon fill="white" stroke="black" points="158,-0.5 158,-19.5 318,-19.5 318,-0.5 158,-0.5"/>
<text text-anchor="middle" x="238" y="-7.5" font-family="Helvetica" font-size="10.00">FrameSpecsOf&lt; LegendSpecs &gt;</text>
</a>
</g>
</g>
<!-- Node4&#45;&gt;Node7 -->
<g id="edge9" class="edge">
<title>Node4&#45;&gt;Node7</title>
<path fill="none" stroke="midnightblue" d="M98.31,-54.17C116.23,-47.93 138.19,-40.41 158,-34 173.27,-29.06 190.3,-23.84 204.63,-19.55"/>
<polygon fill="midnightblue" stroke="midnightblue" points="97.09,-50.89 88.81,-57.49 99.41,-57.5 97.09,-50.89"/>
</g>
<!-- Node5&#45;&gt;Node1 -->
<g id="edge4" class="edge">
<title>Node5&#45;&gt;Node1</title>
<path fill="none" stroke="midnightblue" d="M518.45,-75.18C528.01,-73.97 537.33,-72.78 545.79,-71.71"/>
<polygon fill="midnightblue" stroke="midnightblue" points="517.92,-71.72 508.44,-76.44 518.8,-78.66 517.92,-71.72"/>
</g>
<!-- Node6&#45;&gt;Node1 -->
<g id="edge6" class="edge">
<title>Node6&#45;&gt;Node1</title>
<path fill="none" stroke="midnightblue" d="M517.77,-58.74C527.52,-59.97 537.05,-61.18 545.67,-62.27"/>
<polygon fill="midnightblue" stroke="midnightblue" points="517.92,-55.23 507.56,-57.44 517.04,-62.17 517.92,-55.23"/>
</g>
<!-- Node7&#45;&gt;Node1 -->
<g id="edge8" class="edge">
<title>Node7&#45;&gt;Node1</title>
<path fill="none" stroke="midnightblue" d="M328.3,-7.18C381.91,-7.7 450.94,-12.34 510,-29 531.86,-35.17 554.73,-48.33 568.92,-57.42"/>
<polygon fill="midnightblue" stroke="midnightblue" points="328.15,-3.68 318.13,-7.12 328.11,-10.68 328.15,-3.68"/>
</g>
</g>
</svg>
