<?xml version="1.0" encoding="UTF-8" standalone="no"?>
<!DOCTYPE svg PUBLIC "-//W3C//DTD SVG 1.1//EN"
 "http://www.w3.org/Graphics/SVG/1.1/DTD/svg11.dtd">
<!-- Generated by graphviz version 3.0.0 (20220315.2325)
 -->
<!-- Title: Specs&lt; DerivedSpecs &gt; Pages: 1 -->
<svg width="750pt" height="382pt"
 viewBox="0.00 0.00 750.00 382.00" xmlns="http://www.w3.org/2000/svg" xmlns:xlink="http://www.w3.org/1999/xlink">
<g id="graph0" class="graph" transform="scale(1 1) rotate(0) translate(4 378)">
<title>Specs&lt; DerivedSpecs &gt;</title>
<polygon fill="white" stroke="transparent" points="-4,4 -4,-378 746,-378 746,4 -4,4"/>
<!-- Node1 -->
<g id="node1" class="node">
<title>Node1</title>
<g id="a_node1"><a xlink:title="The base class for other specs classes (e.g., LineSpecsOf, DrawSpecs, BorderSpecs,...">
<polygon fill="#bfbfbf" stroke="black" points="0,-171.5 0,-190.5 134,-190.5 134,-171.5 0,-171.5"/>
<text text-anchor="middle" x="67" y="-178.5" font-family="Helvetica,sans-Serif" font-size="10.00">Specs&lt; DerivedSpecs &gt;</text>
</a>
</g>
</g>
<!-- Node2 -->
<g id="node2" class="node">
<title>Node2</title>
<g id="a_node2"><a xlink:href="classsciplot_1_1DepthSpecsOf.html" target="_top" xlink:title="The class used to attach depth options to a type.">
<polygon fill="white" stroke="black" points="170.5,-354.5 170.5,-373.5 345.5,-373.5 345.5,-354.5 170.5,-354.5"/>
<text text-anchor="middle" x="258" y="-361.5" font-family="Helvetica,sans-Serif" font-size="10.00">DepthSpecsOf&lt; DerivedSpecs &gt;</text>
</a>
</g>
</g>
<!-- Node1&#45;&gt;Node2 -->
<g id="edge1" class="edge">
<title>Node1&#45;&gt;Node2</title>
<path fill="none" stroke="midnightblue" d="M74.39,-200.54C86.85,-235.42 117.85,-308.18 170,-345 175.43,-348.83 181.49,-351.92 187.82,-354.39"/>
<polygon fill="midnightblue" stroke="midnightblue" points="77.55,-198.96 70.99,-190.64 70.93,-201.23 77.55,-198.96"/>
</g>
<!-- Node3 -->
<g id="node3" class="node">
<title>Node3</title>
<g id="a_node3"><a xlink:href="classsciplot_1_1FilledCurvesSpecsOf.html" target="_top" xlink:title="The class used to set options for the gnuplot filledcurve functionality.">
<polygon fill="white" stroke="black" points="200,-305 200,-335 316,-335 316,-305 200,-305"/>
<text text-anchor="start" x="208" y="-323" font-family="Helvetica,sans-Serif" font-size="10.00">FilledCurvesSpecsOf</text>
<text text-anchor="middle" x="258" y="-312" font-family="Helvetica,sans-Serif" font-size="10.00">&lt; DerivedSpecs &gt;</text>
</a>
</g>
</g>
<!-- Node1&#45;&gt;Node3 -->
<g id="edge2" class="edge">
<title>Node1&#45;&gt;Node3</title>
<path fill="none" stroke="midnightblue" d="M79.42,-199.2C96.2,-224.46 129.91,-269.84 170,-295 179.05,-300.68 189.43,-305.11 199.8,-308.54"/>
<polygon fill="midnightblue" stroke="midnightblue" points="82.22,-197.08 73.84,-190.6 76.34,-200.89 82.22,-197.08"/>
</g>
<!-- Node4 -->
<g id="node4" class="node">
<title>Node4</title>
<g id="a_node4"><a xlink:href="classsciplot_1_1FillSpecsOf.html" target="_top" xlink:title="The class used to attach color or pattern fill options to a type.">
<polygon fill="white" stroke="black" points="178,-266.5 178,-285.5 338,-285.5 338,-266.5 178,-266.5"/>
<text text-anchor="middle" x="258" y="-273.5" font-family="Helvetica,sans-Serif" font-size="10.00">FillSpecsOf&lt; DerivedSpecs &gt;</text>
</a>
</g>
</g>
<!-- Node1&#45;&gt;Node4 -->
<g id="edge3" class="edge">
<title>Node1&#45;&gt;Node4</title>
<path fill="none" stroke="midnightblue" d="M85.11,-197.41C104.25,-214.85 136.94,-241.93 170,-257 178.44,-260.85 187.7,-263.94 196.94,-266.41"/>
<polygon fill="midnightblue" stroke="midnightblue" points="87.48,-194.84 77.77,-190.59 82.71,-199.96 87.48,-194.84"/>
</g>
<!-- Node5 -->
<g id="node5" class="node">
<title>Node5</title>
<g id="a_node5"><a xlink:href="classsciplot_1_1FontSpecsOf.html" target="_top" xlink:title="The class used to attach font options to a type.">
<polygon fill="white" stroke="black" points="174.5,-228.5 174.5,-247.5 341.5,-247.5 341.5,-228.5 174.5,-228.5"/>
<text text-anchor="middle" x="258" y="-235.5" font-family="Helvetica,sans-Serif" font-size="10.00">FontSpecsOf&lt; DerivedSpecs &gt;</text>
</a>
</g>
</g>
<!-- Node1&#45;&gt;Node5 -->
<g id="edge4" class="edge">
<title>Node1&#45;&gt;Node5</title>
<path fill="none" stroke="midnightblue" d="M100.27,-194.36C120.14,-202.25 146.27,-212.03 170,-219 182.01,-222.53 195.14,-225.73 207.46,-228.45"/>
<polygon fill="midnightblue" stroke="midnightblue" points="101.36,-191.03 90.78,-190.55 98.75,-197.52 101.36,-191.03"/>
</g>
<!-- Node8 -->
<g id="node8" class="node">
<title>Node8</title>
<g id="a_node8"><a xlink:href="classsciplot_1_1FrameSpecsOf.html" target="_top" xlink:title="The class used to attach frame options to a type.">
<polygon fill="white" stroke="black" points="170,-190.5 170,-209.5 346,-209.5 346,-190.5 170,-190.5"/>
<text text-anchor="middle" x="258" y="-197.5" font-family="Helvetica,sans-Serif" font-size="10.00">FrameSpecsOf&lt; DerivedSpecs &gt;</text>
</a>
</g>
</g>
<!-- Node1&#45;&gt;Node8 -->
<g id="edge7" class="edge">
<title>Node1&#45;&gt;Node8</title>
<path fill="none" stroke="midnightblue" d="M144.21,-188.66C152.59,-189.5 161.17,-190.37 169.67,-191.22"/>
<polygon fill="midnightblue" stroke="midnightblue" points="144.4,-185.16 134.1,-187.65 143.7,-192.13 144.4,-185.16"/>
</g>
<!-- Node9 -->
<g id="node9" class="node">
<title>Node9</title>
<g id="a_node9"><a xlink:href="classsciplot_1_1LineSpecsOf.html" target="_top" xlink:title="The class used to attach line options to a type.">
<polygon fill="white" stroke="black" points="175,-152.5 175,-171.5 341,-171.5 341,-152.5 175,-152.5"/>
<text text-anchor="middle" x="258" y="-159.5" font-family="Helvetica,sans-Serif" font-size="10.00">LineSpecsOf&lt; DerivedSpecs &gt;</text>
</a>
</g>
</g>
<!-- Node1&#45;&gt;Node9 -->
<g id="edge8" class="edge">
<title>Node1&#45;&gt;Node9</title>
<path fill="none" stroke="midnightblue" d="M144.14,-173.35C154.29,-172.33 164.73,-171.28 174.98,-170.25"/>
<polygon fill="midnightblue" stroke="midnightblue" points="143.7,-169.87 134.1,-174.35 144.4,-176.84 143.7,-169.87"/>
</g>
<!-- Node10 -->
<g id="node10" class="node">
<title>Node10</title>
<g id="a_node10"><a xlink:href="classsciplot_1_1OffsetSpecsOf.html" target="_top" xlink:title="The class used to attach offset options to a type.">
<polygon fill="white" stroke="black" points="382,-114.5 382,-133.5 557,-133.5 557,-114.5 382,-114.5"/>
<text text-anchor="middle" x="469.5" y="-121.5" font-family="Helvetica,sans-Serif" font-size="10.00">OffsetSpecsOf&lt; DerivedSpecs &gt;</text>
</a>
</g>
</g>
<!-- Node1&#45;&gt;Node10 -->
<g id="edge9" class="edge">
<title>Node1&#45;&gt;Node10</title>
<path fill="none" stroke="midnightblue" d="M97.37,-167.43C117.39,-158.85 144.75,-148.39 170,-143 240.21,-128.03 321.64,-123.69 381.7,-122.86"/>
<polygon fill="midnightblue" stroke="midnightblue" points="95.93,-164.24 88.18,-171.47 98.74,-170.65 95.93,-164.24"/>
</g>
<!-- Node11 -->
<g id="node11" class="node">
<title>Node11</title>
<g id="a_node11"><a xlink:href="classsciplot_1_1PointSpecsOf.html" target="_top" xlink:title="The class used to attach point options to a type.">
<polygon fill="white" stroke="black" points="173,-76.5 173,-95.5 343,-95.5 343,-76.5 173,-76.5"/>
<text text-anchor="middle" x="258" y="-83.5" font-family="Helvetica,sans-Serif" font-size="10.00">PointSpecsOf&lt; DerivedSpecs &gt;</text>
</a>
</g>
</g>
<!-- Node1&#45;&gt;Node11 -->
<g id="edge11" class="edge">
<title>Node1&#45;&gt;Node11</title>
<path fill="none" stroke="midnightblue" d="M86.98,-164.8C106.6,-148.81 138.69,-124.69 170,-110 182.91,-103.94 197.63,-99.16 211.25,-95.51"/>
<polygon fill="midnightblue" stroke="midnightblue" points="84.6,-162.23 79.14,-171.31 89.07,-167.62 84.6,-162.23"/>
</g>
<!-- Node12 -->
<g id="node12" class="node">
<title>Node12</title>
<g id="a_node12"><a xlink:href="classsciplot_1_1ShowSpecsOf.html" target="_top" xlink:title="The class used to attach visibility options to a type.">
<polygon fill="white" stroke="black" points="383.5,-57.5 383.5,-76.5 555.5,-76.5 555.5,-57.5 383.5,-57.5"/>
<text text-anchor="middle" x="469.5" y="-64.5" font-family="Helvetica,sans-Serif" font-size="10.00">ShowSpecsOf&lt; DerivedSpecs &gt;</text>
</a>
</g>
</g>
<!-- Node1&#45;&gt;Node12 -->
<g id="edge12" class="edge">
<title>Node1&#45;&gt;Node12</title>
<path fill="none" stroke="midnightblue" d="M77.89,-162.34C93.37,-135.37 126.17,-86.6 170,-67 256.34,-28.4 371.28,-44.83 430.16,-57.45"/>
<polygon fill="midnightblue" stroke="midnightblue" points="74.77,-160.75 72.98,-171.19 80.89,-164.15 74.77,-160.75"/>
</g>
<!-- Node13 -->
<g id="node13" class="node">
<title>Node13</title>
<g id="a_node13"><a xlink:href="classsciplot_1_1TitleSpecsOf.html" target="_top" xlink:title="The class used to attach title options to a type.">
<polygon fill="white" stroke="black" points="174.5,-0.5 174.5,-19.5 341.5,-19.5 341.5,-0.5 174.5,-0.5"/>
<text text-anchor="middle" x="258" y="-7.5" font-family="Helvetica,sans-Serif" font-size="10.00">TitleSpecsOf&lt; DerivedSpecs &gt;</text>
</a>
</g>
</g>
<!-- Node1&#45;&gt;Node13 -->
<g id="edge14" class="edge">
<title>Node1&#45;&gt;Node13</title>
<path fill="none" stroke="midnightblue" d="M75.94,-161.98C90.07,-130.46 122.64,-67.57 170,-34 178.95,-27.66 189.51,-22.99 200.13,-19.55"/>
<polygon fill="midnightblue" stroke="midnightblue" points="72.63,-160.81 71.85,-171.38 79.05,-163.6 72.63,-160.81"/>
</g>
<!-- Node6 -->
<g id="node6" class="node">
<title>Node6</title>
<g id="a_node6"><a xlink:href="classsciplot_1_1TextSpecsOf.html" target="_top" xlink:title="The class used to attach text options to a type.">
<polygon fill="white" stroke="black" points="386.5,-190.5 386.5,-209.5 552.5,-209.5 552.5,-190.5 386.5,-190.5"/>
<text text-anchor="middle" x="469.5" y="-197.5" font-family="Helvetica,sans-Serif" font-size="10.00">TextSpecsOf&lt; DerivedSpecs &gt;</text>
</a>
</g>
</g>
<!-- Node5&#45;&gt;Node6 -->
<g id="edge5" class="edge">
<title>Node5&#45;&gt;Node6</title>
<path fill="none" stroke="midnightblue" d="M321.56,-226.65C351.62,-221.2 387.24,-214.74 415.88,-209.54"/>
<polygon fill="midnightblue" stroke="midnightblue" points="320.81,-223.23 311.6,-228.46 322.06,-230.12 320.81,-223.23"/>
</g>
<!-- Node7 -->
<g id="node7" class="node">
<title>Node7</title>
<g id="a_node7"><a xlink:href="classsciplot_1_1TicsSpecsBaseOf.html" target="_top" xlink:title="The class used to attach common tic options to a type that also specifies tic options.">
<polygon fill="white" stroke="black" points="593,-109 593,-139 742,-139 742,-109 593,-109"/>
<text text-anchor="start" x="601" y="-127" font-family="Helvetica,sans-Serif" font-size="10.00">TicsSpecsBaseOf&lt; Derived</text>
<text text-anchor="middle" x="667.5" y="-116" font-family="Helvetica,sans-Serif" font-size="10.00">Specs &gt;</text>
</a>
</g>
</g>
<!-- Node6&#45;&gt;Node7 -->
<g id="edge6" class="edge">
<title>Node6&#45;&gt;Node7</title>
<path fill="none" stroke="midnightblue" d="M504.92,-186.65C539.26,-173.34 591.91,-152.92 627.71,-139.04"/>
<polygon fill="midnightblue" stroke="midnightblue" points="503.38,-183.5 495.32,-190.37 505.91,-190.02 503.38,-183.5"/>
</g>
<!-- Node10&#45;&gt;Node7 -->
<g id="edge10" class="edge">
<title>Node10&#45;&gt;Node7</title>
<path fill="none" stroke="midnightblue" d="M567.2,-124C575.88,-124 584.57,-124 593,-124"/>
<polygon fill="midnightblue" stroke="midnightblue" points="567.04,-120.5 557.04,-124 567.04,-127.5 567.04,-120.5"/>
</g>
<!-- Node12&#45;&gt;Node7 -->
<g id="edge13" class="edge">
<title>Node12&#45;&gt;Node7</title>
<path fill="none" stroke="midnightblue" d="M513.02,-79.36C542.89,-88.05 583.03,-99.72 614.76,-108.95"/>
<polygon fill="midnightblue" stroke="midnightblue" points="513.89,-75.97 503.31,-76.54 511.93,-82.69 513.89,-75.97"/>
</g>
</g>
</svg>
