<?xml version="1.0" encoding="UTF-8" standalone="no"?>
<!DOCTYPE svg PUBLIC "-//W3C//DTD SVG 1.1//EN"
 "http://www.w3.org/Graphics/SVG/1.1/DTD/svg11.dtd">
<!-- Generated by graphviz version 2.49.0 (20210829.0051)
 -->
<!-- Title: TicsSpecsMajor Pages: 1 -->
<svg width="902pt" height="113pt"
 viewBox="0.00 0.00 902.00 113.00" xmlns="http://www.w3.org/2000/svg" xmlns:xlink="http://www.w3.org/1999/xlink">
<g id="graph0" class="graph" transform="scale(1 1) rotate(0) translate(4 109)">
<title>TicsSpecsMajor</title>
<polygon fill="white" stroke="transparent" points="-4,4 -4,-109 898,-109 898,4 -4,4"/>
<!-- Node1 -->
<g id="node1" class="node">
<title>Node1</title>
<g id="a_node1"><a xlink:title="The class used to specify options for major tics of a specific axis.">
<polygon fill="#bfbfbf" stroke="black" points="802,-41.5 802,-60.5 894,-60.5 894,-41.5 802,-41.5"/>
<text text-anchor="middle" x="848" y="-48.5" font-family="Helvetica,sans-Serif" font-size="10.00">TicsSpecsMajor</text>
</a>
</g>
</g>
<!-- Node2 -->
<g id="node2" class="node">
<title>Node2</title>
<g id="a_node2"><a xlink:href="classsciplot_1_1TicsSpecsBaseOf.html" target="_top" xlink:title=" ">
<polygon fill="white" stroke="black" points="607,-36 607,-66 766,-66 766,-36 607,-36"/>
<text text-anchor="start" x="615" y="-54" font-family="Helvetica,sans-Serif" font-size="10.00">TicsSpecsBaseOf&lt; TicsSpecs</text>
<text text-anchor="middle" x="686.5" y="-43" font-family="Helvetica,sans-Serif" font-size="10.00">Major &gt;</text>
</a>
</g>
</g>
<!-- Node2&#45;&gt;Node1 -->
<g id="edge1" class="edge">
<title>Node2&#45;&gt;Node1</title>
<path fill="none" stroke="midnightblue" d="M776.34,-51C785.19,-51 793.88,-51 801.98,-51"/>
<polygon fill="midnightblue" stroke="midnightblue" points="776.32,-47.5 766.32,-51 776.32,-54.5 776.32,-47.5"/>
</g>
<!-- Node3 -->
<g id="node3" class="node">
<title>Node3</title>
<g id="a_node3"><a xlink:href="classsciplot_1_1TextSpecsOf.html" target="_top" xlink:title=" ">
<polygon fill="white" stroke="black" points="396,-85.5 396,-104.5 571,-104.5 571,-85.5 396,-85.5"/>
<text text-anchor="middle" x="483.5" y="-92.5" font-family="Helvetica,sans-Serif" font-size="10.00">TextSpecsOf&lt; TicsSpecsMajor &gt;</text>
</a>
</g>
</g>
<!-- Node3&#45;&gt;Node2 -->
<g id="edge2" class="edge">
<title>Node3&#45;&gt;Node2</title>
<path fill="none" stroke="midnightblue" d="M538.14,-83.26C562.25,-77.98 591,-71.69 616.68,-66.07"/>
<polygon fill="midnightblue" stroke="midnightblue" points="537.13,-79.9 528.11,-85.45 538.63,-86.73 537.13,-79.9"/>
</g>
<!-- Node4 -->
<g id="node4" class="node">
<title>Node4</title>
<g id="a_node4"><a xlink:href="classsciplot_1_1FontSpecsOf.html" target="_top" xlink:title=" ">
<polygon fill="white" stroke="black" points="181.5,-82.5 181.5,-101.5 357.5,-101.5 357.5,-82.5 181.5,-82.5"/>
<text text-anchor="middle" x="269.5" y="-89.5" font-family="Helvetica,sans-Serif" font-size="10.00">FontSpecsOf&lt; TicsSpecsMajor &gt;</text>
</a>
</g>
</g>
<!-- Node4&#45;&gt;Node3 -->
<g id="edge3" class="edge">
<title>Node4&#45;&gt;Node3</title>
<path fill="none" stroke="midnightblue" d="M367.72,-93.38C377.05,-93.51 386.47,-93.64 395.69,-93.77"/>
<polygon fill="midnightblue" stroke="midnightblue" points="367.69,-89.88 357.65,-93.23 367.6,-96.87 367.69,-89.88"/>
</g>
<!-- Node5 -->
<g id="node5" class="node">
<title>Node5</title>
<g id="a_node5"><a xlink:href="classsciplot_1_1Specs.html" target="_top" xlink:title=" ">
<polygon fill="white" stroke="black" points="0,-41.5 0,-60.5 143,-60.5 143,-41.5 0,-41.5"/>
<text text-anchor="middle" x="71.5" y="-48.5" font-family="Helvetica,sans-Serif" font-size="10.00">Specs&lt; TicsSpecsMajor &gt;</text>
</a>
</g>
</g>
<!-- Node5&#45;&gt;Node4 -->
<g id="edge4" class="edge">
<title>Node5&#45;&gt;Node4</title>
<path fill="none" stroke="midnightblue" d="M127.87,-62.58C157.91,-68.87 194.58,-76.54 222.95,-82.47"/>
<polygon fill="midnightblue" stroke="midnightblue" points="128.46,-59.13 117.96,-60.51 127.03,-65.98 128.46,-59.13"/>
</g>
<!-- Node6 -->
<g id="node6" class="node">
<title>Node6</title>
<g id="a_node6"><a xlink:href="classsciplot_1_1OffsetSpecsOf.html" target="_top" xlink:title=" ">
<polygon fill="white" stroke="black" points="411,-36 411,-66 556,-66 556,-36 411,-36"/>
<text text-anchor="start" x="419" y="-54" font-family="Helvetica,sans-Serif" font-size="10.00">OffsetSpecsOf&lt; TicsSpecs</text>
<text text-anchor="middle" x="483.5" y="-43" font-family="Helvetica,sans-Serif" font-size="10.00">Major &gt;</text>
</a>
</g>
</g>
<!-- Node5&#45;&gt;Node6 -->
<g id="edge6" class="edge">
<title>Node5&#45;&gt;Node6</title>
<path fill="none" stroke="midnightblue" d="M153.78,-51C228.73,-51 338.93,-51 410.7,-51"/>
<polygon fill="midnightblue" stroke="midnightblue" points="153.45,-47.5 143.45,-51 153.45,-54.5 153.45,-47.5"/>
</g>
<!-- Node7 -->
<g id="node7" class="node">
<title>Node7</title>
<g id="a_node7"><a xlink:href="classsciplot_1_1ShowSpecsOf.html" target="_top" xlink:title=" ">
<polygon fill="white" stroke="black" points="179,-0.5 179,-19.5 360,-19.5 360,-0.5 179,-0.5"/>
<text text-anchor="middle" x="269.5" y="-7.5" font-family="Helvetica,sans-Serif" font-size="10.00">ShowSpecsOf&lt; TicsSpecsMajor &gt;</text>
</a>
</g>
</g>
<!-- Node5&#45;&gt;Node7 -->
<g id="edge8" class="edge">
<title>Node5&#45;&gt;Node7</title>
<path fill="none" stroke="midnightblue" d="M127.87,-39.42C157.91,-33.13 194.58,-25.46 222.95,-19.53"/>
<polygon fill="midnightblue" stroke="midnightblue" points="127.03,-36.02 117.96,-41.49 128.46,-42.87 127.03,-36.02"/>
</g>
<!-- Node6&#45;&gt;Node2 -->
<g id="edge5" class="edge">
<title>Node6&#45;&gt;Node2</title>
<path fill="none" stroke="midnightblue" d="M566.37,-51C579.78,-51 593.66,-51 606.99,-51"/>
<polygon fill="midnightblue" stroke="midnightblue" points="566.21,-47.5 556.21,-51 566.21,-54.5 566.21,-47.5"/>
</g>
<!-- Node7&#45;&gt;Node2 -->
<g id="edge7" class="edge">
<title>Node7&#45;&gt;Node2</title>
<path fill="none" stroke="midnightblue" d="M370.27,-11.27C428.94,-13.03 504.44,-17.02 571,-26 588.85,-28.41 608.04,-32.14 625.51,-35.99"/>
<polygon fill="midnightblue" stroke="midnightblue" points="370.36,-7.77 360.27,-10.99 370.16,-14.77 370.36,-7.77"/>
</g>
</g>
</svg>
