<?xml version="1.0" encoding="UTF-8" standalone="no"?>
<!DOCTYPE svg PUBLIC "-//W3C//DTD SVG 1.1//EN"
 "http://www.w3.org/Graphics/SVG/1.1/DTD/svg11.dtd">
<!-- Generated by graphviz version 2.49.1 (20211004.0028)
 -->
<!-- Title: GridSpecsBase Pages: 1 -->
<svg width="591pt" height="104pt"
 viewBox="0.00 0.00 591.00 104.00" xmlns="http://www.w3.org/2000/svg" xmlns:xlink="http://www.w3.org/1999/xlink">
<g id="graph0" class="graph" transform="scale(1 1) rotate(0) translate(4 100)">
<title>GridSpecsBase</title>
<polygon fill="white" stroke="transparent" points="-4,4 -4,-100 587,-100 587,4 -4,4"/>
<!-- Node1 -->
<g id="node1" class="node">
<title>Node1</title>
<g id="a_node1"><a xlink:title="The class used to specify options for grid lines along axis tics (major or minor).">
<polygon fill="#bfbfbf" stroke="black" points="393,-38.5 393,-57.5 482,-57.5 482,-38.5 393,-38.5"/>
<text text-anchor="middle" x="437.5" y="-45.5" font-family="Helvetica,sans-Serif" font-size="10.00">GridSpecsBase</text>
</a>
</g>
</g>
<!-- Node6 -->
<g id="node6" class="node">
<title>Node6</title>
<g id="a_node6"><a xlink:href="classsciplot_1_1GridSpecs.html" target="_top" xlink:title="The class used to specify options for grid.">
<polygon fill="white" stroke="black" points="518,-38.5 518,-57.5 583,-57.5 583,-38.5 518,-38.5"/>
<text text-anchor="middle" x="550.5" y="-45.5" font-family="Helvetica,sans-Serif" font-size="10.00">GridSpecs</text>
</a>
</g>
</g>
<!-- Node1&#45;&gt;Node6 -->
<g id="edge7" class="edge">
<title>Node1&#45;&gt;Node6</title>
<path fill="none" stroke="midnightblue" d="M492.23,-48C500.96,-48 509.76,-48 517.74,-48"/>
<polygon fill="midnightblue" stroke="midnightblue" points="492.05,-44.5 482.05,-48 492.05,-51.5 492.05,-44.5"/>
</g>
<!-- Node2 -->
<g id="node2" class="node">
<title>Node2</title>
<g id="a_node2"><a xlink:href="classsciplot_1_1LineSpecsOf.html" target="_top" xlink:title=" ">
<polygon fill="white" stroke="black" points="180.5,-76.5 180.5,-95.5 352.5,-95.5 352.5,-76.5 180.5,-76.5"/>
<text text-anchor="middle" x="266.5" y="-83.5" font-family="Helvetica,sans-Serif" font-size="10.00">LineSpecsOf&lt; GridSpecsBase &gt;</text>
</a>
</g>
</g>
<!-- Node2&#45;&gt;Node1 -->
<g id="edge1" class="edge">
<title>Node2&#45;&gt;Node1</title>
<path fill="none" stroke="midnightblue" d="M323.56,-74.33C334.66,-71.95 346.2,-69.44 357,-67 370.15,-64.03 384.49,-60.65 397.32,-57.57"/>
<polygon fill="midnightblue" stroke="midnightblue" points="322.59,-70.95 313.54,-76.46 324.05,-77.8 322.59,-70.95"/>
</g>
<!-- Node3 -->
<g id="node3" class="node">
<title>Node3</title>
<g id="a_node3"><a xlink:href="classsciplot_1_1Specs.html" target="_top" xlink:title=" ">
<polygon fill="white" stroke="black" points="0,-38.5 0,-57.5 140,-57.5 140,-38.5 0,-38.5"/>
<text text-anchor="middle" x="70" y="-45.5" font-family="Helvetica,sans-Serif" font-size="10.00">Specs&lt; GridSpecsBase &gt;</text>
</a>
</g>
</g>
<!-- Node3&#45;&gt;Node2 -->
<g id="edge2" class="edge">
<title>Node3&#45;&gt;Node2</title>
<path fill="none" stroke="midnightblue" d="M129.81,-59.49C157.56,-64.91 190.29,-71.31 216.65,-76.46"/>
<polygon fill="midnightblue" stroke="midnightblue" points="130.32,-56.02 119.83,-57.54 128.97,-62.89 130.32,-56.02"/>
</g>
<!-- Node4 -->
<g id="node4" class="node">
<title>Node4</title>
<g id="a_node4"><a xlink:href="classsciplot_1_1DepthSpecsOf.html" target="_top" xlink:title=" ">
<polygon fill="white" stroke="black" points="176,-38.5 176,-57.5 357,-57.5 357,-38.5 176,-38.5"/>
<text text-anchor="middle" x="266.5" y="-45.5" font-family="Helvetica,sans-Serif" font-size="10.00">DepthSpecsOf&lt; GridSpecsBase &gt;</text>
</a>
</g>
</g>
<!-- Node3&#45;&gt;Node4 -->
<g id="edge4" class="edge">
<title>Node3&#45;&gt;Node4</title>
<path fill="none" stroke="midnightblue" d="M150.29,-48C158.71,-48 167.32,-48 175.85,-48"/>
<polygon fill="midnightblue" stroke="midnightblue" points="150.12,-44.5 140.12,-48 150.12,-51.5 150.12,-44.5"/>
</g>
<!-- Node5 -->
<g id="node5" class="node">
<title>Node5</title>
<g id="a_node5"><a xlink:href="classsciplot_1_1ShowSpecsOf.html" target="_top" xlink:title=" ">
<polygon fill="white" stroke="black" points="177.5,-0.5 177.5,-19.5 355.5,-19.5 355.5,-0.5 177.5,-0.5"/>
<text text-anchor="middle" x="266.5" y="-7.5" font-family="Helvetica,sans-Serif" font-size="10.00">ShowSpecsOf&lt; GridSpecsBase &gt;</text>
</a>
</g>
</g>
<!-- Node3&#45;&gt;Node5 -->
<g id="edge6" class="edge">
<title>Node3&#45;&gt;Node5</title>
<path fill="none" stroke="midnightblue" d="M129.81,-36.51C157.56,-31.09 190.29,-24.69 216.65,-19.54"/>
<polygon fill="midnightblue" stroke="midnightblue" points="128.97,-33.11 119.83,-38.46 130.32,-39.98 128.97,-33.11"/>
</g>
<!-- Node4&#45;&gt;Node1 -->
<g id="edge3" class="edge">
<title>Node4&#45;&gt;Node1</title>
<path fill="none" stroke="midnightblue" d="M367.47,-48C376.29,-48 384.87,-48 392.82,-48"/>
<polygon fill="midnightblue" stroke="midnightblue" points="367.44,-44.5 357.44,-48 367.44,-51.5 367.44,-44.5"/>
</g>
<!-- Node5&#45;&gt;Node1 -->
<g id="edge5" class="edge">
<title>Node5&#45;&gt;Node1</title>
<path fill="none" stroke="midnightblue" d="M323.56,-21.67C334.66,-24.05 346.2,-26.56 357,-29 370.15,-31.97 384.49,-35.35 397.32,-38.43"/>
<polygon fill="midnightblue" stroke="midnightblue" points="324.05,-18.2 313.54,-19.54 322.59,-25.05 324.05,-18.2"/>
</g>
</g>
</svg>
