<?xml version="1.0" encoding="UTF-8" standalone="no"?>
<!DOCTYPE svg PUBLIC "-//W3C//DTD SVG 1.1//EN"
 "http://www.w3.org/Graphics/SVG/1.1/DTD/svg11.dtd">
<!-- Generated by graphviz version 8.0.3 (20230418.1244)
 -->
<!-- Title: Specs&lt; DerivedSpecs &gt; Pages: 1 -->
<svg width="753pt" height="420pt"
 viewBox="0.00 0.00 753.00 420.00" xmlns="http://www.w3.org/2000/svg" xmlns:xlink="http://www.w3.org/1999/xlink">
<g id="graph0" class="graph" transform="scale(1 1) rotate(0) translate(4 416)">
<title>Specs&lt; DerivedSpecs &gt;</title>
<polygon fill="white" stroke="none" points="-4,4 -4,-416 749,-416 749,4 -4,4"/>
<!-- Node1 -->
<g id="node1" class="node">
<title>Node1</title>
<g id="a_node1"><a xlink:title="The base class for other specs classes (e.g., LineSpecsOf, DrawSpecs, BorderSpecs,...">
<polygon fill="#bfbfbf" stroke="black" points="0,-190.5 0,-209.5 134,-209.5 134,-190.5 0,-190.5"/>
<text text-anchor="middle" x="67" y="-197.5" font-family="Helvetica,sans-Serif" font-size="10.00">Specs&lt; DerivedSpecs &gt;</text>
</a>
</g>
</g>
<!-- Node2 -->
<g id="node2" class="node">
<title>Node2</title>
<g id="a_node2"><a xlink:href="classsciplot_1_1DepthSpecsOf.html" target="_top" xlink:title="The class used to attach depth options to a type.">
<polygon fill="white" stroke="black" points="172,-392.5 172,-411.5 347,-411.5 347,-392.5 172,-392.5"/>
<text text-anchor="middle" x="259.5" y="-399.5" font-family="Helvetica,sans-Serif" font-size="10.00">DepthSpecsOf&lt; DerivedSpecs &gt;</text>
</a>
</g>
</g>
<!-- Node1&#45;&gt;Node2 -->
<g id="edge1" class="edge">
<title>Node1&#45;&gt;Node2</title>
<path fill="none" stroke="midnightblue" d="M73.08,-219.65C83.96,-257.63 113.29,-341.05 170,-383 175.31,-386.93 181.25,-390.07 187.49,-392.59"/>
<polygon fill="midnightblue" stroke="midnightblue" points="76.29,-219.15 70.28,-210.42 69.54,-220.99 76.29,-219.15"/>
</g>
<!-- Node3 -->
<g id="node3" class="node">
<title>Node3</title>
<g id="a_node3"><a xlink:href="classsciplot_1_1FilledCurvesSpecsOf.html" target="_top" xlink:title="The class used to set options for the gnuplot filledcurve functionality.">
<polygon fill="white" stroke="black" points="201.5,-343 201.5,-373 317.5,-373 317.5,-343 201.5,-343"/>
<text text-anchor="start" x="209.5" y="-361" font-family="Helvetica,sans-Serif" font-size="10.00">FilledCurvesSpecsOf</text>
<text text-anchor="middle" x="259.5" y="-350" font-family="Helvetica,sans-Serif" font-size="10.00">&lt; DerivedSpecs &gt;</text>
</a>
</g>
</g>
<!-- Node1&#45;&gt;Node3 -->
<g id="edge2" class="edge">
<title>Node1&#45;&gt;Node3</title>
<path fill="none" stroke="midnightblue" d="M77.49,-219.15C92.86,-248.19 126.01,-303.17 170,-333 179.51,-339.45 190.68,-344.25 201.81,-347.82"/>
<polygon fill="midnightblue" stroke="midnightblue" points="80.16,-217.69 72.48,-210.39 73.93,-220.88 80.16,-217.69"/>
</g>
<!-- Node4 -->
<g id="node4" class="node">
<title>Node4</title>
<g id="a_node4"><a xlink:href="classsciplot_1_1FillSpecsOf.html" target="_top" xlink:title="The class used to attach color or pattern fill options to a type.">
<polygon fill="white" stroke="black" points="179.5,-304.5 179.5,-323.5 339.5,-323.5 339.5,-304.5 179.5,-304.5"/>
<text text-anchor="middle" x="259.5" y="-311.5" font-family="Helvetica,sans-Serif" font-size="10.00">FillSpecsOf&lt; DerivedSpecs &gt;</text>
</a>
</g>
</g>
<!-- Node1&#45;&gt;Node4 -->
<g id="edge3" class="edge">
<title>Node1&#45;&gt;Node4</title>
<path fill="none" stroke="midnightblue" d="M81.7,-217.61C99.59,-239.33 133.01,-275.71 170,-295 177.52,-298.92 185.81,-302.04 194.21,-304.51"/>
<polygon fill="midnightblue" stroke="midnightblue" points="84.01,-215.9 75.02,-210.3 78.56,-220.29 84.01,-215.9"/>
</g>
<!-- Node5 -->
<g id="node5" class="node">
<title>Node5</title>
<g id="a_node5"><a xlink:href="classsciplot_1_1FontSpecsOf.html" target="_top" xlink:title="The class used to attach font options to a type.">
<polygon fill="white" stroke="black" points="176,-266.5 176,-285.5 343,-285.5 343,-266.5 176,-266.5"/>
<text text-anchor="middle" x="259.5" y="-273.5" font-family="Helvetica,sans-Serif" font-size="10.00">FontSpecsOf&lt; DerivedSpecs &gt;</text>
</a>
</g>
</g>
<!-- Node1&#45;&gt;Node5 -->
<g id="edge4" class="edge">
<title>Node1&#45;&gt;Node5</title>
<path fill="none" stroke="midnightblue" d="M90.5,-215.16C110.55,-228.04 141.13,-246.11 170,-257 180.15,-260.83 191.25,-263.97 202.06,-266.52"/>
<polygon fill="midnightblue" stroke="midnightblue" points="92.83,-211.86 82.55,-209.32 89,-217.72 92.83,-211.86"/>
</g>
<!-- Node8 -->
<g id="node8" class="node">
<title>Node8</title>
<g id="a_node8"><a xlink:href="classsciplot_1_1FrameSpecsOf.html" target="_top" xlink:title="The class used to attach frame options to a type.">
<polygon fill="white" stroke="black" points="171.5,-228.5 171.5,-247.5 347.5,-247.5 347.5,-228.5 171.5,-228.5"/>
<text text-anchor="middle" x="259.5" y="-235.5" font-family="Helvetica,sans-Serif" font-size="10.00">FrameSpecsOf&lt; DerivedSpecs &gt;</text>
</a>
</g>
</g>
<!-- Node1&#45;&gt;Node8 -->
<g id="edge7" class="edge">
<title>Node1&#45;&gt;Node8</title>
<path fill="none" stroke="midnightblue" d="M126.15,-211.6C153.41,-217.04 185.46,-223.43 211.2,-228.56"/>
<polygon fill="midnightblue" stroke="midnightblue" points="127.07,-208.01 116.58,-209.49 125.7,-214.88 127.07,-208.01"/>
</g>
<!-- Node9 -->
<g id="node9" class="node">
<title>Node9</title>
<g id="a_node9"><a xlink:href="classsciplot_1_1LayoutSpecsOf.html" target="_top" xlink:title="The class used to attach layout options to a type.">
<polygon fill="white" stroke="black" points="170,-190.5 170,-209.5 349,-209.5 349,-190.5 170,-190.5"/>
<text text-anchor="middle" x="259.5" y="-197.5" font-family="Helvetica,sans-Serif" font-size="10.00">LayoutSpecsOf&lt; DerivedSpecs &gt;</text>
</a>
</g>
</g>
<!-- Node1&#45;&gt;Node9 -->
<g id="edge8" class="edge">
<title>Node1&#45;&gt;Node9</title>
<path fill="none" stroke="midnightblue" d="M144.7,-200C153.08,-200 161.66,-200 170.16,-200"/>
<polygon fill="midnightblue" stroke="midnightblue" points="144.83,-196.5 134.83,-200 144.83,-203.5 144.83,-196.5"/>
</g>
<!-- Node10 -->
<g id="node10" class="node">
<title>Node10</title>
<g id="a_node10"><a xlink:href="classsciplot_1_1LineSpecsOf.html" target="_top" xlink:title="The class used to attach line options to a type.">
<polygon fill="white" stroke="black" points="176.5,-152.5 176.5,-171.5 342.5,-171.5 342.5,-152.5 176.5,-152.5"/>
<text text-anchor="middle" x="259.5" y="-159.5" font-family="Helvetica,sans-Serif" font-size="10.00">LineSpecsOf&lt; DerivedSpecs &gt;</text>
</a>
</g>
</g>
<!-- Node1&#45;&gt;Node10 -->
<g id="edge9" class="edge">
<title>Node1&#45;&gt;Node10</title>
<path fill="none" stroke="midnightblue" d="M126.15,-188.4C153.41,-182.96 185.46,-176.57 211.2,-171.44"/>
<polygon fill="midnightblue" stroke="midnightblue" points="125.7,-185.12 116.58,-190.51 127.07,-191.99 125.7,-185.12"/>
</g>
<!-- Node11 -->
<g id="node11" class="node">
<title>Node11</title>
<g id="a_node11"><a xlink:href="classsciplot_1_1OffsetSpecsOf.html" target="_top" xlink:title="The class used to attach offset options to a type.">
<polygon fill="white" stroke="black" points="385,-114.5 385,-133.5 560,-133.5 560,-114.5 385,-114.5"/>
<text text-anchor="middle" x="472.5" y="-121.5" font-family="Helvetica,sans-Serif" font-size="10.00">OffsetSpecsOf&lt; DerivedSpecs &gt;</text>
</a>
</g>
</g>
<!-- Node1&#45;&gt;Node11 -->
<g id="edge10" class="edge">
<title>Node1&#45;&gt;Node11</title>
<path fill="none" stroke="midnightblue" d="M89.14,-184.45C108.93,-170.82 139.9,-151.86 170,-143 240.44,-122.27 324.01,-118.53 385.27,-119.4"/>
<polygon fill="midnightblue" stroke="midnightblue" points="87.52,-182.01 81.37,-190.64 91.56,-187.73 87.52,-182.01"/>
</g>
<!-- Node12 -->
<g id="node12" class="node">
<title>Node12</title>
<g id="a_node12"><a xlink:href="classsciplot_1_1PointSpecsOf.html" target="_top" xlink:title="The class used to attach point options to a type.">
<polygon fill="white" stroke="black" points="174.5,-76.5 174.5,-95.5 344.5,-95.5 344.5,-76.5 174.5,-76.5"/>
<text text-anchor="middle" x="259.5" y="-83.5" font-family="Helvetica,sans-Serif" font-size="10.00">PointSpecsOf&lt; DerivedSpecs &gt;</text>
</a>
</g>
</g>
<!-- Node1&#45;&gt;Node12 -->
<g id="edge12" class="edge">
<title>Node1&#45;&gt;Node12</title>
<path fill="none" stroke="midnightblue" d="M83.16,-182.43C101.67,-162.08 134.86,-128.92 170,-110 181.63,-103.74 195.03,-99.01 207.82,-95.49"/>
<polygon fill="midnightblue" stroke="midnightblue" points="80.98,-179.74 76.95,-189.54 86.21,-184.39 80.98,-179.74"/>
</g>
<!-- Node13 -->
<g id="node13" class="node">
<title>Node13</title>
<g id="a_node13"><a xlink:href="classsciplot_1_1ShowSpecsOf.html" target="_top" xlink:title="The class used to attach visibility options to a type.">
<polygon fill="white" stroke="black" points="386.5,-57.5 386.5,-76.5 558.5,-76.5 558.5,-57.5 386.5,-57.5"/>
<text text-anchor="middle" x="472.5" y="-64.5" font-family="Helvetica,sans-Serif" font-size="10.00">ShowSpecsOf&lt; DerivedSpecs &gt;</text>
</a>
</g>
</g>
<!-- Node1&#45;&gt;Node13 -->
<g id="edge13" class="edge">
<title>Node1&#45;&gt;Node13</title>
<path fill="none" stroke="midnightblue" d="M75.99,-180.6C89.87,-149.83 121.66,-90.85 170,-67 257.78,-23.7 378.2,-43.66 436.73,-57.56"/>
<polygon fill="midnightblue" stroke="midnightblue" points="72.44,-178.98 71.69,-189.55 78.87,-181.76 72.44,-178.98"/>
</g>
<!-- Node14 -->
<g id="node14" class="node">
<title>Node14</title>
<g id="a_node14"><a xlink:href="classsciplot_1_1TitleSpecsOf.html" target="_top" xlink:title="The class used to attach title options to a type.">
<polygon fill="white" stroke="black" points="176,-0.5 176,-19.5 343,-19.5 343,-0.5 176,-0.5"/>
<text text-anchor="middle" x="259.5" y="-7.5" font-family="Helvetica,sans-Serif" font-size="10.00">TitleSpecsOf&lt; DerivedSpecs &gt;</text>
</a>
</g>
</g>
<!-- Node1&#45;&gt;Node14 -->
<g id="edge15" class="edge">
<title>Node1&#45;&gt;Node14</title>
<path fill="none" stroke="midnightblue" d="M74.49,-180.52C87.13,-145.65 118.41,-72.59 170,-34 178.54,-27.61 188.67,-22.92 198.98,-19.48"/>
<polygon fill="midnightblue" stroke="midnightblue" points="70.9,-179.19 70.92,-189.78 77.51,-181.49 70.9,-179.19"/>
</g>
<!-- Node6 -->
<g id="node6" class="node">
<title>Node6</title>
<g id="a_node6"><a xlink:href="classsciplot_1_1TextSpecsOf.html" target="_top" xlink:title="The class used to attach text options to a type.">
<polygon fill="white" stroke="black" points="389.5,-209.5 389.5,-228.5 555.5,-228.5 555.5,-209.5 389.5,-209.5"/>
<text text-anchor="middle" x="472.5" y="-216.5" font-family="Helvetica,sans-Serif" font-size="10.00">TextSpecsOf&lt; DerivedSpecs &gt;</text>
</a>
</g>
</g>
<!-- Node5&#45;&gt;Node6 -->
<g id="edge5" class="edge">
<title>Node5&#45;&gt;Node6</title>
<path fill="none" stroke="midnightblue" d="M319.15,-264.18C329.15,-261.94 339.4,-259.51 349,-257 381.74,-248.43 418.79,-236.64 443.49,-228.47"/>
<polygon fill="midnightblue" stroke="midnightblue" points="318.47,-260.96 309.45,-266.52 319.97,-267.8 318.47,-260.96"/>
</g>
<!-- Node7 -->
<g id="node7" class="node">
<title>Node7</title>
<g id="a_node7"><a xlink:href="classsciplot_1_1TicsSpecsBaseOf.html" target="_top" xlink:title="The class used to attach common tic options to a type that also specifies tic options.">
<polygon fill="white" stroke="black" points="596,-109 596,-139 745,-139 745,-109 596,-109"/>
<text text-anchor="start" x="604" y="-127" font-family="Helvetica,sans-Serif" font-size="10.00">TicsSpecsBaseOf&lt; Derived</text>
<text text-anchor="middle" x="670.5" y="-116" font-family="Helvetica,sans-Serif" font-size="10.00">Specs &gt;</text>
</a>
</g>
</g>
<!-- Node6&#45;&gt;Node7 -->
<g id="edge6" class="edge">
<title>Node6&#45;&gt;Node7</title>
<path fill="none" stroke="midnightblue" d="M502.59,-204.9C539.16,-187.17 601.64,-156.89 638.9,-138.83"/>
<polygon fill="midnightblue" stroke="midnightblue" points="501.48,-202.03 494.01,-209.54 504.54,-208.33 501.48,-202.03"/>
</g>
<!-- Node11&#45;&gt;Node7 -->
<g id="edge11" class="edge">
<title>Node11&#45;&gt;Node7</title>
<path fill="none" stroke="midnightblue" d="M570.59,-124C579.17,-124 587.75,-124 596.08,-124"/>
<polygon fill="midnightblue" stroke="midnightblue" points="570.75,-120.5 560.75,-124 570.75,-127.5 570.75,-120.5"/>
</g>
<!-- Node13&#45;&gt;Node7 -->
<g id="edge14" class="edge">
<title>Node13&#45;&gt;Node7</title>
<path fill="none" stroke="midnightblue" d="M516.42,-79.48C546.42,-88.21 586.61,-99.9 618.29,-109.11"/>
<polygon fill="midnightblue" stroke="midnightblue" points="517.44,-75.84 506.87,-76.41 515.49,-82.57 517.44,-75.84"/>
</g>
</g>
</svg>
