<?xml version="1.0" encoding="UTF-8" standalone="no"?>
<!DOCTYPE svg PUBLIC "-//W3C//DTD SVG 1.1//EN"
 "http://www.w3.org/Graphics/SVG/1.1/DTD/svg11.dtd">
<!-- Generated by graphviz version 8.0.3 (20230418.1244)
 -->
<!-- Title: TicsSpecs Pages: 1 -->
<svg width="433pt" height="252pt"
 viewBox="0.00 0.00 433.00 252.00" xmlns="http://www.w3.org/2000/svg" xmlns:xlink="http://www.w3.org/1999/xlink">
<g id="graph0" class="graph" transform="scale(1 1) rotate(0) translate(4 248)">
<title>TicsSpecs</title>
<polygon fill="white" stroke="none" points="-4,4 -4,-248 429,-248 429,4 -4,4"/>
<!-- Node1 -->
<g id="node1" class="node">
<title>Node1</title>
<g id="a_node1"><a xlink:title="The class used to specify options for tics.">
<polygon fill="#bfbfbf" stroke="black" points="211,-0.5 211,-19.5 276,-19.5 276,-0.5 211,-0.5"/>
<text text-anchor="middle" x="243.5" y="-7.5" font-family="Helvetica,sans-Serif" font-size="10.00">TicsSpecs</text>
</a>
</g>
</g>
<!-- Node2 -->
<g id="node2" class="node">
<title>Node2</title>
<g id="a_node2"><a xlink:href="classsciplot_1_1TicsSpecsBaseOf.html" target="_top" xlink:title=" ">
<polygon fill="white" stroke="black" points="158.5,-56.5 158.5,-75.5 328.5,-75.5 328.5,-56.5 158.5,-56.5"/>
<text text-anchor="middle" x="243.5" y="-63.5" font-family="Helvetica,sans-Serif" font-size="10.00">TicsSpecsBaseOf&lt; TicsSpecs &gt;</text>
</a>
</g>
</g>
<!-- Node2&#45;&gt;Node1 -->
<g id="edge1" class="edge">
<title>Node2&#45;&gt;Node1</title>
<path fill="none" stroke="midnightblue" d="M243.5,-45.72C243.5,-36.61 243.5,-26.22 243.5,-19.2"/>
<polygon fill="midnightblue" stroke="midnightblue" points="240,-45.56 243.5,-55.56 247,-45.56 240,-45.56"/>
</g>
<!-- Node3 -->
<g id="node3" class="node">
<title>Node3</title>
<g id="a_node3"><a xlink:href="classsciplot_1_1TextSpecsOf.html" target="_top" xlink:title=" ">
<polygon fill="white" stroke="black" points="0,-112.5 0,-131.5 147,-131.5 147,-112.5 0,-112.5"/>
<text text-anchor="middle" x="73.5" y="-119.5" font-family="Helvetica,sans-Serif" font-size="10.00">TextSpecsOf&lt; TicsSpecs &gt;</text>
</a>
</g>
</g>
<!-- Node3&#45;&gt;Node2 -->
<g id="edge2" class="edge">
<title>Node3&#45;&gt;Node2</title>
<path fill="none" stroke="midnightblue" d="M110.38,-109.29C142.46,-99.09 188.2,-84.57 216.84,-75.47"/>
<polygon fill="midnightblue" stroke="midnightblue" points="109.53,-106.2 101.06,-112.56 111.65,-112.87 109.53,-106.2"/>
</g>
<!-- Node4 -->
<g id="node4" class="node">
<title>Node4</title>
<g id="a_node4"><a xlink:href="classsciplot_1_1FontSpecsOf.html" target="_top" xlink:title=" ">
<polygon fill="white" stroke="black" points="33.5,-168.5 33.5,-187.5 181.5,-187.5 181.5,-168.5 33.5,-168.5"/>
<text text-anchor="middle" x="107.5" y="-175.5" font-family="Helvetica,sans-Serif" font-size="10.00">FontSpecsOf&lt; TicsSpecs &gt;</text>
</a>
</g>
</g>
<!-- Node4&#45;&gt;Node3 -->
<g id="edge3" class="edge">
<title>Node4&#45;&gt;Node3</title>
<path fill="none" stroke="midnightblue" d="M96.51,-159.54C90.52,-150.02 83.38,-138.7 78.66,-131.2"/>
<polygon fill="midnightblue" stroke="midnightblue" points="93.9,-160.97 102.19,-167.56 99.82,-157.24 93.9,-160.97"/>
</g>
<!-- Node5 -->
<g id="node5" class="node">
<title>Node5</title>
<g id="a_node5"><a xlink:href="classsciplot_1_1Specs.html" target="_top" xlink:title=" ">
<polygon fill="white" stroke="black" points="185.5,-224.5 185.5,-243.5 301.5,-243.5 301.5,-224.5 185.5,-224.5"/>
<text text-anchor="middle" x="243.5" y="-231.5" font-family="Helvetica,sans-Serif" font-size="10.00">Specs&lt; TicsSpecs &gt;</text>
</a>
</g>
</g>
<!-- Node5&#45;&gt;Node4 -->
<g id="edge4" class="edge">
<title>Node5&#45;&gt;Node4</title>
<path fill="none" stroke="midnightblue" d="M212.28,-220.6C186.63,-210.42 151,-196.27 128.6,-187.38"/>
<polygon fill="midnightblue" stroke="midnightblue" points="210.66,-224.13 221.25,-224.56 213.25,-217.62 210.66,-224.13"/>
</g>
<!-- Node6 -->
<g id="node6" class="node">
<title>Node6</title>
<g id="a_node6"><a xlink:href="classsciplot_1_1OffsetSpecsOf.html" target="_top" xlink:title=" ">
<polygon fill="white" stroke="black" points="165.5,-112.5 165.5,-131.5 321.5,-131.5 321.5,-112.5 165.5,-112.5"/>
<text text-anchor="middle" x="243.5" y="-119.5" font-family="Helvetica,sans-Serif" font-size="10.00">OffsetSpecsOf&lt; TicsSpecs &gt;</text>
</a>
</g>
</g>
<!-- Node5&#45;&gt;Node6 -->
<g id="edge6" class="edge">
<title>Node5&#45;&gt;Node6</title>
<path fill="none" stroke="midnightblue" d="M243.5,-213.74C243.5,-189.47 243.5,-148.81 243.5,-131.36"/>
<polygon fill="midnightblue" stroke="midnightblue" points="240,-213.73 243.5,-223.73 247,-213.73 240,-213.73"/>
</g>
<!-- Node7 -->
<g id="node7" class="node">
<title>Node7</title>
<g id="a_node7"><a xlink:href="classsciplot_1_1ShowSpecsOf.html" target="_top" xlink:title=" ">
<polygon fill="white" stroke="black" points="272,-168.5 272,-187.5 425,-187.5 425,-168.5 272,-168.5"/>
<text text-anchor="middle" x="348.5" y="-175.5" font-family="Helvetica,sans-Serif" font-size="10.00">ShowSpecsOf&lt; TicsSpecs &gt;</text>
</a>
</g>
</g>
<!-- Node5&#45;&gt;Node7 -->
<g id="edge8" class="edge">
<title>Node5&#45;&gt;Node7</title>
<path fill="none" stroke="midnightblue" d="M269.48,-219.64C289.11,-209.54 315.45,-195.99 332.21,-187.38"/>
<polygon fill="midnightblue" stroke="midnightblue" points="268.2,-216.88 260.91,-224.56 271.4,-223.1 268.2,-216.88"/>
</g>
<!-- Node6&#45;&gt;Node2 -->
<g id="edge5" class="edge">
<title>Node6&#45;&gt;Node2</title>
<path fill="none" stroke="midnightblue" d="M243.5,-101.72C243.5,-92.61 243.5,-82.22 243.5,-75.2"/>
<polygon fill="midnightblue" stroke="midnightblue" points="240,-101.56 243.5,-111.56 247,-101.56 240,-101.56"/>
</g>
<!-- Node7&#45;&gt;Node2 -->
<g id="edge7" class="edge">
<title>Node7&#45;&gt;Node2</title>
<path fill="none" stroke="midnightblue" d="M347.28,-158.04C345.48,-143.98 341.12,-125.08 330.5,-112 315.82,-93.91 291.93,-82.3 272.9,-75.41"/>
<polygon fill="midnightblue" stroke="midnightblue" points="343.87,-158.24 348.28,-167.87 350.84,-157.59 343.87,-158.24"/>
</g>
</g>
</svg>
