<?xml version="1.0" encoding="UTF-8" standalone="no"?>
<!DOCTYPE svg PUBLIC "-//W3C//DTD SVG 1.1//EN"
 "http://www.w3.org/Graphics/SVG/1.1/DTD/svg11.dtd">
<!-- Generated by graphviz version 8.0.5 (20230506.1012)
 -->
<!-- Title: ShowSpecsOf&lt; DerivedSpecs &gt; Pages: 1 -->
<svg width="179pt" height="158pt"
 viewBox="0.00 0.00 179.25 158.00" xmlns="http://www.w3.org/2000/svg" xmlns:xlink="http://www.w3.org/1999/xlink">
<g id="graph0" class="graph" transform="scale(1 1) rotate(0) translate(4 154)">
<title>ShowSpecsOf&lt; DerivedSpecs &gt;</title>
<polygon fill="white" stroke="none" points="-4,4 -4,-154 175.25,-154 175.25,4 -4,4"/>
<!-- Node1 -->
<g id="node1" class="node">
<title>Node1</title>
<g id="a_node1"><a xlink:title="The class used to attach visibility options to a type.">
<polygon fill="#bfbfbf" stroke="black" points="0,-71 0,-91.75 171.25,-91.75 171.25,-71 0,-71"/>
<text text-anchor="middle" x="85.62" y="-78.25" font-family="Helvetica,sans-Serif" font-size="10.00">ShowSpecsOf&lt; DerivedSpecs &gt;</text>
</a>
</g>
</g>
<!-- Node3 -->
<g id="node3" class="node">
<title>Node3</title>
<g id="a_node3"><a xlink:href="classsciplot_1_1TicsSpecsBaseOf.html" target="_top" xlink:title="The class used to attach common tic options to a type that also specifies tic options.">
<polygon fill="white" stroke="black" points="11.25,-0.5 11.25,-34 160,-34 160,-0.5 11.25,-0.5"/>
<text text-anchor="start" x="19.25" y="-20.5" font-family="Helvetica,sans-Serif" font-size="10.00">TicsSpecsBaseOf&lt; Derived</text>
<text text-anchor="middle" x="85.62" y="-7.75" font-family="Helvetica,sans-Serif" font-size="10.00">Specs &gt;</text>
</a>
</g>
</g>
<!-- Node1&#45;&gt;Node3 -->
<g id="edge2" class="edge">
<title>Node1&#45;&gt;Node3</title>
<path fill="none" stroke="midnightblue" d="M85.62,-60.23C85.62,-51.62 85.62,-41.74 85.62,-33.72"/>
<polygon fill="midnightblue" stroke="midnightblue" points="82.13,-60.21 85.62,-70.21 89.13,-60.21 82.13,-60.21"/>
</g>
<!-- Node2 -->
<g id="node2" class="node">
<title>Node2</title>
<g id="a_node2"><a xlink:href="classsciplot_1_1Specs.html" target="_top" xlink:title="The base class for other specs classes (e.g., LineSpecsOf, DrawSpecs, BorderSpecs,...">
<polygon fill="white" stroke="black" points="18.75,-128.75 18.75,-149.5 152.5,-149.5 152.5,-128.75 18.75,-128.75"/>
<text text-anchor="middle" x="85.62" y="-136" font-family="Helvetica,sans-Serif" font-size="10.00">Specs&lt; DerivedSpecs &gt;</text>
</a>
</g>
</g>
<!-- Node2&#45;&gt;Node1 -->
<g id="edge1" class="edge">
<title>Node2&#45;&gt;Node1</title>
<path fill="none" stroke="midnightblue" d="M85.62,-118C85.62,-108.89 85.62,-98.59 85.62,-91.41"/>
<polygon fill="midnightblue" stroke="midnightblue" points="82.13,-117.92 85.62,-127.92 89.13,-117.92 82.13,-117.92"/>
</g>
</g>
</svg>
