<?xml version="1.0" encoding="UTF-8" standalone="no"?>
<!DOCTYPE svg PUBLIC "-//W3C//DTD SVG 1.1//EN"
 "http://www.w3.org/Graphics/SVG/1.1/DTD/svg11.dtd">
<!-- Generated by graphviz version 8.0.3 (20230418.1244)
 -->
<!-- Title: TicsSpecsMajor Pages: 1 -->
<svg width="902pt" height="113pt"
 viewBox="0.00 0.00 902.00 113.00" xmlns="http://www.w3.org/2000/svg" xmlns:xlink="http://www.w3.org/1999/xlink">
<g id="graph0" class="graph" transform="scale(1 1) rotate(0) translate(4 109)">
<title>TicsSpecsMajor</title>
<polygon fill="white" stroke="none" points="-4,4 -4,-109 898,-109 898,4 -4,4"/>
<!-- Node1 -->
<g id="node1" class="node">
<title>Node1</title>
<g id="a_node1"><a xlink:title="The class used to specify options for major tics of a specific axis.">
<polygon fill="#bfbfbf" stroke="black" points="802,-41.5 802,-60.5 894,-60.5 894,-41.5 802,-41.5"/>
<text text-anchor="middle" x="848" y="-48.5" font-family="Helvetica,sans-Serif" font-size="10.00">TicsSpecsMajor</text>
</a>
</g>
</g>
<!-- Node2 -->
<g id="node2" class="node">
<title>Node2</title>
<g id="a_node2"><a xlink:href="classsciplot_1_1TicsSpecsBaseOf.html" target="_top" xlink:title=" ">
<polygon fill="white" stroke="black" points="607,-36 607,-66 766,-66 766,-36 607,-36"/>
<text text-anchor="start" x="615" y="-54" font-family="Helvetica,sans-Serif" font-size="10.00">TicsSpecsBaseOf&lt; TicsSpecs</text>
<text text-anchor="middle" x="686.5" y="-43" font-family="Helvetica,sans-Serif" font-size="10.00">Major &gt;</text>
</a>
</g>
</g>
<!-- Node2&#45;&gt;Node1 -->
<g id="edge1" class="edge">
<title>Node2&#45;&gt;Node1</title>
<path fill="none" stroke="midnightblue" d="M776.62,-51C785.42,-51 794.06,-51 802.11,-51"/>
<polygon fill="midnightblue" stroke="midnightblue" points="776.85,-47.5 766.85,-51 776.85,-54.5 776.85,-47.5"/>
</g>
<!-- Node3 -->
<g id="node3" class="node">
<title>Node3</title>
<g id="a_node3"><a xlink:href="classsciplot_1_1TextSpecsOf.html" target="_top" xlink:title=" ">
<polygon fill="white" stroke="black" points="396,-85.5 396,-104.5 571,-104.5 571,-85.5 396,-85.5"/>
<text text-anchor="middle" x="483.5" y="-92.5" font-family="Helvetica,sans-Serif" font-size="10.00">TextSpecsOf&lt; TicsSpecsMajor &gt;</text>
</a>
</g>
</g>
<!-- Node3&#45;&gt;Node2 -->
<g id="edge2" class="edge">
<title>Node3&#45;&gt;Node2</title>
<path fill="none" stroke="midnightblue" d="M538.06,-83.28C562.34,-77.96 591.33,-71.61 617.15,-65.96"/>
<polygon fill="midnightblue" stroke="midnightblue" points="537.64,-80 528.62,-85.56 539.14,-86.84 537.64,-80"/>
</g>
<!-- Node4 -->
<g id="node4" class="node">
<title>Node4</title>
<g id="a_node4"><a xlink:href="classsciplot_1_1FontSpecsOf.html" target="_top" xlink:title=" ">
<polygon fill="white" stroke="black" points="181.5,-82.5 181.5,-101.5 357.5,-101.5 357.5,-82.5 181.5,-82.5"/>
<text text-anchor="middle" x="269.5" y="-89.5" font-family="Helvetica,sans-Serif" font-size="10.00">FontSpecsOf&lt; TicsSpecsMajor &gt;</text>
</a>
</g>
</g>
<!-- Node4&#45;&gt;Node3 -->
<g id="edge3" class="edge">
<title>Node4&#45;&gt;Node3</title>
<path fill="none" stroke="midnightblue" d="M368.22,-93.38C377.54,-93.51 386.94,-93.65 396.14,-93.78"/>
<polygon fill="midnightblue" stroke="midnightblue" points="368.39,-89.87 358.34,-93.23 368.29,-96.87 368.39,-89.87"/>
</g>
<!-- Node5 -->
<g id="node5" class="node">
<title>Node5</title>
<g id="a_node5"><a xlink:href="classsciplot_1_1Specs.html" target="_top" xlink:title=" ">
<polygon fill="white" stroke="black" points="0,-41.5 0,-60.5 143,-60.5 143,-41.5 0,-41.5"/>
<text text-anchor="middle" x="71.5" y="-48.5" font-family="Helvetica,sans-Serif" font-size="10.00">Specs&lt; TicsSpecsMajor &gt;</text>
</a>
</g>
</g>
<!-- Node5&#45;&gt;Node4 -->
<g id="edge4" class="edge">
<title>Node5&#45;&gt;Node4</title>
<path fill="none" stroke="midnightblue" d="M127.84,-62.58C158.05,-68.9 194.97,-76.62 223.4,-82.57"/>
<polygon fill="midnightblue" stroke="midnightblue" points="128.97,-59.03 118.47,-60.41 127.54,-65.88 128.97,-59.03"/>
</g>
<!-- Node6 -->
<g id="node6" class="node">
<title>Node6</title>
<g id="a_node6"><a xlink:href="classsciplot_1_1OffsetSpecsOf.html" target="_top" xlink:title=" ">
<polygon fill="white" stroke="black" points="411,-36 411,-66 556,-66 556,-36 411,-36"/>
<text text-anchor="start" x="419" y="-54" font-family="Helvetica,sans-Serif" font-size="10.00">OffsetSpecsOf&lt; TicsSpecs</text>
<text text-anchor="middle" x="483.5" y="-43" font-family="Helvetica,sans-Serif" font-size="10.00">Major &gt;</text>
</a>
</g>
</g>
<!-- Node5&#45;&gt;Node6 -->
<g id="edge6" class="edge">
<title>Node5&#45;&gt;Node6</title>
<path fill="none" stroke="midnightblue" d="M153.8,-51C228.93,-51 339.46,-51 411.22,-51"/>
<polygon fill="midnightblue" stroke="midnightblue" points="153.98,-47.5 143.98,-51 153.98,-54.5 153.98,-47.5"/>
</g>
<!-- Node7 -->
<g id="node7" class="node">
<title>Node7</title>
<g id="a_node7"><a xlink:href="classsciplot_1_1ShowSpecsOf.html" target="_top" xlink:title=" ">
<polygon fill="white" stroke="black" points="179,-0.5 179,-19.5 360,-19.5 360,-0.5 179,-0.5"/>
<text text-anchor="middle" x="269.5" y="-7.5" font-family="Helvetica,sans-Serif" font-size="10.00">ShowSpecsOf&lt; TicsSpecsMajor &gt;</text>
</a>
</g>
</g>
<!-- Node5&#45;&gt;Node7 -->
<g id="edge8" class="edge">
<title>Node5&#45;&gt;Node7</title>
<path fill="none" stroke="midnightblue" d="M127.84,-39.42C158.05,-33.1 194.97,-25.38 223.4,-19.43"/>
<polygon fill="midnightblue" stroke="midnightblue" points="127.54,-36.12 118.47,-41.59 128.97,-42.97 127.54,-36.12"/>
</g>
<!-- Node6&#45;&gt;Node2 -->
<g id="edge5" class="edge">
<title>Node6&#45;&gt;Node2</title>
<path fill="none" stroke="midnightblue" d="M566.56,-51C579.96,-51 593.82,-51 607.13,-51"/>
<polygon fill="midnightblue" stroke="midnightblue" points="566.93,-47.5 556.93,-51 566.93,-54.5 566.93,-47.5"/>
</g>
<!-- Node7&#45;&gt;Node2 -->
<g id="edge7" class="edge">
<title>Node7&#45;&gt;Node2</title>
<path fill="none" stroke="midnightblue" d="M370.68,-11.28C429.29,-13.04 504.59,-17.04 571,-26 588.95,-28.42 608.25,-32.18 625.81,-36.05"/>
<polygon fill="midnightblue" stroke="midnightblue" points="371.03,-7.76 360.94,-10.98 370.83,-14.76 371.03,-7.76"/>
</g>
</g>
</svg>
