<?xml version="1.0" encoding="UTF-8" standalone="no"?>
<!DOCTYPE svg PUBLIC "-//W3C//DTD SVG 1.1//EN"
 "http://www.w3.org/Graphics/SVG/1.1/DTD/svg11.dtd">
<!-- Generated by graphviz version 8.0.5 (20230506.1012)
 -->
<!-- Title: FrameSpecs Pages: 1 -->
<svg width="176pt" height="145pt"
 viewBox="0.00 0.00 176.25 145.25" xmlns="http://www.w3.org/2000/svg" xmlns:xlink="http://www.w3.org/1999/xlink">
<g id="graph0" class="graph" transform="scale(1 1) rotate(0) translate(4 141.25)">
<title>FrameSpecs</title>
<polygon fill="white" stroke="none" points="-4,4 -4,-141.25 172.25,-141.25 172.25,4 -4,4"/>
<!-- Node1 -->
<g id="node1" class="node">
<title>Node1</title>
<g id="a_node1"><a xlink:title="The class used to specify frame options.">
<polygon fill="#bfbfbf" stroke="black" points="46.5,-0.5 46.5,-21.25 121.75,-21.25 121.75,-0.5 46.5,-0.5"/>
<text text-anchor="middle" x="84.12" y="-7.75" font-family="Helvetica,sans-Serif" font-size="10.00">FrameSpecs</text>
</a>
</g>
</g>
<!-- Node2 -->
<g id="node2" class="node">
<title>Node2</title>
<g id="a_node2"><a xlink:href="classsciplot_1_1FrameSpecsOf.html" target="_top" xlink:title=" ">
<polygon fill="white" stroke="black" points="0,-58.25 0,-79 168.25,-79 168.25,-58.25 0,-58.25"/>
<text text-anchor="middle" x="84.12" y="-65.5" font-family="Helvetica,sans-Serif" font-size="10.00">FrameSpecsOf&lt; FrameSpecs &gt;</text>
</a>
</g>
</g>
<!-- Node2&#45;&gt;Node1 -->
<g id="edge1" class="edge">
<title>Node2&#45;&gt;Node1</title>
<path fill="none" stroke="midnightblue" d="M84.12,-47.5C84.12,-38.39 84.12,-28.09 84.12,-20.91"/>
<polygon fill="midnightblue" stroke="midnightblue" points="80.63,-47.42 84.12,-57.42 87.63,-47.42 80.63,-47.42"/>
</g>
<!-- Node3 -->
<g id="node3" class="node">
<title>Node3</title>
<g id="a_node3"><a xlink:href="classsciplot_1_1Specs.html" target="_top" xlink:title=" ">
<polygon fill="white" stroke="black" points="21,-116 21,-136.75 147.25,-136.75 147.25,-116 21,-116"/>
<text text-anchor="middle" x="84.12" y="-123.25" font-family="Helvetica,sans-Serif" font-size="10.00">Specs&lt; FrameSpecs &gt;</text>
</a>
</g>
</g>
<!-- Node3&#45;&gt;Node2 -->
<g id="edge2" class="edge">
<title>Node3&#45;&gt;Node2</title>
<path fill="none" stroke="midnightblue" d="M84.12,-105.25C84.12,-96.14 84.12,-85.84 84.12,-78.66"/>
<polygon fill="midnightblue" stroke="midnightblue" points="80.63,-105.17 84.12,-115.17 87.63,-105.17 80.63,-105.17"/>
</g>
</g>
</svg>
