<?xml version="1.0" encoding="UTF-8" standalone="no"?>
<!DOCTYPE svg PUBLIC "-//W3C//DTD SVG 1.1//EN"
 "http://www.w3.org/Graphics/SVG/1.1/DTD/svg11.dtd">
<!-- Generated by graphviz version 2.48.0 (20210717.2242)
 -->
<!-- Title: BorderSpecs Pages: 1 -->
<svg width="356pt" height="140pt"
 viewBox="0.00 0.00 355.50 140.00" xmlns="http://www.w3.org/2000/svg" xmlns:xlink="http://www.w3.org/1999/xlink">
<g id="graph0" class="graph" transform="scale(1 1) rotate(0) translate(4 136)">
<title>BorderSpecs</title>
<polygon fill="white" stroke="transparent" points="-4,4 -4,-136 351.5,-136 351.5,4 -4,4"/>
<!-- Node1 -->
<g id="node1" class="node">
<title>Node1</title>
<g id="a_node1"><a xlink:title="The class used to specify options for plot border.">
<polygon fill="#bfbfbf" stroke="black" points="132.5,-0.5 132.5,-19.5 209.5,-19.5 209.5,-0.5 132.5,-0.5"/>
<text text-anchor="middle" x="171" y="-7.5" font-family="Helvetica,sans-Serif" font-size="10.00">BorderSpecs</text>
</a>
</g>
</g>
<!-- Node2 -->
<g id="node2" class="node">
<title>Node2</title>
<g id="a_node2"><a xlink:href="classsciplot_1_1LineSpecsOf.html" target="_top" xlink:title=" ">
<polygon fill="white" stroke="black" points="0,-56.5 0,-75.5 160,-75.5 160,-56.5 0,-56.5"/>
<text text-anchor="middle" x="80" y="-63.5" font-family="Helvetica,sans-Serif" font-size="10.00">LineSpecsOf&lt; BorderSpecs &gt;</text>
</a>
</g>
</g>
<!-- Node2&#45;&gt;Node1 -->
<g id="edge1" class="edge">
<title>Node2&#45;&gt;Node1</title>
<path fill="none" stroke="midnightblue" d="M103.29,-51.18C120.04,-41.24 142.1,-28.15 156.42,-19.65"/>
<polygon fill="midnightblue" stroke="midnightblue" points="101.43,-48.21 94.62,-56.32 105.01,-54.23 101.43,-48.21"/>
</g>
<!-- Node3 -->
<g id="node3" class="node">
<title>Node3</title>
<g id="a_node3"><a xlink:href="classsciplot_1_1Specs.html" target="_top" xlink:title=" ">
<polygon fill="white" stroke="black" points="107,-112.5 107,-131.5 235,-131.5 235,-112.5 107,-112.5"/>
<text text-anchor="middle" x="171" y="-119.5" font-family="Helvetica,sans-Serif" font-size="10.00">Specs&lt; BorderSpecs &gt;</text>
</a>
</g>
</g>
<!-- Node3&#45;&gt;Node2 -->
<g id="edge2" class="edge">
<title>Node3&#45;&gt;Node2</title>
<path fill="none" stroke="midnightblue" d="M147.71,-107.18C130.96,-97.24 108.9,-84.15 94.58,-75.65"/>
<polygon fill="midnightblue" stroke="midnightblue" points="145.99,-110.23 156.38,-112.32 149.57,-104.21 145.99,-110.23"/>
</g>
<!-- Node4 -->
<g id="node4" class="node">
<title>Node4</title>
<g id="a_node4"><a xlink:href="classsciplot_1_1DepthSpecsOf.html" target="_top" xlink:title=" ">
<polygon fill="white" stroke="black" points="178.5,-56.5 178.5,-75.5 347.5,-75.5 347.5,-56.5 178.5,-56.5"/>
<text text-anchor="middle" x="263" y="-63.5" font-family="Helvetica,sans-Serif" font-size="10.00">DepthSpecsOf&lt; BorderSpecs &gt;</text>
</a>
</g>
</g>
<!-- Node3&#45;&gt;Node4 -->
<g id="edge4" class="edge">
<title>Node3&#45;&gt;Node4</title>
<path fill="none" stroke="midnightblue" d="M194.55,-107.18C211.48,-97.24 233.78,-84.15 248.26,-75.65"/>
<polygon fill="midnightblue" stroke="midnightblue" points="192.63,-104.24 185.78,-112.32 196.18,-110.28 192.63,-104.24"/>
</g>
<!-- Node4&#45;&gt;Node1 -->
<g id="edge3" class="edge">
<title>Node4&#45;&gt;Node1</title>
<path fill="none" stroke="midnightblue" d="M239.45,-51.18C222.52,-41.24 200.22,-28.15 185.74,-19.65"/>
<polygon fill="midnightblue" stroke="midnightblue" points="237.82,-54.28 248.22,-56.32 241.37,-48.24 237.82,-54.28"/>
</g>
</g>
</svg>
