<?xml version="1.0" encoding="UTF-8" standalone="no"?>
<!DOCTYPE svg PUBLIC "-//W3C//DTD SVG 1.1//EN"
 "http://www.w3.org/Graphics/SVG/1.1/DTD/svg11.dtd">
<!-- Generated by graphviz version 2.47.1 (20210418.0311)
 -->
<!-- Title: TextSpecs Pages: 1 -->
<svg width="147pt" height="196pt"
 viewBox="0.00 0.00 147.00 196.00" xmlns="http://www.w3.org/2000/svg" xmlns:xlink="http://www.w3.org/1999/xlink">
<g id="graph0" class="graph" transform="scale(1 1) rotate(0) translate(4 192)">
<title>TextSpecs</title>
<polygon fill="white" stroke="transparent" points="-4,4 -4,-192 143,-192 143,4 -4,4"/>
<!-- Node1 -->
<g id="node1" class="node">
<title>Node1</title>
<g id="a_node1"><a xlink:title="The class used to specify text options.">
<polygon fill="#bfbfbf" stroke="black" points="38,-0.5 38,-19.5 101,-19.5 101,-0.5 38,-0.5"/>
<text text-anchor="middle" x="69.5" y="-7.5" font-family="Helvetica" font-size="10.00">TextSpecs</text>
</a>
</g>
</g>
<!-- Node2 -->
<g id="node2" class="node">
<title>Node2</title>
<g id="a_node2"><a xlink:href="classsciplot_1_1TextSpecsOf.html" target="_top" xlink:title=" ">
<polygon fill="white" stroke="black" points="0.5,-56.5 0.5,-75.5 138.5,-75.5 138.5,-56.5 0.5,-56.5"/>
<text text-anchor="middle" x="69.5" y="-63.5" font-family="Helvetica" font-size="10.00">TextSpecsOf&lt; TextSpecs &gt;</text>
</a>
</g>
</g>
<!-- Node2&#45;&gt;Node1 -->
<g id="edge1" class="edge">
<title>Node2&#45;&gt;Node1</title>
<path fill="none" stroke="midnightblue" d="M69.5,-45.8C69.5,-36.91 69.5,-26.78 69.5,-19.75"/>
<polygon fill="midnightblue" stroke="midnightblue" points="66,-46.08 69.5,-56.08 73,-46.08 66,-46.08"/>
</g>
<!-- Node3 -->
<g id="node3" class="node">
<title>Node3</title>
<g id="a_node3"><a xlink:href="classsciplot_1_1FontSpecsOf.html" target="_top" xlink:title=" ">
<polygon fill="white" stroke="black" points="0,-112.5 0,-131.5 139,-131.5 139,-112.5 0,-112.5"/>
<text text-anchor="middle" x="69.5" y="-119.5" font-family="Helvetica" font-size="10.00">FontSpecsOf&lt; TextSpecs &gt;</text>
</a>
</g>
</g>
<!-- Node3&#45;&gt;Node2 -->
<g id="edge2" class="edge">
<title>Node3&#45;&gt;Node2</title>
<path fill="none" stroke="midnightblue" d="M69.5,-101.8C69.5,-92.91 69.5,-82.78 69.5,-75.75"/>
<polygon fill="midnightblue" stroke="midnightblue" points="66,-102.08 69.5,-112.08 73,-102.08 66,-102.08"/>
</g>
<!-- Node4 -->
<g id="node4" class="node">
<title>Node4</title>
<g id="a_node4"><a xlink:href="classsciplot_1_1Specs.html" target="_top" xlink:title=" ">
<polygon fill="white" stroke="black" points="15,-168.5 15,-187.5 124,-187.5 124,-168.5 15,-168.5"/>
<text text-anchor="middle" x="69.5" y="-175.5" font-family="Helvetica" font-size="10.00">Specs&lt; TextSpecs &gt;</text>
</a>
</g>
</g>
<!-- Node4&#45;&gt;Node3 -->
<g id="edge3" class="edge">
<title>Node4&#45;&gt;Node3</title>
<path fill="none" stroke="midnightblue" d="M69.5,-157.8C69.5,-148.91 69.5,-138.78 69.5,-131.75"/>
<polygon fill="midnightblue" stroke="midnightblue" points="66,-158.08 69.5,-168.08 73,-158.08 66,-158.08"/>
</g>
</g>
</svg>
