<?xml version="1.0" encoding="UTF-8" standalone="no"?>
<!DOCTYPE svg PUBLIC "-//W3C//DTD SVG 1.1//EN"
 "http://www.w3.org/Graphics/SVG/1.1/DTD/svg11.dtd">
<!-- Generated by graphviz version 2.47.0 (20210316.1410)
 -->
<!-- Title: Plot3D Pages: 1 -->
<!--zoomable 495 -->
<svg id="main" version="1.1" xmlns="http://www.w3.org/2000/svg" xmlns:xlink="http://www.w3.org/1999/xlink" xml:space="preserve" onload="init(evt)">
<style type="text/css"><![CDATA[
.edge:hover path { stroke: red; }
.edge:hover polygon { stroke: red; fill: red; }
]]></style>
<script type="text/javascript"><![CDATA[
var edges = document.getElementsByTagName('g');
if (edges && edges.length) {
  for (var i=0;i<edges.length;i++) {
    if (edges[i].id.substr(0,4)=='edge') {
      edges[i].setAttribute('class','edge');
    }
  }
}
]]></script>
        <defs>
                <circle id="rim" cx="0" cy="0" r="7"/>
                <circle id="rim2" cx="0" cy="0" r="3.5"/>
                <g id="zoomPlus">
                        <use xlink:href="#rim" fill="#404040">
                                <set attributeName="fill" to="#808080" begin="zoomplus.mouseover" end="zoomplus.mouseout"/>
                        </use>
                        <path d="M-4,0h8M0,-4v8" fill="none" stroke="white" stroke-width="1.5" pointer-events="none"/>
                </g>
                <g id="zoomMin">
                        <use xlink:href="#rim" fill="#404040">
                                <set attributeName="fill" to="#808080" begin="zoomminus.mouseover" end="zoomminus.mouseout"/>
                        </use>
                        <path d="M-4,0h8" fill="none" stroke="white" stroke-width="1.5" pointer-events="none"/>
                </g>
                <g id="dirArrow">
                        <path fill="none" stroke="white" stroke-width="1.5" d="M0,-3.0v7 M-2.5,-0.5L0,-3.0L2.5,-0.5"/>
                </g>
               <g id="resetDef">
                       <use xlink:href="#rim2" fill="#404040">
                               <set attributeName="fill" to="#808080" begin="reset.mouseover" end="reset.mouseout"/>
                       </use>
               </g>
        </defs>

<script type="text/javascript">
var viewWidth = 1167;
var viewHeight = 495;
var sectionId = 'dynsection-1';
</script>
<script xlink:href="svgpan.js"/>
<svg id="graph" class="graph">
<g id="viewport">
<title>Plot3D</title>
<polygon fill="white" stroke="transparent" points="-4,4 -4,-491 1163,-491 1163,4 -4,4"/>
<!-- Node1 -->
<g id="node1" class="node">
<title>Node1</title>
<g id="a_node1"><a xlink:title="The class used to create a plot containing graphical elements.">
<polygon fill="#bfbfbf" stroke="black" points="1113,-244.5 1113,-263.5 1159,-263.5 1159,-244.5 1113,-244.5"/>
<text text-anchor="middle" x="1136" y="-251.5" font-family="Helvetica" font-size="10.00">Plot3D</text>
</a>
</g>
</g>
<!-- Node2 -->
<g id="node2" class="node">
<title>Node2</title>
<g id="a_node2"><a xlink:href="classsciplot_1_1PlotBase.html" target="_top" xlink:title="The class used to create a plot containing graphical elements.">
<polygon fill="white" stroke="black" points="1020,-244.5 1020,-263.5 1076,-263.5 1076,-244.5 1020,-244.5"/>
<text text-anchor="middle" x="1048" y="-251.5" font-family="Helvetica" font-size="10.00">PlotBase</text>
</a>
</g>
</g>
<!-- Node2&#45;&gt;Node1 -->
<g id="edge1" class="edge">
<title>Node2&#45;&gt;Node1</title>
<path fill="none" stroke="midnightblue" d="M1086.22,-254C1095.3,-254 1104.73,-254 1112.85,-254"/>
<polygon fill="midnightblue" stroke="midnightblue" points="1086.21,-250.5 1076.21,-254 1086.21,-257.5 1086.21,-250.5"/>
</g>
<!-- Node3 -->
<g id="node3" class="node">
<title>Node3</title>
<g id="a_node3"><a xlink:href="classsciplot_1_1BorderSpecs.html" target="_top" xlink:title="The class used to specify options for plot border.">
<polygon fill="white" stroke="black" points="801.5,-429.5 801.5,-448.5 874.5,-448.5 874.5,-429.5 801.5,-429.5"/>
<text text-anchor="middle" x="838" y="-436.5" font-family="Helvetica" font-size="10.00">BorderSpecs</text>
</a>
</g>
</g>
<!-- Node3&#45;&gt;Node2 -->
<g id="edge2" class="edge">
<title>Node3&#45;&gt;Node2</title>
<path fill="none" stroke="#9a32cd" stroke-dasharray="5,2" d="M885.14,-436.4C921.54,-431.92 971.15,-420.06 1002,-389 1037.69,-353.07 1045.08,-288.12 1046.6,-263.66"/>
<polygon fill="#9a32cd" stroke="#9a32cd" points="884.35,-432.96 874.78,-437.52 885.1,-439.92 884.35,-432.96"/>
<text text-anchor="middle" x="965.5" y="-430" font-family="Helvetica" font-size="10.00"> m_border</text>
</g>
<!-- Node4 -->
<g id="node4" class="node">
<title>Node4</title>
<g id="a_node4"><a xlink:href="classsciplot_1_1LineSpecsOf.html" target="_top" xlink:title=" ">
<polygon fill="white" stroke="black" points="535,-467.5 535,-486.5 682,-486.5 682,-467.5 535,-467.5"/>
<text text-anchor="middle" x="608.5" y="-474.5" font-family="Helvetica" font-size="10.00">LineSpecsOf&lt; BorderSpecs &gt;</text>
</a>
</g>
</g>
<!-- Node4&#45;&gt;Node3 -->
<g id="edge3" class="edge">
<title>Node4&#45;&gt;Node3</title>
<path fill="none" stroke="midnightblue" d="M676.5,-465.81C717.32,-458.99 767.86,-450.55 801.2,-444.98"/>
<polygon fill="midnightblue" stroke="midnightblue" points="675.9,-462.36 666.61,-467.46 677.05,-469.26 675.9,-462.36"/>
</g>
<!-- Node5 -->
<g id="node5" class="node">
<title>Node5</title>
<g id="a_node5"><a xlink:href="classsciplot_1_1Specs.html" target="_top" xlink:title=" ">
<polygon fill="white" stroke="black" points="192,-467.5 192,-486.5 311,-486.5 311,-467.5 192,-467.5"/>
<text text-anchor="middle" x="251.5" y="-474.5" font-family="Helvetica" font-size="10.00">Specs&lt; BorderSpecs &gt;</text>
</a>
</g>
</g>
<!-- Node5&#45;&gt;Node4 -->
<g id="edge4" class="edge">
<title>Node5&#45;&gt;Node4</title>
<path fill="none" stroke="midnightblue" d="M321.49,-477C382.92,-477 472.49,-477 534.97,-477"/>
<polygon fill="midnightblue" stroke="midnightblue" points="321.12,-473.5 311.12,-477 321.12,-480.5 321.12,-473.5"/>
</g>
<!-- Node6 -->
<g id="node6" class="node">
<title>Node6</title>
<g id="a_node6"><a xlink:href="classsciplot_1_1DepthSpecsOf.html" target="_top" xlink:title=" ">
<polygon fill="white" stroke="black" points="531,-429.5 531,-448.5 686,-448.5 686,-429.5 531,-429.5"/>
<text text-anchor="middle" x="608.5" y="-436.5" font-family="Helvetica" font-size="10.00">DepthSpecsOf&lt; BorderSpecs &gt;</text>
</a>
</g>
</g>
<!-- Node5&#45;&gt;Node6 -->
<g id="edge6" class="edge">
<title>Node5&#45;&gt;Node6</title>
<path fill="none" stroke="midnightblue" d="M321.27,-469.64C381.35,-463.21 468.47,-453.88 530.79,-447.21"/>
<polygon fill="midnightblue" stroke="midnightblue" points="320.69,-466.18 311.12,-470.73 321.44,-473.14 320.69,-466.18"/>
</g>
<!-- Node6&#45;&gt;Node3 -->
<g id="edge5" class="edge">
<title>Node6&#45;&gt;Node3</title>
<path fill="none" stroke="midnightblue" d="M696.38,-439C732.87,-439 773.27,-439 801.37,-439"/>
<polygon fill="midnightblue" stroke="midnightblue" points="696.2,-435.5 686.2,-439 696.2,-442.5 696.2,-435.5"/>
</g>
<!-- Node7 -->
<g id="node7" class="node">
<title>Node7</title>
<g id="a_node7"><a xlink:title=" ">
<polygon fill="white" stroke="#bfbfbf" points="765,-391.5 765,-410.5 911,-410.5 911,-391.5 765,-391.5"/>
<text text-anchor="middle" x="838" y="-398.5" font-family="Helvetica" font-size="10.00">vector&lt; sciplot::DrawSpecs &gt;</text>
</a>
</g>
</g>
<!-- Node7&#45;&gt;Node2 -->
<g id="edge7" class="edge">
<title>Node7&#45;&gt;Node2</title>
<path fill="none" stroke="#9a32cd" stroke-dasharray="5,2" d="M892.72,-388.59C927.38,-378.29 971.5,-360.6 1002,-332 1023.32,-312 1037.51,-279.6 1043.6,-263.59"/>
<polygon fill="#9a32cd" stroke="#9a32cd" points="891.42,-385.32 882.76,-391.43 893.34,-392.06 891.42,-385.32"/>
<text text-anchor="middle" x="965.5" y="-377" font-family="Helvetica" font-size="10.00"> m_drawspecs</text>
</g>
<!-- Node8 -->
<g id="node8" class="node">
<title>Node8</title>
<g id="a_node8"><a xlink:href="classsciplot_1_1DrawSpecs.html" target="_top" xlink:title="The class where options for the plotted element can be specified.">
<polygon fill="white" stroke="black" points="575.5,-391.5 575.5,-410.5 641.5,-410.5 641.5,-391.5 575.5,-391.5"/>
<text text-anchor="middle" x="608.5" y="-398.5" font-family="Helvetica" font-size="10.00">DrawSpecs</text>
</a>
</g>
</g>
<!-- Node8&#45;&gt;Node7 -->
<g id="edge8" class="edge">
<title>Node8&#45;&gt;Node7</title>
<path fill="none" stroke="#9a32cd" stroke-dasharray="5,2" d="M651.85,-401C683.5,-401 727.55,-401 764.74,-401"/>
<polygon fill="#9a32cd" stroke="#9a32cd" points="651.61,-397.5 641.61,-401 651.61,-404.5 651.61,-397.5"/>
<text text-anchor="middle" x="725.5" y="-404" font-family="Helvetica" font-size="10.00"> elements</text>
</g>
<!-- Node9 -->
<g id="node9" class="node">
<title>Node9</title>
<g id="a_node9"><a xlink:href="classsciplot_1_1LineSpecsOf.html" target="_top" xlink:title=" ">
<polygon fill="white" stroke="black" points="181.5,-429.5 181.5,-448.5 321.5,-448.5 321.5,-429.5 181.5,-429.5"/>
<text text-anchor="middle" x="251.5" y="-436.5" font-family="Helvetica" font-size="10.00">LineSpecsOf&lt; DrawSpecs &gt;</text>
</a>
</g>
</g>
<!-- Node9&#45;&gt;Node8 -->
<g id="edge9" class="edge">
<title>Node9&#45;&gt;Node8</title>
<path fill="none" stroke="midnightblue" d="M331.75,-431.65C383.4,-426.72 452.24,-419.89 513,-413 533.71,-410.65 556.92,-407.71 575.16,-405.32"/>
<polygon fill="midnightblue" stroke="midnightblue" points="331.28,-428.18 321.66,-432.61 331.95,-435.14 331.28,-428.18"/>
</g>
<!-- Node10 -->
<g id="node10" class="node">
<title>Node10</title>
<g id="a_node10"><a xlink:href="classsciplot_1_1Specs.html" target="_top" xlink:title=" ">
<polygon fill="white" stroke="black" points="9.5,-391.5 9.5,-410.5 121.5,-410.5 121.5,-391.5 9.5,-391.5"/>
<text text-anchor="middle" x="65.5" y="-398.5" font-family="Helvetica" font-size="10.00">Specs&lt; DrawSpecs &gt;</text>
</a>
</g>
</g>
<!-- Node10&#45;&gt;Node9 -->
<g id="edge10" class="edge">
<title>Node10&#45;&gt;Node9</title>
<path fill="none" stroke="midnightblue" d="M123.06,-412.68C149.15,-418.07 179.74,-424.39 204.4,-429.48"/>
<polygon fill="midnightblue" stroke="midnightblue" points="123.43,-409.18 112.93,-410.59 122.02,-416.04 123.43,-409.18"/>
</g>
<!-- Node11 -->
<g id="node11" class="node">
<title>Node11</title>
<g id="a_node11"><a xlink:href="classsciplot_1_1PointSpecsOf.html" target="_top" xlink:title=" ">
<polygon fill="white" stroke="black" points="179,-391.5 179,-410.5 324,-410.5 324,-391.5 179,-391.5"/>
<text text-anchor="middle" x="251.5" y="-398.5" font-family="Helvetica" font-size="10.00">PointSpecsOf&lt; DrawSpecs &gt;</text>
</a>
</g>
</g>
<!-- Node10&#45;&gt;Node11 -->
<g id="edge12" class="edge">
<title>Node10&#45;&gt;Node11</title>
<path fill="none" stroke="midnightblue" d="M132.04,-401C147.25,-401 163.51,-401 178.96,-401"/>
<polygon fill="midnightblue" stroke="midnightblue" points="131.71,-397.5 121.71,-401 131.71,-404.5 131.71,-397.5"/>
</g>
<!-- Node12 -->
<g id="node12" class="node">
<title>Node12</title>
<g id="a_node12"><a xlink:href="classsciplot_1_1FillSpecsOf.html" target="_top" xlink:title=" ">
<polygon fill="white" stroke="black" points="184,-353.5 184,-372.5 319,-372.5 319,-353.5 184,-353.5"/>
<text text-anchor="middle" x="251.5" y="-360.5" font-family="Helvetica" font-size="10.00">FillSpecsOf&lt; DrawSpecs &gt;</text>
</a>
</g>
</g>
<!-- Node10&#45;&gt;Node12 -->
<g id="edge14" class="edge">
<title>Node10&#45;&gt;Node12</title>
<path fill="none" stroke="midnightblue" d="M123.06,-389.32C149.15,-383.93 179.74,-377.61 204.4,-372.52"/>
<polygon fill="midnightblue" stroke="midnightblue" points="122.02,-385.96 112.93,-391.41 123.43,-392.82 122.02,-385.96"/>
</g>
<!-- Node11&#45;&gt;Node8 -->
<g id="edge11" class="edge">
<title>Node11&#45;&gt;Node8</title>
<path fill="none" stroke="midnightblue" d="M334.43,-401C410.94,-401 521.19,-401 575.2,-401"/>
<polygon fill="midnightblue" stroke="midnightblue" points="334.34,-397.5 324.34,-401 334.34,-404.5 334.34,-397.5"/>
</g>
<!-- Node12&#45;&gt;Node8 -->
<g id="edge13" class="edge">
<title>Node12&#45;&gt;Node8</title>
<path fill="none" stroke="midnightblue" d="M329.35,-371.23C405.94,-379.43 519.87,-391.62 575.12,-397.53"/>
<polygon fill="midnightblue" stroke="midnightblue" points="329.59,-367.73 319.27,-370.15 328.84,-374.69 329.59,-367.73"/>
</g>
<!-- Node13 -->
<g id="node13" class="node">
<title>Node13</title>
<g id="a_node13"><a xlink:title="STL class.">
<polygon fill="white" stroke="#bfbfbf" points="588,-304.5 588,-323.5 629,-323.5 629,-304.5 588,-304.5"/>
<text text-anchor="middle" x="608.5" y="-311.5" font-family="Helvetica" font-size="10.00">string</text>
</a>
</g>
</g>
<!-- Node13&#45;&gt;Node2 -->
<g id="edge15" class="edge">
<title>Node13&#45;&gt;Node2</title>
<path fill="none" stroke="#9a32cd" stroke-dasharray="5,2" d="M639.34,-311.89C667.2,-309.9 709.92,-306.82 747,-304 860.55,-295.37 893.87,-314.73 1002,-279 1013.03,-275.36 1024.46,-268.97 1033.04,-263.56"/>
<polygon fill="#9a32cd" stroke="#9a32cd" points="638.81,-308.41 629.09,-312.62 639.31,-315.4 638.81,-308.41"/>
<text text-anchor="middle" x="838" y="-349" font-family="Helvetica" font-size="10.00"> m_data</text>
<text text-anchor="middle" x="838" y="-338" font-family="Helvetica" font-size="10.00">m_datafilename</text>
<text text-anchor="middle" x="838" y="-327" font-family="Helvetica" font-size="10.00">m_palette</text>
<text text-anchor="middle" x="838" y="-316" font-family="Helvetica" font-size="10.00">m_samples</text>
<text text-anchor="middle" x="838" y="-305" font-family="Helvetica" font-size="10.00">m_scriptfilename</text>
</g>
<!-- Node22 -->
<g id="node22" class="node">
<title>Node22</title>
<g id="a_node22"><a xlink:title=" ">
<polygon fill="white" stroke="#bfbfbf" points="785.5,-262.5 785.5,-281.5 890.5,-281.5 890.5,-262.5 785.5,-262.5"/>
<text text-anchor="middle" x="838" y="-269.5" font-family="Helvetica" font-size="10.00">vector&lt; std::string &gt;</text>
</a>
</g>
</g>
<!-- Node13&#45;&gt;Node22 -->
<g id="edge28" class="edge">
<title>Node13&#45;&gt;Node22</title>
<path fill="none" stroke="#9a32cd" stroke-dasharray="5,2" d="M639.26,-306.89C657.81,-302.58 682.23,-297.13 704,-293 730.76,-287.92 760.7,-283.11 785.4,-279.39"/>
<polygon fill="#9a32cd" stroke="#9a32cd" points="638.27,-303.53 629.34,-309.22 639.87,-310.34 638.27,-303.53"/>
<text text-anchor="middle" x="725.5" y="-296" font-family="Helvetica" font-size="10.00"> elements</text>
</g>
<!-- Node14 -->
<g id="node14" class="node">
<title>Node14</title>
<g id="a_node14"><a xlink:title="STL class.">
<polygon fill="white" stroke="#bfbfbf" points="198.5,-304.5 198.5,-323.5 304.5,-323.5 304.5,-304.5 198.5,-304.5"/>
<text text-anchor="middle" x="251.5" y="-311.5" font-family="Helvetica" font-size="10.00">basic_string&lt; char &gt;</text>
</a>
</g>
</g>
<!-- Node14&#45;&gt;Node13 -->
<g id="edge16" class="edge">
<title>Node14&#45;&gt;Node13</title>
<path fill="none" stroke="midnightblue" d="M314.7,-314C396.76,-314 536.76,-314 587.99,-314"/>
<polygon fill="midnightblue" stroke="midnightblue" points="314.5,-310.5 304.5,-314 314.5,-317.5 314.5,-310.5"/>
</g>
<!-- Node15 -->
<g id="node15" class="node">
<title>Node15</title>
<g id="a_node15"><a xlink:href="classsciplot_1_1LegendSpecs.html" target="_top" xlink:title="The class used to specify options for legend.">
<polygon fill="white" stroke="black" points="800,-224.5 800,-243.5 876,-243.5 876,-224.5 800,-224.5"/>
<text text-anchor="middle" x="838" y="-231.5" font-family="Helvetica" font-size="10.00">LegendSpecs</text>
</a>
</g>
</g>
<!-- Node15&#45;&gt;Node2 -->
<g id="edge17" class="edge">
<title>Node15&#45;&gt;Node2</title>
<path fill="none" stroke="#9a32cd" stroke-dasharray="5,2" d="M886.27,-234.31C918.93,-235.09 963.3,-237.25 1002,-243 1007.73,-243.85 1013.79,-245.09 1019.55,-246.44"/>
<polygon fill="#9a32cd" stroke="#9a32cd" points="886.17,-230.81 876.1,-234.1 886.02,-237.81 886.17,-230.81"/>
<text text-anchor="middle" x="965.5" y="-246" font-family="Helvetica" font-size="10.00"> m_legend</text>
</g>
<!-- Node16 -->
<g id="node16" class="node">
<title>Node16</title>
<g id="a_node16"><a xlink:href="classsciplot_1_1TextSpecsOf.html" target="_top" xlink:title=" ">
<polygon fill="white" stroke="black" points="533,-266.5 533,-285.5 684,-285.5 684,-266.5 533,-266.5"/>
<text text-anchor="middle" x="608.5" y="-273.5" font-family="Helvetica" font-size="10.00">TextSpecsOf&lt; LegendSpecs &gt;</text>
</a>
</g>
</g>
<!-- Node16&#45;&gt;Node15 -->
<g id="edge18" class="edge">
<title>Node16&#45;&gt;Node15</title>
<path fill="none" stroke="midnightblue" d="M671.04,-264.64C712.15,-257.05 764.89,-247.31 799.76,-240.88"/>
<polygon fill="midnightblue" stroke="midnightblue" points="670.32,-261.21 661.12,-266.47 671.59,-268.1 670.32,-261.21"/>
</g>
<!-- Node17 -->
<g id="node17" class="node">
<title>Node17</title>
<g id="a_node17"><a xlink:href="classsciplot_1_1FontSpecsOf.html" target="_top" xlink:title=" ">
<polygon fill="white" stroke="black" points="175.5,-266.5 175.5,-285.5 327.5,-285.5 327.5,-266.5 175.5,-266.5"/>
<text text-anchor="middle" x="251.5" y="-273.5" font-family="Helvetica" font-size="10.00">FontSpecsOf&lt; LegendSpecs &gt;</text>
</a>
</g>
</g>
<!-- Node17&#45;&gt;Node16 -->
<g id="edge19" class="edge">
<title>Node17&#45;&gt;Node16</title>
<path fill="none" stroke="midnightblue" d="M337.91,-276C397.4,-276 475.97,-276 532.93,-276"/>
<polygon fill="midnightblue" stroke="midnightblue" points="337.79,-272.5 327.79,-276 337.79,-279.5 337.79,-272.5"/>
</g>
<!-- Node18 -->
<g id="node18" class="node">
<title>Node18</title>
<g id="a_node18"><a xlink:href="classsciplot_1_1Specs.html" target="_top" xlink:title=" ">
<polygon fill="white" stroke="black" points="4.5,-209.5 4.5,-228.5 126.5,-228.5 126.5,-209.5 4.5,-209.5"/>
<text text-anchor="middle" x="65.5" y="-216.5" font-family="Helvetica" font-size="10.00">Specs&lt; LegendSpecs &gt;</text>
</a>
</g>
</g>
<!-- Node18&#45;&gt;Node17 -->
<g id="edge20" class="edge">
<title>Node18&#45;&gt;Node17</title>
<path fill="none" stroke="midnightblue" d="M97.4,-232.62C112.72,-239.05 131.63,-246.5 149,-252 166.7,-257.6 186.49,-262.56 203.87,-266.5"/>
<polygon fill="midnightblue" stroke="midnightblue" points="98.47,-229.28 87.89,-228.58 95.72,-235.72 98.47,-229.28"/>
</g>
<!-- Node19 -->
<g id="node19" class="node">
<title>Node19</title>
<g id="a_node19"><a xlink:href="classsciplot_1_1ShowSpecsOf.html" target="_top" xlink:title=" ">
<polygon fill="white" stroke="black" points="355,-228.5 355,-247.5 511,-247.5 511,-228.5 355,-228.5"/>
<text text-anchor="middle" x="433" y="-235.5" font-family="Helvetica" font-size="10.00">ShowSpecsOf&lt; LegendSpecs &gt;</text>
</a>
</g>
</g>
<!-- Node18&#45;&gt;Node19 -->
<g id="edge22" class="edge">
<title>Node18&#45;&gt;Node19</title>
<path fill="none" stroke="midnightblue" d="M137,-222.66C199.41,-225.91 290.31,-230.63 354.69,-233.98"/>
<polygon fill="midnightblue" stroke="midnightblue" points="137.02,-219.16 126.85,-222.14 136.66,-226.15 137.02,-219.16"/>
</g>
<!-- Node20 -->
<g id="node20" class="node">
<title>Node20</title>
<g id="a_node20"><a xlink:href="classsciplot_1_1TitleSpecsOf.html" target="_top" xlink:title=" ">
<polygon fill="white" stroke="black" points="357.5,-190.5 357.5,-209.5 508.5,-209.5 508.5,-190.5 357.5,-190.5"/>
<text text-anchor="middle" x="433" y="-197.5" font-family="Helvetica" font-size="10.00">TitleSpecsOf&lt; LegendSpecs &gt;</text>
</a>
</g>
</g>
<!-- Node18&#45;&gt;Node20 -->
<g id="edge24" class="edge">
<title>Node18&#45;&gt;Node20</title>
<path fill="none" stroke="midnightblue" d="M137.14,-215.33C200.4,-212.04 292.86,-207.23 357.32,-203.88"/>
<polygon fill="midnightblue" stroke="midnightblue" points="136.66,-211.85 126.85,-215.86 137.02,-218.84 136.66,-211.85"/>
</g>
<!-- Node21 -->
<g id="node21" class="node">
<title>Node21</title>
<g id="a_node21"><a xlink:href="classsciplot_1_1FrameSpecsOf.html" target="_top" xlink:title=" ">
<polygon fill="white" stroke="black" points="353,-152.5 353,-171.5 513,-171.5 513,-152.5 353,-152.5"/>
<text text-anchor="middle" x="433" y="-159.5" font-family="Helvetica" font-size="10.00">FrameSpecsOf&lt; LegendSpecs &gt;</text>
</a>
</g>
</g>
<!-- Node18&#45;&gt;Node21 -->
<g id="edge26" class="edge">
<title>Node18&#45;&gt;Node21</title>
<path fill="none" stroke="midnightblue" d="M128.82,-207.66C141.76,-205.38 155.32,-203.06 168,-201 234.42,-190.21 310.46,-179.11 363.82,-171.52"/>
<polygon fill="midnightblue" stroke="midnightblue" points="127.85,-204.27 118.61,-209.46 129.07,-211.17 127.85,-204.27"/>
</g>
<!-- Node19&#45;&gt;Node15 -->
<g id="edge21" class="edge">
<title>Node19&#45;&gt;Node15</title>
<path fill="none" stroke="midnightblue" d="M521.32,-237.13C608.04,-236.27 736.86,-234.99 799.75,-234.37"/>
<polygon fill="midnightblue" stroke="midnightblue" points="521.19,-233.63 511.23,-237.23 521.26,-240.63 521.19,-233.63"/>
</g>
<!-- Node20&#45;&gt;Node15 -->
<g id="edge23" class="edge">
<title>Node20&#45;&gt;Node15</title>
<path fill="none" stroke="midnightblue" d="M518.95,-207.17C605.69,-214.49 736.36,-225.51 799.8,-230.86"/>
<polygon fill="midnightblue" stroke="midnightblue" points="519.12,-203.67 508.86,-206.32 518.53,-210.64 519.12,-203.67"/>
</g>
<!-- Node21&#45;&gt;Node15 -->
<g id="edge25" class="edge">
<title>Node21&#45;&gt;Node15</title>
<path fill="none" stroke="midnightblue" d="M504.6,-173.17C555.18,-181.31 624.87,-192.84 686,-204 724.91,-211.11 769.3,-220.02 799.83,-226.28"/>
<polygon fill="midnightblue" stroke="midnightblue" points="504.86,-169.66 494.43,-171.53 503.75,-176.57 504.86,-169.66"/>
</g>
<!-- Node22&#45;&gt;Node2 -->
<g id="edge27" class="edge">
<title>Node22&#45;&gt;Node2</title>
<path fill="none" stroke="#9a32cd" stroke-dasharray="5,2" d="M900.77,-266.65C940.33,-263.23 989.72,-258.96 1019.78,-256.36"/>
<polygon fill="#9a32cd" stroke="#9a32cd" points="900.34,-263.18 890.68,-267.53 900.95,-270.15 900.34,-263.18"/>
<text text-anchor="middle" x="965.5" y="-267" font-family="Helvetica" font-size="10.00"> m_customcmds</text>
</g>
<!-- Node23 -->
<g id="node23" class="node">
<title>Node23</title>
<g id="a_node23"><a xlink:href="classsciplot_1_1FillStyleSpecs.html" target="_top" xlink:title="The class used to attach color or pattern fill options to a type.">
<polygon fill="white" stroke="black" points="798,-179.5 798,-198.5 878,-198.5 878,-179.5 798,-179.5"/>
<text text-anchor="middle" x="838" y="-186.5" font-family="Helvetica" font-size="10.00">FillStyleSpecs</text>
</a>
</g>
</g>
<!-- Node23&#45;&gt;Node2 -->
<g id="edge29" class="edge">
<title>Node23&#45;&gt;Node2</title>
<path fill="none" stroke="#9a32cd" stroke-dasharray="5,2" d="M888.25,-193C921.49,-197.05 965.74,-205.1 1002,-221 1015.13,-226.76 1028.12,-236.89 1036.74,-244.41"/>
<polygon fill="#9a32cd" stroke="#9a32cd" points="888.64,-189.52 878.31,-191.87 887.85,-196.48 888.64,-189.52"/>
<text text-anchor="middle" x="965.5" y="-224" font-family="Helvetica" font-size="10.00"> m_style_fill</text>
</g>
<!-- Node24 -->
<g id="node24" class="node">
<title>Node24</title>
<g id="a_node24"><a xlink:href="classsciplot_1_1Specs.html" target="_top" xlink:title=" ">
<polygon fill="white" stroke="black" points="546,-114.5 546,-133.5 671,-133.5 671,-114.5 546,-114.5"/>
<text text-anchor="middle" x="608.5" y="-121.5" font-family="Helvetica" font-size="10.00">Specs&lt; FillStyleSpecs &gt;</text>
</a>
</g>
</g>
<!-- Node24&#45;&gt;Node23 -->
<g id="edge30" class="edge">
<title>Node24&#45;&gt;Node23</title>
<path fill="none" stroke="midnightblue" d="M681.23,-132.98C702.65,-136.6 726.02,-141.51 747,-148 748.79,-148.56 790.19,-167.51 816.21,-179.45"/>
<polygon fill="midnightblue" stroke="midnightblue" points="681.64,-129.5 671.21,-131.35 680.52,-136.41 681.64,-129.5"/>
</g>
<!-- Node25 -->
<g id="node25" class="node">
<title>Node25</title>
<g id="a_node25"><a xlink:href="classsciplot_1_1GridSpecs.html" target="_top" xlink:title="The class used to specify options for grid.">
<polygon fill="white" stroke="black" points="807,-127.5 807,-146.5 869,-146.5 869,-127.5 807,-127.5"/>
<text text-anchor="middle" x="838" y="-134.5" font-family="Helvetica" font-size="10.00">GridSpecs</text>
</a>
</g>
</g>
<!-- Node25&#45;&gt;Node2 -->
<g id="edge31" class="edge">
<title>Node25&#45;&gt;Node2</title>
<path fill="none" stroke="#9a32cd" stroke-dasharray="5,2" d="M879.09,-140.94C914.4,-146.12 965.7,-157.99 1002,-185 1023.11,-200.71 1037.12,-229.48 1043.33,-244.42"/>
<polygon fill="#9a32cd" stroke="#9a32cd" points="879.51,-137.46 869.13,-139.59 878.57,-144.4 879.51,-137.46"/>
<text text-anchor="middle" x="965.5" y="-188" font-family="Helvetica" font-size="10.00"> m_grid</text>
</g>
<!-- Node26 -->
<g id="node26" class="node">
<title>Node26</title>
<g id="a_node26"><a xlink:href="classsciplot_1_1GridSpecsBase.html" target="_top" xlink:title="The class used to specify options for grid lines along axis tics (major or minor).">
<polygon fill="white" stroke="black" points="566,-76.5 566,-95.5 651,-95.5 651,-76.5 566,-76.5"/>
<text text-anchor="middle" x="608.5" y="-83.5" font-family="Helvetica" font-size="10.00">GridSpecsBase</text>
</a>
</g>
</g>
<!-- Node26&#45;&gt;Node25 -->
<g id="edge32" class="edge">
<title>Node26&#45;&gt;Node25</title>
<path fill="none" stroke="midnightblue" d="M661.26,-93.55C687.16,-97.7 718.89,-103.36 747,-110 767.8,-114.92 790.88,-121.87 808.46,-127.49"/>
<polygon fill="midnightblue" stroke="midnightblue" points="661.7,-90.07 651.28,-91.97 660.61,-96.99 661.7,-90.07"/>
</g>
<!-- Node27 -->
<g id="node27" class="node">
<title>Node27</title>
<g id="a_node27"><a xlink:href="classsciplot_1_1LineSpecsOf.html" target="_top" xlink:title=" ">
<polygon fill="white" stroke="black" points="172,-114.5 172,-133.5 331,-133.5 331,-114.5 172,-114.5"/>
<text text-anchor="middle" x="251.5" y="-121.5" font-family="Helvetica" font-size="10.00">LineSpecsOf&lt; GridSpecsBase &gt;</text>
</a>
</g>
</g>
<!-- Node27&#45;&gt;Node26 -->
<g id="edge33" class="edge">
<title>Node27&#45;&gt;Node26</title>
<path fill="none" stroke="midnightblue" d="M341.49,-117.03C391.89,-112.77 456.05,-106.84 513,-100 530.29,-97.92 549.29,-95.2 565.7,-92.7"/>
<polygon fill="midnightblue" stroke="midnightblue" points="340.95,-113.56 331.28,-117.88 341.53,-120.53 340.95,-113.56"/>
</g>
<!-- Node28 -->
<g id="node28" class="node">
<title>Node28</title>
<g id="a_node28"><a xlink:href="classsciplot_1_1Specs.html" target="_top" xlink:title=" ">
<polygon fill="white" stroke="black" points="0,-76.5 0,-95.5 131,-95.5 131,-76.5 0,-76.5"/>
<text text-anchor="middle" x="65.5" y="-83.5" font-family="Helvetica" font-size="10.00">Specs&lt; GridSpecsBase &gt;</text>
</a>
</g>
</g>
<!-- Node28&#45;&gt;Node27 -->
<g id="edge34" class="edge">
<title>Node28&#45;&gt;Node27</title>
<path fill="none" stroke="midnightblue" d="M123.06,-97.68C149.15,-103.07 179.74,-109.39 204.4,-114.48"/>
<polygon fill="midnightblue" stroke="midnightblue" points="123.43,-94.18 112.93,-95.59 122.02,-101.04 123.43,-94.18"/>
</g>
<!-- Node29 -->
<g id="node29" class="node">
<title>Node29</title>
<g id="a_node29"><a xlink:href="classsciplot_1_1DepthSpecsOf.html" target="_top" xlink:title=" ">
<polygon fill="white" stroke="black" points="168,-76.5 168,-95.5 335,-95.5 335,-76.5 168,-76.5"/>
<text text-anchor="middle" x="251.5" y="-83.5" font-family="Helvetica" font-size="10.00">DepthSpecsOf&lt; GridSpecsBase &gt;</text>
</a>
</g>
</g>
<!-- Node28&#45;&gt;Node29 -->
<g id="edge36" class="edge">
<title>Node28&#45;&gt;Node29</title>
<path fill="none" stroke="midnightblue" d="M141.3,-86C150.08,-86 159.08,-86 167.96,-86"/>
<polygon fill="midnightblue" stroke="midnightblue" points="141.11,-82.5 131.11,-86 141.11,-89.5 141.11,-82.5"/>
</g>
<!-- Node30 -->
<g id="node30" class="node">
<title>Node30</title>
<g id="a_node30"><a xlink:href="classsciplot_1_1ShowSpecsOf.html" target="_top" xlink:title=" ">
<polygon fill="white" stroke="black" points="169,-38.5 169,-57.5 334,-57.5 334,-38.5 169,-38.5"/>
<text text-anchor="middle" x="251.5" y="-45.5" font-family="Helvetica" font-size="10.00">ShowSpecsOf&lt; GridSpecsBase &gt;</text>
</a>
</g>
</g>
<!-- Node28&#45;&gt;Node30 -->
<g id="edge38" class="edge">
<title>Node28&#45;&gt;Node30</title>
<path fill="none" stroke="midnightblue" d="M123.06,-74.32C149.15,-68.93 179.74,-62.61 204.4,-57.52"/>
<polygon fill="midnightblue" stroke="midnightblue" points="122.02,-70.96 112.93,-76.41 123.43,-77.82 122.02,-70.96"/>
</g>
<!-- Node29&#45;&gt;Node26 -->
<g id="edge35" class="edge">
<title>Node29&#45;&gt;Node26</title>
<path fill="none" stroke="midnightblue" d="M345.64,-86C417.07,-86 512.24,-86 565.97,-86"/>
<polygon fill="midnightblue" stroke="midnightblue" points="345.28,-82.5 335.28,-86 345.28,-89.5 345.28,-82.5"/>
</g>
<!-- Node30&#45;&gt;Node26 -->
<g id="edge37" class="edge">
<title>Node30&#45;&gt;Node26</title>
<path fill="none" stroke="midnightblue" d="M344.75,-57.87C416.17,-65.52 511.76,-75.75 565.76,-81.53"/>
<polygon fill="midnightblue" stroke="midnightblue" points="344.71,-54.35 334.39,-56.77 343.96,-61.31 344.71,-54.35"/>
</g>
<!-- Node31 -->
<g id="node31" class="node">
<title>Node31</title>
<g id="a_node31"><a xlink:href="classsciplot_1_1FontSpecs.html" target="_top" xlink:title="The class used to specify font options.">
<polygon fill="white" stroke="black" points="806,-62.5 806,-81.5 870,-81.5 870,-62.5 806,-62.5"/>
<text text-anchor="middle" x="838" y="-69.5" font-family="Helvetica" font-size="10.00">FontSpecs</text>
</a>
</g>
</g>
<!-- Node31&#45;&gt;Node2 -->
<g id="edge39" class="edge">
<title>Node31&#45;&gt;Node2</title>
<path fill="none" stroke="#9a32cd" stroke-dasharray="5,2" d="M879.97,-78.76C916.42,-86.78 968.93,-103.52 1002,-137 1032.74,-168.12 1042.95,-222.5 1045.92,-244.43"/>
<polygon fill="#9a32cd" stroke="#9a32cd" points="880.65,-75.33 870.14,-76.73 879.23,-82.18 880.65,-75.33"/>
<text text-anchor="middle" x="965.5" y="-140" font-family="Helvetica" font-size="10.00"> m_font</text>
</g>
<!-- Node32 -->
<g id="node32" class="node">
<title>Node32</title>
<g id="a_node32"><a xlink:href="classsciplot_1_1FontSpecsOf.html" target="_top" xlink:title=" ">
<polygon fill="white" stroke="black" points="538.5,-19.5 538.5,-38.5 678.5,-38.5 678.5,-19.5 538.5,-19.5"/>
<text text-anchor="middle" x="608.5" y="-26.5" font-family="Helvetica" font-size="10.00">FontSpecsOf&lt; FontSpecs &gt;</text>
</a>
</g>
</g>
<!-- Node32&#45;&gt;Node31 -->
<g id="edge40" class="edge">
<title>Node32&#45;&gt;Node31</title>
<path fill="none" stroke="midnightblue" d="M669.95,-40.43C713.7,-48.69 771.04,-59.53 805.89,-66.12"/>
<polygon fill="midnightblue" stroke="midnightblue" points="670.47,-36.96 659.99,-38.54 669.17,-43.84 670.47,-36.96"/>
</g>
<!-- Node33 -->
<g id="node33" class="node">
<title>Node33</title>
<g id="a_node33"><a xlink:href="classsciplot_1_1Specs.html" target="_top" xlink:title=" ">
<polygon fill="white" stroke="black" points="196.5,-0.5 196.5,-19.5 306.5,-19.5 306.5,-0.5 196.5,-0.5"/>
<text text-anchor="middle" x="251.5" y="-7.5" font-family="Helvetica" font-size="10.00">Specs&lt; FontSpecs &gt;</text>
</a>
</g>
</g>
<!-- Node33&#45;&gt;Node32 -->
<g id="edge41" class="edge">
<title>Node33&#45;&gt;Node32</title>
<path fill="none" stroke="midnightblue" d="M316.94,-13.45C379.49,-16.8 474.13,-21.86 538.26,-25.29"/>
<polygon fill="midnightblue" stroke="midnightblue" points="316.98,-9.95 306.8,-12.91 316.6,-16.94 316.98,-9.95"/>
</g>
</g>
</svg>
        <g id="navigator" transform="translate(0 0)" fill="#404254">
                <rect fill="#f2f5e9" fill-opacity="0.5" stroke="#606060" stroke-width=".5" x="0" y="0" width="60" height="60"/>
                <use id="zoomplus" xlink:href="#zoomPlus" x="17" y="9" onmousedown="handleZoom(evt,'in')"/>
                <use id="zoomminus" xlink:href="#zoomMin" x="42" y="9" onmousedown="handleZoom(evt,'out')"/>
                <use id="reset" xlink:href="#resetDef" x="30" y="36" onmousedown="handleReset()"/>
                <g id="arrowUp" xlink:href="#dirArrow" transform="translate(30 24)" onmousedown="handlePan(0,-1)">
                  <use xlink:href="#rim" fill="#404040">
                        <set attributeName="fill" to="#808080" begin="arrowUp.mouseover" end="arrowUp.mouseout"/>
                  </use>
                  <path fill="none" stroke="white" stroke-width="1.5" d="M0,-3.0v7 M-2.5,-0.5L0,-3.0L2.5,-0.5"/>
                </g>
                <g id="arrowRight" xlink:href="#dirArrow" transform="rotate(90) translate(36 -43)" onmousedown="handlePan(1,0)">
                  <use xlink:href="#rim" fill="#404040">
                        <set attributeName="fill" to="#808080" begin="arrowRight.mouseover" end="arrowRight.mouseout"/>
                  </use>
                  <path fill="none" stroke="white" stroke-width="1.5" d="M0,-3.0v7 M-2.5,-0.5L0,-3.0L2.5,-0.5"/>
                </g>
                <g id="arrowDown" xlink:href="#dirArrow" transform="rotate(180) translate(-30 -48)" onmousedown="handlePan(0,1)">
                  <use xlink:href="#rim" fill="#404040">
                        <set attributeName="fill" to="#808080" begin="arrowDown.mouseover" end="arrowDown.mouseout"/>
                  </use>
                  <path fill="none" stroke="white" stroke-width="1.5" d="M0,-3.0v7 M-2.5,-0.5L0,-3.0L2.5,-0.5"/>
                </g>
                <g id="arrowLeft" xlink:href="#dirArrow" transform="rotate(270) translate(-36 17)" onmousedown="handlePan(-1,0)">
                  <use xlink:href="#rim" fill="#404040">
                        <set attributeName="fill" to="#808080" begin="arrowLeft.mouseover" end="arrowLeft.mouseout"/>
                  </use>
                  <path fill="none" stroke="white" stroke-width="1.5" d="M0,-3.0v7 M-2.5,-0.5L0,-3.0L2.5,-0.5"/>
                </g>
        </g>
        <svg viewBox="0 0 15 15" width="100%" height="30px" preserveAspectRatio="xMaxYMin meet">
         <g id="arrow_out" transform="scale(0.3 0.3)">
          <a xlink:href="classsciplot_1_1Plot3D__coll__graph_org.svg" target="_base">
           <rect id="button" ry="5" rx="5" y="6" x="6" height="38" width="38"
                fill="#f2f5e9" fill-opacity="0.5" stroke="#606060" stroke-width="1.0"/>
           <path id="arrow"
             d="M 11.500037,31.436501 C 11.940474,20.09759 22.043105,11.32322 32.158766,21.979434 L 37.068811,17.246167 C 37.068811,17.246167 37.088388,32 37.088388,32 L 22.160133,31.978069 C 22.160133,31.978069 26.997745,27.140456 26.997745,27.140456 C 18.528582,18.264221 13.291696,25.230495 11.500037,31.436501 z"
             style="fill:#404040;"/>
          </a>
         </g>
        </svg>
</svg>
