<?xml version="1.0" encoding="UTF-8" standalone="no"?>
<!DOCTYPE svg PUBLIC "-//W3C//DTD SVG 1.1//EN"
 "http://www.w3.org/Graphics/SVG/1.1/DTD/svg11.dtd">
<!-- Generated by graphviz version 8.0.4 (20230426.1303)
 -->
<!-- Title: TicsSpecsMinor Pages: 1 -->
<svg width="188pt" height="145pt"
 viewBox="0.00 0.00 188.25 145.25" xmlns="http://www.w3.org/2000/svg" xmlns:xlink="http://www.w3.org/1999/xlink">
<g id="graph0" class="graph" transform="scale(1 1) rotate(0) translate(4 141.25)">
<title>TicsSpecsMinor</title>
<polygon fill="white" stroke="none" points="-4,4 -4,-141.25 184.25,-141.25 184.25,4 -4,4"/>
<!-- Node1 -->
<g id="node1" class="node">
<title>Node1</title>
<g id="a_node1"><a xlink:title="The class used to specify options for minor tics of a specific axis.">
<polygon fill="#bfbfbf" stroke="black" points="44.25,-0.5 44.25,-21.25 136,-21.25 136,-0.5 44.25,-0.5"/>
<text text-anchor="middle" x="90.12" y="-7.75" font-family="Helvetica,sans-Serif" font-size="10.00">TicsSpecsMinor</text>
</a>
</g>
</g>
<!-- Node2 -->
<g id="node2" class="node">
<title>Node2</title>
<g id="a_node2"><a xlink:href="classsciplot_1_1ShowSpecsOf.html" target="_top" xlink:title=" ">
<polygon fill="white" stroke="black" points="0,-58.25 0,-79 180.25,-79 180.25,-58.25 0,-58.25"/>
<text text-anchor="middle" x="90.12" y="-65.5" font-family="Helvetica,sans-Serif" font-size="10.00">ShowSpecsOf&lt; TicsSpecsMinor &gt;</text>
</a>
</g>
</g>
<!-- Node2&#45;&gt;Node1 -->
<g id="edge1" class="edge">
<title>Node2&#45;&gt;Node1</title>
<path fill="none" stroke="midnightblue" d="M90.12,-47.5C90.12,-38.39 90.12,-28.09 90.12,-20.91"/>
<polygon fill="midnightblue" stroke="midnightblue" points="86.63,-47.42 90.12,-57.42 93.63,-47.42 86.63,-47.42"/>
</g>
<!-- Node3 -->
<g id="node3" class="node">
<title>Node3</title>
<g id="a_node3"><a xlink:href="classsciplot_1_1Specs.html" target="_top" xlink:title=" ">
<polygon fill="white" stroke="black" points="18.75,-116 18.75,-136.75 161.5,-136.75 161.5,-116 18.75,-116"/>
<text text-anchor="middle" x="90.12" y="-123.25" font-family="Helvetica,sans-Serif" font-size="10.00">Specs&lt; TicsSpecsMinor &gt;</text>
</a>
</g>
</g>
<!-- Node3&#45;&gt;Node2 -->
<g id="edge2" class="edge">
<title>Node3&#45;&gt;Node2</title>
<path fill="none" stroke="midnightblue" d="M90.12,-105.25C90.12,-96.14 90.12,-85.84 90.12,-78.66"/>
<polygon fill="midnightblue" stroke="midnightblue" points="86.63,-105.17 90.12,-115.17 93.63,-105.17 86.63,-105.17"/>
</g>
</g>
</svg>
