<?xml version="1.0" encoding="UTF-8" standalone="no"?>
<!DOCTYPE svg PUBLIC "-//W3C//DTD SVG 1.1//EN"
 "http://www.w3.org/Graphics/SVG/1.1/DTD/svg11.dtd">
<!-- Generated by graphviz version 8.0.4 (20230426.1303)
 -->
<!-- Title: FillSpecs Pages: 1 -->
<svg width="143pt" height="145pt"
 viewBox="0.00 0.00 143.25 145.25" xmlns="http://www.w3.org/2000/svg" xmlns:xlink="http://www.w3.org/1999/xlink">
<g id="graph0" class="graph" transform="scale(1 1) rotate(0) translate(4 141.25)">
<title>FillSpecs</title>
<polygon fill="white" stroke="none" points="-4,4 -4,-141.25 139.25,-141.25 139.25,4 -4,4"/>
<!-- Node1 -->
<g id="node1" class="node">
<title>Node1</title>
<g id="a_node1"><a xlink:title="The class used to specify color or pattern fill options.">
<polygon fill="#bfbfbf" stroke="black" points="38.25,-0.5 38.25,-21.25 97,-21.25 97,-0.5 38.25,-0.5"/>
<text text-anchor="middle" x="67.62" y="-7.75" font-family="Helvetica,sans-Serif" font-size="10.00">FillSpecs</text>
</a>
</g>
</g>
<!-- Node2 -->
<g id="node2" class="node">
<title>Node2</title>
<g id="a_node2"><a xlink:href="classsciplot_1_1FillSpecsOf.html" target="_top" xlink:title=" ">
<polygon fill="white" stroke="black" points="0,-58.25 0,-79 135.25,-79 135.25,-58.25 0,-58.25"/>
<text text-anchor="middle" x="67.62" y="-65.5" font-family="Helvetica,sans-Serif" font-size="10.00">FillSpecsOf&lt; FillSpecs &gt;</text>
</a>
</g>
</g>
<!-- Node2&#45;&gt;Node1 -->
<g id="edge1" class="edge">
<title>Node2&#45;&gt;Node1</title>
<path fill="none" stroke="midnightblue" d="M67.62,-47.5C67.62,-38.39 67.62,-28.09 67.62,-20.91"/>
<polygon fill="midnightblue" stroke="midnightblue" points="64.13,-47.42 67.62,-57.42 71.13,-47.42 64.13,-47.42"/>
</g>
<!-- Node3 -->
<g id="node3" class="node">
<title>Node3</title>
<g id="a_node3"><a xlink:href="classsciplot_1_1Specs.html" target="_top" xlink:title=" ">
<polygon fill="white" stroke="black" points="12.75,-116 12.75,-136.75 122.5,-136.75 122.5,-116 12.75,-116"/>
<text text-anchor="middle" x="67.62" y="-123.25" font-family="Helvetica,sans-Serif" font-size="10.00">Specs&lt; FillSpecs &gt;</text>
</a>
</g>
</g>
<!-- Node3&#45;&gt;Node2 -->
<g id="edge2" class="edge">
<title>Node3&#45;&gt;Node2</title>
<path fill="none" stroke="midnightblue" d="M67.62,-105.25C67.62,-96.14 67.62,-85.84 67.62,-78.66"/>
<polygon fill="midnightblue" stroke="midnightblue" points="64.13,-105.17 67.62,-115.17 71.13,-105.17 64.13,-105.17"/>
</g>
</g>
</svg>
