<?xml version="1.0" encoding="UTF-8" standalone="no"?>
<!DOCTYPE svg PUBLIC "-//W3C//DTD SVG 1.1//EN"
 "http://www.w3.org/Graphics/SVG/1.1/DTD/svg11.dtd">
<!-- Generated by graphviz version 2.47.3 (20210619.2315)
 -->
<!-- Title: DrawSpecs Pages: 1 -->
<svg width="431pt" height="154pt"
 viewBox="0.00 0.00 431.00 153.50" xmlns="http://www.w3.org/2000/svg" xmlns:xlink="http://www.w3.org/1999/xlink">
<g id="graph0" class="graph" transform="scale(1 1) rotate(0) translate(4 149.5)">
<title>DrawSpecs</title>
<polygon fill="white" stroke="transparent" points="-4,4 -4,-149.5 427,-149.5 427,4 -4,4"/>
<!-- Node1 -->
<g id="node1" class="node">
<title>Node1</title>
<g id="a_node1"><a xlink:title="The class where options for the plotted element can be specified.">
<polygon fill="#bfbfbf" stroke="black" points="352,-69 352,-88 423,-88 423,-69 352,-69"/>
<text text-anchor="middle" x="387.5" y="-76" font-family="Helvetica,sans-Serif" font-size="10.00">DrawSpecs</text>
</a>
</g>
</g>
<!-- Node2 -->
<g id="node2" class="node">
<title>Node2</title>
<g id="a_node2"><a xlink:href="classsciplot_1_1LineSpecsOf.html" target="_top" xlink:title=" ">
<polygon fill="white" stroke="black" points="160.5,-126 160.5,-145 313.5,-145 313.5,-126 160.5,-126"/>
<text text-anchor="middle" x="237" y="-133" font-family="Helvetica,sans-Serif" font-size="10.00">LineSpecsOf&lt; DrawSpecs &gt;</text>
</a>
</g>
</g>
<!-- Node2&#45;&gt;Node1 -->
<g id="edge1" class="edge">
<title>Node2&#45;&gt;Node1</title>
<path fill="none" stroke="midnightblue" d="M295.72,-123.21C302.63,-121.22 309.53,-118.98 316,-116.5 335.99,-108.82 357.44,-96.63 371.36,-88.13"/>
<polygon fill="midnightblue" stroke="midnightblue" points="294.35,-119.95 285.62,-125.95 296.18,-126.71 294.35,-119.95"/>
</g>
<!-- Node3 -->
<g id="node3" class="node">
<title>Node3</title>
<g id="a_node3"><a xlink:href="classsciplot_1_1Specs.html" target="_top" xlink:title=" ">
<polygon fill="white" stroke="black" points="0,-69 0,-88 122,-88 122,-69 0,-69"/>
<text text-anchor="middle" x="61" y="-76" font-family="Helvetica,sans-Serif" font-size="10.00">Specs&lt; DrawSpecs &gt;</text>
</a>
</g>
</g>
<!-- Node3&#45;&gt;Node2 -->
<g id="edge2" class="edge">
<title>Node3&#45;&gt;Node2</title>
<path fill="none" stroke="midnightblue" d="M93.24,-92.13C111.82,-99.92 135.99,-109.5 158,-116.5 168.89,-119.96 180.81,-123.16 191.98,-125.9"/>
<polygon fill="midnightblue" stroke="midnightblue" points="94.38,-88.81 83.8,-88.13 91.64,-95.26 94.38,-88.81"/>
</g>
<!-- Node4 -->
<g id="node4" class="node">
<title>Node4</title>
<g id="a_node4"><a xlink:href="classsciplot_1_1PointSpecsOf.html" target="_top" xlink:title=" ">
<polygon fill="white" stroke="black" points="158,-88 158,-107 316,-107 316,-88 158,-88"/>
<text text-anchor="middle" x="237" y="-95" font-family="Helvetica,sans-Serif" font-size="10.00">PointSpecsOf&lt; DrawSpecs &gt;</text>
</a>
</g>
</g>
<!-- Node3&#45;&gt;Node4 -->
<g id="edge4" class="edge">
<title>Node3&#45;&gt;Node4</title>
<path fill="none" stroke="midnightblue" d="M132.48,-86.2C140.87,-87.11 149.47,-88.05 157.96,-88.98"/>
<polygon fill="midnightblue" stroke="midnightblue" points="132.69,-82.7 122.37,-85.09 131.93,-89.66 132.69,-82.7"/>
</g>
<!-- Node5 -->
<g id="node5" class="node">
<title>Node5</title>
<g id="a_node5"><a xlink:href="classsciplot_1_1FillSpecsOf.html" target="_top" xlink:title=" ">
<polygon fill="white" stroke="black" points="163.5,-50 163.5,-69 310.5,-69 310.5,-50 163.5,-50"/>
<text text-anchor="middle" x="237" y="-57" font-family="Helvetica,sans-Serif" font-size="10.00">FillSpecsOf&lt; DrawSpecs &gt;</text>
</a>
</g>
</g>
<!-- Node3&#45;&gt;Node5 -->
<g id="edge6" class="edge">
<title>Node3&#45;&gt;Node5</title>
<path fill="none" stroke="midnightblue" d="M132.46,-70.81C142.67,-69.69 153.2,-68.54 163.46,-67.42"/>
<polygon fill="midnightblue" stroke="midnightblue" points="131.93,-67.34 122.37,-71.91 132.69,-74.3 131.93,-67.34"/>
</g>
<!-- Node6 -->
<g id="node6" class="node">
<title>Node6</title>
<g id="a_node6"><a xlink:href="classsciplot_1_1FilledCurvesSpecsOf.html" target="_top" xlink:title=" ">
<polygon fill="white" stroke="black" points="179,-0.5 179,-30.5 295,-30.5 295,-0.5 179,-0.5"/>
<text text-anchor="start" x="187" y="-18.5" font-family="Helvetica,sans-Serif" font-size="10.00">FilledCurvesSpecsOf</text>
<text text-anchor="middle" x="237" y="-7.5" font-family="Helvetica,sans-Serif" font-size="10.00">&lt; DrawSpecs &gt;</text>
</a>
</g>
</g>
<!-- Node3&#45;&gt;Node6 -->
<g id="edge8" class="edge">
<title>Node3&#45;&gt;Node6</title>
<path fill="none" stroke="midnightblue" d="M94.54,-64.99C113.03,-57.48 136.68,-48.13 158,-40.5 167.37,-37.15 177.45,-33.76 187.15,-30.6"/>
<polygon fill="midnightblue" stroke="midnightblue" points="93.05,-61.82 85.11,-68.85 95.69,-68.3 93.05,-61.82"/>
</g>
<!-- Node4&#45;&gt;Node1 -->
<g id="edge3" class="edge">
<title>Node4&#45;&gt;Node1</title>
<path fill="none" stroke="midnightblue" d="M322.63,-86.67C332.93,-85.35 342.97,-84.07 351.92,-82.92"/>
<polygon fill="midnightblue" stroke="midnightblue" points="322.16,-83.2 312.69,-87.94 323.05,-90.15 322.16,-83.2"/>
</g>
<!-- Node5&#45;&gt;Node1 -->
<g id="edge5" class="edge">
<title>Node5&#45;&gt;Node1</title>
<path fill="none" stroke="midnightblue" d="M320.64,-70.07C331.63,-71.48 342.37,-72.85 351.88,-74.07"/>
<polygon fill="midnightblue" stroke="midnightblue" points="320.87,-66.57 310.51,-68.78 319.98,-73.52 320.87,-66.57"/>
</g>
<!-- Node6&#45;&gt;Node1 -->
<g id="edge7" class="edge">
<title>Node6&#45;&gt;Node1</title>
<path fill="none" stroke="midnightblue" d="M299.29,-33.95C304.99,-36.02 310.64,-38.22 316,-40.5 335.45,-48.77 356.66,-60.62 370.68,-68.88"/>
<polygon fill="midnightblue" stroke="midnightblue" points="300.28,-30.59 289.68,-30.58 297.96,-37.19 300.28,-30.59"/>
</g>
</g>
</svg>
