<?xml version="1.0" encoding="UTF-8" standalone="no"?>
<!DOCTYPE svg PUBLIC "-//W3C//DTD SVG 1.1//EN"
 "http://www.w3.org/Graphics/SVG/1.1/DTD/svg11.dtd">
<!-- Generated by graphviz version 4.0.0 (20220529.1859)
 -->
<!-- Title: LegendSpecs Pages: 1 -->
<svg width="669pt" height="142pt"
 viewBox="0.00 0.00 669.00 142.00" xmlns="http://www.w3.org/2000/svg" xmlns:xlink="http://www.w3.org/1999/xlink">
<g id="graph0" class="graph" transform="scale(1 1) rotate(0) translate(4 138)">
<title>LegendSpecs</title>
<polygon fill="white" stroke="transparent" points="-4,4 -4,-138 665,-138 665,4 -4,4"/>
<!-- Node1 -->
<g id="node1" class="node">
<title>Node1</title>
<g id="a_node1"><a xlink:title="The class used to specify options for legend.">
<polygon fill="#bfbfbf" stroke="black" points="581,-57.5 581,-76.5 661,-76.5 661,-57.5 581,-57.5"/>
<text text-anchor="middle" x="621" y="-64.5" font-family="Helvetica,sans-Serif" font-size="10.00">LegendSpecs</text>
</a>
</g>
</g>
<!-- Node2 -->
<g id="node2" class="node">
<title>Node2</title>
<g id="a_node2"><a xlink:href="classsciplot_1_1TextSpecsOf.html" target="_top" xlink:title=" ">
<polygon fill="white" stroke="black" points="379,-114.5 379,-133.5 542,-133.5 542,-114.5 379,-114.5"/>
<text text-anchor="middle" x="460.5" y="-121.5" font-family="Helvetica,sans-Serif" font-size="10.00">TextSpecsOf&lt; LegendSpecs &gt;</text>
</a>
</g>
</g>
<!-- Node2&#45;&gt;Node1 -->
<g id="edge1" class="edge">
<title>Node2&#45;&gt;Node1</title>
<path fill="none" stroke="midnightblue" d="M522.77,-111.88C530.34,-109.85 537.9,-107.56 545,-105 566.14,-97.37 588.99,-85.17 603.84,-76.66"/>
<polygon fill="midnightblue" stroke="midnightblue" points="521.68,-108.55 512.85,-114.4 523.41,-115.33 521.68,-108.55"/>
</g>
<!-- Node3 -->
<g id="node3" class="node">
<title>Node3</title>
<g id="a_node3"><a xlink:href="classsciplot_1_1FontSpecsOf.html" target="_top" xlink:title=" ">
<polygon fill="white" stroke="black" points="171.5,-114.5 171.5,-133.5 335.5,-133.5 335.5,-114.5 171.5,-114.5"/>
<text text-anchor="middle" x="253.5" y="-121.5" font-family="Helvetica,sans-Serif" font-size="10.00">FontSpecsOf&lt; LegendSpecs &gt;</text>
</a>
</g>
</g>
<!-- Node3&#45;&gt;Node2 -->
<g id="edge2" class="edge">
<title>Node3&#45;&gt;Node2</title>
<path fill="none" stroke="midnightblue" d="M345.6,-124C356.64,-124 367.85,-124 378.73,-124"/>
<polygon fill="midnightblue" stroke="midnightblue" points="345.52,-120.5 335.52,-124 345.52,-127.5 345.52,-120.5"/>
</g>
<!-- Node4 -->
<g id="node4" class="node">
<title>Node4</title>
<g id="a_node4"><a xlink:href="classsciplot_1_1Specs.html" target="_top" xlink:title=" ">
<polygon fill="white" stroke="black" points="0,-57.5 0,-76.5 131,-76.5 131,-57.5 0,-57.5"/>
<text text-anchor="middle" x="65.5" y="-64.5" font-family="Helvetica,sans-Serif" font-size="10.00">Specs&lt; LegendSpecs &gt;</text>
</a>
</g>
</g>
<!-- Node4&#45;&gt;Node3 -->
<g id="edge3" class="edge">
<title>Node4&#45;&gt;Node3</title>
<path fill="none" stroke="midnightblue" d="M104.23,-79.82C123.04,-86.1 146.15,-93.65 167,-100 183.37,-104.98 201.62,-110.16 217.04,-114.42"/>
<polygon fill="midnightblue" stroke="midnightblue" points="105.15,-76.44 94.55,-76.58 102.92,-83.07 105.15,-76.44"/>
</g>
<!-- Node5 -->
<g id="node5" class="node">
<title>Node5</title>
<g id="a_node5"><a xlink:href="classsciplot_1_1ShowSpecsOf.html" target="_top" xlink:title=" ">
<polygon fill="white" stroke="black" points="376,-76.5 376,-95.5 545,-95.5 545,-76.5 376,-76.5"/>
<text text-anchor="middle" x="460.5" y="-83.5" font-family="Helvetica,sans-Serif" font-size="10.00">ShowSpecsOf&lt; LegendSpecs &gt;</text>
</a>
</g>
</g>
<!-- Node4&#45;&gt;Node5 -->
<g id="edge5" class="edge">
<title>Node4&#45;&gt;Node5</title>
<path fill="none" stroke="midnightblue" d="M141.44,-70.62C208.34,-73.86 306.18,-78.59 375.65,-81.95"/>
<polygon fill="midnightblue" stroke="midnightblue" points="141.55,-67.12 131.4,-70.14 141.22,-74.12 141.55,-67.12"/>
</g>
<!-- Node6 -->
<g id="node6" class="node">
<title>Node6</title>
<g id="a_node6"><a xlink:href="classsciplot_1_1TitleSpecsOf.html" target="_top" xlink:title=" ">
<polygon fill="white" stroke="black" points="378.5,-38.5 378.5,-57.5 542.5,-57.5 542.5,-38.5 378.5,-38.5"/>
<text text-anchor="middle" x="460.5" y="-45.5" font-family="Helvetica,sans-Serif" font-size="10.00">TitleSpecsOf&lt; LegendSpecs &gt;</text>
</a>
</g>
</g>
<!-- Node4&#45;&gt;Node6 -->
<g id="edge7" class="edge">
<title>Node4&#45;&gt;Node6</title>
<path fill="none" stroke="midnightblue" d="M141.58,-63.37C209.39,-60.09 308.92,-55.28 378.5,-51.92"/>
<polygon fill="midnightblue" stroke="midnightblue" points="141.22,-59.88 131.4,-63.86 141.55,-66.88 141.22,-59.88"/>
</g>
<!-- Node7 -->
<g id="node7" class="node">
<title>Node7</title>
<g id="a_node7"><a xlink:href="classsciplot_1_1FrameSpecsOf.html" target="_top" xlink:title=" ">
<polygon fill="white" stroke="black" points="167,-0.5 167,-19.5 340,-19.5 340,-0.5 167,-0.5"/>
<text text-anchor="middle" x="253.5" y="-7.5" font-family="Helvetica,sans-Serif" font-size="10.00">FrameSpecsOf&lt; LegendSpecs &gt;</text>
</a>
</g>
</g>
<!-- Node4&#45;&gt;Node7 -->
<g id="edge9" class="edge">
<title>Node4&#45;&gt;Node7</title>
<path fill="none" stroke="midnightblue" d="M104.23,-54.18C123.04,-47.9 146.15,-40.35 167,-34 183.37,-29.02 201.62,-23.84 217.04,-19.58"/>
<polygon fill="midnightblue" stroke="midnightblue" points="102.92,-50.93 94.55,-57.42 105.15,-57.56 102.92,-50.93"/>
</g>
<!-- Node5&#45;&gt;Node1 -->
<g id="edge4" class="edge">
<title>Node5&#45;&gt;Node1</title>
<path fill="none" stroke="midnightblue" d="M551.16,-75.25C561.48,-74.02 571.56,-72.81 580.68,-71.71"/>
<polygon fill="midnightblue" stroke="midnightblue" points="550.73,-71.78 541.21,-76.44 551.56,-78.73 550.73,-71.78"/>
</g>
<!-- Node6&#45;&gt;Node1 -->
<g id="edge6" class="edge">
<title>Node6&#45;&gt;Node1</title>
<path fill="none" stroke="midnightblue" d="M551.16,-58.75C561.48,-59.98 571.56,-61.19 580.68,-62.29"/>
<polygon fill="midnightblue" stroke="midnightblue" points="551.56,-55.27 541.21,-57.56 550.73,-62.22 551.56,-55.27"/>
</g>
<!-- Node7&#45;&gt;Node1 -->
<g id="edge8" class="edge">
<title>Node7&#45;&gt;Node1</title>
<path fill="none" stroke="midnightblue" d="M350.36,-6.67C407.76,-7.03 481.65,-11.66 545,-29 567.39,-35.13 590.9,-48.3 605.5,-57.41"/>
<polygon fill="midnightblue" stroke="midnightblue" points="350.21,-3.17 340.2,-6.65 350.2,-10.17 350.21,-3.17"/>
</g>
</g>
</svg>
