<?xml version="1.0" encoding="UTF-8" standalone="no"?>
<!DOCTYPE svg PUBLIC "-//W3C//DTD SVG 1.1//EN"
 "http://www.w3.org/Graphics/SVG/1.1/DTD/svg11.dtd">
<!-- Generated by graphviz version 8.0.4 (20230426.1303)
 -->
<!-- Title: TicsSpecsBaseOf&lt; DerivedSpecs &gt; Pages: 1 -->
<svg width="744pt" height="109pt"
 viewBox="0.00 0.00 744.00 108.75" xmlns="http://www.w3.org/2000/svg" xmlns:xlink="http://www.w3.org/1999/xlink">
<g id="graph0" class="graph" transform="scale(1 1) rotate(0) translate(4 104.75)">
<title>TicsSpecsBaseOf&lt; DerivedSpecs &gt;</title>
<polygon fill="white" stroke="none" points="-4,4 -4,-104.75 740,-104.75 740,4 -4,4"/>
<!-- Node1 -->
<g id="node1" class="node">
<title>Node1</title>
<g id="a_node1"><a xlink:title="The class used to attach common tic options to a type that also specifies tic options.">
<polygon fill="#bfbfbf" stroke="black" points="587.25,-33.12 587.25,-66.62 736,-66.62 736,-33.12 587.25,-33.12"/>
<text text-anchor="start" x="595.25" y="-53.12" font-family="Helvetica,sans-Serif" font-size="10.00">TicsSpecsBaseOf&lt; Derived</text>
<text text-anchor="middle" x="661.62" y="-40.38" font-family="Helvetica,sans-Serif" font-size="10.00">Specs &gt;</text>
</a>
</g>
</g>
<!-- Node2 -->
<g id="node2" class="node">
<title>Node2</title>
<g id="a_node2"><a xlink:href="classsciplot_1_1TextSpecsOf.html" target="_top" xlink:title="The class used to attach text options to a type.">
<polygon fill="white" stroke="black" points="381.5,-79.5 381.5,-100.25 546.75,-100.25 546.75,-79.5 381.5,-79.5"/>
<text text-anchor="middle" x="464.12" y="-86.75" font-family="Helvetica,sans-Serif" font-size="10.00">TextSpecsOf&lt; DerivedSpecs &gt;</text>
</a>
</g>
</g>
<!-- Node2&#45;&gt;Node1 -->
<g id="edge1" class="edge">
<title>Node2&#45;&gt;Node1</title>
<path fill="none" stroke="midnightblue" d="M526.24,-77.37C545.62,-73.4 567.25,-68.98 587.4,-64.86"/>
<polygon fill="midnightblue" stroke="midnightblue" points="525.82,-74.09 516.73,-79.52 527.22,-80.95 525.82,-74.09"/>
</g>
<!-- Node3 -->
<g id="node3" class="node">
<title>Node3</title>
<g id="a_node3"><a xlink:href="classsciplot_1_1FontSpecsOf.html" target="_top" xlink:title="The class used to attach font options to a type.">
<polygon fill="white" stroke="black" points="172.38,-78.5 172.38,-99.25 338.38,-99.25 338.38,-78.5 172.38,-78.5"/>
<text text-anchor="middle" x="255.38" y="-85.75" font-family="Helvetica,sans-Serif" font-size="10.00">FontSpecsOf&lt; DerivedSpecs &gt;</text>
</a>
</g>
</g>
<!-- Node3&#45;&gt;Node2 -->
<g id="edge2" class="edge">
<title>Node3&#45;&gt;Node2</title>
<path fill="none" stroke="midnightblue" d="M348.93,-89.32C359.84,-89.38 370.92,-89.43 381.67,-89.48"/>
<polygon fill="midnightblue" stroke="midnightblue" points="349.1,-85.82 339.09,-89.27 349.07,-92.82 349.1,-85.82"/>
</g>
<!-- Node4 -->
<g id="node4" class="node">
<title>Node4</title>
<g id="a_node4"><a xlink:href="classsciplot_1_1Specs.html" target="_top" xlink:title="The base class for other specs classes (e.g., LineSpecsOf, DrawSpecs, BorderSpecs,...">
<polygon fill="white" stroke="black" points="0,-39.5 0,-60.25 133.75,-60.25 133.75,-39.5 0,-39.5"/>
<text text-anchor="middle" x="66.88" y="-46.75" font-family="Helvetica,sans-Serif" font-size="10.00">Specs&lt; DerivedSpecs &gt;</text>
</a>
</g>
</g>
<!-- Node4&#45;&gt;Node3 -->
<g id="edge3" class="edge">
<title>Node4&#45;&gt;Node3</title>
<path fill="none" stroke="midnightblue" d="M128.13,-62.48C152.97,-67.67 181.4,-73.61 204.98,-78.55"/>
<polygon fill="midnightblue" stroke="midnightblue" points="128.87,-58.84 118.36,-60.22 127.44,-65.7 128.87,-58.84"/>
</g>
<!-- Node5 -->
<g id="node5" class="node">
<title>Node5</title>
<g id="a_node5"><a xlink:href="classsciplot_1_1OffsetSpecsOf.html" target="_top" xlink:title="The class used to attach offset options to a type.">
<polygon fill="white" stroke="black" points="377,-39.5 377,-60.25 551.25,-60.25 551.25,-39.5 377,-39.5"/>
<text text-anchor="middle" x="464.12" y="-46.75" font-family="Helvetica,sans-Serif" font-size="10.00">OffsetSpecsOf&lt; DerivedSpecs &gt;</text>
</a>
</g>
</g>
<!-- Node4&#45;&gt;Node5 -->
<g id="edge5" class="edge">
<title>Node4&#45;&gt;Node5</title>
<path fill="none" stroke="midnightblue" d="M144.44,-49.88C211.17,-49.88 307.84,-49.88 377.19,-49.88"/>
<polygon fill="midnightblue" stroke="midnightblue" points="144.59,-46.38 134.59,-49.88 144.59,-53.38 144.59,-46.38"/>
</g>
<!-- Node6 -->
<g id="node6" class="node">
<title>Node6</title>
<g id="a_node6"><a xlink:href="classsciplot_1_1ShowSpecsOf.html" target="_top" xlink:title="The class used to attach visibility options to a type.">
<polygon fill="white" stroke="black" points="169.75,-0.5 169.75,-21.25 341,-21.25 341,-0.5 169.75,-0.5"/>
<text text-anchor="middle" x="255.38" y="-7.75" font-family="Helvetica,sans-Serif" font-size="10.00">ShowSpecsOf&lt; DerivedSpecs &gt;</text>
</a>
</g>
</g>
<!-- Node4&#45;&gt;Node6 -->
<g id="edge7" class="edge">
<title>Node4&#45;&gt;Node6</title>
<path fill="none" stroke="midnightblue" d="M128.13,-37.27C152.97,-32.08 181.4,-26.14 204.98,-21.2"/>
<polygon fill="midnightblue" stroke="midnightblue" points="127.44,-34.05 118.36,-39.53 128.87,-40.91 127.44,-34.05"/>
</g>
<!-- Node5&#45;&gt;Node1 -->
<g id="edge4" class="edge">
<title>Node5&#45;&gt;Node1</title>
<path fill="none" stroke="midnightblue" d="M561.97,-49.88C570.52,-49.88 579.09,-49.88 587.4,-49.88"/>
<polygon fill="midnightblue" stroke="midnightblue" points="562.16,-46.38 552.16,-49.88 562.16,-53.38 562.16,-46.38"/>
</g>
<!-- Node6&#45;&gt;Node1 -->
<g id="edge6" class="edge">
<title>Node6&#45;&gt;Node1</title>
<path fill="none" stroke="midnightblue" d="M351.79,-14.2C409.65,-16.92 484.88,-21.7 551.25,-29.88 562.94,-31.32 575.26,-33.2 587.26,-35.25"/>
<polygon fill="midnightblue" stroke="midnightblue" points="351.97,-10.66 341.83,-13.7 351.66,-17.66 351.97,-10.66"/>
</g>
</g>
</svg>
