<?xml version="1.0" encoding="UTF-8" standalone="no"?>
<!DOCTYPE svg PUBLIC "-//W3C//DTD SVG 1.1//EN"
 "http://www.w3.org/Graphics/SVG/1.1/DTD/svg11.dtd">
<!-- Generated by graphviz version 2.47.0 (20210327.0129)
 -->
<!-- Title: TicsSpecs Pages: 1 -->
<svg width="409pt" height="252pt"
 viewBox="0.00 0.00 408.50 252.00" xmlns="http://www.w3.org/2000/svg" xmlns:xlink="http://www.w3.org/1999/xlink">
<g id="graph0" class="graph" transform="scale(1 1) rotate(0) translate(4 248)">
<title>TicsSpecs</title>
<polygon fill="white" stroke="transparent" points="-4,4 -4,-248 404.5,-248 404.5,4 -4,4"/>
<!-- Node1 -->
<g id="node1" class="node">
<title>Node1</title>
<g id="a_node1"><a xlink:title="The class used to specify options for tics.">
<polygon fill="#bfbfbf" stroke="black" points="197.5,-0.5 197.5,-19.5 260.5,-19.5 260.5,-0.5 197.5,-0.5"/>
<text text-anchor="middle" x="229" y="-7.5" font-family="Helvetica" font-size="10.00">TicsSpecs</text>
</a>
</g>
</g>
<!-- Node2 -->
<g id="node2" class="node">
<title>Node2</title>
<g id="a_node2"><a xlink:href="classsciplot_1_1TicsSpecsBaseOf.html" target="_top" xlink:title=" ">
<polygon fill="white" stroke="black" points="148.5,-56.5 148.5,-75.5 309.5,-75.5 309.5,-56.5 148.5,-56.5"/>
<text text-anchor="middle" x="229" y="-63.5" font-family="Helvetica" font-size="10.00">TicsSpecsBaseOf&lt; TicsSpecs &gt;</text>
</a>
</g>
</g>
<!-- Node2&#45;&gt;Node1 -->
<g id="edge1" class="edge">
<title>Node2&#45;&gt;Node1</title>
<path fill="none" stroke="midnightblue" d="M229,-45.8C229,-36.91 229,-26.78 229,-19.75"/>
<polygon fill="midnightblue" stroke="midnightblue" points="225.5,-46.08 229,-56.08 232.5,-46.08 225.5,-46.08"/>
</g>
<!-- Node3 -->
<g id="node3" class="node">
<title>Node3</title>
<g id="a_node3"><a xlink:href="classsciplot_1_1TextSpecsOf.html" target="_top" xlink:title=" ">
<polygon fill="white" stroke="black" points="0,-112.5 0,-131.5 138,-131.5 138,-112.5 0,-112.5"/>
<text text-anchor="middle" x="69" y="-119.5" font-family="Helvetica" font-size="10.00">TextSpecsOf&lt; TicsSpecs &gt;</text>
</a>
</g>
</g>
<!-- Node3&#45;&gt;Node2 -->
<g id="edge2" class="edge">
<title>Node3&#45;&gt;Node2</title>
<path fill="none" stroke="midnightblue" d="M104.05,-109.17C134.17,-99 176.9,-84.59 203.77,-75.52"/>
<polygon fill="midnightblue" stroke="midnightblue" points="102.71,-105.93 94.35,-112.44 104.95,-112.56 102.71,-105.93"/>
</g>
<!-- Node4 -->
<g id="node4" class="node">
<title>Node4</title>
<g id="a_node4"><a xlink:href="classsciplot_1_1FontSpecsOf.html" target="_top" xlink:title=" ">
<polygon fill="white" stroke="black" points="30.5,-168.5 30.5,-187.5 169.5,-187.5 169.5,-168.5 30.5,-168.5"/>
<text text-anchor="middle" x="100" y="-175.5" font-family="Helvetica" font-size="10.00">FontSpecsOf&lt; TicsSpecs &gt;</text>
</a>
</g>
</g>
<!-- Node4&#45;&gt;Node3 -->
<g id="edge3" class="edge">
<title>Node4&#45;&gt;Node3</title>
<path fill="none" stroke="midnightblue" d="M89.82,-159.27C84.53,-150.05 78.28,-139.17 74.02,-131.75"/>
<polygon fill="midnightblue" stroke="midnightblue" points="86.87,-161.15 94.88,-168.08 92.94,-157.67 86.87,-161.15"/>
</g>
<!-- Node5 -->
<g id="node5" class="node">
<title>Node5</title>
<g id="a_node5"><a xlink:href="classsciplot_1_1Specs.html" target="_top" xlink:title=" ">
<polygon fill="white" stroke="black" points="174.5,-224.5 174.5,-243.5 283.5,-243.5 283.5,-224.5 174.5,-224.5"/>
<text text-anchor="middle" x="229" y="-231.5" font-family="Helvetica" font-size="10.00">Specs&lt; TicsSpecs &gt;</text>
</a>
</g>
</g>
<!-- Node5&#45;&gt;Node4 -->
<g id="edge4" class="edge">
<title>Node5&#45;&gt;Node4</title>
<path fill="none" stroke="midnightblue" d="M199.15,-220.5C174.96,-210.38 141.54,-196.39 120.34,-187.52"/>
<polygon fill="midnightblue" stroke="midnightblue" points="197.98,-223.81 208.56,-224.44 200.69,-217.35 197.98,-223.81"/>
</g>
<!-- Node6 -->
<g id="node6" class="node">
<title>Node6</title>
<g id="a_node6"><a xlink:href="classsciplot_1_1OffsetSpecsOf.html" target="_top" xlink:title=" ">
<polygon fill="white" stroke="black" points="156,-112.5 156,-131.5 302,-131.5 302,-112.5 156,-112.5"/>
<text text-anchor="middle" x="229" y="-119.5" font-family="Helvetica" font-size="10.00">OffsetSpecsOf&lt; TicsSpecs &gt;</text>
</a>
</g>
</g>
<!-- Node5&#45;&gt;Node6 -->
<g id="edge6" class="edge">
<title>Node5&#45;&gt;Node6</title>
<path fill="none" stroke="midnightblue" d="M229,-214.35C229,-190.25 229,-149.31 229,-131.59"/>
<polygon fill="midnightblue" stroke="midnightblue" points="225.5,-214.37 229,-224.37 232.5,-214.37 225.5,-214.37"/>
</g>
<!-- Node7 -->
<g id="node7" class="node">
<title>Node7</title>
<g id="a_node7"><a xlink:href="classsciplot_1_1ShowSpecsOf.html" target="_top" xlink:title=" ">
<polygon fill="white" stroke="black" points="257.5,-168.5 257.5,-187.5 400.5,-187.5 400.5,-168.5 257.5,-168.5"/>
<text text-anchor="middle" x="329" y="-175.5" font-family="Helvetica" font-size="10.00">ShowSpecsOf&lt; TicsSpecs &gt;</text>
</a>
</g>
</g>
<!-- Node5&#45;&gt;Node7 -->
<g id="edge8" class="edge">
<title>Node5&#45;&gt;Node7</title>
<path fill="none" stroke="midnightblue" d="M254.09,-219.45C272.55,-209.48 297.1,-196.23 312.97,-187.65"/>
<polygon fill="midnightblue" stroke="midnightblue" points="252.2,-216.49 245.07,-224.32 255.53,-222.65 252.2,-216.49"/>
</g>
<!-- Node6&#45;&gt;Node2 -->
<g id="edge5" class="edge">
<title>Node6&#45;&gt;Node2</title>
<path fill="none" stroke="midnightblue" d="M229,-101.8C229,-92.91 229,-82.78 229,-75.75"/>
<polygon fill="midnightblue" stroke="midnightblue" points="225.5,-102.08 229,-112.08 232.5,-102.08 225.5,-102.08"/>
</g>
<!-- Node7&#45;&gt;Node2 -->
<g id="edge7" class="edge">
<title>Node7&#45;&gt;Node2</title>
<path fill="none" stroke="midnightblue" d="M327.73,-158.5C325.92,-144.45 321.55,-125.33 311,-112 296.99,-94.3 274.02,-82.56 255.95,-75.52"/>
<polygon fill="midnightblue" stroke="midnightblue" points="324.25,-158.86 328.7,-168.48 331.22,-158.18 324.25,-158.86"/>
</g>
</g>
</svg>
