<?xml version="1.0" encoding="UTF-8" standalone="no"?>
<!DOCTYPE svg PUBLIC "-//W3C//DTD SVG 1.1//EN"
 "http://www.w3.org/Graphics/SVG/1.1/DTD/svg11.dtd">
<!-- Generated by graphviz version 7.0.5 (20221231.0122)
 -->
<!-- Title: DrawSpecs Pages: 1 -->
<svg width="431pt" height="154pt"
 viewBox="0.00 0.00 431.00 153.50" xmlns="http://www.w3.org/2000/svg" xmlns:xlink="http://www.w3.org/1999/xlink">
<g id="graph0" class="graph" transform="scale(1 1) rotate(0) translate(4 149.5)">
<title>DrawSpecs</title>
<polygon fill="white" stroke="none" points="-4,4 -4,-149.5 427,-149.5 427,4 -4,4"/>
<!-- Node1 -->
<g id="node1" class="node">
<title>Node1</title>
<g id="a_node1"><a xlink:title="The class where options for the plotted element can be specified.">
<polygon fill="#bfbfbf" stroke="black" points="352,-69 352,-88 423,-88 423,-69 352,-69"/>
<text text-anchor="middle" x="387.5" y="-76" font-family="Helvetica,sans-Serif" font-size="10.00">DrawSpecs</text>
</a>
</g>
</g>
<!-- Node2 -->
<g id="node2" class="node">
<title>Node2</title>
<g id="a_node2"><a xlink:href="classsciplot_1_1LineSpecsOf.html" target="_top" xlink:title=" ">
<polygon fill="white" stroke="black" points="160.5,-126 160.5,-145 313.5,-145 313.5,-126 160.5,-126"/>
<text text-anchor="middle" x="237" y="-133" font-family="Helvetica,sans-Serif" font-size="10.00">LineSpecsOf&lt; DrawSpecs &gt;</text>
</a>
</g>
</g>
<!-- Node2&#45;&gt;Node1 -->
<g id="edge1" class="edge">
<title>Node2&#45;&gt;Node1</title>
<path fill="none" stroke="midnightblue" d="M295.92,-123.15C302.77,-121.18 309.6,-118.96 316,-116.5 336.12,-108.77 357.72,-96.47 371.63,-87.97"/>
<polygon fill="midnightblue" stroke="midnightblue" points="295.4,-119.67 286.66,-125.66 297.23,-126.42 295.4,-119.67"/>
</g>
<!-- Node3 -->
<g id="node3" class="node">
<title>Node3</title>
<g id="a_node3"><a xlink:href="classsciplot_1_1Specs.html" target="_top" xlink:title=" ">
<polygon fill="white" stroke="black" points="0,-69 0,-88 122,-88 122,-69 0,-69"/>
<text text-anchor="middle" x="61" y="-76" font-family="Helvetica,sans-Serif" font-size="10.00">Specs&lt; DrawSpecs &gt;</text>
</a>
</g>
</g>
<!-- Node3&#45;&gt;Node2 -->
<g id="edge2" class="edge">
<title>Node3&#45;&gt;Node2</title>
<path fill="none" stroke="midnightblue" d="M93.91,-92.41C112.4,-100.15 136.25,-109.58 158,-116.5 169.02,-120.01 181.1,-123.24 192.38,-126"/>
<polygon fill="midnightblue" stroke="midnightblue" points="95.39,-89.24 84.82,-88.56 92.66,-95.68 95.39,-89.24"/>
</g>
<!-- Node4 -->
<g id="node4" class="node">
<title>Node4</title>
<g id="a_node4"><a xlink:href="classsciplot_1_1PointSpecsOf.html" target="_top" xlink:title=" ">
<polygon fill="white" stroke="black" points="158,-88 158,-107 316,-107 316,-88 158,-88"/>
<text text-anchor="middle" x="237" y="-95" font-family="Helvetica,sans-Serif" font-size="10.00">PointSpecsOf&lt; DrawSpecs &gt;</text>
</a>
</g>
</g>
<!-- Node3&#45;&gt;Node4 -->
<g id="edge4" class="edge">
<title>Node3&#45;&gt;Node4</title>
<path fill="none" stroke="midnightblue" d="M133.31,-86.29C141.51,-87.18 149.91,-88.1 158.19,-89"/>
<polygon fill="midnightblue" stroke="midnightblue" points="133.71,-82.81 123.39,-85.2 132.95,-89.77 133.71,-82.81"/>
</g>
<!-- Node5 -->
<g id="node5" class="node">
<title>Node5</title>
<g id="a_node5"><a xlink:href="classsciplot_1_1FillSpecsOf.html" target="_top" xlink:title=" ">
<polygon fill="white" stroke="black" points="163.5,-50 163.5,-69 310.5,-69 310.5,-50 163.5,-50"/>
<text text-anchor="middle" x="237" y="-57" font-family="Helvetica,sans-Serif" font-size="10.00">FillSpecsOf&lt; DrawSpecs &gt;</text>
</a>
</g>
</g>
<!-- Node3&#45;&gt;Node5 -->
<g id="edge6" class="edge">
<title>Node3&#45;&gt;Node5</title>
<path fill="none" stroke="midnightblue" d="M133.11,-70.73C143.2,-69.63 153.58,-68.5 163.69,-67.4"/>
<polygon fill="midnightblue" stroke="midnightblue" points="132.95,-67.23 123.39,-71.8 133.71,-74.19 132.95,-67.23"/>
</g>
<!-- Node6 -->
<g id="node6" class="node">
<title>Node6</title>
<g id="a_node6"><a xlink:href="classsciplot_1_1FilledCurvesSpecsOf.html" target="_top" xlink:title=" ">
<polygon fill="white" stroke="black" points="179,-0.5 179,-30.5 295,-30.5 295,-0.5 179,-0.5"/>
<text text-anchor="start" x="187" y="-18.5" font-family="Helvetica,sans-Serif" font-size="10.00">FilledCurvesSpecsOf</text>
<text text-anchor="middle" x="237" y="-7.5" font-family="Helvetica,sans-Serif" font-size="10.00">&lt; DrawSpecs &gt;</text>
</a>
</g>
</g>
<!-- Node3&#45;&gt;Node6 -->
<g id="edge8" class="edge">
<title>Node3&#45;&gt;Node6</title>
<path fill="none" stroke="midnightblue" d="M95.2,-64.73C113.59,-57.25 136.94,-48.04 158,-40.5 167.51,-37.1 177.74,-33.66 187.56,-30.47"/>
<polygon fill="midnightblue" stroke="midnightblue" points="94.06,-61.41 86.13,-68.44 96.71,-67.89 94.06,-61.41"/>
</g>
<!-- Node4&#45;&gt;Node1 -->
<g id="edge3" class="edge">
<title>Node4&#45;&gt;Node1</title>
<path fill="none" stroke="midnightblue" d="M323.63,-86.54C333.64,-85.26 343.37,-84.02 352.06,-82.91"/>
<polygon fill="midnightblue" stroke="midnightblue" points="323.23,-83.07 313.75,-87.81 324.11,-90.01 323.23,-83.07"/>
</g>
<!-- Node5&#45;&gt;Node1 -->
<g id="edge5" class="edge">
<title>Node5&#45;&gt;Node1</title>
<path fill="none" stroke="midnightblue" d="M321.38,-70.17C332.17,-71.55 342.69,-72.9 352.03,-74.09"/>
<polygon fill="midnightblue" stroke="midnightblue" points="321.94,-66.71 311.58,-68.91 321.05,-73.65 321.94,-66.71"/>
</g>
<!-- Node6&#45;&gt;Node1 -->
<g id="edge7" class="edge">
<title>Node6&#45;&gt;Node1</title>
<path fill="none" stroke="midnightblue" d="M299.87,-34.16C305.37,-36.17 310.82,-38.29 316,-40.5 335.58,-48.83 356.93,-60.78 370.95,-69.04"/>
<polygon fill="midnightblue" stroke="midnightblue" points="301.29,-30.95 290.69,-30.94 298.97,-37.56 301.29,-30.95"/>
</g>
</g>
</svg>
