<?xml version="1.0" encoding="UTF-8" standalone="no"?>
<!DOCTYPE svg PUBLIC "-//W3C//DTD SVG 1.1//EN"
 "http://www.w3.org/Graphics/SVG/1.1/DTD/svg11.dtd">
<!-- Generated by graphviz version 2.47.0 (20210316.1410)
 -->
<!-- Title: Specs&lt; DerivedSpecs &gt; Pages: 1 -->
<!--zoomable 332 -->
<svg id="main" version="1.1" xmlns="http://www.w3.org/2000/svg" xmlns:xlink="http://www.w3.org/1999/xlink" xml:space="preserve" onload="init(evt)">
<style type="text/css"><![CDATA[
.edge:hover path { stroke: red; }
.edge:hover polygon { stroke: red; fill: red; }
]]></style>
<script type="text/javascript"><![CDATA[
var edges = document.getElementsByTagName('g');
if (edges && edges.length) {
  for (var i=0;i<edges.length;i++) {
    if (edges[i].id.substr(0,4)=='edge') {
      edges[i].setAttribute('class','edge');
    }
  }
}
]]></script>
        <defs>
                <circle id="rim" cx="0" cy="0" r="7"/>
                <circle id="rim2" cx="0" cy="0" r="3.5"/>
                <g id="zoomPlus">
                        <use xlink:href="#rim" fill="#404040">
                                <set attributeName="fill" to="#808080" begin="zoomplus.mouseover" end="zoomplus.mouseout"/>
                        </use>
                        <path d="M-4,0h8M0,-4v8" fill="none" stroke="white" stroke-width="1.5" pointer-events="none"/>
                </g>
                <g id="zoomMin">
                        <use xlink:href="#rim" fill="#404040">
                                <set attributeName="fill" to="#808080" begin="zoomminus.mouseover" end="zoomminus.mouseout"/>
                        </use>
                        <path d="M-4,0h8" fill="none" stroke="white" stroke-width="1.5" pointer-events="none"/>
                </g>
                <g id="dirArrow">
                        <path fill="none" stroke="white" stroke-width="1.5" d="M0,-3.0v7 M-2.5,-0.5L0,-3.0L2.5,-0.5"/>
                </g>
               <g id="resetDef">
                       <use xlink:href="#rim2" fill="#404040">
                               <set attributeName="fill" to="#808080" begin="reset.mouseover" end="reset.mouseout"/>
                       </use>
               </g>
        </defs>

<script type="text/javascript">
var viewWidth = 699;
var viewHeight = 332;
var sectionId = 'dynsection-0';
</script>
<script xlink:href="svgpan.js"/>
<svg id="graph" class="graph">
<g id="viewport">
<title>Specs&lt; DerivedSpecs &gt;</title>
<polygon fill="white" stroke="transparent" points="-4,4 -4,-328 695,-328 695,4 -4,4"/>
<!-- Node1 -->
<g id="node1" class="node">
<title>Node1</title>
<g id="a_node1"><a xlink:title="The base class for other specs classes (e.g., LineSpecsOf, DrawSpecs, BorderSpecs,...">
<polygon fill="#bfbfbf" stroke="black" points="0,-152.5 0,-171.5 123,-171.5 123,-152.5 0,-152.5"/>
<text text-anchor="middle" x="61.5" y="-159.5" font-family="Helvetica" font-size="10.00">Specs&lt; DerivedSpecs &gt;</text>
</a>
</g>
</g>
<!-- Node2 -->
<g id="node2" class="node">
<title>Node2</title>
<g id="a_node2"><a xlink:href="classsciplot_1_1DepthSpecsOf.html" target="_top" xlink:title="The class used to attach depth options to a type.">
<polygon fill="white" stroke="black" points="160,-304.5 160,-323.5 319,-323.5 319,-304.5 160,-304.5"/>
<text text-anchor="middle" x="239.5" y="-311.5" font-family="Helvetica" font-size="10.00">DepthSpecsOf&lt; DerivedSpecs &gt;</text>
</a>
</g>
</g>
<!-- Node1&#45;&gt;Node2 -->
<g id="edge1" class="edge">
<title>Node1&#45;&gt;Node2</title>
<path fill="none" stroke="midnightblue" d="M70.69,-180.6C84.5,-209.73 115.28,-265.8 159,-295 164.78,-298.86 171.26,-301.94 177.96,-304.4"/>
<polygon fill="midnightblue" stroke="midnightblue" points="73.87,-179.13 66.51,-171.5 67.5,-182.05 73.87,-179.13"/>
</g>
<!-- Node3 -->
<g id="node3" class="node">
<title>Node3</title>
<g id="a_node3"><a xlink:href="classsciplot_1_1FillSpecsOf.html" target="_top" xlink:title="The class used to attach color or pattern fill options to a type.">
<polygon fill="white" stroke="black" points="166.5,-266.5 166.5,-285.5 312.5,-285.5 312.5,-266.5 166.5,-266.5"/>
<text text-anchor="middle" x="239.5" y="-273.5" font-family="Helvetica" font-size="10.00">FillSpecsOf&lt; DerivedSpecs &gt;</text>
</a>
</g>
</g>
<!-- Node1&#45;&gt;Node3 -->
<g id="edge2" class="edge">
<title>Node1&#45;&gt;Node3</title>
<path fill="none" stroke="midnightblue" d="M75.35,-179.54C92.13,-201.14 123.58,-237.37 159,-257 165.95,-260.85 173.66,-263.93 181.48,-266.38"/>
<polygon fill="midnightblue" stroke="midnightblue" points="78.11,-177.38 69.28,-171.53 72.53,-181.61 78.11,-177.38"/>
</g>
<!-- Node4 -->
<g id="node4" class="node">
<title>Node4</title>
<g id="a_node4"><a xlink:href="classsciplot_1_1FontSpecsOf.html" target="_top" xlink:title="The class used to attach font options to a type.">
<polygon fill="white" stroke="black" points="163,-228.5 163,-247.5 316,-247.5 316,-228.5 163,-228.5"/>
<text text-anchor="middle" x="239.5" y="-235.5" font-family="Helvetica" font-size="10.00">FontSpecsOf&lt; DerivedSpecs &gt;</text>
</a>
</g>
</g>
<!-- Node1&#45;&gt;Node4 -->
<g id="edge3" class="edge">
<title>Node1&#45;&gt;Node4</title>
<path fill="none" stroke="midnightblue" d="M84.37,-177.5C103.31,-190.28 131.87,-208.04 159,-219 168.34,-222.78 178.62,-225.92 188.59,-228.49"/>
<polygon fill="midnightblue" stroke="midnightblue" points="86.11,-174.45 75.89,-171.68 82.15,-180.22 86.11,-174.45"/>
</g>
<!-- Node7 -->
<g id="node7" class="node">
<title>Node7</title>
<g id="a_node7"><a xlink:href="classsciplot_1_1FrameSpecsOf.html" target="_top" xlink:title="The class used to attach frame options to a type.">
<polygon fill="white" stroke="black" points="159,-190.5 159,-209.5 320,-209.5 320,-190.5 159,-190.5"/>
<text text-anchor="middle" x="239.5" y="-197.5" font-family="Helvetica" font-size="10.00">FrameSpecsOf&lt; DerivedSpecs &gt;</text>
</a>
</g>
</g>
<!-- Node1&#45;&gt;Node7 -->
<g id="edge6" class="edge">
<title>Node1&#45;&gt;Node7</title>
<path fill="none" stroke="midnightblue" d="M116.93,-173.75C141.82,-179.13 170.92,-185.41 194.41,-190.48"/>
<polygon fill="midnightblue" stroke="midnightblue" points="117.43,-170.28 106.91,-171.59 115.95,-177.12 117.43,-170.28"/>
</g>
<!-- Node8 -->
<g id="node8" class="node">
<title>Node8</title>
<g id="a_node8"><a xlink:href="classsciplot_1_1LineSpecsOf.html" target="_top" xlink:title="The class used to attach line options to a type.">
<polygon fill="white" stroke="black" points="163.5,-152.5 163.5,-171.5 315.5,-171.5 315.5,-152.5 163.5,-152.5"/>
<text text-anchor="middle" x="239.5" y="-159.5" font-family="Helvetica" font-size="10.00">LineSpecsOf&lt; DerivedSpecs &gt;</text>
</a>
</g>
</g>
<!-- Node1&#45;&gt;Node8 -->
<g id="edge7" class="edge">
<title>Node1&#45;&gt;Node8</title>
<path fill="none" stroke="midnightblue" d="M133.22,-162C143.09,-162 153.25,-162 163.2,-162"/>
<polygon fill="midnightblue" stroke="midnightblue" points="133.07,-158.5 123.07,-162 133.07,-165.5 133.07,-158.5"/>
</g>
<!-- Node9 -->
<g id="node9" class="node">
<title>Node9</title>
<g id="a_node9"><a xlink:href="classsciplot_1_1OffsetSpecsOf.html" target="_top" xlink:title="The class used to attach offset options to a type.">
<polygon fill="white" stroke="black" points="356,-114.5 356,-133.5 517,-133.5 517,-114.5 356,-114.5"/>
<text text-anchor="middle" x="436.5" y="-121.5" font-family="Helvetica" font-size="10.00">OffsetSpecsOf&lt; DerivedSpecs &gt;</text>
</a>
</g>
</g>
<!-- Node1&#45;&gt;Node9 -->
<g id="edge8" class="edge">
<title>Node1&#45;&gt;Node9</title>
<path fill="none" stroke="midnightblue" d="M115.14,-150.39C129.32,-147.6 144.7,-144.89 159,-143 225.07,-134.26 300.58,-129.42 355.98,-126.81"/>
<polygon fill="midnightblue" stroke="midnightblue" points="114.18,-147.02 105.06,-152.42 115.56,-153.88 114.18,-147.02"/>
</g>
<!-- Node10 -->
<g id="node10" class="node">
<title>Node10</title>
<g id="a_node10"><a xlink:href="classsciplot_1_1PointSpecsOf.html" target="_top" xlink:title="The class used to attach point options to a type.">
<polygon fill="white" stroke="black" points="161.5,-76.5 161.5,-95.5 317.5,-95.5 317.5,-76.5 161.5,-76.5"/>
<text text-anchor="middle" x="239.5" y="-83.5" font-family="Helvetica" font-size="10.00">PointSpecsOf&lt; DerivedSpecs &gt;</text>
</a>
</g>
</g>
<!-- Node1&#45;&gt;Node10 -->
<g id="edge10" class="edge">
<title>Node1&#45;&gt;Node10</title>
<path fill="none" stroke="midnightblue" d="M86.73,-147.17C105.85,-135.91 133.48,-120.6 159,-110 172.45,-104.41 187.66,-99.5 201.15,-95.6"/>
<polygon fill="midnightblue" stroke="midnightblue" points="84.86,-144.21 78.07,-152.34 88.45,-150.22 84.86,-144.21"/>
</g>
<!-- Node11 -->
<g id="node11" class="node">
<title>Node11</title>
<g id="a_node11"><a xlink:href="classsciplot_1_1ShowSpecsOf.html" target="_top" xlink:title="The class used to attach visibility options to a type.">
<polygon fill="white" stroke="black" points="357.5,-57.5 357.5,-76.5 515.5,-76.5 515.5,-57.5 357.5,-57.5"/>
<text text-anchor="middle" x="436.5" y="-64.5" font-family="Helvetica" font-size="10.00">ShowSpecsOf&lt; DerivedSpecs &gt;</text>
</a>
</g>
</g>
<!-- Node1&#45;&gt;Node11 -->
<g id="edge11" class="edge">
<title>Node1&#45;&gt;Node11</title>
<path fill="none" stroke="midnightblue" d="M74.2,-143.79C90.16,-120.83 121.14,-82.51 159,-67 236.74,-35.16 337.4,-46.85 393.32,-57.44"/>
<polygon fill="midnightblue" stroke="midnightblue" points="71.15,-142.05 68.48,-152.3 76.96,-145.95 71.15,-142.05"/>
</g>
<!-- Node12 -->
<g id="node12" class="node">
<title>Node12</title>
<g id="a_node12"><a xlink:href="classsciplot_1_1TitleSpecsOf.html" target="_top" xlink:title="The class used to attach title options to a type.">
<polygon fill="white" stroke="black" points="163.5,-0.5 163.5,-19.5 315.5,-19.5 315.5,-0.5 163.5,-0.5"/>
<text text-anchor="middle" x="239.5" y="-7.5" font-family="Helvetica" font-size="10.00">TitleSpecsOf&lt; DerivedSpecs &gt;</text>
</a>
</g>
</g>
<!-- Node1&#45;&gt;Node12 -->
<g id="edge13" class="edge">
<title>Node1&#45;&gt;Node12</title>
<path fill="none" stroke="midnightblue" d="M71.69,-143.22C86.32,-115.27 117.53,-62.92 159,-34 167.99,-27.73 178.65,-23.07 189.19,-19.61"/>
<polygon fill="midnightblue" stroke="midnightblue" points="68.47,-141.82 67.06,-152.32 74.71,-144.99 68.47,-141.82"/>
</g>
<!-- Node5 -->
<g id="node5" class="node">
<title>Node5</title>
<g id="a_node5"><a xlink:href="classsciplot_1_1TextSpecsOf.html" target="_top" xlink:title="The class used to attach text options to a type.">
<polygon fill="white" stroke="black" points="360.5,-190.5 360.5,-209.5 512.5,-209.5 512.5,-190.5 360.5,-190.5"/>
<text text-anchor="middle" x="436.5" y="-197.5" font-family="Helvetica" font-size="10.00">TextSpecsOf&lt; DerivedSpecs &gt;</text>
</a>
</g>
</g>
<!-- Node4&#45;&gt;Node5 -->
<g id="edge4" class="edge">
<title>Node4&#45;&gt;Node5</title>
<path fill="none" stroke="midnightblue" d="M299.46,-226.51C327.28,-221.09 360.1,-214.69 386.52,-209.54"/>
<polygon fill="midnightblue" stroke="midnightblue" points="298.6,-223.11 289.46,-228.46 299.94,-229.98 298.6,-223.11"/>
</g>
<!-- Node6 -->
<g id="node6" class="node">
<title>Node6</title>
<g id="a_node6"><a xlink:href="classsciplot_1_1TicsSpecsBaseOf.html" target="_top" xlink:title="The class used to attach common tic options to a type that also specifies tic options.">
<polygon fill="white" stroke="black" points="553,-109 553,-139 691,-139 691,-109 553,-109"/>
<text text-anchor="start" x="561" y="-127" font-family="Helvetica" font-size="10.00">TicsSpecsBaseOf&lt; Derived</text>
<text text-anchor="middle" x="622" y="-116" font-family="Helvetica" font-size="10.00">Specs &gt;</text>
</a>
</g>
</g>
<!-- Node5&#45;&gt;Node6 -->
<g id="edge5" class="edge">
<title>Node5&#45;&gt;Node6</title>
<path fill="none" stroke="midnightblue" d="M470.14,-186.48C502.3,-173.16 551.32,-152.86 584.68,-139.04"/>
<polygon fill="midnightblue" stroke="midnightblue" points="468.64,-183.31 460.74,-190.37 471.32,-189.78 468.64,-183.31"/>
</g>
<!-- Node9&#45;&gt;Node6 -->
<g id="edge9" class="edge">
<title>Node9&#45;&gt;Node6</title>
<path fill="none" stroke="midnightblue" d="M527.27,-124C535.89,-124 544.52,-124 552.88,-124"/>
<polygon fill="midnightblue" stroke="midnightblue" points="527.19,-120.5 517.19,-124 527.19,-127.5 527.19,-120.5"/>
</g>
<!-- Node11&#45;&gt;Node6 -->
<g id="edge12" class="edge">
<title>Node11&#45;&gt;Node6</title>
<path fill="none" stroke="midnightblue" d="M478.04,-79.59C505.93,-88.26 543.11,-99.8 572.56,-108.95"/>
<polygon fill="midnightblue" stroke="midnightblue" points="478.8,-76.16 468.21,-76.54 476.73,-82.85 478.8,-76.16"/>
</g>
</g>
</svg>
        <g id="navigator" transform="translate(0 0)" fill="#404254">
                <rect fill="#f2f5e9" fill-opacity="0.5" stroke="#606060" stroke-width=".5" x="0" y="0" width="60" height="60"/>
                <use id="zoomplus" xlink:href="#zoomPlus" x="17" y="9" onmousedown="handleZoom(evt,'in')"/>
                <use id="zoomminus" xlink:href="#zoomMin" x="42" y="9" onmousedown="handleZoom(evt,'out')"/>
                <use id="reset" xlink:href="#resetDef" x="30" y="36" onmousedown="handleReset()"/>
                <g id="arrowUp" xlink:href="#dirArrow" transform="translate(30 24)" onmousedown="handlePan(0,-1)">
                  <use xlink:href="#rim" fill="#404040">
                        <set attributeName="fill" to="#808080" begin="arrowUp.mouseover" end="arrowUp.mouseout"/>
                  </use>
                  <path fill="none" stroke="white" stroke-width="1.5" d="M0,-3.0v7 M-2.5,-0.5L0,-3.0L2.5,-0.5"/>
                </g>
                <g id="arrowRight" xlink:href="#dirArrow" transform="rotate(90) translate(36 -43)" onmousedown="handlePan(1,0)">
                  <use xlink:href="#rim" fill="#404040">
                        <set attributeName="fill" to="#808080" begin="arrowRight.mouseover" end="arrowRight.mouseout"/>
                  </use>
                  <path fill="none" stroke="white" stroke-width="1.5" d="M0,-3.0v7 M-2.5,-0.5L0,-3.0L2.5,-0.5"/>
                </g>
                <g id="arrowDown" xlink:href="#dirArrow" transform="rotate(180) translate(-30 -48)" onmousedown="handlePan(0,1)">
                  <use xlink:href="#rim" fill="#404040">
                        <set attributeName="fill" to="#808080" begin="arrowDown.mouseover" end="arrowDown.mouseout"/>
                  </use>
                  <path fill="none" stroke="white" stroke-width="1.5" d="M0,-3.0v7 M-2.5,-0.5L0,-3.0L2.5,-0.5"/>
                </g>
                <g id="arrowLeft" xlink:href="#dirArrow" transform="rotate(270) translate(-36 17)" onmousedown="handlePan(-1,0)">
                  <use xlink:href="#rim" fill="#404040">
                        <set attributeName="fill" to="#808080" begin="arrowLeft.mouseover" end="arrowLeft.mouseout"/>
                  </use>
                  <path fill="none" stroke="white" stroke-width="1.5" d="M0,-3.0v7 M-2.5,-0.5L0,-3.0L2.5,-0.5"/>
                </g>
        </g>
        <svg viewBox="0 0 15 15" width="100%" height="30px" preserveAspectRatio="xMaxYMin meet">
         <g id="arrow_out" transform="scale(0.3 0.3)">
          <a xlink:href="classsciplot_1_1Specs__inherit__graph_org.svg" target="_base">
           <rect id="button" ry="5" rx="5" y="6" x="6" height="38" width="38"
                fill="#f2f5e9" fill-opacity="0.5" stroke="#606060" stroke-width="1.0"/>
           <path id="arrow"
             d="M 11.500037,31.436501 C 11.940474,20.09759 22.043105,11.32322 32.158766,21.979434 L 37.068811,17.246167 C 37.068811,17.246167 37.088388,32 37.088388,32 L 22.160133,31.978069 C 22.160133,31.978069 26.997745,27.140456 26.997745,27.140456 C 18.528582,18.264221 13.291696,25.230495 11.500037,31.436501 z"
             style="fill:#404040;"/>
          </a>
         </g>
        </svg>
</svg>
