<?xml version="1.0" encoding="UTF-8" standalone="no"?>
<!DOCTYPE svg PUBLIC "-//W3C//DTD SVG 1.1//EN"
 "http://www.w3.org/Graphics/SVG/1.1/DTD/svg11.dtd">
<!-- Generated by graphviz version 8.0.5 (20230506.1012)
 -->
<!-- Title: TextSpecsOf&lt; DerivedSpecs &gt; Pages: 1 -->
<svg width="174pt" height="216pt"
 viewBox="0.00 0.00 174.00 215.75" xmlns="http://www.w3.org/2000/svg" xmlns:xlink="http://www.w3.org/1999/xlink">
<g id="graph0" class="graph" transform="scale(1 1) rotate(0) translate(4 211.75)">
<title>TextSpecsOf&lt; DerivedSpecs &gt;</title>
<polygon fill="white" stroke="none" points="-4,4 -4,-211.75 170,-211.75 170,4 -4,4"/>
<!-- Node1 -->
<g id="node1" class="node">
<title>Node1</title>
<g id="a_node1"><a xlink:title="The class used to attach text options to a type.">
<polygon fill="#bfbfbf" stroke="black" points="0.38,-71 0.38,-91.75 165.62,-91.75 165.62,-71 0.38,-71"/>
<text text-anchor="middle" x="83" y="-78.25" font-family="Helvetica,sans-Serif" font-size="10.00">TextSpecsOf&lt; DerivedSpecs &gt;</text>
</a>
</g>
</g>
<!-- Node4 -->
<g id="node4" class="node">
<title>Node4</title>
<g id="a_node4"><a xlink:href="classsciplot_1_1TicsSpecsBaseOf.html" target="_top" xlink:title="The class used to attach common tic options to a type that also specifies tic options.">
<polygon fill="white" stroke="black" points="8.62,-0.5 8.62,-34 157.38,-34 157.38,-0.5 8.62,-0.5"/>
<text text-anchor="start" x="16.62" y="-20.5" font-family="Helvetica,sans-Serif" font-size="10.00">TicsSpecsBaseOf&lt; Derived</text>
<text text-anchor="middle" x="83" y="-7.75" font-family="Helvetica,sans-Serif" font-size="10.00">Specs &gt;</text>
</a>
</g>
</g>
<!-- Node1&#45;&gt;Node4 -->
<g id="edge3" class="edge">
<title>Node1&#45;&gt;Node4</title>
<path fill="none" stroke="midnightblue" d="M83,-60.23C83,-51.62 83,-41.74 83,-33.72"/>
<polygon fill="midnightblue" stroke="midnightblue" points="79.5,-60.21 83,-70.21 86.5,-60.21 79.5,-60.21"/>
</g>
<!-- Node2 -->
<g id="node2" class="node">
<title>Node2</title>
<g id="a_node2"><a xlink:href="classsciplot_1_1FontSpecsOf.html" target="_top" xlink:title="The class used to attach font options to a type.">
<polygon fill="white" stroke="black" points="0,-128.75 0,-149.5 166,-149.5 166,-128.75 0,-128.75"/>
<text text-anchor="middle" x="83" y="-136" font-family="Helvetica,sans-Serif" font-size="10.00">FontSpecsOf&lt; DerivedSpecs &gt;</text>
</a>
</g>
</g>
<!-- Node2&#45;&gt;Node1 -->
<g id="edge1" class="edge">
<title>Node2&#45;&gt;Node1</title>
<path fill="none" stroke="midnightblue" d="M83,-118C83,-108.89 83,-98.59 83,-91.41"/>
<polygon fill="midnightblue" stroke="midnightblue" points="79.5,-117.92 83,-127.92 86.5,-117.92 79.5,-117.92"/>
</g>
<!-- Node3 -->
<g id="node3" class="node">
<title>Node3</title>
<g id="a_node3"><a xlink:href="classsciplot_1_1Specs.html" target="_top" xlink:title="The base class for other specs classes (e.g., LineSpecsOf, DrawSpecs, BorderSpecs,...">
<polygon fill="white" stroke="black" points="16.12,-186.5 16.12,-207.25 149.88,-207.25 149.88,-186.5 16.12,-186.5"/>
<text text-anchor="middle" x="83" y="-193.75" font-family="Helvetica,sans-Serif" font-size="10.00">Specs&lt; DerivedSpecs &gt;</text>
</a>
</g>
</g>
<!-- Node3&#45;&gt;Node2 -->
<g id="edge2" class="edge">
<title>Node3&#45;&gt;Node2</title>
<path fill="none" stroke="midnightblue" d="M83,-175.75C83,-166.64 83,-156.34 83,-149.16"/>
<polygon fill="midnightblue" stroke="midnightblue" points="79.5,-175.67 83,-185.67 86.5,-175.67 79.5,-175.67"/>
</g>
</g>
</svg>
