<?xml version="1.0" encoding="UTF-8" standalone="no"?>
<!DOCTYPE svg PUBLIC "-//W3C//DTD SVG 1.1//EN"
 "http://www.w3.org/Graphics/SVG/1.1/DTD/svg11.dtd">
<!-- Generated by graphviz version 8.0.4 (20230426.1303)
 -->
<!-- Title: OffsetSpecs Pages: 1 -->
<svg width="173pt" height="145pt"
 viewBox="0.00 0.00 173.25 145.25" xmlns="http://www.w3.org/2000/svg" xmlns:xlink="http://www.w3.org/1999/xlink">
<g id="graph0" class="graph" transform="scale(1 1) rotate(0) translate(4 141.25)">
<title>OffsetSpecs</title>
<polygon fill="white" stroke="none" points="-4,4 -4,-141.25 169.25,-141.25 169.25,4 -4,4"/>
<!-- Node1 -->
<g id="node1" class="node">
<title>Node1</title>
<g id="a_node1"><a xlink:title="The class used to specify offset options.">
<polygon fill="#bfbfbf" stroke="black" points="45.75,-0.5 45.75,-21.25 119.5,-21.25 119.5,-0.5 45.75,-0.5"/>
<text text-anchor="middle" x="82.62" y="-7.75" font-family="Helvetica,sans-Serif" font-size="10.00">OffsetSpecs</text>
</a>
</g>
</g>
<!-- Node2 -->
<g id="node2" class="node">
<title>Node2</title>
<g id="a_node2"><a xlink:href="classsciplot_1_1OffsetSpecsOf.html" target="_top" xlink:title=" ">
<polygon fill="white" stroke="black" points="0,-58.25 0,-79 165.25,-79 165.25,-58.25 0,-58.25"/>
<text text-anchor="middle" x="82.62" y="-65.5" font-family="Helvetica,sans-Serif" font-size="10.00">OffsetSpecsOf&lt; OffsetSpecs &gt;</text>
</a>
</g>
</g>
<!-- Node2&#45;&gt;Node1 -->
<g id="edge1" class="edge">
<title>Node2&#45;&gt;Node1</title>
<path fill="none" stroke="midnightblue" d="M82.62,-47.5C82.62,-38.39 82.62,-28.09 82.62,-20.91"/>
<polygon fill="midnightblue" stroke="midnightblue" points="79.13,-47.42 82.62,-57.42 86.13,-47.42 79.13,-47.42"/>
</g>
<!-- Node3 -->
<g id="node3" class="node">
<title>Node3</title>
<g id="a_node3"><a xlink:href="classsciplot_1_1Specs.html" target="_top" xlink:title=" ">
<polygon fill="white" stroke="black" points="20.25,-116 20.25,-136.75 145,-136.75 145,-116 20.25,-116"/>
<text text-anchor="middle" x="82.62" y="-123.25" font-family="Helvetica,sans-Serif" font-size="10.00">Specs&lt; OffsetSpecs &gt;</text>
</a>
</g>
</g>
<!-- Node3&#45;&gt;Node2 -->
<g id="edge2" class="edge">
<title>Node3&#45;&gt;Node2</title>
<path fill="none" stroke="midnightblue" d="M82.62,-105.25C82.62,-96.14 82.62,-85.84 82.62,-78.66"/>
<polygon fill="midnightblue" stroke="midnightblue" points="79.13,-105.17 82.62,-115.17 86.13,-105.17 79.13,-105.17"/>
</g>
</g>
</svg>
