<?xml version="1.0" encoding="UTF-8" standalone="no"?>
<!DOCTYPE svg PUBLIC "-//W3C//DTD SVG 1.1//EN"
 "http://www.w3.org/Graphics/SVG/1.1/DTD/svg11.dtd">
<!-- Generated by graphviz version 7.0.6 (20230107.1202)
 -->
<!-- Title: Plot3D Pages: 1 -->
<svg width="1264pt" height="859pt"
 viewBox="0.00 0.00 1264.00 859.00" xmlns="http://www.w3.org/2000/svg" xmlns:xlink="http://www.w3.org/1999/xlink">
<g id="graph0" class="graph" transform="scale(1 1) rotate(0) translate(4 855)">
<title>Plot3D</title>
<polygon fill="white" stroke="none" points="-4,4 -4,-855 1260,-855 1260,4 -4,4"/>
<!-- Node1 -->
<g id="node1" class="node">
<title>Node1</title>
<g id="a_node1"><a xlink:title="The class used to create a plot containing graphical elements.">
<polygon fill="#bfbfbf" stroke="black" points="1207,-429.5 1207,-448.5 1256,-448.5 1256,-429.5 1207,-429.5"/>
<text text-anchor="middle" x="1231.5" y="-436.5" font-family="Helvetica,sans-Serif" font-size="10.00">Plot3D</text>
</a>
</g>
</g>
<!-- Node2 -->
<g id="node2" class="node">
<title>Node2</title>
<g id="a_node2"><a xlink:href="classsciplot_1_1Plot.html" target="_top" xlink:title="The class used to create a plot containing graphical elements.">
<polygon fill="white" stroke="black" points="1135,-429.5 1135,-448.5 1170,-448.5 1170,-429.5 1135,-429.5"/>
<text text-anchor="middle" x="1152.5" y="-436.5" font-family="Helvetica,sans-Serif" font-size="10.00">Plot</text>
</a>
</g>
</g>
<!-- Node2&#45;&gt;Node1 -->
<g id="edge1" class="edge">
<title>Node2&#45;&gt;Node1</title>
<path fill="none" stroke="midnightblue" d="M1181.17,-439C1189.69,-439 1198.98,-439 1207.18,-439"/>
<polygon fill="midnightblue" stroke="midnightblue" points="1181.34,-435.5 1171.34,-439 1181.34,-442.5 1181.34,-435.5"/>
</g>
<!-- Node3 -->
<g id="node3" class="node">
<title>Node3</title>
<g id="a_node3"><a xlink:href="classsciplot_1_1BorderSpecs.html" target="_top" xlink:title="The class used to specify options for plot border.">
<polygon fill="white" stroke="black" points="866.5,-793.5 866.5,-812.5 943.5,-812.5 943.5,-793.5 866.5,-793.5"/>
<text text-anchor="middle" x="905" y="-800.5" font-family="Helvetica,sans-Serif" font-size="10.00">BorderSpecs</text>
</a>
</g>
</g>
<!-- Node3&#45;&gt;Node2 -->
<g id="edge2" class="edge">
<title>Node3&#45;&gt;Node2</title>
<path fill="none" stroke="#9a32cd" stroke-dasharray="5,2" d="M954.52,-810.87C1002.9,-815.69 1075.8,-814.18 1117,-771 1139.9,-747 1149.44,-500.27 1151.19,-448.5"/>
<polygon fill="#9a32cd" stroke="#9a32cd" points="955.21,-807.43 944.88,-809.78 954.43,-814.39 955.21,-807.43"/>
<text text-anchor="middle" x="1060.5" y="-815" font-family="Helvetica,sans-Serif" font-size="10.00"> m_border</text>
</g>
<!-- Node4 -->
<g id="node4" class="node">
<title>Node4</title>
<g id="a_node4"><a xlink:href="classsciplot_1_1LineSpecsOf.html" target="_top" xlink:title=" ">
<polygon fill="white" stroke="black" points="568.5,-831.5 568.5,-850.5 728.5,-850.5 728.5,-831.5 568.5,-831.5"/>
<text text-anchor="middle" x="648.5" y="-838.5" font-family="Helvetica,sans-Serif" font-size="10.00">LineSpecsOf&lt; BorderSpecs &gt;</text>
</a>
</g>
</g>
<!-- Node4&#45;&gt;Node3 -->
<g id="edge3" class="edge">
<title>Node4&#45;&gt;Node3</title>
<path fill="none" stroke="midnightblue" d="M724.4,-829.82C771.27,-822.82 829.6,-814.11 866.82,-808.55"/>
<polygon fill="midnightblue" stroke="midnightblue" points="723.94,-826.35 714.56,-831.29 724.97,-833.27 723.94,-826.35"/>
</g>
<!-- Node5 -->
<g id="node5" class="node">
<title>Node5</title>
<g id="a_node5"><a xlink:href="classsciplot_1_1Specs.html" target="_top" xlink:title=" ">
<polygon fill="white" stroke="black" points="194.5,-828.5 194.5,-847.5 322.5,-847.5 322.5,-828.5 194.5,-828.5"/>
<text text-anchor="middle" x="258.5" y="-835.5" font-family="Helvetica,sans-Serif" font-size="10.00">Specs&lt; BorderSpecs &gt;</text>
</a>
</g>
</g>
<!-- Node5&#45;&gt;Node4 -->
<g id="edge4" class="edge">
<title>Node5&#45;&gt;Node4</title>
<path fill="none" stroke="midnightblue" d="M333.63,-838.57C400.96,-839.09 499.98,-839.86 568.72,-840.39"/>
<polygon fill="midnightblue" stroke="midnightblue" points="333.81,-835.07 323.78,-838.5 333.76,-842.07 333.81,-835.07"/>
</g>
<!-- Node6 -->
<g id="node6" class="node">
<title>Node6</title>
<g id="a_node6"><a xlink:href="classsciplot_1_1DepthSpecsOf.html" target="_top" xlink:title=" ">
<polygon fill="white" stroke="black" points="564,-793.5 564,-812.5 733,-812.5 733,-793.5 564,-793.5"/>
<text text-anchor="middle" x="648.5" y="-800.5" font-family="Helvetica,sans-Serif" font-size="10.00">DepthSpecsOf&lt; BorderSpecs &gt;</text>
</a>
</g>
</g>
<!-- Node5&#45;&gt;Node6 -->
<g id="edge6" class="edge">
<title>Node5&#45;&gt;Node6</title>
<path fill="none" stroke="midnightblue" d="M333.38,-831.34C399.24,-825.39 495.56,-816.71 564.15,-810.52"/>
<polygon fill="midnightblue" stroke="midnightblue" points="333.42,-827.82 323.78,-832.2 334.05,-834.79 333.42,-827.82"/>
</g>
<!-- Node6&#45;&gt;Node3 -->
<g id="edge5" class="edge">
<title>Node6&#45;&gt;Node3</title>
<path fill="none" stroke="midnightblue" d="M744.12,-803C786.74,-803 834.6,-803 866.76,-803"/>
<polygon fill="midnightblue" stroke="midnightblue" points="744.35,-799.5 734.35,-803 744.35,-806.5 744.35,-799.5"/>
</g>
<!-- Node7 -->
<g id="node7" class="node">
<title>Node7</title>
<g id="a_node7"><a xlink:title=" ">
<polygon fill="white" stroke="#bfbfbf" points="824,-743.5 824,-762.5 986,-762.5 986,-743.5 824,-743.5"/>
<text text-anchor="middle" x="905" y="-750.5" font-family="Helvetica,sans-Serif" font-size="10.00">vector&lt; sciplot::DrawSpecs &gt;</text>
</a>
</g>
</g>
<!-- Node7&#45;&gt;Node2 -->
<g id="edge7" class="edge">
<title>Node7&#45;&gt;Node2</title>
<path fill="none" stroke="#9a32cd" stroke-dasharray="5,2" d="M997.25,-757.2C1039.5,-754.07 1086.89,-742.44 1117,-710 1153.3,-670.89 1152.44,-491.19 1151.7,-448.24"/>
<polygon fill="#9a32cd" stroke="#9a32cd" points="997.07,-753.71 987.29,-757.77 997.47,-760.7 997.07,-753.71"/>
<text text-anchor="middle" x="1060.5" y="-759" font-family="Helvetica,sans-Serif" font-size="10.00"> m_drawspecs</text>
</g>
<!-- Node8 -->
<g id="node8" class="node">
<title>Node8</title>
<g id="a_node8"><a xlink:href="classsciplot_1_1DrawSpecs.html" target="_top" xlink:title="The class where options for the plotted element can be specified.">
<polygon fill="white" stroke="black" points="613,-743.5 613,-762.5 684,-762.5 684,-743.5 613,-743.5"/>
<text text-anchor="middle" x="648.5" y="-750.5" font-family="Helvetica,sans-Serif" font-size="10.00">DrawSpecs</text>
</a>
</g>
</g>
<!-- Node8&#45;&gt;Node7 -->
<g id="edge8" class="edge">
<title>Node8&#45;&gt;Node7</title>
<path fill="none" stroke="#9a32cd" stroke-dasharray="5,2" d="M694.88,-753C730.66,-753 781.45,-753 824.01,-753"/>
<polygon fill="#9a32cd" stroke="#9a32cd" points="695.34,-749.5 685.34,-753 695.34,-756.5 695.34,-749.5"/>
<text text-anchor="middle" x="781.5" y="-756" font-family="Helvetica,sans-Serif" font-size="10.00"> elements</text>
</g>
<!-- Node9 -->
<g id="node9" class="node">
<title>Node9</title>
<g id="a_node9"><a xlink:href="classsciplot_1_1LineSpecsOf.html" target="_top" xlink:title=" ">
<polygon fill="white" stroke="red" points="182,-784.5 182,-803.5 335,-803.5 335,-784.5 182,-784.5"/>
<text text-anchor="middle" x="258.5" y="-791.5" font-family="Helvetica,sans-Serif" font-size="10.00">LineSpecsOf&lt; DrawSpecs &gt;</text>
</a>
</g>
</g>
<!-- Node9&#45;&gt;Node8 -->
<g id="edge9" class="edge">
<title>Node9&#45;&gt;Node8</title>
<path fill="none" stroke="midnightblue" d="M346.1,-787.01C401.6,-782.28 475.12,-775.53 540,-768 564.52,-765.15 592.1,-761.29 613.18,-758.2"/>
<polygon fill="midnightblue" stroke="midnightblue" points="346.08,-783.5 336.41,-787.83 346.67,-790.48 346.08,-783.5"/>
</g>
<!-- Node11 -->
<g id="node10" class="node">
<title>Node11</title>
<g id="a_node10"><a xlink:href="classsciplot_1_1PointSpecsOf.html" target="_top" xlink:title=" ">
<polygon fill="white" stroke="red" points="179.5,-746.5 179.5,-765.5 337.5,-765.5 337.5,-746.5 179.5,-746.5"/>
<text text-anchor="middle" x="258.5" y="-753.5" font-family="Helvetica,sans-Serif" font-size="10.00">PointSpecsOf&lt; DrawSpecs &gt;</text>
</a>
</g>
</g>
<!-- Node11&#45;&gt;Node8 -->
<g id="edge10" class="edge">
<title>Node11&#45;&gt;Node8</title>
<path fill="none" stroke="midnightblue" d="M348.45,-755.31C432.7,-754.66 554.79,-753.72 613.48,-753.26"/>
<polygon fill="midnightblue" stroke="midnightblue" points="348.57,-751.81 338.6,-755.39 348.63,-758.81 348.57,-751.81"/>
</g>
<!-- Node12 -->
<g id="node11" class="node">
<title>Node12</title>
<g id="a_node11"><a xlink:href="classsciplot_1_1FillSpecsOf.html" target="_top" xlink:title=" ">
<polygon fill="white" stroke="red" points="185,-708.5 185,-727.5 332,-727.5 332,-708.5 185,-708.5"/>
<text text-anchor="middle" x="258.5" y="-715.5" font-family="Helvetica,sans-Serif" font-size="10.00">FillSpecsOf&lt; DrawSpecs &gt;</text>
</a>
</g>
</g>
<!-- Node12&#45;&gt;Node8 -->
<g id="edge11" class="edge">
<title>Node12&#45;&gt;Node8</title>
<path fill="none" stroke="midnightblue" d="M342.92,-725.53C427.24,-733.13 553.41,-744.51 613.42,-749.93"/>
<polygon fill="midnightblue" stroke="midnightblue" points="343.35,-722.05 333.08,-724.64 342.72,-729.02 343.35,-722.05"/>
</g>
<!-- Node13 -->
<g id="node12" class="node">
<title>Node13</title>
<g id="a_node12"><a xlink:href="classsciplot_1_1FilledCurvesSpecsOf.html" target="_top" xlink:title=" ">
<polygon fill="white" stroke="red" points="200.5,-659 200.5,-689 316.5,-689 316.5,-659 200.5,-659"/>
<text text-anchor="start" x="208.5" y="-677" font-family="Helvetica,sans-Serif" font-size="10.00">FilledCurvesSpecsOf</text>
<text text-anchor="middle" x="258.5" y="-666" font-family="Helvetica,sans-Serif" font-size="10.00">&lt; DrawSpecs &gt;</text>
</a>
</g>
</g>
<!-- Node13&#45;&gt;Node8 -->
<g id="edge12" class="edge">
<title>Node13&#45;&gt;Node8</title>
<path fill="none" stroke="midnightblue" d="M327.45,-679.77C385.28,-686.16 469.87,-699.06 540,-724 548.62,-727.07 549.43,-730.79 558,-734 575.7,-740.63 596.29,-745.2 613.25,-748.19"/>
<polygon fill="midnightblue" stroke="midnightblue" points="328.07,-676.31 317.76,-678.74 327.33,-683.28 328.07,-676.31"/>
</g>
<!-- Node14 -->
<g id="node13" class="node">
<title>Node14</title>
<g id="a_node13"><a xlink:href="classsciplot_1_1HistogramStyleSpecs.html" target="_top" xlink:title="The class used to specify histogram style options.">
<polygon fill="white" stroke="black" points="844.5,-705.5 844.5,-724.5 965.5,-724.5 965.5,-705.5 844.5,-705.5"/>
<text text-anchor="middle" x="905" y="-712.5" font-family="Helvetica,sans-Serif" font-size="10.00">HistogramStyleSpecs</text>
</a>
</g>
</g>
<!-- Node14&#45;&gt;Node2 -->
<g id="edge13" class="edge">
<title>Node14&#45;&gt;Node2</title>
<path fill="none" stroke="#9a32cd" stroke-dasharray="5,2" d="M976.34,-703.4C1023.8,-691.71 1083.64,-668.69 1117,-624 1138.3,-595.46 1148.34,-481.37 1150.85,-448.13"/>
<polygon fill="#9a32cd" stroke="#9a32cd" points="975.6,-699.97 966.66,-705.65 977.19,-706.79 975.6,-699.97"/>
<text text-anchor="middle" x="1060.5" y="-698" font-family="Helvetica,sans-Serif" font-size="10.00"> m_style_histogram</text>
</g>
<!-- Node15 -->
<g id="node14" class="node">
<title>Node15</title>
<g id="a_node14"><a xlink:href="classsciplot_1_1Specs.html" target="_top" xlink:title=" ">
<polygon fill="white" stroke="black" points="562.5,-705.5 562.5,-724.5 734.5,-724.5 734.5,-705.5 562.5,-705.5"/>
<text text-anchor="middle" x="648.5" y="-712.5" font-family="Helvetica,sans-Serif" font-size="10.00">Specs&lt; HistogramStyleSpecs &gt;</text>
</a>
</g>
</g>
<!-- Node15&#45;&gt;Node14 -->
<g id="edge14" class="edge">
<title>Node15&#45;&gt;Node14</title>
<path fill="none" stroke="midnightblue" d="M745.4,-715C778.7,-715 815.05,-715 844.54,-715"/>
<polygon fill="midnightblue" stroke="midnightblue" points="745.76,-711.5 735.76,-715 745.76,-718.5 745.76,-711.5"/>
</g>
<!-- Node16 -->
<g id="node15" class="node">
<title>Node16</title>
<g id="a_node15"><a xlink:title="STL class.">
<polygon fill="white" stroke="#bfbfbf" points="626.5,-600.5 626.5,-619.5 670.5,-619.5 670.5,-600.5 626.5,-600.5"/>
<text text-anchor="middle" x="648.5" y="-607.5" font-family="Helvetica,sans-Serif" font-size="10.00">string</text>
</a>
</g>
</g>
<!-- Node16&#45;&gt;Node2 -->
<g id="edge15" class="edge">
<title>Node16&#45;&gt;Node2</title>
<path fill="none" stroke="#9a32cd" stroke-dasharray="5,2" d="M681.67,-610.84C781.88,-613.14 1083.74,-617.7 1117,-590 1139.11,-571.59 1148.36,-478.44 1150.8,-448.37"/>
<polygon fill="#9a32cd" stroke="#9a32cd" points="681.81,-607.34 671.73,-610.6 681.64,-614.34 681.81,-607.34"/>
<text text-anchor="middle" x="905" y="-681" font-family="Helvetica,sans-Serif" font-size="10.00"> m_boxwidth</text>
<text text-anchor="middle" x="905" y="-670" font-family="Helvetica,sans-Serif" font-size="10.00">m_data</text>
<text text-anchor="middle" x="905" y="-659" font-family="Helvetica,sans-Serif" font-size="10.00">m_datafilename</text>
<text text-anchor="middle" x="905" y="-648" font-family="Helvetica,sans-Serif" font-size="10.00">m_palette</text>
<text text-anchor="middle" x="905" y="-637" font-family="Helvetica,sans-Serif" font-size="10.00">m_samples</text>
<text text-anchor="middle" x="905" y="-626" font-family="Helvetica,sans-Serif" font-size="10.00">m_xrange</text>
<text text-anchor="middle" x="905" y="-615" font-family="Helvetica,sans-Serif" font-size="10.00">m_yrange</text>
</g>
<!-- Node39 -->
<g id="node35" class="node">
<title>Node39</title>
<g id="a_node35"><a xlink:title=" ">
<polygon fill="white" stroke="#bfbfbf" points="845.5,-554.5 845.5,-573.5 964.5,-573.5 964.5,-554.5 845.5,-554.5"/>
<text text-anchor="middle" x="905" y="-561.5" font-family="Helvetica,sans-Serif" font-size="10.00">vector&lt; std::string &gt;</text>
</a>
</g>
</g>
<!-- Node16&#45;&gt;Node39 -->
<g id="edge39" class="edge">
<title>Node16&#45;&gt;Node39</title>
<path fill="none" stroke="#9a32cd" stroke-dasharray="5,2" d="M681.41,-601.82C702.71,-596.54 731.42,-589.79 757,-585 786.01,-579.56 818.48,-574.79 845.51,-571.17"/>
<polygon fill="#9a32cd" stroke="#9a32cd" points="680.72,-598.38 671.87,-604.21 682.42,-605.17 680.72,-598.38"/>
<text text-anchor="middle" x="781.5" y="-588" font-family="Helvetica,sans-Serif" font-size="10.00"> elements</text>
</g>
<!-- Node17 -->
<g id="node16" class="node">
<title>Node17</title>
<g id="a_node16"><a xlink:title="STL class.">
<polygon fill="white" stroke="#bfbfbf" points="199,-620.5 199,-639.5 318,-639.5 318,-620.5 199,-620.5"/>
<text text-anchor="middle" x="258.5" y="-627.5" font-family="Helvetica,sans-Serif" font-size="10.00">basic_string&lt; char &gt;</text>
</a>
</g>
</g>
<!-- Node17&#45;&gt;Node16 -->
<g id="edge16" class="edge">
<title>Node17&#45;&gt;Node16</title>
<path fill="none" stroke="midnightblue" d="M329.08,-626.41C419.28,-621.76 571.56,-613.91 626.75,-611.07"/>
<polygon fill="midnightblue" stroke="midnightblue" points="328.91,-622.92 319.1,-626.93 329.27,-629.91 328.91,-622.92"/>
</g>
<!-- Node18 -->
<g id="node17" class="node">
<title>Node18</title>
<g id="a_node17"><a xlink:href="classsciplot_1_1TicsSpecsMinor.html" target="_top" xlink:title="The class used to specify options for minor tics of a specific axis.">
<polygon fill="white" stroke="black" points="859,-510.5 859,-529.5 951,-529.5 951,-510.5 859,-510.5"/>
<text text-anchor="middle" x="905" y="-517.5" font-family="Helvetica,sans-Serif" font-size="10.00">TicsSpecsMinor</text>
</a>
</g>
</g>
<!-- Node18&#45;&gt;Node2 -->
<g id="edge17" class="edge">
<title>Node18&#45;&gt;Node2</title>
<path fill="none" stroke="#9a32cd" stroke-dasharray="5,2" d="M954.29,-507.77C970.1,-503.88 987.77,-499.64 1004,-496 1054.01,-484.79 1071.77,-497.1 1117,-473 1128.28,-466.99 1138.33,-456.13 1144.63,-448.3"/>
<polygon fill="#9a32cd" stroke="#9a32cd" points="953.48,-504.37 944.62,-510.17 955.17,-511.16 953.48,-504.37"/>
<text text-anchor="middle" x="1060.5" y="-554" font-family="Helvetica,sans-Serif" font-size="10.00"> m_rtics_minor</text>
<text text-anchor="middle" x="1060.5" y="-543" font-family="Helvetica,sans-Serif" font-size="10.00">m_xtics_minor_bottom</text>
<text text-anchor="middle" x="1060.5" y="-532" font-family="Helvetica,sans-Serif" font-size="10.00">m_xtics_minor_top</text>
<text text-anchor="middle" x="1060.5" y="-521" font-family="Helvetica,sans-Serif" font-size="10.00">m_ytics_minor_left</text>
<text text-anchor="middle" x="1060.5" y="-510" font-family="Helvetica,sans-Serif" font-size="10.00">m_ytics_minor_right</text>
<text text-anchor="middle" x="1060.5" y="-499" font-family="Helvetica,sans-Serif" font-size="10.00">m_ztics_minor</text>
</g>
<!-- Node19 -->
<g id="node18" class="node">
<title>Node19</title>
<g id="a_node18"><a xlink:href="classsciplot_1_1ShowSpecsOf.html" target="_top" xlink:title=" ">
<polygon fill="white" stroke="black" points="558,-558.5 558,-577.5 739,-577.5 739,-558.5 558,-558.5"/>
<text text-anchor="middle" x="648.5" y="-565.5" font-family="Helvetica,sans-Serif" font-size="10.00">ShowSpecsOf&lt; TicsSpecsMinor &gt;</text>
</a>
</g>
</g>
<!-- Node19&#45;&gt;Node18 -->
<g id="edge18" class="edge">
<title>Node19&#45;&gt;Node18</title>
<path fill="none" stroke="midnightblue" d="M711.06,-556.39C756.83,-547.76 818.23,-536.18 859.36,-528.42"/>
<polygon fill="midnightblue" stroke="midnightblue" points="710.45,-552.94 701.27,-558.24 711.74,-559.82 710.45,-552.94"/>
</g>
<!-- Node20 -->
<g id="node19" class="node">
<title>Node20</title>
<g id="a_node19"><a xlink:href="classsciplot_1_1Specs.html" target="_top" xlink:title=" ">
<polygon fill="white" stroke="black" points="187,-582.5 187,-601.5 330,-601.5 330,-582.5 187,-582.5"/>
<text text-anchor="middle" x="258.5" y="-589.5" font-family="Helvetica,sans-Serif" font-size="10.00">Specs&lt; TicsSpecsMinor &gt;</text>
</a>
</g>
</g>
<!-- Node20&#45;&gt;Node19 -->
<g id="edge19" class="edge">
<title>Node20&#45;&gt;Node19</title>
<path fill="none" stroke="midnightblue" d="M340.94,-586.96C404.54,-583.03 492.81,-577.57 558.31,-573.52"/>
<polygon fill="midnightblue" stroke="midnightblue" points="341.04,-583.45 331.27,-587.56 341.47,-590.44 341.04,-583.45"/>
</g>
<!-- Node21 -->
<g id="node20" class="node">
<title>Node21</title>
<g id="a_node20"><a xlink:href="classsciplot_1_1AxisLabelSpecs.html" target="_top" xlink:title="The specifications for an axis label (e.g., xlabel, ylabel, etc.)">
<polygon fill="white" stroke="black" points="859,-461.5 859,-480.5 951,-480.5 951,-461.5 859,-461.5"/>
<text text-anchor="middle" x="905" y="-468.5" font-family="Helvetica,sans-Serif" font-size="10.00">AxisLabelSpecs</text>
</a>
</g>
</g>
<!-- Node21&#45;&gt;Node2 -->
<g id="edge20" class="edge">
<title>Node21&#45;&gt;Node2</title>
<path fill="none" stroke="#9a32cd" stroke-dasharray="5,2" d="M939.5,-457.66C958.16,-450.93 982,-443.47 1004,-440 1051.3,-432.53 1108.2,-435.44 1135.44,-437.55"/>
<polygon fill="#9a32cd" stroke="#9a32cd" points="938.46,-454.31 930.31,-461.08 940.9,-460.87 938.46,-454.31"/>
<text text-anchor="middle" x="1060.5" y="-465" font-family="Helvetica,sans-Serif" font-size="10.00"> m_rlabel</text>
<text text-anchor="middle" x="1060.5" y="-454" font-family="Helvetica,sans-Serif" font-size="10.00">m_xlabel</text>
<text text-anchor="middle" x="1060.5" y="-443" font-family="Helvetica,sans-Serif" font-size="10.00">m_ylabel</text>
</g>
<!-- Node22 -->
<g id="node21" class="node">
<title>Node22</title>
<g id="a_node21"><a xlink:href="classsciplot_1_1TextSpecsOf.html" target="_top" xlink:title=" ">
<polygon fill="white" stroke="black" points="561,-512.5 561,-531.5 736,-531.5 736,-512.5 561,-512.5"/>
<text text-anchor="middle" x="648.5" y="-519.5" font-family="Helvetica,sans-Serif" font-size="10.00">TextSpecsOf&lt; AxisLabelSpecs &gt;</text>
</a>
</g>
</g>
<!-- Node22&#45;&gt;Node21 -->
<g id="edge21" class="edge">
<title>Node22&#45;&gt;Node21</title>
<path fill="none" stroke="midnightblue" d="M707.78,-510.32C753.77,-501.1 817,-488.43 859.11,-479.99"/>
<polygon fill="midnightblue" stroke="midnightblue" points="707.37,-506.83 698.26,-512.23 708.75,-513.7 707.37,-506.83"/>
</g>
<!-- Node23 -->
<g id="node22" class="node">
<title>Node23</title>
<g id="a_node22"><a xlink:href="classsciplot_1_1FontSpecsOf.html" target="_top" xlink:title=" ">
<polygon fill="white" stroke="red" points="170.5,-544.5 170.5,-563.5 346.5,-563.5 346.5,-544.5 170.5,-544.5"/>
<text text-anchor="middle" x="258.5" y="-551.5" font-family="Helvetica,sans-Serif" font-size="10.00">FontSpecsOf&lt; AxisLabelSpecs &gt;</text>
</a>
</g>
</g>
<!-- Node23&#45;&gt;Node22 -->
<g id="edge22" class="edge">
<title>Node23&#45;&gt;Node22</title>
<path fill="none" stroke="midnightblue" d="M357.2,-545.94C419.97,-540.77 500.76,-534.1 561.17,-529.12"/>
<polygon fill="midnightblue" stroke="midnightblue" points="357.28,-542.42 347.6,-546.73 357.85,-549.4 357.28,-542.42"/>
</g>
<!-- Node25 -->
<g id="node23" class="node">
<title>Node25</title>
<g id="a_node23"><a xlink:href="classsciplot_1_1TicsSpecs.html" target="_top" xlink:title="The class used to specify options for tics.">
<polygon fill="white" stroke="black" points="872.5,-401.5 872.5,-420.5 937.5,-420.5 937.5,-401.5 872.5,-401.5"/>
<text text-anchor="middle" x="905" y="-408.5" font-family="Helvetica,sans-Serif" font-size="10.00">TicsSpecs</text>
</a>
</g>
</g>
<!-- Node25&#45;&gt;Node2 -->
<g id="edge23" class="edge">
<title>Node25&#45;&gt;Node2</title>
<path fill="none" stroke="#9a32cd" stroke-dasharray="5,2" d="M948.53,-400.46C992.42,-391.73 1062.06,-383.95 1117,-406 1128.85,-410.75 1138.92,-421.73 1145.08,-429.72"/>
<polygon fill="#9a32cd" stroke="#9a32cd" points="947.95,-397.01 938.88,-402.49 949.39,-403.85 947.95,-397.01"/>
<text text-anchor="middle" x="1060.5" y="-409" font-family="Helvetica,sans-Serif" font-size="10.00"> m_tics</text>
</g>
<!-- Node26 -->
<g id="node24" class="node">
<title>Node26</title>
<g id="a_node24"><a xlink:href="classsciplot_1_1TicsSpecsBaseOf.html" target="_top" xlink:title=" ">
<polygon fill="white" stroke="black" points="563.5,-452.5 563.5,-471.5 733.5,-471.5 733.5,-452.5 563.5,-452.5"/>
<text text-anchor="middle" x="648.5" y="-459.5" font-family="Helvetica,sans-Serif" font-size="10.00">TicsSpecsBaseOf&lt; TicsSpecs &gt;</text>
</a>
</g>
</g>
<!-- Node26&#45;&gt;Node25 -->
<g id="edge24" class="edge">
<title>Node26&#45;&gt;Node25</title>
<path fill="none" stroke="midnightblue" d="M708.01,-450.28C759.23,-440.01 831.69,-425.49 872.63,-417.29"/>
<polygon fill="midnightblue" stroke="midnightblue" points="707.37,-446.83 698.26,-452.23 708.75,-453.7 707.37,-446.83"/>
</g>
<!-- Node27 -->
<g id="node25" class="node">
<title>Node27</title>
<g id="a_node25"><a xlink:href="classsciplot_1_1TextSpecsOf.html" target="_top" xlink:title=" ">
<polygon fill="white" stroke="red" points="185,-506.5 185,-525.5 332,-525.5 332,-506.5 185,-506.5"/>
<text text-anchor="middle" x="258.5" y="-513.5" font-family="Helvetica,sans-Serif" font-size="10.00">TextSpecsOf&lt; TicsSpecs &gt;</text>
</a>
</g>
</g>
<!-- Node27&#45;&gt;Node26 -->
<g id="edge25" class="edge">
<title>Node27&#45;&gt;Node26</title>
<path fill="none" stroke="midnightblue" d="M343.07,-508.41C398.98,-502.86 474.11,-494.48 540,-484 561.73,-480.54 585.73,-475.73 605.54,-471.48"/>
<polygon fill="midnightblue" stroke="midnightblue" points="342.92,-504.91 333.31,-509.37 343.6,-511.88 342.92,-504.91"/>
</g>
<!-- Node30 -->
<g id="node26" class="node">
<title>Node30</title>
<g id="a_node26"><a xlink:href="classsciplot_1_1OffsetSpecsOf.html" target="_top" xlink:title=" ">
<polygon fill="white" stroke="red" points="180.5,-468.5 180.5,-487.5 336.5,-487.5 336.5,-468.5 180.5,-468.5"/>
<text text-anchor="middle" x="258.5" y="-475.5" font-family="Helvetica,sans-Serif" font-size="10.00">OffsetSpecsOf&lt; TicsSpecs &gt;</text>
</a>
</g>
</g>
<!-- Node30&#45;&gt;Node26 -->
<g id="edge26" class="edge">
<title>Node30&#45;&gt;Node26</title>
<path fill="none" stroke="midnightblue" d="M347.57,-474.37C412.34,-471.7 499.84,-468.09 563.6,-465.46"/>
<polygon fill="midnightblue" stroke="midnightblue" points="347.52,-470.87 337.67,-474.78 347.8,-477.86 347.52,-470.87"/>
</g>
<!-- Node31 -->
<g id="node27" class="node">
<title>Node31</title>
<g id="a_node27"><a xlink:href="classsciplot_1_1ShowSpecsOf.html" target="_top" xlink:title=" ">
<polygon fill="white" stroke="red" points="182,-430.5 182,-449.5 335,-449.5 335,-430.5 182,-430.5"/>
<text text-anchor="middle" x="258.5" y="-437.5" font-family="Helvetica,sans-Serif" font-size="10.00">ShowSpecsOf&lt; TicsSpecs &gt;</text>
</a>
</g>
</g>
<!-- Node31&#45;&gt;Node26 -->
<g id="edge27" class="edge">
<title>Node31&#45;&gt;Node26</title>
<path fill="none" stroke="midnightblue" d="M346.2,-444.92C411.14,-448.6 499.46,-453.61 563.69,-457.25"/>
<polygon fill="midnightblue" stroke="midnightblue" points="346.46,-441.43 336.28,-444.35 346.07,-448.41 346.46,-441.43"/>
</g>
<!-- Node32 -->
<g id="node28" class="node">
<title>Node32</title>
<g id="a_node28"><a xlink:href="classsciplot_1_1LegendSpecs.html" target="_top" xlink:title="The class used to specify options for legend.">
<polygon fill="white" stroke="black" points="865,-354.5 865,-373.5 945,-373.5 945,-354.5 865,-354.5"/>
<text text-anchor="middle" x="905" y="-361.5" font-family="Helvetica,sans-Serif" font-size="10.00">LegendSpecs</text>
</a>
</g>
</g>
<!-- Node32&#45;&gt;Node2 -->
<g id="edge28" class="edge">
<title>Node32&#45;&gt;Node2</title>
<path fill="none" stroke="#9a32cd" stroke-dasharray="5,2" d="M956.15,-353.95C1001.7,-347.64 1068.91,-345.63 1117,-376 1136.4,-388.25 1145.74,-415.44 1149.45,-429.76"/>
<polygon fill="#9a32cd" stroke="#9a32cd" points="955.64,-350.49 946.28,-355.45 956.69,-357.41 955.64,-350.49"/>
<text text-anchor="middle" x="1060.5" y="-379" font-family="Helvetica,sans-Serif" font-size="10.00"> m_legend</text>
</g>
<!-- Node33 -->
<g id="node29" class="node">
<title>Node33</title>
<g id="a_node29"><a xlink:href="classsciplot_1_1TextSpecsOf.html" target="_top" xlink:title=" ">
<polygon fill="white" stroke="black" points="567,-392.5 567,-411.5 730,-411.5 730,-392.5 567,-392.5"/>
<text text-anchor="middle" x="648.5" y="-399.5" font-family="Helvetica,sans-Serif" font-size="10.00">TextSpecsOf&lt; LegendSpecs &gt;</text>
</a>
</g>
</g>
<!-- Node33&#45;&gt;Node32 -->
<g id="edge29" class="edge">
<title>Node33&#45;&gt;Node32</title>
<path fill="none" stroke="midnightblue" d="M724.26,-390.84C770.53,-383.93 828.03,-375.34 865.34,-369.77"/>
<polygon fill="midnightblue" stroke="midnightblue" points="723.94,-387.35 714.56,-392.29 724.97,-394.27 723.94,-387.35"/>
</g>
<!-- Node34 -->
<g id="node30" class="node">
<title>Node34</title>
<g id="a_node30"><a xlink:href="classsciplot_1_1FontSpecsOf.html" target="_top" xlink:title=" ">
<polygon fill="white" stroke="black" points="176.5,-392.5 176.5,-411.5 340.5,-411.5 340.5,-392.5 176.5,-392.5"/>
<text text-anchor="middle" x="258.5" y="-399.5" font-family="Helvetica,sans-Serif" font-size="10.00">FontSpecsOf&lt; LegendSpecs &gt;</text>
</a>
</g>
</g>
<!-- Node34&#45;&gt;Node33 -->
<g id="edge30" class="edge">
<title>Node34&#45;&gt;Node33</title>
<path fill="none" stroke="midnightblue" d="M351.51,-402C417.06,-402 504.31,-402 567.07,-402"/>
<polygon fill="midnightblue" stroke="midnightblue" points="351.88,-398.5 341.88,-402 351.88,-405.5 351.88,-398.5"/>
</g>
<!-- Node35 -->
<g id="node31" class="node">
<title>Node35</title>
<g id="a_node31"><a xlink:href="classsciplot_1_1Specs.html" target="_top" xlink:title=" ">
<polygon fill="white" stroke="black" points="0,-335.5 0,-354.5 131,-354.5 131,-335.5 0,-335.5"/>
<text text-anchor="middle" x="65.5" y="-342.5" font-family="Helvetica,sans-Serif" font-size="10.00">Specs&lt; LegendSpecs &gt;</text>
</a>
</g>
</g>
<!-- Node35&#45;&gt;Node34 -->
<g id="edge31" class="edge">
<title>Node35&#45;&gt;Node34</title>
<path fill="none" stroke="midnightblue" d="M97.61,-358.84C112.88,-365.27 131.68,-372.66 149,-378 167.53,-383.71 188.23,-388.64 206.54,-392.52"/>
<polygon fill="midnightblue" stroke="midnightblue" points="99.15,-355.69 88.58,-354.96 96.39,-362.12 99.15,-355.69"/>
</g>
<!-- Node36 -->
<g id="node32" class="node">
<title>Node36</title>
<g id="a_node32"><a xlink:href="classsciplot_1_1ShowSpecsOf.html" target="_top" xlink:title=" ">
<polygon fill="white" stroke="black" points="369,-354.5 369,-373.5 538,-373.5 538,-354.5 369,-354.5"/>
<text text-anchor="middle" x="453.5" y="-361.5" font-family="Helvetica,sans-Serif" font-size="10.00">ShowSpecsOf&lt; LegendSpecs &gt;</text>
</a>
</g>
</g>
<!-- Node35&#45;&gt;Node36 -->
<g id="edge33" class="edge">
<title>Node35&#45;&gt;Node36</title>
<path fill="none" stroke="midnightblue" d="M142.12,-348.72C207.48,-351.94 301.8,-356.58 369.28,-359.9"/>
<polygon fill="midnightblue" stroke="midnightblue" points="142.35,-345.23 132.19,-348.23 142,-352.22 142.35,-345.23"/>
</g>
<!-- Node37 -->
<g id="node33" class="node">
<title>Node37</title>
<g id="a_node33"><a xlink:href="classsciplot_1_1TitleSpecsOf.html" target="_top" xlink:title=" ">
<polygon fill="white" stroke="black" points="371.5,-316.5 371.5,-335.5 535.5,-335.5 535.5,-316.5 371.5,-316.5"/>
<text text-anchor="middle" x="453.5" y="-323.5" font-family="Helvetica,sans-Serif" font-size="10.00">TitleSpecsOf&lt; LegendSpecs &gt;</text>
</a>
</g>
</g>
<!-- Node35&#45;&gt;Node37 -->
<g id="edge35" class="edge">
<title>Node35&#45;&gt;Node37</title>
<path fill="none" stroke="midnightblue" d="M141.85,-341.29C208.01,-338.03 304,-333.31 371.74,-329.98"/>
<polygon fill="midnightblue" stroke="midnightblue" points="142,-337.78 132.19,-341.77 142.35,-344.77 142,-337.78"/>
</g>
<!-- Node38 -->
<g id="node34" class="node">
<title>Node38</title>
<g id="a_node34"><a xlink:href="classsciplot_1_1FrameSpecsOf.html" target="_top" xlink:title=" ">
<polygon fill="white" stroke="black" points="367,-278.5 367,-297.5 540,-297.5 540,-278.5 367,-278.5"/>
<text text-anchor="middle" x="453.5" y="-285.5" font-family="Helvetica,sans-Serif" font-size="10.00">FrameSpecsOf&lt; LegendSpecs &gt;</text>
</a>
</g>
</g>
<!-- Node35&#45;&gt;Node38 -->
<g id="edge37" class="edge">
<title>Node35&#45;&gt;Node38</title>
<path fill="none" stroke="midnightblue" d="M128.74,-333.56C141.7,-331.29 155.28,-329 168,-327 238.92,-315.86 320.07,-304.91 377.51,-297.46"/>
<polygon fill="midnightblue" stroke="midnightblue" points="128.28,-330.09 119.04,-335.28 129.5,-336.98 128.28,-330.09"/>
</g>
<!-- Node36&#45;&gt;Node32 -->
<g id="edge32" class="edge">
<title>Node36&#45;&gt;Node32</title>
<path fill="none" stroke="midnightblue" d="M549.39,-364C647.33,-364 795.38,-364 865.09,-364"/>
<polygon fill="midnightblue" stroke="midnightblue" points="549.51,-360.5 539.51,-364 549.51,-367.5 549.51,-360.5"/>
</g>
<!-- Node37&#45;&gt;Node32 -->
<g id="edge34" class="edge">
<title>Node37&#45;&gt;Node32</title>
<path fill="none" stroke="midnightblue" d="M546.76,-333.8C644.71,-342.08 794.87,-354.77 865.17,-360.72"/>
<polygon fill="midnightblue" stroke="midnightblue" points="547.15,-330.32 536.89,-332.97 546.56,-337.3 547.15,-330.32"/>
</g>
<!-- Node38&#45;&gt;Node32 -->
<g id="edge36" class="edge">
<title>Node38&#45;&gt;Node32</title>
<path fill="none" stroke="midnightblue" d="M537.68,-299.01C594.51,-306.85 671.47,-318.07 739,-330 782.35,-337.66 831.75,-348.06 865.11,-355.34"/>
<polygon fill="midnightblue" stroke="midnightblue" points="538.47,-295.59 528.09,-297.7 537.52,-302.53 538.47,-295.59"/>
</g>
<!-- Node39&#45;&gt;Node2 -->
<g id="edge38" class="edge">
<title>Node39&#45;&gt;Node2</title>
<path fill="none" stroke="#9a32cd" stroke-dasharray="5,2" d="M975.84,-572.06C1028.62,-576.58 1095.52,-578.44 1117,-562 1135.4,-547.91 1146.75,-474.84 1150.3,-448.49"/>
<polygon fill="#9a32cd" stroke="#9a32cd" points="976.26,-568.59 965.98,-571.17 975.62,-575.56 976.26,-568.59"/>
<text text-anchor="middle" x="1060.5" y="-578" font-family="Helvetica,sans-Serif" font-size="10.00"> m_customcmds</text>
</g>
<!-- Node40 -->
<g id="node36" class="node">
<title>Node40</title>
<g id="a_node36"><a xlink:href="classsciplot_1_1FillStyleSpecs.html" target="_top" xlink:title="The class used to attach color or pattern fill options to a type.">
<polygon fill="white" stroke="black" points="863,-292.5 863,-311.5 947,-311.5 947,-292.5 863,-292.5"/>
<text text-anchor="middle" x="905" y="-299.5" font-family="Helvetica,sans-Serif" font-size="10.00">FillStyleSpecs</text>
</a>
</g>
</g>
<!-- Node40&#45;&gt;Node2 -->
<g id="edge40" class="edge">
<title>Node40&#45;&gt;Node2</title>
<path fill="none" stroke="#9a32cd" stroke-dasharray="5,2" d="M958.18,-307.31C1016.69,-313.71 1105.03,-324.86 1117,-335 1146.03,-359.59 1150.76,-409.24 1151.44,-429.78"/>
<polygon fill="#9a32cd" stroke="#9a32cd" points="958.72,-303.85 948.41,-306.26 957.97,-310.81 958.72,-303.85"/>
<text text-anchor="middle" x="1060.5" y="-338" font-family="Helvetica,sans-Serif" font-size="10.00"> m_style_fill</text>
</g>
<!-- Node41 -->
<g id="node37" class="node">
<title>Node41</title>
<g id="a_node37"><a xlink:href="classsciplot_1_1Specs.html" target="_top" xlink:title=" ">
<polygon fill="white" stroke="black" points="581,-240.5 581,-259.5 716,-259.5 716,-240.5 581,-240.5"/>
<text text-anchor="middle" x="648.5" y="-247.5" font-family="Helvetica,sans-Serif" font-size="10.00">Specs&lt; FillStyleSpecs &gt;</text>
</a>
</g>
</g>
<!-- Node41&#45;&gt;Node40 -->
<g id="edge41" class="edge">
<title>Node41&#45;&gt;Node40</title>
<path fill="none" stroke="midnightblue" d="M726.76,-259.87C752.13,-263.64 780.39,-268.4 806,-274 829.34,-279.1 855.31,-286.61 874.66,-292.57"/>
<polygon fill="midnightblue" stroke="midnightblue" points="727.6,-256.46 717.21,-258.49 726.6,-263.39 727.6,-256.46"/>
</g>
<!-- Node42 -->
<g id="node38" class="node">
<title>Node42</title>
<g id="a_node38"><a xlink:href="classsciplot_1_1TicsSpecsMajor.html" target="_top" xlink:title="The class used to specify options for major tics of a specific axis.">
<polygon fill="white" stroke="black" points="859,-219.5 859,-238.5 951,-238.5 951,-219.5 859,-219.5"/>
<text text-anchor="middle" x="905" y="-226.5" font-family="Helvetica,sans-Serif" font-size="10.00">TicsSpecsMajor</text>
</a>
</g>
</g>
<!-- Node42&#45;&gt;Node2 -->
<g id="edge42" class="edge">
<title>Node42&#45;&gt;Node2</title>
<path fill="none" stroke="#9a32cd" stroke-dasharray="5,2" d="M961.98,-224.93C1016.7,-222.24 1094.9,-222.25 1117,-242 1145.47,-267.46 1150.49,-394.65 1151.33,-429.92"/>
<polygon fill="#9a32cd" stroke="#9a32cd" points="962,-221.43 952.2,-225.46 962.38,-228.42 962,-221.43"/>
<text text-anchor="middle" x="1060.5" y="-300" font-family="Helvetica,sans-Serif" font-size="10.00"> m_rtics_major</text>
<text text-anchor="middle" x="1060.5" y="-289" font-family="Helvetica,sans-Serif" font-size="10.00">m_xtics_major_bottom</text>
<text text-anchor="middle" x="1060.5" y="-278" font-family="Helvetica,sans-Serif" font-size="10.00">m_xtics_major_top</text>
<text text-anchor="middle" x="1060.5" y="-267" font-family="Helvetica,sans-Serif" font-size="10.00">m_ytics_major_left</text>
<text text-anchor="middle" x="1060.5" y="-256" font-family="Helvetica,sans-Serif" font-size="10.00">m_ytics_major_right</text>
<text text-anchor="middle" x="1060.5" y="-245" font-family="Helvetica,sans-Serif" font-size="10.00">m_ztics_major</text>
</g>
<!-- Node43 -->
<g id="node39" class="node">
<title>Node43</title>
<g id="a_node39"><a xlink:href="classsciplot_1_1TicsSpecsBaseOf.html" target="_top" xlink:title=" ">
<polygon fill="white" stroke="black" points="569,-191 569,-221 728,-221 728,-191 569,-191"/>
<text text-anchor="start" x="577" y="-209" font-family="Helvetica,sans-Serif" font-size="10.00">TicsSpecsBaseOf&lt; TicsSpecs</text>
<text text-anchor="middle" x="648.5" y="-198" font-family="Helvetica,sans-Serif" font-size="10.00">Major &gt;</text>
</a>
</g>
</g>
<!-- Node43&#45;&gt;Node42 -->
<g id="edge43" class="edge">
<title>Node43&#45;&gt;Node42</title>
<path fill="none" stroke="midnightblue" d="M739.22,-214.11C779.82,-217.78 826.02,-221.95 859.15,-224.95"/>
<polygon fill="midnightblue" stroke="midnightblue" points="739.72,-210.64 729.44,-213.22 739.09,-217.61 739.72,-210.64"/>
</g>
<!-- Node44 -->
<g id="node40" class="node">
<title>Node44</title>
<g id="a_node40"><a xlink:href="classsciplot_1_1TextSpecsOf.html" target="_top" xlink:title=" ">
<polygon fill="white" stroke="red" points="171,-240.5 171,-259.5 346,-259.5 346,-240.5 171,-240.5"/>
<text text-anchor="middle" x="258.5" y="-247.5" font-family="Helvetica,sans-Serif" font-size="10.00">TextSpecsOf&lt; TicsSpecsMajor &gt;</text>
</a>
</g>
</g>
<!-- Node44&#45;&gt;Node43 -->
<g id="edge44" class="edge">
<title>Node44&#45;&gt;Node43</title>
<path fill="none" stroke="midnightblue" d="M357.09,-240.12C411.05,-234.51 479.27,-227.2 540,-220 549.44,-218.88 559.34,-217.66 569.15,-216.42"/>
<polygon fill="midnightblue" stroke="midnightblue" points="356.9,-236.62 347.31,-241.13 357.62,-243.58 356.9,-236.62"/>
</g>
<!-- Node47 -->
<g id="node41" class="node">
<title>Node47</title>
<g id="a_node41"><a xlink:href="classsciplot_1_1OffsetSpecsOf.html" target="_top" xlink:title=" ">
<polygon fill="white" stroke="red" points="186,-191 186,-221 331,-221 331,-191 186,-191"/>
<text text-anchor="start" x="194" y="-209" font-family="Helvetica,sans-Serif" font-size="10.00">OffsetSpecsOf&lt; TicsSpecs</text>
<text text-anchor="middle" x="258.5" y="-198" font-family="Helvetica,sans-Serif" font-size="10.00">Major &gt;</text>
</a>
</g>
</g>
<!-- Node47&#45;&gt;Node43 -->
<g id="edge45" class="edge">
<title>Node47&#45;&gt;Node43</title>
<path fill="none" stroke="midnightblue" d="M342.03,-206C409.13,-206 503.16,-206 569.12,-206"/>
<polygon fill="midnightblue" stroke="midnightblue" points="342.18,-202.5 332.18,-206 342.18,-209.5 342.18,-202.5"/>
</g>
<!-- Node48 -->
<g id="node42" class="node">
<title>Node48</title>
<g id="a_node42"><a xlink:href="classsciplot_1_1ShowSpecsOf.html" target="_top" xlink:title=" ">
<polygon fill="white" stroke="red" points="168,-152.5 168,-171.5 349,-171.5 349,-152.5 168,-152.5"/>
<text text-anchor="middle" x="258.5" y="-159.5" font-family="Helvetica,sans-Serif" font-size="10.00">ShowSpecsOf&lt; TicsSpecsMajor &gt;</text>
</a>
</g>
</g>
<!-- Node48&#45;&gt;Node43 -->
<g id="edge46" class="edge">
<title>Node48&#45;&gt;Node43</title>
<path fill="none" stroke="midnightblue" d="M354.44,-172.77C420.4,-180.25 507.23,-190.09 569.22,-197.12"/>
<polygon fill="midnightblue" stroke="midnightblue" points="355.05,-169.31 344.72,-171.66 354.26,-176.27 355.05,-169.31"/>
</g>
<!-- Node49 -->
<g id="node43" class="node">
<title>Node49</title>
<g id="a_node43"><a xlink:href="classsciplot_1_1GridSpecs.html" target="_top" xlink:title="The class used to specify options for grid.">
<polygon fill="white" stroke="black" points="872.5,-181.5 872.5,-200.5 937.5,-200.5 937.5,-181.5 872.5,-181.5"/>
<text text-anchor="middle" x="905" y="-188.5" font-family="Helvetica,sans-Serif" font-size="10.00">GridSpecs</text>
</a>
</g>
</g>
<!-- Node49&#45;&gt;Node2 -->
<g id="edge47" class="edge">
<title>Node49&#45;&gt;Node2</title>
<path fill="none" stroke="#9a32cd" stroke-dasharray="5,2" d="M948.81,-188.44C1003.38,-186.16 1093.48,-186.03 1117,-208 1149.96,-238.8 1151.69,-390.56 1151.58,-429.75"/>
<polygon fill="#9a32cd" stroke="#9a32cd" points="948.75,-184.94 938.92,-188.9 949.07,-191.93 948.75,-184.94"/>
<text text-anchor="middle" x="1060.5" y="-211" font-family="Helvetica,sans-Serif" font-size="10.00"> m_grid</text>
</g>
<!-- Node50 -->
<g id="node44" class="node">
<title>Node50</title>
<g id="a_node44"><a xlink:href="classsciplot_1_1GridSpecsBase.html" target="_top" xlink:title="The class used to specify options for grid lines along axis tics (major or minor).">
<polygon fill="white" stroke="black" points="604,-95.5 604,-114.5 693,-114.5 693,-95.5 604,-95.5"/>
<text text-anchor="middle" x="648.5" y="-102.5" font-family="Helvetica,sans-Serif" font-size="10.00">GridSpecsBase</text>
</a>
</g>
</g>
<!-- Node50&#45;&gt;Node49 -->
<g id="edge48" class="edge">
<title>Node50&#45;&gt;Node49</title>
<path fill="none" stroke="midnightblue" d="M687.93,-117.99C739.59,-135.44 830.21,-166.06 875.93,-181.51"/>
<polygon fill="midnightblue" stroke="midnightblue" points="689.25,-114.74 678.65,-114.85 687.01,-121.37 689.25,-114.74"/>
</g>
<!-- Node51 -->
<g id="node45" class="node">
<title>Node51</title>
<g id="a_node45"><a xlink:href="classsciplot_1_1LineSpecsOf.html" target="_top" xlink:title=" ">
<polygon fill="white" stroke="red" points="172.5,-114.5 172.5,-133.5 344.5,-133.5 344.5,-114.5 172.5,-114.5"/>
<text text-anchor="middle" x="258.5" y="-121.5" font-family="Helvetica,sans-Serif" font-size="10.00">LineSpecsOf&lt; GridSpecsBase &gt;</text>
</a>
</g>
</g>
<!-- Node51&#45;&gt;Node50 -->
<g id="edge49" class="edge">
<title>Node51&#45;&gt;Node50</title>
<path fill="none" stroke="midnightblue" d="M355.19,-119.31C434.74,-115.42 544.28,-110.05 604.13,-107.12"/>
<polygon fill="midnightblue" stroke="midnightblue" points="355.5,-115.79 345.68,-119.78 355.84,-122.79 355.5,-115.79"/>
</g>
<!-- Node53 -->
<g id="node46" class="node">
<title>Node53</title>
<g id="a_node46"><a xlink:href="classsciplot_1_1DepthSpecsOf.html" target="_top" xlink:title=" ">
<polygon fill="white" stroke="red" points="168,-76.5 168,-95.5 349,-95.5 349,-76.5 168,-76.5"/>
<text text-anchor="middle" x="258.5" y="-83.5" font-family="Helvetica,sans-Serif" font-size="10.00">DepthSpecsOf&lt; GridSpecsBase &gt;</text>
</a>
</g>
</g>
<!-- Node53&#45;&gt;Node50 -->
<g id="edge50" class="edge">
<title>Node53&#45;&gt;Node50</title>
<path fill="none" stroke="midnightblue" d="M359.98,-90.92C439.08,-94.79 545.44,-100 604.11,-102.88"/>
<polygon fill="midnightblue" stroke="midnightblue" points="360.19,-87.43 350.03,-90.43 359.84,-94.42 360.19,-87.43"/>
</g>
<!-- Node54 -->
<g id="node47" class="node">
<title>Node54</title>
<g id="a_node47"><a xlink:href="classsciplot_1_1ShowSpecsOf.html" target="_top" xlink:title=" ">
<polygon fill="white" stroke="red" points="169.5,-38.5 169.5,-57.5 347.5,-57.5 347.5,-38.5 169.5,-38.5"/>
<text text-anchor="middle" x="258.5" y="-45.5" font-family="Helvetica,sans-Serif" font-size="10.00">ShowSpecsOf&lt; GridSpecsBase &gt;</text>
</a>
</g>
</g>
<!-- Node54&#45;&gt;Node50 -->
<g id="edge51" class="edge">
<title>Node54&#45;&gt;Node50</title>
<path fill="none" stroke="midnightblue" d="M342.9,-58.98C398.74,-66.48 473.85,-76.86 540,-87 561.14,-90.24 584.56,-94.12 604.13,-97.46"/>
<polygon fill="midnightblue" stroke="midnightblue" points="343.52,-55.53 333.14,-57.67 342.59,-62.47 343.52,-55.53"/>
</g>
<!-- Node55 -->
<g id="node48" class="node">
<title>Node55</title>
<g id="a_node48"><a xlink:href="classsciplot_1_1FontSpecs.html" target="_top" xlink:title="The class used to specify font options.">
<polygon fill="white" stroke="black" points="872,-124.5 872,-143.5 938,-143.5 938,-124.5 872,-124.5"/>
<text text-anchor="middle" x="905" y="-131.5" font-family="Helvetica,sans-Serif" font-size="10.00">FontSpecs</text>
</a>
</g>
</g>
<!-- Node55&#45;&gt;Node2 -->
<g id="edge52" class="edge">
<title>Node55&#45;&gt;Node2</title>
<path fill="none" stroke="#9a32cd" stroke-dasharray="5,2" d="M949.05,-128.27C997.22,-124.51 1074.1,-126.91 1117,-172 1153.17,-210.01 1152.43,-386.69 1151.7,-429.59"/>
<polygon fill="#9a32cd" stroke="#9a32cd" points="948.91,-124.77 939.27,-129.17 949.55,-131.74 948.91,-124.77"/>
<text text-anchor="middle" x="1060.5" y="-175" font-family="Helvetica,sans-Serif" font-size="10.00"> m_font</text>
</g>
<!-- Node56 -->
<g id="node49" class="node">
<title>Node56</title>
<g id="a_node49"><a xlink:href="classsciplot_1_1FontSpecsOf.html" target="_top" xlink:title=" ">
<polygon fill="white" stroke="black" points="574,-29.5 574,-48.5 723,-48.5 723,-29.5 574,-29.5"/>
<text text-anchor="middle" x="648.5" y="-36.5" font-family="Helvetica,sans-Serif" font-size="10.00">FontSpecsOf&lt; FontSpecs &gt;</text>
</a>
</g>
</g>
<!-- Node56&#45;&gt;Node55 -->
<g id="edge53" class="edge">
<title>Node56&#45;&gt;Node55</title>
<path fill="none" stroke="midnightblue" d="M685.61,-52.48C737.9,-72 833.4,-107.65 878.77,-124.58"/>
<polygon fill="midnightblue" stroke="midnightblue" points="686.84,-49.2 676.25,-48.99 684.4,-55.76 686.84,-49.2"/>
</g>
<!-- Node57 -->
<g id="node50" class="node">
<title>Node57</title>
<g id="a_node50"><a xlink:href="classsciplot_1_1Specs.html" target="_top" xlink:title=" ">
<polygon fill="white" stroke="black" points="200,-0.5 200,-19.5 317,-19.5 317,-0.5 200,-0.5"/>
<text text-anchor="middle" x="258.5" y="-7.5" font-family="Helvetica,sans-Serif" font-size="10.00">Specs&lt; FontSpecs &gt;</text>
</a>
</g>
</g>
<!-- Node57&#45;&gt;Node56 -->
<g id="edge54" class="edge">
<title>Node57&#45;&gt;Node56</title>
<path fill="none" stroke="midnightblue" d="M327.93,-15.11C397,-20.28 503.3,-28.22 574.09,-33.51"/>
<polygon fill="midnightblue" stroke="midnightblue" points="328.49,-11.65 318.26,-14.39 327.97,-18.63 328.49,-11.65"/>
</g>
</g>
</svg>
