<?xml version="1.0" encoding="UTF-8" standalone="no"?>
<!DOCTYPE svg PUBLIC "-//W3C//DTD SVG 1.1//EN"
 "http://www.w3.org/Graphics/SVG/1.1/DTD/svg11.dtd">
<!-- Generated by graphviz version 2.47.1 (20210418.0311)
 -->
<!-- Title: Specs&lt; DerivedSpecs &gt; Pages: 1 -->
<svg width="699pt" height="382pt"
 viewBox="0.00 0.00 699.00 382.00" xmlns="http://www.w3.org/2000/svg" xmlns:xlink="http://www.w3.org/1999/xlink">
<g id="graph0" class="graph" transform="scale(1 1) rotate(0) translate(4 378)">
<title>Specs&lt; DerivedSpecs &gt;</title>
<polygon fill="white" stroke="transparent" points="-4,4 -4,-378 695,-378 695,4 -4,4"/>
<!-- Node1 -->
<g id="node1" class="node">
<title>Node1</title>
<g id="a_node1"><a xlink:title="The base class for other specs classes (e.g., LineSpecsOf, DrawSpecs, BorderSpecs,...">
<polygon fill="#bfbfbf" stroke="black" points="0,-171.5 0,-190.5 123,-190.5 123,-171.5 0,-171.5"/>
<text text-anchor="middle" x="61.5" y="-178.5" font-family="Helvetica" font-size="10.00">Specs&lt; DerivedSpecs &gt;</text>
</a>
</g>
</g>
<!-- Node2 -->
<g id="node2" class="node">
<title>Node2</title>
<g id="a_node2"><a xlink:href="classsciplot_1_1DepthSpecsOf.html" target="_top" xlink:title="The class used to attach depth options to a type.">
<polygon fill="white" stroke="black" points="160,-354.5 160,-373.5 319,-373.5 319,-354.5 160,-354.5"/>
<text text-anchor="middle" x="239.5" y="-361.5" font-family="Helvetica" font-size="10.00">DepthSpecsOf&lt; DerivedSpecs &gt;</text>
</a>
</g>
</g>
<!-- Node1&#45;&gt;Node2 -->
<g id="edge1" class="edge">
<title>Node1&#45;&gt;Node2</title>
<path fill="none" stroke="midnightblue" d="M68.3,-200.42C79.7,-235.12 108.43,-307.6 159,-345 164.25,-348.88 170.18,-351.98 176.37,-354.46"/>
<polygon fill="midnightblue" stroke="midnightblue" points="71.54,-199.07 65.2,-190.58 64.87,-201.17 71.54,-199.07"/>
</g>
<!-- Node3 -->
<g id="node3" class="node">
<title>Node3</title>
<g id="a_node3"><a xlink:href="classsciplot_1_1FilledCurvesSpecsOf.html" target="_top" xlink:title="The class used to set options for the gnuplot filledcurve functionality.">
<polygon fill="white" stroke="black" points="185,-305 185,-335 294,-335 294,-305 185,-305"/>
<text text-anchor="start" x="193" y="-323" font-family="Helvetica" font-size="10.00">FilledCurvesSpecsOf</text>
<text text-anchor="middle" x="239.5" y="-312" font-family="Helvetica" font-size="10.00">&lt; DerivedSpecs &gt;</text>
</a>
</g>
</g>
<!-- Node1&#45;&gt;Node3 -->
<g id="edge2" class="edge">
<title>Node1&#45;&gt;Node3</title>
<path fill="none" stroke="midnightblue" d="M73.15,-199.09C88.84,-224.2 120.51,-269.42 159,-295 166.83,-300.2 175.81,-304.38 184.85,-307.71"/>
<polygon fill="midnightblue" stroke="midnightblue" points="76.13,-197.25 67.94,-190.53 70.15,-200.89 76.13,-197.25"/>
</g>
<!-- Node4 -->
<g id="node4" class="node">
<title>Node4</title>
<g id="a_node4"><a xlink:href="classsciplot_1_1FillSpecsOf.html" target="_top" xlink:title="The class used to attach color or pattern fill options to a type.">
<polygon fill="white" stroke="black" points="166.5,-266.5 166.5,-285.5 312.5,-285.5 312.5,-266.5 166.5,-266.5"/>
<text text-anchor="middle" x="239.5" y="-273.5" font-family="Helvetica" font-size="10.00">FillSpecsOf&lt; DerivedSpecs &gt;</text>
</a>
</g>
</g>
<!-- Node1&#45;&gt;Node4 -->
<g id="edge3" class="edge">
<title>Node1&#45;&gt;Node4</title>
<path fill="none" stroke="midnightblue" d="M79.06,-197.8C97.13,-215.17 127.71,-241.85 159,-257 166.92,-260.83 175.67,-263.92 184.37,-266.41"/>
<polygon fill="midnightblue" stroke="midnightblue" points="81.26,-195.05 71.67,-190.54 76.35,-200.05 81.26,-195.05"/>
</g>
<!-- Node5 -->
<g id="node5" class="node">
<title>Node5</title>
<g id="a_node5"><a xlink:href="classsciplot_1_1FontSpecsOf.html" target="_top" xlink:title="The class used to attach font options to a type.">
<polygon fill="white" stroke="black" points="163,-228.5 163,-247.5 316,-247.5 316,-228.5 163,-228.5"/>
<text text-anchor="middle" x="239.5" y="-235.5" font-family="Helvetica" font-size="10.00">FontSpecsOf&lt; DerivedSpecs &gt;</text>
</a>
</g>
</g>
<!-- Node1&#45;&gt;Node5 -->
<g id="edge4" class="edge">
<title>Node1&#45;&gt;Node5</title>
<path fill="none" stroke="midnightblue" d="M93.64,-194.55C112.35,-202.37 136.77,-212 159,-219 170.1,-222.49 182.25,-225.7 193.63,-228.44"/>
<polygon fill="midnightblue" stroke="midnightblue" points="94.99,-191.32 84.41,-190.65 92.26,-197.77 94.99,-191.32"/>
</g>
<!-- Node8 -->
<g id="node8" class="node">
<title>Node8</title>
<g id="a_node8"><a xlink:href="classsciplot_1_1FrameSpecsOf.html" target="_top" xlink:title="The class used to attach frame options to a type.">
<polygon fill="white" stroke="black" points="159,-190.5 159,-209.5 320,-209.5 320,-190.5 159,-190.5"/>
<text text-anchor="middle" x="239.5" y="-197.5" font-family="Helvetica" font-size="10.00">FrameSpecsOf&lt; DerivedSpecs &gt;</text>
</a>
</g>
</g>
<!-- Node1&#45;&gt;Node8 -->
<g id="edge7" class="edge">
<title>Node1&#45;&gt;Node8</title>
<path fill="none" stroke="midnightblue" d="M133.22,-188.64C141.66,-189.55 150.31,-190.48 158.86,-191.4"/>
<polygon fill="midnightblue" stroke="midnightblue" points="133.39,-185.13 123.07,-187.54 132.64,-192.09 133.39,-185.13"/>
</g>
<!-- Node9 -->
<g id="node9" class="node">
<title>Node9</title>
<g id="a_node9"><a xlink:href="classsciplot_1_1LineSpecsOf.html" target="_top" xlink:title="The class used to attach line options to a type.">
<polygon fill="white" stroke="black" points="163.5,-152.5 163.5,-171.5 315.5,-171.5 315.5,-152.5 163.5,-152.5"/>
<text text-anchor="middle" x="239.5" y="-159.5" font-family="Helvetica" font-size="10.00">LineSpecsOf&lt; DerivedSpecs &gt;</text>
</a>
</g>
</g>
<!-- Node1&#45;&gt;Node9 -->
<g id="edge8" class="edge">
<title>Node1&#45;&gt;Node9</title>
<path fill="none" stroke="midnightblue" d="M133.22,-173.37C143.09,-172.3 153.25,-171.2 163.2,-170.13"/>
<polygon fill="midnightblue" stroke="midnightblue" points="132.64,-169.91 123.07,-174.46 133.39,-176.87 132.64,-169.91"/>
</g>
<!-- Node10 -->
<g id="node10" class="node">
<title>Node10</title>
<g id="a_node10"><a xlink:href="classsciplot_1_1OffsetSpecsOf.html" target="_top" xlink:title="The class used to attach offset options to a type.">
<polygon fill="white" stroke="black" points="356,-114.5 356,-133.5 517,-133.5 517,-114.5 356,-114.5"/>
<text text-anchor="middle" x="436.5" y="-121.5" font-family="Helvetica" font-size="10.00">OffsetSpecsOf&lt; DerivedSpecs &gt;</text>
</a>
</g>
</g>
<!-- Node1&#45;&gt;Node10 -->
<g id="edge9" class="edge">
<title>Node1&#45;&gt;Node10</title>
<path fill="none" stroke="midnightblue" d="M90.74,-167.22C109.6,-158.68 135.22,-148.36 159,-143 224.24,-128.28 300.15,-123.95 355.91,-123.06"/>
<polygon fill="midnightblue" stroke="midnightblue" points="89.14,-164.1 81.54,-171.48 92.08,-170.45 89.14,-164.1"/>
</g>
<!-- Node11 -->
<g id="node11" class="node">
<title>Node11</title>
<g id="a_node11"><a xlink:href="classsciplot_1_1PointSpecsOf.html" target="_top" xlink:title="The class used to attach point options to a type.">
<polygon fill="white" stroke="black" points="161.5,-76.5 161.5,-95.5 317.5,-95.5 317.5,-76.5 161.5,-76.5"/>
<text text-anchor="middle" x="239.5" y="-83.5" font-family="Helvetica" font-size="10.00">PointSpecsOf&lt; DerivedSpecs &gt;</text>
</a>
</g>
</g>
<!-- Node1&#45;&gt;Node11 -->
<g id="edge11" class="edge">
<title>Node1&#45;&gt;Node11</title>
<path fill="none" stroke="midnightblue" d="M80.63,-164.68C99.15,-148.77 129.32,-124.85 159,-110 170.99,-104 184.76,-99.2 197.44,-95.5"/>
<polygon fill="midnightblue" stroke="midnightblue" points="78.21,-162.15 72.98,-171.37 82.81,-167.42 78.21,-162.15"/>
</g>
<!-- Node12 -->
<g id="node12" class="node">
<title>Node12</title>
<g id="a_node12"><a xlink:href="classsciplot_1_1ShowSpecsOf.html" target="_top" xlink:title="The class used to attach visibility options to a type.">
<polygon fill="white" stroke="black" points="357.5,-57.5 357.5,-76.5 515.5,-76.5 515.5,-57.5 357.5,-57.5"/>
<text text-anchor="middle" x="436.5" y="-64.5" font-family="Helvetica" font-size="10.00">ShowSpecsOf&lt; DerivedSpecs &gt;</text>
</a>
</g>
</g>
<!-- Node1&#45;&gt;Node12 -->
<g id="edge12" class="edge">
<title>Node1&#45;&gt;Node12</title>
<path fill="none" stroke="midnightblue" d="M71.77,-162.02C86.15,-135.02 116.65,-86.63 159,-67 237.61,-30.55 342.82,-45.5 398.05,-57.49"/>
<polygon fill="midnightblue" stroke="midnightblue" points="68.5,-160.72 67.06,-171.21 74.73,-163.91 68.5,-160.72"/>
</g>
<!-- Node13 -->
<g id="node13" class="node">
<title>Node13</title>
<g id="a_node13"><a xlink:href="classsciplot_1_1TitleSpecsOf.html" target="_top" xlink:title="The class used to attach title options to a type.">
<polygon fill="white" stroke="black" points="163.5,-0.5 163.5,-19.5 315.5,-19.5 315.5,-0.5 163.5,-0.5"/>
<text text-anchor="middle" x="239.5" y="-7.5" font-family="Helvetica" font-size="10.00">TitleSpecsOf&lt; DerivedSpecs &gt;</text>
</a>
</g>
</g>
<!-- Node1&#45;&gt;Node13 -->
<g id="edge14" class="edge">
<title>Node1&#45;&gt;Node13</title>
<path fill="none" stroke="midnightblue" d="M69.81,-162.1C82.89,-130.77 113.29,-68.14 159,-34 167.43,-27.7 177.52,-23.04 187.63,-19.6"/>
<polygon fill="midnightblue" stroke="midnightblue" points="66.54,-160.86 66.04,-171.44 73.03,-163.48 66.54,-160.86"/>
</g>
<!-- Node6 -->
<g id="node6" class="node">
<title>Node6</title>
<g id="a_node6"><a xlink:href="classsciplot_1_1TextSpecsOf.html" target="_top" xlink:title="The class used to attach text options to a type.">
<polygon fill="white" stroke="black" points="360.5,-190.5 360.5,-209.5 512.5,-209.5 512.5,-190.5 360.5,-190.5"/>
<text text-anchor="middle" x="436.5" y="-197.5" font-family="Helvetica" font-size="10.00">TextSpecsOf&lt; DerivedSpecs &gt;</text>
</a>
</g>
</g>
<!-- Node5&#45;&gt;Node6 -->
<g id="edge5" class="edge">
<title>Node5&#45;&gt;Node6</title>
<path fill="none" stroke="midnightblue" d="M299.46,-226.51C327.28,-221.09 360.1,-214.69 386.52,-209.54"/>
<polygon fill="midnightblue" stroke="midnightblue" points="298.6,-223.11 289.46,-228.46 299.94,-229.98 298.6,-223.11"/>
</g>
<!-- Node7 -->
<g id="node7" class="node">
<title>Node7</title>
<g id="a_node7"><a xlink:href="classsciplot_1_1TicsSpecsBaseOf.html" target="_top" xlink:title="The class used to attach common tic options to a type that also specifies tic options.">
<polygon fill="white" stroke="black" points="553,-109 553,-139 691,-139 691,-109 553,-109"/>
<text text-anchor="start" x="561" y="-127" font-family="Helvetica" font-size="10.00">TicsSpecsBaseOf&lt; Derived</text>
<text text-anchor="middle" x="622" y="-116" font-family="Helvetica" font-size="10.00">Specs &gt;</text>
</a>
</g>
</g>
<!-- Node6&#45;&gt;Node7 -->
<g id="edge6" class="edge">
<title>Node6&#45;&gt;Node7</title>
<path fill="none" stroke="midnightblue" d="M470.14,-186.48C502.3,-173.16 551.32,-152.86 584.68,-139.04"/>
<polygon fill="midnightblue" stroke="midnightblue" points="468.64,-183.31 460.74,-190.37 471.32,-189.78 468.64,-183.31"/>
</g>
<!-- Node10&#45;&gt;Node7 -->
<g id="edge10" class="edge">
<title>Node10&#45;&gt;Node7</title>
<path fill="none" stroke="midnightblue" d="M527.27,-124C535.89,-124 544.52,-124 552.88,-124"/>
<polygon fill="midnightblue" stroke="midnightblue" points="527.19,-120.5 517.19,-124 527.19,-127.5 527.19,-120.5"/>
</g>
<!-- Node12&#45;&gt;Node7 -->
<g id="edge13" class="edge">
<title>Node12&#45;&gt;Node7</title>
<path fill="none" stroke="midnightblue" d="M478.04,-79.59C505.93,-88.26 543.11,-99.8 572.56,-108.95"/>
<polygon fill="midnightblue" stroke="midnightblue" points="478.8,-76.16 468.21,-76.54 476.73,-82.85 478.8,-76.16"/>
</g>
</g>
</svg>
