<?xml version="1.0" encoding="UTF-8" standalone="no"?>
<!DOCTYPE svg PUBLIC "-//W3C//DTD SVG 1.1//EN"
 "http://www.w3.org/Graphics/SVG/1.1/DTD/svg11.dtd">
<!-- Generated by graphviz version 2.47.2 (20210527.1257)
 -->
<!-- Title: Plot3D Pages: 1 -->
<!--zoomable 859 -->
<svg id="main" version="1.1" xmlns="http://www.w3.org/2000/svg" xmlns:xlink="http://www.w3.org/1999/xlink" xml:space="preserve" onload="init(evt)">
<style type="text/css"><![CDATA[
.edge:hover path { stroke: red; }
.edge:hover polygon { stroke: red; fill: red; }
]]></style>
<script type="text/javascript"><![CDATA[
var edges = document.getElementsByTagName('g');
if (edges && edges.length) {
  for (var i=0;i<edges.length;i++) {
    if (edges[i].id.substr(0,4)=='edge') {
      edges[i].setAttribute('class','edge');
    }
  }
}
]]></script>
        <defs>
                <circle id="rim" cx="0" cy="0" r="7"/>
                <circle id="rim2" cx="0" cy="0" r="3.5"/>
                <g id="zoomPlus">
                        <use xlink:href="#rim" fill="#404040">
                                <set attributeName="fill" to="#808080" begin="zoomplus.mouseover" end="zoomplus.mouseout"/>
                        </use>
                        <path d="M-4,0h8M0,-4v8" fill="none" stroke="white" stroke-width="1.5" pointer-events="none"/>
                </g>
                <g id="zoomMin">
                        <use xlink:href="#rim" fill="#404040">
                                <set attributeName="fill" to="#808080" begin="zoomminus.mouseover" end="zoomminus.mouseout"/>
                        </use>
                        <path d="M-4,0h8" fill="none" stroke="white" stroke-width="1.5" pointer-events="none"/>
                </g>
                <g id="dirArrow">
                        <path fill="none" stroke="white" stroke-width="1.5" d="M0,-3.0v7 M-2.5,-0.5L0,-3.0L2.5,-0.5"/>
                </g>
               <g id="resetDef">
                       <use xlink:href="#rim2" fill="#404040">
                               <set attributeName="fill" to="#808080" begin="reset.mouseover" end="reset.mouseout"/>
                       </use>
               </g>
        </defs>

<script type="text/javascript">
var viewWidth = 1199;
var viewHeight = 859;
var sectionId = 'dynsection-1';
</script>
<script xlink:href="svgpan.js"/>
<svg id="graph" class="graph">
<g id="viewport">
<title>Plot3D</title>
<polygon fill="white" stroke="transparent" points="-4,4 -4,-855 1195,-855 1195,4 -4,4"/>
<!-- Node1 -->
<g id="node1" class="node">
<title>Node1</title>
<g id="a_node1"><a xlink:title="The class used to create a plot containing graphical elements.">
<polygon fill="#bfbfbf" stroke="black" points="1144,-421.5 1144,-440.5 1191,-440.5 1191,-421.5 1144,-421.5"/>
<text text-anchor="middle" x="1167.5" y="-428.5" font-family="Helvetica" font-size="10.00">Plot3D</text>
</a>
</g>
</g>
<!-- Node2 -->
<g id="node2" class="node">
<title>Node2</title>
<g id="a_node2"><a xlink:href="classsciplot_1_1PlotBase.html" target="_top" xlink:title="The class used to create a plot containing graphical elements.">
<polygon fill="white" stroke="black" points="1051,-421.5 1051,-440.5 1107,-440.5 1107,-421.5 1051,-421.5"/>
<text text-anchor="middle" x="1079" y="-428.5" font-family="Helvetica" font-size="10.00">PlotBase</text>
</a>
</g>
</g>
<!-- Node2&#45;&gt;Node1 -->
<g id="edge1" class="edge">
<title>Node2&#45;&gt;Node1</title>
<path fill="none" stroke="midnightblue" d="M1117.65,-431C1126.61,-431 1135.9,-431 1143.94,-431"/>
<polygon fill="midnightblue" stroke="midnightblue" points="1117.37,-427.5 1107.37,-431 1117.37,-434.5 1117.37,-427.5"/>
</g>
<!-- Node3 -->
<g id="node3" class="node">
<title>Node3</title>
<g id="a_node3"><a xlink:href="classsciplot_1_1BorderSpecs.html" target="_top" xlink:title="The class used to specify options for plot border.">
<polygon fill="white" stroke="black" points="805,-793.5 805,-812.5 878,-812.5 878,-793.5 805,-793.5"/>
<text text-anchor="middle" x="841.5" y="-800.5" font-family="Helvetica" font-size="10.00">BorderSpecs</text>
</a>
</g>
</g>
<!-- Node3&#45;&gt;Node2 -->
<g id="edge2" class="edge">
<title>Node3&#45;&gt;Node2</title>
<path fill="none" stroke="#9a32cd" stroke-dasharray="5,2" d="M888.44,-804.67C932.3,-803.57 996.89,-794.45 1033,-754 1075.79,-706.06 1078.08,-489.17 1078.05,-440.65"/>
<polygon fill="#9a32cd" stroke="#9a32cd" points="888.27,-801.17 878.32,-804.79 888.36,-808.17 888.27,-801.17"/>
<text text-anchor="middle" x="983" y="-803" font-family="Helvetica" font-size="10.00"> m_border</text>
</g>
<!-- Node4 -->
<g id="node4" class="node">
<title>Node4</title>
<g id="a_node4"><a xlink:href="classsciplot_1_1LineSpecsOf.html" target="_top" xlink:title=" ">
<polygon fill="white" stroke="black" points="532,-831.5 532,-850.5 679,-850.5 679,-831.5 532,-831.5"/>
<text text-anchor="middle" x="605.5" y="-838.5" font-family="Helvetica" font-size="10.00">LineSpecsOf&lt; BorderSpecs &gt;</text>
</a>
</g>
</g>
<!-- Node4&#45;&gt;Node3 -->
<g id="edge3" class="edge">
<title>Node4&#45;&gt;Node3</title>
<path fill="none" stroke="midnightblue" d="M675.24,-829.84C717.68,-822.95 770.39,-814.39 804.71,-808.81"/>
<polygon fill="midnightblue" stroke="midnightblue" points="674.56,-826.4 665.25,-831.46 675.68,-833.31 674.56,-826.4"/>
</g>
<!-- Node5 -->
<g id="node5" class="node">
<title>Node5</title>
<g id="a_node5"><a xlink:href="classsciplot_1_1Specs.html" target="_top" xlink:title=" ">
<polygon fill="white" stroke="black" points="183,-828.5 183,-847.5 302,-847.5 302,-828.5 183,-828.5"/>
<text text-anchor="middle" x="242.5" y="-835.5" font-family="Helvetica" font-size="10.00">Specs&lt; BorderSpecs &gt;</text>
</a>
</g>
</g>
<!-- Node5&#45;&gt;Node4 -->
<g id="edge4" class="edge">
<title>Node5&#45;&gt;Node4</title>
<path fill="none" stroke="midnightblue" d="M312.51,-838.57C375.32,-839.1 467.73,-839.86 531.7,-840.39"/>
<polygon fill="midnightblue" stroke="midnightblue" points="312.33,-835.07 302.3,-838.49 312.27,-842.07 312.33,-835.07"/>
</g>
<!-- Node6 -->
<g id="node6" class="node">
<title>Node6</title>
<g id="a_node6"><a xlink:href="classsciplot_1_1DepthSpecsOf.html" target="_top" xlink:title=" ">
<polygon fill="white" stroke="black" points="528,-793.5 528,-812.5 683,-812.5 683,-793.5 528,-793.5"/>
<text text-anchor="middle" x="605.5" y="-800.5" font-family="Helvetica" font-size="10.00">DepthSpecsOf&lt; BorderSpecs &gt;</text>
</a>
</g>
</g>
<!-- Node5&#45;&gt;Node6 -->
<g id="edge6" class="edge">
<title>Node5&#45;&gt;Node6</title>
<path fill="none" stroke="midnightblue" d="M312.31,-831.33C373.85,-825.36 463.94,-816.63 527.79,-810.44"/>
<polygon fill="midnightblue" stroke="midnightblue" points="311.92,-827.85 302.3,-832.3 312.6,-834.82 311.92,-827.85"/>
</g>
<!-- Node6&#45;&gt;Node3 -->
<g id="edge5" class="edge">
<title>Node6&#45;&gt;Node3</title>
<path fill="none" stroke="midnightblue" d="M693.33,-803C731.88,-803 775.11,-803 804.69,-803"/>
<polygon fill="midnightblue" stroke="midnightblue" points="693.12,-799.5 683.12,-803 693.12,-806.5 693.12,-799.5"/>
</g>
<!-- Node7 -->
<g id="node7" class="node">
<title>Node7</title>
<g id="a_node7"><a xlink:title=" ">
<polygon fill="white" stroke="#bfbfbf" points="768,-746.5 768,-765.5 915,-765.5 915,-746.5 768,-746.5"/>
<text text-anchor="middle" x="841.5" y="-753.5" font-family="Helvetica" font-size="10.00">vector&lt; sciplot::DrawSpecs &gt;</text>
</a>
</g>
</g>
<!-- Node7&#45;&gt;Node2 -->
<g id="edge7" class="edge">
<title>Node7&#45;&gt;Node2</title>
<path fill="none" stroke="#9a32cd" stroke-dasharray="5,2" d="M913.11,-744.55C960.41,-735.41 1016.86,-721.14 1033,-703 1068.71,-662.86 1076.4,-483.94 1077.75,-440.52"/>
<polygon fill="#9a32cd" stroke="#9a32cd" points="912.35,-741.14 903.17,-746.43 913.65,-748.01 912.35,-741.14"/>
<text text-anchor="middle" x="983" y="-742" font-family="Helvetica" font-size="10.00"> m_drawspecs</text>
</g>
<!-- Node8 -->
<g id="node8" class="node">
<title>Node8</title>
<g id="a_node8"><a xlink:href="classsciplot_1_1DrawSpecs.html" target="_top" xlink:title="The class where options for the plotted element can be specified.">
<polygon fill="white" stroke="black" points="571.5,-746.5 571.5,-765.5 639.5,-765.5 639.5,-746.5 571.5,-746.5"/>
<text text-anchor="middle" x="605.5" y="-753.5" font-family="Helvetica" font-size="10.00">DrawSpecs</text>
</a>
</g>
</g>
<!-- Node8&#45;&gt;Node7 -->
<g id="edge8" class="edge">
<title>Node8&#45;&gt;Node7</title>
<path fill="none" stroke="#9a32cd" stroke-dasharray="5,2" d="M649.75,-756C682.75,-756 728.97,-756 767.64,-756"/>
<polygon fill="#9a32cd" stroke="#9a32cd" points="649.53,-752.5 639.53,-756 649.53,-759.5 649.53,-752.5"/>
<text text-anchor="middle" x="728.5" y="-759" font-family="Helvetica" font-size="10.00"> elements</text>
</g>
<!-- Node9 -->
<g id="node9" class="node">
<title>Node9</title>
<g id="a_node9"><a xlink:href="classsciplot_1_1LineSpecsOf.html" target="_top" xlink:title=" ">
<polygon fill="white" stroke="red" points="171.5,-784.5 171.5,-803.5 313.5,-803.5 313.5,-784.5 171.5,-784.5"/>
<text text-anchor="middle" x="242.5" y="-791.5" font-family="Helvetica" font-size="10.00">LineSpecsOf&lt; DrawSpecs &gt;</text>
</a>
</g>
</g>
<!-- Node9&#45;&gt;Node8 -->
<g id="edge9" class="edge">
<title>Node9&#45;&gt;Node8</title>
<path fill="none" stroke="midnightblue" d="M323.61,-787.59C375.18,-783.22 443.62,-776.98 504,-770 526.4,-767.41 551.52,-763.91 571.05,-761.06"/>
<polygon fill="midnightblue" stroke="midnightblue" points="323.2,-784.11 313.52,-788.44 323.78,-791.09 323.2,-784.11"/>
</g>
<!-- Node11 -->
<g id="node10" class="node">
<title>Node11</title>
<g id="a_node10"><a xlink:href="classsciplot_1_1PointSpecsOf.html" target="_top" xlink:title=" ">
<polygon fill="white" stroke="red" points="169.5,-746.5 169.5,-765.5 315.5,-765.5 315.5,-746.5 169.5,-746.5"/>
<text text-anchor="middle" x="242.5" y="-753.5" font-family="Helvetica" font-size="10.00">PointSpecsOf&lt; DrawSpecs &gt;</text>
</a>
</g>
</g>
<!-- Node11&#45;&gt;Node8 -->
<g id="edge10" class="edge">
<title>Node11&#45;&gt;Node8</title>
<path fill="none" stroke="midnightblue" d="M325.94,-756C403.69,-756 516.3,-756 571.49,-756"/>
<polygon fill="midnightblue" stroke="midnightblue" points="325.69,-752.5 315.69,-756 325.69,-759.5 325.69,-752.5"/>
</g>
<!-- Node12 -->
<g id="node11" class="node">
<title>Node12</title>
<g id="a_node11"><a xlink:href="classsciplot_1_1FillSpecsOf.html" target="_top" xlink:title=" ">
<polygon fill="white" stroke="red" points="174,-708.5 174,-727.5 311,-727.5 311,-708.5 174,-708.5"/>
<text text-anchor="middle" x="242.5" y="-715.5" font-family="Helvetica" font-size="10.00">FillSpecsOf&lt; DrawSpecs &gt;</text>
</a>
</g>
</g>
<!-- Node12&#45;&gt;Node8 -->
<g id="edge11" class="edge">
<title>Node12&#45;&gt;Node8</title>
<path fill="none" stroke="midnightblue" d="M321.63,-726.22C399.3,-734.4 514.75,-746.55 571.11,-752.49"/>
<polygon fill="midnightblue" stroke="midnightblue" points="321.71,-722.71 311.4,-725.15 320.98,-729.68 321.71,-722.71"/>
</g>
<!-- Node13 -->
<g id="node12" class="node">
<title>Node13</title>
<g id="a_node12"><a xlink:href="classsciplot_1_1FilledCurvesSpecsOf.html" target="_top" xlink:title=" ">
<polygon fill="white" stroke="red" points="187.5,-659 187.5,-689 297.5,-689 297.5,-659 187.5,-659"/>
<text text-anchor="start" x="195.5" y="-677" font-family="Helvetica" font-size="10.00">FilledCurvesSpecsOf</text>
<text text-anchor="middle" x="242.5" y="-666" font-family="Helvetica" font-size="10.00">&lt; DrawSpecs &gt;</text>
</a>
</g>
</g>
<!-- Node13&#45;&gt;Node8 -->
<g id="edge12" class="edge">
<title>Node13&#45;&gt;Node8</title>
<path fill="none" stroke="midnightblue" d="M307.79,-679.47C361.8,-685.72 440.15,-698.7 504,-725 512.89,-728.66 513.17,-733.19 522,-737 537.52,-743.69 555.75,-748.21 571.11,-751.15"/>
<polygon fill="midnightblue" stroke="midnightblue" points="307.99,-675.97 297.67,-678.34 307.22,-682.93 307.99,-675.97"/>
</g>
<!-- Node14 -->
<g id="node13" class="node">
<title>Node14</title>
<g id="a_node13"><a xlink:href="classsciplot_1_1HistogramStyleSpecs.html" target="_top" xlink:title="The class used to specify histogram style options.">
<polygon fill="white" stroke="black" points="785.5,-708.5 785.5,-727.5 897.5,-727.5 897.5,-708.5 785.5,-708.5"/>
<text text-anchor="middle" x="841.5" y="-715.5" font-family="Helvetica" font-size="10.00">HistogramStyleSpecs</text>
</a>
</g>
</g>
<!-- Node14&#45;&gt;Node2 -->
<g id="edge13" class="edge">
<title>Node14&#45;&gt;Node2</title>
<path fill="none" stroke="#9a32cd" stroke-dasharray="5,2" d="M891.43,-705.44C935.82,-691.35 999.31,-663.94 1033,-616 1073.11,-558.94 1077.67,-470.26 1078.04,-440.85"/>
<polygon fill="#9a32cd" stroke="#9a32cd" points="890.25,-702.14 881.71,-708.41 892.29,-708.83 890.25,-702.14"/>
<text text-anchor="middle" x="983" y="-691" font-family="Helvetica" font-size="10.00"> m_style_histogram</text>
</g>
<!-- Node15 -->
<g id="node14" class="node">
<title>Node15</title>
<g id="a_node14"><a xlink:href="classsciplot_1_1Specs.html" target="_top" xlink:title=" ">
<polygon fill="white" stroke="black" points="526.5,-708.5 526.5,-727.5 684.5,-727.5 684.5,-708.5 526.5,-708.5"/>
<text text-anchor="middle" x="605.5" y="-715.5" font-family="Helvetica" font-size="10.00">Specs&lt; HistogramStyleSpecs &gt;</text>
</a>
</g>
</g>
<!-- Node15&#45;&gt;Node14 -->
<g id="edge14" class="edge">
<title>Node15&#45;&gt;Node14</title>
<path fill="none" stroke="midnightblue" d="M694.91,-718C725.25,-718 758.31,-718 785.25,-718"/>
<polygon fill="midnightblue" stroke="midnightblue" points="694.74,-714.5 684.74,-718 694.74,-721.5 694.74,-714.5"/>
</g>
<!-- Node16 -->
<g id="node15" class="node">
<title>Node16</title>
<g id="a_node15"><a xlink:title="STL class.">
<polygon fill="white" stroke="#bfbfbf" points="585,-592.5 585,-611.5 626,-611.5 626,-592.5 585,-592.5"/>
<text text-anchor="middle" x="605.5" y="-599.5" font-family="Helvetica" font-size="10.00">string</text>
</a>
</g>
</g>
<!-- Node16&#45;&gt;Node2 -->
<g id="edge15" class="edge">
<title>Node16&#45;&gt;Node2</title>
<path fill="none" stroke="#9a32cd" stroke-dasharray="5,2" d="M636.15,-603.01C727.75,-605.85 1001.91,-612.24 1033,-588 1056.93,-569.34 1072.3,-472.17 1076.7,-440.78"/>
<polygon fill="#9a32cd" stroke="#9a32cd" points="636.26,-599.51 626.16,-602.69 636.04,-606.51 636.26,-599.51"/>
<text text-anchor="middle" x="841.5" y="-685" font-family="Helvetica" font-size="10.00"> m_boxwidth</text>
<text text-anchor="middle" x="841.5" y="-674" font-family="Helvetica" font-size="10.00">m_data</text>
<text text-anchor="middle" x="841.5" y="-663" font-family="Helvetica" font-size="10.00">m_datafilename</text>
<text text-anchor="middle" x="841.5" y="-652" font-family="Helvetica" font-size="10.00">m_palette</text>
<text text-anchor="middle" x="841.5" y="-641" font-family="Helvetica" font-size="10.00">m_samples</text>
<text text-anchor="middle" x="841.5" y="-630" font-family="Helvetica" font-size="10.00">m_scriptfilename</text>
<text text-anchor="middle" x="841.5" y="-619" font-family="Helvetica" font-size="10.00">m_xrange</text>
<text text-anchor="middle" x="841.5" y="-608" font-family="Helvetica" font-size="10.00">m_yrange</text>
</g>
<!-- Node39 -->
<g id="node35" class="node">
<title>Node39</title>
<g id="a_node35"><a xlink:title=" ">
<polygon fill="white" stroke="#bfbfbf" points="789,-546.5 789,-565.5 894,-565.5 894,-546.5 789,-546.5"/>
<text text-anchor="middle" x="841.5" y="-553.5" font-family="Helvetica" font-size="10.00">vector&lt; std::string &gt;</text>
</a>
</g>
</g>
<!-- Node16&#45;&gt;Node39 -->
<g id="edge39" class="edge">
<title>Node16&#45;&gt;Node39</title>
<path fill="none" stroke="#9a32cd" stroke-dasharray="5,2" d="M635.77,-594C655.73,-588.72 682.84,-581.9 707,-577 733.9,-571.55 764.1,-566.69 788.96,-563.03"/>
<polygon fill="#9a32cd" stroke="#9a32cd" points="634.78,-590.64 626.03,-596.6 636.59,-597.4 634.78,-590.64"/>
<text text-anchor="middle" x="728.5" y="-580" font-family="Helvetica" font-size="10.00"> elements</text>
</g>
<!-- Node17 -->
<g id="node16" class="node">
<title>Node17</title>
<g id="a_node16"><a xlink:title="STL class.">
<polygon fill="white" stroke="#bfbfbf" points="189.5,-620.5 189.5,-639.5 295.5,-639.5 295.5,-620.5 189.5,-620.5"/>
<text text-anchor="middle" x="242.5" y="-627.5" font-family="Helvetica" font-size="10.00">basic_string&lt; char &gt;</text>
</a>
</g>
</g>
<!-- Node17&#45;&gt;Node16 -->
<g id="edge16" class="edge">
<title>Node17&#45;&gt;Node16</title>
<path fill="none" stroke="midnightblue" d="M305.72,-625.17C389.18,-618.7 532.89,-607.55 584.95,-603.52"/>
<polygon fill="midnightblue" stroke="midnightblue" points="305.31,-621.7 295.61,-625.96 305.85,-628.67 305.31,-621.7"/>
</g>
<!-- Node18 -->
<g id="node17" class="node">
<title>Node18</title>
<g id="a_node17"><a xlink:href="classsciplot_1_1TicsSpecsMinor.html" target="_top" xlink:title="The class used to specify options for minor tics of a specific axis.">
<polygon fill="white" stroke="black" points="798,-508.5 798,-527.5 885,-527.5 885,-508.5 798,-508.5"/>
<text text-anchor="middle" x="841.5" y="-515.5" font-family="Helvetica" font-size="10.00">TicsSpecsMinor</text>
</a>
</g>
</g>
<!-- Node18&#45;&gt;Node2 -->
<g id="edge17" class="edge">
<title>Node18&#45;&gt;Node2</title>
<path fill="none" stroke="#9a32cd" stroke-dasharray="5,2" d="M895.22,-506.13C901.98,-504.04 908.73,-501.67 915,-499 923.63,-495.33 924.32,-491.54 933,-488 975.23,-470.78 991.67,-484.28 1033,-465 1046.13,-458.87 1059.12,-448.47 1067.74,-440.78"/>
<polygon fill="#9a32cd" stroke="#9a32cd" points="894,-502.84 885.37,-508.98 895.94,-509.57 894,-502.84"/>
<text text-anchor="middle" x="983" y="-546" font-family="Helvetica" font-size="10.00"> m_rtics_minor</text>
<text text-anchor="middle" x="983" y="-535" font-family="Helvetica" font-size="10.00">m_xtics_minor_bottom</text>
<text text-anchor="middle" x="983" y="-524" font-family="Helvetica" font-size="10.00">m_xtics_minor_top</text>
<text text-anchor="middle" x="983" y="-513" font-family="Helvetica" font-size="10.00">m_ytics_minor_left</text>
<text text-anchor="middle" x="983" y="-502" font-family="Helvetica" font-size="10.00">m_ytics_minor_right</text>
<text text-anchor="middle" x="983" y="-491" font-family="Helvetica" font-size="10.00">m_ztics_minor</text>
</g>
<!-- Node19 -->
<g id="node18" class="node">
<title>Node19</title>
<g id="a_node18"><a xlink:href="classsciplot_1_1ShowSpecsOf.html" target="_top" xlink:title=" ">
<polygon fill="white" stroke="black" points="522,-544.5 522,-563.5 689,-563.5 689,-544.5 522,-544.5"/>
<text text-anchor="middle" x="605.5" y="-551.5" font-family="Helvetica" font-size="10.00">ShowSpecsOf&lt; TicsSpecsMinor &gt;</text>
</a>
</g>
</g>
<!-- Node19&#45;&gt;Node18 -->
<g id="edge18" class="edge">
<title>Node19&#45;&gt;Node18</title>
<path fill="none" stroke="midnightblue" d="M678.57,-542.91C717.69,-536.89 764.72,-529.66 797.99,-524.54"/>
<polygon fill="midnightblue" stroke="midnightblue" points="677.64,-539.51 668.29,-544.49 678.7,-546.43 677.64,-539.51"/>
</g>
<!-- Node20 -->
<g id="node19" class="node">
<title>Node20</title>
<g id="a_node19"><a xlink:href="classsciplot_1_1Specs.html" target="_top" xlink:title=" ">
<polygon fill="white" stroke="black" points="176.5,-582.5 176.5,-601.5 308.5,-601.5 308.5,-582.5 176.5,-582.5"/>
<text text-anchor="middle" x="242.5" y="-589.5" font-family="Helvetica" font-size="10.00">Specs&lt; TicsSpecsMinor &gt;</text>
</a>
</g>
</g>
<!-- Node20&#45;&gt;Node19 -->
<g id="edge19" class="edge">
<title>Node20&#45;&gt;Node19</title>
<path fill="none" stroke="midnightblue" d="M318.78,-586C370.86,-581.62 441.72,-575.2 504,-568 515.46,-566.67 527.64,-565.11 539.41,-563.52"/>
<polygon fill="midnightblue" stroke="midnightblue" points="318.3,-582.53 308.62,-586.85 318.88,-589.5 318.3,-582.53"/>
</g>
<!-- Node21 -->
<g id="node20" class="node">
<title>Node21</title>
<g id="a_node20"><a xlink:href="classsciplot_1_1AxisLabelSpecs.html" target="_top" xlink:title="The specifications for an axis label (e.g., xlabel, ylabel, etc.)">
<polygon fill="white" stroke="black" points="798,-470.5 798,-489.5 885,-489.5 885,-470.5 798,-470.5"/>
<text text-anchor="middle" x="841.5" y="-477.5" font-family="Helvetica" font-size="10.00">AxisLabelSpecs</text>
</a>
</g>
</g>
<!-- Node21&#45;&gt;Node2 -->
<g id="edge20" class="edge">
<title>Node21&#45;&gt;Node2</title>
<path fill="none" stroke="#9a32cd" stroke-dasharray="5,2" d="M894.93,-470.54C902.07,-467.86 909,-464.42 915,-460 926.92,-451.23 920.04,-439.13 933,-432 969.83,-411.73 1020.31,-417.48 1050.96,-423.93"/>
<polygon fill="#9a32cd" stroke="#9a32cd" points="893.54,-467.31 885.12,-473.74 895.71,-473.96 893.54,-467.31"/>
<text text-anchor="middle" x="983" y="-457" font-family="Helvetica" font-size="10.00"> m_rlabel</text>
<text text-anchor="middle" x="983" y="-446" font-family="Helvetica" font-size="10.00">m_xlabel</text>
<text text-anchor="middle" x="983" y="-435" font-family="Helvetica" font-size="10.00">m_ylabel</text>
</g>
<!-- Node22 -->
<g id="node21" class="node">
<title>Node22</title>
<g id="a_node21"><a xlink:href="classsciplot_1_1TextSpecsOf.html" target="_top" xlink:title=" ">
<polygon fill="white" stroke="black" points="525,-486.5 525,-505.5 686,-505.5 686,-486.5 525,-486.5"/>
<text text-anchor="middle" x="605.5" y="-493.5" font-family="Helvetica" font-size="10.00">TextSpecsOf&lt; AxisLabelSpecs &gt;</text>
</a>
</g>
</g>
<!-- Node22&#45;&gt;Node21 -->
<g id="edge21" class="edge">
<title>Node22&#45;&gt;Node21</title>
<path fill="none" stroke="midnightblue" d="M696.28,-489.86C731.22,-487.47 769.58,-484.85 797.95,-482.91"/>
<polygon fill="midnightblue" stroke="midnightblue" points="695.79,-486.39 686.05,-490.56 696.26,-493.37 695.79,-486.39"/>
</g>
<!-- Node23 -->
<g id="node22" class="node">
<title>Node23</title>
<g id="a_node22"><a xlink:href="classsciplot_1_1FontSpecsOf.html" target="_top" xlink:title=" ">
<polygon fill="white" stroke="red" points="161.5,-544.5 161.5,-563.5 323.5,-563.5 323.5,-544.5 161.5,-544.5"/>
<text text-anchor="middle" x="242.5" y="-551.5" font-family="Helvetica" font-size="10.00">FontSpecsOf&lt; AxisLabelSpecs &gt;</text>
</a>
</g>
</g>
<!-- Node23&#45;&gt;Node22 -->
<g id="edge22" class="edge">
<title>Node23&#45;&gt;Node22</title>
<path fill="none" stroke="midnightblue" d="M333.98,-550.88C384.45,-547.84 448.2,-541.84 504,-530 531.21,-524.23 561.28,-513.44 581.38,-505.55"/>
<polygon fill="midnightblue" stroke="midnightblue" points="333.53,-547.4 323.75,-551.46 333.93,-554.39 333.53,-547.4"/>
</g>
<!-- Node25 -->
<g id="node23" class="node">
<title>Node25</title>
<g id="a_node23"><a xlink:href="classsciplot_1_1TicsSpecs.html" target="_top" xlink:title="The class used to specify options for tics.">
<polygon fill="white" stroke="black" points="810,-431.5 810,-450.5 873,-450.5 873,-431.5 810,-431.5"/>
<text text-anchor="middle" x="841.5" y="-438.5" font-family="Helvetica" font-size="10.00">TicsSpecs</text>
</a>
</g>
</g>
<!-- Node25&#45;&gt;Node2 -->
<g id="edge23" class="edge">
<title>Node25&#45;&gt;Node2</title>
<path fill="none" stroke="#9a32cd" stroke-dasharray="5,2" d="M866.43,-426.01C884.08,-415.88 909.09,-403.39 933,-398 976.36,-388.22 990.76,-384.17 1033,-398 1047,-402.58 1060.24,-413.36 1068.68,-421.35"/>
<polygon fill="#9a32cd" stroke="#9a32cd" points="864.25,-423.23 857.43,-431.34 867.82,-429.25 864.25,-423.23"/>
<text text-anchor="middle" x="983" y="-401" font-family="Helvetica" font-size="10.00"> m_tics</text>
</g>
<!-- Node26 -->
<g id="node24" class="node">
<title>Node26</title>
<g id="a_node24"><a xlink:href="classsciplot_1_1TicsSpecsBaseOf.html" target="_top" xlink:title=" ">
<polygon fill="white" stroke="black" points="525.5,-443.5 525.5,-462.5 685.5,-462.5 685.5,-443.5 525.5,-443.5"/>
<text text-anchor="middle" x="605.5" y="-450.5" font-family="Helvetica" font-size="10.00">TicsSpecsBaseOf&lt; TicsSpecs &gt;</text>
</a>
</g>
</g>
<!-- Node26&#45;&gt;Node25 -->
<g id="edge24" class="edge">
<title>Node26&#45;&gt;Node25</title>
<path fill="none" stroke="midnightblue" d="M695.82,-448.42C735.99,-446.36 780.77,-444.06 809.72,-442.58"/>
<polygon fill="midnightblue" stroke="midnightblue" points="695.53,-444.93 685.72,-448.94 695.89,-451.92 695.53,-444.93"/>
</g>
<!-- Node27 -->
<g id="node25" class="node">
<title>Node27</title>
<g id="a_node25"><a xlink:href="classsciplot_1_1TextSpecsOf.html" target="_top" xlink:title=" ">
<polygon fill="white" stroke="red" points="174,-506.5 174,-525.5 311,-525.5 311,-506.5 174,-506.5"/>
<text text-anchor="middle" x="242.5" y="-513.5" font-family="Helvetica" font-size="10.00">TextSpecsOf&lt; TicsSpecs &gt;</text>
</a>
</g>
</g>
<!-- Node27&#45;&gt;Node26 -->
<g id="edge25" class="edge">
<title>Node27&#45;&gt;Node26</title>
<path fill="none" stroke="midnightblue" d="M321.2,-507.28C373.19,-500.87 443,-491.18 504,-479 526.62,-474.48 551.75,-467.98 571.22,-462.61"/>
<polygon fill="midnightblue" stroke="midnightblue" points="320.55,-503.83 311.05,-508.51 321.4,-510.78 320.55,-503.83"/>
</g>
<!-- Node30 -->
<g id="node26" class="node">
<title>Node30</title>
<g id="a_node26"><a xlink:href="classsciplot_1_1OffsetSpecsOf.html" target="_top" xlink:title=" ">
<polygon fill="white" stroke="red" points="170,-468.5 170,-487.5 315,-487.5 315,-468.5 170,-468.5"/>
<text text-anchor="middle" x="242.5" y="-475.5" font-family="Helvetica" font-size="10.00">OffsetSpecsOf&lt; TicsSpecs &gt;</text>
</a>
</g>
</g>
<!-- Node30&#45;&gt;Node26 -->
<g id="edge26" class="edge">
<title>Node30&#45;&gt;Node26</title>
<path fill="none" stroke="midnightblue" d="M325.14,-472.37C376.48,-468.83 444.11,-464.15 504,-460 510.89,-459.52 518.05,-459.02 525.23,-458.53"/>
<polygon fill="midnightblue" stroke="midnightblue" points="324.83,-468.88 315.09,-473.06 325.31,-475.87 324.83,-468.88"/>
</g>
<!-- Node31 -->
<g id="node27" class="node">
<title>Node31</title>
<g id="a_node27"><a xlink:href="classsciplot_1_1ShowSpecsOf.html" target="_top" xlink:title=" ">
<polygon fill="white" stroke="red" points="171,-430.5 171,-449.5 314,-449.5 314,-430.5 171,-430.5"/>
<text text-anchor="middle" x="242.5" y="-437.5" font-family="Helvetica" font-size="10.00">ShowSpecsOf&lt; TicsSpecs &gt;</text>
</a>
</g>
</g>
<!-- Node31&#45;&gt;Node26 -->
<g id="edge27" class="edge">
<title>Node31&#45;&gt;Node26</title>
<path fill="none" stroke="midnightblue" d="M324.58,-442.92C384.54,-445.08 465.78,-448 525.3,-450.15"/>
<polygon fill="midnightblue" stroke="midnightblue" points="324.51,-439.42 314.39,-442.55 324.26,-446.41 324.51,-439.42"/>
</g>
<!-- Node32 -->
<g id="node28" class="node">
<title>Node32</title>
<g id="a_node28"><a xlink:href="classsciplot_1_1LegendSpecs.html" target="_top" xlink:title="The class used to specify options for legend.">
<polygon fill="white" stroke="black" points="803.5,-353.5 803.5,-372.5 879.5,-372.5 879.5,-353.5 803.5,-353.5"/>
<text text-anchor="middle" x="841.5" y="-360.5" font-family="Helvetica" font-size="10.00">LegendSpecs</text>
</a>
</g>
</g>
<!-- Node32&#45;&gt;Node2 -->
<g id="edge28" class="edge">
<title>Node32&#45;&gt;Node2</title>
<path fill="none" stroke="#9a32cd" stroke-dasharray="5,2" d="M889.7,-355.4C930.07,-351.22 988.54,-350.85 1033,-374 1052.91,-384.37 1066.89,-407.87 1073.56,-421.24"/>
<polygon fill="#9a32cd" stroke="#9a32cd" points="889.12,-351.94 879.59,-356.57 889.92,-358.9 889.12,-351.94"/>
<text text-anchor="middle" x="983" y="-377" font-family="Helvetica" font-size="10.00"> m_legend</text>
</g>
<!-- Node33 -->
<g id="node29" class="node">
<title>Node33</title>
<g id="a_node29"><a xlink:href="classsciplot_1_1TextSpecsOf.html" target="_top" xlink:title=" ">
<polygon fill="white" stroke="black" points="530,-392.5 530,-411.5 681,-411.5 681,-392.5 530,-392.5"/>
<text text-anchor="middle" x="605.5" y="-399.5" font-family="Helvetica" font-size="10.00">TextSpecsOf&lt; LegendSpecs &gt;</text>
</a>
</g>
</g>
<!-- Node33&#45;&gt;Node32 -->
<g id="edge29" class="edge">
<title>Node33&#45;&gt;Node32</title>
<path fill="none" stroke="midnightblue" d="M673.65,-390.81C715.74,-383.79 768.41,-375.01 803.19,-369.22"/>
<polygon fill="midnightblue" stroke="midnightblue" points="673.03,-387.36 663.74,-392.46 674.18,-394.27 673.03,-387.36"/>
</g>
<!-- Node34 -->
<g id="node30" class="node">
<title>Node34</title>
<g id="a_node30"><a xlink:href="classsciplot_1_1FontSpecsOf.html" target="_top" xlink:title=" ">
<polygon fill="white" stroke="black" points="166.5,-392.5 166.5,-411.5 318.5,-411.5 318.5,-392.5 166.5,-392.5"/>
<text text-anchor="middle" x="242.5" y="-399.5" font-family="Helvetica" font-size="10.00">FontSpecsOf&lt; LegendSpecs &gt;</text>
</a>
</g>
</g>
<!-- Node34&#45;&gt;Node33 -->
<g id="edge30" class="edge">
<title>Node34&#45;&gt;Node33</title>
<path fill="none" stroke="midnightblue" d="M328.75,-402C389.88,-402 471.44,-402 529.98,-402"/>
<polygon fill="midnightblue" stroke="midnightblue" points="328.74,-398.5 318.74,-402 328.74,-405.5 328.74,-398.5"/>
</g>
<!-- Node35 -->
<g id="node31" class="node">
<title>Node35</title>
<g id="a_node31"><a xlink:href="classsciplot_1_1Specs.html" target="_top" xlink:title=" ">
<polygon fill="white" stroke="black" points="0,-335.5 0,-354.5 122,-354.5 122,-335.5 0,-335.5"/>
<text text-anchor="middle" x="61" y="-342.5" font-family="Helvetica" font-size="10.00">Specs&lt; LegendSpecs &gt;</text>
</a>
</g>
</g>
<!-- Node35&#45;&gt;Node34 -->
<g id="edge31" class="edge">
<title>Node35&#45;&gt;Node34</title>
<path fill="none" stroke="midnightblue" d="M91.55,-358.89C105.95,-365.3 123.65,-372.65 140,-378 157.3,-383.66 176.65,-388.57 193.79,-392.46"/>
<polygon fill="midnightblue" stroke="midnightblue" points="92.72,-355.58 82.17,-354.64 89.84,-361.95 92.72,-355.58"/>
</g>
<!-- Node36 -->
<g id="node32" class="node">
<title>Node36</title>
<g id="a_node32"><a xlink:href="classsciplot_1_1ShowSpecsOf.html" target="_top" xlink:title=" ">
<polygon fill="white" stroke="black" points="345.5,-354.5 345.5,-373.5 502.5,-373.5 502.5,-354.5 345.5,-354.5"/>
<text text-anchor="middle" x="424" y="-361.5" font-family="Helvetica" font-size="10.00">ShowSpecsOf&lt; LegendSpecs &gt;</text>
</a>
</g>
</g>
<!-- Node35&#45;&gt;Node36 -->
<g id="edge33" class="edge">
<title>Node35&#45;&gt;Node36</title>
<path fill="none" stroke="midnightblue" d="M132.34,-348.7C193.48,-351.92 281.93,-356.58 345.17,-359.9"/>
<polygon fill="midnightblue" stroke="midnightblue" points="132.19,-345.19 122.02,-348.16 131.82,-352.18 132.19,-345.19"/>
</g>
<!-- Node37 -->
<g id="node33" class="node">
<title>Node37</title>
<g id="a_node33"><a xlink:href="classsciplot_1_1TitleSpecsOf.html" target="_top" xlink:title=" ">
<polygon fill="white" stroke="black" points="348.5,-316.5 348.5,-335.5 499.5,-335.5 499.5,-316.5 348.5,-316.5"/>
<text text-anchor="middle" x="424" y="-323.5" font-family="Helvetica" font-size="10.00">TitleSpecsOf&lt; LegendSpecs &gt;</text>
</a>
</g>
</g>
<!-- Node35&#45;&gt;Node37 -->
<g id="edge35" class="edge">
<title>Node35&#45;&gt;Node37</title>
<path fill="none" stroke="midnightblue" d="M132.13,-341.31C194.34,-338.03 284.93,-333.27 348.44,-329.92"/>
<polygon fill="midnightblue" stroke="midnightblue" points="131.82,-337.82 122.02,-341.84 132.19,-344.81 131.82,-337.82"/>
</g>
<!-- Node38 -->
<g id="node34" class="node">
<title>Node38</title>
<g id="a_node34"><a xlink:href="classsciplot_1_1FrameSpecsOf.html" target="_top" xlink:title=" ">
<polygon fill="white" stroke="black" points="344,-278.5 344,-297.5 504,-297.5 504,-278.5 344,-278.5"/>
<text text-anchor="middle" x="424" y="-285.5" font-family="Helvetica" font-size="10.00">FrameSpecsOf&lt; LegendSpecs &gt;</text>
</a>
</g>
</g>
<!-- Node35&#45;&gt;Node38 -->
<g id="edge37" class="edge">
<title>Node35&#45;&gt;Node38</title>
<path fill="none" stroke="midnightblue" d="M121.14,-333.67C133.63,-331.37 146.74,-329.04 159,-327 224.92,-316.02 300.38,-305.03 353.69,-297.53"/>
<polygon fill="midnightblue" stroke="midnightblue" points="120.48,-330.23 111.28,-335.49 121.75,-337.11 120.48,-330.23"/>
</g>
<!-- Node36&#45;&gt;Node32 -->
<g id="edge32" class="edge">
<title>Node36&#45;&gt;Node32</title>
<path fill="none" stroke="midnightblue" d="M512.86,-363.79C602.83,-363.57 738.41,-363.25 803.31,-363.09"/>
<polygon fill="midnightblue" stroke="midnightblue" points="512.66,-360.29 502.66,-363.81 512.67,-367.29 512.66,-360.29"/>
</g>
<!-- Node37&#45;&gt;Node32 -->
<g id="edge34" class="edge">
<title>Node37&#45;&gt;Node32</title>
<path fill="none" stroke="midnightblue" d="M509.94,-333.56C599.86,-341.57 737.67,-353.84 803.28,-359.69"/>
<polygon fill="midnightblue" stroke="midnightblue" points="510.03,-330.06 499.76,-332.66 509.41,-337.03 510.03,-330.06"/>
</g>
<!-- Node38&#45;&gt;Node32 -->
<g id="edge36" class="edge">
<title>Node38&#45;&gt;Node32</title>
<path fill="none" stroke="midnightblue" d="M501.6,-299.01C554.4,-306.89 626.12,-318.16 689,-330 728.15,-337.37 772.67,-347.25 803.26,-354.27"/>
<polygon fill="midnightblue" stroke="midnightblue" points="502.04,-295.54 491.64,-297.53 501.01,-302.46 502.04,-295.54"/>
</g>
<!-- Node39&#45;&gt;Node2 -->
<g id="edge38" class="edge">
<title>Node39&#45;&gt;Node2</title>
<path fill="none" stroke="#9a32cd" stroke-dasharray="5,2" d="M883.25,-567.96C924.84,-577.54 989.33,-584.86 1033,-554 1070.88,-527.23 1076.96,-465.02 1077.87,-440.85"/>
<polygon fill="#9a32cd" stroke="#9a32cd" points="884,-564.54 873.45,-565.56 882.33,-571.34 884,-564.54"/>
<text text-anchor="middle" x="983" y="-579" font-family="Helvetica" font-size="10.00"> m_customcmds</text>
</g>
<!-- Node40 -->
<g id="node36" class="node">
<title>Node40</title>
<g id="a_node36"><a xlink:href="classsciplot_1_1FillStyleSpecs.html" target="_top" xlink:title="The class used to attach color or pattern fill options to a type.">
<polygon fill="white" stroke="black" points="801.5,-291.5 801.5,-310.5 881.5,-310.5 881.5,-291.5 801.5,-291.5"/>
<text text-anchor="middle" x="841.5" y="-298.5" font-family="Helvetica" font-size="10.00">FillStyleSpecs</text>
</a>
</g>
</g>
<!-- Node40&#45;&gt;Node2 -->
<g id="edge40" class="edge">
<title>Node40&#45;&gt;Node2</title>
<path fill="none" stroke="#9a32cd" stroke-dasharray="5,2" d="M891.96,-305.57C940.85,-310.96 1011.38,-321.36 1033,-338 1060.72,-359.33 1072.32,-402.13 1076.27,-421.31"/>
<polygon fill="#9a32cd" stroke="#9a32cd" points="892.2,-302.08 881.89,-304.5 891.46,-309.04 892.2,-302.08"/>
<text text-anchor="middle" x="983" y="-341" font-family="Helvetica" font-size="10.00"> m_style_fill</text>
</g>
<!-- Node41 -->
<g id="node37" class="node">
<title>Node41</title>
<g id="a_node37"><a xlink:href="classsciplot_1_1Specs.html" target="_top" xlink:title=" ">
<polygon fill="white" stroke="black" points="543,-240.5 543,-259.5 668,-259.5 668,-240.5 543,-240.5"/>
<text text-anchor="middle" x="605.5" y="-247.5" font-family="Helvetica" font-size="10.00">Specs&lt; FillStyleSpecs &gt;</text>
</a>
</g>
</g>
<!-- Node41&#45;&gt;Node40 -->
<g id="edge41" class="edge">
<title>Node41&#45;&gt;Node40</title>
<path fill="none" stroke="midnightblue" d="M678.32,-260.22C701.34,-263.97 726.85,-268.63 750,-274 770.92,-278.85 794.13,-285.81 811.81,-291.44"/>
<polygon fill="midnightblue" stroke="midnightblue" points="678.71,-256.73 668.28,-258.61 677.6,-263.65 678.71,-256.73"/>
</g>
<!-- Node42 -->
<g id="node38" class="node">
<title>Node42</title>
<g id="a_node38"><a xlink:href="classsciplot_1_1TicsSpecsMajor.html" target="_top" xlink:title="The class used to specify options for major tics of a specific axis.">
<polygon fill="white" stroke="black" points="798,-218.5 798,-237.5 885,-237.5 885,-218.5 798,-218.5"/>
<text text-anchor="middle" x="841.5" y="-225.5" font-family="Helvetica" font-size="10.00">TicsSpecsMajor</text>
</a>
</g>
</g>
<!-- Node42&#45;&gt;Node2 -->
<g id="edge42" class="edge">
<title>Node42&#45;&gt;Node2</title>
<path fill="none" stroke="#9a32cd" stroke-dasharray="5,2" d="M895.43,-224.84C944.53,-223.07 1012.93,-223.99 1033,-241 1061.18,-264.89 1074,-385.87 1077.18,-421.26"/>
<polygon fill="#9a32cd" stroke="#9a32cd" points="895.12,-221.34 885.27,-225.25 895.41,-228.34 895.12,-221.34"/>
<text text-anchor="middle" x="983" y="-299" font-family="Helvetica" font-size="10.00"> m_rtics_major</text>
<text text-anchor="middle" x="983" y="-288" font-family="Helvetica" font-size="10.00">m_xtics_major_bottom</text>
<text text-anchor="middle" x="983" y="-277" font-family="Helvetica" font-size="10.00">m_xtics_major_top</text>
<text text-anchor="middle" x="983" y="-266" font-family="Helvetica" font-size="10.00">m_ytics_major_left</text>
<text text-anchor="middle" x="983" y="-255" font-family="Helvetica" font-size="10.00">m_ytics_major_right</text>
<text text-anchor="middle" x="983" y="-244" font-family="Helvetica" font-size="10.00">m_ztics_major</text>
</g>
<!-- Node43 -->
<g id="node39" class="node">
<title>Node43</title>
<g id="a_node39"><a xlink:href="classsciplot_1_1TicsSpecsBaseOf.html" target="_top" xlink:title=" ">
<polygon fill="white" stroke="black" points="530,-191 530,-221 681,-221 681,-191 530,-191"/>
<text text-anchor="start" x="538" y="-209" font-family="Helvetica" font-size="10.00">TicsSpecsBaseOf&lt; TicsSpecs</text>
<text text-anchor="middle" x="605.5" y="-198" font-family="Helvetica" font-size="10.00">Major &gt;</text>
</a>
</g>
</g>
<!-- Node43&#45;&gt;Node42 -->
<g id="edge43" class="edge">
<title>Node43&#45;&gt;Node42</title>
<path fill="none" stroke="midnightblue" d="M691.26,-213.97C727.44,-217.37 768.09,-221.19 797.82,-223.99"/>
<polygon fill="midnightblue" stroke="midnightblue" points="691.47,-210.47 681.18,-213.02 690.81,-217.44 691.47,-210.47"/>
</g>
<!-- Node44 -->
<g id="node40" class="node">
<title>Node44</title>
<g id="a_node40"><a xlink:href="classsciplot_1_1TextSpecsOf.html" target="_top" xlink:title=" ">
<polygon fill="white" stroke="red" points="162,-240.5 162,-259.5 323,-259.5 323,-240.5 162,-240.5"/>
<text text-anchor="middle" x="242.5" y="-247.5" font-family="Helvetica" font-size="10.00">TextSpecsOf&lt; TicsSpecsMajor &gt;</text>
</a>
</g>
</g>
<!-- Node44&#45;&gt;Node43 -->
<g id="edge44" class="edge">
<title>Node44&#45;&gt;Node43</title>
<path fill="none" stroke="midnightblue" d="M333.26,-240.19C383.51,-234.57 447.28,-227.22 504,-220 512.39,-218.93 521.16,-217.77 529.89,-216.59"/>
<polygon fill="midnightblue" stroke="midnightblue" points="332.63,-236.74 323.08,-241.33 333.41,-243.7 332.63,-236.74"/>
</g>
<!-- Node47 -->
<g id="node41" class="node">
<title>Node47</title>
<g id="a_node41"><a xlink:href="classsciplot_1_1OffsetSpecsOf.html" target="_top" xlink:title=" ">
<polygon fill="white" stroke="red" points="174.5,-191 174.5,-221 310.5,-221 310.5,-191 174.5,-191"/>
<text text-anchor="start" x="182.5" y="-209" font-family="Helvetica" font-size="10.00">OffsetSpecsOf&lt; TicsSpecs</text>
<text text-anchor="middle" x="242.5" y="-198" font-family="Helvetica" font-size="10.00">Major &gt;</text>
</a>
</g>
</g>
<!-- Node47&#45;&gt;Node43 -->
<g id="edge45" class="edge">
<title>Node47&#45;&gt;Node43</title>
<path fill="none" stroke="midnightblue" d="M320.64,-206C382.41,-206 468.56,-206 529.71,-206"/>
<polygon fill="midnightblue" stroke="midnightblue" points="320.56,-202.5 310.56,-206 320.56,-209.5 320.56,-202.5"/>
</g>
<!-- Node48 -->
<g id="node42" class="node">
<title>Node48</title>
<g id="a_node42"><a xlink:href="classsciplot_1_1ShowSpecsOf.html" target="_top" xlink:title=" ">
<polygon fill="white" stroke="red" points="159,-152.5 159,-171.5 326,-171.5 326,-152.5 159,-152.5"/>
<text text-anchor="middle" x="242.5" y="-159.5" font-family="Helvetica" font-size="10.00">ShowSpecsOf&lt; TicsSpecsMajor &gt;</text>
</a>
</g>
</g>
<!-- Node48&#45;&gt;Node43 -->
<g id="edge46" class="edge">
<title>Node48&#45;&gt;Node43</title>
<path fill="none" stroke="midnightblue" d="M331.78,-172.76C392.47,-180.16 472.16,-189.87 529.72,-196.89"/>
<polygon fill="midnightblue" stroke="midnightblue" points="332.18,-169.28 321.83,-171.55 331.33,-176.23 332.18,-169.28"/>
</g>
<!-- Node49 -->
<g id="node43" class="node">
<title>Node49</title>
<g id="a_node43"><a xlink:href="classsciplot_1_1GridSpecs.html" target="_top" xlink:title="The class used to specify options for grid.">
<polygon fill="white" stroke="black" points="810.5,-180.5 810.5,-199.5 872.5,-199.5 872.5,-180.5 810.5,-180.5"/>
<text text-anchor="middle" x="841.5" y="-187.5" font-family="Helvetica" font-size="10.00">GridSpecs</text>
</a>
</g>
</g>
<!-- Node49&#45;&gt;Node2 -->
<g id="edge47" class="edge">
<title>Node49&#45;&gt;Node2</title>
<path fill="none" stroke="#9a32cd" stroke-dasharray="5,2" d="M882.71,-188.62C932.01,-187.82 1011.65,-189.7 1033,-209 1065.23,-238.14 1075.35,-382.42 1077.51,-421.32"/>
<polygon fill="#9a32cd" stroke="#9a32cd" points="882.61,-185.12 872.68,-188.83 882.75,-192.12 882.61,-185.12"/>
<text text-anchor="middle" x="983" y="-212" font-family="Helvetica" font-size="10.00"> m_grid</text>
</g>
<!-- Node50 -->
<g id="node44" class="node">
<title>Node50</title>
<g id="a_node44"><a xlink:href="classsciplot_1_1GridSpecsBase.html" target="_top" xlink:title="The class used to specify options for grid lines along axis tics (major or minor).">
<polygon fill="white" stroke="black" points="563,-95.5 563,-114.5 648,-114.5 648,-95.5 563,-95.5"/>
<text text-anchor="middle" x="605.5" y="-102.5" font-family="Helvetica" font-size="10.00">GridSpecsBase</text>
</a>
</g>
</g>
<!-- Node50&#45;&gt;Node49 -->
<g id="edge48" class="edge">
<title>Node50&#45;&gt;Node49</title>
<path fill="none" stroke="midnightblue" d="M642.45,-118.06C689.87,-135.28 772.2,-165.19 814.21,-180.45"/>
<polygon fill="midnightblue" stroke="midnightblue" points="643.48,-114.71 632.89,-114.59 641.09,-121.29 643.48,-114.71"/>
</g>
<!-- Node51 -->
<g id="node45" class="node">
<title>Node51</title>
<g id="a_node45"><a xlink:href="classsciplot_1_1LineSpecsOf.html" target="_top" xlink:title=" ">
<polygon fill="white" stroke="red" points="163,-114.5 163,-133.5 322,-133.5 322,-114.5 163,-114.5"/>
<text text-anchor="middle" x="242.5" y="-121.5" font-family="Helvetica" font-size="10.00">LineSpecsOf&lt; GridSpecsBase &gt;</text>
</a>
</g>
</g>
<!-- Node51&#45;&gt;Node50 -->
<g id="edge49" class="edge">
<title>Node51&#45;&gt;Node50</title>
<path fill="none" stroke="midnightblue" d="M332.46,-119.32C405.94,-115.45 506.96,-110.13 562.93,-107.19"/>
<polygon fill="midnightblue" stroke="midnightblue" points="332.08,-115.83 322.28,-119.85 332.45,-122.82 332.08,-115.83"/>
</g>
<!-- Node53 -->
<g id="node46" class="node">
<title>Node53</title>
<g id="a_node46"><a xlink:href="classsciplot_1_1DepthSpecsOf.html" target="_top" xlink:title=" ">
<polygon fill="white" stroke="red" points="159,-76.5 159,-95.5 326,-95.5 326,-76.5 159,-76.5"/>
<text text-anchor="middle" x="242.5" y="-83.5" font-family="Helvetica" font-size="10.00">DepthSpecsOf&lt; GridSpecsBase &gt;</text>
</a>
</g>
</g>
<!-- Node53&#45;&gt;Node50 -->
<g id="edge50" class="edge">
<title>Node53&#45;&gt;Node50</title>
<path fill="none" stroke="midnightblue" d="M336.46,-90.89C409.57,-94.74 507.96,-99.92 562.92,-102.81"/>
<polygon fill="midnightblue" stroke="midnightblue" points="336.49,-87.39 326.32,-90.36 336.12,-94.38 336.49,-87.39"/>
</g>
<!-- Node54 -->
<g id="node47" class="node">
<title>Node54</title>
<g id="a_node47"><a xlink:href="classsciplot_1_1ShowSpecsOf.html" target="_top" xlink:title=" ">
<polygon fill="white" stroke="red" points="159.5,-38.5 159.5,-57.5 325.5,-57.5 325.5,-38.5 159.5,-38.5"/>
<text text-anchor="middle" x="242.5" y="-45.5" font-family="Helvetica" font-size="10.00">ShowSpecsOf&lt; GridSpecsBase &gt;</text>
</a>
</g>
</g>
<!-- Node54&#45;&gt;Node50 -->
<g id="edge51" class="edge">
<title>Node54&#45;&gt;Node50</title>
<path fill="none" stroke="midnightblue" d="M320.91,-59C372.77,-66.51 442.55,-76.9 504,-87 523.41,-90.19 544.89,-94 562.98,-97.29"/>
<polygon fill="midnightblue" stroke="midnightblue" points="321.18,-55.5 310.78,-57.53 320.18,-62.43 321.18,-55.5"/>
</g>
<!-- Node55 -->
<g id="node48" class="node">
<title>Node55</title>
<g id="a_node48"><a xlink:href="classsciplot_1_1FontSpecs.html" target="_top" xlink:title="The class used to specify font options.">
<polygon fill="white" stroke="black" points="809.5,-123.5 809.5,-142.5 873.5,-142.5 873.5,-123.5 809.5,-123.5"/>
<text text-anchor="middle" x="841.5" y="-130.5" font-family="Helvetica" font-size="10.00">FontSpecs</text>
</a>
</g>
</g>
<!-- Node55&#45;&gt;Node2 -->
<g id="edge52" class="edge">
<title>Node55&#45;&gt;Node2</title>
<path fill="none" stroke="#9a32cd" stroke-dasharray="5,2" d="M883.74,-129.59C927.19,-128.44 994.54,-134.02 1033,-174 1068.09,-210.48 1076.21,-379.15 1077.71,-421.39"/>
<polygon fill="#9a32cd" stroke="#9a32cd" points="883.36,-126.1 873.51,-129.99 883.64,-133.09 883.36,-126.1"/>
<text text-anchor="middle" x="983" y="-177" font-family="Helvetica" font-size="10.00"> m_font</text>
</g>
<!-- Node56 -->
<g id="node49" class="node">
<title>Node56</title>
<g id="a_node49"><a xlink:href="classsciplot_1_1FontSpecsOf.html" target="_top" xlink:title=" ">
<polygon fill="white" stroke="black" points="535.5,-19.5 535.5,-38.5 675.5,-38.5 675.5,-19.5 535.5,-19.5"/>
<text text-anchor="middle" x="605.5" y="-26.5" font-family="Helvetica" font-size="10.00">FontSpecsOf&lt; FontSpecs &gt;</text>
</a>
</g>
</g>
<!-- Node56&#45;&gt;Node55 -->
<g id="edge53" class="edge">
<title>Node56&#45;&gt;Node55</title>
<path fill="none" stroke="midnightblue" d="M637.4,-42.73C685.55,-64.13 777.29,-104.91 818.96,-123.43"/>
<polygon fill="midnightblue" stroke="midnightblue" points="638.65,-39.46 628.09,-38.6 635.81,-45.86 638.65,-39.46"/>
</g>
<!-- Node57 -->
<g id="node50" class="node">
<title>Node57</title>
<g id="a_node50"><a xlink:href="classsciplot_1_1Specs.html" target="_top" xlink:title=" ">
<polygon fill="white" stroke="black" points="187.5,-0.5 187.5,-19.5 297.5,-19.5 297.5,-0.5 187.5,-0.5"/>
<text text-anchor="middle" x="242.5" y="-7.5" font-family="Helvetica" font-size="10.00">Specs&lt; FontSpecs &gt;</text>
</a>
</g>
</g>
<!-- Node57&#45;&gt;Node56 -->
<g id="edge54" class="edge">
<title>Node57&#45;&gt;Node56</title>
<path fill="none" stroke="midnightblue" d="M307.9,-13.39C371.86,-16.76 469.61,-21.9 535.23,-25.35"/>
<polygon fill="midnightblue" stroke="midnightblue" points="307.72,-9.88 297.55,-12.84 307.35,-16.87 307.72,-9.88"/>
</g>
</g>
</svg>
        <g id="navigator" transform="translate(0 0)" fill="#404254">
                <rect fill="#f2f5e9" fill-opacity="0.5" stroke="#606060" stroke-width=".5" x="0" y="0" width="60" height="60"/>
                <use id="zoomplus" xlink:href="#zoomPlus" x="17" y="9" onmousedown="handleZoom(evt,'in')"/>
                <use id="zoomminus" xlink:href="#zoomMin" x="42" y="9" onmousedown="handleZoom(evt,'out')"/>
                <use id="reset" xlink:href="#resetDef" x="30" y="36" onmousedown="handleReset()"/>
                <g id="arrowUp" xlink:href="#dirArrow" transform="translate(30 24)" onmousedown="handlePan(0,-1)">
                  <use xlink:href="#rim" fill="#404040">
                        <set attributeName="fill" to="#808080" begin="arrowUp.mouseover" end="arrowUp.mouseout"/>
                  </use>
                  <path fill="none" stroke="white" stroke-width="1.5" d="M0,-3.0v7 M-2.5,-0.5L0,-3.0L2.5,-0.5"/>
                </g>
                <g id="arrowRight" xlink:href="#dirArrow" transform="rotate(90) translate(36 -43)" onmousedown="handlePan(1,0)">
                  <use xlink:href="#rim" fill="#404040">
                        <set attributeName="fill" to="#808080" begin="arrowRight.mouseover" end="arrowRight.mouseout"/>
                  </use>
                  <path fill="none" stroke="white" stroke-width="1.5" d="M0,-3.0v7 M-2.5,-0.5L0,-3.0L2.5,-0.5"/>
                </g>
                <g id="arrowDown" xlink:href="#dirArrow" transform="rotate(180) translate(-30 -48)" onmousedown="handlePan(0,1)">
                  <use xlink:href="#rim" fill="#404040">
                        <set attributeName="fill" to="#808080" begin="arrowDown.mouseover" end="arrowDown.mouseout"/>
                  </use>
                  <path fill="none" stroke="white" stroke-width="1.5" d="M0,-3.0v7 M-2.5,-0.5L0,-3.0L2.5,-0.5"/>
                </g>
                <g id="arrowLeft" xlink:href="#dirArrow" transform="rotate(270) translate(-36 17)" onmousedown="handlePan(-1,0)">
                  <use xlink:href="#rim" fill="#404040">
                        <set attributeName="fill" to="#808080" begin="arrowLeft.mouseover" end="arrowLeft.mouseout"/>
                  </use>
                  <path fill="none" stroke="white" stroke-width="1.5" d="M0,-3.0v7 M-2.5,-0.5L0,-3.0L2.5,-0.5"/>
                </g>
        </g>
        <svg viewBox="0 0 15 15" width="100%" height="30px" preserveAspectRatio="xMaxYMin meet">
         <g id="arrow_out" transform="scale(0.3 0.3)">
          <a xlink:href="classsciplot_1_1Plot3D__coll__graph_org.svg" target="_base">
           <rect id="button" ry="5" rx="5" y="6" x="6" height="38" width="38"
                fill="#f2f5e9" fill-opacity="0.5" stroke="#606060" stroke-width="1.0"/>
           <path id="arrow"
             d="M 11.500037,31.436501 C 11.940474,20.09759 22.043105,11.32322 32.158766,21.979434 L 37.068811,17.246167 C 37.068811,17.246167 37.088388,32 37.088388,32 L 22.160133,31.978069 C 22.160133,31.978069 26.997745,27.140456 26.997745,27.140456 C 18.528582,18.264221 13.291696,25.230495 11.500037,31.436501 z"
             style="fill:#404040;"/>
          </a>
         </g>
        </svg>
</svg>
