<?xml version="1.0" encoding="UTF-8" standalone="no"?>
<!DOCTYPE svg PUBLIC "-//W3C//DTD SVG 1.1//EN"
 "http://www.w3.org/Graphics/SVG/1.1/DTD/svg11.dtd">
<!-- Generated by graphviz version 7.0.6 (20230107.1202)
 -->
<!-- Title: GridSpecs Pages: 1 -->
<svg width="591pt" height="104pt"
 viewBox="0.00 0.00 591.00 104.00" xmlns="http://www.w3.org/2000/svg" xmlns:xlink="http://www.w3.org/1999/xlink">
<g id="graph0" class="graph" transform="scale(1 1) rotate(0) translate(4 100)">
<title>GridSpecs</title>
<polygon fill="white" stroke="none" points="-4,4 -4,-100 587,-100 587,4 -4,4"/>
<!-- Node1 -->
<g id="node1" class="node">
<title>Node1</title>
<g id="a_node1"><a xlink:title="The class used to specify options for grid.">
<polygon fill="#bfbfbf" stroke="black" points="518,-38.5 518,-57.5 583,-57.5 583,-38.5 518,-38.5"/>
<text text-anchor="middle" x="550.5" y="-45.5" font-family="Helvetica,sans-Serif" font-size="10.00">GridSpecs</text>
</a>
</g>
</g>
<!-- Node2 -->
<g id="node2" class="node">
<title>Node2</title>
<g id="a_node2"><a xlink:href="classsciplot_1_1GridSpecsBase.html" target="_top" xlink:title="The class used to specify options for grid lines along axis tics (major or minor).">
<polygon fill="white" stroke="black" points="393,-38.5 393,-57.5 482,-57.5 482,-38.5 393,-38.5"/>
<text text-anchor="middle" x="437.5" y="-45.5" font-family="Helvetica,sans-Serif" font-size="10.00">GridSpecsBase</text>
</a>
</g>
</g>
<!-- Node2&#45;&gt;Node1 -->
<g id="edge1" class="edge">
<title>Node2&#45;&gt;Node1</title>
<path fill="none" stroke="midnightblue" d="M493.02,-48C501.68,-48 510.36,-48 518.24,-48"/>
<polygon fill="midnightblue" stroke="midnightblue" points="493.25,-44.5 483.25,-48 493.25,-51.5 493.25,-44.5"/>
</g>
<!-- Node3 -->
<g id="node3" class="node">
<title>Node3</title>
<g id="a_node3"><a xlink:href="classsciplot_1_1LineSpecsOf.html" target="_top" xlink:title=" ">
<polygon fill="white" stroke="black" points="180.5,-76.5 180.5,-95.5 352.5,-95.5 352.5,-76.5 180.5,-76.5"/>
<text text-anchor="middle" x="266.5" y="-83.5" font-family="Helvetica,sans-Serif" font-size="10.00">LineSpecsOf&lt; GridSpecsBase &gt;</text>
</a>
</g>
</g>
<!-- Node3&#45;&gt;Node2 -->
<g id="edge2" class="edge">
<title>Node3&#45;&gt;Node2</title>
<path fill="none" stroke="midnightblue" d="M324.23,-74.18C335.12,-71.85 346.42,-69.39 357,-67 370.29,-64 384.79,-60.58 397.73,-57.47"/>
<polygon fill="midnightblue" stroke="midnightblue" points="323.61,-70.74 314.56,-76.24 325.07,-77.58 323.61,-70.74"/>
</g>
<!-- Node4 -->
<g id="node4" class="node">
<title>Node4</title>
<g id="a_node4"><a xlink:href="classsciplot_1_1Specs.html" target="_top" xlink:title=" ">
<polygon fill="white" stroke="black" points="0,-38.5 0,-57.5 140,-57.5 140,-38.5 0,-38.5"/>
<text text-anchor="middle" x="70" y="-45.5" font-family="Helvetica,sans-Serif" font-size="10.00">Specs&lt; GridSpecsBase &gt;</text>
</a>
</g>
</g>
<!-- Node4&#45;&gt;Node3 -->
<g id="edge3" class="edge">
<title>Node4&#45;&gt;Node3</title>
<path fill="none" stroke="midnightblue" d="M130.74,-59.67C158.49,-65.09 191.04,-71.45 217.2,-76.56"/>
<polygon fill="midnightblue" stroke="midnightblue" points="131.55,-56.26 121.06,-57.78 130.21,-63.13 131.55,-56.26"/>
</g>
<!-- Node5 -->
<g id="node5" class="node">
<title>Node5</title>
<g id="a_node5"><a xlink:href="classsciplot_1_1DepthSpecsOf.html" target="_top" xlink:title=" ">
<polygon fill="white" stroke="black" points="176,-38.5 176,-57.5 357,-57.5 357,-38.5 176,-38.5"/>
<text text-anchor="middle" x="266.5" y="-45.5" font-family="Helvetica,sans-Serif" font-size="10.00">DepthSpecsOf&lt; GridSpecsBase &gt;</text>
</a>
</g>
</g>
<!-- Node4&#45;&gt;Node5 -->
<g id="edge5" class="edge">
<title>Node4&#45;&gt;Node5</title>
<path fill="none" stroke="midnightblue" d="M151.35,-48C159.58,-48 167.98,-48 176.31,-48"/>
<polygon fill="midnightblue" stroke="midnightblue" points="151.36,-44.5 141.36,-48 151.36,-51.5 151.36,-44.5"/>
</g>
<!-- Node6 -->
<g id="node6" class="node">
<title>Node6</title>
<g id="a_node6"><a xlink:href="classsciplot_1_1ShowSpecsOf.html" target="_top" xlink:title=" ">
<polygon fill="white" stroke="black" points="177.5,-0.5 177.5,-19.5 355.5,-19.5 355.5,-0.5 177.5,-0.5"/>
<text text-anchor="middle" x="266.5" y="-7.5" font-family="Helvetica,sans-Serif" font-size="10.00">ShowSpecsOf&lt; GridSpecsBase &gt;</text>
</a>
</g>
</g>
<!-- Node4&#45;&gt;Node6 -->
<g id="edge7" class="edge">
<title>Node4&#45;&gt;Node6</title>
<path fill="none" stroke="midnightblue" d="M130.74,-36.33C158.49,-30.91 191.04,-24.55 217.2,-19.44"/>
<polygon fill="midnightblue" stroke="midnightblue" points="130.21,-32.87 121.06,-38.22 131.55,-39.74 130.21,-32.87"/>
</g>
<!-- Node5&#45;&gt;Node2 -->
<g id="edge4" class="edge">
<title>Node5&#45;&gt;Node2</title>
<path fill="none" stroke="midnightblue" d="M368.45,-48C377.13,-48 385.56,-48 393.36,-48"/>
<polygon fill="midnightblue" stroke="midnightblue" points="368.46,-44.5 358.46,-48 368.46,-51.5 368.46,-44.5"/>
</g>
<!-- Node6&#45;&gt;Node2 -->
<g id="edge6" class="edge">
<title>Node6&#45;&gt;Node2</title>
<path fill="none" stroke="midnightblue" d="M324.23,-21.82C335.12,-24.15 346.42,-26.61 357,-29 370.29,-32 384.79,-35.42 397.73,-38.53"/>
<polygon fill="midnightblue" stroke="midnightblue" points="325.07,-18.42 314.56,-19.76 323.61,-25.26 325.07,-18.42"/>
</g>
</g>
</svg>
