<?xml version="1.0" encoding="UTF-8" standalone="no"?>
<!DOCTYPE svg PUBLIC "-//W3C//DTD SVG 1.1//EN"
 "http://www.w3.org/Graphics/SVG/1.1/DTD/svg11.dtd">
<!-- Generated by graphviz version 2.47.0 (20210327.0129)
 -->
<!-- Title: DrawSpecs Pages: 1 -->
<svg width="403pt" height="154pt"
 viewBox="0.00 0.00 403.00 153.50" xmlns="http://www.w3.org/2000/svg" xmlns:xlink="http://www.w3.org/1999/xlink">
<g id="graph0" class="graph" transform="scale(1 1) rotate(0) translate(4 149.5)">
<title>DrawSpecs</title>
<polygon fill="white" stroke="transparent" points="-4,4 -4,-149.5 399,-149.5 399,4 -4,4"/>
<!-- Node1 -->
<g id="node1" class="node">
<title>Node1</title>
<g id="a_node1"><a xlink:title="The class where options for the plotted element can be specified.">
<polygon fill="#bfbfbf" stroke="black" points="329,-69 329,-88 395,-88 395,-69 329,-69"/>
<text text-anchor="middle" x="362" y="-76" font-family="Helvetica" font-size="10.00">DrawSpecs</text>
</a>
</g>
</g>
<!-- Node2 -->
<g id="node2" class="node">
<title>Node2</title>
<g id="a_node2"><a xlink:href="classsciplot_1_1LineSpecsOf.html" target="_top" xlink:title=" ">
<polygon fill="white" stroke="black" points="150.5,-126 150.5,-145 290.5,-145 290.5,-126 150.5,-126"/>
<text text-anchor="middle" x="220.5" y="-133" font-family="Helvetica" font-size="10.00">LineSpecsOf&lt; DrawSpecs &gt;</text>
</a>
</g>
</g>
<!-- Node2&#45;&gt;Node1 -->
<g id="edge1" class="edge">
<title>Node2&#45;&gt;Node1</title>
<path fill="none" stroke="midnightblue" d="M274.37,-123.06C280.72,-121.09 287.06,-118.9 293,-116.5 312.3,-108.68 332.99,-96.52 346.41,-88.07"/>
<polygon fill="midnightblue" stroke="midnightblue" points="273.04,-119.8 264.42,-125.96 275,-126.52 273.04,-119.8"/>
</g>
<!-- Node3 -->
<g id="node3" class="node">
<title>Node3</title>
<g id="a_node3"><a xlink:href="classsciplot_1_1Specs.html" target="_top" xlink:title=" ">
<polygon fill="white" stroke="black" points="0,-69 0,-88 112,-88 112,-69 0,-69"/>
<text text-anchor="middle" x="56" y="-76" font-family="Helvetica" font-size="10.00">Specs&lt; DrawSpecs &gt;</text>
</a>
</g>
</g>
<!-- Node3&#45;&gt;Node2 -->
<g id="edge2" class="edge">
<title>Node3&#45;&gt;Node2</title>
<path fill="none" stroke="midnightblue" d="M86.84,-92.17C104.41,-99.91 127.21,-109.43 148,-116.5 158.21,-119.97 169.42,-123.21 179.88,-126"/>
<polygon fill="midnightblue" stroke="midnightblue" points="88.21,-88.95 77.65,-88.07 85.36,-95.34 88.21,-88.95"/>
</g>
<!-- Node4 -->
<g id="node4" class="node">
<title>Node4</title>
<g id="a_node4"><a xlink:href="classsciplot_1_1PointSpecsOf.html" target="_top" xlink:title=" ">
<polygon fill="white" stroke="black" points="148,-88 148,-107 293,-107 293,-88 148,-88"/>
<text text-anchor="middle" x="220.5" y="-95" font-family="Helvetica" font-size="10.00">PointSpecsOf&lt; DrawSpecs &gt;</text>
</a>
</g>
</g>
<!-- Node3&#45;&gt;Node4 -->
<g id="edge4" class="edge">
<title>Node3&#45;&gt;Node4</title>
<path fill="none" stroke="midnightblue" d="M122.17,-86.12C130.61,-87.11 139.29,-88.12 147.83,-89.12"/>
<polygon fill="midnightblue" stroke="midnightblue" points="122.35,-82.62 112.02,-84.93 121.54,-89.57 122.35,-82.62"/>
</g>
<!-- Node5 -->
<g id="node5" class="node">
<title>Node5</title>
<g id="a_node5"><a xlink:href="classsciplot_1_1FillSpecsOf.html" target="_top" xlink:title=" ">
<polygon fill="white" stroke="black" points="153,-50 153,-69 288,-69 288,-50 153,-50"/>
<text text-anchor="middle" x="220.5" y="-57" font-family="Helvetica" font-size="10.00">FillSpecsOf&lt; DrawSpecs &gt;</text>
</a>
</g>
</g>
<!-- Node3&#45;&gt;Node5 -->
<g id="edge6" class="edge">
<title>Node3&#45;&gt;Node5</title>
<path fill="none" stroke="midnightblue" d="M121.99,-70.9C132.1,-69.72 142.56,-68.5 152.72,-67.31"/>
<polygon fill="midnightblue" stroke="midnightblue" points="121.54,-67.43 112.02,-72.07 122.35,-74.38 121.54,-67.43"/>
</g>
<!-- Node6 -->
<g id="node6" class="node">
<title>Node6</title>
<g id="a_node6"><a xlink:href="classsciplot_1_1FilledCurvesSpecsOf.html" target="_top" xlink:title=" ">
<polygon fill="white" stroke="black" points="166,-0.5 166,-30.5 275,-30.5 275,-0.5 166,-0.5"/>
<text text-anchor="start" x="174" y="-18.5" font-family="Helvetica" font-size="10.00">FilledCurvesSpecsOf</text>
<text text-anchor="middle" x="220.5" y="-7.5" font-family="Helvetica" font-size="10.00">&lt; DrawSpecs &gt;</text>
</a>
</g>
</g>
<!-- Node3&#45;&gt;Node6 -->
<g id="edge8" class="edge">
<title>Node3&#45;&gt;Node6</title>
<path fill="none" stroke="midnightblue" d="M88.59,-64.77C106.01,-57.33 128.09,-48.13 148,-40.5 156.72,-37.16 166.1,-33.75 175.11,-30.56"/>
<polygon fill="midnightblue" stroke="midnightblue" points="86.73,-61.76 78.92,-68.92 89.49,-68.19 86.73,-61.76"/>
</g>
<!-- Node4&#45;&gt;Node1 -->
<g id="edge3" class="edge">
<title>Node4&#45;&gt;Node1</title>
<path fill="none" stroke="midnightblue" d="M301.7,-86.58C311.27,-85.27 320.57,-84.01 328.86,-82.88"/>
<polygon fill="midnightblue" stroke="midnightblue" points="301.09,-83.13 291.66,-87.94 302.04,-90.06 301.09,-83.13"/>
</g>
<!-- Node5&#45;&gt;Node1 -->
<g id="edge5" class="edge">
<title>Node5&#45;&gt;Node1</title>
<path fill="none" stroke="midnightblue" d="M298.32,-69.96C309.09,-71.43 319.64,-72.87 328.91,-74.13"/>
<polygon fill="midnightblue" stroke="midnightblue" points="298.77,-66.49 288.39,-68.61 297.83,-73.43 298.77,-66.49"/>
</g>
<!-- Node6&#45;&gt;Node1 -->
<g id="edge7" class="edge">
<title>Node6&#45;&gt;Node1</title>
<path fill="none" stroke="midnightblue" d="M278.21,-34.31C283.26,-36.29 288.25,-38.36 293,-40.5 311.74,-48.94 332.2,-60.75 345.73,-68.96"/>
<polygon fill="midnightblue" stroke="midnightblue" points="279.09,-30.9 268.5,-30.62 276.61,-37.44 279.09,-30.9"/>
</g>
</g>
</svg>
