<?xml version="1.0" encoding="UTF-8" standalone="no"?>
<!DOCTYPE svg PUBLIC "-//W3C//DTD SVG 1.1//EN"
 "http://www.w3.org/Graphics/SVG/1.1/DTD/svg11.dtd">
<!-- Generated by graphviz version 5.0.0 (20220707.2338)
 -->
<!-- Title: TicsSpecsBaseOf&lt; DerivedSpecs &gt; Pages: 1 -->
<svg width="746pt" height="104pt"
 viewBox="0.00 0.00 746.00 104.00" xmlns="http://www.w3.org/2000/svg" xmlns:xlink="http://www.w3.org/1999/xlink">
<g id="graph0" class="graph" transform="scale(1 1) rotate(0) translate(4 100)">
<title>TicsSpecsBaseOf&lt; DerivedSpecs &gt;</title>
<polygon fill="white" stroke="transparent" points="-4,4 -4,-100 742,-100 742,4 -4,4"/>
<!-- Node1 -->
<g id="node1" class="node">
<title>Node1</title>
<g id="a_node1"><a xlink:title="The class used to attach common tic options to a type that also specifies tic options.">
<polygon fill="#bfbfbf" stroke="black" points="589,-33 589,-63 738,-63 738,-33 589,-33"/>
<text text-anchor="start" x="597" y="-51" font-family="Helvetica,sans-Serif" font-size="10.00">TicsSpecsBaseOf&lt; Derived</text>
<text text-anchor="middle" x="663.5" y="-40" font-family="Helvetica,sans-Serif" font-size="10.00">Specs &gt;</text>
</a>
</g>
</g>
<!-- Node2 -->
<g id="node2" class="node">
<title>Node2</title>
<g id="a_node2"><a xlink:href="classsciplot_1_1TextSpecsOf.html" target="_top" xlink:title="The class used to attach text options to a type.">
<polygon fill="white" stroke="black" points="382.5,-76.5 382.5,-95.5 548.5,-95.5 548.5,-76.5 382.5,-76.5"/>
<text text-anchor="middle" x="465.5" y="-83.5" font-family="Helvetica,sans-Serif" font-size="10.00">TextSpecsOf&lt; DerivedSpecs &gt;</text>
</a>
</g>
</g>
<!-- Node2&#45;&gt;Node1 -->
<g id="edge1" class="edge">
<title>Node2&#45;&gt;Node1</title>
<path fill="none" stroke="midnightblue" d="M525.55,-74.55C545.45,-70.69 567.91,-66.34 588.8,-62.29"/>
<polygon fill="midnightblue" stroke="midnightblue" points="524.86,-71.12 515.71,-76.46 526.19,-77.99 524.86,-71.12"/>
</g>
<!-- Node3 -->
<g id="node3" class="node">
<title>Node3</title>
<g id="a_node3"><a xlink:href="classsciplot_1_1FontSpecsOf.html" target="_top" xlink:title="The class used to attach font options to a type.">
<polygon fill="white" stroke="black" points="172.5,-76.5 172.5,-95.5 339.5,-95.5 339.5,-76.5 172.5,-76.5"/>
<text text-anchor="middle" x="256" y="-83.5" font-family="Helvetica,sans-Serif" font-size="10.00">FontSpecsOf&lt; DerivedSpecs &gt;</text>
</a>
</g>
</g>
<!-- Node3&#45;&gt;Node2 -->
<g id="edge2" class="edge">
<title>Node3&#45;&gt;Node2</title>
<path fill="none" stroke="midnightblue" d="M349.87,-86C360.64,-86 371.56,-86 382.18,-86"/>
<polygon fill="midnightblue" stroke="midnightblue" points="349.61,-82.5 339.61,-86 349.61,-89.5 349.61,-82.5"/>
</g>
<!-- Node4 -->
<g id="node4" class="node">
<title>Node4</title>
<g id="a_node4"><a xlink:href="classsciplot_1_1Specs.html" target="_top" xlink:title="The base class for other specs classes (e.g., LineSpecsOf, DrawSpecs, BorderSpecs,...">
<polygon fill="white" stroke="black" points="0,-38.5 0,-57.5 134,-57.5 134,-38.5 0,-38.5"/>
<text text-anchor="middle" x="67" y="-45.5" font-family="Helvetica,sans-Serif" font-size="10.00">Specs&lt; DerivedSpecs &gt;</text>
</a>
</g>
</g>
<!-- Node4&#45;&gt;Node3 -->
<g id="edge3" class="edge">
<title>Node4&#45;&gt;Node3</title>
<path fill="none" stroke="midnightblue" d="M125.13,-59.61C151.73,-65.01 182.97,-71.36 208.15,-76.48"/>
<polygon fill="midnightblue" stroke="midnightblue" points="125.68,-56.15 115.19,-57.59 124.29,-63.01 125.68,-56.15"/>
</g>
<!-- Node5 -->
<g id="node5" class="node">
<title>Node5</title>
<g id="a_node5"><a xlink:href="classsciplot_1_1OffsetSpecsOf.html" target="_top" xlink:title="The class used to attach offset options to a type.">
<polygon fill="white" stroke="black" points="378,-38.5 378,-57.5 553,-57.5 553,-38.5 378,-38.5"/>
<text text-anchor="middle" x="465.5" y="-45.5" font-family="Helvetica,sans-Serif" font-size="10.00">OffsetSpecsOf&lt; DerivedSpecs &gt;</text>
</a>
</g>
</g>
<!-- Node4&#45;&gt;Node5 -->
<g id="edge5" class="edge">
<title>Node4&#45;&gt;Node5</title>
<path fill="none" stroke="midnightblue" d="M144.4,-48C211.19,-48 308.1,-48 377.77,-48"/>
<polygon fill="midnightblue" stroke="midnightblue" points="144.37,-44.5 134.37,-48 144.37,-51.5 144.37,-44.5"/>
</g>
<!-- Node6 -->
<g id="node6" class="node">
<title>Node6</title>
<g id="a_node6"><a xlink:href="classsciplot_1_1ShowSpecsOf.html" target="_top" xlink:title="The class used to attach visibility options to a type.">
<polygon fill="white" stroke="black" points="170,-0.5 170,-19.5 342,-19.5 342,-0.5 170,-0.5"/>
<text text-anchor="middle" x="256" y="-7.5" font-family="Helvetica,sans-Serif" font-size="10.00">ShowSpecsOf&lt; DerivedSpecs &gt;</text>
</a>
</g>
</g>
<!-- Node4&#45;&gt;Node6 -->
<g id="edge7" class="edge">
<title>Node4&#45;&gt;Node6</title>
<path fill="none" stroke="midnightblue" d="M125.13,-36.39C151.73,-30.99 182.97,-24.64 208.15,-19.52"/>
<polygon fill="midnightblue" stroke="midnightblue" points="124.29,-32.99 115.19,-38.41 125.68,-39.85 124.29,-32.99"/>
</g>
<!-- Node5&#45;&gt;Node1 -->
<g id="edge4" class="edge">
<title>Node5&#45;&gt;Node1</title>
<path fill="none" stroke="midnightblue" d="M563.2,-48C571.88,-48 580.57,-48 589,-48"/>
<polygon fill="midnightblue" stroke="midnightblue" points="563.04,-44.5 553.04,-48 563.04,-51.5 563.04,-44.5"/>
</g>
<!-- Node6&#45;&gt;Node1 -->
<g id="edge6" class="edge">
<title>Node6&#45;&gt;Node1</title>
<path fill="none" stroke="midnightblue" d="M352.34,-13.51C410.47,-16.3 486.19,-21.08 553,-29 564.59,-30.37 576.82,-32.16 588.74,-34.09"/>
<polygon fill="midnightblue" stroke="midnightblue" points="352.22,-10 342.07,-13.03 351.89,-16.99 352.22,-10"/>
</g>
</g>
</svg>
