<?xml version="1.0" encoding="UTF-8" standalone="no"?>
<!DOCTYPE svg PUBLIC "-//W3C//DTD SVG 1.1//EN"
 "http://www.w3.org/Graphics/SVG/1.1/DTD/svg11.dtd">
<!-- Generated by graphviz version 5.0.0 (20220707.2338)
 -->
<!-- Title: Specs&lt; DerivedSpecs &gt; Pages: 1 -->
<svg width="753pt" height="420pt"
 viewBox="0.00 0.00 753.00 420.00" xmlns="http://www.w3.org/2000/svg" xmlns:xlink="http://www.w3.org/1999/xlink">
<g id="graph0" class="graph" transform="scale(1 1) rotate(0) translate(4 416)">
<title>Specs&lt; DerivedSpecs &gt;</title>
<polygon fill="white" stroke="transparent" points="-4,4 -4,-416 749,-416 749,4 -4,4"/>
<!-- Node1 -->
<g id="node1" class="node">
<title>Node1</title>
<g id="a_node1"><a xlink:title="The base class for other specs classes (e.g., LineSpecsOf, DrawSpecs, BorderSpecs,...">
<polygon fill="#bfbfbf" stroke="black" points="0,-190.5 0,-209.5 134,-209.5 134,-190.5 0,-190.5"/>
<text text-anchor="middle" x="67" y="-197.5" font-family="Helvetica,sans-Serif" font-size="10.00">Specs&lt; DerivedSpecs &gt;</text>
</a>
</g>
</g>
<!-- Node2 -->
<g id="node2" class="node">
<title>Node2</title>
<g id="a_node2"><a xlink:href="classsciplot_1_1DepthSpecsOf.html" target="_top" xlink:title="The class used to attach depth options to a type.">
<polygon fill="white" stroke="black" points="172,-392.5 172,-411.5 347,-411.5 347,-392.5 172,-392.5"/>
<text text-anchor="middle" x="259.5" y="-399.5" font-family="Helvetica,sans-Serif" font-size="10.00">DepthSpecsOf&lt; DerivedSpecs &gt;</text>
</a>
</g>
</g>
<!-- Node1&#45;&gt;Node2 -->
<g id="edge1" class="edge">
<title>Node1&#45;&gt;Node2</title>
<path fill="none" stroke="midnightblue" d="M73.09,-219.7C83.99,-257.7 113.31,-341.07 170,-383 175.18,-386.83 180.97,-389.92 187.04,-392.41"/>
<polygon fill="midnightblue" stroke="midnightblue" points="76.41,-218.57 70.39,-209.86 69.66,-220.42 76.41,-218.57"/>
</g>
<!-- Node3 -->
<g id="node3" class="node">
<title>Node3</title>
<g id="a_node3"><a xlink:href="classsciplot_1_1FilledCurvesSpecsOf.html" target="_top" xlink:title="The class used to set options for the gnuplot filledcurve functionality.">
<polygon fill="white" stroke="black" points="201.5,-343 201.5,-373 317.5,-373 317.5,-343 201.5,-343"/>
<text text-anchor="start" x="209.5" y="-361" font-family="Helvetica,sans-Serif" font-size="10.00">FilledCurvesSpecsOf</text>
<text text-anchor="middle" x="259.5" y="-350" font-family="Helvetica,sans-Serif" font-size="10.00">&lt; DerivedSpecs &gt;</text>
</a>
</g>
</g>
<!-- Node1&#45;&gt;Node3 -->
<g id="edge2" class="edge">
<title>Node1&#45;&gt;Node3</title>
<path fill="none" stroke="midnightblue" d="M77.31,-218.81C92.61,-247.76 125.84,-303.05 170,-333 179.38,-339.36 190.37,-344.12 201.34,-347.67"/>
<polygon fill="midnightblue" stroke="midnightblue" points="80.34,-217.04 72.65,-209.75 74.11,-220.24 80.34,-217.04"/>
</g>
<!-- Node4 -->
<g id="node4" class="node">
<title>Node4</title>
<g id="a_node4"><a xlink:href="classsciplot_1_1FillSpecsOf.html" target="_top" xlink:title="The class used to attach color or pattern fill options to a type.">
<polygon fill="white" stroke="black" points="179.5,-304.5 179.5,-323.5 339.5,-323.5 339.5,-304.5 179.5,-304.5"/>
<text text-anchor="middle" x="259.5" y="-311.5" font-family="Helvetica,sans-Serif" font-size="10.00">FillSpecsOf&lt; DerivedSpecs &gt;</text>
</a>
</g>
</g>
<!-- Node1&#45;&gt;Node4 -->
<g id="edge3" class="edge">
<title>Node1&#45;&gt;Node4</title>
<path fill="none" stroke="midnightblue" d="M81.74,-217.66C99.63,-239.37 133.04,-275.72 170,-295 177.38,-298.85 185.51,-301.92 193.74,-304.37"/>
<polygon fill="midnightblue" stroke="midnightblue" points="84.25,-215.19 75.25,-209.6 78.79,-219.58 84.25,-215.19"/>
</g>
<!-- Node5 -->
<g id="node5" class="node">
<title>Node5</title>
<g id="a_node5"><a xlink:href="classsciplot_1_1FontSpecsOf.html" target="_top" xlink:title="The class used to attach font options to a type.">
<polygon fill="white" stroke="black" points="176,-266.5 176,-285.5 343,-285.5 343,-266.5 176,-266.5"/>
<text text-anchor="middle" x="259.5" y="-273.5" font-family="Helvetica,sans-Serif" font-size="10.00">FontSpecsOf&lt; DerivedSpecs &gt;</text>
</a>
</g>
</g>
<!-- Node1&#45;&gt;Node5 -->
<g id="edge4" class="edge">
<title>Node1&#45;&gt;Node5</title>
<path fill="none" stroke="midnightblue" d="M90.29,-215.03C110.35,-227.92 141.03,-246.08 170,-257 180,-260.77 190.93,-263.88 201.59,-266.41"/>
<polygon fill="midnightblue" stroke="midnightblue" points="92.16,-212.07 81.87,-209.53 88.33,-217.93 92.16,-212.07"/>
</g>
<!-- Node8 -->
<g id="node8" class="node">
<title>Node8</title>
<g id="a_node8"><a xlink:href="classsciplot_1_1FrameSpecsOf.html" target="_top" xlink:title="The class used to attach frame options to a type.">
<polygon fill="white" stroke="black" points="171.5,-228.5 171.5,-247.5 347.5,-247.5 347.5,-228.5 171.5,-228.5"/>
<text text-anchor="middle" x="259.5" y="-235.5" font-family="Helvetica,sans-Serif" font-size="10.00">FrameSpecsOf&lt; DerivedSpecs &gt;</text>
</a>
</g>
</g>
<!-- Node1&#45;&gt;Node8 -->
<g id="edge7" class="edge">
<title>Node1&#45;&gt;Node8</title>
<path fill="none" stroke="midnightblue" d="M126.2,-211.61C153.29,-217.01 185.13,-223.36 210.77,-228.48"/>
<polygon fill="midnightblue" stroke="midnightblue" points="126.56,-208.11 116.07,-209.59 125.19,-214.98 126.56,-208.11"/>
</g>
<!-- Node9 -->
<g id="node9" class="node">
<title>Node9</title>
<g id="a_node9"><a xlink:href="classsciplot_1_1LayoutSpecsOf.html" target="_top" xlink:title="The class used to attach layout options to a type.">
<polygon fill="white" stroke="black" points="170,-190.5 170,-209.5 349,-209.5 349,-190.5 170,-190.5"/>
<text text-anchor="middle" x="259.5" y="-197.5" font-family="Helvetica,sans-Serif" font-size="10.00">LayoutSpecsOf&lt; DerivedSpecs &gt;</text>
</a>
</g>
</g>
<!-- Node1&#45;&gt;Node9 -->
<g id="edge8" class="edge">
<title>Node1&#45;&gt;Node9</title>
<path fill="none" stroke="midnightblue" d="M144.2,-200C152.59,-200 161.18,-200 169.71,-200"/>
<polygon fill="midnightblue" stroke="midnightblue" points="144.09,-196.5 134.09,-200 144.09,-203.5 144.09,-196.5"/>
</g>
<!-- Node10 -->
<g id="node10" class="node">
<title>Node10</title>
<g id="a_node10"><a xlink:href="classsciplot_1_1LineSpecsOf.html" target="_top" xlink:title="The class used to attach line options to a type.">
<polygon fill="white" stroke="black" points="176.5,-152.5 176.5,-171.5 342.5,-171.5 342.5,-152.5 176.5,-152.5"/>
<text text-anchor="middle" x="259.5" y="-159.5" font-family="Helvetica,sans-Serif" font-size="10.00">LineSpecsOf&lt; DerivedSpecs &gt;</text>
</a>
</g>
</g>
<!-- Node1&#45;&gt;Node10 -->
<g id="edge9" class="edge">
<title>Node1&#45;&gt;Node10</title>
<path fill="none" stroke="midnightblue" d="M126.2,-188.39C153.29,-182.99 185.13,-176.64 210.77,-171.52"/>
<polygon fill="midnightblue" stroke="midnightblue" points="125.19,-185.02 116.07,-190.41 126.56,-191.89 125.19,-185.02"/>
</g>
<!-- Node11 -->
<g id="node11" class="node">
<title>Node11</title>
<g id="a_node11"><a xlink:href="classsciplot_1_1OffsetSpecsOf.html" target="_top" xlink:title="The class used to attach offset options to a type.">
<polygon fill="white" stroke="black" points="385,-114.5 385,-133.5 560,-133.5 560,-114.5 385,-114.5"/>
<text text-anchor="middle" x="472.5" y="-121.5" font-family="Helvetica,sans-Serif" font-size="10.00">OffsetSpecsOf&lt; DerivedSpecs &gt;</text>
</a>
</g>
</g>
<!-- Node1&#45;&gt;Node11 -->
<g id="edge10" class="edge">
<title>Node1&#45;&gt;Node11</title>
<path fill="none" stroke="midnightblue" d="M88.93,-184.59C108.72,-170.96 139.79,-151.89 170,-143 240.31,-122.3 323.71,-118.54 384.95,-119.39"/>
<polygon fill="midnightblue" stroke="midnightblue" points="86.83,-181.79 80.68,-190.41 90.87,-187.51 86.83,-181.79"/>
</g>
<!-- Node12 -->
<g id="node12" class="node">
<title>Node12</title>
<g id="a_node12"><a xlink:href="classsciplot_1_1PointSpecsOf.html" target="_top" xlink:title="The class used to attach point options to a type.">
<polygon fill="white" stroke="black" points="174.5,-76.5 174.5,-95.5 344.5,-95.5 344.5,-76.5 174.5,-76.5"/>
<text text-anchor="middle" x="259.5" y="-83.5" font-family="Helvetica,sans-Serif" font-size="10.00">PointSpecsOf&lt; DerivedSpecs &gt;</text>
</a>
</g>
</g>
<!-- Node1&#45;&gt;Node12 -->
<g id="edge12" class="edge">
<title>Node1&#45;&gt;Node12</title>
<path fill="none" stroke="midnightblue" d="M82.95,-182.66C101.42,-162.33 134.73,-128.99 170,-110 181.49,-103.81 194.7,-99.13 207.35,-95.61"/>
<polygon fill="midnightblue" stroke="midnightblue" points="80.23,-180.46 76.2,-190.26 85.46,-185.11 80.23,-180.46"/>
</g>
<!-- Node13 -->
<g id="node13" class="node">
<title>Node13</title>
<g id="a_node13"><a xlink:href="classsciplot_1_1ShowSpecsOf.html" target="_top" xlink:title="The class used to attach visibility options to a type.">
<polygon fill="white" stroke="black" points="386.5,-57.5 386.5,-76.5 558.5,-76.5 558.5,-57.5 386.5,-57.5"/>
<text text-anchor="middle" x="472.5" y="-64.5" font-family="Helvetica,sans-Serif" font-size="10.00">ShowSpecsOf&lt; DerivedSpecs &gt;</text>
</a>
</g>
</g>
<!-- Node1&#45;&gt;Node13 -->
<g id="edge13" class="edge">
<title>Node1&#45;&gt;Node13</title>
<path fill="none" stroke="midnightblue" d="M75.83,-180.97C89.62,-150.29 121.47,-90.94 170,-67 257.55,-23.81 377.55,-43.55 436.26,-57.45"/>
<polygon fill="midnightblue" stroke="midnightblue" points="72.6,-179.61 71.84,-190.18 79.02,-182.39 72.6,-179.61"/>
</g>
<!-- Node14 -->
<g id="node14" class="node">
<title>Node14</title>
<g id="a_node14"><a xlink:href="classsciplot_1_1TitleSpecsOf.html" target="_top" xlink:title="The class used to attach title options to a type.">
<polygon fill="white" stroke="black" points="176,-0.5 176,-19.5 343,-19.5 343,-0.5 176,-0.5"/>
<text text-anchor="middle" x="259.5" y="-7.5" font-family="Helvetica,sans-Serif" font-size="10.00">TitleSpecsOf&lt; DerivedSpecs &gt;</text>
</a>
</g>
</g>
<!-- Node1&#45;&gt;Node14 -->
<g id="edge15" class="edge">
<title>Node1&#45;&gt;Node14</title>
<path fill="none" stroke="midnightblue" d="M74.34,-180.93C86.88,-146.23 118.21,-72.75 170,-34 178.41,-27.71 188.37,-23.06 198.52,-19.64"/>
<polygon fill="midnightblue" stroke="midnightblue" points="71.03,-179.78 71.05,-190.38 77.64,-182.09 71.03,-179.78"/>
</g>
<!-- Node6 -->
<g id="node6" class="node">
<title>Node6</title>
<g id="a_node6"><a xlink:href="classsciplot_1_1TextSpecsOf.html" target="_top" xlink:title="The class used to attach text options to a type.">
<polygon fill="white" stroke="black" points="389.5,-209.5 389.5,-228.5 555.5,-228.5 555.5,-209.5 389.5,-209.5"/>
<text text-anchor="middle" x="472.5" y="-216.5" font-family="Helvetica,sans-Serif" font-size="10.00">TextSpecsOf&lt; DerivedSpecs &gt;</text>
</a>
</g>
</g>
<!-- Node5&#45;&gt;Node6 -->
<g id="edge5" class="edge">
<title>Node5&#45;&gt;Node6</title>
<path fill="none" stroke="midnightblue" d="M318.87,-264.24C328.96,-261.99 339.31,-259.54 349,-257 381.53,-248.48 418.3,-236.79 443,-228.63"/>
<polygon fill="midnightblue" stroke="midnightblue" points="317.93,-260.86 308.91,-266.42 319.43,-267.7 317.93,-260.86"/>
</g>
<!-- Node7 -->
<g id="node7" class="node">
<title>Node7</title>
<g id="a_node7"><a xlink:href="classsciplot_1_1TicsSpecsBaseOf.html" target="_top" xlink:title="The class used to attach common tic options to a type that also specifies tic options.">
<polygon fill="white" stroke="black" points="596,-109 596,-139 745,-139 745,-109 596,-109"/>
<text text-anchor="start" x="604" y="-127" font-family="Helvetica,sans-Serif" font-size="10.00">TicsSpecsBaseOf&lt; Derived</text>
<text text-anchor="middle" x="670.5" y="-116" font-family="Helvetica,sans-Serif" font-size="10.00">Specs &gt;</text>
</a>
</g>
</g>
<!-- Node6&#45;&gt;Node7 -->
<g id="edge6" class="edge">
<title>Node6&#45;&gt;Node7</title>
<path fill="none" stroke="midnightblue" d="M502.47,-204.96C538.84,-187.33 600.97,-157.22 638.34,-139.1"/>
<polygon fill="midnightblue" stroke="midnightblue" points="500.84,-201.86 493.37,-209.37 503.9,-208.16 500.84,-201.86"/>
</g>
<!-- Node11&#45;&gt;Node7 -->
<g id="edge11" class="edge">
<title>Node11&#45;&gt;Node7</title>
<path fill="none" stroke="midnightblue" d="M570.2,-124C578.88,-124 587.57,-124 596,-124"/>
<polygon fill="midnightblue" stroke="midnightblue" points="570.04,-120.5 560.04,-124 570.04,-127.5 570.04,-120.5"/>
</g>
<!-- Node13&#45;&gt;Node7 -->
<g id="edge14" class="edge">
<title>Node13&#45;&gt;Node7</title>
<path fill="none" stroke="midnightblue" d="M516.02,-79.36C545.89,-88.05 586.03,-99.72 617.76,-108.95"/>
<polygon fill="midnightblue" stroke="midnightblue" points="516.89,-75.97 506.31,-76.54 514.93,-82.69 516.89,-75.97"/>
</g>
</g>
</svg>
