<?xml version="1.0" encoding="UTF-8" standalone="no"?>
<!DOCTYPE svg PUBLIC "-//W3C//DTD SVG 1.1//EN"
 "http://www.w3.org/Graphics/SVG/1.1/DTD/svg11.dtd">
<!-- Generated by graphviz version 8.0.5 (20230506.1012)
 -->
<!-- Title: LegendSpecs Pages: 1 -->
<svg width="668pt" height="148pt"
 viewBox="0.00 0.00 667.50 147.75" xmlns="http://www.w3.org/2000/svg" xmlns:xlink="http://www.w3.org/1999/xlink">
<g id="graph0" class="graph" transform="scale(1 1) rotate(0) translate(4 143.75)">
<title>LegendSpecs</title>
<polygon fill="white" stroke="none" points="-4,4 -4,-143.75 663.5,-143.75 663.5,4 -4,4"/>
<!-- Node1 -->
<g id="node1" class="node">
<title>Node1</title>
<g id="a_node1"><a xlink:title="The class used to specify options for legend.">
<polygon fill="#bfbfbf" stroke="black" points="579.75,-58.5 579.75,-79.25 659.5,-79.25 659.5,-58.5 579.75,-58.5"/>
<text text-anchor="middle" x="619.62" y="-65.75" font-family="Helvetica,sans-Serif" font-size="10.00">LegendSpecs</text>
</a>
</g>
</g>
<!-- Node2 -->
<g id="node2" class="node">
<title>Node2</title>
<g id="a_node2"><a xlink:href="classsciplot_1_1TextSpecsOf.html" target="_top" xlink:title=" ">
<polygon fill="white" stroke="black" points="378.5,-118.5 378.5,-139.25 540.75,-139.25 540.75,-118.5 378.5,-118.5"/>
<text text-anchor="middle" x="459.62" y="-125.75" font-family="Helvetica,sans-Serif" font-size="10.00">TextSpecsOf&lt; LegendSpecs &gt;</text>
</a>
</g>
</g>
<!-- Node2&#45;&gt;Node1 -->
<g id="edge1" class="edge">
<title>Node2&#45;&gt;Node1</title>
<path fill="none" stroke="midnightblue" d="M523.02,-115.7C530.09,-113.67 537.13,-111.39 543.75,-108.88 564.83,-100.86 587.45,-88.14 602.25,-79.2"/>
<polygon fill="midnightblue" stroke="midnightblue" points="522.42,-112.51 513.68,-118.51 524.25,-119.26 522.42,-112.51"/>
</g>
<!-- Node3 -->
<g id="node3" class="node">
<title>Node3</title>
<g id="a_node3"><a xlink:href="classsciplot_1_1FontSpecsOf.html" target="_top" xlink:title=" ">
<polygon fill="white" stroke="black" points="171.62,-117.5 171.62,-138.25 334.62,-138.25 334.62,-117.5 171.62,-117.5"/>
<text text-anchor="middle" x="253.12" y="-124.75" font-family="Helvetica,sans-Serif" font-size="10.00">FontSpecsOf&lt; LegendSpecs &gt;</text>
</a>
</g>
</g>
<!-- Node3&#45;&gt;Node2 -->
<g id="edge2" class="edge">
<title>Node3&#45;&gt;Node2</title>
<path fill="none" stroke="midnightblue" d="M345.02,-128.32C356.22,-128.37 367.6,-128.43 378.62,-128.48"/>
<polygon fill="midnightblue" stroke="midnightblue" points="345.38,-124.82 335.36,-128.27 345.34,-131.82 345.38,-124.82"/>
</g>
<!-- Node4 -->
<g id="node4" class="node">
<title>Node4</title>
<g id="a_node4"><a xlink:href="classsciplot_1_1Specs.html" target="_top" xlink:title=" ">
<polygon fill="white" stroke="black" points="0,-58.5 0,-79.25 130.75,-79.25 130.75,-58.5 0,-58.5"/>
<text text-anchor="middle" x="65.38" y="-65.75" font-family="Helvetica,sans-Serif" font-size="10.00">Specs&lt; LegendSpecs &gt;</text>
</a>
</g>
</g>
<!-- Node4&#45;&gt;Node3 -->
<g id="edge3" class="edge">
<title>Node4&#45;&gt;Node3</title>
<path fill="none" stroke="midnightblue" d="M107.32,-82.56C125.5,-88.58 147.16,-95.67 166.75,-101.88 183.44,-107.16 202.03,-112.84 217.59,-117.55"/>
<polygon fill="midnightblue" stroke="midnightblue" points="108.66,-78.99 98.07,-79.16 106.46,-85.63 108.66,-78.99"/>
</g>
<!-- Node5 -->
<g id="node5" class="node">
<title>Node5</title>
<g id="a_node5"><a xlink:href="classsciplot_1_1ShowSpecsOf.html" target="_top" xlink:title=" ">
<polygon fill="white" stroke="black" points="375.5,-78.5 375.5,-99.25 543.75,-99.25 543.75,-78.5 375.5,-78.5"/>
<text text-anchor="middle" x="459.62" y="-85.75" font-family="Helvetica,sans-Serif" font-size="10.00">ShowSpecsOf&lt; LegendSpecs &gt;</text>
</a>
</g>
</g>
<!-- Node4&#45;&gt;Node5 -->
<g id="edge5" class="edge">
<title>Node4&#45;&gt;Node5</title>
<path fill="none" stroke="midnightblue" d="M141.61,-72.71C208.64,-76.13 306.57,-81.12 375.82,-84.65"/>
<polygon fill="midnightblue" stroke="midnightblue" points="141.87,-69.17 131.71,-72.16 141.52,-76.16 141.87,-69.17"/>
</g>
<!-- Node6 -->
<g id="node6" class="node">
<title>Node6</title>
<g id="a_node6"><a xlink:href="classsciplot_1_1TitleSpecsOf.html" target="_top" xlink:title=" ">
<polygon fill="white" stroke="black" points="377.75,-38.5 377.75,-59.25 541.5,-59.25 541.5,-38.5 377.75,-38.5"/>
<text text-anchor="middle" x="459.62" y="-45.75" font-family="Helvetica,sans-Serif" font-size="10.00">TitleSpecsOf&lt; LegendSpecs &gt;</text>
</a>
</g>
</g>
<!-- Node4&#45;&gt;Node6 -->
<g id="edge7" class="edge">
<title>Node4&#45;&gt;Node6</title>
<path fill="none" stroke="midnightblue" d="M141.3,-65.05C209.03,-61.6 308.48,-56.53 377.94,-52.99"/>
<polygon fill="midnightblue" stroke="midnightblue" points="141.52,-61.59 131.71,-65.59 141.87,-68.58 141.52,-61.59"/>
</g>
<!-- Node7 -->
<g id="node7" class="node">
<title>Node7</title>
<g id="a_node7"><a xlink:href="classsciplot_1_1FrameSpecsOf.html" target="_top" xlink:title=" ">
<polygon fill="white" stroke="black" points="166.75,-0.5 166.75,-21.25 339.5,-21.25 339.5,-0.5 166.75,-0.5"/>
<text text-anchor="middle" x="253.12" y="-7.75" font-family="Helvetica,sans-Serif" font-size="10.00">FrameSpecsOf&lt; LegendSpecs &gt;</text>
</a>
</g>
</g>
<!-- Node4&#45;&gt;Node7 -->
<g id="edge9" class="edge">
<title>Node4&#45;&gt;Node7</title>
<path fill="none" stroke="midnightblue" d="M107.29,-55.09C125.46,-49.05 147.13,-41.97 166.75,-35.88 182.83,-30.88 200.69,-25.61 215.91,-21.2"/>
<polygon fill="midnightblue" stroke="midnightblue" points="106.42,-52.02 98.04,-58.5 108.64,-58.66 106.42,-52.02"/>
</g>
<!-- Node5&#45;&gt;Node1 -->
<g id="edge4" class="edge">
<title>Node5&#45;&gt;Node1</title>
<path fill="none" stroke="midnightblue" d="M553.1,-77.17C562.5,-75.98 571.64,-74.82 579.96,-73.77"/>
<polygon fill="midnightblue" stroke="midnightblue" points="552.88,-73.8 543.4,-78.52 553.76,-80.74 552.88,-73.8"/>
</g>
<!-- Node6&#45;&gt;Node1 -->
<g id="edge6" class="edge">
<title>Node6&#45;&gt;Node1</title>
<path fill="none" stroke="midnightblue" d="M552.08,-60.45C561.79,-61.68 571.24,-62.88 579.82,-63.96"/>
<polygon fill="midnightblue" stroke="midnightblue" points="552.84,-56.89 542.48,-59.11 551.96,-63.84 552.84,-56.89"/>
</g>
<!-- Node7&#45;&gt;Node1 -->
<g id="edge8" class="edge">
<title>Node7&#45;&gt;Node1</title>
<path fill="none" stroke="midnightblue" d="M350.22,-6.68C407.44,-6.67 480.91,-11.05 543.75,-28.88 566.15,-35.23 589.42,-48.98 603.96,-58.57"/>
<polygon fill="midnightblue" stroke="midnightblue" points="350.35,-3.18 340.37,-6.73 350.39,-10.18 350.35,-3.18"/>
</g>
</g>
</svg>
