<?xml version="1.0" encoding="UTF-8" standalone="no"?>
<!DOCTYPE svg PUBLIC "-//W3C//DTD SVG 1.1//EN"
 "http://www.w3.org/Graphics/SVG/1.1/DTD/svg11.dtd">
<!-- Generated by graphviz version 2.46.1 (20210222.2046)
 -->
<!-- Title: DrawSpecs Pages: 1 -->
<svg width="465pt" height="140pt"
 viewBox="0.00 0.00 464.50 140.00" xmlns="http://www.w3.org/2000/svg" xmlns:xlink="http://www.w3.org/1999/xlink">
<g id="graph0" class="graph" transform="scale(1 1) rotate(0) translate(4 136)">
<title>DrawSpecs</title>
<polygon fill="white" stroke="transparent" points="-4,4 -4,-136 460.5,-136 460.5,4 -4,4"/>
<!-- Node1 -->
<g id="node1" class="node">
<title>Node1</title>
<g id="a_node1"><a xlink:title="The class where options for the plotted element can be specified.">
<polygon fill="#bfbfbf" stroke="black" points="198,-0.5 198,-19.5 264,-19.5 264,-0.5 198,-0.5"/>
<text text-anchor="middle" x="231" y="-7.5" font-family="Helvetica" font-size="10.00">DrawSpecs</text>
</a>
</g>
</g>
<!-- Node2 -->
<g id="node2" class="node">
<title>Node2</title>
<g id="a_node2"><a xlink:href="classsciplot_1_1LineSpecsOf.html" target="_top" xlink:title=" ">
<polygon fill="white" stroke="black" points="0,-56.5 0,-75.5 140,-75.5 140,-56.5 0,-56.5"/>
<text text-anchor="middle" x="70" y="-63.5" font-family="Helvetica" font-size="10.00">LineSpecsOf&lt; DrawSpecs &gt;</text>
</a>
</g>
</g>
<!-- Node2&#45;&gt;Node1 -->
<g id="edge1" class="edge">
<title>Node2&#45;&gt;Node1</title>
<path fill="none" stroke="midnightblue" d="M105.26,-53.17C135.58,-43 178.57,-28.59 205.61,-19.52"/>
<polygon fill="midnightblue" stroke="midnightblue" points="103.88,-49.95 95.51,-56.44 106.1,-56.58 103.88,-49.95"/>
</g>
<!-- Node3 -->
<g id="node3" class="node">
<title>Node3</title>
<g id="a_node3"><a xlink:href="classsciplot_1_1Specs.html" target="_top" xlink:title=" ">
<polygon fill="white" stroke="black" points="175,-112.5 175,-131.5 287,-131.5 287,-112.5 175,-112.5"/>
<text text-anchor="middle" x="231" y="-119.5" font-family="Helvetica" font-size="10.00">Specs&lt; DrawSpecs &gt;</text>
</a>
</g>
</g>
<!-- Node3&#45;&gt;Node2 -->
<g id="edge2" class="edge">
<title>Node3&#45;&gt;Node2</title>
<path fill="none" stroke="midnightblue" d="M195.74,-109.17C165.42,-99 122.43,-84.59 95.39,-75.52"/>
<polygon fill="midnightblue" stroke="midnightblue" points="194.9,-112.58 205.49,-112.44 197.12,-105.95 194.9,-112.58"/>
</g>
<!-- Node4 -->
<g id="node4" class="node">
<title>Node4</title>
<g id="a_node4"><a xlink:href="classsciplot_1_1PointSpecsOf.html" target="_top" xlink:title=" ">
<polygon fill="white" stroke="black" points="158.5,-56.5 158.5,-75.5 303.5,-75.5 303.5,-56.5 158.5,-56.5"/>
<text text-anchor="middle" x="231" y="-63.5" font-family="Helvetica" font-size="10.00">PointSpecsOf&lt; DrawSpecs &gt;</text>
</a>
</g>
</g>
<!-- Node3&#45;&gt;Node4 -->
<g id="edge4" class="edge">
<title>Node3&#45;&gt;Node4</title>
<path fill="none" stroke="midnightblue" d="M231,-101.8C231,-92.91 231,-82.78 231,-75.75"/>
<polygon fill="midnightblue" stroke="midnightblue" points="227.5,-102.08 231,-112.08 234.5,-102.08 227.5,-102.08"/>
</g>
<!-- Node5 -->
<g id="node5" class="node">
<title>Node5</title>
<g id="a_node5"><a xlink:href="classsciplot_1_1FillSpecsOf.html" target="_top" xlink:title=" ">
<polygon fill="white" stroke="black" points="321.5,-56.5 321.5,-75.5 456.5,-75.5 456.5,-56.5 321.5,-56.5"/>
<text text-anchor="middle" x="389" y="-63.5" font-family="Helvetica" font-size="10.00">FillSpecsOf&lt; DrawSpecs &gt;</text>
</a>
</g>
</g>
<!-- Node3&#45;&gt;Node5 -->
<g id="edge6" class="edge">
<title>Node3&#45;&gt;Node5</title>
<path fill="none" stroke="midnightblue" d="M265.61,-109.17C295.36,-99 337.55,-84.59 364.08,-75.52"/>
<polygon fill="midnightblue" stroke="midnightblue" points="264.37,-105.9 256.04,-112.44 266.63,-112.52 264.37,-105.9"/>
</g>
<!-- Node4&#45;&gt;Node1 -->
<g id="edge3" class="edge">
<title>Node4&#45;&gt;Node1</title>
<path fill="none" stroke="midnightblue" d="M231,-45.8C231,-36.91 231,-26.78 231,-19.75"/>
<polygon fill="midnightblue" stroke="midnightblue" points="227.5,-46.08 231,-56.08 234.5,-46.08 227.5,-46.08"/>
</g>
<!-- Node5&#45;&gt;Node1 -->
<g id="edge5" class="edge">
<title>Node5&#45;&gt;Node1</title>
<path fill="none" stroke="midnightblue" d="M354.39,-53.17C324.64,-43 282.45,-28.59 255.92,-19.52"/>
<polygon fill="midnightblue" stroke="midnightblue" points="353.37,-56.52 363.96,-56.44 355.63,-49.9 353.37,-56.52"/>
</g>
</g>
</svg>
