<?xml version="1.0" encoding="UTF-8" standalone="no"?>
<!DOCTYPE svg PUBLIC "-//W3C//DTD SVG 1.1//EN"
 "http://www.w3.org/Graphics/SVG/1.1/DTD/svg11.dtd">
<!-- Generated by graphviz version 2.47.2 (20210527.1257)
 -->
<!-- Title: DrawSpecs Pages: 1 -->
<svg width="407pt" height="154pt"
 viewBox="0.00 0.00 407.00 153.50" xmlns="http://www.w3.org/2000/svg" xmlns:xlink="http://www.w3.org/1999/xlink">
<g id="graph0" class="graph" transform="scale(1 1) rotate(0) translate(4 149.5)">
<title>DrawSpecs</title>
<polygon fill="white" stroke="transparent" points="-4,4 -4,-149.5 403,-149.5 403,4 -4,4"/>
<!-- Node1 -->
<g id="node1" class="node">
<title>Node1</title>
<g id="a_node1"><a xlink:title="The class where options for the plotted element can be specified.">
<polygon fill="#bfbfbf" stroke="black" points="331,-69 331,-88 399,-88 399,-69 331,-69"/>
<text text-anchor="middle" x="365" y="-76" font-family="Helvetica" font-size="10.00">DrawSpecs</text>
</a>
</g>
</g>
<!-- Node2 -->
<g id="node2" class="node">
<title>Node2</title>
<g id="a_node2"><a xlink:href="classsciplot_1_1LineSpecsOf.html" target="_top" xlink:title=" ">
<polygon fill="white" stroke="black" points="151,-126 151,-145 293,-145 293,-126 151,-126"/>
<text text-anchor="middle" x="222" y="-133" font-family="Helvetica" font-size="10.00">LineSpecsOf&lt; DrawSpecs &gt;</text>
</a>
</g>
</g>
<!-- Node2&#45;&gt;Node1 -->
<g id="edge1" class="edge">
<title>Node2&#45;&gt;Node1</title>
<path fill="none" stroke="midnightblue" d="M276.22,-123.04C282.63,-121.08 289.01,-118.9 295,-116.5 314.55,-108.67 335.55,-96.51 349.18,-88.06"/>
<polygon fill="midnightblue" stroke="midnightblue" points="274.83,-119.8 266.2,-125.94 276.78,-126.52 274.83,-119.8"/>
</g>
<!-- Node3 -->
<g id="node3" class="node">
<title>Node3</title>
<g id="a_node3"><a xlink:href="classsciplot_1_1Specs.html" target="_top" xlink:title=" ">
<polygon fill="white" stroke="black" points="0,-69 0,-88 113,-88 113,-69 0,-69"/>
<text text-anchor="middle" x="56.5" y="-76" font-family="Helvetica" font-size="10.00">Specs&lt; DrawSpecs &gt;</text>
</a>
</g>
</g>
<!-- Node3&#45;&gt;Node2 -->
<g id="edge2" class="edge">
<title>Node3&#45;&gt;Node2</title>
<path fill="none" stroke="midnightblue" d="M87.5,-92.17C105.18,-99.92 128.1,-109.44 149,-116.5 159.17,-119.93 170.31,-123.14 180.73,-125.9"/>
<polygon fill="midnightblue" stroke="midnightblue" points="88.83,-88.93 78.27,-88.08 85.99,-95.33 88.83,-88.93"/>
</g>
<!-- Node4 -->
<g id="node4" class="node">
<title>Node4</title>
<g id="a_node4"><a xlink:href="classsciplot_1_1PointSpecsOf.html" target="_top" xlink:title=" ">
<polygon fill="white" stroke="black" points="149,-88 149,-107 295,-107 295,-88 149,-88"/>
<text text-anchor="middle" x="222" y="-95" font-family="Helvetica" font-size="10.00">PointSpecsOf&lt; DrawSpecs &gt;</text>
</a>
</g>
</g>
<!-- Node3&#45;&gt;Node4 -->
<g id="edge4" class="edge">
<title>Node3&#45;&gt;Node4</title>
<path fill="none" stroke="midnightblue" d="M123.42,-86.16C131.83,-87.14 140.47,-88.14 148.96,-89.13"/>
<polygon fill="midnightblue" stroke="midnightblue" points="123.65,-82.66 113.31,-84.99 122.84,-89.62 123.65,-82.66"/>
</g>
<!-- Node5 -->
<g id="node5" class="node">
<title>Node5</title>
<g id="a_node5"><a xlink:href="classsciplot_1_1FillSpecsOf.html" target="_top" xlink:title=" ">
<polygon fill="white" stroke="black" points="153.5,-50 153.5,-69 290.5,-69 290.5,-50 153.5,-50"/>
<text text-anchor="middle" x="222" y="-57" font-family="Helvetica" font-size="10.00">FillSpecsOf&lt; DrawSpecs &gt;</text>
</a>
</g>
</g>
<!-- Node3&#45;&gt;Node5 -->
<g id="edge6" class="edge">
<title>Node3&#45;&gt;Node5</title>
<path fill="none" stroke="midnightblue" d="M123.42,-70.84C133.26,-69.7 143.41,-68.52 153.29,-67.37"/>
<polygon fill="midnightblue" stroke="midnightblue" points="122.84,-67.38 113.31,-72.01 123.65,-74.34 122.84,-67.38"/>
</g>
<!-- Node6 -->
<g id="node6" class="node">
<title>Node6</title>
<g id="a_node6"><a xlink:href="classsciplot_1_1FilledCurvesSpecsOf.html" target="_top" xlink:title=" ">
<polygon fill="white" stroke="black" points="167,-0.5 167,-30.5 277,-30.5 277,-0.5 167,-0.5"/>
<text text-anchor="start" x="175" y="-18.5" font-family="Helvetica" font-size="10.00">FilledCurvesSpecsOf</text>
<text text-anchor="middle" x="222" y="-7.5" font-family="Helvetica" font-size="10.00">&lt; DrawSpecs &gt;</text>
</a>
</g>
</g>
<!-- Node3&#45;&gt;Node6 -->
<g id="edge8" class="edge">
<title>Node3&#45;&gt;Node6</title>
<path fill="none" stroke="midnightblue" d="M88.77,-64.97C106.36,-57.5 128.79,-48.2 149,-40.5 157.78,-37.16 167.23,-33.74 176.3,-30.56"/>
<polygon fill="midnightblue" stroke="midnightblue" points="87.36,-61.77 79.54,-68.91 90.11,-68.21 87.36,-61.77"/>
</g>
<!-- Node4&#45;&gt;Node1 -->
<g id="edge3" class="edge">
<title>Node4&#45;&gt;Node1</title>
<path fill="none" stroke="midnightblue" d="M303.85,-86.61C313.33,-85.33 322.55,-84.09 330.81,-82.97"/>
<polygon fill="midnightblue" stroke="midnightblue" points="303.36,-83.14 293.91,-87.94 304.29,-90.08 303.36,-83.14"/>
</g>
<!-- Node5&#45;&gt;Node1 -->
<g id="edge5" class="edge">
<title>Node5&#45;&gt;Node1</title>
<path fill="none" stroke="midnightblue" d="M300.77,-69.98C311.33,-71.4 321.68,-72.8 330.84,-74.03"/>
<polygon fill="midnightblue" stroke="midnightblue" points="300.99,-66.48 290.61,-68.61 300.05,-73.41 300.99,-66.48"/>
</g>
<!-- Node6&#45;&gt;Node1 -->
<g id="edge7" class="edge">
<title>Node6&#45;&gt;Node1</title>
<path fill="none" stroke="midnightblue" d="M279.47,-34.08C284.76,-36.13 290.01,-38.28 295,-40.5 313.99,-48.95 334.76,-60.76 348.49,-68.97"/>
<polygon fill="midnightblue" stroke="midnightblue" points="280.52,-30.73 269.93,-30.5 278.06,-37.29 280.52,-30.73"/>
</g>
</g>
</svg>
