<?xml version="1.0" encoding="UTF-8" standalone="no"?>
<!DOCTYPE svg PUBLIC "-//W3C//DTD SVG 1.1//EN"
 "http://www.w3.org/Graphics/SVG/1.1/DTD/svg11.dtd">
<!-- Generated by graphviz version 8.0.3 (20230418.1244)
 -->
<!-- Title: Plot Pages: 1 -->
<svg width="1178pt" height="850pt"
 viewBox="0.00 0.00 1178.00 850.00" xmlns="http://www.w3.org/2000/svg" xmlns:xlink="http://www.w3.org/1999/xlink">
<g id="graph0" class="graph" transform="scale(1 1) rotate(0) translate(4 846)">
<title>Plot</title>
<polygon fill="white" stroke="none" points="-4,4 -4,-846 1174,-846 1174,4 -4,4"/>
<!-- Node1 -->
<g id="node1" class="node">
<title>Node1</title>
<g id="a_node1"><a xlink:title="The class used to create a plot containing graphical elements.">
<polygon fill="#bfbfbf" stroke="black" points="1135,-432.5 1135,-451.5 1170,-451.5 1170,-432.5 1135,-432.5"/>
<text text-anchor="middle" x="1152.5" y="-439.5" font-family="Helvetica,sans-Serif" font-size="10.00">Plot</text>
</a>
</g>
</g>
<!-- Node2 -->
<g id="node2" class="node">
<title>Node2</title>
<g id="a_node2"><a xlink:href="classsciplot_1_1BorderSpecs.html" target="_top" xlink:title="The class used to specify options for plot border.">
<polygon fill="white" stroke="black" points="866.5,-784.5 866.5,-803.5 943.5,-803.5 943.5,-784.5 866.5,-784.5"/>
<text text-anchor="middle" x="905" y="-791.5" font-family="Helvetica,sans-Serif" font-size="10.00">BorderSpecs</text>
</a>
</g>
</g>
<!-- Node2&#45;&gt;Node1 -->
<g id="edge1" class="edge">
<title>Node2&#45;&gt;Node1</title>
<path fill="none" stroke="#9a32cd" stroke-dasharray="5,2" d="M954.24,-794.66C1003.33,-792.49 1077.63,-780.78 1117,-733 1153.56,-688.64 1152.46,-495.81 1151.7,-451.22"/>
<polygon fill="#9a32cd" stroke="#9a32cd" points="954.14,-791.2 944.26,-795.01 954.36,-798.19 954.14,-791.2"/>
<text text-anchor="middle" x="1060.5" y="-792" font-family="Helvetica,sans-Serif" font-size="10.00"> m_border</text>
</g>
<!-- Node3 -->
<g id="node3" class="node">
<title>Node3</title>
<g id="a_node3"><a xlink:href="classsciplot_1_1LineSpecsOf.html" target="_top" xlink:title=" ">
<polygon fill="white" stroke="black" points="568.5,-822.5 568.5,-841.5 728.5,-841.5 728.5,-822.5 568.5,-822.5"/>
<text text-anchor="middle" x="648.5" y="-829.5" font-family="Helvetica,sans-Serif" font-size="10.00">LineSpecsOf&lt; BorderSpecs &gt;</text>
</a>
</g>
</g>
<!-- Node3&#45;&gt;Node2 -->
<g id="edge2" class="edge">
<title>Node3&#45;&gt;Node2</title>
<path fill="none" stroke="midnightblue" d="M723.81,-820.9C770.77,-813.89 829.44,-805.13 866.82,-799.55"/>
<polygon fill="midnightblue" stroke="midnightblue" points="723.44,-817.57 714.06,-822.51 724.47,-824.49 723.44,-817.57"/>
</g>
<!-- Node4 -->
<g id="node4" class="node">
<title>Node4</title>
<g id="a_node4"><a xlink:href="classsciplot_1_1Specs.html" target="_top" xlink:title=" ">
<polygon fill="white" stroke="black" points="194.5,-822.5 194.5,-841.5 322.5,-841.5 322.5,-822.5 194.5,-822.5"/>
<text text-anchor="middle" x="258.5" y="-829.5" font-family="Helvetica,sans-Serif" font-size="10.00">Specs&lt; BorderSpecs &gt;</text>
</a>
</g>
</g>
<!-- Node4&#45;&gt;Node3 -->
<g id="edge3" class="edge">
<title>Node4&#45;&gt;Node3</title>
<path fill="none" stroke="midnightblue" d="M333.21,-832C400.55,-832 499.83,-832 568.72,-832"/>
<polygon fill="midnightblue" stroke="midnightblue" points="333.27,-828.5 323.27,-832 333.27,-835.5 333.27,-828.5"/>
</g>
<!-- Node5 -->
<g id="node5" class="node">
<title>Node5</title>
<g id="a_node5"><a xlink:href="classsciplot_1_1DepthSpecsOf.html" target="_top" xlink:title=" ">
<polygon fill="white" stroke="black" points="564,-784.5 564,-803.5 733,-803.5 733,-784.5 564,-784.5"/>
<text text-anchor="middle" x="648.5" y="-791.5" font-family="Helvetica,sans-Serif" font-size="10.00">DepthSpecsOf&lt; BorderSpecs &gt;</text>
</a>
</g>
</g>
<!-- Node4&#45;&gt;Node5 -->
<g id="edge5" class="edge">
<title>Node4&#45;&gt;Node5</title>
<path fill="none" stroke="midnightblue" d="M332.98,-824.8C398.85,-818.35 495.42,-808.89 564.15,-802.16"/>
<polygon fill="midnightblue" stroke="midnightblue" points="332.88,-821.39 323.27,-825.85 333.56,-828.36 332.88,-821.39"/>
</g>
<!-- Node5&#45;&gt;Node2 -->
<g id="edge4" class="edge">
<title>Node5&#45;&gt;Node2</title>
<path fill="none" stroke="midnightblue" d="M743.58,-794C786.33,-794 834.47,-794 866.76,-794"/>
<polygon fill="midnightblue" stroke="midnightblue" points="743.83,-790.5 733.83,-794 743.83,-797.5 743.83,-790.5"/>
</g>
<!-- Node6 -->
<g id="node6" class="node">
<title>Node6</title>
<g id="a_node6"><a xlink:title=" ">
<polygon fill="white" stroke="#bfbfbf" points="824,-746.5 824,-765.5 986,-765.5 986,-746.5 824,-746.5"/>
<text text-anchor="middle" x="905" y="-753.5" font-family="Helvetica,sans-Serif" font-size="10.00">vector&lt; sciplot::DrawSpecs &gt;</text>
</a>
</g>
</g>
<!-- Node6&#45;&gt;Node1 -->
<g id="edge6" class="edge">
<title>Node6&#45;&gt;Node1</title>
<path fill="none" stroke="#9a32cd" stroke-dasharray="5,2" d="M971.43,-743.15C976.46,-741.35 981.38,-739.31 986,-737 995.31,-732.34 994.67,-726.63 1004,-722 1050.17,-699.1 1082.26,-734.06 1117,-696 1150.53,-659.27 1151.81,-493.07 1151.59,-451.47"/>
<polygon fill="#9a32cd" stroke="#9a32cd" points="970.43,-740.11 961.98,-746.51 972.57,-746.78 970.43,-740.11"/>
<text text-anchor="middle" x="1060.5" y="-725" font-family="Helvetica,sans-Serif" font-size="10.00"> m_drawspecs</text>
</g>
<!-- Node7 -->
<g id="node7" class="node">
<title>Node7</title>
<g id="a_node7"><a xlink:href="classsciplot_1_1DrawSpecs.html" target="_top" xlink:title="The class where options for the plotted element can be specified.">
<polygon fill="white" stroke="black" points="613,-746.5 613,-765.5 684,-765.5 684,-746.5 613,-746.5"/>
<text text-anchor="middle" x="648.5" y="-753.5" font-family="Helvetica,sans-Serif" font-size="10.00">DrawSpecs</text>
</a>
</g>
</g>
<!-- Node7&#45;&gt;Node6 -->
<g id="edge7" class="edge">
<title>Node7&#45;&gt;Node6</title>
<path fill="none" stroke="#9a32cd" stroke-dasharray="5,2" d="M694.42,-756C730.22,-756 781.27,-756 824.01,-756"/>
<polygon fill="#9a32cd" stroke="#9a32cd" points="694.82,-752.5 684.82,-756 694.82,-759.5 694.82,-752.5"/>
<text text-anchor="middle" x="781.5" y="-759" font-family="Helvetica,sans-Serif" font-size="10.00"> elements</text>
</g>
<!-- Node8 -->
<g id="node8" class="node">
<title>Node8</title>
<g id="a_node8"><a xlink:href="classsciplot_1_1LineSpecsOf.html" target="_top" xlink:title=" ">
<polygon fill="white" stroke="black" points="182,-784.5 182,-803.5 335,-803.5 335,-784.5 182,-784.5"/>
<text text-anchor="middle" x="258.5" y="-791.5" font-family="Helvetica,sans-Serif" font-size="10.00">LineSpecsOf&lt; DrawSpecs &gt;</text>
</a>
</g>
</g>
<!-- Node8&#45;&gt;Node7 -->
<g id="edge8" class="edge">
<title>Node8&#45;&gt;Node7</title>
<path fill="none" stroke="midnightblue" d="M345.69,-786.43C401.2,-781.45 474.89,-774.65 540,-768 564.47,-765.5 592.05,-762.42 613.14,-760"/>
<polygon fill="midnightblue" stroke="midnightblue" points="345.49,-783.03 335.84,-787.4 346.11,-790 345.49,-783.03"/>
</g>
<!-- Node9 -->
<g id="node9" class="node">
<title>Node9</title>
<g id="a_node9"><a xlink:href="classsciplot_1_1Specs.html" target="_top" xlink:title=" ">
<polygon fill="white" stroke="black" points="4.5,-726.5 4.5,-745.5 126.5,-745.5 126.5,-726.5 4.5,-726.5"/>
<text text-anchor="middle" x="65.5" y="-733.5" font-family="Helvetica,sans-Serif" font-size="10.00">Specs&lt; DrawSpecs &gt;</text>
</a>
</g>
</g>
<!-- Node9&#45;&gt;Node8 -->
<g id="edge9" class="edge">
<title>Node9&#45;&gt;Node8</title>
<path fill="none" stroke="midnightblue" d="M97.95,-749.56C117.78,-757.74 144.07,-767.91 168,-775 180.18,-778.61 193.49,-781.82 206.03,-784.52"/>
<polygon fill="midnightblue" stroke="midnightblue" points="99.51,-746 88.94,-745.37 96.81,-752.46 99.51,-746"/>
</g>
<!-- Node10 -->
<g id="node10" class="node">
<title>Node10</title>
<g id="a_node10"><a xlink:href="classsciplot_1_1PointSpecsOf.html" target="_top" xlink:title=" ">
<polygon fill="white" stroke="black" points="179.5,-746.5 179.5,-765.5 337.5,-765.5 337.5,-746.5 179.5,-746.5"/>
<text text-anchor="middle" x="258.5" y="-753.5" font-family="Helvetica,sans-Serif" font-size="10.00">PointSpecsOf&lt; DrawSpecs &gt;</text>
</a>
</g>
</g>
<!-- Node9&#45;&gt;Node10 -->
<g id="edge11" class="edge">
<title>Node9&#45;&gt;Node10</title>
<path fill="none" stroke="midnightblue" d="M137.28,-743.41C151.06,-744.85 165.57,-746.37 179.57,-747.84"/>
<polygon fill="midnightblue" stroke="midnightblue" points="137.72,-739.83 127.41,-742.27 136.99,-746.8 137.72,-739.83"/>
</g>
<!-- Node11 -->
<g id="node11" class="node">
<title>Node11</title>
<g id="a_node11"><a xlink:href="classsciplot_1_1FillSpecsOf.html" target="_top" xlink:title=" ">
<polygon fill="white" stroke="black" points="185,-708.5 185,-727.5 332,-727.5 332,-708.5 185,-708.5"/>
<text text-anchor="middle" x="258.5" y="-715.5" font-family="Helvetica,sans-Serif" font-size="10.00">FillSpecsOf&lt; DrawSpecs &gt;</text>
</a>
</g>
</g>
<!-- Node9&#45;&gt;Node11 -->
<g id="edge13" class="edge">
<title>Node9&#45;&gt;Node11</title>
<path fill="none" stroke="midnightblue" d="M137.07,-729.35C152.72,-727.87 169.34,-726.31 185.06,-724.83"/>
<polygon fill="midnightblue" stroke="midnightblue" points="137.04,-725.93 127.41,-730.35 137.69,-732.9 137.04,-725.93"/>
</g>
<!-- Node12 -->
<g id="node12" class="node">
<title>Node12</title>
<g id="a_node12"><a xlink:href="classsciplot_1_1FilledCurvesSpecsOf.html" target="_top" xlink:title=" ">
<polygon fill="white" stroke="black" points="200.5,-659 200.5,-689 316.5,-689 316.5,-659 200.5,-659"/>
<text text-anchor="start" x="208.5" y="-677" font-family="Helvetica,sans-Serif" font-size="10.00">FilledCurvesSpecsOf</text>
<text text-anchor="middle" x="258.5" y="-666" font-family="Helvetica,sans-Serif" font-size="10.00">&lt; DrawSpecs &gt;</text>
</a>
</g>
</g>
<!-- Node9&#45;&gt;Node12 -->
<g id="edge15" class="edge">
<title>Node9&#45;&gt;Node12</title>
<path fill="none" stroke="midnightblue" d="M100.77,-722.76C120.34,-715.39 145.4,-706.26 168,-699 178.75,-695.54 190.31,-692.11 201.44,-688.94"/>
<polygon fill="midnightblue" stroke="midnightblue" points="99.63,-719.83 91.52,-726.65 102.11,-726.37 99.63,-719.83"/>
</g>
<!-- Node10&#45;&gt;Node7 -->
<g id="edge10" class="edge">
<title>Node10&#45;&gt;Node7</title>
<path fill="none" stroke="midnightblue" d="M347.94,-756C432.2,-756 554.67,-756 613.48,-756"/>
<polygon fill="midnightblue" stroke="midnightblue" points="348.09,-752.5 338.09,-756 348.09,-759.5 348.09,-752.5"/>
</g>
<!-- Node11&#45;&gt;Node7 -->
<g id="edge12" class="edge">
<title>Node11&#45;&gt;Node7</title>
<path fill="none" stroke="midnightblue" d="M342.41,-726.12C426.73,-734.38 553.29,-746.77 613.42,-752.66"/>
<polygon fill="midnightblue" stroke="midnightblue" points="342.86,-722.55 332.57,-725.06 342.18,-729.52 342.86,-722.55"/>
</g>
<!-- Node12&#45;&gt;Node7 -->
<g id="edge14" class="edge">
<title>Node12&#45;&gt;Node7</title>
<path fill="none" stroke="midnightblue" d="M327.36,-678.57C385.54,-684.29 470.69,-697 540,-725 548.91,-728.6 549.14,-733.27 558,-737 575.42,-744.34 595.98,-748.96 613.01,-751.8"/>
<polygon fill="midnightblue" stroke="midnightblue" points="327.74,-675 317.46,-677.55 327.09,-681.97 327.74,-675"/>
</g>
<!-- Node13 -->
<g id="node13" class="node">
<title>Node13</title>
<g id="a_node13"><a xlink:href="classsciplot_1_1HistogramStyleSpecs.html" target="_top" xlink:title="The class used to specify histogram style options.">
<polygon fill="white" stroke="black" points="844.5,-708.5 844.5,-727.5 965.5,-727.5 965.5,-708.5 844.5,-708.5"/>
<text text-anchor="middle" x="905" y="-715.5" font-family="Helvetica,sans-Serif" font-size="10.00">HistogramStyleSpecs</text>
</a>
</g>
</g>
<!-- Node13&#45;&gt;Node1 -->
<g id="edge16" class="edge">
<title>Node13&#45;&gt;Node1</title>
<path fill="none" stroke="#9a32cd" stroke-dasharray="5,2" d="M952.68,-705.55C963.74,-702.17 975.4,-698.26 986,-694 987.9,-693.24 1115.78,-628.64 1117,-627 1138.3,-598.46 1148.34,-484.37 1150.85,-451.13"/>
<polygon fill="#9a32cd" stroke="#9a32cd" points="951.92,-702.42 943.32,-708.61 953.9,-709.13 951.92,-702.42"/>
<text text-anchor="middle" x="1060.5" y="-687" font-family="Helvetica,sans-Serif" font-size="10.00"> m_style_histogram</text>
</g>
<!-- Node14 -->
<g id="node14" class="node">
<title>Node14</title>
<g id="a_node14"><a xlink:href="classsciplot_1_1Specs.html" target="_top" xlink:title=" ">
<polygon fill="white" stroke="black" points="562.5,-708.5 562.5,-727.5 734.5,-727.5 734.5,-708.5 562.5,-708.5"/>
<text text-anchor="middle" x="648.5" y="-715.5" font-family="Helvetica,sans-Serif" font-size="10.00">Specs&lt; HistogramStyleSpecs &gt;</text>
</a>
</g>
</g>
<!-- Node14&#45;&gt;Node13 -->
<g id="edge17" class="edge">
<title>Node14&#45;&gt;Node13</title>
<path fill="none" stroke="midnightblue" d="M744.97,-718C778.38,-718 814.92,-718 844.54,-718"/>
<polygon fill="midnightblue" stroke="midnightblue" points="745.24,-714.5 735.24,-718 745.24,-721.5 745.24,-714.5"/>
</g>
<!-- Node15 -->
<g id="node15" class="node">
<title>Node15</title>
<g id="a_node15"><a xlink:title="STL class.">
<polygon fill="white" stroke="#bfbfbf" points="626.5,-603.5 626.5,-622.5 670.5,-622.5 670.5,-603.5 626.5,-603.5"/>
<text text-anchor="middle" x="648.5" y="-610.5" font-family="Helvetica,sans-Serif" font-size="10.00">string</text>
</a>
</g>
</g>
<!-- Node15&#45;&gt;Node1 -->
<g id="edge18" class="edge">
<title>Node15&#45;&gt;Node1</title>
<path fill="none" stroke="#9a32cd" stroke-dasharray="5,2" d="M681.06,-613.82C780.65,-616.12 1083.67,-620.76 1117,-593 1139.11,-574.59 1148.36,-481.44 1150.8,-451.37"/>
<polygon fill="#9a32cd" stroke="#9a32cd" points="681.3,-610.3 671.22,-613.56 681.13,-617.3 681.3,-610.3"/>
<text text-anchor="middle" x="905" y="-684" font-family="Helvetica,sans-Serif" font-size="10.00"> m_boxwidth</text>
<text text-anchor="middle" x="905" y="-673" font-family="Helvetica,sans-Serif" font-size="10.00">m_data</text>
<text text-anchor="middle" x="905" y="-662" font-family="Helvetica,sans-Serif" font-size="10.00">m_datafilename</text>
<text text-anchor="middle" x="905" y="-651" font-family="Helvetica,sans-Serif" font-size="10.00">m_palette</text>
<text text-anchor="middle" x="905" y="-640" font-family="Helvetica,sans-Serif" font-size="10.00">m_samples</text>
<text text-anchor="middle" x="905" y="-629" font-family="Helvetica,sans-Serif" font-size="10.00">m_xrange</text>
<text text-anchor="middle" x="905" y="-618" font-family="Helvetica,sans-Serif" font-size="10.00">m_yrange</text>
</g>
<!-- Node38 -->
<g id="node35" class="node">
<title>Node38</title>
<g id="a_node35"><a xlink:title=" ">
<polygon fill="white" stroke="#bfbfbf" points="845.5,-557.5 845.5,-576.5 964.5,-576.5 964.5,-557.5 845.5,-557.5"/>
<text text-anchor="middle" x="905" y="-564.5" font-family="Helvetica,sans-Serif" font-size="10.00">vector&lt; std::string &gt;</text>
</a>
</g>
</g>
<!-- Node15&#45;&gt;Node38 -->
<g id="edge42" class="edge">
<title>Node15&#45;&gt;Node38</title>
<path fill="none" stroke="#9a32cd" stroke-dasharray="5,2" d="M680.82,-604.96C702.18,-599.66 731.18,-592.84 757,-588 786.01,-582.56 818.48,-577.79 845.51,-574.17"/>
<polygon fill="#9a32cd" stroke="#9a32cd" points="680.25,-601.75 671.4,-607.57 681.95,-608.54 680.25,-601.75"/>
<text text-anchor="middle" x="781.5" y="-591" font-family="Helvetica,sans-Serif" font-size="10.00"> elements</text>
</g>
<!-- Node16 -->
<g id="node16" class="node">
<title>Node16</title>
<g id="a_node16"><a xlink:title="STL class.">
<polygon fill="white" stroke="#bfbfbf" points="199,-620.5 199,-639.5 318,-639.5 318,-620.5 199,-620.5"/>
<text text-anchor="middle" x="258.5" y="-627.5" font-family="Helvetica,sans-Serif" font-size="10.00">basic_string&lt; char &gt;</text>
</a>
</g>
</g>
<!-- Node16&#45;&gt;Node15 -->
<g id="edge19" class="edge">
<title>Node16&#45;&gt;Node15</title>
<path fill="none" stroke="midnightblue" d="M328.53,-626.98C418.66,-623.03 571.45,-616.33 626.75,-613.91"/>
<polygon fill="midnightblue" stroke="midnightblue" points="328.42,-623.52 318.59,-627.45 328.73,-630.51 328.42,-623.52"/>
</g>
<!-- Node17 -->
<g id="node17" class="node">
<title>Node17</title>
<g id="a_node17"><a xlink:href="classsciplot_1_1TicsSpecsMinor.html" target="_top" xlink:title="The class used to specify options for minor tics of a specific axis.">
<polygon fill="white" stroke="black" points="859,-513.5 859,-532.5 951,-532.5 951,-513.5 859,-513.5"/>
<text text-anchor="middle" x="905" y="-520.5" font-family="Helvetica,sans-Serif" font-size="10.00">TicsSpecsMinor</text>
</a>
</g>
</g>
<!-- Node17&#45;&gt;Node1 -->
<g id="edge20" class="edge">
<title>Node17&#45;&gt;Node1</title>
<path fill="none" stroke="#9a32cd" stroke-dasharray="5,2" d="M953.37,-511C969.41,-507.04 987.45,-502.71 1004,-499 1054.01,-487.79 1071.77,-500.1 1117,-476 1128.28,-469.99 1138.33,-459.13 1144.63,-451.3"/>
<polygon fill="#9a32cd" stroke="#9a32cd" points="953.01,-507.73 944.15,-513.54 954.7,-514.53 953.01,-507.73"/>
<text text-anchor="middle" x="1060.5" y="-557" font-family="Helvetica,sans-Serif" font-size="10.00"> m_rtics_minor</text>
<text text-anchor="middle" x="1060.5" y="-546" font-family="Helvetica,sans-Serif" font-size="10.00">m_xtics_minor_bottom</text>
<text text-anchor="middle" x="1060.5" y="-535" font-family="Helvetica,sans-Serif" font-size="10.00">m_xtics_minor_top</text>
<text text-anchor="middle" x="1060.5" y="-524" font-family="Helvetica,sans-Serif" font-size="10.00">m_ytics_minor_left</text>
<text text-anchor="middle" x="1060.5" y="-513" font-family="Helvetica,sans-Serif" font-size="10.00">m_ytics_minor_right</text>
<text text-anchor="middle" x="1060.5" y="-502" font-family="Helvetica,sans-Serif" font-size="10.00">m_ztics_minor</text>
</g>
<!-- Node18 -->
<g id="node18" class="node">
<title>Node18</title>
<g id="a_node18"><a xlink:href="classsciplot_1_1ShowSpecsOf.html" target="_top" xlink:title=" ">
<polygon fill="white" stroke="black" points="558,-560.5 558,-579.5 739,-579.5 739,-560.5 558,-560.5"/>
<text text-anchor="middle" x="648.5" y="-567.5" font-family="Helvetica,sans-Serif" font-size="10.00">ShowSpecsOf&lt; TicsSpecsMinor &gt;</text>
</a>
</g>
</g>
<!-- Node18&#45;&gt;Node17 -->
<g id="edge21" class="edge">
<title>Node18&#45;&gt;Node17</title>
<path fill="none" stroke="midnightblue" d="M711.37,-558.57C757.08,-550.13 818.24,-538.84 859.27,-531.26"/>
<polygon fill="midnightblue" stroke="midnightblue" points="710.89,-555.29 701.7,-560.55 712.17,-562.17 710.89,-555.29"/>
</g>
<!-- Node19 -->
<g id="node19" class="node">
<title>Node19</title>
<g id="a_node19"><a xlink:href="classsciplot_1_1Specs.html" target="_top" xlink:title=" ">
<polygon fill="white" stroke="black" points="187,-582.5 187,-601.5 330,-601.5 330,-582.5 187,-582.5"/>
<text text-anchor="middle" x="258.5" y="-589.5" font-family="Helvetica,sans-Serif" font-size="10.00">Specs&lt; TicsSpecsMinor &gt;</text>
</a>
</g>
</g>
<!-- Node19&#45;&gt;Node18 -->
<g id="edge22" class="edge">
<title>Node19&#45;&gt;Node18</title>
<path fill="none" stroke="midnightblue" d="M340.55,-587.4C404.18,-583.8 492.68,-578.78 558.31,-575.06"/>
<polygon fill="midnightblue" stroke="midnightblue" points="340.55,-583.96 330.76,-588.02 340.95,-590.94 340.55,-583.96"/>
</g>
<!-- Node20 -->
<g id="node20" class="node">
<title>Node20</title>
<g id="a_node20"><a xlink:href="classsciplot_1_1AxisLabelSpecs.html" target="_top" xlink:title="The specifications for an axis label (e.g., xlabel, ylabel, etc.)">
<polygon fill="white" stroke="black" points="859,-464.5 859,-483.5 951,-483.5 951,-464.5 859,-464.5"/>
<text text-anchor="middle" x="905" y="-471.5" font-family="Helvetica,sans-Serif" font-size="10.00">AxisLabelSpecs</text>
</a>
</g>
</g>
<!-- Node20&#45;&gt;Node1 -->
<g id="edge23" class="edge">
<title>Node20&#45;&gt;Node1</title>
<path fill="none" stroke="#9a32cd" stroke-dasharray="5,2" d="M938.98,-460.85C957.71,-454.07 981.79,-446.51 1004,-443 1051.3,-435.53 1108.2,-438.44 1135.44,-440.55"/>
<polygon fill="#9a32cd" stroke="#9a32cd" points="938.04,-457.83 929.89,-464.6 940.49,-464.39 938.04,-457.83"/>
<text text-anchor="middle" x="1060.5" y="-468" font-family="Helvetica,sans-Serif" font-size="10.00"> m_rlabel</text>
<text text-anchor="middle" x="1060.5" y="-457" font-family="Helvetica,sans-Serif" font-size="10.00">m_xlabel</text>
<text text-anchor="middle" x="1060.5" y="-446" font-family="Helvetica,sans-Serif" font-size="10.00">m_ylabel</text>
</g>
<!-- Node21 -->
<g id="node21" class="node">
<title>Node21</title>
<g id="a_node21"><a xlink:href="classsciplot_1_1TextSpecsOf.html" target="_top" xlink:title=" ">
<polygon fill="white" stroke="black" points="561,-512.5 561,-531.5 736,-531.5 736,-512.5 561,-512.5"/>
<text text-anchor="middle" x="648.5" y="-519.5" font-family="Helvetica,sans-Serif" font-size="10.00">TextSpecsOf&lt; AxisLabelSpecs &gt;</text>
</a>
</g>
</g>
<!-- Node21&#45;&gt;Node20 -->
<g id="edge24" class="edge">
<title>Node21&#45;&gt;Node20</title>
<path fill="none" stroke="midnightblue" d="M710.48,-510.5C756.31,-501.85 818.06,-490.21 859.36,-482.42"/>
<polygon fill="midnightblue" stroke="midnightblue" points="709.96,-507.22 700.78,-512.52 711.26,-514.1 709.96,-507.22"/>
</g>
<!-- Node22 -->
<g id="node22" class="node">
<title>Node22</title>
<g id="a_node22"><a xlink:href="classsciplot_1_1FontSpecsOf.html" target="_top" xlink:title=" ">
<polygon fill="white" stroke="red" points="170.5,-544.5 170.5,-563.5 346.5,-563.5 346.5,-544.5 170.5,-544.5"/>
<text text-anchor="middle" x="258.5" y="-551.5" font-family="Helvetica,sans-Serif" font-size="10.00">FontSpecsOf&lt; AxisLabelSpecs &gt;</text>
</a>
</g>
</g>
<!-- Node22&#45;&gt;Node21 -->
<g id="edge25" class="edge">
<title>Node22&#45;&gt;Node21</title>
<path fill="none" stroke="midnightblue" d="M356.81,-545.97C419.63,-540.79 500.64,-534.11 561.17,-529.12"/>
<polygon fill="midnightblue" stroke="midnightblue" points="356.77,-542.55 347.09,-546.86 357.35,-549.52 356.77,-542.55"/>
</g>
<!-- Node24 -->
<g id="node23" class="node">
<title>Node24</title>
<g id="a_node23"><a xlink:href="classsciplot_1_1TicsSpecs.html" target="_top" xlink:title="The class used to specify options for tics.">
<polygon fill="white" stroke="black" points="872.5,-404.5 872.5,-423.5 937.5,-423.5 937.5,-404.5 872.5,-404.5"/>
<text text-anchor="middle" x="905" y="-411.5" font-family="Helvetica,sans-Serif" font-size="10.00">TicsSpecs</text>
</a>
</g>
</g>
<!-- Node24&#45;&gt;Node1 -->
<g id="edge26" class="edge">
<title>Node24&#45;&gt;Node1</title>
<path fill="none" stroke="#9a32cd" stroke-dasharray="5,2" d="M947.97,-403.57C991.83,-394.79 1061.82,-386.86 1117,-409 1128.85,-413.75 1138.92,-424.73 1145.08,-432.72"/>
<polygon fill="#9a32cd" stroke="#9a32cd" points="947.46,-400.31 938.4,-405.8 948.91,-407.16 947.46,-400.31"/>
<text text-anchor="middle" x="1060.5" y="-412" font-family="Helvetica,sans-Serif" font-size="10.00"> m_tics</text>
</g>
<!-- Node25 -->
<g id="node24" class="node">
<title>Node25</title>
<g id="a_node24"><a xlink:href="classsciplot_1_1TicsSpecsBaseOf.html" target="_top" xlink:title=" ">
<polygon fill="white" stroke="black" points="563.5,-454.5 563.5,-473.5 733.5,-473.5 733.5,-454.5 563.5,-454.5"/>
<text text-anchor="middle" x="648.5" y="-461.5" font-family="Helvetica,sans-Serif" font-size="10.00">TicsSpecsBaseOf&lt; TicsSpecs &gt;</text>
</a>
</g>
</g>
<!-- Node25&#45;&gt;Node24 -->
<g id="edge27" class="edge">
<title>Node25&#45;&gt;Node24</title>
<path fill="none" stroke="midnightblue" d="M708.28,-452.45C759.58,-442.37 832.04,-428.14 872.86,-420.12"/>
<polygon fill="midnightblue" stroke="midnightblue" points="707.81,-449.17 698.67,-454.54 709.16,-456.04 707.81,-449.17"/>
</g>
<!-- Node26 -->
<g id="node25" class="node">
<title>Node26</title>
<g id="a_node25"><a xlink:href="classsciplot_1_1TextSpecsOf.html" target="_top" xlink:title=" ">
<polygon fill="white" stroke="red" points="185,-506.5 185,-525.5 332,-525.5 332,-506.5 185,-506.5"/>
<text text-anchor="middle" x="258.5" y="-513.5" font-family="Helvetica,sans-Serif" font-size="10.00">TextSpecsOf&lt; TicsSpecs &gt;</text>
</a>
</g>
</g>
<!-- Node26&#45;&gt;Node25 -->
<g id="edge28" class="edge">
<title>Node26&#45;&gt;Node25</title>
<path fill="none" stroke="midnightblue" d="M342.7,-508.63C398.63,-503.22 473.93,-495.09 540,-485 560.96,-481.8 584.05,-477.4 603.45,-473.46"/>
<polygon fill="midnightblue" stroke="midnightblue" points="342.4,-505.24 332.78,-509.67 343.07,-512.2 342.4,-505.24"/>
</g>
<!-- Node29 -->
<g id="node26" class="node">
<title>Node29</title>
<g id="a_node26"><a xlink:href="classsciplot_1_1OffsetSpecsOf.html" target="_top" xlink:title=" ">
<polygon fill="white" stroke="red" points="180.5,-468.5 180.5,-487.5 336.5,-487.5 336.5,-468.5 180.5,-468.5"/>
<text text-anchor="middle" x="258.5" y="-475.5" font-family="Helvetica,sans-Serif" font-size="10.00">OffsetSpecsOf&lt; TicsSpecs &gt;</text>
</a>
</g>
</g>
<!-- Node29&#45;&gt;Node25 -->
<g id="edge29" class="edge">
<title>Node29&#45;&gt;Node25</title>
<path fill="none" stroke="midnightblue" d="M346.76,-474.85C411.62,-472.51 499.57,-469.34 563.6,-467.03"/>
<polygon fill="midnightblue" stroke="midnightblue" points="347.02,-471.38 337.16,-475.23 347.28,-478.37 347.02,-471.38"/>
</g>
<!-- Node30 -->
<g id="node27" class="node">
<title>Node30</title>
<g id="a_node27"><a xlink:href="classsciplot_1_1ShowSpecsOf.html" target="_top" xlink:title=" ">
<polygon fill="white" stroke="red" points="182,-430.5 182,-449.5 335,-449.5 335,-430.5 182,-430.5"/>
<text text-anchor="middle" x="258.5" y="-437.5" font-family="Helvetica,sans-Serif" font-size="10.00">ShowSpecsOf&lt; TicsSpecs &gt;</text>
</a>
</g>
</g>
<!-- Node30&#45;&gt;Node25 -->
<g id="edge30" class="edge">
<title>Node30&#45;&gt;Node25</title>
<path fill="none" stroke="midnightblue" d="M345.4,-445.31C410.4,-449.33 499.2,-454.83 563.69,-458.82"/>
<polygon fill="midnightblue" stroke="midnightblue" points="345.97,-441.78 335.77,-444.66 345.54,-448.77 345.97,-441.78"/>
</g>
<!-- Node31 -->
<g id="node28" class="node">
<title>Node31</title>
<g id="a_node28"><a xlink:href="classsciplot_1_1LegendSpecs.html" target="_top" xlink:title="The class used to specify options for legend.">
<polygon fill="white" stroke="black" points="865,-354.5 865,-373.5 945,-373.5 945,-354.5 865,-354.5"/>
<text text-anchor="middle" x="905" y="-361.5" font-family="Helvetica,sans-Serif" font-size="10.00">LegendSpecs</text>
</a>
</g>
</g>
<!-- Node31&#45;&gt;Node1 -->
<g id="edge31" class="edge">
<title>Node31&#45;&gt;Node1</title>
<path fill="none" stroke="#9a32cd" stroke-dasharray="5,2" d="M955.66,-354.88C1001.27,-349.26 1068.88,-348.13 1117,-379 1136.31,-391.39 1145.69,-418.51 1149.43,-432.79"/>
<polygon fill="#9a32cd" stroke="#9a32cd" points="955.28,-351.54 945.85,-356.35 956.23,-358.47 955.28,-351.54"/>
<text text-anchor="middle" x="1060.5" y="-382" font-family="Helvetica,sans-Serif" font-size="10.00"> m_legend</text>
</g>
<!-- Node32 -->
<g id="node29" class="node">
<title>Node32</title>
<g id="a_node29"><a xlink:href="classsciplot_1_1TextSpecsOf.html" target="_top" xlink:title=" ">
<polygon fill="white" stroke="black" points="567,-392.5 567,-411.5 730,-411.5 730,-392.5 567,-392.5"/>
<text text-anchor="middle" x="648.5" y="-399.5" font-family="Helvetica,sans-Serif" font-size="10.00">TextSpecsOf&lt; LegendSpecs &gt;</text>
</a>
</g>
</g>
<!-- Node32&#45;&gt;Node31 -->
<g id="edge32" class="edge">
<title>Node32&#45;&gt;Node31</title>
<path fill="none" stroke="midnightblue" d="M723.68,-390.92C770.05,-384 827.87,-375.37 865.34,-369.77"/>
<polygon fill="midnightblue" stroke="midnightblue" points="723.44,-387.57 714.06,-392.51 724.47,-394.49 723.44,-387.57"/>
</g>
<!-- Node33 -->
<g id="node30" class="node">
<title>Node33</title>
<g id="a_node30"><a xlink:href="classsciplot_1_1FontSpecsOf.html" target="_top" xlink:title=" ">
<polygon fill="white" stroke="black" points="176.5,-392.5 176.5,-411.5 340.5,-411.5 340.5,-392.5 176.5,-392.5"/>
<text text-anchor="middle" x="258.5" y="-399.5" font-family="Helvetica,sans-Serif" font-size="10.00">FontSpecsOf&lt; LegendSpecs &gt;</text>
</a>
</g>
</g>
<!-- Node33&#45;&gt;Node32 -->
<g id="edge33" class="edge">
<title>Node33&#45;&gt;Node32</title>
<path fill="none" stroke="midnightblue" d="M351.11,-402C416.7,-402 504.18,-402 567.07,-402"/>
<polygon fill="midnightblue" stroke="midnightblue" points="351.37,-398.5 341.37,-402 351.37,-405.5 351.37,-398.5"/>
</g>
<!-- Node34 -->
<g id="node31" class="node">
<title>Node34</title>
<g id="a_node31"><a xlink:href="classsciplot_1_1Specs.html" target="_top" xlink:title=" ">
<polygon fill="white" stroke="black" points="0,-335.5 0,-354.5 131,-354.5 131,-335.5 0,-335.5"/>
<text text-anchor="middle" x="65.5" y="-342.5" font-family="Helvetica,sans-Serif" font-size="10.00">Specs&lt; LegendSpecs &gt;</text>
</a>
</g>
</g>
<!-- Node34&#45;&gt;Node33 -->
<g id="edge34" class="edge">
<title>Node34&#45;&gt;Node33</title>
<path fill="none" stroke="midnightblue" d="M97.17,-358.65C112.52,-365.13 131.51,-372.61 149,-378 167.53,-383.71 188.23,-388.64 206.54,-392.52"/>
<polygon fill="midnightblue" stroke="midnightblue" points="98.75,-355.09 88.19,-354.37 95.99,-361.53 98.75,-355.09"/>
</g>
<!-- Node35 -->
<g id="node32" class="node">
<title>Node35</title>
<g id="a_node32"><a xlink:href="classsciplot_1_1ShowSpecsOf.html" target="_top" xlink:title=" ">
<polygon fill="white" stroke="black" points="369,-354.5 369,-373.5 538,-373.5 538,-354.5 369,-354.5"/>
<text text-anchor="middle" x="453.5" y="-361.5" font-family="Helvetica,sans-Serif" font-size="10.00">ShowSpecsOf&lt; LegendSpecs &gt;</text>
</a>
</g>
</g>
<!-- Node34&#45;&gt;Node35 -->
<g id="edge36" class="edge">
<title>Node34&#45;&gt;Node35</title>
<path fill="none" stroke="midnightblue" d="M141.31,-348.68C206.7,-351.9 301.52,-356.57 369.28,-359.9"/>
<polygon fill="midnightblue" stroke="midnightblue" points="141.83,-345.15 131.67,-348.16 141.49,-352.15 141.83,-345.15"/>
</g>
<!-- Node36 -->
<g id="node33" class="node">
<title>Node36</title>
<g id="a_node33"><a xlink:href="classsciplot_1_1TitleSpecsOf.html" target="_top" xlink:title=" ">
<polygon fill="white" stroke="black" points="371.5,-316.5 371.5,-335.5 535.5,-335.5 535.5,-316.5 371.5,-316.5"/>
<text text-anchor="middle" x="453.5" y="-323.5" font-family="Helvetica,sans-Serif" font-size="10.00">TitleSpecsOf&lt; LegendSpecs &gt;</text>
</a>
</g>
</g>
<!-- Node34&#45;&gt;Node36 -->
<g id="edge38" class="edge">
<title>Node34&#45;&gt;Node36</title>
<path fill="none" stroke="midnightblue" d="M141.44,-341.31C207.61,-338.05 303.86,-333.32 371.74,-329.98"/>
<polygon fill="midnightblue" stroke="midnightblue" points="141.49,-337.85 131.67,-341.84 141.83,-344.85 141.49,-337.85"/>
</g>
<!-- Node37 -->
<g id="node34" class="node">
<title>Node37</title>
<g id="a_node34"><a xlink:href="classsciplot_1_1FrameSpecsOf.html" target="_top" xlink:title=" ">
<polygon fill="white" stroke="black" points="367,-278.5 367,-297.5 540,-297.5 540,-278.5 367,-278.5"/>
<text text-anchor="middle" x="453.5" y="-285.5" font-family="Helvetica,sans-Serif" font-size="10.00">FrameSpecsOf&lt; LegendSpecs &gt;</text>
</a>
</g>
</g>
<!-- Node34&#45;&gt;Node37 -->
<g id="edge40" class="edge">
<title>Node34&#45;&gt;Node37</title>
<path fill="none" stroke="midnightblue" d="M128.35,-333.63C141.42,-331.34 155.15,-329.02 168,-327 238.92,-315.86 320.07,-304.91 377.51,-297.46"/>
<polygon fill="midnightblue" stroke="midnightblue" points="127.79,-330.35 118.55,-335.54 129.01,-337.25 127.79,-330.35"/>
</g>
<!-- Node35&#45;&gt;Node31 -->
<g id="edge35" class="edge">
<title>Node35&#45;&gt;Node31</title>
<path fill="none" stroke="midnightblue" d="M548.79,-364C646.73,-364 795.24,-364 865.09,-364"/>
<polygon fill="midnightblue" stroke="midnightblue" points="548.99,-360.5 538.99,-364 548.99,-367.5 548.99,-360.5"/>
</g>
<!-- Node36&#45;&gt;Node31 -->
<g id="edge37" class="edge">
<title>Node36&#45;&gt;Node31</title>
<path fill="none" stroke="midnightblue" d="M546.17,-333.75C644.1,-342.03 794.73,-354.76 865.17,-360.72"/>
<polygon fill="midnightblue" stroke="midnightblue" points="546.64,-330.19 536.38,-332.84 546.05,-337.17 546.64,-330.19"/>
</g>
<!-- Node37&#45;&gt;Node31 -->
<g id="edge39" class="edge">
<title>Node37&#45;&gt;Node31</title>
<path fill="none" stroke="midnightblue" d="M537.33,-298.97C594.19,-306.8 671.33,-318.04 739,-330 782.35,-337.66 831.75,-348.06 865.11,-355.34"/>
<polygon fill="midnightblue" stroke="midnightblue" points="537.97,-295.38 527.59,-297.49 537.02,-302.32 537.97,-295.38"/>
</g>
<!-- Node38&#45;&gt;Node1 -->
<g id="edge41" class="edge">
<title>Node38&#45;&gt;Node1</title>
<path fill="none" stroke="#9a32cd" stroke-dasharray="5,2" d="M975.18,-575.01C1028.06,-579.57 1095.43,-581.51 1117,-565 1135.4,-550.91 1146.75,-477.84 1150.3,-451.49"/>
<polygon fill="#9a32cd" stroke="#9a32cd" points="975.75,-571.45 965.47,-574.03 975.12,-578.42 975.75,-571.45"/>
<text text-anchor="middle" x="1060.5" y="-581" font-family="Helvetica,sans-Serif" font-size="10.00"> m_customcmds</text>
</g>
<!-- Node39 -->
<g id="node36" class="node">
<title>Node39</title>
<g id="a_node36"><a xlink:href="classsciplot_1_1FillStyleSpecs.html" target="_top" xlink:title="The class used to attach color or pattern fill options to a type.">
<polygon fill="white" stroke="black" points="863,-278.5 863,-297.5 947,-297.5 947,-278.5 863,-278.5"/>
<text text-anchor="middle" x="905" y="-285.5" font-family="Helvetica,sans-Serif" font-size="10.00">FillStyleSpecs</text>
</a>
</g>
</g>
<!-- Node39&#45;&gt;Node1 -->
<g id="edge43" class="edge">
<title>Node39&#45;&gt;Node1</title>
<path fill="none" stroke="#9a32cd" stroke-dasharray="5,2" d="M957.52,-296.98C1016.11,-307.62 1105.21,-325.24 1117,-336 1145.59,-362.1 1150.56,-412.11 1151.37,-432.75"/>
<polygon fill="#9a32cd" stroke="#9a32cd" points="958.43,-293.41 947.97,-295.08 957.19,-300.3 958.43,-293.41"/>
<text text-anchor="middle" x="1060.5" y="-339" font-family="Helvetica,sans-Serif" font-size="10.00"> m_style_fill</text>
</g>
<!-- Node40 -->
<g id="node37" class="node">
<title>Node40</title>
<g id="a_node37"><a xlink:href="classsciplot_1_1Specs.html" target="_top" xlink:title=" ">
<polygon fill="white" stroke="black" points="581,-240.5 581,-259.5 716,-259.5 716,-240.5 581,-240.5"/>
<text text-anchor="middle" x="648.5" y="-247.5" font-family="Helvetica,sans-Serif" font-size="10.00">Specs&lt; FillStyleSpecs &gt;</text>
</a>
</g>
</g>
<!-- Node40&#45;&gt;Node39 -->
<g id="edge44" class="edge">
<title>Node40&#45;&gt;Node39</title>
<path fill="none" stroke="midnightblue" d="M723.76,-261.09C769.2,-267.87 825.6,-276.29 863.08,-281.89"/>
<polygon fill="midnightblue" stroke="midnightblue" points="724.47,-257.51 714.06,-259.49 723.44,-264.43 724.47,-257.51"/>
</g>
<!-- Node41 -->
<g id="node38" class="node">
<title>Node41</title>
<g id="a_node38"><a xlink:href="classsciplot_1_1TicsSpecsMajor.html" target="_top" xlink:title="The class used to specify options for major tics of a specific axis.">
<polygon fill="white" stroke="black" points="859,-214.5 859,-233.5 951,-233.5 951,-214.5 859,-214.5"/>
<text text-anchor="middle" x="905" y="-221.5" font-family="Helvetica,sans-Serif" font-size="10.00">TicsSpecsMajor</text>
</a>
</g>
</g>
<!-- Node41&#45;&gt;Node1 -->
<g id="edge45" class="edge">
<title>Node41&#45;&gt;Node1</title>
<path fill="none" stroke="#9a32cd" stroke-dasharray="5,2" d="M949,-212.1C996.29,-201.87 1071.56,-194.43 1117,-235 1147.03,-261.81 1150.92,-396.6 1151.43,-432.95"/>
<polygon fill="#9a32cd" stroke="#9a32cd" points="948.45,-208.86 939.49,-214.52 950.02,-215.68 948.45,-208.86"/>
<text text-anchor="middle" x="1060.5" y="-293" font-family="Helvetica,sans-Serif" font-size="10.00"> m_rtics_major</text>
<text text-anchor="middle" x="1060.5" y="-282" font-family="Helvetica,sans-Serif" font-size="10.00">m_xtics_major_bottom</text>
<text text-anchor="middle" x="1060.5" y="-271" font-family="Helvetica,sans-Serif" font-size="10.00">m_xtics_major_top</text>
<text text-anchor="middle" x="1060.5" y="-260" font-family="Helvetica,sans-Serif" font-size="10.00">m_ytics_major_left</text>
<text text-anchor="middle" x="1060.5" y="-249" font-family="Helvetica,sans-Serif" font-size="10.00">m_ytics_major_right</text>
<text text-anchor="middle" x="1060.5" y="-238" font-family="Helvetica,sans-Serif" font-size="10.00">m_ztics_major</text>
</g>
<!-- Node42 -->
<g id="node39" class="node">
<title>Node42</title>
<g id="a_node39"><a xlink:href="classsciplot_1_1TicsSpecsBaseOf.html" target="_top" xlink:title=" ">
<polygon fill="white" stroke="black" points="569,-191 569,-221 728,-221 728,-191 569,-191"/>
<text text-anchor="start" x="577" y="-209" font-family="Helvetica,sans-Serif" font-size="10.00">TicsSpecsBaseOf&lt; TicsSpecs</text>
<text text-anchor="middle" x="648.5" y="-198" font-family="Helvetica,sans-Serif" font-size="10.00">Major &gt;</text>
</a>
</g>
</g>
<!-- Node42&#45;&gt;Node41 -->
<g id="edge46" class="edge">
<title>Node42&#45;&gt;Node41</title>
<path fill="none" stroke="midnightblue" d="M738.7,-212.31C779.43,-215.19 825.88,-218.47 859.15,-220.83"/>
<polygon fill="midnightblue" stroke="midnightblue" points="739.16,-208.76 728.94,-211.55 738.66,-215.74 739.16,-208.76"/>
</g>
<!-- Node43 -->
<g id="node40" class="node">
<title>Node43</title>
<g id="a_node40"><a xlink:href="classsciplot_1_1TextSpecsOf.html" target="_top" xlink:title=" ">
<polygon fill="white" stroke="red" points="171,-240.5 171,-259.5 346,-259.5 346,-240.5 171,-240.5"/>
<text text-anchor="middle" x="258.5" y="-247.5" font-family="Helvetica,sans-Serif" font-size="10.00">TextSpecsOf&lt; TicsSpecsMajor &gt;</text>
</a>
</g>
</g>
<!-- Node43&#45;&gt;Node42 -->
<g id="edge47" class="edge">
<title>Node43&#45;&gt;Node42</title>
<path fill="none" stroke="midnightblue" d="M356.42,-240.19C410.48,-234.58 479.02,-227.23 540,-220 549.44,-218.88 559.34,-217.66 569.15,-216.42"/>
<polygon fill="midnightblue" stroke="midnightblue" points="356.39,-236.78 346.8,-241.29 357.11,-243.74 356.39,-236.78"/>
</g>
<!-- Node46 -->
<g id="node41" class="node">
<title>Node46</title>
<g id="a_node41"><a xlink:href="classsciplot_1_1OffsetSpecsOf.html" target="_top" xlink:title=" ">
<polygon fill="white" stroke="red" points="186,-191 186,-221 331,-221 331,-191 186,-191"/>
<text text-anchor="start" x="194" y="-209" font-family="Helvetica,sans-Serif" font-size="10.00">OffsetSpecsOf&lt; TicsSpecs</text>
<text text-anchor="middle" x="258.5" y="-198" font-family="Helvetica,sans-Serif" font-size="10.00">Major &gt;</text>
</a>
</g>
</g>
<!-- Node46&#45;&gt;Node42 -->
<g id="edge48" class="edge">
<title>Node46&#45;&gt;Node42</title>
<path fill="none" stroke="midnightblue" d="M341.61,-206C408.74,-206 503.02,-206 569.12,-206"/>
<polygon fill="midnightblue" stroke="midnightblue" points="341.67,-202.5 331.67,-206 341.67,-209.5 341.67,-202.5"/>
</g>
<!-- Node47 -->
<g id="node42" class="node">
<title>Node47</title>
<g id="a_node42"><a xlink:href="classsciplot_1_1ShowSpecsOf.html" target="_top" xlink:title=" ">
<polygon fill="white" stroke="red" points="168,-152.5 168,-171.5 349,-171.5 349,-152.5 168,-152.5"/>
<text text-anchor="middle" x="258.5" y="-159.5" font-family="Helvetica,sans-Serif" font-size="10.00">ShowSpecsOf&lt; TicsSpecsMajor &gt;</text>
</a>
</g>
</g>
<!-- Node47&#45;&gt;Node42 -->
<g id="edge49" class="edge">
<title>Node47&#45;&gt;Node42</title>
<path fill="none" stroke="midnightblue" d="M354.03,-172.72C420.04,-180.21 507.11,-190.08 569.22,-197.12"/>
<polygon fill="midnightblue" stroke="midnightblue" points="354.54,-169.14 344.21,-171.49 353.75,-176.1 354.54,-169.14"/>
</g>
<!-- Node48 -->
<g id="node43" class="node">
<title>Node48</title>
<g id="a_node43"><a xlink:href="classsciplot_1_1GridSpecs.html" target="_top" xlink:title="The class used to specify options for grid.">
<polygon fill="white" stroke="black" points="872.5,-140.5 872.5,-159.5 937.5,-159.5 937.5,-140.5 872.5,-140.5"/>
<text text-anchor="middle" x="905" y="-147.5" font-family="Helvetica,sans-Serif" font-size="10.00">GridSpecs</text>
</a>
</g>
</g>
<!-- Node48&#45;&gt;Node1 -->
<g id="edge50" class="edge">
<title>Node48&#45;&gt;Node1</title>
<path fill="none" stroke="#9a32cd" stroke-dasharray="5,2" d="M948.01,-144.63C996.08,-141.06 1073.71,-143.61 1117,-189 1151.19,-224.85 1151.98,-390.94 1151.63,-432.54"/>
<polygon fill="#9a32cd" stroke="#9a32cd" points="948.01,-141.2 938.35,-145.56 948.62,-148.18 948.01,-141.2"/>
<text text-anchor="middle" x="1060.5" y="-192" font-family="Helvetica,sans-Serif" font-size="10.00"> m_grid</text>
</g>
<!-- Node49 -->
<g id="node44" class="node">
<title>Node49</title>
<g id="a_node44"><a xlink:href="classsciplot_1_1GridSpecsBase.html" target="_top" xlink:title="The class used to specify options for grid lines along axis tics (major or minor).">
<polygon fill="white" stroke="black" points="604,-87.5 604,-106.5 693,-106.5 693,-87.5 604,-87.5"/>
<text text-anchor="middle" x="648.5" y="-94.5" font-family="Helvetica,sans-Serif" font-size="10.00">GridSpecsBase</text>
</a>
</g>
</g>
<!-- Node49&#45;&gt;Node48 -->
<g id="edge51" class="edge">
<title>Node49&#45;&gt;Node48</title>
<path fill="none" stroke="midnightblue" d="M703.55,-108.26C755,-118.97 830.64,-134.72 872.76,-143.49"/>
<polygon fill="midnightblue" stroke="midnightblue" points="704.46,-104.66 693.96,-106.05 703.04,-111.52 704.46,-104.66"/>
</g>
<!-- Node50 -->
<g id="node45" class="node">
<title>Node50</title>
<g id="a_node45"><a xlink:href="classsciplot_1_1LineSpecsOf.html" target="_top" xlink:title=" ">
<polygon fill="white" stroke="red" points="172.5,-114.5 172.5,-133.5 344.5,-133.5 344.5,-114.5 172.5,-114.5"/>
<text text-anchor="middle" x="258.5" y="-121.5" font-family="Helvetica,sans-Serif" font-size="10.00">LineSpecsOf&lt; GridSpecsBase &gt;</text>
</a>
</g>
</g>
<!-- Node50&#45;&gt;Node49 -->
<g id="edge52" class="edge">
<title>Node50&#45;&gt;Node49</title>
<path fill="none" stroke="midnightblue" d="M354.85,-117.7C409.13,-114.07 478.38,-109.38 540,-105 561.09,-103.5 584.51,-101.77 604.09,-100.3"/>
<polygon fill="midnightblue" stroke="midnightblue" points="354.95,-114.25 345.21,-118.41 355.42,-121.24 354.95,-114.25"/>
</g>
<!-- Node52 -->
<g id="node46" class="node">
<title>Node52</title>
<g id="a_node46"><a xlink:href="classsciplot_1_1DepthSpecsOf.html" target="_top" xlink:title=" ">
<polygon fill="white" stroke="red" points="168,-76.5 168,-95.5 349,-95.5 349,-76.5 168,-76.5"/>
<text text-anchor="middle" x="258.5" y="-83.5" font-family="Helvetica,sans-Serif" font-size="10.00">DepthSpecsOf&lt; GridSpecsBase &gt;</text>
</a>
</g>
</g>
<!-- Node52&#45;&gt;Node49 -->
<g id="edge53" class="edge">
<title>Node52&#45;&gt;Node49</title>
<path fill="none" stroke="midnightblue" d="M359.49,-88.83C438.64,-91.08 545.32,-94.1 604.11,-95.77"/>
<polygon fill="midnightblue" stroke="midnightblue" points="359.61,-85.31 349.52,-88.52 359.41,-92.31 359.61,-85.31"/>
</g>
<!-- Node53 -->
<g id="node47" class="node">
<title>Node53</title>
<g id="a_node47"><a xlink:href="classsciplot_1_1ShowSpecsOf.html" target="_top" xlink:title=" ">
<polygon fill="white" stroke="red" points="169.5,-38.5 169.5,-57.5 347.5,-57.5 347.5,-38.5 169.5,-38.5"/>
<text text-anchor="middle" x="258.5" y="-45.5" font-family="Helvetica,sans-Serif" font-size="10.00">ShowSpecsOf&lt; GridSpecsBase &gt;</text>
</a>
</g>
</g>
<!-- Node53&#45;&gt;Node49 -->
<g id="edge54" class="edge">
<title>Node53&#45;&gt;Node49</title>
<path fill="none" stroke="midnightblue" d="M344.88,-58.78C425.06,-68.91 541.75,-83.65 604.21,-91.53"/>
<polygon fill="midnightblue" stroke="midnightblue" points="345.67,-55.23 335.31,-57.45 344.79,-62.17 345.67,-55.23"/>
</g>
<!-- Node54 -->
<g id="node48" class="node">
<title>Node54</title>
<g id="a_node48"><a xlink:href="classsciplot_1_1FontSpecs.html" target="_top" xlink:title="The class used to specify font options.">
<polygon fill="white" stroke="black" points="872,-74.5 872,-93.5 938,-93.5 938,-74.5 872,-74.5"/>
<text text-anchor="middle" x="905" y="-81.5" font-family="Helvetica,sans-Serif" font-size="10.00">FontSpecs</text>
</a>
</g>
</g>
<!-- Node54&#45;&gt;Node1 -->
<g id="edge55" class="edge">
<title>Node54&#45;&gt;Node1</title>
<path fill="none" stroke="#9a32cd" stroke-dasharray="5,2" d="M948.36,-79.77C996.76,-77.51 1074.7,-82.22 1117,-129 1137.95,-152.16 1148.99,-383.34 1151.12,-432.74"/>
<polygon fill="#9a32cd" stroke="#9a32cd" points="948.4,-76.32 938.62,-80.4 948.81,-83.31 948.4,-76.32"/>
<text text-anchor="middle" x="1060.5" y="-132" font-family="Helvetica,sans-Serif" font-size="10.00"> m_font</text>
</g>
<!-- Node55 -->
<g id="node49" class="node">
<title>Node55</title>
<g id="a_node49"><a xlink:href="classsciplot_1_1FontSpecsOf.html" target="_top" xlink:title=" ">
<polygon fill="white" stroke="black" points="574,-30.5 574,-49.5 723,-49.5 723,-30.5 574,-30.5"/>
<text text-anchor="middle" x="648.5" y="-37.5" font-family="Helvetica,sans-Serif" font-size="10.00">FontSpecsOf&lt; FontSpecs &gt;</text>
</a>
</g>
</g>
<!-- Node55&#45;&gt;Node54 -->
<g id="edge56" class="edge">
<title>Node55&#45;&gt;Node54</title>
<path fill="none" stroke="midnightblue" d="M715.21,-51.36C765.59,-60.07 832.91,-71.71 872.06,-78.48"/>
<polygon fill="midnightblue" stroke="midnightblue" points="715.86,-47.75 705.41,-49.49 714.67,-54.65 715.86,-47.75"/>
</g>
<!-- Node56 -->
<g id="node50" class="node">
<title>Node56</title>
<g id="a_node50"><a xlink:href="classsciplot_1_1Specs.html" target="_top" xlink:title=" ">
<polygon fill="white" stroke="black" points="200,-0.5 200,-19.5 317,-19.5 317,-0.5 200,-0.5"/>
<text text-anchor="middle" x="258.5" y="-7.5" font-family="Helvetica,sans-Serif" font-size="10.00">Specs&lt; FontSpecs &gt;</text>
</a>
</g>
</g>
<!-- Node56&#45;&gt;Node55 -->
<g id="edge57" class="edge">
<title>Node56&#45;&gt;Node55</title>
<path fill="none" stroke="midnightblue" d="M327.5,-15.26C396.56,-20.6 503.15,-28.84 574.09,-34.32"/>
<polygon fill="midnightblue" stroke="midnightblue" points="327.99,-11.71 317.75,-14.43 327.45,-18.69 327.99,-11.71"/>
</g>
</g>
</svg>
