<?xml version="1.0" encoding="UTF-8" standalone="no"?>
<!DOCTYPE svg PUBLIC "-//W3C//DTD SVG 1.1//EN"
 "http://www.w3.org/Graphics/SVG/1.1/DTD/svg11.dtd">
<!-- Generated by graphviz version 5.0.1 (20220821.0811)
 -->
<!-- Title: Plot Pages: 1 -->
<svg width="1178pt" height="850pt"
 viewBox="0.00 0.00 1178.00 850.00" xmlns="http://www.w3.org/2000/svg" xmlns:xlink="http://www.w3.org/1999/xlink">
<g id="graph0" class="graph" transform="scale(1 1) rotate(0) translate(4 846)">
<title>Plot</title>
<polygon fill="white" stroke="none" points="-4,4 -4,-846 1174,-846 1174,4 -4,4"/>
<!-- Node1 -->
<g id="node1" class="node">
<title>Node1</title>
<g id="a_node1"><a xlink:title="The class used to create a plot containing graphical elements.">
<polygon fill="#bfbfbf" stroke="black" points="1135,-432.5 1135,-451.5 1170,-451.5 1170,-432.5 1135,-432.5"/>
<text text-anchor="middle" x="1152.5" y="-439.5" font-family="Helvetica,sans-Serif" font-size="10.00">Plot</text>
</a>
</g>
</g>
<!-- Node2 -->
<g id="node2" class="node">
<title>Node2</title>
<g id="a_node2"><a xlink:href="classsciplot_1_1BorderSpecs.html" target="_top" xlink:title="The class used to specify options for plot border.">
<polygon fill="white" stroke="black" points="866.5,-784.5 866.5,-803.5 943.5,-803.5 943.5,-784.5 866.5,-784.5"/>
<text text-anchor="middle" x="905" y="-791.5" font-family="Helvetica,sans-Serif" font-size="10.00">BorderSpecs</text>
</a>
</g>
</g>
<!-- Node2&#45;&gt;Node1 -->
<g id="edge1" class="edge">
<title>Node2&#45;&gt;Node1</title>
<path fill="none" stroke="#9a32cd" stroke-dasharray="5,2" d="M953.74,-794.69C1002.82,-792.57 1077.49,-780.94 1117,-733 1153.48,-688.73 1152.46,-496.66 1151.7,-451.52"/>
<polygon fill="#9a32cd" stroke="#9a32cd" points="953.56,-791.19 943.67,-795 953.78,-798.19 953.56,-791.19"/>
<text text-anchor="middle" x="1060.5" y="-792" font-family="Helvetica,sans-Serif" font-size="10.00"> m_border</text>
</g>
<!-- Node3 -->
<g id="node3" class="node">
<title>Node3</title>
<g id="a_node3"><a xlink:href="classsciplot_1_1LineSpecsOf.html" target="_top" xlink:title=" ">
<polygon fill="white" stroke="black" points="568.5,-822.5 568.5,-841.5 728.5,-841.5 728.5,-822.5 568.5,-822.5"/>
<text text-anchor="middle" x="648.5" y="-829.5" font-family="Helvetica,sans-Serif" font-size="10.00">LineSpecsOf&lt; BorderSpecs &gt;</text>
</a>
</g>
</g>
<!-- Node3&#45;&gt;Node2 -->
<g id="edge2" class="edge">
<title>Node3&#45;&gt;Node2</title>
<path fill="none" stroke="midnightblue" d="M723.48,-820.95C770.23,-813.97 828.69,-805.25 866.19,-799.65"/>
<polygon fill="midnightblue" stroke="midnightblue" points="722.77,-817.52 713.39,-822.46 723.8,-824.44 722.77,-817.52"/>
</g>
<!-- Node4 -->
<g id="node4" class="node">
<title>Node4</title>
<g id="a_node4"><a xlink:href="classsciplot_1_1Specs.html" target="_top" xlink:title=" ">
<polygon fill="white" stroke="black" points="194.5,-822.5 194.5,-841.5 322.5,-841.5 322.5,-822.5 194.5,-822.5"/>
<text text-anchor="middle" x="258.5" y="-829.5" font-family="Helvetica,sans-Serif" font-size="10.00">Specs&lt; BorderSpecs &gt;</text>
</a>
</g>
</g>
<!-- Node4&#45;&gt;Node3 -->
<g id="edge3" class="edge">
<title>Node4&#45;&gt;Node3</title>
<path fill="none" stroke="midnightblue" d="M332.79,-832C399.97,-832 499.2,-832 568.21,-832"/>
<polygon fill="midnightblue" stroke="midnightblue" points="332.7,-828.5 322.7,-832 332.7,-835.5 332.7,-828.5"/>
</g>
<!-- Node5 -->
<g id="node5" class="node">
<title>Node5</title>
<g id="a_node5"><a xlink:href="classsciplot_1_1DepthSpecsOf.html" target="_top" xlink:title=" ">
<polygon fill="white" stroke="black" points="564,-784.5 564,-803.5 733,-803.5 733,-784.5 564,-784.5"/>
<text text-anchor="middle" x="648.5" y="-791.5" font-family="Helvetica,sans-Serif" font-size="10.00">DepthSpecsOf&lt; BorderSpecs &gt;</text>
</a>
</g>
</g>
<!-- Node4&#45;&gt;Node5 -->
<g id="edge5" class="edge">
<title>Node4&#45;&gt;Node5</title>
<path fill="none" stroke="midnightblue" d="M332.99,-824.8C398.81,-818.36 495.27,-808.91 563.98,-802.18"/>
<polygon fill="midnightblue" stroke="midnightblue" points="332.31,-821.35 322.7,-825.81 333,-828.32 332.31,-821.35"/>
</g>
<!-- Node5&#45;&gt;Node2 -->
<g id="edge4" class="edge">
<title>Node5&#45;&gt;Node2</title>
<path fill="none" stroke="midnightblue" d="M743.31,-794C785.89,-794 833.84,-794 866.19,-794"/>
<polygon fill="midnightblue" stroke="midnightblue" points="743.19,-790.5 733.19,-794 743.19,-797.5 743.19,-790.5"/>
</g>
<!-- Node6 -->
<g id="node6" class="node">
<title>Node6</title>
<g id="a_node6"><a xlink:title=" ">
<polygon fill="white" stroke="#bfbfbf" points="824,-746.5 824,-765.5 986,-765.5 986,-746.5 824,-746.5"/>
<text text-anchor="middle" x="905" y="-753.5" font-family="Helvetica,sans-Serif" font-size="10.00">vector&lt; sciplot::DrawSpecs &gt;</text>
</a>
</g>
</g>
<!-- Node6&#45;&gt;Node1 -->
<g id="edge6" class="edge">
<title>Node6&#45;&gt;Node1</title>
<path fill="none" stroke="#9a32cd" stroke-dasharray="5,2" d="M971.28,-743.2C976.37,-741.39 981.33,-739.34 986,-737 995.31,-732.34 994.67,-726.63 1004,-722 1050.17,-699.1 1082.26,-734.06 1117,-696 1150.45,-659.35 1151.8,-493.82 1151.6,-451.75"/>
<polygon fill="#9a32cd" stroke="#9a32cd" points="969.85,-739.98 961.41,-746.38 972,-746.65 969.85,-739.98"/>
<text text-anchor="middle" x="1060.5" y="-725" font-family="Helvetica,sans-Serif" font-size="10.00"> m_drawspecs</text>
</g>
<!-- Node7 -->
<g id="node7" class="node">
<title>Node7</title>
<g id="a_node7"><a xlink:href="classsciplot_1_1DrawSpecs.html" target="_top" xlink:title="The class where options for the plotted element can be specified.">
<polygon fill="white" stroke="black" points="613,-746.5 613,-765.5 684,-765.5 684,-746.5 613,-746.5"/>
<text text-anchor="middle" x="648.5" y="-753.5" font-family="Helvetica,sans-Serif" font-size="10.00">DrawSpecs</text>
</a>
</g>
</g>
<!-- Node7&#45;&gt;Node6 -->
<g id="edge7" class="edge">
<title>Node7&#45;&gt;Node6</title>
<path fill="none" stroke="#9a32cd" stroke-dasharray="5,2" d="M694.22,-756C730,-756 781.11,-756 823.91,-756"/>
<polygon fill="#9a32cd" stroke="#9a32cd" points="694.09,-752.5 684.09,-756 694.09,-759.5 694.09,-752.5"/>
<text text-anchor="middle" x="781.5" y="-759" font-family="Helvetica,sans-Serif" font-size="10.00"> elements</text>
</g>
<!-- Node8 -->
<g id="node8" class="node">
<title>Node8</title>
<g id="a_node8"><a xlink:href="classsciplot_1_1LineSpecsOf.html" target="_top" xlink:title=" ">
<polygon fill="white" stroke="black" points="182,-784.5 182,-803.5 335,-803.5 335,-784.5 182,-784.5"/>
<text text-anchor="middle" x="258.5" y="-791.5" font-family="Helvetica,sans-Serif" font-size="10.00">LineSpecsOf&lt; DrawSpecs &gt;</text>
</a>
</g>
</g>
<!-- Node8&#45;&gt;Node7 -->
<g id="edge8" class="edge">
<title>Node8&#45;&gt;Node7</title>
<path fill="none" stroke="midnightblue" d="M345.29,-786.47C400.84,-781.49 474.73,-774.67 540,-768 564.29,-765.52 591.63,-762.46 612.66,-760.06"/>
<polygon fill="midnightblue" stroke="midnightblue" points="344.78,-783 335.14,-787.38 345.41,-789.97 344.78,-783"/>
</g>
<!-- Node9 -->
<g id="node9" class="node">
<title>Node9</title>
<g id="a_node9"><a xlink:href="classsciplot_1_1Specs.html" target="_top" xlink:title=" ">
<polygon fill="white" stroke="black" points="4.5,-726.5 4.5,-745.5 126.5,-745.5 126.5,-726.5 4.5,-726.5"/>
<text text-anchor="middle" x="65.5" y="-733.5" font-family="Helvetica,sans-Serif" font-size="10.00">Specs&lt; DrawSpecs &gt;</text>
</a>
</g>
</g>
<!-- Node9&#45;&gt;Node8 -->
<g id="edge9" class="edge">
<title>Node9&#45;&gt;Node8</title>
<path fill="none" stroke="midnightblue" d="M97.79,-749.49C117.63,-757.68 144,-767.89 168,-775 180.03,-778.56 193.16,-781.74 205.56,-784.42"/>
<polygon fill="midnightblue" stroke="midnightblue" points="98.91,-746.17 88.33,-745.54 96.21,-752.63 98.91,-746.17"/>
</g>
<!-- Node10 -->
<g id="node10" class="node">
<title>Node10</title>
<g id="a_node10"><a xlink:href="classsciplot_1_1PointSpecsOf.html" target="_top" xlink:title=" ">
<polygon fill="white" stroke="black" points="179.5,-746.5 179.5,-765.5 337.5,-765.5 337.5,-746.5 179.5,-746.5"/>
<text text-anchor="middle" x="258.5" y="-753.5" font-family="Helvetica,sans-Serif" font-size="10.00">PointSpecsOf&lt; DrawSpecs &gt;</text>
</a>
</g>
</g>
<!-- Node9&#45;&gt;Node10 -->
<g id="edge11" class="edge">
<title>Node9&#45;&gt;Node10</title>
<path fill="none" stroke="midnightblue" d="M136.65,-743.35C150.56,-744.8 165.25,-746.34 179.41,-747.82"/>
<polygon fill="midnightblue" stroke="midnightblue" points="136.98,-739.86 126.67,-742.3 136.25,-746.82 136.98,-739.86"/>
</g>
<!-- Node11 -->
<g id="node11" class="node">
<title>Node11</title>
<g id="a_node11"><a xlink:href="classsciplot_1_1FillSpecsOf.html" target="_top" xlink:title=" ">
<polygon fill="white" stroke="black" points="185,-708.5 185,-727.5 332,-727.5 332,-708.5 185,-708.5"/>
<text text-anchor="middle" x="258.5" y="-715.5" font-family="Helvetica,sans-Serif" font-size="10.00">FillSpecsOf&lt; DrawSpecs &gt;</text>
</a>
</g>
</g>
<!-- Node9&#45;&gt;Node11 -->
<g id="edge13" class="edge">
<title>Node9&#45;&gt;Node11</title>
<path fill="none" stroke="midnightblue" d="M136.81,-729.37C152.49,-727.9 169.14,-726.33 184.9,-724.84"/>
<polygon fill="midnightblue" stroke="midnightblue" points="136.3,-725.91 126.67,-730.33 136.96,-732.88 136.3,-725.91"/>
</g>
<!-- Node12 -->
<g id="node12" class="node">
<title>Node12</title>
<g id="a_node12"><a xlink:href="classsciplot_1_1FilledCurvesSpecsOf.html" target="_top" xlink:title=" ">
<polygon fill="white" stroke="black" points="200.5,-659 200.5,-689 316.5,-689 316.5,-659 200.5,-659"/>
<text text-anchor="start" x="208.5" y="-677" font-family="Helvetica,sans-Serif" font-size="10.00">FilledCurvesSpecsOf</text>
<text text-anchor="middle" x="258.5" y="-666" font-family="Helvetica,sans-Serif" font-size="10.00">&lt; DrawSpecs &gt;</text>
</a>
</g>
</g>
<!-- Node9&#45;&gt;Node12 -->
<g id="edge15" class="edge">
<title>Node9&#45;&gt;Node12</title>
<path fill="none" stroke="midnightblue" d="M100.35,-722.92C119.98,-715.52 145.24,-706.32 168,-699 178.6,-695.59 189.98,-692.21 200.97,-689.08"/>
<polygon fill="midnightblue" stroke="midnightblue" points="99.04,-719.67 90.93,-726.49 101.52,-726.22 99.04,-719.67"/>
</g>
<!-- Node10&#45;&gt;Node7 -->
<g id="edge10" class="edge">
<title>Node10&#45;&gt;Node7</title>
<path fill="none" stroke="midnightblue" d="M347.58,-756C431.44,-756 553.37,-756 612.6,-756"/>
<polygon fill="midnightblue" stroke="midnightblue" points="347.55,-752.5 337.55,-756 347.55,-759.5 347.55,-752.5"/>
</g>
<!-- Node11&#45;&gt;Node7 -->
<g id="edge12" class="edge">
<title>Node11&#45;&gt;Node7</title>
<path fill="none" stroke="midnightblue" d="M342.04,-726.08C425.94,-734.3 551.94,-746.64 612.52,-752.57"/>
<polygon fill="midnightblue" stroke="midnightblue" points="342.32,-722.59 332.02,-725.1 341.64,-729.56 342.32,-722.59"/>
</g>
<!-- Node12&#45;&gt;Node7 -->
<g id="edge14" class="edge">
<title>Node12&#45;&gt;Node7</title>
<path fill="none" stroke="midnightblue" d="M326.91,-678.53C385.1,-684.22 470.51,-696.93 540,-725 548.91,-728.6 549.14,-733.27 558,-737 575.27,-744.27 595.64,-748.88 612.58,-751.73"/>
<polygon fill="midnightblue" stroke="midnightblue" points="327.01,-675.02 316.73,-677.57 326.36,-681.99 327.01,-675.02"/>
</g>
<!-- Node13 -->
<g id="node13" class="node">
<title>Node13</title>
<g id="a_node13"><a xlink:href="classsciplot_1_1HistogramStyleSpecs.html" target="_top" xlink:title="The class used to specify histogram style options.">
<polygon fill="white" stroke="black" points="844.5,-708.5 844.5,-727.5 965.5,-727.5 965.5,-708.5 844.5,-708.5"/>
<text text-anchor="middle" x="905" y="-715.5" font-family="Helvetica,sans-Serif" font-size="10.00">HistogramStyleSpecs</text>
</a>
</g>
</g>
<!-- Node13&#45;&gt;Node1 -->
<g id="edge16" class="edge">
<title>Node13&#45;&gt;Node1</title>
<path fill="none" stroke="#9a32cd" stroke-dasharray="5,2" d="M952.32,-705.66C963.49,-702.26 975.28,-698.31 986,-694 987.9,-693.24 1115.78,-628.64 1117,-627 1138.2,-598.59 1148.25,-485.42 1150.82,-451.59"/>
<polygon fill="#9a32cd" stroke="#9a32cd" points="951.32,-702.3 942.72,-708.5 953.3,-709.02 951.32,-702.3"/>
<text text-anchor="middle" x="1060.5" y="-687" font-family="Helvetica,sans-Serif" font-size="10.00"> m_style_histogram</text>
</g>
<!-- Node14 -->
<g id="node14" class="node">
<title>Node14</title>
<g id="a_node14"><a xlink:href="classsciplot_1_1Specs.html" target="_top" xlink:title=" ">
<polygon fill="white" stroke="black" points="562.5,-708.5 562.5,-727.5 734.5,-727.5 734.5,-708.5 562.5,-708.5"/>
<text text-anchor="middle" x="648.5" y="-715.5" font-family="Helvetica,sans-Serif" font-size="10.00">Specs&lt; HistogramStyleSpecs &gt;</text>
</a>
</g>
</g>
<!-- Node14&#45;&gt;Node13 -->
<g id="edge17" class="edge">
<title>Node14&#45;&gt;Node13</title>
<path fill="none" stroke="midnightblue" d="M744.84,-718C778.2,-718 814.69,-718 844.31,-718"/>
<polygon fill="midnightblue" stroke="midnightblue" points="744.6,-714.5 734.6,-718 744.6,-721.5 744.6,-714.5"/>
</g>
<!-- Node15 -->
<g id="node15" class="node">
<title>Node15</title>
<g id="a_node15"><a xlink:title="STL class.">
<polygon fill="white" stroke="#bfbfbf" points="626.5,-603.5 626.5,-622.5 670.5,-622.5 670.5,-603.5 626.5,-603.5"/>
<text text-anchor="middle" x="648.5" y="-610.5" font-family="Helvetica,sans-Serif" font-size="10.00">string</text>
</a>
</g>
</g>
<!-- Node15&#45;&gt;Node1 -->
<g id="edge18" class="edge">
<title>Node15&#45;&gt;Node1</title>
<path fill="none" stroke="#9a32cd" stroke-dasharray="5,2" d="M680.79,-613.82C780.1,-616.11 1083.64,-620.78 1117,-593 1139.01,-574.67 1148.28,-482.31 1150.77,-451.8"/>
<polygon fill="#9a32cd" stroke="#9a32cd" points="680.59,-610.31 670.51,-613.57 680.42,-617.31 680.59,-610.31"/>
<text text-anchor="middle" x="905" y="-684" font-family="Helvetica,sans-Serif" font-size="10.00"> m_boxwidth</text>
<text text-anchor="middle" x="905" y="-673" font-family="Helvetica,sans-Serif" font-size="10.00">m_data</text>
<text text-anchor="middle" x="905" y="-662" font-family="Helvetica,sans-Serif" font-size="10.00">m_datafilename</text>
<text text-anchor="middle" x="905" y="-651" font-family="Helvetica,sans-Serif" font-size="10.00">m_palette</text>
<text text-anchor="middle" x="905" y="-640" font-family="Helvetica,sans-Serif" font-size="10.00">m_samples</text>
<text text-anchor="middle" x="905" y="-629" font-family="Helvetica,sans-Serif" font-size="10.00">m_xrange</text>
<text text-anchor="middle" x="905" y="-618" font-family="Helvetica,sans-Serif" font-size="10.00">m_yrange</text>
</g>
<!-- Node38 -->
<g id="node35" class="node">
<title>Node38</title>
<g id="a_node35"><a xlink:title=" ">
<polygon fill="white" stroke="#bfbfbf" points="845.5,-557.5 845.5,-576.5 964.5,-576.5 964.5,-557.5 845.5,-557.5"/>
<text text-anchor="middle" x="905" y="-564.5" font-family="Helvetica,sans-Serif" font-size="10.00">vector&lt; std::string &gt;</text>
</a>
</g>
</g>
<!-- Node15&#45;&gt;Node38 -->
<g id="edge42" class="edge">
<title>Node15&#45;&gt;Node38</title>
<path fill="none" stroke="#9a32cd" stroke-dasharray="5,2" d="M680.63,-605.01C702.01,-599.7 731.1,-592.85 757,-588 785.89,-582.59 818.2,-577.83 845.15,-574.22"/>
<polygon fill="#9a32cd" stroke="#9a32cd" points="679.65,-601.65 670.8,-607.47 681.35,-608.44 679.65,-601.65"/>
<text text-anchor="middle" x="781.5" y="-591" font-family="Helvetica,sans-Serif" font-size="10.00"> elements</text>
</g>
<!-- Node16 -->
<g id="node16" class="node">
<title>Node16</title>
<g id="a_node16"><a xlink:title="STL class.">
<polygon fill="white" stroke="#bfbfbf" points="199,-620.5 199,-639.5 318,-639.5 318,-620.5 199,-620.5"/>
<text text-anchor="middle" x="258.5" y="-627.5" font-family="Helvetica,sans-Serif" font-size="10.00">basic_string&lt; char &gt;</text>
</a>
</g>
</g>
<!-- Node16&#45;&gt;Node15 -->
<g id="edge19" class="edge">
<title>Node16&#45;&gt;Node15</title>
<path fill="none" stroke="midnightblue" d="M328.11,-626.99C417.99,-623.06 570.7,-616.37 626.38,-613.93"/>
<polygon fill="midnightblue" stroke="midnightblue" points="327.84,-623.5 318.01,-627.44 328.15,-630.5 327.84,-623.5"/>
</g>
<!-- Node17 -->
<g id="node17" class="node">
<title>Node17</title>
<g id="a_node17"><a xlink:href="classsciplot_1_1TicsSpecsMinor.html" target="_top" xlink:title="The class used to specify options for minor tics of a specific axis.">
<polygon fill="white" stroke="black" points="859,-513.5 859,-532.5 951,-532.5 951,-513.5 859,-513.5"/>
<text text-anchor="middle" x="905" y="-520.5" font-family="Helvetica,sans-Serif" font-size="10.00">TicsSpecsMinor</text>
</a>
</g>
</g>
<!-- Node17&#45;&gt;Node1 -->
<g id="edge20" class="edge">
<title>Node17&#45;&gt;Node1</title>
<path fill="none" stroke="#9a32cd" stroke-dasharray="5,2" d="M953.32,-511.01C969.38,-507.05 987.44,-502.71 1004,-499 1054.01,-487.79 1071.77,-500.1 1117,-476 1128.13,-470.07 1138.06,-459.42 1144.38,-451.61"/>
<polygon fill="#9a32cd" stroke="#9a32cd" points="952.48,-507.62 943.61,-513.42 954.16,-514.41 952.48,-507.62"/>
<text text-anchor="middle" x="1060.5" y="-557" font-family="Helvetica,sans-Serif" font-size="10.00"> m_rtics_minor</text>
<text text-anchor="middle" x="1060.5" y="-546" font-family="Helvetica,sans-Serif" font-size="10.00">m_xtics_minor_bottom</text>
<text text-anchor="middle" x="1060.5" y="-535" font-family="Helvetica,sans-Serif" font-size="10.00">m_xtics_minor_top</text>
<text text-anchor="middle" x="1060.5" y="-524" font-family="Helvetica,sans-Serif" font-size="10.00">m_ytics_minor_left</text>
<text text-anchor="middle" x="1060.5" y="-513" font-family="Helvetica,sans-Serif" font-size="10.00">m_ytics_minor_right</text>
<text text-anchor="middle" x="1060.5" y="-502" font-family="Helvetica,sans-Serif" font-size="10.00">m_ztics_minor</text>
</g>
<!-- Node18 -->
<g id="node18" class="node">
<title>Node18</title>
<g id="a_node18"><a xlink:href="classsciplot_1_1ShowSpecsOf.html" target="_top" xlink:title=" ">
<polygon fill="white" stroke="black" points="558,-560.5 558,-579.5 739,-579.5 739,-560.5 558,-560.5"/>
<text text-anchor="middle" x="648.5" y="-567.5" font-family="Helvetica,sans-Serif" font-size="10.00">ShowSpecsOf&lt; TicsSpecsMinor &gt;</text>
</a>
</g>
</g>
<!-- Node18&#45;&gt;Node17 -->
<g id="edge21" class="edge">
<title>Node18&#45;&gt;Node17</title>
<path fill="none" stroke="midnightblue" d="M711.07,-558.63C756.7,-550.2 817.84,-538.91 858.96,-531.32"/>
<polygon fill="midnightblue" stroke="midnightblue" points="710.2,-555.23 701,-560.49 711.47,-562.11 710.2,-555.23"/>
</g>
<!-- Node19 -->
<g id="node19" class="node">
<title>Node19</title>
<g id="a_node19"><a xlink:href="classsciplot_1_1Specs.html" target="_top" xlink:title=" ">
<polygon fill="white" stroke="black" points="187,-582.5 187,-601.5 330,-601.5 330,-582.5 187,-582.5"/>
<text text-anchor="middle" x="258.5" y="-589.5" font-family="Helvetica,sans-Serif" font-size="10.00">Specs&lt; TicsSpecsMinor &gt;</text>
</a>
</g>
</g>
<!-- Node19&#45;&gt;Node18 -->
<g id="edge22" class="edge">
<title>Node19&#45;&gt;Node18</title>
<path fill="none" stroke="midnightblue" d="M340.57,-587.4C404.04,-583.8 492.24,-578.8 557.81,-575.09"/>
<polygon fill="midnightblue" stroke="midnightblue" points="340,-583.93 330.21,-587.99 340.4,-590.92 340,-583.93"/>
</g>
<!-- Node20 -->
<g id="node20" class="node">
<title>Node20</title>
<g id="a_node20"><a xlink:href="classsciplot_1_1AxisLabelSpecs.html" target="_top" xlink:title="The specifications for an axis label (e.g., xlabel, ylabel, etc.)">
<polygon fill="white" stroke="black" points="859,-464.5 859,-483.5 951,-483.5 951,-464.5 859,-464.5"/>
<text text-anchor="middle" x="905" y="-471.5" font-family="Helvetica,sans-Serif" font-size="10.00">AxisLabelSpecs</text>
</a>
</g>
</g>
<!-- Node20&#45;&gt;Node1 -->
<g id="edge23" class="edge">
<title>Node20&#45;&gt;Node1</title>
<path fill="none" stroke="#9a32cd" stroke-dasharray="5,2" d="M938.83,-460.9C957.59,-454.11 981.74,-446.51 1004,-443 1051.05,-435.57 1107.59,-438.41 1135,-440.52"/>
<polygon fill="#9a32cd" stroke="#9a32cd" points="937.43,-457.68 929.29,-464.45 939.88,-464.24 937.43,-457.68"/>
<text text-anchor="middle" x="1060.5" y="-468" font-family="Helvetica,sans-Serif" font-size="10.00"> m_rlabel</text>
<text text-anchor="middle" x="1060.5" y="-457" font-family="Helvetica,sans-Serif" font-size="10.00">m_xlabel</text>
<text text-anchor="middle" x="1060.5" y="-446" font-family="Helvetica,sans-Serif" font-size="10.00">m_ylabel</text>
</g>
<!-- Node21 -->
<g id="node21" class="node">
<title>Node21</title>
<g id="a_node21"><a xlink:href="classsciplot_1_1TextSpecsOf.html" target="_top" xlink:title=" ">
<polygon fill="white" stroke="black" points="561,-512.5 561,-531.5 736,-531.5 736,-512.5 561,-512.5"/>
<text text-anchor="middle" x="648.5" y="-519.5" font-family="Helvetica,sans-Serif" font-size="10.00">TextSpecsOf&lt; AxisLabelSpecs &gt;</text>
</a>
</g>
</g>
<!-- Node21&#45;&gt;Node20 -->
<g id="edge24" class="edge">
<title>Node21&#45;&gt;Node20</title>
<path fill="none" stroke="midnightblue" d="M710.14,-510.56C755.74,-501.96 817.24,-490.36 858.63,-482.56"/>
<polygon fill="midnightblue" stroke="midnightblue" points="709.26,-507.17 700.09,-512.46 710.56,-514.05 709.26,-507.17"/>
</g>
<!-- Node22 -->
<g id="node22" class="node">
<title>Node22</title>
<g id="a_node22"><a xlink:href="classsciplot_1_1FontSpecsOf.html" target="_top" xlink:title=" ">
<polygon fill="white" stroke="red" points="170.5,-544.5 170.5,-563.5 346.5,-563.5 346.5,-544.5 170.5,-544.5"/>
<text text-anchor="middle" x="258.5" y="-551.5" font-family="Helvetica,sans-Serif" font-size="10.00">FontSpecsOf&lt; AxisLabelSpecs &gt;</text>
</a>
</g>
</g>
<!-- Node22&#45;&gt;Node21 -->
<g id="edge25" class="edge">
<title>Node22&#45;&gt;Node21</title>
<path fill="none" stroke="midnightblue" d="M356.87,-545.97C419.53,-540.8 500.25,-534.14 560.72,-529.16"/>
<polygon fill="midnightblue" stroke="midnightblue" points="356.25,-542.51 346.57,-546.82 356.83,-549.48 356.25,-542.51"/>
</g>
<!-- Node24 -->
<g id="node23" class="node">
<title>Node24</title>
<g id="a_node23"><a xlink:href="classsciplot_1_1TicsSpecs.html" target="_top" xlink:title="The class used to specify options for tics.">
<polygon fill="white" stroke="black" points="872.5,-404.5 872.5,-423.5 937.5,-423.5 937.5,-404.5 872.5,-404.5"/>
<text text-anchor="middle" x="905" y="-411.5" font-family="Helvetica,sans-Serif" font-size="10.00">TicsSpecs</text>
</a>
</g>
</g>
<!-- Node24&#45;&gt;Node1 -->
<g id="edge26" class="edge">
<title>Node24&#45;&gt;Node1</title>
<path fill="none" stroke="#9a32cd" stroke-dasharray="5,2" d="M947.79,-403.61C991.64,-394.81 1061.75,-386.83 1117,-409 1128.69,-413.69 1138.66,-424.45 1144.83,-432.41"/>
<polygon fill="#9a32cd" stroke="#9a32cd" points="946.83,-400.23 937.77,-405.72 948.27,-407.08 946.83,-400.23"/>
<text text-anchor="middle" x="1060.5" y="-412" font-family="Helvetica,sans-Serif" font-size="10.00"> m_tics</text>
</g>
<!-- Node25 -->
<g id="node24" class="node">
<title>Node25</title>
<g id="a_node24"><a xlink:href="classsciplot_1_1TicsSpecsBaseOf.html" target="_top" xlink:title=" ">
<polygon fill="white" stroke="black" points="563.5,-454.5 563.5,-473.5 733.5,-473.5 733.5,-454.5 563.5,-454.5"/>
<text text-anchor="middle" x="648.5" y="-461.5" font-family="Helvetica,sans-Serif" font-size="10.00">TicsSpecsBaseOf&lt; TicsSpecs &gt;</text>
</a>
</g>
</g>
<!-- Node25&#45;&gt;Node24 -->
<g id="edge27" class="edge">
<title>Node25&#45;&gt;Node24</title>
<path fill="none" stroke="midnightblue" d="M707.88,-452.53C758.93,-442.5 831.15,-428.31 872.2,-420.25"/>
<polygon fill="midnightblue" stroke="midnightblue" points="707.11,-449.12 697.97,-454.48 708.46,-455.98 707.11,-449.12"/>
</g>
<!-- Node26 -->
<g id="node25" class="node">
<title>Node26</title>
<g id="a_node25"><a xlink:href="classsciplot_1_1TextSpecsOf.html" target="_top" xlink:title=" ">
<polygon fill="white" stroke="red" points="185,-506.5 185,-525.5 332,-525.5 332,-506.5 185,-506.5"/>
<text text-anchor="middle" x="258.5" y="-513.5" font-family="Helvetica,sans-Serif" font-size="10.00">TextSpecsOf&lt; TicsSpecs &gt;</text>
</a>
</g>
</g>
<!-- Node26&#45;&gt;Node25 -->
<g id="edge28" class="edge">
<title>Node26&#45;&gt;Node25</title>
<path fill="none" stroke="midnightblue" d="M342.29,-508.67C398.27,-503.26 473.77,-495.11 540,-485 560.87,-481.81 583.85,-477.44 603.19,-473.51"/>
<polygon fill="midnightblue" stroke="midnightblue" points="341.69,-505.21 332.07,-509.64 342.36,-512.18 341.69,-505.21"/>
</g>
<!-- Node29 -->
<g id="node26" class="node">
<title>Node29</title>
<g id="a_node26"><a xlink:href="classsciplot_1_1OffsetSpecsOf.html" target="_top" xlink:title=" ">
<polygon fill="white" stroke="red" points="180.5,-468.5 180.5,-487.5 336.5,-487.5 336.5,-468.5 180.5,-468.5"/>
<text text-anchor="middle" x="258.5" y="-475.5" font-family="Helvetica,sans-Serif" font-size="10.00">OffsetSpecsOf&lt; TicsSpecs &gt;</text>
</a>
</g>
</g>
<!-- Node29&#45;&gt;Node25 -->
<g id="edge29" class="edge">
<title>Node29&#45;&gt;Node25</title>
<path fill="none" stroke="midnightblue" d="M346.82,-474.85C411.61,-472.51 499.46,-469.34 563.46,-467.03"/>
<polygon fill="midnightblue" stroke="midnightblue" points="346.49,-471.36 336.62,-475.22 346.74,-478.35 346.49,-471.36"/>
</g>
<!-- Node30 -->
<g id="node27" class="node">
<title>Node30</title>
<g id="a_node27"><a xlink:href="classsciplot_1_1ShowSpecsOf.html" target="_top" xlink:title=" ">
<polygon fill="white" stroke="red" points="182,-430.5 182,-449.5 335,-449.5 335,-430.5 182,-430.5"/>
<text text-anchor="middle" x="258.5" y="-437.5" font-family="Helvetica,sans-Serif" font-size="10.00">ShowSpecsOf&lt; TicsSpecs &gt;</text>
</a>
</g>
</g>
<!-- Node30&#45;&gt;Node25 -->
<g id="edge30" class="edge">
<title>Node30&#45;&gt;Node25</title>
<path fill="none" stroke="midnightblue" d="M345.43,-445.32C410.27,-449.33 498.76,-454.8 563.2,-458.79"/>
<polygon fill="midnightblue" stroke="midnightblue" points="345.43,-441.81 335.23,-444.68 345,-448.8 345.43,-441.81"/>
</g>
<!-- Node31 -->
<g id="node28" class="node">
<title>Node31</title>
<g id="a_node28"><a xlink:href="classsciplot_1_1LegendSpecs.html" target="_top" xlink:title="The class used to specify options for legend.">
<polygon fill="white" stroke="black" points="865,-354.5 865,-373.5 945,-373.5 945,-354.5 865,-354.5"/>
<text text-anchor="middle" x="905" y="-361.5" font-family="Helvetica,sans-Serif" font-size="10.00">LegendSpecs</text>
</a>
</g>
</g>
<!-- Node31&#45;&gt;Node1 -->
<g id="edge31" class="edge">
<title>Node31&#45;&gt;Node1</title>
<path fill="none" stroke="#9a32cd" stroke-dasharray="5,2" d="M955.2,-354.94C1000.81,-349.27 1068.72,-348.03 1117,-379 1136.1,-391.25 1145.48,-417.93 1149.31,-432.32"/>
<polygon fill="#9a32cd" stroke="#9a32cd" points="954.69,-351.48 945.25,-356.29 955.63,-358.41 954.69,-351.48"/>
<text text-anchor="middle" x="1060.5" y="-382" font-family="Helvetica,sans-Serif" font-size="10.00"> m_legend</text>
</g>
<!-- Node32 -->
<g id="node29" class="node">
<title>Node32</title>
<g id="a_node29"><a xlink:href="classsciplot_1_1TextSpecsOf.html" target="_top" xlink:title=" ">
<polygon fill="white" stroke="black" points="567,-392.5 567,-411.5 730,-411.5 730,-392.5 567,-392.5"/>
<text text-anchor="middle" x="648.5" y="-399.5" font-family="Helvetica,sans-Serif" font-size="10.00">TextSpecsOf&lt; LegendSpecs &gt;</text>
</a>
</g>
</g>
<!-- Node32&#45;&gt;Node31 -->
<g id="edge32" class="edge">
<title>Node32&#45;&gt;Node31</title>
<path fill="none" stroke="midnightblue" d="M723.36,-390.97C769.51,-384.08 827.12,-375.48 864.7,-369.87"/>
<polygon fill="midnightblue" stroke="midnightblue" points="722.77,-387.52 713.39,-392.46 723.8,-394.44 722.77,-387.52"/>
</g>
<!-- Node33 -->
<g id="node30" class="node">
<title>Node33</title>
<g id="a_node30"><a xlink:href="classsciplot_1_1FontSpecsOf.html" target="_top" xlink:title=" ">
<polygon fill="white" stroke="black" points="176.5,-392.5 176.5,-411.5 340.5,-411.5 340.5,-392.5 176.5,-392.5"/>
<text text-anchor="middle" x="258.5" y="-399.5" font-family="Helvetica,sans-Serif" font-size="10.00">FontSpecsOf&lt; LegendSpecs &gt;</text>
</a>
</g>
</g>
<!-- Node33&#45;&gt;Node32 -->
<g id="edge33" class="edge">
<title>Node33&#45;&gt;Node32</title>
<path fill="none" stroke="midnightblue" d="M351.16,-402C416.7,-402 504.07,-402 566.94,-402"/>
<polygon fill="midnightblue" stroke="midnightblue" points="350.84,-398.5 340.84,-402 350.84,-405.5 350.84,-398.5"/>
</g>
<!-- Node34 -->
<g id="node31" class="node">
<title>Node34</title>
<g id="a_node31"><a xlink:href="classsciplot_1_1Specs.html" target="_top" xlink:title=" ">
<polygon fill="white" stroke="black" points="0,-335.5 0,-354.5 131,-354.5 131,-335.5 0,-335.5"/>
<text text-anchor="middle" x="65.5" y="-342.5" font-family="Helvetica,sans-Serif" font-size="10.00">Specs&lt; LegendSpecs &gt;</text>
</a>
</g>
</g>
<!-- Node34&#45;&gt;Node33 -->
<g id="edge34" class="edge">
<title>Node34&#45;&gt;Node33</title>
<path fill="none" stroke="midnightblue" d="M97.04,-358.6C112.42,-365.09 131.47,-372.59 149,-378 167.44,-383.68 188.02,-388.59 206.27,-392.46"/>
<polygon fill="midnightblue" stroke="midnightblue" points="98.09,-355.24 87.52,-354.51 95.33,-361.67 98.09,-355.24"/>
</g>
<!-- Node35 -->
<g id="node32" class="node">
<title>Node35</title>
<g id="a_node32"><a xlink:href="classsciplot_1_1ShowSpecsOf.html" target="_top" xlink:title=" ">
<polygon fill="white" stroke="black" points="369,-354.5 369,-373.5 538,-373.5 538,-354.5 369,-354.5"/>
<text text-anchor="middle" x="453.5" y="-361.5" font-family="Helvetica,sans-Serif" font-size="10.00">ShowSpecsOf&lt; LegendSpecs &gt;</text>
</a>
</g>
</g>
<!-- Node34&#45;&gt;Node35 -->
<g id="edge36" class="edge">
<title>Node34&#45;&gt;Node35</title>
<path fill="none" stroke="midnightblue" d="M141.32,-348.68C206.54,-351.89 301.05,-356.54 368.77,-359.88"/>
<polygon fill="midnightblue" stroke="midnightblue" points="141.27,-345.18 131.11,-348.18 140.92,-352.17 141.27,-345.18"/>
</g>
<!-- Node36 -->
<g id="node33" class="node">
<title>Node36</title>
<g id="a_node33"><a xlink:href="classsciplot_1_1TitleSpecsOf.html" target="_top" xlink:title=" ">
<polygon fill="white" stroke="black" points="371.5,-316.5 371.5,-335.5 535.5,-335.5 535.5,-316.5 371.5,-316.5"/>
<text text-anchor="middle" x="453.5" y="-323.5" font-family="Helvetica,sans-Serif" font-size="10.00">TitleSpecsOf&lt; LegendSpecs &gt;</text>
</a>
</g>
</g>
<!-- Node34&#45;&gt;Node36 -->
<g id="edge38" class="edge">
<title>Node34&#45;&gt;Node36</title>
<path fill="none" stroke="midnightblue" d="M141.44,-341.31C207.45,-338.06 303.38,-333.34 371.23,-330"/>
<polygon fill="midnightblue" stroke="midnightblue" points="140.92,-337.83 131.11,-341.82 141.27,-344.82 140.92,-337.83"/>
</g>
<!-- Node37 -->
<g id="node34" class="node">
<title>Node37</title>
<g id="a_node34"><a xlink:href="classsciplot_1_1FrameSpecsOf.html" target="_top" xlink:title=" ">
<polygon fill="white" stroke="black" points="367,-278.5 367,-297.5 540,-297.5 540,-278.5 367,-278.5"/>
<text text-anchor="middle" x="453.5" y="-285.5" font-family="Helvetica,sans-Serif" font-size="10.00">FrameSpecsOf&lt; LegendSpecs &gt;</text>
</a>
</g>
</g>
<!-- Node34&#45;&gt;Node37 -->
<g id="edge40" class="edge">
<title>Node34&#45;&gt;Node37</title>
<path fill="none" stroke="midnightblue" d="M127.78,-333.73C141.03,-331.41 154.97,-329.05 168,-327 238.8,-315.87 319.79,-304.95 377.21,-297.5"/>
<polygon fill="midnightblue" stroke="midnightblue" points="127.05,-330.31 117.81,-335.5 128.27,-337.2 127.05,-330.31"/>
</g>
<!-- Node35&#45;&gt;Node31 -->
<g id="edge35" class="edge">
<title>Node35&#45;&gt;Node31</title>
<path fill="none" stroke="midnightblue" d="M548.45,-364C646.28,-364 794.82,-364 864.86,-364"/>
<polygon fill="midnightblue" stroke="midnightblue" points="548.26,-360.5 538.26,-364 548.26,-367.5 548.26,-360.5"/>
</g>
<!-- Node36&#45;&gt;Node31 -->
<g id="edge37" class="edge">
<title>Node36&#45;&gt;Node31</title>
<path fill="none" stroke="midnightblue" d="M545.82,-333.72C643.64,-341.99 794.31,-354.73 864.94,-360.7"/>
<polygon fill="midnightblue" stroke="midnightblue" points="545.9,-330.21 535.64,-332.86 545.31,-337.19 545.9,-330.21"/>
</g>
<!-- Node37&#45;&gt;Node31 -->
<g id="edge39" class="edge">
<title>Node37&#45;&gt;Node31</title>
<path fill="none" stroke="midnightblue" d="M536.91,-298.91C593.82,-306.75 671.17,-318.01 739,-330 782.2,-337.63 831.43,-347.99 864.78,-355.27"/>
<polygon fill="midnightblue" stroke="midnightblue" points="537.27,-295.42 526.89,-297.53 536.32,-302.36 537.27,-295.42"/>
</g>
<!-- Node38&#45;&gt;Node1 -->
<g id="edge41" class="edge">
<title>Node38&#45;&gt;Node1</title>
<path fill="none" stroke="#9a32cd" stroke-dasharray="5,2" d="M974.77,-574.97C1027.71,-579.56 1095.38,-581.55 1117,-565 1135.31,-550.98 1146.64,-478.54 1150.25,-451.87"/>
<polygon fill="#9a32cd" stroke="#9a32cd" points="975.01,-571.48 964.73,-574.06 974.37,-578.45 975.01,-571.48"/>
<text text-anchor="middle" x="1060.5" y="-581" font-family="Helvetica,sans-Serif" font-size="10.00"> m_customcmds</text>
</g>
<!-- Node39 -->
<g id="node36" class="node">
<title>Node39</title>
<g id="a_node36"><a xlink:href="classsciplot_1_1FillStyleSpecs.html" target="_top" xlink:title="The class used to attach color or pattern fill options to a type.">
<polygon fill="white" stroke="black" points="863,-278.5 863,-297.5 947,-297.5 947,-278.5 863,-278.5"/>
<text text-anchor="middle" x="905" y="-285.5" font-family="Helvetica,sans-Serif" font-size="10.00">FillStyleSpecs</text>
</a>
</g>
</g>
<!-- Node39&#45;&gt;Node1 -->
<g id="edge43" class="edge">
<title>Node39&#45;&gt;Node1</title>
<path fill="none" stroke="#9a32cd" stroke-dasharray="5,2" d="M957.65,-297C1016.24,-307.64 1105.22,-325.25 1117,-336 1145.44,-361.97 1150.51,-411.61 1151.36,-432.44"/>
<polygon fill="#9a32cd" stroke="#9a32cd" points="957.91,-293.49 947.45,-295.17 956.67,-300.38 957.91,-293.49"/>
<text text-anchor="middle" x="1060.5" y="-339" font-family="Helvetica,sans-Serif" font-size="10.00"> m_style_fill</text>
</g>
<!-- Node40 -->
<g id="node37" class="node">
<title>Node40</title>
<g id="a_node37"><a xlink:href="classsciplot_1_1Specs.html" target="_top" xlink:title=" ">
<polygon fill="white" stroke="black" points="581,-240.5 581,-259.5 716,-259.5 716,-240.5 581,-240.5"/>
<text text-anchor="middle" x="648.5" y="-247.5" font-family="Helvetica,sans-Serif" font-size="10.00">Specs&lt; FillStyleSpecs &gt;</text>
</a>
</g>
</g>
<!-- Node40&#45;&gt;Node39 -->
<g id="edge44" class="edge">
<title>Node40&#45;&gt;Node39</title>
<path fill="none" stroke="midnightblue" d="M723.48,-261.05C768.85,-267.82 825.24,-276.24 862.81,-281.85"/>
<polygon fill="midnightblue" stroke="midnightblue" points="723.8,-257.56 713.39,-259.54 722.77,-264.48 723.8,-257.56"/>
</g>
<!-- Node41 -->
<g id="node38" class="node">
<title>Node41</title>
<g id="a_node38"><a xlink:href="classsciplot_1_1TicsSpecsMajor.html" target="_top" xlink:title="The class used to specify options for major tics of a specific axis.">
<polygon fill="white" stroke="black" points="859,-214.5 859,-233.5 951,-233.5 951,-214.5 859,-214.5"/>
<text text-anchor="middle" x="905" y="-221.5" font-family="Helvetica,sans-Serif" font-size="10.00">TicsSpecsMajor</text>
</a>
</g>
</g>
<!-- Node41&#45;&gt;Node1 -->
<g id="edge45" class="edge">
<title>Node41&#45;&gt;Node1</title>
<path fill="none" stroke="#9a32cd" stroke-dasharray="5,2" d="M948.8,-212.14C996.07,-201.89 1071.5,-194.37 1117,-235 1146.89,-261.69 1150.89,-395.38 1151.42,-432.45"/>
<polygon fill="#9a32cd" stroke="#9a32cd" points="947.84,-208.77 938.88,-214.42 949.41,-215.59 947.84,-208.77"/>
<text text-anchor="middle" x="1060.5" y="-293" font-family="Helvetica,sans-Serif" font-size="10.00"> m_rtics_major</text>
<text text-anchor="middle" x="1060.5" y="-282" font-family="Helvetica,sans-Serif" font-size="10.00">m_xtics_major_bottom</text>
<text text-anchor="middle" x="1060.5" y="-271" font-family="Helvetica,sans-Serif" font-size="10.00">m_xtics_major_top</text>
<text text-anchor="middle" x="1060.5" y="-260" font-family="Helvetica,sans-Serif" font-size="10.00">m_ytics_major_left</text>
<text text-anchor="middle" x="1060.5" y="-249" font-family="Helvetica,sans-Serif" font-size="10.00">m_ytics_major_right</text>
<text text-anchor="middle" x="1060.5" y="-238" font-family="Helvetica,sans-Serif" font-size="10.00">m_ztics_major</text>
</g>
<!-- Node42 -->
<g id="node39" class="node">
<title>Node42</title>
<g id="a_node39"><a xlink:href="classsciplot_1_1TicsSpecsBaseOf.html" target="_top" xlink:title=" ">
<polygon fill="white" stroke="black" points="569,-191 569,-221 728,-221 728,-191 569,-191"/>
<text text-anchor="start" x="577" y="-209" font-family="Helvetica,sans-Serif" font-size="10.00">TicsSpecsBaseOf&lt; TicsSpecs</text>
<text text-anchor="middle" x="648.5" y="-198" font-family="Helvetica,sans-Serif" font-size="10.00">Major &gt;</text>
</a>
</g>
</g>
<!-- Node42&#45;&gt;Node41 -->
<g id="edge46" class="edge">
<title>Node42&#45;&gt;Node41</title>
<path fill="none" stroke="midnightblue" d="M738.49,-212.29C779.17,-215.17 825.59,-218.45 858.9,-220.81"/>
<polygon fill="midnightblue" stroke="midnightblue" points="738.5,-208.79 728.28,-211.57 738.01,-215.77 738.5,-208.79"/>
</g>
<!-- Node43 -->
<g id="node40" class="node">
<title>Node43</title>
<g id="a_node40"><a xlink:href="classsciplot_1_1TextSpecsOf.html" target="_top" xlink:title=" ">
<polygon fill="white" stroke="red" points="171,-240.5 171,-259.5 346,-259.5 346,-240.5 171,-240.5"/>
<text text-anchor="middle" x="258.5" y="-247.5" font-family="Helvetica,sans-Serif" font-size="10.00">TextSpecsOf&lt; TicsSpecsMajor &gt;</text>
</a>
</g>
</g>
<!-- Node43&#45;&gt;Node42 -->
<g id="edge47" class="edge">
<title>Node43&#45;&gt;Node42</title>
<path fill="none" stroke="midnightblue" d="M356.38,-240.19C410.45,-234.58 479,-227.23 540,-220 549.34,-218.89 559.14,-217.68 568.85,-216.45"/>
<polygon fill="midnightblue" stroke="midnightblue" points="355.7,-236.74 346.12,-241.25 356.42,-243.71 355.7,-236.74"/>
</g>
<!-- Node46 -->
<g id="node41" class="node">
<title>Node46</title>
<g id="a_node41"><a xlink:href="classsciplot_1_1OffsetSpecsOf.html" target="_top" xlink:title=" ">
<polygon fill="white" stroke="red" points="186,-191 186,-221 331,-221 331,-191 186,-191"/>
<text text-anchor="start" x="194" y="-209" font-family="Helvetica,sans-Serif" font-size="10.00">OffsetSpecsOf&lt; TicsSpecs</text>
<text text-anchor="middle" x="258.5" y="-198" font-family="Helvetica,sans-Serif" font-size="10.00">Major &gt;</text>
</a>
</g>
</g>
<!-- Node46&#45;&gt;Node42 -->
<g id="edge48" class="edge">
<title>Node46&#45;&gt;Node42</title>
<path fill="none" stroke="midnightblue" d="M341.23,-206C408.33,-206 502.75,-206 568.96,-206"/>
<polygon fill="midnightblue" stroke="midnightblue" points="341.12,-202.5 331.12,-206 341.12,-209.5 341.12,-202.5"/>
</g>
<!-- Node47 -->
<g id="node42" class="node">
<title>Node47</title>
<g id="a_node42"><a xlink:href="classsciplot_1_1ShowSpecsOf.html" target="_top" xlink:title=" ">
<polygon fill="white" stroke="red" points="168,-152.5 168,-171.5 349,-171.5 349,-152.5 168,-152.5"/>
<text text-anchor="middle" x="258.5" y="-159.5" font-family="Helvetica,sans-Serif" font-size="10.00">ShowSpecsOf&lt; TicsSpecsMajor &gt;</text>
</a>
</g>
</g>
<!-- Node47&#45;&gt;Node42 -->
<g id="edge49" class="edge">
<title>Node47&#45;&gt;Node42</title>
<path fill="none" stroke="midnightblue" d="M353.66,-172.68C419.55,-180.15 506.56,-190.02 568.76,-197.07"/>
<polygon fill="midnightblue" stroke="midnightblue" points="354.02,-169.2 343.69,-171.55 353.23,-176.15 354.02,-169.2"/>
</g>
<!-- Node48 -->
<g id="node43" class="node">
<title>Node48</title>
<g id="a_node43"><a xlink:href="classsciplot_1_1GridSpecs.html" target="_top" xlink:title="The class used to specify options for grid.">
<polygon fill="white" stroke="black" points="872.5,-140.5 872.5,-159.5 937.5,-159.5 937.5,-140.5 872.5,-140.5"/>
<text text-anchor="middle" x="905" y="-147.5" font-family="Helvetica,sans-Serif" font-size="10.00">GridSpecs</text>
</a>
</g>
</g>
<!-- Node48&#45;&gt;Node1 -->
<g id="edge50" class="edge">
<title>Node48&#45;&gt;Node1</title>
<path fill="none" stroke="#9a32cd" stroke-dasharray="5,2" d="M947.81,-144.64C995.85,-141.05 1073.64,-143.54 1117,-189 1151.12,-224.77 1151.97,-390.2 1151.63,-432.25"/>
<polygon fill="#9a32cd" stroke="#9a32cd" points="947.4,-141.17 937.74,-145.52 948,-148.14 947.4,-141.17"/>
<text text-anchor="middle" x="1060.5" y="-192" font-family="Helvetica,sans-Serif" font-size="10.00"> m_grid</text>
</g>
<!-- Node49 -->
<g id="node44" class="node">
<title>Node49</title>
<g id="a_node44"><a xlink:href="classsciplot_1_1GridSpecsBase.html" target="_top" xlink:title="The class used to specify options for grid lines along axis tics (major or minor).">
<polygon fill="white" stroke="black" points="604,-87.5 604,-106.5 693,-106.5 693,-87.5 604,-87.5"/>
<text text-anchor="middle" x="648.5" y="-94.5" font-family="Helvetica,sans-Serif" font-size="10.00">GridSpecsBase</text>
</a>
</g>
</g>
<!-- Node49&#45;&gt;Node48 -->
<g id="edge51" class="edge">
<title>Node49&#45;&gt;Node48</title>
<path fill="none" stroke="midnightblue" d="M703.18,-108.18C754.51,-118.87 830.18,-134.63 872.46,-143.43"/>
<polygon fill="midnightblue" stroke="midnightblue" points="703.75,-104.72 693.25,-106.11 702.33,-111.58 703.75,-104.72"/>
</g>
<!-- Node50 -->
<g id="node45" class="node">
<title>Node50</title>
<g id="a_node45"><a xlink:href="classsciplot_1_1LineSpecsOf.html" target="_top" xlink:title=" ">
<polygon fill="white" stroke="red" points="172.5,-114.5 172.5,-133.5 344.5,-133.5 344.5,-114.5 172.5,-114.5"/>
<text text-anchor="middle" x="258.5" y="-121.5" font-family="Helvetica,sans-Serif" font-size="10.00">LineSpecsOf&lt; GridSpecsBase &gt;</text>
</a>
</g>
</g>
<!-- Node50&#45;&gt;Node49 -->
<g id="edge52" class="edge">
<title>Node50&#45;&gt;Node49</title>
<path fill="none" stroke="midnightblue" d="M354.82,-117.7C409.1,-114.07 478.37,-109.38 540,-105 561,-103.51 584.3,-101.78 603.83,-100.32"/>
<polygon fill="midnightblue" stroke="midnightblue" points="354.26,-114.23 344.51,-118.39 354.73,-121.22 354.26,-114.23"/>
</g>
<!-- Node52 -->
<g id="node46" class="node">
<title>Node52</title>
<g id="a_node46"><a xlink:href="classsciplot_1_1DepthSpecsOf.html" target="_top" xlink:title=" ">
<polygon fill="white" stroke="red" points="168,-76.5 168,-95.5 349,-95.5 349,-76.5 168,-76.5"/>
<text text-anchor="middle" x="258.5" y="-83.5" font-family="Helvetica,sans-Serif" font-size="10.00">DepthSpecsOf&lt; GridSpecsBase &gt;</text>
</a>
</g>
</g>
<!-- Node52&#45;&gt;Node49 -->
<g id="edge53" class="edge">
<title>Node52&#45;&gt;Node49</title>
<path fill="none" stroke="midnightblue" d="M359.48,-88.83C438.57,-91.08 545.14,-94.1 603.96,-95.77"/>
<polygon fill="midnightblue" stroke="midnightblue" points="359.1,-85.32 349,-88.54 358.9,-92.32 359.1,-85.32"/>
</g>
<!-- Node53 -->
<g id="node47" class="node">
<title>Node53</title>
<g id="a_node47"><a xlink:href="classsciplot_1_1ShowSpecsOf.html" target="_top" xlink:title=" ">
<polygon fill="white" stroke="red" points="169.5,-38.5 169.5,-57.5 347.5,-57.5 347.5,-38.5 169.5,-38.5"/>
<text text-anchor="middle" x="258.5" y="-45.5" font-family="Helvetica,sans-Serif" font-size="10.00">ShowSpecsOf&lt; GridSpecsBase &gt;</text>
</a>
</g>
</g>
<!-- Node53&#45;&gt;Node49 -->
<g id="edge54" class="edge">
<title>Node53&#45;&gt;Node49</title>
<path fill="none" stroke="midnightblue" d="M344.83,-58.78C424.82,-68.88 541.2,-83.58 603.78,-91.48"/>
<polygon fill="midnightblue" stroke="midnightblue" points="345.13,-55.29 334.77,-57.51 344.25,-62.23 345.13,-55.29"/>
</g>
<!-- Node54 -->
<g id="node48" class="node">
<title>Node54</title>
<g id="a_node48"><a xlink:href="classsciplot_1_1FontSpecs.html" target="_top" xlink:title="The class used to specify font options.">
<polygon fill="white" stroke="black" points="872,-74.5 872,-93.5 938,-93.5 938,-74.5 872,-74.5"/>
<text text-anchor="middle" x="905" y="-81.5" font-family="Helvetica,sans-Serif" font-size="10.00">FontSpecs</text>
</a>
</g>
</g>
<!-- Node54&#45;&gt;Node1 -->
<g id="edge55" class="edge">
<title>Node54&#45;&gt;Node1</title>
<path fill="none" stroke="#9a32cd" stroke-dasharray="5,2" d="M948.15,-79.78C996.53,-77.5 1074.63,-82.16 1117,-129 1137.9,-152.11 1148.94,-382.33 1151.1,-432.42"/>
<polygon fill="#9a32cd" stroke="#9a32cd" points="947.79,-76.29 938.01,-80.38 948.2,-83.28 947.79,-76.29"/>
<text text-anchor="middle" x="1060.5" y="-132" font-family="Helvetica,sans-Serif" font-size="10.00"> m_font</text>
</g>
<!-- Node55 -->
<g id="node49" class="node">
<title>Node55</title>
<g id="a_node49"><a xlink:href="classsciplot_1_1FontSpecsOf.html" target="_top" xlink:title=" ">
<polygon fill="white" stroke="black" points="574,-30.5 574,-49.5 723,-49.5 723,-30.5 574,-30.5"/>
<text text-anchor="middle" x="648.5" y="-37.5" font-family="Helvetica,sans-Serif" font-size="10.00">FontSpecsOf&lt; FontSpecs &gt;</text>
</a>
</g>
</g>
<!-- Node55&#45;&gt;Node54 -->
<g id="edge56" class="edge">
<title>Node55&#45;&gt;Node54</title>
<path fill="none" stroke="midnightblue" d="M714.86,-51.3C765.16,-60 832.51,-71.64 871.78,-78.43"/>
<polygon fill="midnightblue" stroke="midnightblue" points="715.17,-47.8 704.72,-49.55 713.98,-54.7 715.17,-47.8"/>
</g>
<!-- Node56 -->
<g id="node50" class="node">
<title>Node56</title>
<g id="a_node50"><a xlink:href="classsciplot_1_1Specs.html" target="_top" xlink:title=" ">
<polygon fill="white" stroke="black" points="200,-0.5 200,-19.5 317,-19.5 317,-0.5 200,-0.5"/>
<text text-anchor="middle" x="258.5" y="-7.5" font-family="Helvetica,sans-Serif" font-size="10.00">Specs&lt; FontSpecs &gt;</text>
</a>
</g>
</g>
<!-- Node56&#45;&gt;Node55 -->
<g id="edge57" class="edge">
<title>Node56&#45;&gt;Node55</title>
<path fill="none" stroke="midnightblue" d="M327.49,-15.26C396.49,-20.59 502.97,-28.82 573.91,-34.31"/>
<polygon fill="midnightblue" stroke="midnightblue" points="327.41,-11.74 317.17,-14.46 326.87,-18.72 327.41,-11.74"/>
</g>
</g>
</svg>
