<?xml version="1.0" encoding="UTF-8" standalone="no"?>
<!DOCTYPE svg PUBLIC "-//W3C//DTD SVG 1.1//EN"
 "http://www.w3.org/Graphics/SVG/1.1/DTD/svg11.dtd">
<!-- Generated by graphviz version 7.1.0 (20230122.1345)
 -->
<!-- Title: Specs&lt; DerivedSpecs &gt; Pages: 1 -->
<svg width="753pt" height="420pt"
 viewBox="0.00 0.00 753.00 420.00" xmlns="http://www.w3.org/2000/svg" xmlns:xlink="http://www.w3.org/1999/xlink">
<g id="graph0" class="graph" transform="scale(1 1) rotate(0) translate(4 416)">
<title>Specs&lt; DerivedSpecs &gt;</title>
<polygon fill="white" stroke="none" points="-4,4 -4,-416 749,-416 749,4 -4,4"/>
<!-- Node1 -->
<g id="node1" class="node">
<title>Node1</title>
<g id="a_node1"><a xlink:title="The base class for other specs classes (e.g., LineSpecsOf, DrawSpecs, BorderSpecs,...">
<polygon fill="#bfbfbf" stroke="black" points="0,-190.5 0,-209.5 134,-209.5 134,-190.5 0,-190.5"/>
<text text-anchor="middle" x="67" y="-197.5" font-family="Helvetica,sans-Serif" font-size="10.00">Specs&lt; DerivedSpecs &gt;</text>
</a>
</g>
</g>
<!-- Node2 -->
<g id="node2" class="node">
<title>Node2</title>
<g id="a_node2"><a xlink:href="classsciplot_1_1DepthSpecsOf.html" target="_top" xlink:title="The class used to attach depth options to a type.">
<polygon fill="white" stroke="black" points="172,-392.5 172,-411.5 347,-411.5 347,-392.5 172,-392.5"/>
<text text-anchor="middle" x="259.5" y="-399.5" font-family="Helvetica,sans-Serif" font-size="10.00">DepthSpecsOf&lt; DerivedSpecs &gt;</text>
</a>
</g>
</g>
<!-- Node1&#45;&gt;Node2 -->
<g id="edge1" class="edge">
<title>Node1&#45;&gt;Node2</title>
<path fill="none" stroke="midnightblue" d="M73.22,-220.15C84.22,-258.35 113.53,-341.23 170,-383 175.31,-386.93 181.25,-390.07 187.49,-392.59"/>
<polygon fill="midnightblue" stroke="midnightblue" points="76.7,-219.6 70.68,-210.88 69.95,-221.45 76.7,-219.6"/>
</g>
<!-- Node3 -->
<g id="node3" class="node">
<title>Node3</title>
<g id="a_node3"><a xlink:href="classsciplot_1_1FilledCurvesSpecsOf.html" target="_top" xlink:title="The class used to set options for the gnuplot filledcurve functionality.">
<polygon fill="white" stroke="black" points="201.5,-343 201.5,-373 317.5,-373 317.5,-343 201.5,-343"/>
<text text-anchor="start" x="209.5" y="-361" font-family="Helvetica,sans-Serif" font-size="10.00">FilledCurvesSpecsOf</text>
<text text-anchor="middle" x="259.5" y="-350" font-family="Helvetica,sans-Serif" font-size="10.00">&lt; DerivedSpecs &gt;</text>
</a>
</g>
</g>
<!-- Node1&#45;&gt;Node3 -->
<g id="edge2" class="edge">
<title>Node1&#45;&gt;Node3</title>
<path fill="none" stroke="midnightblue" d="M77.69,-219.53C93.16,-248.68 126.2,-303.3 170,-333 179.51,-339.45 190.68,-344.25 201.81,-347.82"/>
<polygon fill="midnightblue" stroke="midnightblue" points="80.85,-218.03 73.17,-210.73 74.63,-221.23 80.85,-218.03"/>
</g>
<!-- Node4 -->
<g id="node4" class="node">
<title>Node4</title>
<g id="a_node4"><a xlink:href="classsciplot_1_1FillSpecsOf.html" target="_top" xlink:title="The class used to attach color or pattern fill options to a type.">
<polygon fill="white" stroke="black" points="179.5,-304.5 179.5,-323.5 339.5,-323.5 339.5,-304.5 179.5,-304.5"/>
<text text-anchor="middle" x="259.5" y="-311.5" font-family="Helvetica,sans-Serif" font-size="10.00">FillSpecsOf&lt; DerivedSpecs &gt;</text>
</a>
</g>
</g>
<!-- Node1&#45;&gt;Node4 -->
<g id="edge3" class="edge">
<title>Node1&#45;&gt;Node4</title>
<path fill="none" stroke="midnightblue" d="M82.18,-218.2C100.19,-239.98 133.34,-275.88 170,-295 177.52,-298.92 185.81,-302.04 194.21,-304.51"/>
<polygon fill="midnightblue" stroke="midnightblue" points="84.97,-216.07 75.97,-210.48 79.51,-220.46 84.97,-216.07"/>
</g>
<!-- Node5 -->
<g id="node5" class="node">
<title>Node5</title>
<g id="a_node5"><a xlink:href="classsciplot_1_1FontSpecsOf.html" target="_top" xlink:title="The class used to attach font options to a type.">
<polygon fill="white" stroke="black" points="176,-266.5 176,-285.5 343,-285.5 343,-266.5 176,-266.5"/>
<text text-anchor="middle" x="259.5" y="-273.5" font-family="Helvetica,sans-Serif" font-size="10.00">FontSpecsOf&lt; DerivedSpecs &gt;</text>
</a>
</g>
</g>
<!-- Node1&#45;&gt;Node5 -->
<g id="edge4" class="edge">
<title>Node1&#45;&gt;Node5</title>
<path fill="none" stroke="midnightblue" d="M91.05,-215.52C111.11,-228.37 141.39,-246.21 170,-257 180.15,-260.83 191.25,-263.97 202.06,-266.52"/>
<polygon fill="midnightblue" stroke="midnightblue" points="93.1,-212.68 82.81,-210.14 89.27,-218.54 93.1,-212.68"/>
</g>
<!-- Node8 -->
<g id="node8" class="node">
<title>Node8</title>
<g id="a_node8"><a xlink:href="classsciplot_1_1FrameSpecsOf.html" target="_top" xlink:title="The class used to attach frame options to a type.">
<polygon fill="white" stroke="black" points="171.5,-228.5 171.5,-247.5 347.5,-247.5 347.5,-228.5 171.5,-228.5"/>
<text text-anchor="middle" x="259.5" y="-235.5" font-family="Helvetica,sans-Serif" font-size="10.00">FrameSpecsOf&lt; DerivedSpecs &gt;</text>
</a>
</g>
</g>
<!-- Node1&#45;&gt;Node8 -->
<g id="edge7" class="edge">
<title>Node1&#45;&gt;Node8</title>
<path fill="none" stroke="midnightblue" d="M126.51,-211.67C153.69,-217.09 185.57,-223.45 211.2,-228.56"/>
<polygon fill="midnightblue" stroke="midnightblue" points="127.56,-208.31 117.06,-209.79 126.19,-215.18 127.56,-208.31"/>
</g>
<!-- Node9 -->
<g id="node9" class="node">
<title>Node9</title>
<g id="a_node9"><a xlink:href="classsciplot_1_1LayoutSpecsOf.html" target="_top" xlink:title="The class used to attach layout options to a type.">
<polygon fill="white" stroke="black" points="170,-190.5 170,-209.5 349,-209.5 349,-190.5 170,-190.5"/>
<text text-anchor="middle" x="259.5" y="-197.5" font-family="Helvetica,sans-Serif" font-size="10.00">LayoutSpecsOf&lt; DerivedSpecs &gt;</text>
</a>
</g>
</g>
<!-- Node1&#45;&gt;Node9 -->
<g id="edge8" class="edge">
<title>Node1&#45;&gt;Node9</title>
<path fill="none" stroke="midnightblue" d="M145.27,-200C153.46,-200 161.85,-200 170.16,-200"/>
<polygon fill="midnightblue" stroke="midnightblue" points="145.34,-196.5 135.34,-200 145.34,-203.5 145.34,-196.5"/>
</g>
<!-- Node10 -->
<g id="node10" class="node">
<title>Node10</title>
<g id="a_node10"><a xlink:href="classsciplot_1_1LineSpecsOf.html" target="_top" xlink:title="The class used to attach line options to a type.">
<polygon fill="white" stroke="black" points="176.5,-152.5 176.5,-171.5 342.5,-171.5 342.5,-152.5 176.5,-152.5"/>
<text text-anchor="middle" x="259.5" y="-159.5" font-family="Helvetica,sans-Serif" font-size="10.00">LineSpecsOf&lt; DerivedSpecs &gt;</text>
</a>
</g>
</g>
<!-- Node1&#45;&gt;Node10 -->
<g id="edge9" class="edge">
<title>Node1&#45;&gt;Node10</title>
<path fill="none" stroke="midnightblue" d="M126.51,-188.33C153.69,-182.91 185.57,-176.55 211.2,-171.44"/>
<polygon fill="midnightblue" stroke="midnightblue" points="126.19,-184.82 117.06,-190.21 127.56,-191.69 126.19,-184.82"/>
</g>
<!-- Node11 -->
<g id="node11" class="node">
<title>Node11</title>
<g id="a_node11"><a xlink:href="classsciplot_1_1OffsetSpecsOf.html" target="_top" xlink:title="The class used to attach offset options to a type.">
<polygon fill="white" stroke="black" points="385,-114.5 385,-133.5 560,-133.5 560,-114.5 385,-114.5"/>
<text text-anchor="middle" x="472.5" y="-121.5" font-family="Helvetica,sans-Serif" font-size="10.00">OffsetSpecsOf&lt; DerivedSpecs &gt;</text>
</a>
</g>
</g>
<!-- Node1&#45;&gt;Node11 -->
<g id="edge10" class="edge">
<title>Node1&#45;&gt;Node11</title>
<path fill="none" stroke="midnightblue" d="M89.68,-184.07C109.49,-170.48 140.17,-151.78 170,-143 240.44,-122.27 324.01,-118.53 385.27,-119.4"/>
<polygon fill="midnightblue" stroke="midnightblue" points="87.76,-181.14 81.61,-189.77 91.8,-186.86 87.76,-181.14"/>
</g>
<!-- Node12 -->
<g id="node12" class="node">
<title>Node12</title>
<g id="a_node12"><a xlink:href="classsciplot_1_1PointSpecsOf.html" target="_top" xlink:title="The class used to attach point options to a type.">
<polygon fill="white" stroke="black" points="174.5,-76.5 174.5,-95.5 344.5,-95.5 344.5,-76.5 174.5,-76.5"/>
<text text-anchor="middle" x="259.5" y="-83.5" font-family="Helvetica,sans-Serif" font-size="10.00">PointSpecsOf&lt; DerivedSpecs &gt;</text>
</a>
</g>
</g>
<!-- Node1&#45;&gt;Node12 -->
<g id="edge12" class="edge">
<title>Node1&#45;&gt;Node12</title>
<path fill="none" stroke="midnightblue" d="M83.41,-182.16C101.96,-161.78 135.02,-128.83 170,-110 181.63,-103.74 195.03,-99.01 207.82,-95.49"/>
<polygon fill="midnightblue" stroke="midnightblue" points="80.99,-179.61 76.96,-189.41 86.22,-184.27 80.99,-179.61"/>
</g>
<!-- Node13 -->
<g id="node13" class="node">
<title>Node13</title>
<g id="a_node13"><a xlink:href="classsciplot_1_1ShowSpecsOf.html" target="_top" xlink:title="The class used to attach visibility options to a type.">
<polygon fill="white" stroke="black" points="386.5,-57.5 386.5,-76.5 558.5,-76.5 558.5,-57.5 386.5,-57.5"/>
<text text-anchor="middle" x="472.5" y="-64.5" font-family="Helvetica,sans-Serif" font-size="10.00">ShowSpecsOf&lt; DerivedSpecs &gt;</text>
</a>
</g>
</g>
<!-- Node1&#45;&gt;Node13 -->
<g id="edge13" class="edge">
<title>Node1&#45;&gt;Node13</title>
<path fill="none" stroke="midnightblue" d="M76.17,-180.2C90.15,-149.31 121.87,-90.74 170,-67 257.78,-23.7 378.2,-43.66 436.73,-57.56"/>
<polygon fill="midnightblue" stroke="midnightblue" points="73.05,-178.59 72.29,-189.16 79.48,-181.38 73.05,-178.59"/>
</g>
<!-- Node14 -->
<g id="node14" class="node">
<title>Node14</title>
<g id="a_node14"><a xlink:href="classsciplot_1_1TitleSpecsOf.html" target="_top" xlink:title="The class used to attach title options to a type.">
<polygon fill="white" stroke="black" points="176,-0.5 176,-19.5 343,-19.5 343,-0.5 176,-0.5"/>
<text text-anchor="middle" x="259.5" y="-7.5" font-family="Helvetica,sans-Serif" font-size="10.00">TitleSpecsOf&lt; DerivedSpecs &gt;</text>
</a>
</g>
</g>
<!-- Node1&#45;&gt;Node14 -->
<g id="edge15" class="edge">
<title>Node1&#45;&gt;Node14</title>
<path fill="none" stroke="midnightblue" d="M74.65,-180.07C87.4,-145.02 118.64,-72.43 170,-34 178.54,-27.61 188.67,-22.92 198.98,-19.48"/>
<polygon fill="midnightblue" stroke="midnightblue" points="71.4,-178.76 71.41,-189.35 78.01,-181.06 71.4,-178.76"/>
</g>
<!-- Node6 -->
<g id="node6" class="node">
<title>Node6</title>
<g id="a_node6"><a xlink:href="classsciplot_1_1TextSpecsOf.html" target="_top" xlink:title="The class used to attach text options to a type.">
<polygon fill="white" stroke="black" points="389.5,-209.5 389.5,-228.5 555.5,-228.5 555.5,-209.5 389.5,-209.5"/>
<text text-anchor="middle" x="472.5" y="-216.5" font-family="Helvetica,sans-Serif" font-size="10.00">TextSpecsOf&lt; DerivedSpecs &gt;</text>
</a>
</g>
</g>
<!-- Node5&#45;&gt;Node6 -->
<g id="edge5" class="edge">
<title>Node5&#45;&gt;Node6</title>
<path fill="none" stroke="midnightblue" d="M319.47,-264.11C329.37,-261.89 339.5,-259.49 349,-257 381.74,-248.43 418.79,-236.64 443.49,-228.47"/>
<polygon fill="midnightblue" stroke="midnightblue" points="318.95,-260.64 309.93,-266.2 320.45,-267.48 318.95,-260.64"/>
</g>
<!-- Node7 -->
<g id="node7" class="node">
<title>Node7</title>
<g id="a_node7"><a xlink:href="classsciplot_1_1TicsSpecsBaseOf.html" target="_top" xlink:title="The class used to attach common tic options to a type that also specifies tic options.">
<polygon fill="white" stroke="black" points="596,-109 596,-139 745,-139 745,-109 596,-109"/>
<text text-anchor="start" x="604" y="-127" font-family="Helvetica,sans-Serif" font-size="10.00">TicsSpecsBaseOf&lt; Derived</text>
<text text-anchor="middle" x="670.5" y="-116" font-family="Helvetica,sans-Serif" font-size="10.00">Specs &gt;</text>
</a>
</g>
</g>
<!-- Node6&#45;&gt;Node7 -->
<g id="edge6" class="edge">
<title>Node6&#45;&gt;Node7</title>
<path fill="none" stroke="midnightblue" d="M503.06,-204.67C539.69,-186.92 601.8,-156.82 638.9,-138.83"/>
<polygon fill="midnightblue" stroke="midnightblue" points="501.84,-201.37 494.37,-208.88 504.9,-207.67 501.84,-201.37"/>
</g>
<!-- Node11&#45;&gt;Node7 -->
<g id="edge11" class="edge">
<title>Node11&#45;&gt;Node7</title>
<path fill="none" stroke="midnightblue" d="M571.16,-124C579.55,-124 587.94,-124 596.08,-124"/>
<polygon fill="midnightblue" stroke="midnightblue" points="571.27,-120.5 561.27,-124 571.27,-127.5 571.27,-120.5"/>
</g>
<!-- Node13&#45;&gt;Node7 -->
<g id="edge14" class="edge">
<title>Node13&#45;&gt;Node7</title>
<path fill="none" stroke="midnightblue" d="M516.82,-79.6C546.77,-88.31 586.75,-99.94 618.29,-109.11"/>
<polygon fill="midnightblue" stroke="midnightblue" points="517.9,-76.27 507.32,-76.84 515.94,-82.99 517.9,-76.27"/>
</g>
</g>
</svg>
