<?xml version="1.0" encoding="UTF-8" standalone="no"?>
<!DOCTYPE svg PUBLIC "-//W3C//DTD SVG 1.1//EN"
 "http://www.w3.org/Graphics/SVG/1.1/DTD/svg11.dtd">
<!-- Generated by graphviz version 8.0.5 (20230506.1012)
 -->
<!-- Title: OffsetSpecsOf&lt; DerivedSpecs &gt; Pages: 1 -->
<svg width="182pt" height="158pt"
 viewBox="0.00 0.00 182.25 158.00" xmlns="http://www.w3.org/2000/svg" xmlns:xlink="http://www.w3.org/1999/xlink">
<g id="graph0" class="graph" transform="scale(1 1) rotate(0) translate(4 154)">
<title>OffsetSpecsOf&lt; DerivedSpecs &gt;</title>
<polygon fill="white" stroke="none" points="-4,4 -4,-154 178.25,-154 178.25,4 -4,4"/>
<!-- Node1 -->
<g id="node1" class="node">
<title>Node1</title>
<g id="a_node1"><a xlink:title="The class used to attach offset options to a type.">
<polygon fill="#bfbfbf" stroke="black" points="0,-71 0,-91.75 174.25,-91.75 174.25,-71 0,-71"/>
<text text-anchor="middle" x="87.12" y="-78.25" font-family="Helvetica,sans-Serif" font-size="10.00">OffsetSpecsOf&lt; DerivedSpecs &gt;</text>
</a>
</g>
</g>
<!-- Node3 -->
<g id="node3" class="node">
<title>Node3</title>
<g id="a_node3"><a xlink:href="classsciplot_1_1TicsSpecsBaseOf.html" target="_top" xlink:title="The class used to attach common tic options to a type that also specifies tic options.">
<polygon fill="white" stroke="black" points="12.75,-0.5 12.75,-34 161.5,-34 161.5,-0.5 12.75,-0.5"/>
<text text-anchor="start" x="20.75" y="-20.5" font-family="Helvetica,sans-Serif" font-size="10.00">TicsSpecsBaseOf&lt; Derived</text>
<text text-anchor="middle" x="87.12" y="-7.75" font-family="Helvetica,sans-Serif" font-size="10.00">Specs &gt;</text>
</a>
</g>
</g>
<!-- Node1&#45;&gt;Node3 -->
<g id="edge2" class="edge">
<title>Node1&#45;&gt;Node3</title>
<path fill="none" stroke="midnightblue" d="M87.12,-60.23C87.12,-51.62 87.12,-41.74 87.12,-33.72"/>
<polygon fill="midnightblue" stroke="midnightblue" points="83.63,-60.21 87.12,-70.21 90.63,-60.21 83.63,-60.21"/>
</g>
<!-- Node2 -->
<g id="node2" class="node">
<title>Node2</title>
<g id="a_node2"><a xlink:href="classsciplot_1_1Specs.html" target="_top" xlink:title="The base class for other specs classes (e.g., LineSpecsOf, DrawSpecs, BorderSpecs,...">
<polygon fill="white" stroke="black" points="20.25,-128.75 20.25,-149.5 154,-149.5 154,-128.75 20.25,-128.75"/>
<text text-anchor="middle" x="87.12" y="-136" font-family="Helvetica,sans-Serif" font-size="10.00">Specs&lt; DerivedSpecs &gt;</text>
</a>
</g>
</g>
<!-- Node2&#45;&gt;Node1 -->
<g id="edge1" class="edge">
<title>Node2&#45;&gt;Node1</title>
<path fill="none" stroke="midnightblue" d="M87.12,-118C87.12,-108.89 87.12,-98.59 87.12,-91.41"/>
<polygon fill="midnightblue" stroke="midnightblue" points="83.63,-117.92 87.12,-127.92 90.63,-117.92 83.63,-117.92"/>
</g>
</g>
</svg>
