<?xml version="1.0" encoding="UTF-8" standalone="no"?>
<!DOCTYPE svg PUBLIC "-//W3C//DTD SVG 1.1//EN"
 "http://www.w3.org/Graphics/SVG/1.1/DTD/svg11.dtd">
<!-- Generated by graphviz version 8.0.4 (20230426.1303)
 -->
<!-- Title: Plot Pages: 1 -->
<svg width="122pt" height="88pt"
 viewBox="0.00 0.00 122.25 87.50" xmlns="http://www.w3.org/2000/svg" xmlns:xlink="http://www.w3.org/1999/xlink">
<g id="graph0" class="graph" transform="scale(1 1) rotate(0) translate(4 83.5)">
<title>Plot</title>
<polygon fill="white" stroke="none" points="-4,4 -4,-83.5 118.25,-83.5 118.25,4 -4,4"/>
<!-- Node1 -->
<g id="node1" class="node">
<title>Node1</title>
<g id="a_node1"><a xlink:title="The class used to create a plot containing graphical elements.">
<polygon fill="#bfbfbf" stroke="black" points="39.75,-58.25 39.75,-79 74.5,-79 74.5,-58.25 39.75,-58.25"/>
<text text-anchor="middle" x="57.12" y="-65.5" font-family="Helvetica,sans-Serif" font-size="10.00">Plot</text>
</a>
</g>
</g>
<!-- Node2 -->
<g id="node2" class="node">
<title>Node2</title>
<g id="a_node2"><a xlink:href="classsciplot_1_1Plot2D.html" target="_top" xlink:title="The class used to create a plot containing graphical elements.">
<polygon fill="white" stroke="black" points="0,-0.5 0,-21.25 48.25,-21.25 48.25,-0.5 0,-0.5"/>
<text text-anchor="middle" x="24.12" y="-7.75" font-family="Helvetica,sans-Serif" font-size="10.00">Plot2D</text>
</a>
</g>
</g>
<!-- Node1&#45;&gt;Node2 -->
<g id="edge1" class="edge">
<title>Node1&#45;&gt;Node2</title>
<path fill="none" stroke="midnightblue" d="M46.11,-49.02C40.51,-39.56 33.96,-28.49 29.47,-20.91"/>
<polygon fill="midnightblue" stroke="midnightblue" points="43.57,-50.6 51.68,-57.42 49.59,-47.03 43.57,-50.6"/>
</g>
<!-- Node3 -->
<g id="node3" class="node">
<title>Node3</title>
<g id="a_node3"><a xlink:href="classsciplot_1_1Plot3D.html" target="_top" xlink:title="The class used to create a plot containing graphical elements.">
<polygon fill="white" stroke="black" points="66,-0.5 66,-21.25 114.25,-21.25 114.25,-0.5 66,-0.5"/>
<text text-anchor="middle" x="90.12" y="-7.75" font-family="Helvetica,sans-Serif" font-size="10.00">Plot3D</text>
</a>
</g>
</g>
<!-- Node1&#45;&gt;Node3 -->
<g id="edge2" class="edge">
<title>Node1&#45;&gt;Node3</title>
<path fill="none" stroke="midnightblue" d="M68.14,-49.02C73.74,-39.56 80.29,-28.49 84.78,-20.91"/>
<polygon fill="midnightblue" stroke="midnightblue" points="64.66,-47.03 62.57,-57.42 70.68,-50.6 64.66,-47.03"/>
</g>
</g>
</svg>
