<?xml version="1.0" encoding="UTF-8" standalone="no"?>
<!DOCTYPE svg PUBLIC "-//W3C//DTD SVG 1.1//EN"
 "http://www.w3.org/Graphics/SVG/1.1/DTD/svg11.dtd">
<!-- Generated by graphviz version 8.0.5 (20230506.1012)
 -->
<!-- Title: TextSpecsOf&lt; DerivedSpecs &gt; Pages: 1 -->
<svg width="174pt" height="145pt"
 viewBox="0.00 0.00 174.00 145.25" xmlns="http://www.w3.org/2000/svg" xmlns:xlink="http://www.w3.org/1999/xlink">
<g id="graph0" class="graph" transform="scale(1 1) rotate(0) translate(4 141.25)">
<title>TextSpecsOf&lt; DerivedSpecs &gt;</title>
<polygon fill="white" stroke="none" points="-4,4 -4,-141.25 170,-141.25 170,4 -4,4"/>
<!-- Node1 -->
<g id="node1" class="node">
<title>Node1</title>
<g id="a_node1"><a xlink:title="The class used to attach text options to a type.">
<polygon fill="#bfbfbf" stroke="black" points="0.38,-0.5 0.38,-21.25 165.62,-21.25 165.62,-0.5 0.38,-0.5"/>
<text text-anchor="middle" x="83" y="-7.75" font-family="Helvetica,sans-Serif" font-size="10.00">TextSpecsOf&lt; DerivedSpecs &gt;</text>
</a>
</g>
</g>
<!-- Node2 -->
<g id="node2" class="node">
<title>Node2</title>
<g id="a_node2"><a xlink:href="classsciplot_1_1FontSpecsOf.html" target="_top" xlink:title="The class used to attach font options to a type.">
<polygon fill="white" stroke="black" points="0,-58.25 0,-79 166,-79 166,-58.25 0,-58.25"/>
<text text-anchor="middle" x="83" y="-65.5" font-family="Helvetica,sans-Serif" font-size="10.00">FontSpecsOf&lt; DerivedSpecs &gt;</text>
</a>
</g>
</g>
<!-- Node2&#45;&gt;Node1 -->
<g id="edge1" class="edge">
<title>Node2&#45;&gt;Node1</title>
<path fill="none" stroke="midnightblue" d="M83,-47.5C83,-38.39 83,-28.09 83,-20.91"/>
<polygon fill="midnightblue" stroke="midnightblue" points="79.5,-47.42 83,-57.42 86.5,-47.42 79.5,-47.42"/>
</g>
<!-- Node3 -->
<g id="node3" class="node">
<title>Node3</title>
<g id="a_node3"><a xlink:href="classsciplot_1_1Specs.html" target="_top" xlink:title="The base class for other specs classes (e.g., LineSpecsOf, DrawSpecs, BorderSpecs,...">
<polygon fill="white" stroke="black" points="16.12,-116 16.12,-136.75 149.88,-136.75 149.88,-116 16.12,-116"/>
<text text-anchor="middle" x="83" y="-123.25" font-family="Helvetica,sans-Serif" font-size="10.00">Specs&lt; DerivedSpecs &gt;</text>
</a>
</g>
</g>
<!-- Node3&#45;&gt;Node2 -->
<g id="edge2" class="edge">
<title>Node3&#45;&gt;Node2</title>
<path fill="none" stroke="midnightblue" d="M83,-105.25C83,-96.14 83,-85.84 83,-78.66"/>
<polygon fill="midnightblue" stroke="midnightblue" points="79.5,-105.17 83,-115.17 86.5,-105.17 79.5,-105.17"/>
</g>
</g>
</svg>
