<?xml version="1.0" encoding="UTF-8" standalone="no"?>
<!DOCTYPE svg PUBLIC "-//W3C//DTD SVG 1.1//EN"
 "http://www.w3.org/Graphics/SVG/1.1/DTD/svg11.dtd">
<!-- Generated by graphviz version 8.0.3 (20230418.1244)
 -->
<!-- Title: GridSpecsBase Pages: 1 -->
<svg width="591pt" height="104pt"
 viewBox="0.00 0.00 591.00 104.00" xmlns="http://www.w3.org/2000/svg" xmlns:xlink="http://www.w3.org/1999/xlink">
<g id="graph0" class="graph" transform="scale(1 1) rotate(0) translate(4 100)">
<title>GridSpecsBase</title>
<polygon fill="white" stroke="none" points="-4,4 -4,-100 587,-100 587,4 -4,4"/>
<!-- Node1 -->
<g id="node1" class="node">
<title>Node1</title>
<g id="a_node1"><a xlink:title="The class used to specify options for grid lines along axis tics (major or minor).">
<polygon fill="#bfbfbf" stroke="black" points="393,-38.5 393,-57.5 482,-57.5 482,-38.5 393,-38.5"/>
<text text-anchor="middle" x="437.5" y="-45.5" font-family="Helvetica,sans-Serif" font-size="10.00">GridSpecsBase</text>
</a>
</g>
</g>
<!-- Node6 -->
<g id="node6" class="node">
<title>Node6</title>
<g id="a_node6"><a xlink:href="classsciplot_1_1GridSpecs.html" target="_top" xlink:title="The class used to specify options for grid.">
<polygon fill="white" stroke="black" points="518,-38.5 518,-57.5 583,-57.5 583,-38.5 518,-38.5"/>
<text text-anchor="middle" x="550.5" y="-45.5" font-family="Helvetica,sans-Serif" font-size="10.00">GridSpecs</text>
</a>
</g>
</g>
<!-- Node1&#45;&gt;Node6 -->
<g id="edge7" class="edge">
<title>Node1&#45;&gt;Node6</title>
<path fill="none" stroke="midnightblue" d="M492.73,-48C501.48,-48 510.27,-48 518.24,-48"/>
<polygon fill="midnightblue" stroke="midnightblue" points="492.73,-44.5 482.73,-48 492.73,-51.5 492.73,-44.5"/>
</g>
<!-- Node2 -->
<g id="node2" class="node">
<title>Node2</title>
<g id="a_node2"><a xlink:href="classsciplot_1_1LineSpecsOf.html" target="_top" xlink:title=" ">
<polygon fill="white" stroke="black" points="180.5,-76.5 180.5,-95.5 352.5,-95.5 352.5,-76.5 180.5,-76.5"/>
<text text-anchor="middle" x="266.5" y="-83.5" font-family="Helvetica,sans-Serif" font-size="10.00">LineSpecsOf&lt; GridSpecsBase &gt;</text>
</a>
</g>
</g>
<!-- Node2&#45;&gt;Node1 -->
<g id="edge1" class="edge">
<title>Node2&#45;&gt;Node1</title>
<path fill="none" stroke="midnightblue" d="M323.54,-74.33C334.64,-71.96 346.2,-69.44 357,-67 370.29,-64 384.79,-60.58 397.73,-57.47"/>
<polygon fill="midnightblue" stroke="midnightblue" points="323.13,-71.05 314.08,-76.56 324.59,-77.9 323.13,-71.05"/>
</g>
<!-- Node3 -->
<g id="node3" class="node">
<title>Node3</title>
<g id="a_node3"><a xlink:href="classsciplot_1_1Specs.html" target="_top" xlink:title=" ">
<polygon fill="white" stroke="black" points="0,-38.5 0,-57.5 140,-57.5 140,-38.5 0,-38.5"/>
<text text-anchor="middle" x="70" y="-45.5" font-family="Helvetica,sans-Serif" font-size="10.00">Specs&lt; GridSpecsBase &gt;</text>
</a>
</g>
</g>
<!-- Node3&#45;&gt;Node2 -->
<g id="edge2" class="edge">
<title>Node3&#45;&gt;Node2</title>
<path fill="none" stroke="midnightblue" d="M130.37,-59.6C158.2,-65.04 190.93,-71.43 217.2,-76.56"/>
<polygon fill="midnightblue" stroke="midnightblue" points="131.06,-55.97 120.58,-57.49 129.72,-62.84 131.06,-55.97"/>
</g>
<!-- Node4 -->
<g id="node4" class="node">
<title>Node4</title>
<g id="a_node4"><a xlink:href="classsciplot_1_1DepthSpecsOf.html" target="_top" xlink:title=" ">
<polygon fill="white" stroke="black" points="176,-38.5 176,-57.5 357,-57.5 357,-38.5 176,-38.5"/>
<text text-anchor="middle" x="266.5" y="-45.5" font-family="Helvetica,sans-Serif" font-size="10.00">DepthSpecsOf&lt; GridSpecsBase &gt;</text>
</a>
</g>
</g>
<!-- Node3&#45;&gt;Node4 -->
<g id="edge4" class="edge">
<title>Node3&#45;&gt;Node4</title>
<path fill="none" stroke="midnightblue" d="M150.78,-48C159.2,-48 167.79,-48 176.31,-48"/>
<polygon fill="midnightblue" stroke="midnightblue" points="150.85,-44.5 140.85,-48 150.85,-51.5 150.85,-44.5"/>
</g>
<!-- Node5 -->
<g id="node5" class="node">
<title>Node5</title>
<g id="a_node5"><a xlink:href="classsciplot_1_1ShowSpecsOf.html" target="_top" xlink:title=" ">
<polygon fill="white" stroke="black" points="177.5,-0.5 177.5,-19.5 355.5,-19.5 355.5,-0.5 177.5,-0.5"/>
<text text-anchor="middle" x="266.5" y="-7.5" font-family="Helvetica,sans-Serif" font-size="10.00">ShowSpecsOf&lt; GridSpecsBase &gt;</text>
</a>
</g>
</g>
<!-- Node3&#45;&gt;Node5 -->
<g id="edge6" class="edge">
<title>Node3&#45;&gt;Node5</title>
<path fill="none" stroke="midnightblue" d="M130.37,-36.4C158.2,-30.96 190.93,-24.57 217.2,-19.44"/>
<polygon fill="midnightblue" stroke="midnightblue" points="129.72,-33.16 120.58,-38.51 131.06,-40.03 129.72,-33.16"/>
</g>
<!-- Node4&#45;&gt;Node1 -->
<g id="edge3" class="edge">
<title>Node4&#45;&gt;Node1</title>
<path fill="none" stroke="midnightblue" d="M367.87,-48C376.75,-48 385.38,-48 393.36,-48"/>
<polygon fill="midnightblue" stroke="midnightblue" points="367.95,-44.5 357.95,-48 367.95,-51.5 367.95,-44.5"/>
</g>
<!-- Node5&#45;&gt;Node1 -->
<g id="edge5" class="edge">
<title>Node5&#45;&gt;Node1</title>
<path fill="none" stroke="midnightblue" d="M323.54,-21.67C334.64,-24.04 346.2,-26.56 357,-29 370.29,-32 384.79,-35.42 397.73,-38.53"/>
<polygon fill="midnightblue" stroke="midnightblue" points="324.59,-18.1 314.08,-19.44 323.13,-24.95 324.59,-18.1"/>
</g>
</g>
</svg>
