<?xml version="1.0" encoding="UTF-8" standalone="no"?>
<!DOCTYPE svg PUBLIC "-//W3C//DTD SVG 1.1//EN"
 "http://www.w3.org/Graphics/SVG/1.1/DTD/svg11.dtd">
<!-- Generated by graphviz version 2.47.1 (20210511.0111)
 -->
<!-- Title: TicsSpecs Pages: 1 -->
<svg width="407pt" height="252pt"
 viewBox="0.00 0.00 407.00 252.00" xmlns="http://www.w3.org/2000/svg" xmlns:xlink="http://www.w3.org/1999/xlink">
<g id="graph0" class="graph" transform="scale(1 1) rotate(0) translate(4 248)">
<title>TicsSpecs</title>
<polygon fill="white" stroke="transparent" points="-4,4 -4,-248 403,-248 403,4 -4,4"/>
<!-- Node1 -->
<g id="node1" class="node">
<title>Node1</title>
<g id="a_node1"><a xlink:title="The class used to specify options for tics.">
<polygon fill="#bfbfbf" stroke="black" points="196,-0.5 196,-19.5 259,-19.5 259,-0.5 196,-0.5"/>
<text text-anchor="middle" x="227.5" y="-7.5" font-family="Helvetica" font-size="10.00">TicsSpecs</text>
</a>
</g>
</g>
<!-- Node2 -->
<g id="node2" class="node">
<title>Node2</title>
<g id="a_node2"><a xlink:href="classsciplot_1_1TicsSpecsBaseOf.html" target="_top" xlink:title=" ">
<polygon fill="white" stroke="black" points="147.5,-56.5 147.5,-75.5 307.5,-75.5 307.5,-56.5 147.5,-56.5"/>
<text text-anchor="middle" x="227.5" y="-63.5" font-family="Helvetica" font-size="10.00">TicsSpecsBaseOf&lt; TicsSpecs &gt;</text>
</a>
</g>
</g>
<!-- Node2&#45;&gt;Node1 -->
<g id="edge1" class="edge">
<title>Node2&#45;&gt;Node1</title>
<path fill="none" stroke="midnightblue" d="M227.5,-45.8C227.5,-36.91 227.5,-26.78 227.5,-19.75"/>
<polygon fill="midnightblue" stroke="midnightblue" points="224,-46.08 227.5,-56.08 231,-46.08 224,-46.08"/>
</g>
<!-- Node3 -->
<g id="node3" class="node">
<title>Node3</title>
<g id="a_node3"><a xlink:href="classsciplot_1_1TextSpecsOf.html" target="_top" xlink:title=" ">
<polygon fill="white" stroke="black" points="0,-112.5 0,-131.5 137,-131.5 137,-112.5 0,-112.5"/>
<text text-anchor="middle" x="68.5" y="-119.5" font-family="Helvetica" font-size="10.00">TextSpecsOf&lt; TicsSpecs &gt;</text>
</a>
</g>
</g>
<!-- Node3&#45;&gt;Node2 -->
<g id="edge2" class="edge">
<title>Node3&#45;&gt;Node2</title>
<path fill="none" stroke="midnightblue" d="M103.33,-109.17C133.27,-99 175.72,-84.59 202.42,-75.52"/>
<polygon fill="midnightblue" stroke="midnightblue" points="102.04,-105.91 93.69,-112.44 104.29,-112.54 102.04,-105.91"/>
</g>
<!-- Node4 -->
<g id="node4" class="node">
<title>Node4</title>
<g id="a_node4"><a xlink:href="classsciplot_1_1FontSpecsOf.html" target="_top" xlink:title=" ">
<polygon fill="white" stroke="black" points="30.5,-168.5 30.5,-187.5 168.5,-187.5 168.5,-168.5 30.5,-168.5"/>
<text text-anchor="middle" x="99.5" y="-175.5" font-family="Helvetica" font-size="10.00">FontSpecsOf&lt; TicsSpecs &gt;</text>
</a>
</g>
</g>
<!-- Node4&#45;&gt;Node3 -->
<g id="edge3" class="edge">
<title>Node4&#45;&gt;Node3</title>
<path fill="none" stroke="midnightblue" d="M89.32,-159.27C84.03,-150.05 77.78,-139.17 73.52,-131.75"/>
<polygon fill="midnightblue" stroke="midnightblue" points="86.37,-161.15 94.38,-168.08 92.44,-157.67 86.37,-161.15"/>
</g>
<!-- Node5 -->
<g id="node5" class="node">
<title>Node5</title>
<g id="a_node5"><a xlink:href="classsciplot_1_1Specs.html" target="_top" xlink:title=" ">
<polygon fill="white" stroke="black" points="173.5,-224.5 173.5,-243.5 281.5,-243.5 281.5,-224.5 173.5,-224.5"/>
<text text-anchor="middle" x="227.5" y="-231.5" font-family="Helvetica" font-size="10.00">Specs&lt; TicsSpecs &gt;</text>
</a>
</g>
</g>
<!-- Node5&#45;&gt;Node4 -->
<g id="edge4" class="edge">
<title>Node5&#45;&gt;Node4</title>
<path fill="none" stroke="midnightblue" d="M197.88,-220.5C173.88,-210.38 140.72,-196.39 119.69,-187.52"/>
<polygon fill="midnightblue" stroke="midnightblue" points="196.64,-223.78 207.22,-224.44 199.36,-217.33 196.64,-223.78"/>
</g>
<!-- Node6 -->
<g id="node6" class="node">
<title>Node6</title>
<g id="a_node6"><a xlink:href="classsciplot_1_1OffsetSpecsOf.html" target="_top" xlink:title=" ">
<polygon fill="white" stroke="black" points="155,-112.5 155,-131.5 300,-131.5 300,-112.5 155,-112.5"/>
<text text-anchor="middle" x="227.5" y="-119.5" font-family="Helvetica" font-size="10.00">OffsetSpecsOf&lt; TicsSpecs &gt;</text>
</a>
</g>
</g>
<!-- Node5&#45;&gt;Node6 -->
<g id="edge6" class="edge">
<title>Node5&#45;&gt;Node6</title>
<path fill="none" stroke="midnightblue" d="M227.5,-214.35C227.5,-190.25 227.5,-149.31 227.5,-131.59"/>
<polygon fill="midnightblue" stroke="midnightblue" points="224,-214.37 227.5,-224.37 231,-214.37 224,-214.37"/>
</g>
<!-- Node7 -->
<g id="node7" class="node">
<title>Node7</title>
<g id="a_node7"><a xlink:href="classsciplot_1_1ShowSpecsOf.html" target="_top" xlink:title=" ">
<polygon fill="white" stroke="black" points="256,-168.5 256,-187.5 399,-187.5 399,-168.5 256,-168.5"/>
<text text-anchor="middle" x="327.5" y="-175.5" font-family="Helvetica" font-size="10.00">ShowSpecsOf&lt; TicsSpecs &gt;</text>
</a>
</g>
</g>
<!-- Node5&#45;&gt;Node7 -->
<g id="edge8" class="edge">
<title>Node5&#45;&gt;Node7</title>
<path fill="none" stroke="midnightblue" d="M252.59,-219.45C271.05,-209.48 295.6,-196.23 311.47,-187.65"/>
<polygon fill="midnightblue" stroke="midnightblue" points="250.7,-216.49 243.57,-224.32 254.03,-222.65 250.7,-216.49"/>
</g>
<!-- Node6&#45;&gt;Node2 -->
<g id="edge5" class="edge">
<title>Node6&#45;&gt;Node2</title>
<path fill="none" stroke="midnightblue" d="M227.5,-101.8C227.5,-92.91 227.5,-82.78 227.5,-75.75"/>
<polygon fill="midnightblue" stroke="midnightblue" points="224,-102.08 227.5,-112.08 231,-102.08 224,-102.08"/>
</g>
<!-- Node7&#45;&gt;Node2 -->
<g id="edge7" class="edge">
<title>Node7&#45;&gt;Node2</title>
<path fill="none" stroke="midnightblue" d="M325.89,-158.5C323.83,-144.45 319.15,-125.34 308.5,-112 294.44,-94.4 271.54,-82.6 253.66,-75.51"/>
<polygon fill="midnightblue" stroke="midnightblue" points="322.42,-158.94 327.04,-168.48 329.37,-158.14 322.42,-158.94"/>
</g>
</g>
</svg>
