<?xml version="1.0" encoding="UTF-8" standalone="no"?>
<!DOCTYPE svg PUBLIC "-//W3C//DTD SVG 1.1//EN"
 "http://www.w3.org/Graphics/SVG/1.1/DTD/svg11.dtd">
<!-- Generated by graphviz version 2.47.2 (20210527.1257)
 -->
<!-- Title: TicsSpecsMajor Pages: 1 -->
<svg width="850pt" height="113pt"
 viewBox="0.00 0.00 850.00 113.00" xmlns="http://www.w3.org/2000/svg" xmlns:xlink="http://www.w3.org/1999/xlink">
<g id="graph0" class="graph" transform="scale(1 1) rotate(0) translate(4 109)">
<title>TicsSpecsMajor</title>
<polygon fill="white" stroke="transparent" points="-4,4 -4,-109 846,-109 846,4 -4,4"/>
<!-- Node1 -->
<g id="node1" class="node">
<title>Node1</title>
<g id="a_node1"><a xlink:title="The class used to specify options for major tics of a specific axis.">
<polygon fill="#bfbfbf" stroke="black" points="755,-41.5 755,-60.5 842,-60.5 842,-41.5 755,-41.5"/>
<text text-anchor="middle" x="798.5" y="-48.5" font-family="Helvetica" font-size="10.00">TicsSpecsMajor</text>
</a>
</g>
</g>
<!-- Node2 -->
<g id="node2" class="node">
<title>Node2</title>
<g id="a_node2"><a xlink:href="classsciplot_1_1TicsSpecsBaseOf.html" target="_top" xlink:title=" ">
<polygon fill="white" stroke="black" points="568,-36 568,-66 719,-66 719,-36 568,-36"/>
<text text-anchor="start" x="576" y="-54" font-family="Helvetica" font-size="10.00">TicsSpecsBaseOf&lt; TicsSpecs</text>
<text text-anchor="middle" x="643.5" y="-43" font-family="Helvetica" font-size="10.00">Major &gt;</text>
</a>
</g>
</g>
<!-- Node2&#45;&gt;Node1 -->
<g id="edge1" class="edge">
<title>Node2&#45;&gt;Node1</title>
<path fill="none" stroke="midnightblue" d="M729.28,-51C738.16,-51 746.89,-51 754.99,-51"/>
<polygon fill="midnightblue" stroke="midnightblue" points="729.21,-47.5 719.21,-51 729.21,-54.5 729.21,-47.5"/>
</g>
<!-- Node3 -->
<g id="node3" class="node">
<title>Node3</title>
<g id="a_node3"><a xlink:href="classsciplot_1_1TextSpecsOf.html" target="_top" xlink:title=" ">
<polygon fill="white" stroke="black" points="371,-85.5 371,-104.5 532,-104.5 532,-85.5 371,-85.5"/>
<text text-anchor="middle" x="451.5" y="-92.5" font-family="Helvetica" font-size="10.00">TextSpecsOf&lt; TicsSpecsMajor &gt;</text>
</a>
</g>
</g>
<!-- Node3&#45;&gt;Node2 -->
<g id="edge2" class="edge">
<title>Node3&#45;&gt;Node2</title>
<path fill="none" stroke="midnightblue" d="M503.51,-83.19C526.24,-77.92 553.28,-71.66 577.45,-66.07"/>
<polygon fill="midnightblue" stroke="midnightblue" points="502.68,-79.79 493.73,-85.45 504.26,-86.61 502.68,-79.79"/>
</g>
<!-- Node4 -->
<g id="node4" class="node">
<title>Node4</title>
<g id="a_node4"><a xlink:href="classsciplot_1_1FontSpecsOf.html" target="_top" xlink:title=" ">
<polygon fill="white" stroke="black" points="170.5,-82.5 170.5,-101.5 332.5,-101.5 332.5,-82.5 170.5,-82.5"/>
<text text-anchor="middle" x="251.5" y="-89.5" font-family="Helvetica" font-size="10.00">FontSpecsOf&lt; TicsSpecsMajor &gt;</text>
</a>
</g>
</g>
<!-- Node4&#45;&gt;Node3 -->
<g id="edge3" class="edge">
<title>Node4&#45;&gt;Node3</title>
<path fill="none" stroke="midnightblue" d="M342.82,-93.37C352.15,-93.51 361.58,-93.65 370.78,-93.79"/>
<polygon fill="midnightblue" stroke="midnightblue" points="342.8,-89.87 332.75,-93.22 342.69,-96.87 342.8,-89.87"/>
</g>
<!-- Node5 -->
<g id="node5" class="node">
<title>Node5</title>
<g id="a_node5"><a xlink:href="classsciplot_1_1Specs.html" target="_top" xlink:title=" ">
<polygon fill="white" stroke="black" points="0,-41.5 0,-60.5 132,-60.5 132,-41.5 0,-41.5"/>
<text text-anchor="middle" x="66" y="-48.5" font-family="Helvetica" font-size="10.00">Specs&lt; TicsSpecsMajor &gt;</text>
</a>
</g>
</g>
<!-- Node5&#45;&gt;Node4 -->
<g id="edge4" class="edge">
<title>Node5&#45;&gt;Node4</title>
<path fill="none" stroke="midnightblue" d="M119.57,-62.75C147.56,-69 181.53,-76.59 207.85,-82.47"/>
<polygon fill="midnightblue" stroke="midnightblue" points="120.08,-59.27 109.56,-60.51 118.56,-66.11 120.08,-59.27"/>
</g>
<!-- Node6 -->
<g id="node6" class="node">
<title>Node6</title>
<g id="a_node6"><a xlink:href="classsciplot_1_1OffsetSpecsOf.html" target="_top" xlink:title=" ">
<polygon fill="white" stroke="black" points="383.5,-36 383.5,-66 519.5,-66 519.5,-36 383.5,-36"/>
<text text-anchor="start" x="391.5" y="-54" font-family="Helvetica" font-size="10.00">OffsetSpecsOf&lt; TicsSpecs</text>
<text text-anchor="middle" x="451.5" y="-43" font-family="Helvetica" font-size="10.00">Major &gt;</text>
</a>
</g>
</g>
<!-- Node5&#45;&gt;Node6 -->
<g id="edge6" class="edge">
<title>Node5&#45;&gt;Node6</title>
<path fill="none" stroke="midnightblue" d="M142.14,-51C212.21,-51 315.76,-51 383.19,-51"/>
<polygon fill="midnightblue" stroke="midnightblue" points="142.06,-47.5 132.06,-51 142.06,-54.5 142.06,-47.5"/>
</g>
<!-- Node7 -->
<g id="node7" class="node">
<title>Node7</title>
<g id="a_node7"><a xlink:href="classsciplot_1_1ShowSpecsOf.html" target="_top" xlink:title=" ">
<polygon fill="white" stroke="black" points="168,-0.5 168,-19.5 335,-19.5 335,-0.5 168,-0.5"/>
<text text-anchor="middle" x="251.5" y="-7.5" font-family="Helvetica" font-size="10.00">ShowSpecsOf&lt; TicsSpecsMajor &gt;</text>
</a>
</g>
</g>
<!-- Node5&#45;&gt;Node7 -->
<g id="edge8" class="edge">
<title>Node5&#45;&gt;Node7</title>
<path fill="none" stroke="midnightblue" d="M119.57,-39.25C147.56,-33 181.53,-25.41 207.85,-19.53"/>
<polygon fill="midnightblue" stroke="midnightblue" points="118.56,-35.89 109.56,-41.49 120.08,-42.73 118.56,-35.89"/>
</g>
<!-- Node6&#45;&gt;Node2 -->
<g id="edge5" class="edge">
<title>Node6&#45;&gt;Node2</title>
<path fill="none" stroke="midnightblue" d="M530.12,-51C542.6,-51 555.49,-51 567.9,-51"/>
<polygon fill="midnightblue" stroke="midnightblue" points="529.75,-47.5 519.75,-51 529.75,-54.5 529.75,-47.5"/>
</g>
<!-- Node7&#45;&gt;Node2 -->
<g id="edge7" class="edge">
<title>Node7&#45;&gt;Node2</title>
<path fill="none" stroke="midnightblue" d="M345.11,-11.46C399.71,-13.28 470.04,-17.28 532,-26 549.14,-28.41 567.55,-32.12 584.34,-35.95"/>
<polygon fill="midnightblue" stroke="midnightblue" points="345.2,-7.97 335.1,-11.15 344.98,-14.96 345.2,-7.97"/>
</g>
</g>
</svg>
