<?xml version="1.0" encoding="UTF-8" standalone="no"?>
<!DOCTYPE svg PUBLIC "-//W3C//DTD SVG 1.1//EN"
 "http://www.w3.org/Graphics/SVG/1.1/DTD/svg11.dtd">
<!-- Generated by graphviz version 8.0.3 (20230418.1244)
 -->
<!-- Title: Plot3D Pages: 1 -->
<svg width="1264pt" height="859pt"
 viewBox="0.00 0.00 1264.00 859.00" xmlns="http://www.w3.org/2000/svg" xmlns:xlink="http://www.w3.org/1999/xlink">
<g id="graph0" class="graph" transform="scale(1 1) rotate(0) translate(4 855)">
<title>Plot3D</title>
<polygon fill="white" stroke="none" points="-4,4 -4,-855 1260,-855 1260,4 -4,4"/>
<!-- Node1 -->
<g id="node1" class="node">
<title>Node1</title>
<g id="a_node1"><a xlink:title="The class used to create a plot containing graphical elements.">
<polygon fill="#bfbfbf" stroke="black" points="1207,-429.5 1207,-448.5 1256,-448.5 1256,-429.5 1207,-429.5"/>
<text text-anchor="middle" x="1231.5" y="-436.5" font-family="Helvetica,sans-Serif" font-size="10.00">Plot3D</text>
</a>
</g>
</g>
<!-- Node2 -->
<g id="node2" class="node">
<title>Node2</title>
<g id="a_node2"><a xlink:href="classsciplot_1_1Plot.html" target="_top" xlink:title="The class used to create a plot containing graphical elements.">
<polygon fill="white" stroke="black" points="1135,-429.5 1135,-448.5 1170,-448.5 1170,-429.5 1135,-429.5"/>
<text text-anchor="middle" x="1152.5" y="-436.5" font-family="Helvetica,sans-Serif" font-size="10.00">Plot</text>
</a>
</g>
</g>
<!-- Node2&#45;&gt;Node1 -->
<g id="edge1" class="edge">
<title>Node2&#45;&gt;Node1</title>
<path fill="none" stroke="midnightblue" d="M1180.58,-439C1189.26,-439 1198.79,-439 1207.18,-439"/>
<polygon fill="midnightblue" stroke="midnightblue" points="1180.83,-435.5 1170.83,-439 1180.83,-442.5 1180.83,-435.5"/>
</g>
<!-- Node3 -->
<g id="node3" class="node">
<title>Node3</title>
<g id="a_node3"><a xlink:href="classsciplot_1_1BorderSpecs.html" target="_top" xlink:title="The class used to specify options for plot border.">
<polygon fill="white" stroke="black" points="866.5,-793.5 866.5,-812.5 943.5,-812.5 943.5,-793.5 866.5,-793.5"/>
<text text-anchor="middle" x="905" y="-800.5" font-family="Helvetica,sans-Serif" font-size="10.00">BorderSpecs</text>
</a>
</g>
</g>
<!-- Node3&#45;&gt;Node2 -->
<g id="edge2" class="edge">
<title>Node3&#45;&gt;Node2</title>
<path fill="none" stroke="#9a32cd" stroke-dasharray="5,2" d="M954.21,-810.84C1002.6,-815.7 1075.71,-814.27 1117,-771 1139.9,-747 1149.44,-500.27 1151.19,-448.5"/>
<polygon fill="#9a32cd" stroke="#9a32cd" points="954.71,-807.26 944.38,-809.61 953.92,-814.22 954.71,-807.26"/>
<text text-anchor="middle" x="1060.5" y="-815" font-family="Helvetica,sans-Serif" font-size="10.00"> m_border</text>
</g>
<!-- Node4 -->
<g id="node4" class="node">
<title>Node4</title>
<g id="a_node4"><a xlink:href="classsciplot_1_1LineSpecsOf.html" target="_top" xlink:title=" ">
<polygon fill="white" stroke="black" points="568.5,-831.5 568.5,-850.5 728.5,-850.5 728.5,-831.5 568.5,-831.5"/>
<text text-anchor="middle" x="648.5" y="-838.5" font-family="Helvetica,sans-Serif" font-size="10.00">LineSpecsOf&lt; BorderSpecs &gt;</text>
</a>
</g>
</g>
<!-- Node4&#45;&gt;Node3 -->
<g id="edge3" class="edge">
<title>Node4&#45;&gt;Node3</title>
<path fill="none" stroke="midnightblue" d="M723.81,-829.9C770.77,-822.89 829.44,-814.13 866.82,-808.55"/>
<polygon fill="midnightblue" stroke="midnightblue" points="723.44,-826.57 714.06,-831.51 724.47,-833.49 723.44,-826.57"/>
</g>
<!-- Node5 -->
<g id="node5" class="node">
<title>Node5</title>
<g id="a_node5"><a xlink:href="classsciplot_1_1Specs.html" target="_top" xlink:title=" ">
<polygon fill="white" stroke="black" points="194.5,-828.5 194.5,-847.5 322.5,-847.5 322.5,-828.5 194.5,-828.5"/>
<text text-anchor="middle" x="258.5" y="-835.5" font-family="Helvetica,sans-Serif" font-size="10.00">Specs&lt; BorderSpecs &gt;</text>
</a>
</g>
</g>
<!-- Node5&#45;&gt;Node4 -->
<g id="edge4" class="edge">
<title>Node5&#45;&gt;Node4</title>
<path fill="none" stroke="midnightblue" d="M333.21,-838.57C400.55,-839.09 499.83,-839.86 568.72,-840.39"/>
<polygon fill="midnightblue" stroke="midnightblue" points="333.3,-835.06 323.27,-838.49 333.24,-842.06 333.3,-835.06"/>
</g>
<!-- Node6 -->
<g id="node6" class="node">
<title>Node6</title>
<g id="a_node6"><a xlink:href="classsciplot_1_1DepthSpecsOf.html" target="_top" xlink:title=" ">
<polygon fill="white" stroke="black" points="564,-793.5 564,-812.5 733,-812.5 733,-793.5 564,-793.5"/>
<text text-anchor="middle" x="648.5" y="-800.5" font-family="Helvetica,sans-Serif" font-size="10.00">DepthSpecsOf&lt; BorderSpecs &gt;</text>
</a>
</g>
</g>
<!-- Node5&#45;&gt;Node6 -->
<g id="edge6" class="edge">
<title>Node5&#45;&gt;Node6</title>
<path fill="none" stroke="midnightblue" d="M332.98,-831.37C398.85,-825.43 495.42,-816.72 564.15,-810.52"/>
<polygon fill="midnightblue" stroke="midnightblue" points="332.92,-827.95 323.27,-832.34 333.54,-834.93 332.92,-827.95"/>
</g>
<!-- Node6&#45;&gt;Node3 -->
<g id="edge5" class="edge">
<title>Node6&#45;&gt;Node3</title>
<path fill="none" stroke="midnightblue" d="M743.58,-803C786.33,-803 834.47,-803 866.76,-803"/>
<polygon fill="midnightblue" stroke="midnightblue" points="743.83,-799.5 733.83,-803 743.83,-806.5 743.83,-799.5"/>
</g>
<!-- Node7 -->
<g id="node7" class="node">
<title>Node7</title>
<g id="a_node7"><a xlink:title=" ">
<polygon fill="white" stroke="#bfbfbf" points="824,-743.5 824,-762.5 986,-762.5 986,-743.5 824,-743.5"/>
<text text-anchor="middle" x="905" y="-750.5" font-family="Helvetica,sans-Serif" font-size="10.00">vector&lt; sciplot::DrawSpecs &gt;</text>
</a>
</g>
</g>
<!-- Node7&#45;&gt;Node2 -->
<g id="edge7" class="edge">
<title>Node7&#45;&gt;Node2</title>
<path fill="none" stroke="#9a32cd" stroke-dasharray="5,2" d="M996.71,-757.24C1039.09,-754.17 1086.76,-742.58 1117,-710 1153.3,-670.89 1152.44,-491.19 1151.7,-448.24"/>
<polygon fill="#9a32cd" stroke="#9a32cd" points="996.57,-753.8 986.78,-757.86 996.96,-760.79 996.57,-753.8"/>
<text text-anchor="middle" x="1060.5" y="-759" font-family="Helvetica,sans-Serif" font-size="10.00"> m_drawspecs</text>
</g>
<!-- Node8 -->
<g id="node8" class="node">
<title>Node8</title>
<g id="a_node8"><a xlink:href="classsciplot_1_1DrawSpecs.html" target="_top" xlink:title="The class where options for the plotted element can be specified.">
<polygon fill="white" stroke="black" points="613,-743.5 613,-762.5 684,-762.5 684,-743.5 613,-743.5"/>
<text text-anchor="middle" x="648.5" y="-750.5" font-family="Helvetica,sans-Serif" font-size="10.00">DrawSpecs</text>
</a>
</g>
</g>
<!-- Node8&#45;&gt;Node7 -->
<g id="edge8" class="edge">
<title>Node8&#45;&gt;Node7</title>
<path fill="none" stroke="#9a32cd" stroke-dasharray="5,2" d="M694.42,-753C730.22,-753 781.27,-753 824.01,-753"/>
<polygon fill="#9a32cd" stroke="#9a32cd" points="694.82,-749.5 684.82,-753 694.82,-756.5 694.82,-749.5"/>
<text text-anchor="middle" x="781.5" y="-756" font-family="Helvetica,sans-Serif" font-size="10.00"> elements</text>
</g>
<!-- Node9 -->
<g id="node9" class="node">
<title>Node9</title>
<g id="a_node9"><a xlink:href="classsciplot_1_1LineSpecsOf.html" target="_top" xlink:title=" ">
<polygon fill="white" stroke="red" points="182,-784.5 182,-803.5 335,-803.5 335,-784.5 182,-784.5"/>
<text text-anchor="middle" x="258.5" y="-791.5" font-family="Helvetica,sans-Serif" font-size="10.00">LineSpecsOf&lt; DrawSpecs &gt;</text>
</a>
</g>
</g>
<!-- Node9&#45;&gt;Node8 -->
<g id="edge9" class="edge">
<title>Node9&#45;&gt;Node8</title>
<path fill="none" stroke="midnightblue" d="M345.76,-787.04C401.29,-782.31 474.99,-775.54 540,-768 564.52,-765.15 592.1,-761.29 613.18,-758.2"/>
<polygon fill="midnightblue" stroke="midnightblue" points="345.57,-783.63 335.9,-787.96 346.16,-790.61 345.57,-783.63"/>
</g>
<!-- Node11 -->
<g id="node10" class="node">
<title>Node11</title>
<g id="a_node10"><a xlink:href="classsciplot_1_1PointSpecsOf.html" target="_top" xlink:title=" ">
<polygon fill="white" stroke="red" points="179.5,-746.5 179.5,-765.5 337.5,-765.5 337.5,-746.5 179.5,-746.5"/>
<text text-anchor="middle" x="258.5" y="-753.5" font-family="Helvetica,sans-Serif" font-size="10.00">PointSpecsOf&lt; DrawSpecs &gt;</text>
</a>
</g>
</g>
<!-- Node11&#45;&gt;Node8 -->
<g id="edge10" class="edge">
<title>Node11&#45;&gt;Node8</title>
<path fill="none" stroke="midnightblue" d="M347.94,-755.32C432.2,-754.66 554.67,-753.72 613.48,-753.26"/>
<polygon fill="midnightblue" stroke="midnightblue" points="348.06,-751.82 338.09,-755.4 348.11,-758.82 348.06,-751.82"/>
</g>
<!-- Node12 -->
<g id="node11" class="node">
<title>Node12</title>
<g id="a_node11"><a xlink:href="classsciplot_1_1FillSpecsOf.html" target="_top" xlink:title=" ">
<polygon fill="white" stroke="red" points="185,-708.5 185,-727.5 332,-727.5 332,-708.5 185,-708.5"/>
<text text-anchor="middle" x="258.5" y="-715.5" font-family="Helvetica,sans-Serif" font-size="10.00">FillSpecsOf&lt; DrawSpecs &gt;</text>
</a>
</g>
</g>
<!-- Node12&#45;&gt;Node8 -->
<g id="edge11" class="edge">
<title>Node12&#45;&gt;Node8</title>
<path fill="none" stroke="midnightblue" d="M342.41,-725.48C426.73,-733.09 553.29,-744.5 613.42,-749.93"/>
<polygon fill="midnightblue" stroke="midnightblue" points="342.84,-721.91 332.57,-724.5 342.22,-728.89 342.84,-721.91"/>
</g>
<!-- Node13 -->
<g id="node12" class="node">
<title>Node13</title>
<g id="a_node12"><a xlink:href="classsciplot_1_1FilledCurvesSpecsOf.html" target="_top" xlink:title=" ">
<polygon fill="white" stroke="red" points="200.5,-659 200.5,-689 316.5,-689 316.5,-659 200.5,-659"/>
<text text-anchor="start" x="208.5" y="-677" font-family="Helvetica,sans-Serif" font-size="10.00">FilledCurvesSpecsOf</text>
<text text-anchor="middle" x="258.5" y="-666" font-family="Helvetica,sans-Serif" font-size="10.00">&lt; DrawSpecs &gt;</text>
</a>
</g>
</g>
<!-- Node13&#45;&gt;Node8 -->
<g id="edge12" class="edge">
<title>Node13&#45;&gt;Node8</title>
<path fill="none" stroke="midnightblue" d="M327.09,-679.73C384.93,-686.11 469.73,-699 540,-724 548.62,-727.07 549.43,-730.79 558,-734 575.7,-740.63 596.29,-745.2 613.25,-748.19"/>
<polygon fill="midnightblue" stroke="midnightblue" points="327.57,-676.15 317.25,-678.57 326.83,-683.11 327.57,-676.15"/>
</g>
<!-- Node14 -->
<g id="node13" class="node">
<title>Node14</title>
<g id="a_node13"><a xlink:href="classsciplot_1_1HistogramStyleSpecs.html" target="_top" xlink:title="The class used to specify histogram style options.">
<polygon fill="white" stroke="black" points="844.5,-705.5 844.5,-724.5 965.5,-724.5 965.5,-705.5 844.5,-705.5"/>
<text text-anchor="middle" x="905" y="-712.5" font-family="Helvetica,sans-Serif" font-size="10.00">HistogramStyleSpecs</text>
</a>
</g>
</g>
<!-- Node14&#45;&gt;Node2 -->
<g id="edge13" class="edge">
<title>Node14&#45;&gt;Node2</title>
<path fill="none" stroke="#9a32cd" stroke-dasharray="5,2" d="M975.74,-703.54C1023.29,-691.9 1083.5,-668.88 1117,-624 1138.3,-595.46 1148.34,-481.37 1150.85,-448.13"/>
<polygon fill="#9a32cd" stroke="#9a32cd" points="975.13,-700.32 966.19,-706 976.72,-707.14 975.13,-700.32"/>
<text text-anchor="middle" x="1060.5" y="-698" font-family="Helvetica,sans-Serif" font-size="10.00"> m_style_histogram</text>
</g>
<!-- Node15 -->
<g id="node14" class="node">
<title>Node15</title>
<g id="a_node14"><a xlink:href="classsciplot_1_1Specs.html" target="_top" xlink:title=" ">
<polygon fill="white" stroke="black" points="562.5,-705.5 562.5,-724.5 734.5,-724.5 734.5,-705.5 562.5,-705.5"/>
<text text-anchor="middle" x="648.5" y="-712.5" font-family="Helvetica,sans-Serif" font-size="10.00">Specs&lt; HistogramStyleSpecs &gt;</text>
</a>
</g>
</g>
<!-- Node15&#45;&gt;Node14 -->
<g id="edge14" class="edge">
<title>Node15&#45;&gt;Node14</title>
<path fill="none" stroke="midnightblue" d="M744.97,-715C778.38,-715 814.92,-715 844.54,-715"/>
<polygon fill="midnightblue" stroke="midnightblue" points="745.24,-711.5 735.24,-715 745.24,-718.5 745.24,-711.5"/>
</g>
<!-- Node16 -->
<g id="node15" class="node">
<title>Node16</title>
<g id="a_node15"><a xlink:title="STL class.">
<polygon fill="white" stroke="#bfbfbf" points="626.5,-600.5 626.5,-619.5 670.5,-619.5 670.5,-600.5 626.5,-600.5"/>
<text text-anchor="middle" x="648.5" y="-607.5" font-family="Helvetica,sans-Serif" font-size="10.00">string</text>
</a>
</g>
</g>
<!-- Node16&#45;&gt;Node2 -->
<g id="edge15" class="edge">
<title>Node16&#45;&gt;Node2</title>
<path fill="none" stroke="#9a32cd" stroke-dasharray="5,2" d="M681.06,-610.82C780.65,-613.12 1083.67,-617.76 1117,-590 1139.11,-571.59 1148.36,-478.44 1150.8,-448.37"/>
<polygon fill="#9a32cd" stroke="#9a32cd" points="681.3,-607.3 671.22,-610.56 681.13,-614.3 681.3,-607.3"/>
<text text-anchor="middle" x="905" y="-681" font-family="Helvetica,sans-Serif" font-size="10.00"> m_boxwidth</text>
<text text-anchor="middle" x="905" y="-670" font-family="Helvetica,sans-Serif" font-size="10.00">m_data</text>
<text text-anchor="middle" x="905" y="-659" font-family="Helvetica,sans-Serif" font-size="10.00">m_datafilename</text>
<text text-anchor="middle" x="905" y="-648" font-family="Helvetica,sans-Serif" font-size="10.00">m_palette</text>
<text text-anchor="middle" x="905" y="-637" font-family="Helvetica,sans-Serif" font-size="10.00">m_samples</text>
<text text-anchor="middle" x="905" y="-626" font-family="Helvetica,sans-Serif" font-size="10.00">m_xrange</text>
<text text-anchor="middle" x="905" y="-615" font-family="Helvetica,sans-Serif" font-size="10.00">m_yrange</text>
</g>
<!-- Node39 -->
<g id="node35" class="node">
<title>Node39</title>
<g id="a_node35"><a xlink:title=" ">
<polygon fill="white" stroke="#bfbfbf" points="845.5,-554.5 845.5,-573.5 964.5,-573.5 964.5,-554.5 845.5,-554.5"/>
<text text-anchor="middle" x="905" y="-561.5" font-family="Helvetica,sans-Serif" font-size="10.00">vector&lt; std::string &gt;</text>
</a>
</g>
</g>
<!-- Node16&#45;&gt;Node39 -->
<g id="edge39" class="edge">
<title>Node16&#45;&gt;Node39</title>
<path fill="none" stroke="#9a32cd" stroke-dasharray="5,2" d="M680.82,-601.96C702.18,-596.66 731.18,-589.84 757,-585 786.01,-579.56 818.48,-574.79 845.51,-571.17"/>
<polygon fill="#9a32cd" stroke="#9a32cd" points="680.25,-598.75 671.4,-604.57 681.95,-605.54 680.25,-598.75"/>
<text text-anchor="middle" x="781.5" y="-588" font-family="Helvetica,sans-Serif" font-size="10.00"> elements</text>
</g>
<!-- Node17 -->
<g id="node16" class="node">
<title>Node17</title>
<g id="a_node16"><a xlink:title="STL class.">
<polygon fill="white" stroke="#bfbfbf" points="199,-620.5 199,-639.5 318,-639.5 318,-620.5 199,-620.5"/>
<text text-anchor="middle" x="258.5" y="-627.5" font-family="Helvetica,sans-Serif" font-size="10.00">basic_string&lt; char &gt;</text>
</a>
</g>
</g>
<!-- Node17&#45;&gt;Node16 -->
<g id="edge16" class="edge">
<title>Node17&#45;&gt;Node16</title>
<path fill="none" stroke="midnightblue" d="M328.53,-626.44C418.66,-621.8 571.45,-613.92 626.75,-611.07"/>
<polygon fill="midnightblue" stroke="midnightblue" points="328.39,-623 318.59,-627.01 328.75,-629.99 328.39,-623"/>
</g>
<!-- Node18 -->
<g id="node17" class="node">
<title>Node18</title>
<g id="a_node17"><a xlink:href="classsciplot_1_1TicsSpecsMinor.html" target="_top" xlink:title="The class used to specify options for minor tics of a specific axis.">
<polygon fill="white" stroke="black" points="859,-510.5 859,-529.5 951,-529.5 951,-510.5 859,-510.5"/>
<text text-anchor="middle" x="905" y="-517.5" font-family="Helvetica,sans-Serif" font-size="10.00">TicsSpecsMinor</text>
</a>
</g>
</g>
<!-- Node18&#45;&gt;Node2 -->
<g id="edge17" class="edge">
<title>Node18&#45;&gt;Node2</title>
<path fill="none" stroke="#9a32cd" stroke-dasharray="5,2" d="M953.37,-508C969.41,-504.04 987.45,-499.71 1004,-496 1054.01,-484.79 1071.77,-497.1 1117,-473 1128.28,-466.99 1138.33,-456.13 1144.63,-448.3"/>
<polygon fill="#9a32cd" stroke="#9a32cd" points="953.01,-504.73 944.15,-510.54 954.7,-511.53 953.01,-504.73"/>
<text text-anchor="middle" x="1060.5" y="-554" font-family="Helvetica,sans-Serif" font-size="10.00"> m_rtics_minor</text>
<text text-anchor="middle" x="1060.5" y="-543" font-family="Helvetica,sans-Serif" font-size="10.00">m_xtics_minor_bottom</text>
<text text-anchor="middle" x="1060.5" y="-532" font-family="Helvetica,sans-Serif" font-size="10.00">m_xtics_minor_top</text>
<text text-anchor="middle" x="1060.5" y="-521" font-family="Helvetica,sans-Serif" font-size="10.00">m_ytics_minor_left</text>
<text text-anchor="middle" x="1060.5" y="-510" font-family="Helvetica,sans-Serif" font-size="10.00">m_ytics_minor_right</text>
<text text-anchor="middle" x="1060.5" y="-499" font-family="Helvetica,sans-Serif" font-size="10.00">m_ztics_minor</text>
</g>
<!-- Node19 -->
<g id="node18" class="node">
<title>Node19</title>
<g id="a_node18"><a xlink:href="classsciplot_1_1ShowSpecsOf.html" target="_top" xlink:title=" ">
<polygon fill="white" stroke="black" points="558,-558.5 558,-577.5 739,-577.5 739,-558.5 558,-558.5"/>
<text text-anchor="middle" x="648.5" y="-565.5" font-family="Helvetica,sans-Serif" font-size="10.00">ShowSpecsOf&lt; TicsSpecsMinor &gt;</text>
</a>
</g>
</g>
<!-- Node19&#45;&gt;Node18 -->
<g id="edge18" class="edge">
<title>Node19&#45;&gt;Node18</title>
<path fill="none" stroke="midnightblue" d="M710.48,-556.5C756.31,-547.85 818.06,-536.21 859.36,-528.42"/>
<polygon fill="midnightblue" stroke="midnightblue" points="709.96,-553.22 700.78,-558.52 711.26,-560.1 709.96,-553.22"/>
</g>
<!-- Node20 -->
<g id="node19" class="node">
<title>Node20</title>
<g id="a_node19"><a xlink:href="classsciplot_1_1Specs.html" target="_top" xlink:title=" ">
<polygon fill="white" stroke="black" points="187,-582.5 187,-601.5 330,-601.5 330,-582.5 187,-582.5"/>
<text text-anchor="middle" x="258.5" y="-589.5" font-family="Helvetica,sans-Serif" font-size="10.00">Specs&lt; TicsSpecsMinor &gt;</text>
</a>
</g>
</g>
<!-- Node20&#45;&gt;Node19 -->
<g id="edge19" class="edge">
<title>Node20&#45;&gt;Node19</title>
<path fill="none" stroke="midnightblue" d="M340.55,-586.99C404.18,-583.05 492.68,-577.58 558.31,-573.52"/>
<polygon fill="midnightblue" stroke="midnightblue" points="340.53,-583.54 330.76,-587.65 340.96,-590.53 340.53,-583.54"/>
</g>
<!-- Node21 -->
<g id="node20" class="node">
<title>Node21</title>
<g id="a_node20"><a xlink:href="classsciplot_1_1AxisLabelSpecs.html" target="_top" xlink:title="The specifications for an axis label (e.g., xlabel, ylabel, etc.)">
<polygon fill="white" stroke="black" points="859,-461.5 859,-480.5 951,-480.5 951,-461.5 859,-461.5"/>
<text text-anchor="middle" x="905" y="-468.5" font-family="Helvetica,sans-Serif" font-size="10.00">AxisLabelSpecs</text>
</a>
</g>
</g>
<!-- Node21&#45;&gt;Node2 -->
<g id="edge20" class="edge">
<title>Node21&#45;&gt;Node2</title>
<path fill="none" stroke="#9a32cd" stroke-dasharray="5,2" d="M938.98,-457.85C957.71,-451.07 981.79,-443.51 1004,-440 1051.3,-432.53 1108.2,-435.44 1135.44,-437.55"/>
<polygon fill="#9a32cd" stroke="#9a32cd" points="938.04,-454.83 929.89,-461.6 940.49,-461.39 938.04,-454.83"/>
<text text-anchor="middle" x="1060.5" y="-465" font-family="Helvetica,sans-Serif" font-size="10.00"> m_rlabel</text>
<text text-anchor="middle" x="1060.5" y="-454" font-family="Helvetica,sans-Serif" font-size="10.00">m_xlabel</text>
<text text-anchor="middle" x="1060.5" y="-443" font-family="Helvetica,sans-Serif" font-size="10.00">m_ylabel</text>
</g>
<!-- Node22 -->
<g id="node21" class="node">
<title>Node22</title>
<g id="a_node21"><a xlink:href="classsciplot_1_1TextSpecsOf.html" target="_top" xlink:title=" ">
<polygon fill="white" stroke="black" points="561,-512.5 561,-531.5 736,-531.5 736,-512.5 561,-512.5"/>
<text text-anchor="middle" x="648.5" y="-519.5" font-family="Helvetica,sans-Serif" font-size="10.00">TextSpecsOf&lt; AxisLabelSpecs &gt;</text>
</a>
</g>
</g>
<!-- Node22&#45;&gt;Node21 -->
<g id="edge21" class="edge">
<title>Node22&#45;&gt;Node21</title>
<path fill="none" stroke="midnightblue" d="M707.49,-510.38C753.51,-501.16 816.91,-488.45 859.11,-479.99"/>
<polygon fill="midnightblue" stroke="midnightblue" points="706.89,-507.13 697.77,-512.53 708.27,-513.99 706.89,-507.13"/>
</g>
<!-- Node23 -->
<g id="node22" class="node">
<title>Node23</title>
<g id="a_node22"><a xlink:href="classsciplot_1_1FontSpecsOf.html" target="_top" xlink:title=" ">
<polygon fill="white" stroke="red" points="170.5,-544.5 170.5,-563.5 346.5,-563.5 346.5,-544.5 170.5,-544.5"/>
<text text-anchor="middle" x="258.5" y="-551.5" font-family="Helvetica,sans-Serif" font-size="10.00">FontSpecsOf&lt; AxisLabelSpecs &gt;</text>
</a>
</g>
</g>
<!-- Node23&#45;&gt;Node22 -->
<g id="edge22" class="edge">
<title>Node23&#45;&gt;Node22</title>
<path fill="none" stroke="midnightblue" d="M356.81,-545.97C419.63,-540.79 500.64,-534.11 561.17,-529.12"/>
<polygon fill="midnightblue" stroke="midnightblue" points="356.77,-542.55 347.09,-546.86 357.35,-549.52 356.77,-542.55"/>
</g>
<!-- Node25 -->
<g id="node23" class="node">
<title>Node25</title>
<g id="a_node23"><a xlink:href="classsciplot_1_1TicsSpecs.html" target="_top" xlink:title="The class used to specify options for tics.">
<polygon fill="white" stroke="black" points="872.5,-401.5 872.5,-420.5 937.5,-420.5 937.5,-401.5 872.5,-401.5"/>
<text text-anchor="middle" x="905" y="-408.5" font-family="Helvetica,sans-Serif" font-size="10.00">TicsSpecs</text>
</a>
</g>
</g>
<!-- Node25&#45;&gt;Node2 -->
<g id="edge23" class="edge">
<title>Node25&#45;&gt;Node2</title>
<path fill="none" stroke="#9a32cd" stroke-dasharray="5,2" d="M947.97,-400.57C991.83,-391.79 1061.82,-383.86 1117,-406 1128.85,-410.75 1138.92,-421.73 1145.08,-429.72"/>
<polygon fill="#9a32cd" stroke="#9a32cd" points="947.46,-397.31 938.4,-402.8 948.91,-404.16 947.46,-397.31"/>
<text text-anchor="middle" x="1060.5" y="-409" font-family="Helvetica,sans-Serif" font-size="10.00"> m_tics</text>
</g>
<!-- Node26 -->
<g id="node24" class="node">
<title>Node26</title>
<g id="a_node24"><a xlink:href="classsciplot_1_1TicsSpecsBaseOf.html" target="_top" xlink:title=" ">
<polygon fill="white" stroke="black" points="563.5,-452.5 563.5,-471.5 733.5,-471.5 733.5,-452.5 563.5,-452.5"/>
<text text-anchor="middle" x="648.5" y="-459.5" font-family="Helvetica,sans-Serif" font-size="10.00">TicsSpecsBaseOf&lt; TicsSpecs &gt;</text>
</a>
</g>
</g>
<!-- Node26&#45;&gt;Node25 -->
<g id="edge24" class="edge">
<title>Node26&#45;&gt;Node25</title>
<path fill="none" stroke="midnightblue" d="M707.36,-450.4C758.62,-440.13 831.52,-425.52 872.63,-417.29"/>
<polygon fill="midnightblue" stroke="midnightblue" points="706.89,-447.13 697.77,-452.53 708.27,-453.99 706.89,-447.13"/>
</g>
<!-- Node27 -->
<g id="node25" class="node">
<title>Node27</title>
<g id="a_node25"><a xlink:href="classsciplot_1_1TextSpecsOf.html" target="_top" xlink:title=" ">
<polygon fill="white" stroke="red" points="185,-506.5 185,-525.5 332,-525.5 332,-506.5 185,-506.5"/>
<text text-anchor="middle" x="258.5" y="-513.5" font-family="Helvetica,sans-Serif" font-size="10.00">TextSpecsOf&lt; TicsSpecs &gt;</text>
</a>
</g>
</g>
<!-- Node27&#45;&gt;Node26 -->
<g id="edge25" class="edge">
<title>Node27&#45;&gt;Node26</title>
<path fill="none" stroke="midnightblue" d="M342.72,-508.45C398.67,-502.9 473.97,-494.5 540,-484 561.73,-480.54 585.73,-475.73 605.54,-471.48"/>
<polygon fill="midnightblue" stroke="midnightblue" points="342.41,-505.06 332.8,-509.52 343.1,-512.03 342.41,-505.06"/>
</g>
<!-- Node30 -->
<g id="node26" class="node">
<title>Node30</title>
<g id="a_node26"><a xlink:href="classsciplot_1_1OffsetSpecsOf.html" target="_top" xlink:title=" ">
<polygon fill="white" stroke="red" points="180.5,-468.5 180.5,-487.5 336.5,-487.5 336.5,-468.5 180.5,-468.5"/>
<text text-anchor="middle" x="258.5" y="-475.5" font-family="Helvetica,sans-Serif" font-size="10.00">OffsetSpecsOf&lt; TicsSpecs &gt;</text>
</a>
</g>
</g>
<!-- Node30&#45;&gt;Node26 -->
<g id="edge26" class="edge">
<title>Node30&#45;&gt;Node26</title>
<path fill="none" stroke="midnightblue" d="M346.76,-474.4C411.62,-471.73 499.57,-468.1 563.6,-465.46"/>
<polygon fill="midnightblue" stroke="midnightblue" points="347,-470.93 337.16,-474.84 347.29,-477.92 347,-470.93"/>
</g>
<!-- Node31 -->
<g id="node27" class="node">
<title>Node31</title>
<g id="a_node27"><a xlink:href="classsciplot_1_1ShowSpecsOf.html" target="_top" xlink:title=" ">
<polygon fill="white" stroke="red" points="182,-430.5 182,-449.5 335,-449.5 335,-430.5 182,-430.5"/>
<text text-anchor="middle" x="258.5" y="-437.5" font-family="Helvetica,sans-Serif" font-size="10.00">ShowSpecsOf&lt; TicsSpecs &gt;</text>
</a>
</g>
</g>
<!-- Node31&#45;&gt;Node26 -->
<g id="edge27" class="edge">
<title>Node31&#45;&gt;Node26</title>
<path fill="none" stroke="midnightblue" d="M345.4,-444.87C410.4,-448.56 499.2,-453.59 563.69,-457.25"/>
<polygon fill="midnightblue" stroke="midnightblue" points="345.95,-441.34 335.77,-444.27 345.56,-448.33 345.95,-441.34"/>
</g>
<!-- Node32 -->
<g id="node28" class="node">
<title>Node32</title>
<g id="a_node28"><a xlink:href="classsciplot_1_1LegendSpecs.html" target="_top" xlink:title="The class used to specify options for legend.">
<polygon fill="white" stroke="black" points="865,-354.5 865,-373.5 945,-373.5 945,-354.5 865,-354.5"/>
<text text-anchor="middle" x="905" y="-361.5" font-family="Helvetica,sans-Serif" font-size="10.00">LegendSpecs</text>
</a>
</g>
</g>
<!-- Node32&#45;&gt;Node2 -->
<g id="edge28" class="edge">
<title>Node32&#45;&gt;Node2</title>
<path fill="none" stroke="#9a32cd" stroke-dasharray="5,2" d="M955.58,-354.03C1001.13,-347.66 1068.71,-345.5 1117,-376 1136.4,-388.25 1145.74,-415.44 1149.45,-429.76"/>
<polygon fill="#9a32cd" stroke="#9a32cd" points="955.14,-350.71 945.78,-355.68 956.19,-357.63 955.14,-350.71"/>
<text text-anchor="middle" x="1060.5" y="-379" font-family="Helvetica,sans-Serif" font-size="10.00"> m_legend</text>
</g>
<!-- Node33 -->
<g id="node29" class="node">
<title>Node33</title>
<g id="a_node29"><a xlink:href="classsciplot_1_1TextSpecsOf.html" target="_top" xlink:title=" ">
<polygon fill="white" stroke="black" points="567,-392.5 567,-411.5 730,-411.5 730,-392.5 567,-392.5"/>
<text text-anchor="middle" x="648.5" y="-399.5" font-family="Helvetica,sans-Serif" font-size="10.00">TextSpecsOf&lt; LegendSpecs &gt;</text>
</a>
</g>
</g>
<!-- Node33&#45;&gt;Node32 -->
<g id="edge29" class="edge">
<title>Node33&#45;&gt;Node32</title>
<path fill="none" stroke="midnightblue" d="M723.68,-390.92C770.05,-384 827.87,-375.37 865.34,-369.77"/>
<polygon fill="midnightblue" stroke="midnightblue" points="723.44,-387.57 714.06,-392.51 724.47,-394.49 723.44,-387.57"/>
</g>
<!-- Node34 -->
<g id="node30" class="node">
<title>Node34</title>
<g id="a_node30"><a xlink:href="classsciplot_1_1FontSpecsOf.html" target="_top" xlink:title=" ">
<polygon fill="white" stroke="black" points="176.5,-392.5 176.5,-411.5 340.5,-411.5 340.5,-392.5 176.5,-392.5"/>
<text text-anchor="middle" x="258.5" y="-399.5" font-family="Helvetica,sans-Serif" font-size="10.00">FontSpecsOf&lt; LegendSpecs &gt;</text>
</a>
</g>
</g>
<!-- Node34&#45;&gt;Node33 -->
<g id="edge30" class="edge">
<title>Node34&#45;&gt;Node33</title>
<path fill="none" stroke="midnightblue" d="M351.11,-402C416.7,-402 504.18,-402 567.07,-402"/>
<polygon fill="midnightblue" stroke="midnightblue" points="351.37,-398.5 341.37,-402 351.37,-405.5 351.37,-398.5"/>
</g>
<!-- Node35 -->
<g id="node31" class="node">
<title>Node35</title>
<g id="a_node31"><a xlink:href="classsciplot_1_1Specs.html" target="_top" xlink:title=" ">
<polygon fill="white" stroke="black" points="0,-335.5 0,-354.5 131,-354.5 131,-335.5 0,-335.5"/>
<text text-anchor="middle" x="65.5" y="-342.5" font-family="Helvetica,sans-Serif" font-size="10.00">Specs&lt; LegendSpecs &gt;</text>
</a>
</g>
</g>
<!-- Node35&#45;&gt;Node34 -->
<g id="edge31" class="edge">
<title>Node35&#45;&gt;Node34</title>
<path fill="none" stroke="midnightblue" d="M97.17,-358.65C112.52,-365.13 131.51,-372.61 149,-378 167.53,-383.71 188.23,-388.64 206.54,-392.52"/>
<polygon fill="midnightblue" stroke="midnightblue" points="98.75,-355.09 88.19,-354.37 95.99,-361.53 98.75,-355.09"/>
</g>
<!-- Node36 -->
<g id="node32" class="node">
<title>Node36</title>
<g id="a_node32"><a xlink:href="classsciplot_1_1ShowSpecsOf.html" target="_top" xlink:title=" ">
<polygon fill="white" stroke="black" points="369,-354.5 369,-373.5 538,-373.5 538,-354.5 369,-354.5"/>
<text text-anchor="middle" x="453.5" y="-361.5" font-family="Helvetica,sans-Serif" font-size="10.00">ShowSpecsOf&lt; LegendSpecs &gt;</text>
</a>
</g>
</g>
<!-- Node35&#45;&gt;Node36 -->
<g id="edge33" class="edge">
<title>Node35&#45;&gt;Node36</title>
<path fill="none" stroke="midnightblue" d="M141.31,-348.68C206.7,-351.9 301.52,-356.57 369.28,-359.9"/>
<polygon fill="midnightblue" stroke="midnightblue" points="141.83,-345.15 131.67,-348.16 141.49,-352.15 141.83,-345.15"/>
</g>
<!-- Node37 -->
<g id="node33" class="node">
<title>Node37</title>
<g id="a_node33"><a xlink:href="classsciplot_1_1TitleSpecsOf.html" target="_top" xlink:title=" ">
<polygon fill="white" stroke="black" points="371.5,-316.5 371.5,-335.5 535.5,-335.5 535.5,-316.5 371.5,-316.5"/>
<text text-anchor="middle" x="453.5" y="-323.5" font-family="Helvetica,sans-Serif" font-size="10.00">TitleSpecsOf&lt; LegendSpecs &gt;</text>
</a>
</g>
</g>
<!-- Node35&#45;&gt;Node37 -->
<g id="edge35" class="edge">
<title>Node35&#45;&gt;Node37</title>
<path fill="none" stroke="midnightblue" d="M141.44,-341.31C207.61,-338.05 303.86,-333.32 371.74,-329.98"/>
<polygon fill="midnightblue" stroke="midnightblue" points="141.49,-337.85 131.67,-341.84 141.83,-344.85 141.49,-337.85"/>
</g>
<!-- Node38 -->
<g id="node34" class="node">
<title>Node38</title>
<g id="a_node34"><a xlink:href="classsciplot_1_1FrameSpecsOf.html" target="_top" xlink:title=" ">
<polygon fill="white" stroke="black" points="367,-278.5 367,-297.5 540,-297.5 540,-278.5 367,-278.5"/>
<text text-anchor="middle" x="453.5" y="-285.5" font-family="Helvetica,sans-Serif" font-size="10.00">FrameSpecsOf&lt; LegendSpecs &gt;</text>
</a>
</g>
</g>
<!-- Node35&#45;&gt;Node38 -->
<g id="edge37" class="edge">
<title>Node35&#45;&gt;Node38</title>
<path fill="none" stroke="midnightblue" d="M128.35,-333.63C141.42,-331.34 155.15,-329.02 168,-327 238.92,-315.86 320.07,-304.91 377.51,-297.46"/>
<polygon fill="midnightblue" stroke="midnightblue" points="127.79,-330.35 118.55,-335.54 129.01,-337.25 127.79,-330.35"/>
</g>
<!-- Node36&#45;&gt;Node32 -->
<g id="edge32" class="edge">
<title>Node36&#45;&gt;Node32</title>
<path fill="none" stroke="midnightblue" d="M548.79,-364C646.73,-364 795.24,-364 865.09,-364"/>
<polygon fill="midnightblue" stroke="midnightblue" points="548.99,-360.5 538.99,-364 548.99,-367.5 548.99,-360.5"/>
</g>
<!-- Node37&#45;&gt;Node32 -->
<g id="edge34" class="edge">
<title>Node37&#45;&gt;Node32</title>
<path fill="none" stroke="midnightblue" d="M546.17,-333.75C644.1,-342.03 794.73,-354.76 865.17,-360.72"/>
<polygon fill="midnightblue" stroke="midnightblue" points="546.64,-330.19 536.38,-332.84 546.05,-337.17 546.64,-330.19"/>
</g>
<!-- Node38&#45;&gt;Node32 -->
<g id="edge36" class="edge">
<title>Node38&#45;&gt;Node32</title>
<path fill="none" stroke="midnightblue" d="M537.33,-298.97C594.19,-306.8 671.33,-318.04 739,-330 782.35,-337.66 831.75,-348.06 865.11,-355.34"/>
<polygon fill="midnightblue" stroke="midnightblue" points="537.97,-295.38 527.59,-297.49 537.02,-302.32 537.97,-295.38"/>
</g>
<!-- Node39&#45;&gt;Node2 -->
<g id="edge38" class="edge">
<title>Node39&#45;&gt;Node2</title>
<path fill="none" stroke="#9a32cd" stroke-dasharray="5,2" d="M975.18,-572.01C1028.06,-576.57 1095.43,-578.51 1117,-562 1135.4,-547.91 1146.75,-474.84 1150.3,-448.49"/>
<polygon fill="#9a32cd" stroke="#9a32cd" points="975.75,-568.45 965.47,-571.03 975.12,-575.42 975.75,-568.45"/>
<text text-anchor="middle" x="1060.5" y="-578" font-family="Helvetica,sans-Serif" font-size="10.00"> m_customcmds</text>
</g>
<!-- Node40 -->
<g id="node36" class="node">
<title>Node40</title>
<g id="a_node36"><a xlink:href="classsciplot_1_1FillStyleSpecs.html" target="_top" xlink:title="The class used to attach color or pattern fill options to a type.">
<polygon fill="white" stroke="black" points="863,-292.5 863,-311.5 947,-311.5 947,-292.5 863,-292.5"/>
<text text-anchor="middle" x="905" y="-299.5" font-family="Helvetica,sans-Serif" font-size="10.00">FillStyleSpecs</text>
</a>
</g>
</g>
<!-- Node40&#45;&gt;Node2 -->
<g id="edge40" class="edge">
<title>Node40&#45;&gt;Node2</title>
<path fill="none" stroke="#9a32cd" stroke-dasharray="5,2" d="M957.81,-307.27C1016.32,-313.66 1105.01,-324.84 1117,-335 1146.03,-359.59 1150.76,-409.24 1151.44,-429.78"/>
<polygon fill="#9a32cd" stroke="#9a32cd" points="958.22,-303.69 947.9,-306.1 957.47,-310.65 958.22,-303.69"/>
<text text-anchor="middle" x="1060.5" y="-338" font-family="Helvetica,sans-Serif" font-size="10.00"> m_style_fill</text>
</g>
<!-- Node41 -->
<g id="node37" class="node">
<title>Node41</title>
<g id="a_node37"><a xlink:href="classsciplot_1_1Specs.html" target="_top" xlink:title=" ">
<polygon fill="white" stroke="black" points="581,-240.5 581,-259.5 716,-259.5 716,-240.5 581,-240.5"/>
<text text-anchor="middle" x="648.5" y="-247.5" font-family="Helvetica,sans-Serif" font-size="10.00">Specs&lt; FillStyleSpecs &gt;</text>
</a>
</g>
</g>
<!-- Node41&#45;&gt;Node40 -->
<g id="edge41" class="edge">
<title>Node41&#45;&gt;Node40</title>
<path fill="none" stroke="midnightblue" d="M726.42,-259.82C751.88,-263.6 780.27,-268.38 806,-274 829.34,-279.1 855.31,-286.61 874.66,-292.57"/>
<polygon fill="midnightblue" stroke="midnightblue" points="727.11,-256.24 716.71,-258.27 726.1,-263.17 727.11,-256.24"/>
</g>
<!-- Node42 -->
<g id="node38" class="node">
<title>Node42</title>
<g id="a_node38"><a xlink:href="classsciplot_1_1TicsSpecsMajor.html" target="_top" xlink:title="The class used to specify options for major tics of a specific axis.">
<polygon fill="white" stroke="black" points="859,-219.5 859,-238.5 951,-238.5 951,-219.5 859,-219.5"/>
<text text-anchor="middle" x="905" y="-226.5" font-family="Helvetica,sans-Serif" font-size="10.00">TicsSpecsMajor</text>
</a>
</g>
</g>
<!-- Node42&#45;&gt;Node2 -->
<g id="edge42" class="edge">
<title>Node42&#45;&gt;Node2</title>
<path fill="none" stroke="#9a32cd" stroke-dasharray="5,2" d="M961.64,-224.95C1016.37,-222.24 1094.86,-222.21 1117,-242 1145.47,-267.46 1150.49,-394.65 1151.33,-429.92"/>
<polygon fill="#9a32cd" stroke="#9a32cd" points="961.49,-221.51 951.69,-225.54 961.87,-228.5 961.49,-221.51"/>
<text text-anchor="middle" x="1060.5" y="-300" font-family="Helvetica,sans-Serif" font-size="10.00"> m_rtics_major</text>
<text text-anchor="middle" x="1060.5" y="-289" font-family="Helvetica,sans-Serif" font-size="10.00">m_xtics_major_bottom</text>
<text text-anchor="middle" x="1060.5" y="-278" font-family="Helvetica,sans-Serif" font-size="10.00">m_xtics_major_top</text>
<text text-anchor="middle" x="1060.5" y="-267" font-family="Helvetica,sans-Serif" font-size="10.00">m_ytics_major_left</text>
<text text-anchor="middle" x="1060.5" y="-256" font-family="Helvetica,sans-Serif" font-size="10.00">m_ytics_major_right</text>
<text text-anchor="middle" x="1060.5" y="-245" font-family="Helvetica,sans-Serif" font-size="10.00">m_ztics_major</text>
</g>
<!-- Node43 -->
<g id="node39" class="node">
<title>Node43</title>
<g id="a_node39"><a xlink:href="classsciplot_1_1TicsSpecsBaseOf.html" target="_top" xlink:title=" ">
<polygon fill="white" stroke="black" points="569,-191 569,-221 728,-221 728,-191 569,-191"/>
<text text-anchor="start" x="577" y="-209" font-family="Helvetica,sans-Serif" font-size="10.00">TicsSpecsBaseOf&lt; TicsSpecs</text>
<text text-anchor="middle" x="648.5" y="-198" font-family="Helvetica,sans-Serif" font-size="10.00">Major &gt;</text>
</a>
</g>
</g>
<!-- Node43&#45;&gt;Node42 -->
<g id="edge43" class="edge">
<title>Node43&#45;&gt;Node42</title>
<path fill="none" stroke="midnightblue" d="M738.7,-214.06C779.43,-217.74 825.88,-221.94 859.15,-224.95"/>
<polygon fill="midnightblue" stroke="midnightblue" points="739.21,-210.5 728.94,-213.09 738.58,-217.47 739.21,-210.5"/>
</g>
<!-- Node44 -->
<g id="node40" class="node">
<title>Node44</title>
<g id="a_node40"><a xlink:href="classsciplot_1_1TextSpecsOf.html" target="_top" xlink:title=" ">
<polygon fill="white" stroke="red" points="171,-240.5 171,-259.5 346,-259.5 346,-240.5 171,-240.5"/>
<text text-anchor="middle" x="258.5" y="-247.5" font-family="Helvetica,sans-Serif" font-size="10.00">TextSpecsOf&lt; TicsSpecsMajor &gt;</text>
</a>
</g>
</g>
<!-- Node44&#45;&gt;Node43 -->
<g id="edge44" class="edge">
<title>Node44&#45;&gt;Node43</title>
<path fill="none" stroke="midnightblue" d="M356.42,-240.19C410.48,-234.58 479.02,-227.23 540,-220 549.44,-218.88 559.34,-217.66 569.15,-216.42"/>
<polygon fill="midnightblue" stroke="midnightblue" points="356.39,-236.78 346.8,-241.29 357.11,-243.74 356.39,-236.78"/>
</g>
<!-- Node47 -->
<g id="node41" class="node">
<title>Node47</title>
<g id="a_node41"><a xlink:href="classsciplot_1_1OffsetSpecsOf.html" target="_top" xlink:title=" ">
<polygon fill="white" stroke="red" points="186,-191 186,-221 331,-221 331,-191 186,-191"/>
<text text-anchor="start" x="194" y="-209" font-family="Helvetica,sans-Serif" font-size="10.00">OffsetSpecsOf&lt; TicsSpecs</text>
<text text-anchor="middle" x="258.5" y="-198" font-family="Helvetica,sans-Serif" font-size="10.00">Major &gt;</text>
</a>
</g>
</g>
<!-- Node47&#45;&gt;Node43 -->
<g id="edge45" class="edge">
<title>Node47&#45;&gt;Node43</title>
<path fill="none" stroke="midnightblue" d="M341.61,-206C408.74,-206 503.02,-206 569.12,-206"/>
<polygon fill="midnightblue" stroke="midnightblue" points="341.67,-202.5 331.67,-206 341.67,-209.5 341.67,-202.5"/>
</g>
<!-- Node48 -->
<g id="node42" class="node">
<title>Node48</title>
<g id="a_node42"><a xlink:href="classsciplot_1_1ShowSpecsOf.html" target="_top" xlink:title=" ">
<polygon fill="white" stroke="red" points="168,-152.5 168,-171.5 349,-171.5 349,-152.5 168,-152.5"/>
<text text-anchor="middle" x="258.5" y="-159.5" font-family="Helvetica,sans-Serif" font-size="10.00">ShowSpecsOf&lt; TicsSpecsMajor &gt;</text>
</a>
</g>
</g>
<!-- Node48&#45;&gt;Node43 -->
<g id="edge46" class="edge">
<title>Node48&#45;&gt;Node43</title>
<path fill="none" stroke="midnightblue" d="M354.03,-172.72C420.04,-180.21 507.11,-190.08 569.22,-197.12"/>
<polygon fill="midnightblue" stroke="midnightblue" points="354.54,-169.14 344.21,-171.49 353.75,-176.1 354.54,-169.14"/>
</g>
<!-- Node49 -->
<g id="node43" class="node">
<title>Node49</title>
<g id="a_node43"><a xlink:href="classsciplot_1_1GridSpecs.html" target="_top" xlink:title="The class used to specify options for grid.">
<polygon fill="white" stroke="black" points="872.5,-181.5 872.5,-200.5 937.5,-200.5 937.5,-181.5 872.5,-181.5"/>
<text text-anchor="middle" x="905" y="-188.5" font-family="Helvetica,sans-Serif" font-size="10.00">GridSpecs</text>
</a>
</g>
</g>
<!-- Node49&#45;&gt;Node2 -->
<g id="edge47" class="edge">
<title>Node49&#45;&gt;Node2</title>
<path fill="none" stroke="#9a32cd" stroke-dasharray="5,2" d="M948.12,-188.47C1002.62,-186.16 1093.38,-185.94 1117,-208 1149.96,-238.8 1151.69,-390.56 1151.58,-429.75"/>
<polygon fill="#9a32cd" stroke="#9a32cd" points="948.24,-185.01 938.41,-188.97 948.56,-192 948.24,-185.01"/>
<text text-anchor="middle" x="1060.5" y="-211" font-family="Helvetica,sans-Serif" font-size="10.00"> m_grid</text>
</g>
<!-- Node50 -->
<g id="node44" class="node">
<title>Node50</title>
<g id="a_node44"><a xlink:href="classsciplot_1_1GridSpecsBase.html" target="_top" xlink:title="The class used to specify options for grid lines along axis tics (major or minor).">
<polygon fill="white" stroke="black" points="604,-95.5 604,-114.5 693,-114.5 693,-95.5 604,-95.5"/>
<text text-anchor="middle" x="648.5" y="-102.5" font-family="Helvetica,sans-Serif" font-size="10.00">GridSpecsBase</text>
</a>
</g>
</g>
<!-- Node50&#45;&gt;Node49 -->
<g id="edge48" class="edge">
<title>Node50&#45;&gt;Node49</title>
<path fill="none" stroke="midnightblue" d="M687.6,-117.88C739.21,-135.31 830.11,-166.03 875.93,-181.51"/>
<polygon fill="midnightblue" stroke="midnightblue" points="688.81,-114.25 678.22,-114.37 686.57,-120.88 688.81,-114.25"/>
</g>
<!-- Node51 -->
<g id="node45" class="node">
<title>Node51</title>
<g id="a_node45"><a xlink:href="classsciplot_1_1LineSpecsOf.html" target="_top" xlink:title=" ">
<polygon fill="white" stroke="red" points="172.5,-114.5 172.5,-133.5 344.5,-133.5 344.5,-114.5 172.5,-114.5"/>
<text text-anchor="middle" x="258.5" y="-121.5" font-family="Helvetica,sans-Serif" font-size="10.00">LineSpecsOf&lt; GridSpecsBase &gt;</text>
</a>
</g>
</g>
<!-- Node51&#45;&gt;Node50 -->
<g id="edge49" class="edge">
<title>Node51&#45;&gt;Node50</title>
<path fill="none" stroke="midnightblue" d="M354.7,-119.34C434.3,-115.44 544.16,-110.06 604.13,-107.12"/>
<polygon fill="midnightblue" stroke="midnightblue" points="354.99,-115.87 345.17,-119.85 355.33,-122.86 354.99,-115.87"/>
</g>
<!-- Node53 -->
<g id="node46" class="node">
<title>Node53</title>
<g id="a_node46"><a xlink:href="classsciplot_1_1DepthSpecsOf.html" target="_top" xlink:title=" ">
<polygon fill="white" stroke="red" points="168,-76.5 168,-95.5 349,-95.5 349,-76.5 168,-76.5"/>
<text text-anchor="middle" x="258.5" y="-83.5" font-family="Helvetica,sans-Serif" font-size="10.00">DepthSpecsOf&lt; GridSpecsBase &gt;</text>
</a>
</g>
</g>
<!-- Node53&#45;&gt;Node50 -->
<g id="edge50" class="edge">
<title>Node53&#45;&gt;Node50</title>
<path fill="none" stroke="midnightblue" d="M359.49,-90.9C438.64,-94.77 545.32,-100 604.11,-102.88"/>
<polygon fill="midnightblue" stroke="midnightblue" points="359.67,-87.35 349.52,-90.36 359.33,-94.34 359.67,-87.35"/>
</g>
<!-- Node54 -->
<g id="node47" class="node">
<title>Node54</title>
<g id="a_node47"><a xlink:href="classsciplot_1_1ShowSpecsOf.html" target="_top" xlink:title=" ">
<polygon fill="white" stroke="red" points="169.5,-38.5 169.5,-57.5 347.5,-57.5 347.5,-38.5 169.5,-38.5"/>
<text text-anchor="middle" x="258.5" y="-45.5" font-family="Helvetica,sans-Serif" font-size="10.00">ShowSpecsOf&lt; GridSpecsBase &gt;</text>
</a>
</g>
</g>
<!-- Node54&#45;&gt;Node50 -->
<g id="edge51" class="edge">
<title>Node54&#45;&gt;Node50</title>
<path fill="none" stroke="midnightblue" d="M342.2,-58.89C398.11,-66.39 473.57,-76.82 540,-87 561.14,-90.24 584.56,-94.12 604.13,-97.46"/>
<polygon fill="midnightblue" stroke="midnightblue" points="343.02,-55.33 332.64,-57.47 342.09,-62.27 343.02,-55.33"/>
</g>
<!-- Node55 -->
<g id="node48" class="node">
<title>Node55</title>
<g id="a_node48"><a xlink:href="classsciplot_1_1FontSpecs.html" target="_top" xlink:title="The class used to specify font options.">
<polygon fill="white" stroke="black" points="872,-124.5 872,-143.5 938,-143.5 938,-124.5 872,-124.5"/>
<text text-anchor="middle" x="905" y="-131.5" font-family="Helvetica,sans-Serif" font-size="10.00">FontSpecs</text>
</a>
</g>
</g>
<!-- Node55&#45;&gt;Node2 -->
<g id="edge52" class="edge">
<title>Node55&#45;&gt;Node2</title>
<path fill="none" stroke="#9a32cd" stroke-dasharray="5,2" d="M948.45,-128.32C996.57,-124.49 1073.92,-126.72 1117,-172 1153.17,-210.01 1152.43,-386.69 1151.7,-429.59"/>
<polygon fill="#9a32cd" stroke="#9a32cd" points="948.4,-124.9 938.76,-129.31 949.04,-131.87 948.4,-124.9"/>
<text text-anchor="middle" x="1060.5" y="-175" font-family="Helvetica,sans-Serif" font-size="10.00"> m_font</text>
</g>
<!-- Node56 -->
<g id="node49" class="node">
<title>Node56</title>
<g id="a_node49"><a xlink:href="classsciplot_1_1FontSpecsOf.html" target="_top" xlink:title=" ">
<polygon fill="white" stroke="black" points="574,-29.5 574,-48.5 723,-48.5 723,-29.5 574,-29.5"/>
<text text-anchor="middle" x="648.5" y="-36.5" font-family="Helvetica,sans-Serif" font-size="10.00">FontSpecsOf&lt; FontSpecs &gt;</text>
</a>
</g>
</g>
<!-- Node56&#45;&gt;Node55 -->
<g id="edge53" class="edge">
<title>Node56&#45;&gt;Node55</title>
<path fill="none" stroke="midnightblue" d="M684.95,-52.23C737.1,-71.7 833.21,-107.57 878.77,-124.58"/>
<polygon fill="midnightblue" stroke="midnightblue" points="686.43,-48.67 675.83,-48.46 683.98,-55.23 686.43,-48.67"/>
</g>
<!-- Node57 -->
<g id="node50" class="node">
<title>Node57</title>
<g id="a_node50"><a xlink:href="classsciplot_1_1Specs.html" target="_top" xlink:title=" ">
<polygon fill="white" stroke="black" points="200,-0.5 200,-19.5 317,-19.5 317,-0.5 200,-0.5"/>
<text text-anchor="middle" x="258.5" y="-7.5" font-family="Helvetica,sans-Serif" font-size="10.00">Specs&lt; FontSpecs &gt;</text>
</a>
</g>
</g>
<!-- Node57&#45;&gt;Node56 -->
<g id="edge54" class="edge">
<title>Node57&#45;&gt;Node56</title>
<path fill="none" stroke="midnightblue" d="M327.5,-15.08C396.56,-20.24 503.15,-28.21 574.09,-33.51"/>
<polygon fill="midnightblue" stroke="midnightblue" points="327.98,-11.53 317.75,-14.28 327.46,-18.51 327.98,-11.53"/>
</g>
</g>
</svg>
