<?xml version="1.0" encoding="UTF-8" standalone="no"?>
<!DOCTYPE svg PUBLIC "-//W3C//DTD SVG 1.1//EN"
 "http://www.w3.org/Graphics/SVG/1.1/DTD/svg11.dtd">
<!-- Generated by graphviz version 8.0.5 (20230506.1012)
 -->
<!-- Title: TicsSpecsMajor Pages: 1 -->
<svg width="900pt" height="118pt"
 viewBox="0.00 0.00 899.50 117.75" xmlns="http://www.w3.org/2000/svg" xmlns:xlink="http://www.w3.org/1999/xlink">
<g id="graph0" class="graph" transform="scale(1 1) rotate(0) translate(4 113.75)">
<title>TicsSpecsMajor</title>
<polygon fill="white" stroke="none" points="-4,4 -4,-113.75 895.5,-113.75 895.5,4 -4,4"/>
<!-- Node1 -->
<g id="node1" class="node">
<title>Node1</title>
<g id="a_node1"><a xlink:title="The class used to specify options for major tics of a specific axis.">
<polygon fill="#bfbfbf" stroke="black" points="799.75,-42.5 799.75,-63.25 891.5,-63.25 891.5,-42.5 799.75,-42.5"/>
<text text-anchor="middle" x="845.62" y="-49.75" font-family="Helvetica,sans-Serif" font-size="10.00">TicsSpecsMajor</text>
</a>
</g>
</g>
<!-- Node2 -->
<g id="node2" class="node">
<title>Node2</title>
<g id="a_node2"><a xlink:href="classsciplot_1_1TicsSpecsBaseOf.html" target="_top" xlink:title=" ">
<polygon fill="white" stroke="black" points="605.25,-36.12 605.25,-69.62 763.75,-69.62 763.75,-36.12 605.25,-36.12"/>
<text text-anchor="start" x="613.25" y="-56.12" font-family="Helvetica,sans-Serif" font-size="10.00">TicsSpecsBaseOf&lt; TicsSpecs</text>
<text text-anchor="middle" x="684.5" y="-43.38" font-family="Helvetica,sans-Serif" font-size="10.00">Major &gt;</text>
</a>
</g>
</g>
<!-- Node2&#45;&gt;Node1 -->
<g id="edge1" class="edge">
<title>Node2&#45;&gt;Node1</title>
<path fill="none" stroke="midnightblue" d="M774.42,-52.88C783.19,-52.88 791.81,-52.88 799.84,-52.88"/>
<polygon fill="midnightblue" stroke="midnightblue" points="774.66,-49.38 764.66,-52.88 774.66,-56.38 774.66,-49.38"/>
</g>
<!-- Node3 -->
<g id="node3" class="node">
<title>Node3</title>
<g id="a_node3"><a xlink:href="classsciplot_1_1TextSpecsOf.html" target="_top" xlink:title=" ">
<polygon fill="white" stroke="black" points="395,-88.5 395,-109.25 569.25,-109.25 569.25,-88.5 395,-88.5"/>
<text text-anchor="middle" x="482.12" y="-95.75" font-family="Helvetica,sans-Serif" font-size="10.00">TextSpecsOf&lt; TicsSpecsMajor &gt;</text>
</a>
</g>
</g>
<!-- Node3&#45;&gt;Node2 -->
<g id="edge2" class="edge">
<title>Node3&#45;&gt;Node2</title>
<path fill="none" stroke="midnightblue" d="M538.71,-86.11C561.01,-81 587,-75.03 610.76,-69.57"/>
<polygon fill="midnightblue" stroke="midnightblue" points="538.06,-82.9 529.09,-88.55 539.62,-89.73 538.06,-82.9"/>
</g>
<!-- Node4 -->
<g id="node4" class="node">
<title>Node4</title>
<g id="a_node4"><a xlink:href="classsciplot_1_1FontSpecsOf.html" target="_top" xlink:title=" ">
<polygon fill="white" stroke="black" points="181.38,-84.5 181.38,-105.25 356.38,-105.25 356.38,-84.5 181.38,-84.5"/>
<text text-anchor="middle" x="268.88" y="-91.75" font-family="Helvetica,sans-Serif" font-size="10.00">FontSpecsOf&lt; TicsSpecsMajor &gt;</text>
</a>
</g>
</g>
<!-- Node4&#45;&gt;Node3 -->
<g id="edge3" class="edge">
<title>Node4&#45;&gt;Node3</title>
<path fill="none" stroke="midnightblue" d="M367.06,-96.72C376.44,-96.89 385.91,-97.07 395.17,-97.25"/>
<polygon fill="midnightblue" stroke="midnightblue" points="367.17,-93.2 357.1,-96.51 367.04,-100.2 367.17,-93.2"/>
</g>
<!-- Node5 -->
<g id="node5" class="node">
<title>Node5</title>
<g id="a_node5"><a xlink:href="classsciplot_1_1Specs.html" target="_top" xlink:title=" ">
<polygon fill="white" stroke="black" points="0,-42.5 0,-63.25 142.75,-63.25 142.75,-42.5 0,-42.5"/>
<text text-anchor="middle" x="71.38" y="-49.75" font-family="Helvetica,sans-Serif" font-size="10.00">Specs&lt; TicsSpecsMajor &gt;</text>
</a>
</g>
</g>
<!-- Node5&#45;&gt;Node4 -->
<g id="edge4" class="edge">
<title>Node5&#45;&gt;Node4</title>
<path fill="none" stroke="midnightblue" d="M131.02,-65.47C159.32,-71.55 192.85,-78.76 219.65,-84.51"/>
<polygon fill="midnightblue" stroke="midnightblue" points="131.96,-61.88 121.45,-63.2 130.49,-68.73 131.96,-61.88"/>
</g>
<!-- Node6 -->
<g id="node6" class="node">
<title>Node6</title>
<g id="a_node6"><a xlink:href="classsciplot_1_1OffsetSpecsOf.html" target="_top" xlink:title=" ">
<polygon fill="white" stroke="black" points="410,-36.12 410,-69.62 554.25,-69.62 554.25,-36.12 410,-36.12"/>
<text text-anchor="start" x="418" y="-56.12" font-family="Helvetica,sans-Serif" font-size="10.00">OffsetSpecsOf&lt; TicsSpecs</text>
<text text-anchor="middle" x="482.12" y="-43.38" font-family="Helvetica,sans-Serif" font-size="10.00">Major &gt;</text>
</a>
</g>
</g>
<!-- Node5&#45;&gt;Node6 -->
<g id="edge6" class="edge">
<title>Node5&#45;&gt;Node6</title>
<path fill="none" stroke="midnightblue" d="M153.43,-52.88C228.33,-52.88 338.53,-52.88 410.06,-52.88"/>
<polygon fill="midnightblue" stroke="midnightblue" points="153.64,-49.38 143.64,-52.88 153.64,-56.38 153.64,-49.38"/>
</g>
<!-- Node7 -->
<g id="node7" class="node">
<title>Node7</title>
<g id="a_node7"><a xlink:href="classsciplot_1_1ShowSpecsOf.html" target="_top" xlink:title=" ">
<polygon fill="white" stroke="black" points="178.75,-0.5 178.75,-21.25 359,-21.25 359,-0.5 178.75,-0.5"/>
<text text-anchor="middle" x="268.88" y="-7.75" font-family="Helvetica,sans-Serif" font-size="10.00">ShowSpecsOf&lt; TicsSpecsMajor &gt;</text>
</a>
</g>
</g>
<!-- Node5&#45;&gt;Node7 -->
<g id="edge8" class="edge">
<title>Node5&#45;&gt;Node7</title>
<path fill="none" stroke="midnightblue" d="M131.02,-40.28C159.32,-34.2 192.85,-26.99 219.65,-21.24"/>
<polygon fill="midnightblue" stroke="midnightblue" points="130.49,-37.02 121.45,-42.55 131.96,-43.87 130.49,-37.02"/>
</g>
<!-- Node6&#45;&gt;Node2 -->
<g id="edge5" class="edge">
<title>Node6&#45;&gt;Node2</title>
<path fill="none" stroke="midnightblue" d="M564.73,-52.88C578.2,-52.88 592.14,-52.88 605.51,-52.88"/>
<polygon fill="midnightblue" stroke="midnightblue" points="565.05,-49.38 555.05,-52.88 565.05,-56.38 565.05,-49.38"/>
</g>
<!-- Node7&#45;&gt;Node2 -->
<g id="edge7" class="edge">
<title>Node7&#45;&gt;Node2</title>
<path fill="none" stroke="midnightblue" d="M369.39,-11.95C427.84,-13.64 503.01,-17.64 569.25,-26.88 585.47,-29.14 602.78,-32.55 618.9,-36.16"/>
<polygon fill="midnightblue" stroke="midnightblue" points="369.77,-8.44 359.68,-11.66 369.58,-15.43 369.77,-8.44"/>
</g>
</g>
</svg>
