<?xml version="1.0" encoding="UTF-8" standalone="no"?>
<!DOCTYPE svg PUBLIC "-//W3C//DTD SVG 1.1//EN"
 "http://www.w3.org/Graphics/SVG/1.1/DTD/svg11.dtd">
<!-- Generated by graphviz version 8.0.5 (20230506.1012)
 -->
<!-- Title: FilledCurvesSpecs Pages: 1 -->
<svg width="164pt" height="158pt"
 viewBox="0.00 0.00 163.50 158.00" xmlns="http://www.w3.org/2000/svg" xmlns:xlink="http://www.w3.org/1999/xlink">
<g id="graph0" class="graph" transform="scale(1 1) rotate(0) translate(4 154)">
<title>FilledCurvesSpecs</title>
<polygon fill="white" stroke="none" points="-4,4 -4,-154 159.5,-154 159.5,4 -4,4"/>
<!-- Node1 -->
<g id="node1" class="node">
<title>Node1</title>
<g id="a_node1"><a xlink:title="The class used to specify color or pattern fill options.">
<polygon fill="#bfbfbf" stroke="black" points="25.5,-0.5 25.5,-21.25 130,-21.25 130,-0.5 25.5,-0.5"/>
<text text-anchor="middle" x="77.75" y="-7.75" font-family="Helvetica,sans-Serif" font-size="10.00">FilledCurvesSpecs</text>
</a>
</g>
</g>
<!-- Node2 -->
<g id="node2" class="node">
<title>Node2</title>
<g id="a_node2"><a xlink:href="classsciplot_1_1FilledCurvesSpecsOf.html" target="_top" xlink:title=" ">
<polygon fill="white" stroke="black" points="14.25,-58.25 14.25,-91.75 141.25,-91.75 141.25,-58.25 14.25,-58.25"/>
<text text-anchor="start" x="22.25" y="-78.25" font-family="Helvetica,sans-Serif" font-size="10.00">FilledCurvesSpecsOf</text>
<text text-anchor="middle" x="77.75" y="-65.5" font-family="Helvetica,sans-Serif" font-size="10.00">&lt; FilledCurvesSpecs &gt;</text>
</a>
</g>
</g>
<!-- Node2&#45;&gt;Node1 -->
<g id="edge1" class="edge">
<title>Node2&#45;&gt;Node1</title>
<path fill="none" stroke="midnightblue" d="M77.75,-47.35C77.75,-37.93 77.75,-27.96 77.75,-20.99"/>
<polygon fill="midnightblue" stroke="midnightblue" points="74.25,-47.32 77.75,-57.32 81.25,-47.32 74.25,-47.32"/>
</g>
<!-- Node3 -->
<g id="node3" class="node">
<title>Node3</title>
<g id="a_node3"><a xlink:href="classsciplot_1_1Specs.html" target="_top" xlink:title=" ">
<polygon fill="white" stroke="black" points="0,-128.75 0,-149.5 155.5,-149.5 155.5,-128.75 0,-128.75"/>
<text text-anchor="middle" x="77.75" y="-136" font-family="Helvetica,sans-Serif" font-size="10.00">Specs&lt; FilledCurvesSpecs &gt;</text>
</a>
</g>
</g>
<!-- Node3&#45;&gt;Node2 -->
<g id="edge2" class="edge">
<title>Node3&#45;&gt;Node2</title>
<path fill="none" stroke="midnightblue" d="M77.75,-117.98C77.75,-109.37 77.75,-99.49 77.75,-91.47"/>
<polygon fill="midnightblue" stroke="midnightblue" points="74.25,-117.96 77.75,-127.96 81.25,-117.96 74.25,-117.96"/>
</g>
</g>
</svg>
