<?xml version="1.0" encoding="UTF-8" standalone="no"?>
<!DOCTYPE svg PUBLIC "-//W3C//DTD SVG 1.1//EN"
 "http://www.w3.org/Graphics/SVG/1.1/DTD/svg11.dtd">
<!-- Generated by graphviz version 8.0.3 (20230418.1244)
 -->
<!-- Title: TextSpecs Pages: 1 -->
<svg width="157pt" height="196pt"
 viewBox="0.00 0.00 157.00 196.00" xmlns="http://www.w3.org/2000/svg" xmlns:xlink="http://www.w3.org/1999/xlink">
<g id="graph0" class="graph" transform="scale(1 1) rotate(0) translate(4 192)">
<title>TextSpecs</title>
<polygon fill="white" stroke="none" points="-4,4 -4,-192 153,-192 153,4 -4,4"/>
<!-- Node1 -->
<g id="node1" class="node">
<title>Node1</title>
<g id="a_node1"><a xlink:title="The class used to specify text options.">
<polygon fill="#bfbfbf" stroke="black" points="42,-0.5 42,-19.5 107,-19.5 107,-0.5 42,-0.5"/>
<text text-anchor="middle" x="74.5" y="-7.5" font-family="Helvetica,sans-Serif" font-size="10.00">TextSpecs</text>
</a>
</g>
</g>
<!-- Node2 -->
<g id="node2" class="node">
<title>Node2</title>
<g id="a_node2"><a xlink:href="classsciplot_1_1TextSpecsOf.html" target="_top" xlink:title=" ">
<polygon fill="white" stroke="black" points="0.5,-56.5 0.5,-75.5 148.5,-75.5 148.5,-56.5 0.5,-56.5"/>
<text text-anchor="middle" x="74.5" y="-63.5" font-family="Helvetica,sans-Serif" font-size="10.00">TextSpecsOf&lt; TextSpecs &gt;</text>
</a>
</g>
</g>
<!-- Node2&#45;&gt;Node1 -->
<g id="edge1" class="edge">
<title>Node2&#45;&gt;Node1</title>
<path fill="none" stroke="midnightblue" d="M74.5,-45.72C74.5,-36.61 74.5,-26.22 74.5,-19.2"/>
<polygon fill="midnightblue" stroke="midnightblue" points="71,-45.56 74.5,-55.56 78,-45.56 71,-45.56"/>
</g>
<!-- Node3 -->
<g id="node3" class="node">
<title>Node3</title>
<g id="a_node3"><a xlink:href="classsciplot_1_1FontSpecsOf.html" target="_top" xlink:title=" ">
<polygon fill="white" stroke="black" points="0,-112.5 0,-131.5 149,-131.5 149,-112.5 0,-112.5"/>
<text text-anchor="middle" x="74.5" y="-119.5" font-family="Helvetica,sans-Serif" font-size="10.00">FontSpecsOf&lt; TextSpecs &gt;</text>
</a>
</g>
</g>
<!-- Node3&#45;&gt;Node2 -->
<g id="edge2" class="edge">
<title>Node3&#45;&gt;Node2</title>
<path fill="none" stroke="midnightblue" d="M74.5,-101.72C74.5,-92.61 74.5,-82.22 74.5,-75.2"/>
<polygon fill="midnightblue" stroke="midnightblue" points="71,-101.56 74.5,-111.56 78,-101.56 71,-101.56"/>
</g>
<!-- Node4 -->
<g id="node4" class="node">
<title>Node4</title>
<g id="a_node4"><a xlink:href="classsciplot_1_1Specs.html" target="_top" xlink:title=" ">
<polygon fill="white" stroke="black" points="16.5,-168.5 16.5,-187.5 132.5,-187.5 132.5,-168.5 16.5,-168.5"/>
<text text-anchor="middle" x="74.5" y="-175.5" font-family="Helvetica,sans-Serif" font-size="10.00">Specs&lt; TextSpecs &gt;</text>
</a>
</g>
</g>
<!-- Node4&#45;&gt;Node3 -->
<g id="edge3" class="edge">
<title>Node4&#45;&gt;Node3</title>
<path fill="none" stroke="midnightblue" d="M74.5,-157.72C74.5,-148.61 74.5,-138.22 74.5,-131.2"/>
<polygon fill="midnightblue" stroke="midnightblue" points="71,-157.56 74.5,-167.56 78,-157.56 71,-157.56"/>
</g>
</g>
</svg>
