<?xml version="1.0" encoding="UTF-8" standalone="no"?>
<!DOCTYPE svg PUBLIC "-//W3C//DTD SVG 1.1//EN"
 "http://www.w3.org/Graphics/SVG/1.1/DTD/svg11.dtd">
<!-- Generated by graphviz version 7.0.5 (20221231.0122)
 -->
<!-- Title: TicsSpecsBaseOf&lt; DerivedSpecs &gt; Pages: 1 -->
<svg width="746pt" height="104pt"
 viewBox="0.00 0.00 746.00 104.00" xmlns="http://www.w3.org/2000/svg" xmlns:xlink="http://www.w3.org/1999/xlink">
<g id="graph0" class="graph" transform="scale(1 1) rotate(0) translate(4 100)">
<title>TicsSpecsBaseOf&lt; DerivedSpecs &gt;</title>
<polygon fill="white" stroke="none" points="-4,4 -4,-100 742,-100 742,4 -4,4"/>
<!-- Node1 -->
<g id="node1" class="node">
<title>Node1</title>
<g id="a_node1"><a xlink:title="The class used to attach common tic options to a type that also specifies tic options.">
<polygon fill="#bfbfbf" stroke="black" points="589,-33 589,-63 738,-63 738,-33 589,-33"/>
<text text-anchor="start" x="597" y="-51" font-family="Helvetica,sans-Serif" font-size="10.00">TicsSpecsBaseOf&lt; Derived</text>
<text text-anchor="middle" x="663.5" y="-40" font-family="Helvetica,sans-Serif" font-size="10.00">Specs &gt;</text>
</a>
</g>
</g>
<!-- Node2 -->
<g id="node2" class="node">
<title>Node2</title>
<g id="a_node2"><a xlink:href="classsciplot_1_1TextSpecsOf.html" target="_top" xlink:title="The class used to attach text options to a type.">
<polygon fill="white" stroke="black" points="382.5,-76.5 382.5,-95.5 548.5,-95.5 548.5,-76.5 382.5,-76.5"/>
<text text-anchor="middle" x="465.5" y="-83.5" font-family="Helvetica,sans-Serif" font-size="10.00">TextSpecsOf&lt; DerivedSpecs &gt;</text>
</a>
</g>
</g>
<!-- Node2&#45;&gt;Node1 -->
<g id="edge1" class="edge">
<title>Node2&#45;&gt;Node1</title>
<path fill="none" stroke="midnightblue" d="M526.51,-74.37C546.35,-70.52 568.66,-66.19 589.37,-62.18"/>
<polygon fill="midnightblue" stroke="midnightblue" points="526.09,-70.88 516.94,-76.22 527.42,-77.75 526.09,-70.88"/>
</g>
<!-- Node3 -->
<g id="node3" class="node">
<title>Node3</title>
<g id="a_node3"><a xlink:href="classsciplot_1_1FontSpecsOf.html" target="_top" xlink:title="The class used to attach font options to a type.">
<polygon fill="white" stroke="black" points="172.5,-76.5 172.5,-95.5 339.5,-95.5 339.5,-76.5 172.5,-76.5"/>
<text text-anchor="middle" x="256" y="-83.5" font-family="Helvetica,sans-Serif" font-size="10.00">FontSpecsOf&lt; DerivedSpecs &gt;</text>
</a>
</g>
</g>
<!-- Node3&#45;&gt;Node2 -->
<g id="edge2" class="edge">
<title>Node3&#45;&gt;Node2</title>
<path fill="none" stroke="midnightblue" d="M350.77,-86C361.4,-86 372.17,-86 382.63,-86"/>
<polygon fill="midnightblue" stroke="midnightblue" points="350.82,-82.5 340.82,-86 350.82,-89.5 350.82,-82.5"/>
</g>
<!-- Node4 -->
<g id="node4" class="node">
<title>Node4</title>
<g id="a_node4"><a xlink:href="classsciplot_1_1Specs.html" target="_top" xlink:title="The base class for other specs classes (e.g., LineSpecsOf, DrawSpecs, BorderSpecs,...">
<polygon fill="white" stroke="black" points="0,-38.5 0,-57.5 134,-57.5 134,-38.5 0,-38.5"/>
<text text-anchor="middle" x="67" y="-45.5" font-family="Helvetica,sans-Serif" font-size="10.00">Specs&lt; DerivedSpecs &gt;</text>
</a>
</g>
</g>
<!-- Node4&#45;&gt;Node3 -->
<g id="edge3" class="edge">
<title>Node4&#45;&gt;Node3</title>
<path fill="none" stroke="midnightblue" d="M125.8,-59.74C152.39,-65.15 183.53,-71.48 208.57,-76.56"/>
<polygon fill="midnightblue" stroke="midnightblue" points="126.69,-56.35 116.19,-57.79 125.29,-63.21 126.69,-56.35"/>
</g>
<!-- Node5 -->
<g id="node5" class="node">
<title>Node5</title>
<g id="a_node5"><a xlink:href="classsciplot_1_1OffsetSpecsOf.html" target="_top" xlink:title="The class used to attach offset options to a type.">
<polygon fill="white" stroke="black" points="378,-38.5 378,-57.5 553,-57.5 553,-38.5 378,-38.5"/>
<text text-anchor="middle" x="465.5" y="-45.5" font-family="Helvetica,sans-Serif" font-size="10.00">OffsetSpecsOf&lt; DerivedSpecs &gt;</text>
</a>
</g>
</g>
<!-- Node4&#45;&gt;Node5 -->
<g id="edge5" class="edge">
<title>Node4&#45;&gt;Node5</title>
<path fill="none" stroke="midnightblue" d="M145.22,-48C212.14,-48 308.87,-48 378.3,-48"/>
<polygon fill="midnightblue" stroke="midnightblue" points="145.43,-44.5 135.43,-48 145.43,-51.5 145.43,-44.5"/>
</g>
<!-- Node6 -->
<g id="node6" class="node">
<title>Node6</title>
<g id="a_node6"><a xlink:href="classsciplot_1_1ShowSpecsOf.html" target="_top" xlink:title="The class used to attach visibility options to a type.">
<polygon fill="white" stroke="black" points="170,-0.5 170,-19.5 342,-19.5 342,-0.5 170,-0.5"/>
<text text-anchor="middle" x="256" y="-7.5" font-family="Helvetica,sans-Serif" font-size="10.00">ShowSpecsOf&lt; DerivedSpecs &gt;</text>
</a>
</g>
</g>
<!-- Node4&#45;&gt;Node6 -->
<g id="edge7" class="edge">
<title>Node4&#45;&gt;Node6</title>
<path fill="none" stroke="midnightblue" d="M125.8,-36.26C152.39,-30.85 183.53,-24.52 208.57,-19.44"/>
<polygon fill="midnightblue" stroke="midnightblue" points="125.29,-32.79 116.19,-38.21 126.69,-39.65 125.29,-32.79"/>
</g>
<!-- Node5&#45;&gt;Node1 -->
<g id="edge4" class="edge">
<title>Node5&#45;&gt;Node1</title>
<path fill="none" stroke="midnightblue" d="M564.16,-48C572.55,-48 580.94,-48 589.08,-48"/>
<polygon fill="midnightblue" stroke="midnightblue" points="564.27,-44.5 554.27,-48 564.27,-51.5 564.27,-44.5"/>
</g>
<!-- Node6&#45;&gt;Node1 -->
<g id="edge6" class="edge">
<title>Node6&#45;&gt;Node1</title>
<path fill="none" stroke="midnightblue" d="M353.11,-13.55C411.14,-16.34 486.48,-21.12 553,-29 564.69,-30.39 577.02,-32.19 589.03,-34.13"/>
<polygon fill="midnightblue" stroke="midnightblue" points="353.41,-10.06 343.26,-13.09 353.09,-17.05 353.41,-10.06"/>
</g>
</g>
</svg>
