<?xml version="1.0" encoding="UTF-8" standalone="no"?>
<!DOCTYPE svg PUBLIC "-//W3C//DTD SVG 1.1//EN"
 "http://www.w3.org/Graphics/SVG/1.1/DTD/svg11.dtd">
<!-- Generated by graphviz version 7.1.0 (20230122.1345)
 -->
<!-- Title: FilledCurvesSpecs Pages: 1 -->
<svg width="164pt" height="151pt"
 viewBox="0.00 0.00 164.00 151.00" xmlns="http://www.w3.org/2000/svg" xmlns:xlink="http://www.w3.org/1999/xlink">
<g id="graph0" class="graph" transform="scale(1 1) rotate(0) translate(4 147)">
<title>FilledCurvesSpecs</title>
<polygon fill="white" stroke="none" points="-4,4 -4,-147 160,-147 160,4 -4,4"/>
<!-- Node1 -->
<g id="node1" class="node">
<title>Node1</title>
<g id="a_node1"><a xlink:title="The class used to specify color or pattern fill options.">
<polygon fill="#bfbfbf" stroke="black" points="25.5,-0.5 25.5,-19.5 130.5,-19.5 130.5,-0.5 25.5,-0.5"/>
<text text-anchor="middle" x="78" y="-7.5" font-family="Helvetica,sans-Serif" font-size="10.00">FilledCurvesSpecs</text>
</a>
</g>
</g>
<!-- Node2 -->
<g id="node2" class="node">
<title>Node2</title>
<g id="a_node2"><a xlink:href="classsciplot_1_1FilledCurvesSpecsOf.html" target="_top" xlink:title=" ">
<polygon fill="white" stroke="black" points="14,-56.5 14,-86.5 142,-86.5 142,-56.5 14,-56.5"/>
<text text-anchor="start" x="22" y="-74.5" font-family="Helvetica,sans-Serif" font-size="10.00">FilledCurvesSpecsOf</text>
<text text-anchor="middle" x="78" y="-63.5" font-family="Helvetica,sans-Serif" font-size="10.00">&lt; FilledCurvesSpecs &gt;</text>
</a>
</g>
</g>
<!-- Node2&#45;&gt;Node1 -->
<g id="edge1" class="edge">
<title>Node2&#45;&gt;Node1</title>
<path fill="none" stroke="midnightblue" d="M78,-45.2C78,-35.96 78,-26.14 78,-19.4"/>
<polygon fill="midnightblue" stroke="midnightblue" points="74.5,-45.19 78,-55.19 81.5,-45.19 74.5,-45.19"/>
</g>
<!-- Node3 -->
<g id="node3" class="node">
<title>Node3</title>
<g id="a_node3"><a xlink:href="classsciplot_1_1Specs.html" target="_top" xlink:title=" ">
<polygon fill="white" stroke="black" points="0,-123.5 0,-142.5 156,-142.5 156,-123.5 0,-123.5"/>
<text text-anchor="middle" x="78" y="-130.5" font-family="Helvetica,sans-Serif" font-size="10.00">Specs&lt; FilledCurvesSpecs &gt;</text>
</a>
</g>
</g>
<!-- Node3&#45;&gt;Node2 -->
<g id="edge2" class="edge">
<title>Node3&#45;&gt;Node2</title>
<path fill="none" stroke="midnightblue" d="M78,-112.46C78,-103.86 78,-93.98 78,-86.19"/>
<polygon fill="midnightblue" stroke="midnightblue" points="74.5,-112.21 78,-122.21 81.5,-112.21 74.5,-112.21"/>
</g>
</g>
</svg>
