<?xml version="1.0" encoding="UTF-8" standalone="no"?>
<!DOCTYPE svg PUBLIC "-//W3C//DTD SVG 1.1//EN"
 "http://www.w3.org/Graphics/SVG/1.1/DTD/svg11.dtd">
<!-- Generated by graphviz version 8.0.5 (20230506.1012)
 -->
<!-- Title: Specs&lt; DerivedSpecs &gt; Pages: 1 -->
<svg width="751pt" height="438pt"
 viewBox="0.00 0.00 750.75 437.75" xmlns="http://www.w3.org/2000/svg" xmlns:xlink="http://www.w3.org/1999/xlink">
<g id="graph0" class="graph" transform="scale(1 1) rotate(0) translate(4 433.75)">
<title>Specs&lt; DerivedSpecs &gt;</title>
<polygon fill="white" stroke="none" points="-4,4 -4,-433.75 746.75,-433.75 746.75,4 -4,4"/>
<!-- Node1 -->
<g id="node1" class="node">
<title>Node1</title>
<g id="a_node1"><a xlink:title="The base class for other specs classes (e.g., LineSpecsOf, DrawSpecs, BorderSpecs,...">
<polygon fill="#bfbfbf" stroke="black" points="0,-196.5 0,-217.25 133.75,-217.25 133.75,-196.5 0,-196.5"/>
<text text-anchor="middle" x="66.88" y="-203.75" font-family="Helvetica,sans-Serif" font-size="10.00">Specs&lt; DerivedSpecs &gt;</text>
</a>
</g>
</g>
<!-- Node2 -->
<g id="node2" class="node">
<title>Node2</title>
<g id="a_node2"><a xlink:href="classsciplot_1_1DepthSpecsOf.html" target="_top" xlink:title="The class used to attach depth options to a type.">
<polygon fill="white" stroke="black" points="171.62,-408.5 171.62,-429.25 345.88,-429.25 345.88,-408.5 171.62,-408.5"/>
<text text-anchor="middle" x="258.75" y="-415.75" font-family="Helvetica,sans-Serif" font-size="10.00">DepthSpecsOf&lt; DerivedSpecs &gt;</text>
</a>
</g>
</g>
<!-- Node1&#45;&gt;Node2 -->
<g id="edge1" class="edge">
<title>Node1&#45;&gt;Node2</title>
<path fill="none" stroke="midnightblue" d="M72.77,-227.72C83.25,-267.56 111.78,-354.51 169.75,-398.88 174.85,-402.78 180.58,-405.95 186.59,-408.51"/>
<polygon fill="midnightblue" stroke="midnightblue" points="75.95,-227.02 70.13,-218.17 69.16,-228.72 75.95,-227.02"/>
</g>
<!-- Node3 -->
<g id="node3" class="node">
<title>Node3</title>
<g id="a_node3"><a xlink:href="classsciplot_1_1FilledCurvesSpecsOf.html" target="_top" xlink:title="The class used to set options for the gnuplot filledcurve functionality.">
<polygon fill="white" stroke="black" points="200.88,-356.12 200.88,-389.62 316.62,-389.62 316.62,-356.12 200.88,-356.12"/>
<text text-anchor="start" x="208.88" y="-376.12" font-family="Helvetica,sans-Serif" font-size="10.00">FilledCurvesSpecsOf</text>
<text text-anchor="middle" x="258.75" y="-363.38" font-family="Helvetica,sans-Serif" font-size="10.00">&lt; DerivedSpecs &gt;</text>
</a>
</g>
</g>
<!-- Node1&#45;&gt;Node3 -->
<g id="edge2" class="edge">
<title>Node1&#45;&gt;Node3</title>
<path fill="none" stroke="midnightblue" d="M77.14,-227.01C92.21,-257.51 124.91,-315.23 169.75,-346.88 179.12,-353.49 190.18,-358.44 201.24,-362.14"/>
<polygon fill="midnightblue" stroke="midnightblue" points="79.87,-225.61 72.4,-218.1 73.56,-228.63 79.87,-225.61"/>
</g>
<!-- Node4 -->
<g id="node4" class="node">
<title>Node4</title>
<g id="a_node4"><a xlink:href="classsciplot_1_1FillSpecsOf.html" target="_top" xlink:title="The class used to attach color or pattern fill options to a type.">
<polygon fill="white" stroke="black" points="179.12,-316.5 179.12,-337.25 338.38,-337.25 338.38,-316.5 179.12,-316.5"/>
<text text-anchor="middle" x="258.75" y="-323.75" font-family="Helvetica,sans-Serif" font-size="10.00">FillSpecsOf&lt; DerivedSpecs &gt;</text>
</a>
</g>
</g>
<!-- Node1&#45;&gt;Node4 -->
<g id="edge3" class="edge">
<title>Node1&#45;&gt;Node4</title>
<path fill="none" stroke="midnightblue" d="M81.65,-225.71C99.4,-248.55 132.45,-286.51 169.75,-306.88 177.04,-310.85 185.08,-314.04 193.25,-316.6"/>
<polygon fill="midnightblue" stroke="midnightblue" points="83.84,-223.8 75.01,-217.94 78.26,-228.03 83.84,-223.8"/>
</g>
<!-- Node5 -->
<g id="node5" class="node">
<title>Node5</title>
<g id="a_node5"><a xlink:href="classsciplot_1_1FontSpecsOf.html" target="_top" xlink:title="The class used to attach font options to a type.">
<polygon fill="white" stroke="black" points="175.75,-276.5 175.75,-297.25 341.75,-297.25 341.75,-276.5 175.75,-276.5"/>
<text text-anchor="middle" x="258.75" y="-283.75" font-family="Helvetica,sans-Serif" font-size="10.00">FontSpecsOf&lt; DerivedSpecs &gt;</text>
</a>
</g>
</g>
<!-- Node1&#45;&gt;Node5 -->
<g id="edge4" class="edge">
<title>Node1&#45;&gt;Node5</title>
<path fill="none" stroke="midnightblue" d="M90.93,-223.27C110.92,-236.77 141.06,-255.49 169.75,-266.88 179.51,-270.75 190.18,-273.96 200.63,-276.6"/>
<polygon fill="midnightblue" stroke="midnightblue" points="93.21,-219.9 82.99,-217.11 89.24,-225.67 93.21,-219.9"/>
</g>
<!-- Node8 -->
<g id="node8" class="node">
<title>Node8</title>
<g id="a_node8"><a xlink:href="classsciplot_1_1FrameSpecsOf.html" target="_top" xlink:title="The class used to attach frame options to a type.">
<polygon fill="white" stroke="black" points="170.88,-236.5 170.88,-257.25 346.62,-257.25 346.62,-236.5 170.88,-236.5"/>
<text text-anchor="middle" x="258.75" y="-243.75" font-family="Helvetica,sans-Serif" font-size="10.00">FrameSpecsOf&lt; DerivedSpecs &gt;</text>
</a>
</g>
</g>
<!-- Node1&#45;&gt;Node8 -->
<g id="edge7" class="edge">
<title>Node1&#45;&gt;Node8</title>
<path fill="none" stroke="midnightblue" d="M127.32,-219.4C153.48,-224.91 183.84,-231.31 208.69,-236.54"/>
<polygon fill="midnightblue" stroke="midnightblue" points="128.28,-215.81 117.77,-217.18 126.84,-222.66 128.28,-215.81"/>
</g>
<!-- Node9 -->
<g id="node9" class="node">
<title>Node9</title>
<g id="a_node9"><a xlink:href="classsciplot_1_1LayoutSpecsOf.html" target="_top" xlink:title="The class used to attach layout options to a type.">
<polygon fill="white" stroke="black" points="169.75,-196.5 169.75,-217.25 347.75,-217.25 347.75,-196.5 169.75,-196.5"/>
<text text-anchor="middle" x="258.75" y="-203.75" font-family="Helvetica,sans-Serif" font-size="10.00">LayoutSpecsOf&lt; DerivedSpecs &gt;</text>
</a>
</g>
</g>
<!-- Node1&#45;&gt;Node9 -->
<g id="edge8" class="edge">
<title>Node1&#45;&gt;Node9</title>
<path fill="none" stroke="midnightblue" d="M144.43,-206.88C152.85,-206.88 161.48,-206.88 170.03,-206.88"/>
<polygon fill="midnightblue" stroke="midnightblue" points="144.49,-203.38 134.49,-206.88 144.49,-210.38 144.49,-203.38"/>
</g>
<!-- Node10 -->
<g id="node10" class="node">
<title>Node10</title>
<g id="a_node10"><a xlink:href="classsciplot_1_1LineSpecsOf.html" target="_top" xlink:title="The class used to attach line options to a type.">
<polygon fill="white" stroke="black" points="176.12,-156.5 176.12,-177.25 341.38,-177.25 341.38,-156.5 176.12,-156.5"/>
<text text-anchor="middle" x="258.75" y="-163.75" font-family="Helvetica,sans-Serif" font-size="10.00">LineSpecsOf&lt; DerivedSpecs &gt;</text>
</a>
</g>
</g>
<!-- Node1&#45;&gt;Node10 -->
<g id="edge9" class="edge">
<title>Node1&#45;&gt;Node10</title>
<path fill="none" stroke="midnightblue" d="M127.32,-194.35C153.48,-188.84 183.84,-182.44 208.69,-177.21"/>
<polygon fill="midnightblue" stroke="midnightblue" points="126.84,-191.09 117.77,-196.57 128.28,-197.94 126.84,-191.09"/>
</g>
<!-- Node11 -->
<g id="node11" class="node">
<title>Node11</title>
<g id="a_node11"><a xlink:href="classsciplot_1_1OffsetSpecsOf.html" target="_top" xlink:title="The class used to attach offset options to a type.">
<polygon fill="white" stroke="black" points="383.75,-117.5 383.75,-138.25 558,-138.25 558,-117.5 383.75,-117.5"/>
<text text-anchor="middle" x="470.88" y="-124.75" font-family="Helvetica,sans-Serif" font-size="10.00">OffsetSpecsOf&lt; DerivedSpecs &gt;</text>
</a>
</g>
</g>
<!-- Node1&#45;&gt;Node11 -->
<g id="edge10" class="edge">
<title>Node1&#45;&gt;Node11</title>
<path fill="none" stroke="midnightblue" d="M89.51,-190.02C109.21,-175.71 139.73,-156.09 169.75,-146.88 239.63,-125.43 322.84,-121.76 383.9,-122.83"/>
<polygon fill="midnightblue" stroke="midnightblue" points="87.68,-187.76 81.76,-196.54 91.87,-193.37 87.68,-187.76"/>
</g>
<!-- Node12 -->
<g id="node12" class="node">
<title>Node12</title>
<g id="a_node12"><a xlink:href="classsciplot_1_1PointSpecsOf.html" target="_top" xlink:title="The class used to attach point options to a type.">
<polygon fill="white" stroke="black" points="173.88,-78.5 173.88,-99.25 343.62,-99.25 343.62,-78.5 173.88,-78.5"/>
<text text-anchor="middle" x="258.75" y="-85.75" font-family="Helvetica,sans-Serif" font-size="10.00">PointSpecsOf&lt; DerivedSpecs &gt;</text>
</a>
</g>
</g>
<!-- Node1&#45;&gt;Node12 -->
<g id="edge12" class="edge">
<title>Node1&#45;&gt;Node12</title>
<path fill="none" stroke="midnightblue" d="M83.25,-188.4C101.71,-167.39 134.6,-133.46 169.75,-113.88 180.99,-107.61 193.92,-102.81 206.36,-99.17"/>
<polygon fill="midnightblue" stroke="midnightblue" points="80.13,-185.67 76.26,-195.54 85.43,-190.24 80.13,-185.67"/>
</g>
<!-- Node13 -->
<g id="node13" class="node">
<title>Node13</title>
<g id="a_node13"><a xlink:href="classsciplot_1_1ShowSpecsOf.html" target="_top" xlink:title="The class used to attach visibility options to a type.">
<polygon fill="white" stroke="black" points="385.25,-58.5 385.25,-79.25 556.5,-79.25 556.5,-58.5 385.25,-58.5"/>
<text text-anchor="middle" x="470.88" y="-65.75" font-family="Helvetica,sans-Serif" font-size="10.00">ShowSpecsOf&lt; DerivedSpecs &gt;</text>
</a>
</g>
</g>
<!-- Node1&#45;&gt;Node13 -->
<g id="edge13" class="edge">
<title>Node1&#45;&gt;Node13</title>
<path fill="none" stroke="midnightblue" d="M75.65,-186.73C89.21,-154.82 120.52,-93.72 169.75,-68.88 255.11,-25.79 372.3,-44.47 431.83,-58.51"/>
<polygon fill="midnightblue" stroke="midnightblue" points="72.12,-185.11 71.59,-195.7 78.61,-187.75 72.12,-185.11"/>
</g>
<!-- Node14 -->
<g id="node14" class="node">
<title>Node14</title>
<g id="a_node14"><a xlink:href="classsciplot_1_1TitleSpecsOf.html" target="_top" xlink:title="The class used to attach title options to a type.">
<polygon fill="white" stroke="black" points="175.38,-0.5 175.38,-21.25 342.12,-21.25 342.12,-0.5 175.38,-0.5"/>
<text text-anchor="middle" x="258.75" y="-7.75" font-family="Helvetica,sans-Serif" font-size="10.00">TitleSpecsOf&lt; DerivedSpecs &gt;</text>
</a>
</g>
</g>
<!-- Node1&#45;&gt;Node14 -->
<g id="edge15" class="edge">
<title>Node1&#45;&gt;Node14</title>
<path fill="none" stroke="midnightblue" d="M74.42,-186.33C86.95,-150.3 117.83,-75.77 169.75,-35.88 178.06,-29.49 187.94,-24.73 198.02,-21.19"/>
<polygon fill="midnightblue" stroke="midnightblue" points="70.84,-184.98 70.99,-195.58 77.48,-187.21 70.84,-184.98"/>
</g>
<!-- Node6 -->
<g id="node6" class="node">
<title>Node6</title>
<g id="a_node6"><a xlink:href="classsciplot_1_1TextSpecsOf.html" target="_top" xlink:title="The class used to attach text options to a type.">
<polygon fill="white" stroke="black" points="388.25,-216.5 388.25,-237.25 553.5,-237.25 553.5,-216.5 388.25,-216.5"/>
<text text-anchor="middle" x="470.88" y="-223.75" font-family="Helvetica,sans-Serif" font-size="10.00">TextSpecsOf&lt; DerivedSpecs &gt;</text>
</a>
</g>
</g>
<!-- Node5&#45;&gt;Node6 -->
<g id="edge5" class="edge">
<title>Node5&#45;&gt;Node6</title>
<path fill="none" stroke="midnightblue" d="M319.44,-274.1C328.95,-271.84 338.64,-269.4 347.75,-266.88 380,-257.95 416.39,-245.75 440.99,-237.18"/>
<polygon fill="midnightblue" stroke="midnightblue" points="318.77,-270.89 309.83,-276.57 320.36,-277.71 318.77,-270.89"/>
</g>
<!-- Node7 -->
<g id="node7" class="node">
<title>Node7</title>
<g id="a_node7"><a xlink:href="classsciplot_1_1TicsSpecsBaseOf.html" target="_top" xlink:title="The class used to attach common tic options to a type that also specifies tic options.">
<polygon fill="white" stroke="black" points="594,-111.12 594,-144.62 742.75,-144.62 742.75,-111.12 594,-111.12"/>
<text text-anchor="start" x="602" y="-131.12" font-family="Helvetica,sans-Serif" font-size="10.00">TicsSpecsBaseOf&lt; Derived</text>
<text text-anchor="middle" x="668.38" y="-118.38" font-family="Helvetica,sans-Serif" font-size="10.00">Specs &gt;</text>
</a>
</g>
</g>
<!-- Node6&#45;&gt;Node7 -->
<g id="edge6" class="edge">
<title>Node6&#45;&gt;Node7</title>
<path fill="none" stroke="midnightblue" d="M501.46,-211.89C537.19,-193.8 597.12,-163.45 634.33,-144.61"/>
<polygon fill="midnightblue" stroke="midnightblue" points="500.4,-209.01 493.06,-216.65 503.56,-215.26 500.4,-209.01"/>
</g>
<!-- Node11&#45;&gt;Node7 -->
<g id="edge11" class="edge">
<title>Node11&#45;&gt;Node7</title>
<path fill="none" stroke="midnightblue" d="M568.72,-127.88C577.27,-127.88 585.84,-127.88 594.15,-127.88"/>
<polygon fill="midnightblue" stroke="midnightblue" points="568.91,-124.38 558.91,-127.88 568.91,-131.38 568.91,-124.38"/>
</g>
<!-- Node13&#45;&gt;Node7 -->
<g id="edge14" class="edge">
<title>Node13&#45;&gt;Node7</title>
<path fill="none" stroke="midnightblue" d="M516.34,-82.29C544.69,-90.85 581.65,-102.01 611.92,-111.14"/>
<polygon fill="midnightblue" stroke="midnightblue" points="517.51,-78.69 506.93,-79.15 515.49,-85.39 517.51,-78.69"/>
</g>
</g>
</svg>
