<?xml version="1.0" encoding="UTF-8" standalone="no"?>
<!DOCTYPE svg PUBLIC "-//W3C//DTD SVG 1.1//EN"
 "http://www.w3.org/Graphics/SVG/1.1/DTD/svg11.dtd">
<!-- Generated by graphviz version 6.0.2 (20221126.1951)
 -->
<!-- Title: FillSpecs Pages: 1 -->
<svg width="144pt" height="140pt"
 viewBox="0.00 0.00 144.00 140.00" xmlns="http://www.w3.org/2000/svg" xmlns:xlink="http://www.w3.org/1999/xlink">
<g id="graph0" class="graph" transform="scale(1 1) rotate(0) translate(4 136)">
<title>FillSpecs</title>
<polygon fill="white" stroke="none" points="-4,4 -4,-136 140,-136 140,4 -4,4"/>
<!-- Node1 -->
<g id="node1" class="node">
<title>Node1</title>
<g id="a_node1"><a xlink:title="The class used to specify color or pattern fill options.">
<polygon fill="#bfbfbf" stroke="black" points="38.5,-0.5 38.5,-19.5 97.5,-19.5 97.5,-0.5 38.5,-0.5"/>
<text text-anchor="middle" x="68" y="-7.5" font-family="Helvetica,sans-Serif" font-size="10.00">FillSpecs</text>
</a>
</g>
</g>
<!-- Node2 -->
<g id="node2" class="node">
<title>Node2</title>
<g id="a_node2"><a xlink:href="classsciplot_1_1FillSpecsOf.html" target="_top" xlink:title=" ">
<polygon fill="white" stroke="black" points="0,-56.5 0,-75.5 136,-75.5 136,-56.5 0,-56.5"/>
<text text-anchor="middle" x="68" y="-63.5" font-family="Helvetica,sans-Serif" font-size="10.00">FillSpecsOf&lt; FillSpecs &gt;</text>
</a>
</g>
</g>
<!-- Node2&#45;&gt;Node1 -->
<g id="edge1" class="edge">
<title>Node2&#45;&gt;Node1</title>
<path fill="none" stroke="midnightblue" d="M68,-45.8C68,-36.91 68,-26.78 68,-19.75"/>
<polygon fill="midnightblue" stroke="midnightblue" points="64.5,-46.08 68,-56.08 71.5,-46.08 64.5,-46.08"/>
</g>
<!-- Node3 -->
<g id="node3" class="node">
<title>Node3</title>
<g id="a_node3"><a xlink:href="classsciplot_1_1Specs.html" target="_top" xlink:title=" ">
<polygon fill="white" stroke="black" points="13,-112.5 13,-131.5 123,-131.5 123,-112.5 13,-112.5"/>
<text text-anchor="middle" x="68" y="-119.5" font-family="Helvetica,sans-Serif" font-size="10.00">Specs&lt; FillSpecs &gt;</text>
</a>
</g>
</g>
<!-- Node3&#45;&gt;Node2 -->
<g id="edge2" class="edge">
<title>Node3&#45;&gt;Node2</title>
<path fill="none" stroke="midnightblue" d="M68,-101.8C68,-92.91 68,-82.78 68,-75.75"/>
<polygon fill="midnightblue" stroke="midnightblue" points="64.5,-102.08 68,-112.08 71.5,-102.08 64.5,-102.08"/>
</g>
</g>
</svg>
