<?xml version="1.0" encoding="UTF-8" standalone="no"?>
<!DOCTYPE svg PUBLIC "-//W3C//DTD SVG 1.1//EN"
 "http://www.w3.org/Graphics/SVG/1.1/DTD/svg11.dtd">
<!-- Generated by graphviz version 2.46.1 (20210222.2046)
 -->
<!-- Title: PlotBase Pages: 1 -->
<svg width="106pt" height="84pt"
 viewBox="0.00 0.00 106.00 84.00" xmlns="http://www.w3.org/2000/svg" xmlns:xlink="http://www.w3.org/1999/xlink">
<g id="graph0" class="graph" transform="scale(1 1) rotate(0) translate(4 80)">
<title>PlotBase</title>
<polygon fill="white" stroke="transparent" points="-4,4 -4,-80 102,-80 102,4 -4,4"/>
<!-- Node1 -->
<g id="node1" class="node">
<title>Node1</title>
<g id="a_node1"><a xlink:title="The class used to create a plot containing graphical elements.">
<polygon fill="#bfbfbf" stroke="black" points="18,-56.5 18,-75.5 74,-75.5 74,-56.5 18,-56.5"/>
<text text-anchor="middle" x="46" y="-63.5" font-family="Helvetica" font-size="10.00">PlotBase</text>
</a>
</g>
</g>
<!-- Node2 -->
<g id="node2" class="node">
<title>Node2</title>
<g id="a_node2"><a xlink:href="classsciplot_1_1Plot.html" target="_top" xlink:title="The class used to create a plot containing graphical elements.">
<polygon fill="white" stroke="black" points="0,-0.5 0,-19.5 34,-19.5 34,-0.5 0,-0.5"/>
<text text-anchor="middle" x="17" y="-7.5" font-family="Helvetica" font-size="10.00">Plot</text>
</a>
</g>
</g>
<!-- Node1&#45;&gt;Node2 -->
<g id="edge1" class="edge">
<title>Node1&#45;&gt;Node2</title>
<path fill="none" stroke="midnightblue" d="M36.32,-46.98C31.4,-37.82 25.64,-27.09 21.7,-19.75"/>
<polygon fill="midnightblue" stroke="midnightblue" points="33.4,-48.93 41.21,-56.08 39.56,-45.62 33.4,-48.93"/>
</g>
<!-- Node3 -->
<g id="node3" class="node">
<title>Node3</title>
<g id="a_node3"><a xlink:href="classsciplot_1_1Plot3D.html" target="_top" xlink:title="The class used to create a plot containing graphical elements.">
<polygon fill="white" stroke="black" points="52,-0.5 52,-19.5 98,-19.5 98,-0.5 52,-0.5"/>
<text text-anchor="middle" x="75" y="-7.5" font-family="Helvetica" font-size="10.00">Plot3D</text>
</a>
</g>
</g>
<!-- Node1&#45;&gt;Node3 -->
<g id="edge2" class="edge">
<title>Node1&#45;&gt;Node3</title>
<path fill="none" stroke="midnightblue" d="M55.68,-46.98C60.6,-37.82 66.36,-27.09 70.3,-19.75"/>
<polygon fill="midnightblue" stroke="midnightblue" points="52.44,-45.62 50.79,-56.08 58.6,-48.93 52.44,-45.62"/>
</g>
</g>
</svg>
