<?xml version="1.0" encoding="UTF-8" standalone="no"?>
<!DOCTYPE svg PUBLIC "-//W3C//DTD SVG 1.1//EN"
 "http://www.w3.org/Graphics/SVG/1.1/DTD/svg11.dtd">
<!-- Generated by graphviz version 2.48.0 (20210717.2242)
 -->
<!-- Title: OffsetSpecsOf&lt; DerivedSpecs &gt; Pages: 1 -->
<svg width="183pt" height="151pt"
 viewBox="0.00 0.00 183.00 151.00" xmlns="http://www.w3.org/2000/svg" xmlns:xlink="http://www.w3.org/1999/xlink">
<g id="graph0" class="graph" transform="scale(1 1) rotate(0) translate(4 147)">
<title>OffsetSpecsOf&lt; DerivedSpecs &gt;</title>
<polygon fill="white" stroke="transparent" points="-4,4 -4,-147 179,-147 179,4 -4,4"/>
<!-- Node1 -->
<g id="node1" class="node">
<title>Node1</title>
<g id="a_node1"><a xlink:title="The class used to attach offset options to a type.">
<polygon fill="#bfbfbf" stroke="black" points="0,-67.5 0,-86.5 175,-86.5 175,-67.5 0,-67.5"/>
<text text-anchor="middle" x="87.5" y="-74.5" font-family="Helvetica,sans-Serif" font-size="10.00">OffsetSpecsOf&lt; DerivedSpecs &gt;</text>
</a>
</g>
</g>
<!-- Node3 -->
<g id="node3" class="node">
<title>Node3</title>
<g id="a_node3"><a xlink:href="classsciplot_1_1TicsSpecsBaseOf.html" target="_top" xlink:title="The class used to attach common tic options to a type that also specifies tic options.">
<polygon fill="white" stroke="black" points="13,-0.5 13,-30.5 162,-30.5 162,-0.5 13,-0.5"/>
<text text-anchor="start" x="21" y="-18.5" font-family="Helvetica,sans-Serif" font-size="10.00">TicsSpecsBaseOf&lt; Derived</text>
<text text-anchor="middle" x="87.5" y="-7.5" font-family="Helvetica,sans-Serif" font-size="10.00">Specs &gt;</text>
</a>
</g>
</g>
<!-- Node1&#45;&gt;Node3 -->
<g id="edge2" class="edge">
<title>Node1&#45;&gt;Node3</title>
<path fill="none" stroke="midnightblue" d="M87.5,-57.23C87.5,-48.59 87.5,-38.5 87.5,-30.52"/>
<polygon fill="midnightblue" stroke="midnightblue" points="84,-57.48 87.5,-67.48 91,-57.48 84,-57.48"/>
</g>
<!-- Node2 -->
<g id="node2" class="node">
<title>Node2</title>
<g id="a_node2"><a xlink:href="classsciplot_1_1Specs.html" target="_top" xlink:title="The base class for other specs classes (e.g., LineSpecsOf, DrawSpecs, BorderSpecs,...">
<polygon fill="white" stroke="black" points="20.5,-123.5 20.5,-142.5 154.5,-142.5 154.5,-123.5 20.5,-123.5"/>
<text text-anchor="middle" x="87.5" y="-130.5" font-family="Helvetica,sans-Serif" font-size="10.00">Specs&lt; DerivedSpecs &gt;</text>
</a>
</g>
</g>
<!-- Node2&#45;&gt;Node1 -->
<g id="edge1" class="edge">
<title>Node2&#45;&gt;Node1</title>
<path fill="none" stroke="midnightblue" d="M87.5,-112.8C87.5,-103.91 87.5,-93.78 87.5,-86.75"/>
<polygon fill="midnightblue" stroke="midnightblue" points="84,-113.08 87.5,-123.08 91,-113.08 84,-113.08"/>
</g>
</g>
</svg>
