<?xml version="1.0" encoding="UTF-8" standalone="no"?>
<!DOCTYPE svg PUBLIC "-//W3C//DTD SVG 1.1//EN"
 "http://www.w3.org/Graphics/SVG/1.1/DTD/svg11.dtd">
<!-- Generated by graphviz version 2.47.1 (20210418.0311)
 -->
<!-- Title: Plot3D Pages: 1 -->
<svg width="1167pt" height="534pt"
 viewBox="0.00 0.00 1167.00 534.00" xmlns="http://www.w3.org/2000/svg" xmlns:xlink="http://www.w3.org/1999/xlink">
<g id="graph0" class="graph" transform="scale(1 1) rotate(0) translate(4 530)">
<title>Plot3D</title>
<polygon fill="white" stroke="transparent" points="-4,4 -4,-530 1163,-530 1163,4 -4,4"/>
<!-- Node1 -->
<g id="node1" class="node">
<title>Node1</title>
<g id="a_node1"><a xlink:title="The class used to create a plot containing graphical elements.">
<polygon fill="#bfbfbf" stroke="black" points="1113,-248.5 1113,-267.5 1159,-267.5 1159,-248.5 1113,-248.5"/>
<text text-anchor="middle" x="1136" y="-255.5" font-family="Helvetica" font-size="10.00">Plot3D</text>
</a>
</g>
</g>
<!-- Node2 -->
<g id="node2" class="node">
<title>Node2</title>
<g id="a_node2"><a xlink:href="classsciplot_1_1PlotBase.html" target="_top" xlink:title="The class used to create a plot containing graphical elements.">
<polygon fill="white" stroke="black" points="1020,-248.5 1020,-267.5 1076,-267.5 1076,-248.5 1020,-248.5"/>
<text text-anchor="middle" x="1048" y="-255.5" font-family="Helvetica" font-size="10.00">PlotBase</text>
</a>
</g>
</g>
<!-- Node2&#45;&gt;Node1 -->
<g id="edge1" class="edge">
<title>Node2&#45;&gt;Node1</title>
<path fill="none" stroke="midnightblue" d="M1086.22,-258C1095.3,-258 1104.73,-258 1112.85,-258"/>
<polygon fill="midnightblue" stroke="midnightblue" points="1086.21,-254.5 1076.21,-258 1086.21,-261.5 1086.21,-254.5"/>
</g>
<!-- Node3 -->
<g id="node3" class="node">
<title>Node3</title>
<g id="a_node3"><a xlink:href="classsciplot_1_1BorderSpecs.html" target="_top" xlink:title="The class used to specify options for plot border.">
<polygon fill="white" stroke="black" points="801.5,-468.5 801.5,-487.5 874.5,-487.5 874.5,-468.5 801.5,-468.5"/>
<text text-anchor="middle" x="838" y="-475.5" font-family="Helvetica" font-size="10.00">BorderSpecs</text>
</a>
</g>
</g>
<!-- Node3&#45;&gt;Node2 -->
<g id="edge2" class="edge">
<title>Node3&#45;&gt;Node2</title>
<path fill="none" stroke="#9a32cd" stroke-dasharray="5,2" d="M883.46,-465.18C920.07,-452.46 970.87,-429.52 1002,-393 1034.7,-354.65 1043.86,-291.69 1046.23,-267.7"/>
<polygon fill="#9a32cd" stroke="#9a32cd" points="881.91,-462.01 873.53,-468.5 884.13,-468.65 881.91,-462.01"/>
<text text-anchor="middle" x="965.5" y="-448" font-family="Helvetica" font-size="10.00"> m_border</text>
</g>
<!-- Node4 -->
<g id="node4" class="node">
<title>Node4</title>
<g id="a_node4"><a xlink:href="classsciplot_1_1LineSpecsOf.html" target="_top" xlink:title=" ">
<polygon fill="white" stroke="black" points="535,-506.5 535,-525.5 682,-525.5 682,-506.5 535,-506.5"/>
<text text-anchor="middle" x="608.5" y="-513.5" font-family="Helvetica" font-size="10.00">LineSpecsOf&lt; BorderSpecs &gt;</text>
</a>
</g>
</g>
<!-- Node4&#45;&gt;Node3 -->
<g id="edge3" class="edge">
<title>Node4&#45;&gt;Node3</title>
<path fill="none" stroke="midnightblue" d="M676.5,-504.81C717.32,-497.99 767.86,-489.55 801.2,-483.98"/>
<polygon fill="midnightblue" stroke="midnightblue" points="675.9,-501.36 666.61,-506.46 677.05,-508.26 675.9,-501.36"/>
</g>
<!-- Node5 -->
<g id="node5" class="node">
<title>Node5</title>
<g id="a_node5"><a xlink:href="classsciplot_1_1Specs.html" target="_top" xlink:title=" ">
<polygon fill="white" stroke="black" points="192,-506.5 192,-525.5 311,-525.5 311,-506.5 192,-506.5"/>
<text text-anchor="middle" x="251.5" y="-513.5" font-family="Helvetica" font-size="10.00">Specs&lt; BorderSpecs &gt;</text>
</a>
</g>
</g>
<!-- Node5&#45;&gt;Node4 -->
<g id="edge4" class="edge">
<title>Node5&#45;&gt;Node4</title>
<path fill="none" stroke="midnightblue" d="M321.49,-516C382.92,-516 472.49,-516 534.97,-516"/>
<polygon fill="midnightblue" stroke="midnightblue" points="321.12,-512.5 311.12,-516 321.12,-519.5 321.12,-512.5"/>
</g>
<!-- Node6 -->
<g id="node6" class="node">
<title>Node6</title>
<g id="a_node6"><a xlink:href="classsciplot_1_1DepthSpecsOf.html" target="_top" xlink:title=" ">
<polygon fill="white" stroke="black" points="531,-468.5 531,-487.5 686,-487.5 686,-468.5 531,-468.5"/>
<text text-anchor="middle" x="608.5" y="-475.5" font-family="Helvetica" font-size="10.00">DepthSpecsOf&lt; BorderSpecs &gt;</text>
</a>
</g>
</g>
<!-- Node5&#45;&gt;Node6 -->
<g id="edge6" class="edge">
<title>Node5&#45;&gt;Node6</title>
<path fill="none" stroke="midnightblue" d="M321.27,-508.64C381.35,-502.21 468.47,-492.88 530.79,-486.21"/>
<polygon fill="midnightblue" stroke="midnightblue" points="320.69,-505.18 311.12,-509.73 321.44,-512.14 320.69,-505.18"/>
</g>
<!-- Node6&#45;&gt;Node3 -->
<g id="edge5" class="edge">
<title>Node6&#45;&gt;Node3</title>
<path fill="none" stroke="midnightblue" d="M696.38,-478C732.87,-478 773.27,-478 801.37,-478"/>
<polygon fill="midnightblue" stroke="midnightblue" points="696.2,-474.5 686.2,-478 696.2,-481.5 696.2,-474.5"/>
</g>
<!-- Node7 -->
<g id="node7" class="node">
<title>Node7</title>
<g id="a_node7"><a xlink:title=" ">
<polygon fill="white" stroke="#bfbfbf" points="765,-395.5 765,-414.5 911,-414.5 911,-395.5 765,-395.5"/>
<text text-anchor="middle" x="838" y="-402.5" font-family="Helvetica" font-size="10.00">vector&lt; sciplot::DrawSpecs &gt;</text>
</a>
</g>
</g>
<!-- Node7&#45;&gt;Node2 -->
<g id="edge7" class="edge">
<title>Node7&#45;&gt;Node2</title>
<path fill="none" stroke="#9a32cd" stroke-dasharray="5,2" d="M892.72,-392.59C927.38,-382.29 971.5,-364.6 1002,-336 1023.32,-316 1037.51,-283.6 1043.6,-267.59"/>
<polygon fill="#9a32cd" stroke="#9a32cd" points="891.42,-389.32 882.76,-395.43 893.34,-396.06 891.42,-389.32"/>
<text text-anchor="middle" x="965.5" y="-381" font-family="Helvetica" font-size="10.00"> m_drawspecs</text>
</g>
<!-- Node8 -->
<g id="node8" class="node">
<title>Node8</title>
<g id="a_node8"><a xlink:href="classsciplot_1_1DrawSpecs.html" target="_top" xlink:title="The class where options for the plotted element can be specified.">
<polygon fill="white" stroke="black" points="575.5,-395.5 575.5,-414.5 641.5,-414.5 641.5,-395.5 575.5,-395.5"/>
<text text-anchor="middle" x="608.5" y="-402.5" font-family="Helvetica" font-size="10.00">DrawSpecs</text>
</a>
</g>
</g>
<!-- Node8&#45;&gt;Node7 -->
<g id="edge8" class="edge">
<title>Node8&#45;&gt;Node7</title>
<path fill="none" stroke="#9a32cd" stroke-dasharray="5,2" d="M651.85,-405C683.5,-405 727.55,-405 764.74,-405"/>
<polygon fill="#9a32cd" stroke="#9a32cd" points="651.61,-401.5 641.61,-405 651.61,-408.5 651.61,-401.5"/>
<text text-anchor="middle" x="725.5" y="-408" font-family="Helvetica" font-size="10.00"> elements</text>
</g>
<!-- Node9 -->
<g id="node9" class="node">
<title>Node9</title>
<g id="a_node9"><a xlink:href="classsciplot_1_1LineSpecsOf.html" target="_top" xlink:title=" ">
<polygon fill="white" stroke="black" points="181.5,-468.5 181.5,-487.5 321.5,-487.5 321.5,-468.5 181.5,-468.5"/>
<text text-anchor="middle" x="251.5" y="-475.5" font-family="Helvetica" font-size="10.00">LineSpecsOf&lt; DrawSpecs &gt;</text>
</a>
</g>
</g>
<!-- Node9&#45;&gt;Node8 -->
<g id="edge9" class="edge">
<title>Node9&#45;&gt;Node8</title>
<path fill="none" stroke="midnightblue" d="M331.9,-469.65C383.9,-463.24 453.06,-452.93 513,-438 537.62,-431.87 564.89,-422 583.79,-414.65"/>
<polygon fill="midnightblue" stroke="midnightblue" points="331.25,-466.2 321.74,-470.88 332.09,-473.15 331.25,-466.2"/>
</g>
<!-- Node10 -->
<g id="node10" class="node">
<title>Node10</title>
<g id="a_node10"><a xlink:href="classsciplot_1_1Specs.html" target="_top" xlink:title=" ">
<polygon fill="white" stroke="black" points="9.5,-410.5 9.5,-429.5 121.5,-429.5 121.5,-410.5 9.5,-410.5"/>
<text text-anchor="middle" x="65.5" y="-417.5" font-family="Helvetica" font-size="10.00">Specs&lt; DrawSpecs &gt;</text>
</a>
</g>
</g>
<!-- Node10&#45;&gt;Node9 -->
<g id="edge10" class="edge">
<title>Node10&#45;&gt;Node9</title>
<path fill="none" stroke="midnightblue" d="M98.21,-433.51C118.03,-441.62 144.22,-451.73 168,-459 179.53,-462.52 192.13,-465.74 203.95,-468.48"/>
<polygon fill="midnightblue" stroke="midnightblue" points="99.34,-430.18 88.76,-429.59 96.66,-436.65 99.34,-430.18"/>
</g>
<!-- Node11 -->
<g id="node11" class="node">
<title>Node11</title>
<g id="a_node11"><a xlink:href="classsciplot_1_1PointSpecsOf.html" target="_top" xlink:title=" ">
<polygon fill="white" stroke="black" points="179,-430.5 179,-449.5 324,-449.5 324,-430.5 179,-430.5"/>
<text text-anchor="middle" x="251.5" y="-437.5" font-family="Helvetica" font-size="10.00">PointSpecsOf&lt; DrawSpecs &gt;</text>
</a>
</g>
</g>
<!-- Node10&#45;&gt;Node11 -->
<g id="edge12" class="edge">
<title>Node10&#45;&gt;Node11</title>
<path fill="none" stroke="midnightblue" d="M132.04,-427.12C147.25,-428.78 163.51,-430.54 178.96,-432.22"/>
<polygon fill="midnightblue" stroke="midnightblue" points="132.03,-423.6 121.71,-426 131.27,-430.56 132.03,-423.6"/>
</g>
<!-- Node12 -->
<g id="node12" class="node">
<title>Node12</title>
<g id="a_node12"><a xlink:href="classsciplot_1_1FillSpecsOf.html" target="_top" xlink:title=" ">
<polygon fill="white" stroke="black" points="184,-392.5 184,-411.5 319,-411.5 319,-392.5 184,-392.5"/>
<text text-anchor="middle" x="251.5" y="-399.5" font-family="Helvetica" font-size="10.00">FillSpecsOf&lt; DrawSpecs &gt;</text>
</a>
</g>
</g>
<!-- Node10&#45;&gt;Node12 -->
<g id="edge14" class="edge">
<title>Node10&#45;&gt;Node12</title>
<path fill="none" stroke="midnightblue" d="M132.02,-413.59C148.88,-411.94 167.05,-410.16 183.96,-408.51"/>
<polygon fill="midnightblue" stroke="midnightblue" points="131.32,-410.14 121.71,-414.6 132,-417.11 131.32,-410.14"/>
</g>
<!-- Node13 -->
<g id="node13" class="node">
<title>Node13</title>
<g id="a_node13"><a xlink:href="classsciplot_1_1FilledCurvesSpecsOf.html" target="_top" xlink:title=" ">
<polygon fill="white" stroke="black" points="197,-343 197,-373 306,-373 306,-343 197,-343"/>
<text text-anchor="start" x="205" y="-361" font-family="Helvetica" font-size="10.00">FilledCurvesSpecsOf</text>
<text text-anchor="middle" x="251.5" y="-350" font-family="Helvetica" font-size="10.00">&lt; DrawSpecs &gt;</text>
</a>
</g>
</g>
<!-- Node10&#45;&gt;Node13 -->
<g id="edge16" class="edge">
<title>Node10&#45;&gt;Node13</title>
<path fill="none" stroke="midnightblue" d="M100.81,-406.96C120.4,-399.64 145.47,-390.51 168,-383 178.08,-379.64 188.91,-376.22 199.31,-373.03"/>
<polygon fill="midnightblue" stroke="midnightblue" points="99.53,-403.7 91.39,-410.49 101.98,-410.25 99.53,-403.7"/>
</g>
<!-- Node11&#45;&gt;Node8 -->
<g id="edge11" class="edge">
<title>Node11&#45;&gt;Node8</title>
<path fill="none" stroke="midnightblue" d="M334.21,-433.59C385.59,-429.36 453.22,-423.43 513,-417 533.72,-414.77 556.93,-411.83 575.17,-409.42"/>
<polygon fill="midnightblue" stroke="midnightblue" points="333.85,-430.11 324.16,-434.41 334.42,-437.09 333.85,-430.11"/>
</g>
<!-- Node12&#45;&gt;Node8 -->
<g id="edge13" class="edge">
<title>Node12&#45;&gt;Node8</title>
<path fill="none" stroke="midnightblue" d="M329.35,-402.65C405.94,-403.3 519.87,-404.26 575.12,-404.73"/>
<polygon fill="midnightblue" stroke="midnightblue" points="329.3,-399.15 319.27,-402.56 329.24,-406.15 329.3,-399.15"/>
</g>
<!-- Node13&#45;&gt;Node8 -->
<g id="edge15" class="edge">
<title>Node13&#45;&gt;Node8</title>
<path fill="none" stroke="midnightblue" d="M315.98,-366.4C392.13,-376.49 516.8,-392.99 575.3,-400.74"/>
<polygon fill="midnightblue" stroke="midnightblue" points="316.4,-362.93 306.03,-365.09 315.49,-369.87 316.4,-362.93"/>
</g>
<!-- Node14 -->
<g id="node14" class="node">
<title>Node14</title>
<g id="a_node14"><a xlink:title="STL class.">
<polygon fill="white" stroke="#bfbfbf" points="588,-304.5 588,-323.5 629,-323.5 629,-304.5 588,-304.5"/>
<text text-anchor="middle" x="608.5" y="-311.5" font-family="Helvetica" font-size="10.00">string</text>
</a>
</g>
</g>
<!-- Node14&#45;&gt;Node2 -->
<g id="edge17" class="edge">
<title>Node14&#45;&gt;Node2</title>
<path fill="none" stroke="#9a32cd" stroke-dasharray="5,2" d="M639.36,-313C667.22,-312 709.94,-310.28 747,-308 860.66,-301.02 893.87,-318.73 1002,-283 1013.03,-279.36 1024.46,-272.97 1033.04,-267.56"/>
<polygon fill="#9a32cd" stroke="#9a32cd" points="638.96,-309.51 629.09,-313.36 639.21,-316.51 638.96,-309.51"/>
<text text-anchor="middle" x="838" y="-354" font-family="Helvetica" font-size="10.00"> m_data</text>
<text text-anchor="middle" x="838" y="-343" font-family="Helvetica" font-size="10.00">m_datafilename</text>
<text text-anchor="middle" x="838" y="-332" font-family="Helvetica" font-size="10.00">m_palette</text>
<text text-anchor="middle" x="838" y="-321" font-family="Helvetica" font-size="10.00">m_samples</text>
<text text-anchor="middle" x="838" y="-310" font-family="Helvetica" font-size="10.00">m_scriptfilename</text>
</g>
<!-- Node23 -->
<g id="node23" class="node">
<title>Node23</title>
<g id="a_node23"><a xlink:title=" ">
<polygon fill="white" stroke="#bfbfbf" points="785.5,-266.5 785.5,-285.5 890.5,-285.5 890.5,-266.5 785.5,-266.5"/>
<text text-anchor="middle" x="838" y="-273.5" font-family="Helvetica" font-size="10.00">vector&lt; std::string &gt;</text>
</a>
</g>
</g>
<!-- Node14&#45;&gt;Node23 -->
<g id="edge30" class="edge">
<title>Node14&#45;&gt;Node23</title>
<path fill="none" stroke="#9a32cd" stroke-dasharray="5,2" d="M638.97,-308.53C657.6,-305.12 682.19,-300.68 704,-297 730.85,-292.47 760.81,-287.71 785.48,-283.87"/>
<polygon fill="#9a32cd" stroke="#9a32cd" points="638.23,-305.11 629.03,-310.36 639.49,-311.99 638.23,-305.11"/>
<text text-anchor="middle" x="725.5" y="-300" font-family="Helvetica" font-size="10.00"> elements</text>
</g>
<!-- Node15 -->
<g id="node15" class="node">
<title>Node15</title>
<g id="a_node15"><a xlink:title="STL class.">
<polygon fill="white" stroke="#bfbfbf" points="198.5,-304.5 198.5,-323.5 304.5,-323.5 304.5,-304.5 198.5,-304.5"/>
<text text-anchor="middle" x="251.5" y="-311.5" font-family="Helvetica" font-size="10.00">basic_string&lt; char &gt;</text>
</a>
</g>
</g>
<!-- Node15&#45;&gt;Node14 -->
<g id="edge18" class="edge">
<title>Node15&#45;&gt;Node14</title>
<path fill="none" stroke="midnightblue" d="M314.7,-314C396.76,-314 536.76,-314 587.99,-314"/>
<polygon fill="midnightblue" stroke="midnightblue" points="314.5,-310.5 304.5,-314 314.5,-317.5 314.5,-310.5"/>
</g>
<!-- Node16 -->
<g id="node16" class="node">
<title>Node16</title>
<g id="a_node16"><a xlink:href="classsciplot_1_1LegendSpecs.html" target="_top" xlink:title="The class used to specify options for legend.">
<polygon fill="white" stroke="black" points="800,-228.5 800,-247.5 876,-247.5 876,-228.5 800,-228.5"/>
<text text-anchor="middle" x="838" y="-235.5" font-family="Helvetica" font-size="10.00">LegendSpecs</text>
</a>
</g>
</g>
<!-- Node16&#45;&gt;Node2 -->
<g id="edge19" class="edge">
<title>Node16&#45;&gt;Node2</title>
<path fill="none" stroke="#9a32cd" stroke-dasharray="5,2" d="M886.27,-238.31C918.93,-239.09 963.3,-241.25 1002,-247 1007.73,-247.85 1013.79,-249.09 1019.55,-250.44"/>
<polygon fill="#9a32cd" stroke="#9a32cd" points="886.17,-234.81 876.1,-238.1 886.02,-241.81 886.17,-234.81"/>
<text text-anchor="middle" x="965.5" y="-250" font-family="Helvetica" font-size="10.00"> m_legend</text>
</g>
<!-- Node17 -->
<g id="node17" class="node">
<title>Node17</title>
<g id="a_node17"><a xlink:href="classsciplot_1_1TextSpecsOf.html" target="_top" xlink:title=" ">
<polygon fill="white" stroke="black" points="533,-266.5 533,-285.5 684,-285.5 684,-266.5 533,-266.5"/>
<text text-anchor="middle" x="608.5" y="-273.5" font-family="Helvetica" font-size="10.00">TextSpecsOf&lt; LegendSpecs &gt;</text>
</a>
</g>
</g>
<!-- Node17&#45;&gt;Node16 -->
<g id="edge20" class="edge">
<title>Node17&#45;&gt;Node16</title>
<path fill="none" stroke="midnightblue" d="M676.63,-264.79C716.87,-258.07 766.53,-249.77 799.84,-244.21"/>
<polygon fill="midnightblue" stroke="midnightblue" points="675.9,-261.36 666.61,-266.46 677.05,-268.26 675.9,-261.36"/>
</g>
<!-- Node18 -->
<g id="node18" class="node">
<title>Node18</title>
<g id="a_node18"><a xlink:href="classsciplot_1_1FontSpecsOf.html" target="_top" xlink:title=" ">
<polygon fill="white" stroke="black" points="175.5,-266.5 175.5,-285.5 327.5,-285.5 327.5,-266.5 175.5,-266.5"/>
<text text-anchor="middle" x="251.5" y="-273.5" font-family="Helvetica" font-size="10.00">FontSpecsOf&lt; LegendSpecs &gt;</text>
</a>
</g>
</g>
<!-- Node18&#45;&gt;Node17 -->
<g id="edge21" class="edge">
<title>Node18&#45;&gt;Node17</title>
<path fill="none" stroke="midnightblue" d="M337.91,-276C397.4,-276 475.97,-276 532.93,-276"/>
<polygon fill="midnightblue" stroke="midnightblue" points="337.79,-272.5 327.79,-276 337.79,-279.5 337.79,-272.5"/>
</g>
<!-- Node19 -->
<g id="node19" class="node">
<title>Node19</title>
<g id="a_node19"><a xlink:href="classsciplot_1_1Specs.html" target="_top" xlink:title=" ">
<polygon fill="white" stroke="black" points="4.5,-209.5 4.5,-228.5 126.5,-228.5 126.5,-209.5 4.5,-209.5"/>
<text text-anchor="middle" x="65.5" y="-216.5" font-family="Helvetica" font-size="10.00">Specs&lt; LegendSpecs &gt;</text>
</a>
</g>
</g>
<!-- Node19&#45;&gt;Node18 -->
<g id="edge22" class="edge">
<title>Node19&#45;&gt;Node18</title>
<path fill="none" stroke="midnightblue" d="M97.4,-232.62C112.72,-239.05 131.63,-246.5 149,-252 166.7,-257.6 186.49,-262.56 203.87,-266.5"/>
<polygon fill="midnightblue" stroke="midnightblue" points="98.47,-229.28 87.89,-228.58 95.72,-235.72 98.47,-229.28"/>
</g>
<!-- Node20 -->
<g id="node20" class="node">
<title>Node20</title>
<g id="a_node20"><a xlink:href="classsciplot_1_1ShowSpecsOf.html" target="_top" xlink:title=" ">
<polygon fill="white" stroke="black" points="355,-228.5 355,-247.5 511,-247.5 511,-228.5 355,-228.5"/>
<text text-anchor="middle" x="433" y="-235.5" font-family="Helvetica" font-size="10.00">ShowSpecsOf&lt; LegendSpecs &gt;</text>
</a>
</g>
</g>
<!-- Node19&#45;&gt;Node20 -->
<g id="edge24" class="edge">
<title>Node19&#45;&gt;Node20</title>
<path fill="none" stroke="midnightblue" d="M137,-222.66C199.41,-225.91 290.31,-230.63 354.69,-233.98"/>
<polygon fill="midnightblue" stroke="midnightblue" points="137.02,-219.16 126.85,-222.14 136.66,-226.15 137.02,-219.16"/>
</g>
<!-- Node21 -->
<g id="node21" class="node">
<title>Node21</title>
<g id="a_node21"><a xlink:href="classsciplot_1_1TitleSpecsOf.html" target="_top" xlink:title=" ">
<polygon fill="white" stroke="black" points="357.5,-190.5 357.5,-209.5 508.5,-209.5 508.5,-190.5 357.5,-190.5"/>
<text text-anchor="middle" x="433" y="-197.5" font-family="Helvetica" font-size="10.00">TitleSpecsOf&lt; LegendSpecs &gt;</text>
</a>
</g>
</g>
<!-- Node19&#45;&gt;Node21 -->
<g id="edge26" class="edge">
<title>Node19&#45;&gt;Node21</title>
<path fill="none" stroke="midnightblue" d="M137.14,-215.33C200.4,-212.04 292.86,-207.23 357.32,-203.88"/>
<polygon fill="midnightblue" stroke="midnightblue" points="136.66,-211.85 126.85,-215.86 137.02,-218.84 136.66,-211.85"/>
</g>
<!-- Node22 -->
<g id="node22" class="node">
<title>Node22</title>
<g id="a_node22"><a xlink:href="classsciplot_1_1FrameSpecsOf.html" target="_top" xlink:title=" ">
<polygon fill="white" stroke="black" points="353,-152.5 353,-171.5 513,-171.5 513,-152.5 353,-152.5"/>
<text text-anchor="middle" x="433" y="-159.5" font-family="Helvetica" font-size="10.00">FrameSpecsOf&lt; LegendSpecs &gt;</text>
</a>
</g>
</g>
<!-- Node19&#45;&gt;Node22 -->
<g id="edge28" class="edge">
<title>Node19&#45;&gt;Node22</title>
<path fill="none" stroke="midnightblue" d="M128.82,-207.66C141.76,-205.38 155.32,-203.06 168,-201 234.42,-190.21 310.46,-179.11 363.82,-171.52"/>
<polygon fill="midnightblue" stroke="midnightblue" points="127.85,-204.27 118.61,-209.46 129.07,-211.17 127.85,-204.27"/>
</g>
<!-- Node20&#45;&gt;Node16 -->
<g id="edge23" class="edge">
<title>Node20&#45;&gt;Node16</title>
<path fill="none" stroke="midnightblue" d="M521.32,-238C608.04,-238 736.86,-238 799.75,-238"/>
<polygon fill="midnightblue" stroke="midnightblue" points="521.23,-234.5 511.23,-238 521.23,-241.5 521.23,-234.5"/>
</g>
<!-- Node21&#45;&gt;Node16 -->
<g id="edge25" class="edge">
<title>Node21&#45;&gt;Node16</title>
<path fill="none" stroke="midnightblue" d="M518.95,-208.01C605.69,-216.19 736.36,-228.51 799.8,-234.49"/>
<polygon fill="midnightblue" stroke="midnightblue" points="519.14,-204.51 508.86,-207.06 518.48,-211.48 519.14,-204.51"/>
</g>
<!-- Node22&#45;&gt;Node16 -->
<g id="edge27" class="edge">
<title>Node22&#45;&gt;Node16</title>
<path fill="none" stroke="midnightblue" d="M504.66,-173.16C555.26,-181.37 624.96,-193.13 686,-205 724.98,-212.58 769.36,-222.43 799.87,-229.38"/>
<polygon fill="midnightblue" stroke="midnightblue" points="504.91,-169.66 494.48,-171.52 503.79,-176.57 504.91,-169.66"/>
</g>
<!-- Node23&#45;&gt;Node2 -->
<g id="edge29" class="edge">
<title>Node23&#45;&gt;Node2</title>
<path fill="none" stroke="#9a32cd" stroke-dasharray="5,2" d="M900.77,-270.65C940.33,-267.23 989.72,-262.96 1019.78,-260.36"/>
<polygon fill="#9a32cd" stroke="#9a32cd" points="900.34,-267.18 890.68,-271.53 900.95,-274.15 900.34,-267.18"/>
<text text-anchor="middle" x="965.5" y="-271" font-family="Helvetica" font-size="10.00"> m_customcmds</text>
</g>
<!-- Node24 -->
<g id="node24" class="node">
<title>Node24</title>
<g id="a_node24"><a xlink:href="classsciplot_1_1FillStyleSpecs.html" target="_top" xlink:title="The class used to attach color or pattern fill options to a type.">
<polygon fill="white" stroke="black" points="798,-184.5 798,-203.5 878,-203.5 878,-184.5 798,-184.5"/>
<text text-anchor="middle" x="838" y="-191.5" font-family="Helvetica" font-size="10.00">FillStyleSpecs</text>
</a>
</g>
</g>
<!-- Node24&#45;&gt;Node2 -->
<g id="edge31" class="edge">
<title>Node24&#45;&gt;Node2</title>
<path fill="none" stroke="#9a32cd" stroke-dasharray="5,2" d="M888.67,-197.69C921.86,-201.52 965.89,-209.29 1002,-225 1015.15,-230.72 1028.13,-240.86 1036.75,-248.39"/>
<polygon fill="#9a32cd" stroke="#9a32cd" points="888.62,-194.16 878.3,-196.58 887.87,-201.12 888.62,-194.16"/>
<text text-anchor="middle" x="965.5" y="-228" font-family="Helvetica" font-size="10.00"> m_style_fill</text>
</g>
<!-- Node25 -->
<g id="node25" class="node">
<title>Node25</title>
<g id="a_node25"><a xlink:href="classsciplot_1_1Specs.html" target="_top" xlink:title=" ">
<polygon fill="white" stroke="black" points="546,-114.5 546,-133.5 671,-133.5 671,-114.5 546,-114.5"/>
<text text-anchor="middle" x="608.5" y="-121.5" font-family="Helvetica" font-size="10.00">Specs&lt; FillStyleSpecs &gt;</text>
</a>
</g>
</g>
<!-- Node25&#45;&gt;Node24 -->
<g id="edge32" class="edge">
<title>Node25&#45;&gt;Node24</title>
<path fill="none" stroke="midnightblue" d="M681.02,-129.3C702.92,-132.8 726.6,-138.55 747,-148 756.45,-152.38 756.13,-157.55 765,-163 779.03,-171.62 795.89,-179.01 809.76,-184.42"/>
<polygon fill="midnightblue" stroke="midnightblue" points="681.51,-125.84 671.11,-127.85 680.49,-132.76 681.51,-125.84"/>
</g>
<!-- Node26 -->
<g id="node26" class="node">
<title>Node26</title>
<g id="a_node26"><a xlink:href="classsciplot_1_1GridSpecs.html" target="_top" xlink:title="The class used to specify options for grid.">
<polygon fill="white" stroke="black" points="807,-134.5 807,-153.5 869,-153.5 869,-134.5 807,-134.5"/>
<text text-anchor="middle" x="838" y="-141.5" font-family="Helvetica" font-size="10.00">GridSpecs</text>
</a>
</g>
</g>
<!-- Node26&#45;&gt;Node2 -->
<g id="edge33" class="edge">
<title>Node26&#45;&gt;Node2</title>
<path fill="none" stroke="#9a32cd" stroke-dasharray="5,2" d="M879.07,-147.09C914.35,-151.55 965.65,-162.43 1002,-189 1023.25,-204.53 1037.2,-233.38 1043.37,-248.38"/>
<polygon fill="#9a32cd" stroke="#9a32cd" points="879.45,-143.61 869.11,-145.95 878.65,-150.56 879.45,-143.61"/>
<text text-anchor="middle" x="965.5" y="-192" font-family="Helvetica" font-size="10.00"> m_grid</text>
</g>
<!-- Node27 -->
<g id="node27" class="node">
<title>Node27</title>
<g id="a_node27"><a xlink:href="classsciplot_1_1GridSpecsBase.html" target="_top" xlink:title="The class used to specify options for grid lines along axis tics (major or minor).">
<polygon fill="white" stroke="black" points="566,-76.5 566,-95.5 651,-95.5 651,-76.5 566,-76.5"/>
<text text-anchor="middle" x="608.5" y="-83.5" font-family="Helvetica" font-size="10.00">GridSpecsBase</text>
</a>
</g>
</g>
<!-- Node27&#45;&gt;Node26 -->
<g id="edge34" class="edge">
<title>Node27&#45;&gt;Node26</title>
<path fill="none" stroke="midnightblue" d="M661.19,-92.67C687.19,-96.61 719.04,-102.35 747,-110 770.84,-116.52 797.2,-126.87 815.19,-134.43"/>
<polygon fill="midnightblue" stroke="midnightblue" points="661.57,-89.18 651.16,-91.19 660.55,-96.11 661.57,-89.18"/>
</g>
<!-- Node28 -->
<g id="node28" class="node">
<title>Node28</title>
<g id="a_node28"><a xlink:href="classsciplot_1_1LineSpecsOf.html" target="_top" xlink:title=" ">
<polygon fill="white" stroke="black" points="172,-114.5 172,-133.5 331,-133.5 331,-114.5 172,-114.5"/>
<text text-anchor="middle" x="251.5" y="-121.5" font-family="Helvetica" font-size="10.00">LineSpecsOf&lt; GridSpecsBase &gt;</text>
</a>
</g>
</g>
<!-- Node28&#45;&gt;Node27 -->
<g id="edge35" class="edge">
<title>Node28&#45;&gt;Node27</title>
<path fill="none" stroke="midnightblue" d="M341.49,-117.03C391.89,-112.77 456.05,-106.84 513,-100 530.29,-97.92 549.29,-95.2 565.7,-92.7"/>
<polygon fill="midnightblue" stroke="midnightblue" points="340.95,-113.56 331.28,-117.88 341.53,-120.53 340.95,-113.56"/>
</g>
<!-- Node29 -->
<g id="node29" class="node">
<title>Node29</title>
<g id="a_node29"><a xlink:href="classsciplot_1_1Specs.html" target="_top" xlink:title=" ">
<polygon fill="white" stroke="black" points="0,-76.5 0,-95.5 131,-95.5 131,-76.5 0,-76.5"/>
<text text-anchor="middle" x="65.5" y="-83.5" font-family="Helvetica" font-size="10.00">Specs&lt; GridSpecsBase &gt;</text>
</a>
</g>
</g>
<!-- Node29&#45;&gt;Node28 -->
<g id="edge36" class="edge">
<title>Node29&#45;&gt;Node28</title>
<path fill="none" stroke="midnightblue" d="M123.06,-97.68C149.15,-103.07 179.74,-109.39 204.4,-114.48"/>
<polygon fill="midnightblue" stroke="midnightblue" points="123.43,-94.18 112.93,-95.59 122.02,-101.04 123.43,-94.18"/>
</g>
<!-- Node30 -->
<g id="node30" class="node">
<title>Node30</title>
<g id="a_node30"><a xlink:href="classsciplot_1_1DepthSpecsOf.html" target="_top" xlink:title=" ">
<polygon fill="white" stroke="black" points="168,-76.5 168,-95.5 335,-95.5 335,-76.5 168,-76.5"/>
<text text-anchor="middle" x="251.5" y="-83.5" font-family="Helvetica" font-size="10.00">DepthSpecsOf&lt; GridSpecsBase &gt;</text>
</a>
</g>
</g>
<!-- Node29&#45;&gt;Node30 -->
<g id="edge38" class="edge">
<title>Node29&#45;&gt;Node30</title>
<path fill="none" stroke="midnightblue" d="M141.3,-86C150.08,-86 159.08,-86 167.96,-86"/>
<polygon fill="midnightblue" stroke="midnightblue" points="141.11,-82.5 131.11,-86 141.11,-89.5 141.11,-82.5"/>
</g>
<!-- Node31 -->
<g id="node31" class="node">
<title>Node31</title>
<g id="a_node31"><a xlink:href="classsciplot_1_1ShowSpecsOf.html" target="_top" xlink:title=" ">
<polygon fill="white" stroke="black" points="169,-38.5 169,-57.5 334,-57.5 334,-38.5 169,-38.5"/>
<text text-anchor="middle" x="251.5" y="-45.5" font-family="Helvetica" font-size="10.00">ShowSpecsOf&lt; GridSpecsBase &gt;</text>
</a>
</g>
</g>
<!-- Node29&#45;&gt;Node31 -->
<g id="edge40" class="edge">
<title>Node29&#45;&gt;Node31</title>
<path fill="none" stroke="midnightblue" d="M123.06,-74.32C149.15,-68.93 179.74,-62.61 204.4,-57.52"/>
<polygon fill="midnightblue" stroke="midnightblue" points="122.02,-70.96 112.93,-76.41 123.43,-77.82 122.02,-70.96"/>
</g>
<!-- Node30&#45;&gt;Node27 -->
<g id="edge37" class="edge">
<title>Node30&#45;&gt;Node27</title>
<path fill="none" stroke="midnightblue" d="M345.64,-86C417.07,-86 512.24,-86 565.97,-86"/>
<polygon fill="midnightblue" stroke="midnightblue" points="345.28,-82.5 335.28,-86 345.28,-89.5 345.28,-82.5"/>
</g>
<!-- Node31&#45;&gt;Node27 -->
<g id="edge39" class="edge">
<title>Node31&#45;&gt;Node27</title>
<path fill="none" stroke="midnightblue" d="M344.75,-57.87C416.17,-65.52 511.76,-75.75 565.76,-81.53"/>
<polygon fill="midnightblue" stroke="midnightblue" points="344.71,-54.35 334.39,-56.77 343.96,-61.31 344.71,-54.35"/>
</g>
<!-- Node32 -->
<g id="node32" class="node">
<title>Node32</title>
<g id="a_node32"><a xlink:href="classsciplot_1_1FontSpecs.html" target="_top" xlink:title="The class used to specify font options.">
<polygon fill="white" stroke="black" points="806,-71.5 806,-90.5 870,-90.5 870,-71.5 806,-71.5"/>
<text text-anchor="middle" x="838" y="-78.5" font-family="Helvetica" font-size="10.00">FontSpecs</text>
</a>
</g>
</g>
<!-- Node32&#45;&gt;Node2 -->
<g id="edge41" class="edge">
<title>Node32&#45;&gt;Node2</title>
<path fill="none" stroke="#9a32cd" stroke-dasharray="5,2" d="M880.38,-86.78C916.76,-93.9 968.94,-109.33 1002,-142 1032.88,-172.52 1043.01,-226.62 1045.94,-248.46"/>
<polygon fill="#9a32cd" stroke="#9a32cd" points="880.56,-83.26 870.1,-84.91 879.31,-90.15 880.56,-83.26"/>
<text text-anchor="middle" x="965.5" y="-145" font-family="Helvetica" font-size="10.00"> m_font</text>
</g>
<!-- Node33 -->
<g id="node33" class="node">
<title>Node33</title>
<g id="a_node33"><a xlink:href="classsciplot_1_1FontSpecsOf.html" target="_top" xlink:title=" ">
<polygon fill="white" stroke="black" points="538.5,-19.5 538.5,-38.5 678.5,-38.5 678.5,-19.5 538.5,-19.5"/>
<text text-anchor="middle" x="608.5" y="-26.5" font-family="Helvetica" font-size="10.00">FontSpecsOf&lt; FontSpecs &gt;</text>
</a>
</g>
</g>
<!-- Node33&#45;&gt;Node32 -->
<g id="edge42" class="edge">
<title>Node33&#45;&gt;Node32</title>
<path fill="none" stroke="midnightblue" d="M661,-40.77C705.53,-50.95 768.47,-65.34 805.77,-73.86"/>
<polygon fill="midnightblue" stroke="midnightblue" points="661.76,-37.35 651.23,-38.54 660.2,-44.18 661.76,-37.35"/>
</g>
<!-- Node34 -->
<g id="node34" class="node">
<title>Node34</title>
<g id="a_node34"><a xlink:href="classsciplot_1_1Specs.html" target="_top" xlink:title=" ">
<polygon fill="white" stroke="black" points="196.5,-0.5 196.5,-19.5 306.5,-19.5 306.5,-0.5 196.5,-0.5"/>
<text text-anchor="middle" x="251.5" y="-7.5" font-family="Helvetica" font-size="10.00">Specs&lt; FontSpecs &gt;</text>
</a>
</g>
</g>
<!-- Node34&#45;&gt;Node33 -->
<g id="edge43" class="edge">
<title>Node34&#45;&gt;Node33</title>
<path fill="none" stroke="midnightblue" d="M316.94,-13.45C379.49,-16.8 474.13,-21.86 538.26,-25.29"/>
<polygon fill="midnightblue" stroke="midnightblue" points="316.98,-9.95 306.8,-12.91 316.6,-16.94 316.98,-9.95"/>
</g>
</g>
</svg>
