<?xml version="1.0" encoding="UTF-8" standalone="no"?>
<!DOCTYPE svg PUBLIC "-//W3C//DTD SVG 1.1//EN"
 "http://www.w3.org/Graphics/SVG/1.1/DTD/svg11.dtd">
<!-- Generated by graphviz version 7.0.5 (20221231.0122)
 -->
<!-- Title: GridSpecs Pages: 1 -->
<!--zoomable 104 -->
<svg id="main" version="1.1" xmlns="http://www.w3.org/2000/svg" xmlns:xlink="http://www.w3.org/1999/xlink" xml:space="preserve" onload="init(evt)">
<style type="text/css"><![CDATA[
.edge:hover path { stroke: red; }
.edge:hover polygon { stroke: red; fill: red; }
]]></style>
<script type="text/javascript"><![CDATA[
var edges = document.getElementsByTagName('g');
if (edges && edges.length) {
  for (var i=0;i<edges.length;i++) {
    if (edges[i].id.substr(0,4)=='edge') {
      edges[i].setAttribute('class','edge');
    }
  }
}
]]></script>
        <defs>
                <circle id="rim" cx="0" cy="0" r="7"/>
                <circle id="rim2" cx="0" cy="0" r="3.5"/>
                <g id="zoomPlus">
                        <use xlink:href="#rim" fill="#404040">
                                <set attributeName="fill" to="#808080" begin="zoomplus.mouseover" end="zoomplus.mouseout"/>
                        </use>
                        <path d="M-4,0h8M0,-4v8" fill="none" stroke="white" stroke-width="1.5" pointer-events="none"/>
                </g>
                <g id="zoomMin">
                        <use xlink:href="#rim" fill="#404040">
                                <set attributeName="fill" to="#808080" begin="zoomminus.mouseover" end="zoomminus.mouseout"/>
                        </use>
                        <path d="M-4,0h8" fill="none" stroke="white" stroke-width="1.5" pointer-events="none"/>
                </g>
                <g id="dirArrow">
                        <path fill="none" stroke="white" stroke-width="1.5" d="M0,-3.0v7 M-2.5,-0.5L0,-3.0L2.5,-0.5"/>
                </g>
               <g id="resetDef">
                       <use xlink:href="#rim2" fill="#404040">
                               <set attributeName="fill" to="#808080" begin="reset.mouseover" end="reset.mouseout"/>
                       </use>
               </g>
        </defs>

<script type="text/javascript">
var viewWidth = 591;
var viewHeight = 104;
var sectionId = 'dynsection-1';
</script>
<script xlink:href="svgpan.js"/>
<svg id="graph" class="graph">
<g id="viewport">
<title>GridSpecs</title>
<polygon fill="white" stroke="none" points="-4,4 -4,-100 587,-100 587,4 -4,4"/>
<!-- Node1 -->
<g id="node1" class="node">
<title>Node1</title>
<g id="a_node1"><a xlink:title="The class used to specify options for grid.">
<polygon fill="#bfbfbf" stroke="black" points="518,-38.5 518,-57.5 583,-57.5 583,-38.5 518,-38.5"/>
<text text-anchor="middle" x="550.5" y="-45.5" font-family="Helvetica,sans-Serif" font-size="10.00">GridSpecs</text>
</a>
</g>
</g>
<!-- Node2 -->
<g id="node2" class="node">
<title>Node2</title>
<g id="a_node2"><a xlink:href="classsciplot_1_1GridSpecsBase.html" target="_top" xlink:title="The class used to specify options for grid lines along axis tics (major or minor).">
<polygon fill="white" stroke="black" points="393,-38.5 393,-57.5 482,-57.5 482,-38.5 393,-38.5"/>
<text text-anchor="middle" x="437.5" y="-45.5" font-family="Helvetica,sans-Serif" font-size="10.00">GridSpecsBase</text>
</a>
</g>
</g>
<!-- Node2&#45;&gt;Node1 -->
<g id="edge1" class="edge">
<title>Node2&#45;&gt;Node1</title>
<path fill="none" stroke="midnightblue" d="M493.02,-48C501.68,-48 510.36,-48 518.24,-48"/>
<polygon fill="midnightblue" stroke="midnightblue" points="493.25,-44.5 483.25,-48 493.25,-51.5 493.25,-44.5"/>
</g>
<!-- Node3 -->
<g id="node3" class="node">
<title>Node3</title>
<g id="a_node3"><a xlink:href="classsciplot_1_1LineSpecsOf.html" target="_top" xlink:title=" ">
<polygon fill="white" stroke="black" points="180.5,-76.5 180.5,-95.5 352.5,-95.5 352.5,-76.5 180.5,-76.5"/>
<text text-anchor="middle" x="266.5" y="-83.5" font-family="Helvetica,sans-Serif" font-size="10.00">LineSpecsOf&lt; GridSpecsBase &gt;</text>
</a>
</g>
</g>
<!-- Node3&#45;&gt;Node2 -->
<g id="edge2" class="edge">
<title>Node3&#45;&gt;Node2</title>
<path fill="none" stroke="midnightblue" d="M324.23,-74.18C335.12,-71.85 346.42,-69.39 357,-67 370.29,-64 384.79,-60.58 397.73,-57.47"/>
<polygon fill="midnightblue" stroke="midnightblue" points="323.61,-70.74 314.56,-76.24 325.07,-77.58 323.61,-70.74"/>
</g>
<!-- Node4 -->
<g id="node4" class="node">
<title>Node4</title>
<g id="a_node4"><a xlink:href="classsciplot_1_1Specs.html" target="_top" xlink:title=" ">
<polygon fill="white" stroke="black" points="0,-38.5 0,-57.5 140,-57.5 140,-38.5 0,-38.5"/>
<text text-anchor="middle" x="70" y="-45.5" font-family="Helvetica,sans-Serif" font-size="10.00">Specs&lt; GridSpecsBase &gt;</text>
</a>
</g>
</g>
<!-- Node4&#45;&gt;Node3 -->
<g id="edge3" class="edge">
<title>Node4&#45;&gt;Node3</title>
<path fill="none" stroke="midnightblue" d="M130.74,-59.67C158.49,-65.09 191.04,-71.45 217.2,-76.56"/>
<polygon fill="midnightblue" stroke="midnightblue" points="131.55,-56.26 121.06,-57.78 130.21,-63.13 131.55,-56.26"/>
</g>
<!-- Node5 -->
<g id="node5" class="node">
<title>Node5</title>
<g id="a_node5"><a xlink:href="classsciplot_1_1DepthSpecsOf.html" target="_top" xlink:title=" ">
<polygon fill="white" stroke="black" points="176,-38.5 176,-57.5 357,-57.5 357,-38.5 176,-38.5"/>
<text text-anchor="middle" x="266.5" y="-45.5" font-family="Helvetica,sans-Serif" font-size="10.00">DepthSpecsOf&lt; GridSpecsBase &gt;</text>
</a>
</g>
</g>
<!-- Node4&#45;&gt;Node5 -->
<g id="edge5" class="edge">
<title>Node4&#45;&gt;Node5</title>
<path fill="none" stroke="midnightblue" d="M151.35,-48C159.58,-48 167.98,-48 176.31,-48"/>
<polygon fill="midnightblue" stroke="midnightblue" points="151.36,-44.5 141.36,-48 151.36,-51.5 151.36,-44.5"/>
</g>
<!-- Node6 -->
<g id="node6" class="node">
<title>Node6</title>
<g id="a_node6"><a xlink:href="classsciplot_1_1ShowSpecsOf.html" target="_top" xlink:title=" ">
<polygon fill="white" stroke="black" points="177.5,-0.5 177.5,-19.5 355.5,-19.5 355.5,-0.5 177.5,-0.5"/>
<text text-anchor="middle" x="266.5" y="-7.5" font-family="Helvetica,sans-Serif" font-size="10.00">ShowSpecsOf&lt; GridSpecsBase &gt;</text>
</a>
</g>
</g>
<!-- Node4&#45;&gt;Node6 -->
<g id="edge7" class="edge">
<title>Node4&#45;&gt;Node6</title>
<path fill="none" stroke="midnightblue" d="M130.74,-36.33C158.49,-30.91 191.04,-24.55 217.2,-19.44"/>
<polygon fill="midnightblue" stroke="midnightblue" points="130.21,-32.87 121.06,-38.22 131.55,-39.74 130.21,-32.87"/>
</g>
<!-- Node5&#45;&gt;Node2 -->
<g id="edge4" class="edge">
<title>Node5&#45;&gt;Node2</title>
<path fill="none" stroke="midnightblue" d="M368.45,-48C377.13,-48 385.56,-48 393.36,-48"/>
<polygon fill="midnightblue" stroke="midnightblue" points="368.46,-44.5 358.46,-48 368.46,-51.5 368.46,-44.5"/>
</g>
<!-- Node6&#45;&gt;Node2 -->
<g id="edge6" class="edge">
<title>Node6&#45;&gt;Node2</title>
<path fill="none" stroke="midnightblue" d="M324.23,-21.82C335.12,-24.15 346.42,-26.61 357,-29 370.29,-32 384.79,-35.42 397.73,-38.53"/>
<polygon fill="midnightblue" stroke="midnightblue" points="325.07,-18.42 314.56,-19.76 323.61,-25.26 325.07,-18.42"/>
</g>
</g>
</svg>
        <g id="navigator" transform="translate(0 0)" fill="#404254">
                <rect fill="#f2f5e9" fill-opacity="0.5" stroke="#606060" stroke-width=".5" x="0" y="0" width="60" height="60"/>
                <use id="zoomplus" xlink:href="#zoomPlus" x="17" y="9" onmousedown="handleZoom(evt,'in')"/>
                <use id="zoomminus" xlink:href="#zoomMin" x="42" y="9" onmousedown="handleZoom(evt,'out')"/>
                <use id="reset" xlink:href="#resetDef" x="30" y="36" onmousedown="handleReset()"/>
                <g id="arrowUp" xlink:href="#dirArrow" transform="translate(30 24)" onmousedown="handlePan(0,-1)">
                  <use xlink:href="#rim" fill="#404040">
                        <set attributeName="fill" to="#808080" begin="arrowUp.mouseover" end="arrowUp.mouseout"/>
                  </use>
                  <path fill="none" stroke="white" stroke-width="1.5" d="M0,-3.0v7 M-2.5,-0.5L0,-3.0L2.5,-0.5"/>
                </g>
                <g id="arrowRight" xlink:href="#dirArrow" transform="rotate(90) translate(36 -43)" onmousedown="handlePan(1,0)">
                  <use xlink:href="#rim" fill="#404040">
                        <set attributeName="fill" to="#808080" begin="arrowRight.mouseover" end="arrowRight.mouseout"/>
                  </use>
                  <path fill="none" stroke="white" stroke-width="1.5" d="M0,-3.0v7 M-2.5,-0.5L0,-3.0L2.5,-0.5"/>
                </g>
                <g id="arrowDown" xlink:href="#dirArrow" transform="rotate(180) translate(-30 -48)" onmousedown="handlePan(0,1)">
                  <use xlink:href="#rim" fill="#404040">
                        <set attributeName="fill" to="#808080" begin="arrowDown.mouseover" end="arrowDown.mouseout"/>
                  </use>
                  <path fill="none" stroke="white" stroke-width="1.5" d="M0,-3.0v7 M-2.5,-0.5L0,-3.0L2.5,-0.5"/>
                </g>
                <g id="arrowLeft" xlink:href="#dirArrow" transform="rotate(270) translate(-36 17)" onmousedown="handlePan(-1,0)">
                  <use xlink:href="#rim" fill="#404040">
                        <set attributeName="fill" to="#808080" begin="arrowLeft.mouseover" end="arrowLeft.mouseout"/>
                  </use>
                  <path fill="none" stroke="white" stroke-width="1.5" d="M0,-3.0v7 M-2.5,-0.5L0,-3.0L2.5,-0.5"/>
                </g>
        </g>
        <svg viewBox="0 0 15 15" width="100%" height="30px" preserveAspectRatio="xMaxYMin meet">
         <g id="arrow_out" transform="scale(0.3 0.3)">
          <a xlink:href="classsciplot_1_1GridSpecs__coll__graph_org.svg" target="_base">
           <rect id="button" ry="5" rx="5" y="6" x="6" height="38" width="38"
                fill="#f2f5e9" fill-opacity="0.5" stroke="#606060" stroke-width="1.0"/>
           <path id="arrow"
             d="M 11.500037,31.436501 C 11.940474,20.09759 22.043105,11.32322 32.158766,21.979434 L 37.068811,17.246167 C 37.068811,17.246167 37.088388,32 37.088388,32 L 22.160133,31.978069 C 22.160133,31.978069 26.997745,27.140456 26.997745,27.140456 C 18.528582,18.264221 13.291696,25.230495 11.500037,31.436501 z"
             style="fill:#404040;"/>
          </a>
         </g>
        </svg>
</svg>
