<?xml version="1.0" encoding="UTF-8" standalone="no"?>
<!DOCTYPE svg PUBLIC "-//W3C//DTD SVG 1.1//EN"
 "http://www.w3.org/Graphics/SVG/1.1/DTD/svg11.dtd">
<!-- Generated by graphviz version 8.0.4 (20230426.1303)
 -->
<!-- Title: LayoutSpecs Pages: 1 -->
<svg width="181pt" height="145pt"
 viewBox="0.00 0.00 180.75 145.25" xmlns="http://www.w3.org/2000/svg" xmlns:xlink="http://www.w3.org/1999/xlink">
<g id="graph0" class="graph" transform="scale(1 1) rotate(0) translate(4 141.25)">
<title>LayoutSpecs</title>
<polygon fill="white" stroke="none" points="-4,4 -4,-141.25 176.75,-141.25 176.75,4 -4,4"/>
<!-- Node1 -->
<g id="node1" class="node">
<title>Node1</title>
<g id="a_node1"><a xlink:title="The class used to specify layout options.">
<polygon fill="#bfbfbf" stroke="black" points="47.62,-0.5 47.62,-21.25 125.12,-21.25 125.12,-0.5 47.62,-0.5"/>
<text text-anchor="middle" x="86.38" y="-7.75" font-family="Helvetica,sans-Serif" font-size="10.00">LayoutSpecs</text>
</a>
</g>
</g>
<!-- Node2 -->
<g id="node2" class="node">
<title>Node2</title>
<g id="a_node2"><a xlink:href="classsciplot_1_1LayoutSpecsOf.html" target="_top" xlink:title=" ">
<polygon fill="white" stroke="black" points="0,-58.25 0,-79 172.75,-79 172.75,-58.25 0,-58.25"/>
<text text-anchor="middle" x="86.38" y="-65.5" font-family="Helvetica,sans-Serif" font-size="10.00">LayoutSpecsOf&lt; LayoutSpecs &gt;</text>
</a>
</g>
</g>
<!-- Node2&#45;&gt;Node1 -->
<g id="edge1" class="edge">
<title>Node2&#45;&gt;Node1</title>
<path fill="none" stroke="midnightblue" d="M86.38,-47.5C86.38,-38.39 86.38,-28.09 86.38,-20.91"/>
<polygon fill="midnightblue" stroke="midnightblue" points="82.88,-47.42 86.38,-57.42 89.88,-47.42 82.88,-47.42"/>
</g>
<!-- Node3 -->
<g id="node3" class="node">
<title>Node3</title>
<g id="a_node3"><a xlink:href="classsciplot_1_1Specs.html" target="_top" xlink:title=" ">
<polygon fill="white" stroke="black" points="22.12,-116 22.12,-136.75 150.62,-136.75 150.62,-116 22.12,-116"/>
<text text-anchor="middle" x="86.38" y="-123.25" font-family="Helvetica,sans-Serif" font-size="10.00">Specs&lt; LayoutSpecs &gt;</text>
</a>
</g>
</g>
<!-- Node3&#45;&gt;Node2 -->
<g id="edge2" class="edge">
<title>Node3&#45;&gt;Node2</title>
<path fill="none" stroke="midnightblue" d="M86.38,-105.25C86.38,-96.14 86.38,-85.84 86.38,-78.66"/>
<polygon fill="midnightblue" stroke="midnightblue" points="82.88,-105.17 86.38,-115.17 89.88,-105.17 82.88,-105.17"/>
</g>
</g>
</svg>
