<?xml version="1.0" encoding="UTF-8" standalone="no"?>
<!DOCTYPE svg PUBLIC "-//W3C//DTD SVG 1.1//EN"
 "http://www.w3.org/Graphics/SVG/1.1/DTD/svg11.dtd">
<!-- Generated by graphviz version 8.0.3 (20230418.1244)
 -->
<!-- Title: DrawSpecs Pages: 1 -->
<svg width="431pt" height="154pt"
 viewBox="0.00 0.00 431.00 153.50" xmlns="http://www.w3.org/2000/svg" xmlns:xlink="http://www.w3.org/1999/xlink">
<g id="graph0" class="graph" transform="scale(1 1) rotate(0) translate(4 149.5)">
<title>DrawSpecs</title>
<polygon fill="white" stroke="none" points="-4,4 -4,-149.5 427,-149.5 427,4 -4,4"/>
<!-- Node1 -->
<g id="node1" class="node">
<title>Node1</title>
<g id="a_node1"><a xlink:title="The class where options for the plotted element can be specified.">
<polygon fill="#bfbfbf" stroke="black" points="352,-69 352,-88 423,-88 423,-69 352,-69"/>
<text text-anchor="middle" x="387.5" y="-76" font-family="Helvetica,sans-Serif" font-size="10.00">DrawSpecs</text>
</a>
</g>
</g>
<!-- Node2 -->
<g id="node2" class="node">
<title>Node2</title>
<g id="a_node2"><a xlink:href="classsciplot_1_1LineSpecsOf.html" target="_top" xlink:title=" ">
<polygon fill="white" stroke="black" points="160.5,-126 160.5,-145 313.5,-145 313.5,-126 160.5,-126"/>
<text text-anchor="middle" x="237" y="-133" font-family="Helvetica,sans-Serif" font-size="10.00">LineSpecsOf&lt; DrawSpecs &gt;</text>
</a>
</g>
</g>
<!-- Node2&#45;&gt;Node1 -->
<g id="edge1" class="edge">
<title>Node2&#45;&gt;Node1</title>
<path fill="none" stroke="midnightblue" d="M295.44,-123.29C302.45,-121.28 309.44,-119.02 316,-116.5 336.12,-108.77 357.72,-96.47 371.63,-87.97"/>
<polygon fill="midnightblue" stroke="midnightblue" points="294.94,-120.07 286.2,-126.06 296.77,-126.83 294.94,-120.07"/>
</g>
<!-- Node3 -->
<g id="node3" class="node">
<title>Node3</title>
<g id="a_node3"><a xlink:href="classsciplot_1_1Specs.html" target="_top" xlink:title=" ">
<polygon fill="white" stroke="black" points="0,-69 0,-88 122,-88 122,-69 0,-69"/>
<text text-anchor="middle" x="61" y="-76" font-family="Helvetica,sans-Serif" font-size="10.00">Specs&lt; DrawSpecs &gt;</text>
</a>
</g>
</g>
<!-- Node3&#45;&gt;Node2 -->
<g id="edge2" class="edge">
<title>Node3&#45;&gt;Node2</title>
<path fill="none" stroke="midnightblue" d="M93.39,-92.19C111.95,-99.97 136.05,-109.52 158,-116.5 169.02,-120.01 181.1,-123.24 192.38,-126"/>
<polygon fill="midnightblue" stroke="midnightblue" points="95,-88.65 84.42,-87.97 92.26,-95.1 95,-88.65"/>
</g>
<!-- Node4 -->
<g id="node4" class="node">
<title>Node4</title>
<g id="a_node4"><a xlink:href="classsciplot_1_1PointSpecsOf.html" target="_top" xlink:title=" ">
<polygon fill="white" stroke="black" points="158,-88 158,-107 316,-107 316,-88 158,-88"/>
<text text-anchor="middle" x="237" y="-95" font-family="Helvetica,sans-Serif" font-size="10.00">PointSpecsOf&lt; DrawSpecs &gt;</text>
</a>
</g>
</g>
<!-- Node3&#45;&gt;Node4 -->
<g id="edge4" class="edge">
<title>Node3&#45;&gt;Node4</title>
<path fill="none" stroke="midnightblue" d="M132.75,-86.23C141.13,-87.14 149.72,-88.08 158.19,-89"/>
<polygon fill="midnightblue" stroke="midnightblue" points="133.2,-82.64 122.88,-85.04 132.44,-89.6 133.2,-82.64"/>
</g>
<!-- Node5 -->
<g id="node5" class="node">
<title>Node5</title>
<g id="a_node5"><a xlink:href="classsciplot_1_1FillSpecsOf.html" target="_top" xlink:title=" ">
<polygon fill="white" stroke="black" points="163.5,-50 163.5,-69 310.5,-69 310.5,-50 163.5,-50"/>
<text text-anchor="middle" x="237" y="-57" font-family="Helvetica,sans-Serif" font-size="10.00">FillSpecsOf&lt; DrawSpecs &gt;</text>
</a>
</g>
</g>
<!-- Node3&#45;&gt;Node5 -->
<g id="edge6" class="edge">
<title>Node3&#45;&gt;Node5</title>
<path fill="none" stroke="midnightblue" d="M132.79,-70.77C142.98,-69.66 153.48,-68.51 163.69,-67.4"/>
<polygon fill="midnightblue" stroke="midnightblue" points="132.44,-67.4 122.88,-71.96 133.2,-74.36 132.44,-67.4"/>
</g>
<!-- Node6 -->
<g id="node6" class="node">
<title>Node6</title>
<g id="a_node6"><a xlink:href="classsciplot_1_1FilledCurvesSpecsOf.html" target="_top" xlink:title=" ">
<polygon fill="white" stroke="black" points="179,-0.5 179,-30.5 295,-30.5 295,-0.5 179,-0.5"/>
<text text-anchor="start" x="187" y="-18.5" font-family="Helvetica,sans-Serif" font-size="10.00">FilledCurvesSpecsOf</text>
<text text-anchor="middle" x="237" y="-7.5" font-family="Helvetica,sans-Serif" font-size="10.00">&lt; DrawSpecs &gt;</text>
</a>
</g>
</g>
<!-- Node3&#45;&gt;Node6 -->
<g id="edge8" class="edge">
<title>Node3&#45;&gt;Node6</title>
<path fill="none" stroke="midnightblue" d="M94.68,-64.94C113.15,-57.43 136.74,-48.11 158,-40.5 167.51,-37.1 177.74,-33.66 187.56,-30.47"/>
<polygon fill="midnightblue" stroke="midnightblue" points="93.66,-61.98 85.73,-69.01 96.31,-68.46 93.66,-61.98"/>
</g>
<!-- Node4&#45;&gt;Node1 -->
<g id="edge3" class="edge">
<title>Node4&#45;&gt;Node1</title>
<path fill="none" stroke="midnightblue" d="M322.98,-86.63C333.22,-85.32 343.18,-84.04 352.06,-82.91"/>
<polygon fill="midnightblue" stroke="midnightblue" points="322.72,-83.26 313.25,-88 323.61,-90.2 322.72,-83.26"/>
</g>
<!-- Node5&#45;&gt;Node1 -->
<g id="edge5" class="edge">
<title>Node5&#45;&gt;Node1</title>
<path fill="none" stroke="midnightblue" d="M320.69,-70.08C331.72,-71.49 342.5,-72.87 352.03,-74.09"/>
<polygon fill="midnightblue" stroke="midnightblue" points="321.44,-66.52 311.07,-68.72 320.55,-73.46 321.44,-66.52"/>
</g>
<!-- Node6&#45;&gt;Node1 -->
<g id="edge7" class="edge">
<title>Node6&#45;&gt;Node1</title>
<path fill="none" stroke="midnightblue" d="M299.44,-34.01C305.09,-36.06 310.68,-38.24 316,-40.5 335.58,-48.83 356.93,-60.78 370.95,-69.04"/>
<polygon fill="midnightblue" stroke="midnightblue" points="300.86,-30.45 290.26,-30.44 298.54,-37.05 300.86,-30.45"/>
</g>
</g>
</svg>
