<?xml version="1.0" encoding="UTF-8" standalone="no"?>
<!DOCTYPE svg PUBLIC "-//W3C//DTD SVG 1.1//EN"
 "http://www.w3.org/Graphics/SVG/1.1/DTD/svg11.dtd">
<!-- Generated by graphviz version 8.0.3 (20230418.1244)
 -->
<!-- Title: FontSpecsOf&lt; DerivedSpecs &gt; Pages: 1 -->
<svg width="175pt" height="207pt"
 viewBox="0.00 0.00 175.00 207.00" xmlns="http://www.w3.org/2000/svg" xmlns:xlink="http://www.w3.org/1999/xlink">
<g id="graph0" class="graph" transform="scale(1 1) rotate(0) translate(4 203)">
<title>FontSpecsOf&lt; DerivedSpecs &gt;</title>
<polygon fill="white" stroke="none" points="-4,4 -4,-203 171,-203 171,4 -4,4"/>
<!-- Node1 -->
<g id="node1" class="node">
<title>Node1</title>
<g id="a_node1"><a xlink:title="The class used to attach font options to a type.">
<polygon fill="#bfbfbf" stroke="black" points="0,-123.5 0,-142.5 167,-142.5 167,-123.5 0,-123.5"/>
<text text-anchor="middle" x="83.5" y="-130.5" font-family="Helvetica,sans-Serif" font-size="10.00">FontSpecsOf&lt; DerivedSpecs &gt;</text>
</a>
</g>
</g>
<!-- Node3 -->
<g id="node3" class="node">
<title>Node3</title>
<g id="a_node3"><a xlink:href="classsciplot_1_1TextSpecsOf.html" target="_top" xlink:title="The class used to attach text options to a type.">
<polygon fill="white" stroke="black" points="0.5,-67.5 0.5,-86.5 166.5,-86.5 166.5,-67.5 0.5,-67.5"/>
<text text-anchor="middle" x="83.5" y="-74.5" font-family="Helvetica,sans-Serif" font-size="10.00">TextSpecsOf&lt; DerivedSpecs &gt;</text>
</a>
</g>
</g>
<!-- Node1&#45;&gt;Node3 -->
<g id="edge2" class="edge">
<title>Node1&#45;&gt;Node3</title>
<path fill="none" stroke="midnightblue" d="M83.5,-112.72C83.5,-103.61 83.5,-93.22 83.5,-86.2"/>
<polygon fill="midnightblue" stroke="midnightblue" points="80,-112.56 83.5,-122.56 87,-112.56 80,-112.56"/>
</g>
<!-- Node2 -->
<g id="node2" class="node">
<title>Node2</title>
<g id="a_node2"><a xlink:href="classsciplot_1_1Specs.html" target="_top" xlink:title="The base class for other specs classes (e.g., LineSpecsOf, DrawSpecs, BorderSpecs,...">
<polygon fill="white" stroke="black" points="16.5,-179.5 16.5,-198.5 150.5,-198.5 150.5,-179.5 16.5,-179.5"/>
<text text-anchor="middle" x="83.5" y="-186.5" font-family="Helvetica,sans-Serif" font-size="10.00">Specs&lt; DerivedSpecs &gt;</text>
</a>
</g>
</g>
<!-- Node2&#45;&gt;Node1 -->
<g id="edge1" class="edge">
<title>Node2&#45;&gt;Node1</title>
<path fill="none" stroke="midnightblue" d="M83.5,-168.72C83.5,-159.61 83.5,-149.22 83.5,-142.2"/>
<polygon fill="midnightblue" stroke="midnightblue" points="80,-168.56 83.5,-178.56 87,-168.56 80,-168.56"/>
</g>
<!-- Node4 -->
<g id="node4" class="node">
<title>Node4</title>
<g id="a_node4"><a xlink:href="classsciplot_1_1TicsSpecsBaseOf.html" target="_top" xlink:title="The class used to attach common tic options to a type that also specifies tic options.">
<polygon fill="white" stroke="black" points="9,-0.5 9,-30.5 158,-30.5 158,-0.5 9,-0.5"/>
<text text-anchor="start" x="17" y="-18.5" font-family="Helvetica,sans-Serif" font-size="10.00">TicsSpecsBaseOf&lt; Derived</text>
<text text-anchor="middle" x="83.5" y="-7.5" font-family="Helvetica,sans-Serif" font-size="10.00">Specs &gt;</text>
</a>
</g>
</g>
<!-- Node3&#45;&gt;Node4 -->
<g id="edge3" class="edge">
<title>Node3&#45;&gt;Node4</title>
<path fill="none" stroke="midnightblue" d="M83.5,-56.76C83.5,-48.09 83.5,-38.07 83.5,-30.19"/>
<polygon fill="midnightblue" stroke="midnightblue" points="80,-56.73 83.5,-66.73 87,-56.73 80,-56.73"/>
</g>
</g>
</svg>
