<?xml version="1.0" encoding="UTF-8" standalone="no"?>
<!DOCTYPE svg PUBLIC "-//W3C//DTD SVG 1.1//EN"
 "http://www.w3.org/Graphics/SVG/1.1/DTD/svg11.dtd">
<!-- Generated by graphviz version 2.46.1 (20210217.0520)
 -->
<!-- Title: TicsSpecsBaseOf&lt; DerivedSpecs &gt; Pages: 1 -->
<svg width="696pt" height="104pt"
 viewBox="0.00 0.00 696.00 104.00" xmlns="http://www.w3.org/2000/svg" xmlns:xlink="http://www.w3.org/1999/xlink">
<g id="graph0" class="graph" transform="scale(1 1) rotate(0) translate(4 100)">
<title>TicsSpecsBaseOf&lt; DerivedSpecs &gt;</title>
<polygon fill="white" stroke="transparent" points="-4,4 -4,-100 692,-100 692,4 -4,4"/>
<!-- Node1 -->
<g id="node1" class="node">
<title>Node1</title>
<g id="a_node1"><a xlink:title="The class used to attach common tic options to a type that also specifies tic options.">
<polygon fill="#bfbfbf" stroke="black" points="550,-33 550,-63 688,-63 688,-33 550,-33"/>
<text text-anchor="start" x="558" y="-51" font-family="Helvetica" font-size="10.00">TicsSpecsBaseOf&lt; Derived</text>
<text text-anchor="middle" x="619" y="-40" font-family="Helvetica" font-size="10.00">Specs &gt;</text>
</a>
</g>
</g>
<!-- Node2 -->
<g id="node2" class="node">
<title>Node2</title>
<g id="a_node2"><a xlink:href="classsciplot_1_1TextSpecsOf.html" target="_top" xlink:title="The class used to attach text options to a type.">
<polygon fill="white" stroke="black" points="357.5,-76.5 357.5,-95.5 509.5,-95.5 509.5,-76.5 357.5,-76.5"/>
<text text-anchor="middle" x="433.5" y="-83.5" font-family="Helvetica" font-size="10.00">TextSpecsOf&lt; DerivedSpecs &gt;</text>
</a>
</g>
</g>
<!-- Node2&#45;&gt;Node1 -->
<g id="edge1" class="edge">
<title>Node2&#45;&gt;Node1</title>
<path fill="none" stroke="midnightblue" d="M490.64,-74.38C509.33,-70.5 530.36,-66.15 549.86,-62.11"/>
<polygon fill="midnightblue" stroke="midnightblue" points="489.89,-70.96 480.8,-76.41 491.31,-77.81 489.89,-70.96"/>
</g>
<!-- Node3 -->
<g id="node3" class="node">
<title>Node3</title>
<g id="a_node3"><a xlink:href="classsciplot_1_1FontSpecsOf.html" target="_top" xlink:title="The class used to attach font options to a type.">
<polygon fill="white" stroke="black" points="161.5,-76.5 161.5,-95.5 314.5,-95.5 314.5,-76.5 161.5,-76.5"/>
<text text-anchor="middle" x="238" y="-83.5" font-family="Helvetica" font-size="10.00">FontSpecsOf&lt; DerivedSpecs &gt;</text>
</a>
</g>
</g>
<!-- Node3&#45;&gt;Node2 -->
<g id="edge2" class="edge">
<title>Node3&#45;&gt;Node2</title>
<path fill="none" stroke="midnightblue" d="M324.9,-86C335.68,-86 346.63,-86 357.23,-86"/>
<polygon fill="midnightblue" stroke="midnightblue" points="324.64,-82.5 314.64,-86 324.64,-89.5 324.64,-82.5"/>
</g>
<!-- Node4 -->
<g id="node4" class="node">
<title>Node4</title>
<g id="a_node4"><a xlink:href="classsciplot_1_1Specs.html" target="_top" xlink:title="The base class for other specs classes (e.g., LineSpecsOf, DrawSpecs, BorderSpecs,...">
<polygon fill="white" stroke="black" points="0,-38.5 0,-57.5 123,-57.5 123,-38.5 0,-38.5"/>
<text text-anchor="middle" x="61.5" y="-45.5" font-family="Helvetica" font-size="10.00">Specs&lt; DerivedSpecs &gt;</text>
</a>
</g>
</g>
<!-- Node4&#45;&gt;Node3 -->
<g id="edge3" class="edge">
<title>Node4&#45;&gt;Node3</title>
<path fill="none" stroke="midnightblue" d="M116.47,-59.75C141.14,-65.13 169.99,-71.41 193.28,-76.48"/>
<polygon fill="midnightblue" stroke="midnightblue" points="117.05,-56.3 106.53,-57.59 115.56,-63.14 117.05,-56.3"/>
</g>
<!-- Node5 -->
<g id="node5" class="node">
<title>Node5</title>
<g id="a_node5"><a xlink:href="classsciplot_1_1OffsetSpecsOf.html" target="_top" xlink:title="The class used to attach offset options to a type.">
<polygon fill="white" stroke="black" points="353,-38.5 353,-57.5 514,-57.5 514,-38.5 353,-38.5"/>
<text text-anchor="middle" x="433.5" y="-45.5" font-family="Helvetica" font-size="10.00">OffsetSpecsOf&lt; DerivedSpecs &gt;</text>
</a>
</g>
</g>
<!-- Node4&#45;&gt;Node5 -->
<g id="edge5" class="edge">
<title>Node4&#45;&gt;Node5</title>
<path fill="none" stroke="midnightblue" d="M133.38,-48C196.07,-48 287.46,-48 352.7,-48"/>
<polygon fill="midnightblue" stroke="midnightblue" points="133.18,-44.5 123.18,-48 133.18,-51.5 133.18,-44.5"/>
</g>
<!-- Node6 -->
<g id="node6" class="node">
<title>Node6</title>
<g id="a_node6"><a xlink:href="classsciplot_1_1ShowSpecsOf.html" target="_top" xlink:title="The class used to attach visibility options to a type.">
<polygon fill="white" stroke="black" points="159,-0.5 159,-19.5 317,-19.5 317,-0.5 159,-0.5"/>
<text text-anchor="middle" x="238" y="-7.5" font-family="Helvetica" font-size="10.00">ShowSpecsOf&lt; DerivedSpecs &gt;</text>
</a>
</g>
</g>
<!-- Node4&#45;&gt;Node6 -->
<g id="edge7" class="edge">
<title>Node4&#45;&gt;Node6</title>
<path fill="none" stroke="midnightblue" d="M116.47,-36.25C141.14,-30.87 169.99,-24.59 193.28,-19.52"/>
<polygon fill="midnightblue" stroke="midnightblue" points="115.56,-32.86 106.53,-38.41 117.05,-39.7 115.56,-32.86"/>
</g>
<!-- Node5&#45;&gt;Node1 -->
<g id="edge4" class="edge">
<title>Node5&#45;&gt;Node1</title>
<path fill="none" stroke="midnightblue" d="M524.27,-48C532.89,-48 541.52,-48 549.88,-48"/>
<polygon fill="midnightblue" stroke="midnightblue" points="524.19,-44.5 514.19,-48 524.19,-51.5 524.19,-44.5"/>
</g>
<!-- Node6&#45;&gt;Node1 -->
<g id="edge6" class="edge">
<title>Node6&#45;&gt;Node1</title>
<path fill="none" stroke="midnightblue" d="M327.4,-13.59C381.44,-16.41 451.88,-21.2 514,-29 525.66,-30.46 537.98,-32.38 549.92,-34.44"/>
<polygon fill="midnightblue" stroke="midnightblue" points="327.33,-10.09 317.16,-13.07 326.97,-17.08 327.33,-10.09"/>
</g>
</g>
</svg>
