<?xml version="1.0" encoding="UTF-8" standalone="no"?>
<!DOCTYPE svg PUBLIC "-//W3C//DTD SVG 1.1//EN"
 "http://www.w3.org/Graphics/SVG/1.1/DTD/svg11.dtd">
<!-- Generated by graphviz version 6.0.1 (20220911.2005)
 -->
<!-- Title: TicsSpecs Pages: 1 -->
<svg width="433pt" height="252pt"
 viewBox="0.00 0.00 433.00 252.00" xmlns="http://www.w3.org/2000/svg" xmlns:xlink="http://www.w3.org/1999/xlink">
<g id="graph0" class="graph" transform="scale(1 1) rotate(0) translate(4 248)">
<title>TicsSpecs</title>
<polygon fill="white" stroke="none" points="-4,4 -4,-248 429,-248 429,4 -4,4"/>
<!-- Node1 -->
<g id="node1" class="node">
<title>Node1</title>
<g id="a_node1"><a xlink:title="The class used to specify options for tics.">
<polygon fill="#bfbfbf" stroke="black" points="211,-0.5 211,-19.5 276,-19.5 276,-0.5 211,-0.5"/>
<text text-anchor="middle" x="243.5" y="-7.5" font-family="Helvetica,sans-Serif" font-size="10.00">TicsSpecs</text>
</a>
</g>
</g>
<!-- Node2 -->
<g id="node2" class="node">
<title>Node2</title>
<g id="a_node2"><a xlink:href="classsciplot_1_1TicsSpecsBaseOf.html" target="_top" xlink:title=" ">
<polygon fill="white" stroke="black" points="158.5,-56.5 158.5,-75.5 328.5,-75.5 328.5,-56.5 158.5,-56.5"/>
<text text-anchor="middle" x="243.5" y="-63.5" font-family="Helvetica,sans-Serif" font-size="10.00">TicsSpecsBaseOf&lt; TicsSpecs &gt;</text>
</a>
</g>
</g>
<!-- Node2&#45;&gt;Node1 -->
<g id="edge1" class="edge">
<title>Node2&#45;&gt;Node1</title>
<path fill="none" stroke="midnightblue" d="M243.5,-45.8C243.5,-36.91 243.5,-26.78 243.5,-19.75"/>
<polygon fill="midnightblue" stroke="midnightblue" points="240,-46.08 243.5,-56.08 247,-46.08 240,-46.08"/>
</g>
<!-- Node3 -->
<g id="node3" class="node">
<title>Node3</title>
<g id="a_node3"><a xlink:href="classsciplot_1_1TextSpecsOf.html" target="_top" xlink:title=" ">
<polygon fill="white" stroke="black" points="0,-112.5 0,-131.5 147,-131.5 147,-112.5 0,-112.5"/>
<text text-anchor="middle" x="73.5" y="-119.5" font-family="Helvetica,sans-Serif" font-size="10.00">TextSpecsOf&lt; TicsSpecs &gt;</text>
</a>
</g>
</g>
<!-- Node3&#45;&gt;Node2 -->
<g id="edge2" class="edge">
<title>Node3&#45;&gt;Node2</title>
<path fill="none" stroke="midnightblue" d="M110.32,-109.3C142.35,-99.13 188.02,-84.62 216.69,-75.52"/>
<polygon fill="midnightblue" stroke="midnightblue" points="108.91,-106.08 100.44,-112.44 111.03,-112.75 108.91,-106.08"/>
</g>
<!-- Node4 -->
<g id="node4" class="node">
<title>Node4</title>
<g id="a_node4"><a xlink:href="classsciplot_1_1FontSpecsOf.html" target="_top" xlink:title=" ">
<polygon fill="white" stroke="black" points="33.5,-168.5 33.5,-187.5 181.5,-187.5 181.5,-168.5 33.5,-168.5"/>
<text text-anchor="middle" x="107.5" y="-175.5" font-family="Helvetica,sans-Serif" font-size="10.00">FontSpecsOf&lt; TicsSpecs &gt;</text>
</a>
</g>
</g>
<!-- Node4&#45;&gt;Node3 -->
<g id="edge3" class="edge">
<title>Node4&#45;&gt;Node3</title>
<path fill="none" stroke="midnightblue" d="M96.52,-159.57C90.67,-150.27 83.73,-139.25 79.01,-131.75"/>
<polygon fill="midnightblue" stroke="midnightblue" points="93.6,-161.49 101.89,-168.08 99.52,-157.76 93.6,-161.49"/>
</g>
<!-- Node5 -->
<g id="node5" class="node">
<title>Node5</title>
<g id="a_node5"><a xlink:href="classsciplot_1_1Specs.html" target="_top" xlink:title=" ">
<polygon fill="white" stroke="black" points="185.5,-224.5 185.5,-243.5 301.5,-243.5 301.5,-224.5 185.5,-224.5"/>
<text text-anchor="middle" x="243.5" y="-231.5" font-family="Helvetica,sans-Serif" font-size="10.00">Specs&lt; TicsSpecs &gt;</text>
</a>
</g>
</g>
<!-- Node5&#45;&gt;Node4 -->
<g id="edge4" class="edge">
<title>Node5&#45;&gt;Node4</title>
<path fill="none" stroke="midnightblue" d="M212.37,-220.64C186.84,-210.5 151.39,-196.43 128.95,-187.52"/>
<polygon fill="midnightblue" stroke="midnightblue" points="211.36,-224.01 221.95,-224.44 213.95,-217.5 211.36,-224.01"/>
</g>
<!-- Node6 -->
<g id="node6" class="node">
<title>Node6</title>
<g id="a_node6"><a xlink:href="classsciplot_1_1OffsetSpecsOf.html" target="_top" xlink:title=" ">
<polygon fill="white" stroke="black" points="165.5,-112.5 165.5,-131.5 321.5,-131.5 321.5,-112.5 165.5,-112.5"/>
<text text-anchor="middle" x="243.5" y="-119.5" font-family="Helvetica,sans-Serif" font-size="10.00">OffsetSpecsOf&lt; TicsSpecs &gt;</text>
</a>
</g>
</g>
<!-- Node5&#45;&gt;Node6 -->
<g id="edge6" class="edge">
<title>Node5&#45;&gt;Node6</title>
<path fill="none" stroke="midnightblue" d="M243.5,-214.35C243.5,-190.25 243.5,-149.31 243.5,-131.59"/>
<polygon fill="midnightblue" stroke="midnightblue" points="240,-214.37 243.5,-224.37 247,-214.37 240,-214.37"/>
</g>
<!-- Node7 -->
<g id="node7" class="node">
<title>Node7</title>
<g id="a_node7"><a xlink:href="classsciplot_1_1ShowSpecsOf.html" target="_top" xlink:title=" ">
<polygon fill="white" stroke="black" points="272,-168.5 272,-187.5 425,-187.5 425,-168.5 272,-168.5"/>
<text text-anchor="middle" x="348.5" y="-175.5" font-family="Helvetica,sans-Serif" font-size="10.00">ShowSpecsOf&lt; TicsSpecs &gt;</text>
</a>
</g>
</g>
<!-- Node5&#45;&gt;Node7 -->
<g id="edge8" class="edge">
<title>Node5&#45;&gt;Node7</title>
<path fill="none" stroke="midnightblue" d="M269.31,-219.73C288.75,-209.73 314.85,-196.31 331.67,-187.65"/>
<polygon fill="midnightblue" stroke="midnightblue" points="267.66,-216.64 260.37,-224.32 270.86,-222.86 267.66,-216.64"/>
</g>
<!-- Node6&#45;&gt;Node2 -->
<g id="edge5" class="edge">
<title>Node6&#45;&gt;Node2</title>
<path fill="none" stroke="midnightblue" d="M243.5,-101.8C243.5,-92.91 243.5,-82.78 243.5,-75.75"/>
<polygon fill="midnightblue" stroke="midnightblue" points="240,-102.08 243.5,-112.08 247,-102.08 240,-102.08"/>
</g>
<!-- Node7&#45;&gt;Node2 -->
<g id="edge7" class="edge">
<title>Node7&#45;&gt;Node2</title>
<path fill="none" stroke="midnightblue" d="M347.32,-158.43C345.56,-144.33 341.21,-125.2 330.5,-112 315.93,-94.04 292.28,-82.47 273.32,-75.56"/>
<polygon fill="midnightblue" stroke="midnightblue" points="343.84,-158.8 348.25,-168.44 350.81,-158.16 343.84,-158.8"/>
</g>
</g>
</svg>
