<?xml version="1.0" encoding="UTF-8" standalone="no"?>
<!DOCTYPE svg PUBLIC "-//W3C//DTD SVG 1.1//EN"
 "http://www.w3.org/Graphics/SVG/1.1/DTD/svg11.dtd">
<!-- Generated by graphviz version 7.0.5 (20221231.0122)
 -->
<!-- Title: TicsSpecsMajor Pages: 1 -->
<!--zoomable 113 -->
<svg id="main" version="1.1" xmlns="http://www.w3.org/2000/svg" xmlns:xlink="http://www.w3.org/1999/xlink" xml:space="preserve" onload="init(evt)">
<style type="text/css"><![CDATA[
.edge:hover path { stroke: red; }
.edge:hover polygon { stroke: red; fill: red; }
]]></style>
<script type="text/javascript"><![CDATA[
var edges = document.getElementsByTagName('g');
if (edges && edges.length) {
  for (var i=0;i<edges.length;i++) {
    if (edges[i].id.substr(0,4)=='edge') {
      edges[i].setAttribute('class','edge');
    }
  }
}
]]></script>
        <defs>
                <circle id="rim" cx="0" cy="0" r="7"/>
                <circle id="rim2" cx="0" cy="0" r="3.5"/>
                <g id="zoomPlus">
                        <use xlink:href="#rim" fill="#404040">
                                <set attributeName="fill" to="#808080" begin="zoomplus.mouseover" end="zoomplus.mouseout"/>
                        </use>
                        <path d="M-4,0h8M0,-4v8" fill="none" stroke="white" stroke-width="1.5" pointer-events="none"/>
                </g>
                <g id="zoomMin">
                        <use xlink:href="#rim" fill="#404040">
                                <set attributeName="fill" to="#808080" begin="zoomminus.mouseover" end="zoomminus.mouseout"/>
                        </use>
                        <path d="M-4,0h8" fill="none" stroke="white" stroke-width="1.5" pointer-events="none"/>
                </g>
                <g id="dirArrow">
                        <path fill="none" stroke="white" stroke-width="1.5" d="M0,-3.0v7 M-2.5,-0.5L0,-3.0L2.5,-0.5"/>
                </g>
               <g id="resetDef">
                       <use xlink:href="#rim2" fill="#404040">
                               <set attributeName="fill" to="#808080" begin="reset.mouseover" end="reset.mouseout"/>
                       </use>
               </g>
        </defs>

<script type="text/javascript">
var viewWidth = 902;
var viewHeight = 113;
var sectionId = 'dynsection-1';
</script>
<script xlink:href="svgpan.js"/>
<svg id="graph" class="graph">
<g id="viewport">
<title>TicsSpecsMajor</title>
<polygon fill="white" stroke="none" points="-4,4 -4,-109 898,-109 898,4 -4,4"/>
<!-- Node1 -->
<g id="node1" class="node">
<title>Node1</title>
<g id="a_node1"><a xlink:title="The class used to specify options for major tics of a specific axis.">
<polygon fill="#bfbfbf" stroke="black" points="802,-41.5 802,-60.5 894,-60.5 894,-41.5 802,-41.5"/>
<text text-anchor="middle" x="848" y="-48.5" font-family="Helvetica,sans-Serif" font-size="10.00">TicsSpecsMajor</text>
</a>
</g>
</g>
<!-- Node2 -->
<g id="node2" class="node">
<title>Node2</title>
<g id="a_node2"><a xlink:href="classsciplot_1_1TicsSpecsBaseOf.html" target="_top" xlink:title=" ">
<polygon fill="white" stroke="black" points="607,-36 607,-66 766,-66 766,-36 607,-36"/>
<text text-anchor="start" x="615" y="-54" font-family="Helvetica,sans-Serif" font-size="10.00">TicsSpecsBaseOf&lt; TicsSpecs</text>
<text text-anchor="middle" x="686.5" y="-43" font-family="Helvetica,sans-Serif" font-size="10.00">Major &gt;</text>
</a>
</g>
</g>
<!-- Node2&#45;&gt;Node1 -->
<g id="edge1" class="edge">
<title>Node2&#45;&gt;Node1</title>
<path fill="none" stroke="midnightblue" d="M777.2,-51C785.8,-51 794.24,-51 802.11,-51"/>
<polygon fill="midnightblue" stroke="midnightblue" points="777.36,-47.5 767.36,-51 777.36,-54.5 777.36,-47.5"/>
</g>
<!-- Node3 -->
<g id="node3" class="node">
<title>Node3</title>
<g id="a_node3"><a xlink:href="classsciplot_1_1TextSpecsOf.html" target="_top" xlink:title=" ">
<polygon fill="white" stroke="black" points="396,-85.5 396,-104.5 571,-104.5 571,-85.5 396,-85.5"/>
<text text-anchor="middle" x="483.5" y="-92.5" font-family="Helvetica,sans-Serif" font-size="10.00">TextSpecsOf&lt; TicsSpecsMajor &gt;</text>
</a>
</g>
</g>
<!-- Node3&#45;&gt;Node2 -->
<g id="edge2" class="edge">
<title>Node3&#45;&gt;Node2</title>
<path fill="none" stroke="midnightblue" d="M538.72,-83.13C562.86,-77.85 591.56,-71.56 617.15,-65.96"/>
<polygon fill="midnightblue" stroke="midnightblue" points="538.12,-79.68 529.1,-85.24 539.62,-86.52 538.12,-79.68"/>
</g>
<!-- Node4 -->
<g id="node4" class="node">
<title>Node4</title>
<g id="a_node4"><a xlink:href="classsciplot_1_1FontSpecsOf.html" target="_top" xlink:title=" ">
<polygon fill="white" stroke="black" points="181.5,-82.5 181.5,-101.5 357.5,-101.5 357.5,-82.5 181.5,-82.5"/>
<text text-anchor="middle" x="269.5" y="-89.5" font-family="Helvetica,sans-Serif" font-size="10.00">FontSpecsOf&lt; TicsSpecsMajor &gt;</text>
</a>
</g>
</g>
<!-- Node4&#45;&gt;Node3 -->
<g id="edge3" class="edge">
<title>Node4&#45;&gt;Node3</title>
<path fill="none" stroke="midnightblue" d="M368.83,-93.39C377.95,-93.52 387.14,-93.65 396.14,-93.78"/>
<polygon fill="midnightblue" stroke="midnightblue" points="368.9,-89.89 358.85,-93.25 368.8,-96.89 368.9,-89.89"/>
</g>
<!-- Node5 -->
<g id="node5" class="node">
<title>Node5</title>
<g id="a_node5"><a xlink:href="classsciplot_1_1Specs.html" target="_top" xlink:title=" ">
<polygon fill="white" stroke="black" points="0,-41.5 0,-60.5 143,-60.5 143,-41.5 0,-41.5"/>
<text text-anchor="middle" x="71.5" y="-48.5" font-family="Helvetica,sans-Serif" font-size="10.00">Specs&lt; TicsSpecsMajor &gt;</text>
</a>
</g>
</g>
<!-- Node5&#45;&gt;Node4 -->
<g id="edge4" class="edge">
<title>Node5&#45;&gt;Node4</title>
<path fill="none" stroke="midnightblue" d="M128.64,-62.74C158.69,-69.03 195.22,-76.67 223.4,-82.57"/>
<polygon fill="midnightblue" stroke="midnightblue" points="129.45,-59.34 118.95,-60.72 128.02,-66.19 129.45,-59.34"/>
</g>
<!-- Node6 -->
<g id="node6" class="node">
<title>Node6</title>
<g id="a_node6"><a xlink:href="classsciplot_1_1OffsetSpecsOf.html" target="_top" xlink:title=" ">
<polygon fill="white" stroke="black" points="411,-36 411,-66 556,-66 556,-36 411,-36"/>
<text text-anchor="start" x="419" y="-54" font-family="Helvetica,sans-Serif" font-size="10.00">OffsetSpecsOf&lt; TicsSpecs</text>
<text text-anchor="middle" x="483.5" y="-43" font-family="Helvetica,sans-Serif" font-size="10.00">Major &gt;</text>
</a>
</g>
</g>
<!-- Node5&#45;&gt;Node6 -->
<g id="edge6" class="edge">
<title>Node5&#45;&gt;Node6</title>
<path fill="none" stroke="midnightblue" d="M154.26,-51C229.38,-51 339.61,-51 411.22,-51"/>
<polygon fill="midnightblue" stroke="midnightblue" points="154.5,-47.5 144.5,-51 154.5,-54.5 154.5,-47.5"/>
</g>
<!-- Node7 -->
<g id="node7" class="node">
<title>Node7</title>
<g id="a_node7"><a xlink:href="classsciplot_1_1ShowSpecsOf.html" target="_top" xlink:title=" ">
<polygon fill="white" stroke="black" points="179,-0.5 179,-19.5 360,-19.5 360,-0.5 179,-0.5"/>
<text text-anchor="middle" x="269.5" y="-7.5" font-family="Helvetica,sans-Serif" font-size="10.00">ShowSpecsOf&lt; TicsSpecsMajor &gt;</text>
</a>
</g>
</g>
<!-- Node5&#45;&gt;Node7 -->
<g id="edge8" class="edge">
<title>Node5&#45;&gt;Node7</title>
<path fill="none" stroke="midnightblue" d="M128.64,-39.26C158.69,-32.97 195.22,-25.33 223.4,-19.43"/>
<polygon fill="midnightblue" stroke="midnightblue" points="128.02,-35.81 118.95,-41.28 129.45,-42.66 128.02,-35.81"/>
</g>
<!-- Node6&#45;&gt;Node2 -->
<g id="edge5" class="edge">
<title>Node6&#45;&gt;Node2</title>
<path fill="none" stroke="midnightblue" d="M567.36,-51C580.51,-51 594.08,-51 607.13,-51"/>
<polygon fill="midnightblue" stroke="midnightblue" points="567.44,-47.5 557.44,-51 567.44,-54.5 567.44,-47.5"/>
</g>
<!-- Node7&#45;&gt;Node2 -->
<g id="edge7" class="edge">
<title>Node7&#45;&gt;Node2</title>
<path fill="none" stroke="midnightblue" d="M371.41,-11.31C429.91,-13.08 504.87,-17.08 571,-26 588.95,-28.42 608.25,-32.18 625.81,-36.05"/>
<polygon fill="midnightblue" stroke="midnightblue" points="371.54,-7.81 361.45,-11.02 371.35,-14.81 371.54,-7.81"/>
</g>
</g>
</svg>
        <g id="navigator" transform="translate(0 0)" fill="#404254">
                <rect fill="#f2f5e9" fill-opacity="0.5" stroke="#606060" stroke-width=".5" x="0" y="0" width="60" height="60"/>
                <use id="zoomplus" xlink:href="#zoomPlus" x="17" y="9" onmousedown="handleZoom(evt,'in')"/>
                <use id="zoomminus" xlink:href="#zoomMin" x="42" y="9" onmousedown="handleZoom(evt,'out')"/>
                <use id="reset" xlink:href="#resetDef" x="30" y="36" onmousedown="handleReset()"/>
                <g id="arrowUp" xlink:href="#dirArrow" transform="translate(30 24)" onmousedown="handlePan(0,-1)">
                  <use xlink:href="#rim" fill="#404040">
                        <set attributeName="fill" to="#808080" begin="arrowUp.mouseover" end="arrowUp.mouseout"/>
                  </use>
                  <path fill="none" stroke="white" stroke-width="1.5" d="M0,-3.0v7 M-2.5,-0.5L0,-3.0L2.5,-0.5"/>
                </g>
                <g id="arrowRight" xlink:href="#dirArrow" transform="rotate(90) translate(36 -43)" onmousedown="handlePan(1,0)">
                  <use xlink:href="#rim" fill="#404040">
                        <set attributeName="fill" to="#808080" begin="arrowRight.mouseover" end="arrowRight.mouseout"/>
                  </use>
                  <path fill="none" stroke="white" stroke-width="1.5" d="M0,-3.0v7 M-2.5,-0.5L0,-3.0L2.5,-0.5"/>
                </g>
                <g id="arrowDown" xlink:href="#dirArrow" transform="rotate(180) translate(-30 -48)" onmousedown="handlePan(0,1)">
                  <use xlink:href="#rim" fill="#404040">
                        <set attributeName="fill" to="#808080" begin="arrowDown.mouseover" end="arrowDown.mouseout"/>
                  </use>
                  <path fill="none" stroke="white" stroke-width="1.5" d="M0,-3.0v7 M-2.5,-0.5L0,-3.0L2.5,-0.5"/>
                </g>
                <g id="arrowLeft" xlink:href="#dirArrow" transform="rotate(270) translate(-36 17)" onmousedown="handlePan(-1,0)">
                  <use xlink:href="#rim" fill="#404040">
                        <set attributeName="fill" to="#808080" begin="arrowLeft.mouseover" end="arrowLeft.mouseout"/>
                  </use>
                  <path fill="none" stroke="white" stroke-width="1.5" d="M0,-3.0v7 M-2.5,-0.5L0,-3.0L2.5,-0.5"/>
                </g>
        </g>
        <svg viewBox="0 0 15 15" width="100%" height="30px" preserveAspectRatio="xMaxYMin meet">
         <g id="arrow_out" transform="scale(0.3 0.3)">
          <a xlink:href="classsciplot_1_1TicsSpecsMajor__coll__graph_org.svg" target="_base">
           <rect id="button" ry="5" rx="5" y="6" x="6" height="38" width="38"
                fill="#f2f5e9" fill-opacity="0.5" stroke="#606060" stroke-width="1.0"/>
           <path id="arrow"
             d="M 11.500037,31.436501 C 11.940474,20.09759 22.043105,11.32322 32.158766,21.979434 L 37.068811,17.246167 C 37.068811,17.246167 37.088388,32 37.088388,32 L 22.160133,31.978069 C 22.160133,31.978069 26.997745,27.140456 26.997745,27.140456 C 18.528582,18.264221 13.291696,25.230495 11.500037,31.436501 z"
             style="fill:#404040;"/>
          </a>
         </g>
        </svg>
</svg>
