<?xml version="1.0" encoding="UTF-8" standalone="no"?>
<!DOCTYPE svg PUBLIC "-//W3C//DTD SVG 1.1//EN"
 "http://www.w3.org/Graphics/SVG/1.1/DTD/svg11.dtd">
<!-- Generated by graphviz version 2.47.2 (20210527.1257)
 -->
<!-- Title: PlotBase Pages: 1 -->
<svg width="1115pt" height="850pt"
 viewBox="0.00 0.00 1115.00 850.00" xmlns="http://www.w3.org/2000/svg" xmlns:xlink="http://www.w3.org/1999/xlink">
<g id="graph0" class="graph" transform="scale(1 1) rotate(0) translate(4 846)">
<title>PlotBase</title>
<polygon fill="white" stroke="transparent" points="-4,4 -4,-846 1111,-846 1111,4 -4,4"/>
<!-- Node1 -->
<g id="node1" class="node">
<title>Node1</title>
<g id="a_node1"><a xlink:title="The class used to create a plot containing graphical elements.">
<polygon fill="#bfbfbf" stroke="black" points="1051,-421.5 1051,-440.5 1107,-440.5 1107,-421.5 1051,-421.5"/>
<text text-anchor="middle" x="1079" y="-428.5" font-family="Helvetica" font-size="10.00">PlotBase</text>
</a>
</g>
</g>
<!-- Node2 -->
<g id="node2" class="node">
<title>Node2</title>
<g id="a_node2"><a xlink:href="classsciplot_1_1BorderSpecs.html" target="_top" xlink:title="The class used to specify options for plot border.">
<polygon fill="white" stroke="black" points="805,-784.5 805,-803.5 878,-803.5 878,-784.5 805,-784.5"/>
<text text-anchor="middle" x="841.5" y="-791.5" font-family="Helvetica" font-size="10.00">BorderSpecs</text>
</a>
</g>
</g>
<!-- Node2&#45;&gt;Node1 -->
<g id="edge1" class="edge">
<title>Node2&#45;&gt;Node1</title>
<path fill="none" stroke="#9a32cd" stroke-dasharray="5,2" d="M888.22,-798.04C931.91,-799.18 996.38,-793.22 1033,-754 1076.86,-707.03 1078.32,-489.39 1078.09,-440.69"/>
<polygon fill="#9a32cd" stroke="#9a32cd" points="888.27,-794.54 878.14,-797.65 887.99,-801.54 888.27,-794.54"/>
<text text-anchor="middle" x="983" y="-799" font-family="Helvetica" font-size="10.00"> m_border</text>
</g>
<!-- Node3 -->
<g id="node3" class="node">
<title>Node3</title>
<g id="a_node3"><a xlink:href="classsciplot_1_1LineSpecsOf.html" target="_top" xlink:title=" ">
<polygon fill="white" stroke="black" points="532,-822.5 532,-841.5 679,-841.5 679,-822.5 532,-822.5"/>
<text text-anchor="middle" x="605.5" y="-829.5" font-family="Helvetica" font-size="10.00">LineSpecsOf&lt; BorderSpecs &gt;</text>
</a>
</g>
</g>
<!-- Node3&#45;&gt;Node2 -->
<g id="edge2" class="edge">
<title>Node3&#45;&gt;Node2</title>
<path fill="none" stroke="midnightblue" d="M675.24,-820.84C717.68,-813.95 770.39,-805.39 804.71,-799.81"/>
<polygon fill="midnightblue" stroke="midnightblue" points="674.56,-817.4 665.25,-822.46 675.68,-824.31 674.56,-817.4"/>
</g>
<!-- Node4 -->
<g id="node4" class="node">
<title>Node4</title>
<g id="a_node4"><a xlink:href="classsciplot_1_1Specs.html" target="_top" xlink:title=" ">
<polygon fill="white" stroke="black" points="183,-822.5 183,-841.5 302,-841.5 302,-822.5 183,-822.5"/>
<text text-anchor="middle" x="242.5" y="-829.5" font-family="Helvetica" font-size="10.00">Specs&lt; BorderSpecs &gt;</text>
</a>
</g>
</g>
<!-- Node4&#45;&gt;Node3 -->
<g id="edge3" class="edge">
<title>Node4&#45;&gt;Node3</title>
<path fill="none" stroke="midnightblue" d="M312.51,-832C375.32,-832 467.73,-832 531.7,-832"/>
<polygon fill="midnightblue" stroke="midnightblue" points="312.3,-828.5 302.3,-832 312.3,-835.5 312.3,-828.5"/>
</g>
<!-- Node5 -->
<g id="node5" class="node">
<title>Node5</title>
<g id="a_node5"><a xlink:href="classsciplot_1_1DepthSpecsOf.html" target="_top" xlink:title=" ">
<polygon fill="white" stroke="black" points="528,-784.5 528,-803.5 683,-803.5 683,-784.5 528,-784.5"/>
<text text-anchor="middle" x="605.5" y="-791.5" font-family="Helvetica" font-size="10.00">DepthSpecsOf&lt; BorderSpecs &gt;</text>
</a>
</g>
</g>
<!-- Node4&#45;&gt;Node5 -->
<g id="edge5" class="edge">
<title>Node4&#45;&gt;Node5</title>
<path fill="none" stroke="midnightblue" d="M312.31,-824.76C373.85,-818.28 463.94,-808.8 527.79,-802.08"/>
<polygon fill="midnightblue" stroke="midnightblue" points="311.88,-821.28 302.3,-825.81 312.62,-828.24 311.88,-821.28"/>
</g>
<!-- Node5&#45;&gt;Node2 -->
<g id="edge4" class="edge">
<title>Node5&#45;&gt;Node2</title>
<path fill="none" stroke="midnightblue" d="M693.33,-794C731.88,-794 775.11,-794 804.69,-794"/>
<polygon fill="midnightblue" stroke="midnightblue" points="693.12,-790.5 683.12,-794 693.12,-797.5 693.12,-790.5"/>
</g>
<!-- Node6 -->
<g id="node6" class="node">
<title>Node6</title>
<g id="a_node6"><a xlink:title=" ">
<polygon fill="white" stroke="#bfbfbf" points="768,-746.5 768,-765.5 915,-765.5 915,-746.5 768,-746.5"/>
<text text-anchor="middle" x="841.5" y="-753.5" font-family="Helvetica" font-size="10.00">vector&lt; sciplot::DrawSpecs &gt;</text>
</a>
</g>
</g>
<!-- Node6&#45;&gt;Node1 -->
<g id="edge6" class="edge">
<title>Node6&#45;&gt;Node1</title>
<path fill="none" stroke="#9a32cd" stroke-dasharray="5,2" d="M913.11,-744.55C960.41,-735.41 1016.86,-721.14 1033,-703 1068.71,-662.86 1076.4,-483.94 1077.75,-440.52"/>
<polygon fill="#9a32cd" stroke="#9a32cd" points="912.35,-741.14 903.17,-746.43 913.65,-748.01 912.35,-741.14"/>
<text text-anchor="middle" x="983" y="-742" font-family="Helvetica" font-size="10.00"> m_drawspecs</text>
</g>
<!-- Node7 -->
<g id="node7" class="node">
<title>Node7</title>
<g id="a_node7"><a xlink:href="classsciplot_1_1DrawSpecs.html" target="_top" xlink:title="The class where options for the plotted element can be specified.">
<polygon fill="white" stroke="black" points="571.5,-746.5 571.5,-765.5 639.5,-765.5 639.5,-746.5 571.5,-746.5"/>
<text text-anchor="middle" x="605.5" y="-753.5" font-family="Helvetica" font-size="10.00">DrawSpecs</text>
</a>
</g>
</g>
<!-- Node7&#45;&gt;Node6 -->
<g id="edge7" class="edge">
<title>Node7&#45;&gt;Node6</title>
<path fill="none" stroke="#9a32cd" stroke-dasharray="5,2" d="M649.75,-756C682.75,-756 728.97,-756 767.64,-756"/>
<polygon fill="#9a32cd" stroke="#9a32cd" points="649.53,-752.5 639.53,-756 649.53,-759.5 649.53,-752.5"/>
<text text-anchor="middle" x="728.5" y="-759" font-family="Helvetica" font-size="10.00"> elements</text>
</g>
<!-- Node8 -->
<g id="node8" class="node">
<title>Node8</title>
<g id="a_node8"><a xlink:href="classsciplot_1_1LineSpecsOf.html" target="_top" xlink:title=" ">
<polygon fill="white" stroke="black" points="171.5,-784.5 171.5,-803.5 313.5,-803.5 313.5,-784.5 171.5,-784.5"/>
<text text-anchor="middle" x="242.5" y="-791.5" font-family="Helvetica" font-size="10.00">LineSpecsOf&lt; DrawSpecs &gt;</text>
</a>
</g>
</g>
<!-- Node8&#45;&gt;Node7 -->
<g id="edge8" class="edge">
<title>Node8&#45;&gt;Node7</title>
<path fill="none" stroke="midnightblue" d="M323.82,-786.39C375.34,-781.41 443.64,-774.61 504,-768 526.53,-765.53 551.88,-762.5 571.48,-760.11"/>
<polygon fill="midnightblue" stroke="midnightblue" points="323.36,-782.92 313.75,-787.36 324.04,-789.88 323.36,-782.92"/>
</g>
<!-- Node9 -->
<g id="node9" class="node">
<title>Node9</title>
<g id="a_node9"><a xlink:href="classsciplot_1_1Specs.html" target="_top" xlink:title=" ">
<polygon fill="white" stroke="black" points="4.5,-726.5 4.5,-745.5 117.5,-745.5 117.5,-726.5 4.5,-726.5"/>
<text text-anchor="middle" x="61" y="-733.5" font-family="Helvetica" font-size="10.00">Specs&lt; DrawSpecs &gt;</text>
</a>
</g>
</g>
<!-- Node9&#45;&gt;Node8 -->
<g id="edge9" class="edge">
<title>Node9&#45;&gt;Node8</title>
<path fill="none" stroke="midnightblue" d="M92.51,-749.69C111.39,-757.81 136.29,-767.87 159,-775 170.22,-778.52 182.48,-781.7 194.04,-784.4"/>
<polygon fill="midnightblue" stroke="midnightblue" points="93.79,-746.43 83.23,-745.65 91,-752.85 93.79,-746.43"/>
</g>
<!-- Node10 -->
<g id="node10" class="node">
<title>Node10</title>
<g id="a_node10"><a xlink:href="classsciplot_1_1PointSpecsOf.html" target="_top" xlink:title=" ">
<polygon fill="white" stroke="black" points="169.5,-746.5 169.5,-765.5 315.5,-765.5 315.5,-746.5 169.5,-746.5"/>
<text text-anchor="middle" x="242.5" y="-753.5" font-family="Helvetica" font-size="10.00">PointSpecsOf&lt; DrawSpecs &gt;</text>
</a>
</g>
</g>
<!-- Node9&#45;&gt;Node10 -->
<g id="edge11" class="edge">
<title>Node9&#45;&gt;Node10</title>
<path fill="none" stroke="midnightblue" d="M127.91,-743.34C141.35,-744.84 155.55,-746.42 169.2,-747.94"/>
<polygon fill="midnightblue" stroke="midnightblue" points="128.14,-739.85 117.81,-742.22 127.36,-746.8 128.14,-739.85"/>
</g>
<!-- Node11 -->
<g id="node11" class="node">
<title>Node11</title>
<g id="a_node11"><a xlink:href="classsciplot_1_1FillSpecsOf.html" target="_top" xlink:title=" ">
<polygon fill="white" stroke="black" points="174,-708.5 174,-727.5 311,-727.5 311,-708.5 174,-708.5"/>
<text text-anchor="middle" x="242.5" y="-715.5" font-family="Helvetica" font-size="10.00">FillSpecsOf&lt; DrawSpecs &gt;</text>
</a>
</g>
</g>
<!-- Node9&#45;&gt;Node11 -->
<g id="edge13" class="edge">
<title>Node9&#45;&gt;Node11</title>
<path fill="none" stroke="midnightblue" d="M127.96,-729.39C142.88,-727.89 158.74,-726.3 173.73,-724.8"/>
<polygon fill="midnightblue" stroke="midnightblue" points="127.41,-725.92 117.81,-730.4 128.11,-732.89 127.41,-725.92"/>
</g>
<!-- Node12 -->
<g id="node12" class="node">
<title>Node12</title>
<g id="a_node12"><a xlink:href="classsciplot_1_1FilledCurvesSpecsOf.html" target="_top" xlink:title=" ">
<polygon fill="white" stroke="black" points="187.5,-659 187.5,-689 297.5,-689 297.5,-659 187.5,-659"/>
<text text-anchor="start" x="195.5" y="-677" font-family="Helvetica" font-size="10.00">FilledCurvesSpecsOf</text>
<text text-anchor="middle" x="242.5" y="-666" font-family="Helvetica" font-size="10.00">&lt; DrawSpecs &gt;</text>
</a>
</g>
</g>
<!-- Node9&#45;&gt;Node12 -->
<g id="edge15" class="edge">
<title>Node9&#45;&gt;Node12</title>
<path fill="none" stroke="midnightblue" d="M95.26,-722.65C113.88,-715.34 137.6,-706.31 159,-699 168.91,-695.61 179.57,-692.21 189.83,-689.05"/>
<polygon fill="midnightblue" stroke="midnightblue" points="93.76,-719.48 85.75,-726.41 96.33,-725.99 93.76,-719.48"/>
</g>
<!-- Node10&#45;&gt;Node7 -->
<g id="edge10" class="edge">
<title>Node10&#45;&gt;Node7</title>
<path fill="none" stroke="midnightblue" d="M325.94,-756C403.69,-756 516.3,-756 571.49,-756"/>
<polygon fill="midnightblue" stroke="midnightblue" points="325.69,-752.5 315.69,-756 325.69,-759.5 325.69,-752.5"/>
</g>
<!-- Node11&#45;&gt;Node7 -->
<g id="edge12" class="edge">
<title>Node11&#45;&gt;Node7</title>
<path fill="none" stroke="midnightblue" d="M321.63,-726.22C399.3,-734.4 514.75,-746.55 571.11,-752.49"/>
<polygon fill="midnightblue" stroke="midnightblue" points="321.71,-722.71 311.4,-725.15 320.98,-729.68 321.71,-722.71"/>
</g>
<!-- Node12&#45;&gt;Node7 -->
<g id="edge14" class="edge">
<title>Node12&#45;&gt;Node7</title>
<path fill="none" stroke="midnightblue" d="M307.79,-679.47C361.8,-685.72 440.15,-698.7 504,-725 512.89,-728.66 513.17,-733.19 522,-737 537.52,-743.69 555.75,-748.21 571.11,-751.15"/>
<polygon fill="midnightblue" stroke="midnightblue" points="307.99,-675.97 297.67,-678.34 307.22,-682.93 307.99,-675.97"/>
</g>
<!-- Node13 -->
<g id="node13" class="node">
<title>Node13</title>
<g id="a_node13"><a xlink:href="classsciplot_1_1HistogramStyleSpecs.html" target="_top" xlink:title="The class used to specify histogram style options.">
<polygon fill="white" stroke="black" points="785.5,-708.5 785.5,-727.5 897.5,-727.5 897.5,-708.5 785.5,-708.5"/>
<text text-anchor="middle" x="841.5" y="-715.5" font-family="Helvetica" font-size="10.00">HistogramStyleSpecs</text>
</a>
</g>
</g>
<!-- Node13&#45;&gt;Node1 -->
<g id="edge16" class="edge">
<title>Node13&#45;&gt;Node1</title>
<path fill="none" stroke="#9a32cd" stroke-dasharray="5,2" d="M891.43,-705.44C935.82,-691.35 999.31,-663.94 1033,-616 1073.11,-558.94 1077.67,-470.26 1078.04,-440.85"/>
<polygon fill="#9a32cd" stroke="#9a32cd" points="890.25,-702.14 881.71,-708.41 892.29,-708.83 890.25,-702.14"/>
<text text-anchor="middle" x="983" y="-691" font-family="Helvetica" font-size="10.00"> m_style_histogram</text>
</g>
<!-- Node14 -->
<g id="node14" class="node">
<title>Node14</title>
<g id="a_node14"><a xlink:href="classsciplot_1_1Specs.html" target="_top" xlink:title=" ">
<polygon fill="white" stroke="black" points="526.5,-708.5 526.5,-727.5 684.5,-727.5 684.5,-708.5 526.5,-708.5"/>
<text text-anchor="middle" x="605.5" y="-715.5" font-family="Helvetica" font-size="10.00">Specs&lt; HistogramStyleSpecs &gt;</text>
</a>
</g>
</g>
<!-- Node14&#45;&gt;Node13 -->
<g id="edge17" class="edge">
<title>Node14&#45;&gt;Node13</title>
<path fill="none" stroke="midnightblue" d="M694.91,-718C725.25,-718 758.31,-718 785.25,-718"/>
<polygon fill="midnightblue" stroke="midnightblue" points="694.74,-714.5 684.74,-718 694.74,-721.5 694.74,-714.5"/>
</g>
<!-- Node15 -->
<g id="node15" class="node">
<title>Node15</title>
<g id="a_node15"><a xlink:title="STL class.">
<polygon fill="white" stroke="#bfbfbf" points="585,-592.5 585,-611.5 626,-611.5 626,-592.5 585,-592.5"/>
<text text-anchor="middle" x="605.5" y="-599.5" font-family="Helvetica" font-size="10.00">string</text>
</a>
</g>
</g>
<!-- Node15&#45;&gt;Node1 -->
<g id="edge18" class="edge">
<title>Node15&#45;&gt;Node1</title>
<path fill="none" stroke="#9a32cd" stroke-dasharray="5,2" d="M636.15,-603.01C727.75,-605.85 1001.91,-612.24 1033,-588 1056.93,-569.34 1072.3,-472.17 1076.7,-440.78"/>
<polygon fill="#9a32cd" stroke="#9a32cd" points="636.26,-599.51 626.16,-602.69 636.04,-606.51 636.26,-599.51"/>
<text text-anchor="middle" x="841.5" y="-685" font-family="Helvetica" font-size="10.00"> m_boxwidth</text>
<text text-anchor="middle" x="841.5" y="-674" font-family="Helvetica" font-size="10.00">m_data</text>
<text text-anchor="middle" x="841.5" y="-663" font-family="Helvetica" font-size="10.00">m_datafilename</text>
<text text-anchor="middle" x="841.5" y="-652" font-family="Helvetica" font-size="10.00">m_palette</text>
<text text-anchor="middle" x="841.5" y="-641" font-family="Helvetica" font-size="10.00">m_samples</text>
<text text-anchor="middle" x="841.5" y="-630" font-family="Helvetica" font-size="10.00">m_scriptfilename</text>
<text text-anchor="middle" x="841.5" y="-619" font-family="Helvetica" font-size="10.00">m_xrange</text>
<text text-anchor="middle" x="841.5" y="-608" font-family="Helvetica" font-size="10.00">m_yrange</text>
</g>
<!-- Node38 -->
<g id="node35" class="node">
<title>Node38</title>
<g id="a_node35"><a xlink:title=" ">
<polygon fill="white" stroke="#bfbfbf" points="789,-546.5 789,-565.5 894,-565.5 894,-546.5 789,-546.5"/>
<text text-anchor="middle" x="841.5" y="-553.5" font-family="Helvetica" font-size="10.00">vector&lt; std::string &gt;</text>
</a>
</g>
</g>
<!-- Node15&#45;&gt;Node38 -->
<g id="edge42" class="edge">
<title>Node15&#45;&gt;Node38</title>
<path fill="none" stroke="#9a32cd" stroke-dasharray="5,2" d="M636.03,-594.35C660.58,-588.05 693.59,-579.72 707,-577 733.9,-571.55 764.1,-566.69 788.96,-563.03"/>
<polygon fill="#9a32cd" stroke="#9a32cd" points="634.92,-591.02 626.11,-596.9 636.67,-597.8 634.92,-591.02"/>
<text text-anchor="middle" x="728.5" y="-580" font-family="Helvetica" font-size="10.00"> elements</text>
</g>
<!-- Node16 -->
<g id="node16" class="node">
<title>Node16</title>
<g id="a_node16"><a xlink:title="STL class.">
<polygon fill="white" stroke="#bfbfbf" points="189.5,-620.5 189.5,-639.5 295.5,-639.5 295.5,-620.5 189.5,-620.5"/>
<text text-anchor="middle" x="242.5" y="-627.5" font-family="Helvetica" font-size="10.00">basic_string&lt; char &gt;</text>
</a>
</g>
</g>
<!-- Node16&#45;&gt;Node15 -->
<g id="edge19" class="edge">
<title>Node16&#45;&gt;Node15</title>
<path fill="none" stroke="midnightblue" d="M305.72,-625.17C389.18,-618.7 532.89,-607.55 584.95,-603.52"/>
<polygon fill="midnightblue" stroke="midnightblue" points="305.31,-621.7 295.61,-625.96 305.85,-628.67 305.31,-621.7"/>
</g>
<!-- Node17 -->
<g id="node17" class="node">
<title>Node17</title>
<g id="a_node17"><a xlink:href="classsciplot_1_1TicsSpecsMinor.html" target="_top" xlink:title="The class used to specify options for minor tics of a specific axis.">
<polygon fill="white" stroke="black" points="798,-503.5 798,-522.5 885,-522.5 885,-503.5 798,-503.5"/>
<text text-anchor="middle" x="841.5" y="-510.5" font-family="Helvetica" font-size="10.00">TicsSpecsMinor</text>
</a>
</g>
</g>
<!-- Node17&#45;&gt;Node1 -->
<g id="edge20" class="edge">
<title>Node17&#45;&gt;Node1</title>
<path fill="none" stroke="#9a32cd" stroke-dasharray="5,2" d="M885.9,-500.6C900.79,-496.45 917.59,-491.9 933,-488 977.21,-476.81 991.67,-484.28 1033,-465 1046.13,-458.87 1059.12,-448.47 1067.74,-440.78"/>
<polygon fill="#9a32cd" stroke="#9a32cd" points="884.62,-497.32 875.93,-503.39 886.5,-504.06 884.62,-497.32"/>
<text text-anchor="middle" x="983" y="-546" font-family="Helvetica" font-size="10.00"> m_rtics_minor</text>
<text text-anchor="middle" x="983" y="-535" font-family="Helvetica" font-size="10.00">m_xtics_minor_bottom</text>
<text text-anchor="middle" x="983" y="-524" font-family="Helvetica" font-size="10.00">m_xtics_minor_top</text>
<text text-anchor="middle" x="983" y="-513" font-family="Helvetica" font-size="10.00">m_ytics_minor_left</text>
<text text-anchor="middle" x="983" y="-502" font-family="Helvetica" font-size="10.00">m_ytics_minor_right</text>
<text text-anchor="middle" x="983" y="-491" font-family="Helvetica" font-size="10.00">m_ztics_minor</text>
</g>
<!-- Node18 -->
<g id="node18" class="node">
<title>Node18</title>
<g id="a_node18"><a xlink:href="classsciplot_1_1ShowSpecsOf.html" target="_top" xlink:title=" ">
<polygon fill="white" stroke="black" points="522,-552.5 522,-571.5 689,-571.5 689,-552.5 522,-552.5"/>
<text text-anchor="middle" x="605.5" y="-559.5" font-family="Helvetica" font-size="10.00">ShowSpecsOf&lt; TicsSpecsMinor &gt;</text>
</a>
</g>
</g>
<!-- Node18&#45;&gt;Node17 -->
<g id="edge21" class="edge">
<title>Node18&#45;&gt;Node17</title>
<path fill="none" stroke="midnightblue" d="M661.89,-550.4C703.56,-541.68 759.83,-529.89 797.99,-521.9"/>
<polygon fill="midnightblue" stroke="midnightblue" points="660.97,-547.02 651.9,-552.49 662.4,-553.87 660.97,-547.02"/>
</g>
<!-- Node19 -->
<g id="node19" class="node">
<title>Node19</title>
<g id="a_node19"><a xlink:href="classsciplot_1_1Specs.html" target="_top" xlink:title=" ">
<polygon fill="white" stroke="black" points="176.5,-582.5 176.5,-601.5 308.5,-601.5 308.5,-582.5 176.5,-582.5"/>
<text text-anchor="middle" x="242.5" y="-589.5" font-family="Helvetica" font-size="10.00">Specs&lt; TicsSpecsMinor &gt;</text>
</a>
</g>
</g>
<!-- Node19&#45;&gt;Node18 -->
<g id="edge22" class="edge">
<title>Node19&#45;&gt;Node18</title>
<path fill="none" stroke="midnightblue" d="M318.93,-585.73C378.23,-580.8 460.75,-573.95 521.85,-568.87"/>
<polygon fill="midnightblue" stroke="midnightblue" points="318.55,-582.25 308.87,-586.57 319.13,-589.23 318.55,-582.25"/>
</g>
<!-- Node20 -->
<g id="node20" class="node">
<title>Node20</title>
<g id="a_node20"><a xlink:href="classsciplot_1_1AxisLabelSpecs.html" target="_top" xlink:title="The specifications for an axis label (e.g., xlabel, ylabel, etc.)">
<polygon fill="white" stroke="black" points="798,-455.5 798,-474.5 885,-474.5 885,-455.5 798,-455.5"/>
<text text-anchor="middle" x="841.5" y="-462.5" font-family="Helvetica" font-size="10.00">AxisLabelSpecs</text>
</a>
</g>
</g>
<!-- Node20&#45;&gt;Node1 -->
<g id="edge23" class="edge">
<title>Node20&#45;&gt;Node1</title>
<path fill="none" stroke="#9a32cd" stroke-dasharray="5,2" d="M871.99,-451.33C889.34,-444.03 911.95,-435.79 933,-432 973.51,-424.7 1021.42,-426.32 1050.75,-428.44"/>
<polygon fill="#9a32cd" stroke="#9a32cd" points="870.21,-448.29 862.43,-455.48 873,-454.71 870.21,-448.29"/>
<text text-anchor="middle" x="983" y="-457" font-family="Helvetica" font-size="10.00"> m_rlabel</text>
<text text-anchor="middle" x="983" y="-446" font-family="Helvetica" font-size="10.00">m_xlabel</text>
<text text-anchor="middle" x="983" y="-435" font-family="Helvetica" font-size="10.00">m_ylabel</text>
</g>
<!-- Node21 -->
<g id="node21" class="node">
<title>Node21</title>
<g id="a_node21"><a xlink:href="classsciplot_1_1TextSpecsOf.html" target="_top" xlink:title=" ">
<polygon fill="white" stroke="black" points="525,-509.5 525,-528.5 686,-528.5 686,-509.5 525,-509.5"/>
<text text-anchor="middle" x="605.5" y="-516.5" font-family="Helvetica" font-size="10.00">TextSpecsOf&lt; AxisLabelSpecs &gt;</text>
</a>
</g>
</g>
<!-- Node21&#45;&gt;Node20 -->
<g id="edge24" class="edge">
<title>Node21&#45;&gt;Node20</title>
<path fill="none" stroke="midnightblue" d="M657.66,-507.19C700.13,-497.39 759.75,-483.63 799.22,-474.53"/>
<polygon fill="midnightblue" stroke="midnightblue" points="656.75,-503.81 647.8,-509.47 658.33,-510.63 656.75,-503.81"/>
</g>
<!-- Node22 -->
<g id="node22" class="node">
<title>Node22</title>
<g id="a_node22"><a xlink:href="classsciplot_1_1FontSpecsOf.html" target="_top" xlink:title=" ">
<polygon fill="white" stroke="red" points="161.5,-544.5 161.5,-563.5 323.5,-563.5 323.5,-544.5 161.5,-544.5"/>
<text text-anchor="middle" x="242.5" y="-551.5" font-family="Helvetica" font-size="10.00">FontSpecsOf&lt; AxisLabelSpecs &gt;</text>
</a>
</g>
</g>
<!-- Node22&#45;&gt;Node21 -->
<g id="edge25" class="edge">
<title>Node22&#45;&gt;Node21</title>
<path fill="none" stroke="midnightblue" d="M333.8,-546.06C383.95,-541.56 447.46,-535.7 504,-530 510.81,-529.31 517.88,-528.58 524.97,-527.83"/>
<polygon fill="midnightblue" stroke="midnightblue" points="333.28,-542.6 323.63,-546.98 333.9,-549.57 333.28,-542.6"/>
</g>
<!-- Node24 -->
<g id="node23" class="node">
<title>Node24</title>
<g id="a_node23"><a xlink:href="classsciplot_1_1TicsSpecs.html" target="_top" xlink:title="The class used to specify options for tics.">
<polygon fill="white" stroke="black" points="810,-397.5 810,-416.5 873,-416.5 873,-397.5 810,-397.5"/>
<text text-anchor="middle" x="841.5" y="-404.5" font-family="Helvetica" font-size="10.00">TicsSpecs</text>
</a>
</g>
</g>
<!-- Node24&#45;&gt;Node1 -->
<g id="edge26" class="edge">
<title>Node24&#45;&gt;Node1</title>
<path fill="none" stroke="#9a32cd" stroke-dasharray="5,2" d="M883.1,-396.88C922.45,-388.96 983.32,-381.74 1033,-398 1047,-402.58 1060.24,-413.36 1068.68,-421.35"/>
<polygon fill="#9a32cd" stroke="#9a32cd" points="882.15,-393.51 873.09,-399.01 883.6,-400.35 882.15,-393.51"/>
<text text-anchor="middle" x="983" y="-401" font-family="Helvetica" font-size="10.00"> m_tics</text>
</g>
<!-- Node25 -->
<g id="node24" class="node">
<title>Node25</title>
<g id="a_node24"><a xlink:href="classsciplot_1_1TicsSpecsBaseOf.html" target="_top" xlink:title=" ">
<polygon fill="white" stroke="black" points="525.5,-449.5 525.5,-468.5 685.5,-468.5 685.5,-449.5 525.5,-449.5"/>
<text text-anchor="middle" x="605.5" y="-456.5" font-family="Helvetica" font-size="10.00">TicsSpecsBaseOf&lt; TicsSpecs &gt;</text>
</a>
</g>
</g>
<!-- Node25&#45;&gt;Node24 -->
<g id="edge27" class="edge">
<title>Node25&#45;&gt;Node24</title>
<path fill="none" stroke="midnightblue" d="M659.3,-447.27C705.68,-436.96 771.57,-422.32 809.79,-413.82"/>
<polygon fill="midnightblue" stroke="midnightblue" points="658.42,-443.88 649.42,-449.46 659.94,-450.71 658.42,-443.88"/>
</g>
<!-- Node26 -->
<g id="node25" class="node">
<title>Node26</title>
<g id="a_node25"><a xlink:href="classsciplot_1_1TextSpecsOf.html" target="_top" xlink:title=" ">
<polygon fill="white" stroke="red" points="174,-506.5 174,-525.5 311,-525.5 311,-506.5 174,-506.5"/>
<text text-anchor="middle" x="242.5" y="-513.5" font-family="Helvetica" font-size="10.00">TextSpecsOf&lt; TicsSpecs &gt;</text>
</a>
</g>
</g>
<!-- Node26&#45;&gt;Node25 -->
<g id="edge28" class="edge">
<title>Node26&#45;&gt;Node25</title>
<path fill="none" stroke="midnightblue" d="M321.38,-507.8C373.3,-501.85 442.97,-492.94 504,-482 524.79,-478.27 547.77,-473.1 566.5,-468.6"/>
<polygon fill="midnightblue" stroke="midnightblue" points="320.78,-504.34 311.24,-508.95 321.57,-511.3 320.78,-504.34"/>
</g>
<!-- Node29 -->
<g id="node26" class="node">
<title>Node29</title>
<g id="a_node26"><a xlink:href="classsciplot_1_1OffsetSpecsOf.html" target="_top" xlink:title=" ">
<polygon fill="white" stroke="red" points="170,-468.5 170,-487.5 315,-487.5 315,-468.5 170,-468.5"/>
<text text-anchor="middle" x="242.5" y="-475.5" font-family="Helvetica" font-size="10.00">OffsetSpecsOf&lt; TicsSpecs &gt;</text>
</a>
</g>
</g>
<!-- Node29&#45;&gt;Node25 -->
<g id="edge29" class="edge">
<title>Node29&#45;&gt;Node25</title>
<path fill="none" stroke="midnightblue" d="M325.43,-473.69C385.33,-470.54 466.12,-466.28 525.36,-463.17"/>
<polygon fill="midnightblue" stroke="midnightblue" points="325.06,-470.2 315.25,-474.22 325.42,-477.19 325.06,-470.2"/>
</g>
<!-- Node30 -->
<g id="node27" class="node">
<title>Node30</title>
<g id="a_node27"><a xlink:href="classsciplot_1_1ShowSpecsOf.html" target="_top" xlink:title=" ">
<polygon fill="white" stroke="red" points="171,-430.5 171,-449.5 314,-449.5 314,-430.5 171,-430.5"/>
<text text-anchor="middle" x="242.5" y="-437.5" font-family="Helvetica" font-size="10.00">ShowSpecsOf&lt; TicsSpecs &gt;</text>
</a>
</g>
</g>
<!-- Node30&#45;&gt;Node25 -->
<g id="edge30" class="edge">
<title>Node30&#45;&gt;Node25</title>
<path fill="none" stroke="midnightblue" d="M324.58,-444.27C384.54,-447.42 465.78,-451.7 525.3,-454.83"/>
<polygon fill="midnightblue" stroke="midnightblue" points="324.56,-440.76 314.39,-443.73 324.19,-447.75 324.56,-440.76"/>
</g>
<!-- Node31 -->
<g id="node28" class="node">
<title>Node31</title>
<g id="a_node28"><a xlink:href="classsciplot_1_1LegendSpecs.html" target="_top" xlink:title="The class used to specify options for legend.">
<polygon fill="white" stroke="black" points="803.5,-353.5 803.5,-372.5 879.5,-372.5 879.5,-353.5 803.5,-353.5"/>
<text text-anchor="middle" x="841.5" y="-360.5" font-family="Helvetica" font-size="10.00">LegendSpecs</text>
</a>
</g>
</g>
<!-- Node31&#45;&gt;Node1 -->
<g id="edge31" class="edge">
<title>Node31&#45;&gt;Node1</title>
<path fill="none" stroke="#9a32cd" stroke-dasharray="5,2" d="M889.72,-355C930.11,-350.52 988.59,-349.78 1033,-373 1053.1,-383.51 1067.01,-407.45 1073.61,-421.05"/>
<polygon fill="#9a32cd" stroke="#9a32cd" points="889.11,-351.55 879.61,-356.25 889.96,-358.5 889.11,-351.55"/>
<text text-anchor="middle" x="983" y="-376" font-family="Helvetica" font-size="10.00"> m_legend</text>
</g>
<!-- Node32 -->
<g id="node29" class="node">
<title>Node32</title>
<g id="a_node29"><a xlink:href="classsciplot_1_1TextSpecsOf.html" target="_top" xlink:title=" ">
<polygon fill="white" stroke="black" points="530,-392.5 530,-411.5 681,-411.5 681,-392.5 530,-392.5"/>
<text text-anchor="middle" x="605.5" y="-399.5" font-family="Helvetica" font-size="10.00">TextSpecsOf&lt; LegendSpecs &gt;</text>
</a>
</g>
</g>
<!-- Node32&#45;&gt;Node31 -->
<g id="edge32" class="edge">
<title>Node32&#45;&gt;Node31</title>
<path fill="none" stroke="midnightblue" d="M673.65,-390.81C715.74,-383.79 768.41,-375.01 803.19,-369.22"/>
<polygon fill="midnightblue" stroke="midnightblue" points="673.03,-387.36 663.74,-392.46 674.18,-394.27 673.03,-387.36"/>
</g>
<!-- Node33 -->
<g id="node30" class="node">
<title>Node33</title>
<g id="a_node30"><a xlink:href="classsciplot_1_1FontSpecsOf.html" target="_top" xlink:title=" ">
<polygon fill="white" stroke="black" points="166.5,-392.5 166.5,-411.5 318.5,-411.5 318.5,-392.5 166.5,-392.5"/>
<text text-anchor="middle" x="242.5" y="-399.5" font-family="Helvetica" font-size="10.00">FontSpecsOf&lt; LegendSpecs &gt;</text>
</a>
</g>
</g>
<!-- Node33&#45;&gt;Node32 -->
<g id="edge33" class="edge">
<title>Node33&#45;&gt;Node32</title>
<path fill="none" stroke="midnightblue" d="M328.75,-402C389.88,-402 471.44,-402 529.98,-402"/>
<polygon fill="midnightblue" stroke="midnightblue" points="328.74,-398.5 318.74,-402 328.74,-405.5 328.74,-398.5"/>
</g>
<!-- Node34 -->
<g id="node31" class="node">
<title>Node34</title>
<g id="a_node31"><a xlink:href="classsciplot_1_1Specs.html" target="_top" xlink:title=" ">
<polygon fill="white" stroke="black" points="0,-335.5 0,-354.5 122,-354.5 122,-335.5 0,-335.5"/>
<text text-anchor="middle" x="61" y="-342.5" font-family="Helvetica" font-size="10.00">Specs&lt; LegendSpecs &gt;</text>
</a>
</g>
</g>
<!-- Node34&#45;&gt;Node33 -->
<g id="edge34" class="edge">
<title>Node34&#45;&gt;Node33</title>
<path fill="none" stroke="midnightblue" d="M91.55,-358.89C105.95,-365.3 123.65,-372.65 140,-378 157.3,-383.66 176.65,-388.57 193.79,-392.46"/>
<polygon fill="midnightblue" stroke="midnightblue" points="92.72,-355.58 82.17,-354.64 89.84,-361.95 92.72,-355.58"/>
</g>
<!-- Node35 -->
<g id="node32" class="node">
<title>Node35</title>
<g id="a_node32"><a xlink:href="classsciplot_1_1ShowSpecsOf.html" target="_top" xlink:title=" ">
<polygon fill="white" stroke="black" points="345.5,-354.5 345.5,-373.5 502.5,-373.5 502.5,-354.5 345.5,-354.5"/>
<text text-anchor="middle" x="424" y="-361.5" font-family="Helvetica" font-size="10.00">ShowSpecsOf&lt; LegendSpecs &gt;</text>
</a>
</g>
</g>
<!-- Node34&#45;&gt;Node35 -->
<g id="edge36" class="edge">
<title>Node34&#45;&gt;Node35</title>
<path fill="none" stroke="midnightblue" d="M132.34,-348.7C193.48,-351.92 281.93,-356.58 345.17,-359.9"/>
<polygon fill="midnightblue" stroke="midnightblue" points="132.19,-345.19 122.02,-348.16 131.82,-352.18 132.19,-345.19"/>
</g>
<!-- Node36 -->
<g id="node33" class="node">
<title>Node36</title>
<g id="a_node33"><a xlink:href="classsciplot_1_1TitleSpecsOf.html" target="_top" xlink:title=" ">
<polygon fill="white" stroke="black" points="348.5,-316.5 348.5,-335.5 499.5,-335.5 499.5,-316.5 348.5,-316.5"/>
<text text-anchor="middle" x="424" y="-323.5" font-family="Helvetica" font-size="10.00">TitleSpecsOf&lt; LegendSpecs &gt;</text>
</a>
</g>
</g>
<!-- Node34&#45;&gt;Node36 -->
<g id="edge38" class="edge">
<title>Node34&#45;&gt;Node36</title>
<path fill="none" stroke="midnightblue" d="M132.13,-341.31C194.34,-338.03 284.93,-333.27 348.44,-329.92"/>
<polygon fill="midnightblue" stroke="midnightblue" points="131.82,-337.82 122.02,-341.84 132.19,-344.81 131.82,-337.82"/>
</g>
<!-- Node37 -->
<g id="node34" class="node">
<title>Node37</title>
<g id="a_node34"><a xlink:href="classsciplot_1_1FrameSpecsOf.html" target="_top" xlink:title=" ">
<polygon fill="white" stroke="black" points="344,-278.5 344,-297.5 504,-297.5 504,-278.5 344,-278.5"/>
<text text-anchor="middle" x="424" y="-285.5" font-family="Helvetica" font-size="10.00">FrameSpecsOf&lt; LegendSpecs &gt;</text>
</a>
</g>
</g>
<!-- Node34&#45;&gt;Node37 -->
<g id="edge40" class="edge">
<title>Node34&#45;&gt;Node37</title>
<path fill="none" stroke="midnightblue" d="M121.14,-333.67C133.63,-331.37 146.74,-329.04 159,-327 224.92,-316.02 300.38,-305.03 353.69,-297.53"/>
<polygon fill="midnightblue" stroke="midnightblue" points="120.48,-330.23 111.28,-335.49 121.75,-337.11 120.48,-330.23"/>
</g>
<!-- Node35&#45;&gt;Node31 -->
<g id="edge35" class="edge">
<title>Node35&#45;&gt;Node31</title>
<path fill="none" stroke="midnightblue" d="M512.86,-363.79C602.83,-363.57 738.41,-363.25 803.31,-363.09"/>
<polygon fill="midnightblue" stroke="midnightblue" points="512.66,-360.29 502.66,-363.81 512.67,-367.29 512.66,-360.29"/>
</g>
<!-- Node36&#45;&gt;Node31 -->
<g id="edge37" class="edge">
<title>Node36&#45;&gt;Node31</title>
<path fill="none" stroke="midnightblue" d="M509.94,-333.56C599.86,-341.57 737.67,-353.84 803.28,-359.69"/>
<polygon fill="midnightblue" stroke="midnightblue" points="510.03,-330.06 499.76,-332.66 509.41,-337.03 510.03,-330.06"/>
</g>
<!-- Node37&#45;&gt;Node31 -->
<g id="edge39" class="edge">
<title>Node37&#45;&gt;Node31</title>
<path fill="none" stroke="midnightblue" d="M501.6,-299.01C554.4,-306.89 626.12,-318.16 689,-330 728.15,-337.37 772.67,-347.25 803.26,-354.27"/>
<polygon fill="midnightblue" stroke="midnightblue" points="502.04,-295.54 491.64,-297.53 501.01,-302.46 502.04,-295.54"/>
</g>
<!-- Node38&#45;&gt;Node1 -->
<g id="edge41" class="edge">
<title>Node38&#45;&gt;Node1</title>
<path fill="none" stroke="#9a32cd" stroke-dasharray="5,2" d="M883.25,-567.96C924.84,-577.54 989.33,-584.86 1033,-554 1070.88,-527.23 1076.96,-465.02 1077.87,-440.85"/>
<polygon fill="#9a32cd" stroke="#9a32cd" points="884,-564.54 873.45,-565.56 882.33,-571.34 884,-564.54"/>
<text text-anchor="middle" x="983" y="-579" font-family="Helvetica" font-size="10.00"> m_customcmds</text>
</g>
<!-- Node39 -->
<g id="node36" class="node">
<title>Node39</title>
<g id="a_node36"><a xlink:href="classsciplot_1_1FillStyleSpecs.html" target="_top" xlink:title="The class used to attach color or pattern fill options to a type.">
<polygon fill="white" stroke="black" points="801.5,-278.5 801.5,-297.5 881.5,-297.5 881.5,-278.5 801.5,-278.5"/>
<text text-anchor="middle" x="841.5" y="-285.5" font-family="Helvetica" font-size="10.00">FillStyleSpecs</text>
</a>
</g>
</g>
<!-- Node39&#45;&gt;Node1 -->
<g id="edge43" class="edge">
<title>Node39&#45;&gt;Node1</title>
<path fill="none" stroke="#9a32cd" stroke-dasharray="5,2" d="M891.65,-295.79C940.63,-304.4 1011.57,-319.39 1033,-337 1060.25,-359.4 1072.1,-402.22 1076.2,-421.35"/>
<polygon fill="#9a32cd" stroke="#9a32cd" points="892,-292.3 881.55,-294.05 890.81,-299.2 892,-292.3"/>
<text text-anchor="middle" x="983" y="-340" font-family="Helvetica" font-size="10.00"> m_style_fill</text>
</g>
<!-- Node40 -->
<g id="node37" class="node">
<title>Node40</title>
<g id="a_node37"><a xlink:href="classsciplot_1_1Specs.html" target="_top" xlink:title=" ">
<polygon fill="white" stroke="black" points="543,-240.5 543,-259.5 668,-259.5 668,-240.5 543,-240.5"/>
<text text-anchor="middle" x="605.5" y="-247.5" font-family="Helvetica" font-size="10.00">Specs&lt; FillStyleSpecs &gt;</text>
</a>
</g>
</g>
<!-- Node40&#45;&gt;Node39 -->
<g id="edge44" class="edge">
<title>Node40&#45;&gt;Node39</title>
<path fill="none" stroke="midnightblue" d="M675.19,-261.15C716.22,-267.82 766.87,-276.04 801.22,-281.62"/>
<polygon fill="midnightblue" stroke="midnightblue" points="675.68,-257.69 665.25,-259.54 674.56,-264.6 675.68,-257.69"/>
</g>
<!-- Node41 -->
<g id="node38" class="node">
<title>Node41</title>
<g id="a_node38"><a xlink:href="classsciplot_1_1TicsSpecsMajor.html" target="_top" xlink:title="The class used to specify options for major tics of a specific axis.">
<polygon fill="white" stroke="black" points="798,-208.5 798,-227.5 885,-227.5 885,-208.5 798,-208.5"/>
<text text-anchor="middle" x="841.5" y="-215.5" font-family="Helvetica" font-size="10.00">TicsSpecsMajor</text>
</a>
</g>
</g>
<!-- Node41&#45;&gt;Node1 -->
<g id="edge45" class="edge">
<title>Node41&#45;&gt;Node1</title>
<path fill="none" stroke="#9a32cd" stroke-dasharray="5,2" d="M895.17,-207.03C937.46,-201.48 995.73,-201.64 1033,-234 1062.01,-259.19 1074.32,-385.45 1077.27,-421.42"/>
<polygon fill="#9a32cd" stroke="#9a32cd" points="894.45,-203.6 885.06,-208.5 895.46,-210.52 894.45,-203.6"/>
<text text-anchor="middle" x="983" y="-292" font-family="Helvetica" font-size="10.00"> m_rtics_major</text>
<text text-anchor="middle" x="983" y="-281" font-family="Helvetica" font-size="10.00">m_xtics_major_bottom</text>
<text text-anchor="middle" x="983" y="-270" font-family="Helvetica" font-size="10.00">m_xtics_major_top</text>
<text text-anchor="middle" x="983" y="-259" font-family="Helvetica" font-size="10.00">m_ytics_major_left</text>
<text text-anchor="middle" x="983" y="-248" font-family="Helvetica" font-size="10.00">m_ytics_major_right</text>
<text text-anchor="middle" x="983" y="-237" font-family="Helvetica" font-size="10.00">m_ztics_major</text>
</g>
<!-- Node42 -->
<g id="node39" class="node">
<title>Node42</title>
<g id="a_node39"><a xlink:href="classsciplot_1_1TicsSpecsBaseOf.html" target="_top" xlink:title=" ">
<polygon fill="white" stroke="black" points="530,-191 530,-221 681,-221 681,-191 530,-191"/>
<text text-anchor="start" x="538" y="-209" font-family="Helvetica" font-size="10.00">TicsSpecsBaseOf&lt; TicsSpecs</text>
<text text-anchor="middle" x="605.5" y="-198" font-family="Helvetica" font-size="10.00">Major &gt;</text>
</a>
</g>
</g>
<!-- Node42&#45;&gt;Node41 -->
<g id="edge46" class="edge">
<title>Node42&#45;&gt;Node41</title>
<path fill="none" stroke="midnightblue" d="M691.26,-210.35C727.44,-212.2 768.09,-214.29 797.82,-215.81"/>
<polygon fill="midnightblue" stroke="midnightblue" points="691.35,-206.85 681.18,-209.83 690.99,-213.84 691.35,-206.85"/>
</g>
<!-- Node43 -->
<g id="node40" class="node">
<title>Node43</title>
<g id="a_node40"><a xlink:href="classsciplot_1_1TextSpecsOf.html" target="_top" xlink:title=" ">
<polygon fill="white" stroke="red" points="162,-240.5 162,-259.5 323,-259.5 323,-240.5 162,-240.5"/>
<text text-anchor="middle" x="242.5" y="-247.5" font-family="Helvetica" font-size="10.00">TextSpecsOf&lt; TicsSpecsMajor &gt;</text>
</a>
</g>
</g>
<!-- Node43&#45;&gt;Node42 -->
<g id="edge47" class="edge">
<title>Node43&#45;&gt;Node42</title>
<path fill="none" stroke="midnightblue" d="M333.26,-240.19C383.51,-234.57 447.28,-227.22 504,-220 512.39,-218.93 521.16,-217.77 529.89,-216.59"/>
<polygon fill="midnightblue" stroke="midnightblue" points="332.63,-236.74 323.08,-241.33 333.41,-243.7 332.63,-236.74"/>
</g>
<!-- Node46 -->
<g id="node41" class="node">
<title>Node46</title>
<g id="a_node41"><a xlink:href="classsciplot_1_1OffsetSpecsOf.html" target="_top" xlink:title=" ">
<polygon fill="white" stroke="red" points="174.5,-191 174.5,-221 310.5,-221 310.5,-191 174.5,-191"/>
<text text-anchor="start" x="182.5" y="-209" font-family="Helvetica" font-size="10.00">OffsetSpecsOf&lt; TicsSpecs</text>
<text text-anchor="middle" x="242.5" y="-198" font-family="Helvetica" font-size="10.00">Major &gt;</text>
</a>
</g>
</g>
<!-- Node46&#45;&gt;Node42 -->
<g id="edge48" class="edge">
<title>Node46&#45;&gt;Node42</title>
<path fill="none" stroke="midnightblue" d="M320.64,-206C382.41,-206 468.56,-206 529.71,-206"/>
<polygon fill="midnightblue" stroke="midnightblue" points="320.56,-202.5 310.56,-206 320.56,-209.5 320.56,-202.5"/>
</g>
<!-- Node47 -->
<g id="node42" class="node">
<title>Node47</title>
<g id="a_node42"><a xlink:href="classsciplot_1_1ShowSpecsOf.html" target="_top" xlink:title=" ">
<polygon fill="white" stroke="red" points="159,-152.5 159,-171.5 326,-171.5 326,-152.5 159,-152.5"/>
<text text-anchor="middle" x="242.5" y="-159.5" font-family="Helvetica" font-size="10.00">ShowSpecsOf&lt; TicsSpecsMajor &gt;</text>
</a>
</g>
</g>
<!-- Node47&#45;&gt;Node42 -->
<g id="edge49" class="edge">
<title>Node47&#45;&gt;Node42</title>
<path fill="none" stroke="midnightblue" d="M331.78,-172.76C392.47,-180.16 472.16,-189.87 529.72,-196.89"/>
<polygon fill="midnightblue" stroke="midnightblue" points="332.18,-169.28 321.83,-171.55 331.33,-176.23 332.18,-169.28"/>
</g>
<!-- Node48 -->
<g id="node43" class="node">
<title>Node48</title>
<g id="a_node43"><a xlink:href="classsciplot_1_1GridSpecs.html" target="_top" xlink:title="The class used to specify options for grid.">
<polygon fill="white" stroke="black" points="810.5,-166.5 810.5,-185.5 872.5,-185.5 872.5,-166.5 810.5,-166.5"/>
<text text-anchor="middle" x="841.5" y="-173.5" font-family="Helvetica" font-size="10.00">GridSpecs</text>
</a>
</g>
</g>
<!-- Node48&#45;&gt;Node1 -->
<g id="edge50" class="edge">
<title>Node48&#45;&gt;Node1</title>
<path fill="none" stroke="#9a32cd" stroke-dasharray="5,2" d="M882.55,-165.89C925.28,-157.7 992.29,-152.75 1033,-189 1068.5,-220.62 1076.29,-380.08 1077.71,-421.28"/>
<polygon fill="#9a32cd" stroke="#9a32cd" points="881.59,-162.51 872.51,-167.96 883.01,-169.37 881.59,-162.51"/>
<text text-anchor="middle" x="983" y="-192" font-family="Helvetica" font-size="10.00"> m_grid</text>
</g>
<!-- Node49 -->
<g id="node44" class="node">
<title>Node49</title>
<g id="a_node44"><a xlink:href="classsciplot_1_1GridSpecsBase.html" target="_top" xlink:title="The class used to specify options for grid lines along axis tics (major or minor).">
<polygon fill="white" stroke="black" points="563,-95.5 563,-114.5 648,-114.5 648,-95.5 563,-95.5"/>
<text text-anchor="middle" x="605.5" y="-102.5" font-family="Helvetica" font-size="10.00">GridSpecsBase</text>
</a>
</g>
</g>
<!-- Node49&#45;&gt;Node48 -->
<g id="edge51" class="edge">
<title>Node49&#45;&gt;Node48</title>
<path fill="none" stroke="midnightblue" d="M647.82,-117.54C694.32,-131.65 768.76,-154.23 810.18,-166.8"/>
<polygon fill="midnightblue" stroke="midnightblue" points="648.64,-114.13 638.06,-114.58 646.61,-120.83 648.64,-114.13"/>
</g>
<!-- Node50 -->
<g id="node45" class="node">
<title>Node50</title>
<g id="a_node45"><a xlink:href="classsciplot_1_1LineSpecsOf.html" target="_top" xlink:title=" ">
<polygon fill="white" stroke="red" points="163,-114.5 163,-133.5 322,-133.5 322,-114.5 163,-114.5"/>
<text text-anchor="middle" x="242.5" y="-121.5" font-family="Helvetica" font-size="10.00">LineSpecsOf&lt; GridSpecsBase &gt;</text>
</a>
</g>
</g>
<!-- Node50&#45;&gt;Node49 -->
<g id="edge52" class="edge">
<title>Node50&#45;&gt;Node49</title>
<path fill="none" stroke="midnightblue" d="M332.46,-119.32C405.94,-115.45 506.96,-110.13 562.93,-107.19"/>
<polygon fill="midnightblue" stroke="midnightblue" points="332.08,-115.83 322.28,-119.85 332.45,-122.82 332.08,-115.83"/>
</g>
<!-- Node52 -->
<g id="node46" class="node">
<title>Node52</title>
<g id="a_node46"><a xlink:href="classsciplot_1_1DepthSpecsOf.html" target="_top" xlink:title=" ">
<polygon fill="white" stroke="red" points="159,-76.5 159,-95.5 326,-95.5 326,-76.5 159,-76.5"/>
<text text-anchor="middle" x="242.5" y="-83.5" font-family="Helvetica" font-size="10.00">DepthSpecsOf&lt; GridSpecsBase &gt;</text>
</a>
</g>
</g>
<!-- Node52&#45;&gt;Node49 -->
<g id="edge53" class="edge">
<title>Node52&#45;&gt;Node49</title>
<path fill="none" stroke="midnightblue" d="M336.46,-90.89C409.57,-94.74 507.96,-99.92 562.92,-102.81"/>
<polygon fill="midnightblue" stroke="midnightblue" points="336.49,-87.39 326.32,-90.36 336.12,-94.38 336.49,-87.39"/>
</g>
<!-- Node53 -->
<g id="node47" class="node">
<title>Node53</title>
<g id="a_node47"><a xlink:href="classsciplot_1_1ShowSpecsOf.html" target="_top" xlink:title=" ">
<polygon fill="white" stroke="red" points="159.5,-38.5 159.5,-57.5 325.5,-57.5 325.5,-38.5 159.5,-38.5"/>
<text text-anchor="middle" x="242.5" y="-45.5" font-family="Helvetica" font-size="10.00">ShowSpecsOf&lt; GridSpecsBase &gt;</text>
</a>
</g>
</g>
<!-- Node53&#45;&gt;Node49 -->
<g id="edge54" class="edge">
<title>Node53&#45;&gt;Node49</title>
<path fill="none" stroke="midnightblue" d="M320.91,-59C372.77,-66.51 442.55,-76.9 504,-87 523.41,-90.19 544.89,-94 562.98,-97.29"/>
<polygon fill="midnightblue" stroke="midnightblue" points="321.18,-55.5 310.78,-57.53 320.18,-62.43 321.18,-55.5"/>
</g>
<!-- Node54 -->
<g id="node48" class="node">
<title>Node54</title>
<g id="a_node48"><a xlink:href="classsciplot_1_1FontSpecs.html" target="_top" xlink:title="The class used to specify font options.">
<polygon fill="white" stroke="black" points="809.5,-120.5 809.5,-139.5 873.5,-139.5 873.5,-120.5 809.5,-120.5"/>
<text text-anchor="middle" x="841.5" y="-127.5" font-family="Helvetica" font-size="10.00">FontSpecs</text>
</a>
</g>
</g>
<!-- Node54&#45;&gt;Node1 -->
<g id="edge55" class="edge">
<title>Node54&#45;&gt;Node1</title>
<path fill="none" stroke="#9a32cd" stroke-dasharray="5,2" d="M883.63,-120.02C926.61,-112.25 993.21,-108.18 1033,-145 1074.6,-183.49 1077.83,-376.08 1078.01,-421.43"/>
<polygon fill="#9a32cd" stroke="#9a32cd" points="882.92,-116.59 873.77,-121.94 884.26,-123.46 882.92,-116.59"/>
<text text-anchor="middle" x="983" y="-148" font-family="Helvetica" font-size="10.00"> m_font</text>
</g>
<!-- Node55 -->
<g id="node49" class="node">
<title>Node55</title>
<g id="a_node49"><a xlink:href="classsciplot_1_1FontSpecsOf.html" target="_top" xlink:title=" ">
<polygon fill="white" stroke="black" points="535.5,-19.5 535.5,-38.5 675.5,-38.5 675.5,-19.5 535.5,-19.5"/>
<text text-anchor="middle" x="605.5" y="-26.5" font-family="Helvetica" font-size="10.00">FontSpecsOf&lt; FontSpecs &gt;</text>
</a>
</g>
</g>
<!-- Node55&#45;&gt;Node54 -->
<g id="edge56" class="edge">
<title>Node55&#45;&gt;Node54</title>
<path fill="none" stroke="midnightblue" d="M637.81,-42.51C685.84,-63.25 776.56,-102.4 818.37,-120.45"/>
<polygon fill="midnightblue" stroke="midnightblue" points="639.08,-39.25 628.51,-38.5 636.31,-45.68 639.08,-39.25"/>
</g>
<!-- Node56 -->
<g id="node50" class="node">
<title>Node56</title>
<g id="a_node50"><a xlink:href="classsciplot_1_1Specs.html" target="_top" xlink:title=" ">
<polygon fill="white" stroke="black" points="187.5,-0.5 187.5,-19.5 297.5,-19.5 297.5,-0.5 187.5,-0.5"/>
<text text-anchor="middle" x="242.5" y="-7.5" font-family="Helvetica" font-size="10.00">Specs&lt; FontSpecs &gt;</text>
</a>
</g>
</g>
<!-- Node56&#45;&gt;Node55 -->
<g id="edge57" class="edge">
<title>Node56&#45;&gt;Node55</title>
<path fill="none" stroke="midnightblue" d="M307.9,-13.39C371.86,-16.76 469.61,-21.9 535.23,-25.35"/>
<polygon fill="midnightblue" stroke="midnightblue" points="307.72,-9.88 297.55,-12.84 307.35,-16.87 307.72,-9.88"/>
</g>
</g>
</svg>
