<?xml version="1.0" encoding="UTF-8" standalone="no"?>
<!DOCTYPE svg PUBLIC "-//W3C//DTD SVG 1.1//EN"
 "http://www.w3.org/Graphics/SVG/1.1/DTD/svg11.dtd">
<!-- Generated by graphviz version 8.0.4 (20230426.1303)
 -->
<!-- Title: AxisLabelSpecs Pages: 1 -->
<svg width="183pt" height="203pt"
 viewBox="0.00 0.00 183.00 203.00" xmlns="http://www.w3.org/2000/svg" xmlns:xlink="http://www.w3.org/1999/xlink">
<g id="graph0" class="graph" transform="scale(1 1) rotate(0) translate(4 199)">
<title>AxisLabelSpecs</title>
<polygon fill="white" stroke="none" points="-4,4 -4,-199 179,-199 179,4 -4,4"/>
<!-- Node1 -->
<g id="node1" class="node">
<title>Node1</title>
<g id="a_node1"><a xlink:title="The specifications for an axis label (e.g., xlabel, ylabel, etc.)">
<polygon fill="#bfbfbf" stroke="black" points="41.62,-0.5 41.62,-21.25 133.38,-21.25 133.38,-0.5 41.62,-0.5"/>
<text text-anchor="middle" x="87.5" y="-7.75" font-family="Helvetica,sans-Serif" font-size="10.00">AxisLabelSpecs</text>
</a>
</g>
</g>
<!-- Node2 -->
<g id="node2" class="node">
<title>Node2</title>
<g id="a_node2"><a xlink:href="classsciplot_1_1TextSpecsOf.html" target="_top" xlink:title=" ">
<polygon fill="white" stroke="black" points="0.38,-58.25 0.38,-79 174.62,-79 174.62,-58.25 0.38,-58.25"/>
<text text-anchor="middle" x="87.5" y="-65.5" font-family="Helvetica,sans-Serif" font-size="10.00">TextSpecsOf&lt; AxisLabelSpecs &gt;</text>
</a>
</g>
</g>
<!-- Node2&#45;&gt;Node1 -->
<g id="edge1" class="edge">
<title>Node2&#45;&gt;Node1</title>
<path fill="none" stroke="midnightblue" d="M87.5,-47.5C87.5,-38.39 87.5,-28.09 87.5,-20.91"/>
<polygon fill="midnightblue" stroke="midnightblue" points="84,-47.42 87.5,-57.42 91,-47.42 84,-47.42"/>
</g>
<!-- Node3 -->
<g id="node3" class="node">
<title>Node3</title>
<g id="a_node3"><a xlink:href="classsciplot_1_1FontSpecsOf.html" target="_top" xlink:title=" ">
<polygon fill="white" stroke="black" points="0,-116 0,-136.75 175,-136.75 175,-116 0,-116"/>
<text text-anchor="middle" x="87.5" y="-123.25" font-family="Helvetica,sans-Serif" font-size="10.00">FontSpecsOf&lt; AxisLabelSpecs &gt;</text>
</a>
</g>
</g>
<!-- Node3&#45;&gt;Node2 -->
<g id="edge2" class="edge">
<title>Node3&#45;&gt;Node2</title>
<path fill="none" stroke="midnightblue" d="M87.5,-105.25C87.5,-96.14 87.5,-85.84 87.5,-78.66"/>
<polygon fill="midnightblue" stroke="midnightblue" points="84,-105.17 87.5,-115.17 91,-105.17 84,-105.17"/>
</g>
<!-- Node4 -->
<g id="node4" class="node">
<title>Node4</title>
<g id="a_node4"><a xlink:href="classsciplot_1_1Specs.html" target="_top" xlink:title=" ">
<polygon fill="white" stroke="black" points="16.12,-173.75 16.12,-194.5 158.88,-194.5 158.88,-173.75 16.12,-173.75"/>
<text text-anchor="middle" x="87.5" y="-181" font-family="Helvetica,sans-Serif" font-size="10.00">Specs&lt; AxisLabelSpecs &gt;</text>
</a>
</g>
</g>
<!-- Node4&#45;&gt;Node3 -->
<g id="edge3" class="edge">
<title>Node4&#45;&gt;Node3</title>
<path fill="none" stroke="midnightblue" d="M87.5,-163C87.5,-153.89 87.5,-143.59 87.5,-136.41"/>
<polygon fill="midnightblue" stroke="midnightblue" points="84,-162.92 87.5,-172.92 91,-162.92 84,-162.92"/>
</g>
</g>
</svg>
