<?xml version="1.0" encoding="UTF-8" standalone="no"?>
<!DOCTYPE svg PUBLIC "-//W3C//DTD SVG 1.1//EN"
 "http://www.w3.org/Graphics/SVG/1.1/DTD/svg11.dtd">
<!-- Generated by graphviz version 8.0.4 (20230426.1303)
 -->
<!-- Title: TicsSpecs Pages: 1 -->
<svg width="432pt" height="261pt"
 viewBox="0.00 0.00 431.50 260.75" xmlns="http://www.w3.org/2000/svg" xmlns:xlink="http://www.w3.org/1999/xlink">
<g id="graph0" class="graph" transform="scale(1 1) rotate(0) translate(4 256.75)">
<title>TicsSpecs</title>
<polygon fill="white" stroke="none" points="-4,4 -4,-256.75 427.5,-256.75 427.5,4 -4,4"/>
<!-- Node1 -->
<g id="node1" class="node">
<title>Node1</title>
<g id="a_node1"><a xlink:title="The class used to specify options for tics.">
<polygon fill="#bfbfbf" stroke="black" points="210.25,-0.5 210.25,-21.25 274.25,-21.25 274.25,-0.5 210.25,-0.5"/>
<text text-anchor="middle" x="242.25" y="-7.75" font-family="Helvetica,sans-Serif" font-size="10.00">TicsSpecs</text>
</a>
</g>
</g>
<!-- Node2 -->
<g id="node2" class="node">
<title>Node2</title>
<g id="a_node2"><a xlink:href="classsciplot_1_1TicsSpecsBaseOf.html" target="_top" xlink:title=" ">
<polygon fill="white" stroke="black" points="157.38,-58.25 157.38,-79 327.12,-79 327.12,-58.25 157.38,-58.25"/>
<text text-anchor="middle" x="242.25" y="-65.5" font-family="Helvetica,sans-Serif" font-size="10.00">TicsSpecsBaseOf&lt; TicsSpecs &gt;</text>
</a>
</g>
</g>
<!-- Node2&#45;&gt;Node1 -->
<g id="edge1" class="edge">
<title>Node2&#45;&gt;Node1</title>
<path fill="none" stroke="midnightblue" d="M242.25,-47.5C242.25,-38.39 242.25,-28.09 242.25,-20.91"/>
<polygon fill="midnightblue" stroke="midnightblue" points="238.75,-47.42 242.25,-57.42 245.75,-47.42 238.75,-47.42"/>
</g>
<!-- Node3 -->
<g id="node3" class="node">
<title>Node3</title>
<g id="a_node3"><a xlink:href="classsciplot_1_1TextSpecsOf.html" target="_top" xlink:title=" ">
<polygon fill="white" stroke="black" points="0,-116 0,-136.75 146.5,-136.75 146.5,-116 0,-116"/>
<text text-anchor="middle" x="73.25" y="-123.25" font-family="Helvetica,sans-Serif" font-size="10.00">TextSpecsOf&lt; TicsSpecs &gt;</text>
</a>
</g>
</g>
<!-- Node3&#45;&gt;Node2 -->
<g id="edge2" class="edge">
<title>Node3&#45;&gt;Node2</title>
<path fill="none" stroke="midnightblue" d="M111.58,-112.73C142.68,-102.47 185.81,-88.24 213.87,-78.99"/>
<polygon fill="midnightblue" stroke="midnightblue" points="110.94,-109.59 102.54,-116.04 113.13,-116.23 110.94,-109.59"/>
</g>
<!-- Node4 -->
<g id="node4" class="node">
<title>Node4</title>
<g id="a_node4"><a xlink:href="classsciplot_1_1FontSpecsOf.html" target="_top" xlink:title=" ">
<polygon fill="white" stroke="black" points="33.62,-173.75 33.62,-194.5 180.88,-194.5 180.88,-173.75 33.62,-173.75"/>
<text text-anchor="middle" x="107.25" y="-181" font-family="Helvetica,sans-Serif" font-size="10.00">FontSpecsOf&lt; TicsSpecs &gt;</text>
</a>
</g>
</g>
<!-- Node4&#45;&gt;Node3 -->
<g id="edge3" class="edge">
<title>Node4&#45;&gt;Node3</title>
<path fill="none" stroke="midnightblue" d="M96.09,-164.83C90.28,-155.3 83.43,-144.07 78.76,-136.41"/>
<polygon fill="midnightblue" stroke="midnightblue" points="93.44,-166.2 101.64,-172.92 99.42,-162.56 93.44,-166.2"/>
</g>
<!-- Node5 -->
<g id="node5" class="node">
<title>Node5</title>
<g id="a_node5"><a xlink:href="classsciplot_1_1Specs.html" target="_top" xlink:title=" ">
<polygon fill="white" stroke="black" points="184.75,-231.5 184.75,-252.25 299.75,-252.25 299.75,-231.5 184.75,-231.5"/>
<text text-anchor="middle" x="242.25" y="-238.75" font-family="Helvetica,sans-Serif" font-size="10.00">Specs&lt; TicsSpecs &gt;</text>
</a>
</g>
</g>
<!-- Node5&#45;&gt;Node4 -->
<g id="edge4" class="edge">
<title>Node5&#45;&gt;Node4</title>
<path fill="none" stroke="midnightblue" d="M209.67,-227.42C185,-217.23 151.75,-203.5 129.92,-194.49"/>
<polygon fill="midnightblue" stroke="midnightblue" points="208.08,-230.96 218.65,-231.54 210.75,-224.49 208.08,-230.96"/>
</g>
<!-- Node6 -->
<g id="node6" class="node">
<title>Node6</title>
<g id="a_node6"><a xlink:href="classsciplot_1_1OffsetSpecsOf.html" target="_top" xlink:title=" ">
<polygon fill="white" stroke="black" points="164.5,-116 164.5,-136.75 320,-136.75 320,-116 164.5,-116"/>
<text text-anchor="middle" x="242.25" y="-123.25" font-family="Helvetica,sans-Serif" font-size="10.00">OffsetSpecsOf&lt; TicsSpecs &gt;</text>
</a>
</g>
</g>
<!-- Node5&#45;&gt;Node6 -->
<g id="edge6" class="edge">
<title>Node5&#45;&gt;Node6</title>
<path fill="none" stroke="midnightblue" d="M242.25,-220.89C242.25,-196.05 242.25,-154.7 242.25,-136.47"/>
<polygon fill="midnightblue" stroke="midnightblue" points="238.75,-220.59 242.25,-230.59 245.75,-220.59 238.75,-220.59"/>
</g>
<!-- Node7 -->
<g id="node7" class="node">
<title>Node7</title>
<g id="a_node7"><a xlink:href="classsciplot_1_1ShowSpecsOf.html" target="_top" xlink:title=" ">
<polygon fill="white" stroke="black" points="271,-173.75 271,-194.5 423.5,-194.5 423.5,-173.75 271,-173.75"/>
<text text-anchor="middle" x="347.25" y="-181" font-family="Helvetica,sans-Serif" font-size="10.00">ShowSpecsOf&lt; TicsSpecs &gt;</text>
</a>
</g>
</g>
<!-- Node5&#45;&gt;Node7 -->
<g id="edge8" class="edge">
<title>Node5&#45;&gt;Node7</title>
<path fill="none" stroke="midnightblue" d="M269.23,-226.55C288.33,-216.41 313.39,-203.11 329.89,-194.34"/>
<polygon fill="midnightblue" stroke="midnightblue" points="267.78,-223.89 260.59,-231.67 271.06,-230.07 267.78,-223.89"/>
</g>
<!-- Node6&#45;&gt;Node2 -->
<g id="edge5" class="edge">
<title>Node6&#45;&gt;Node2</title>
<path fill="none" stroke="midnightblue" d="M242.25,-105.25C242.25,-96.14 242.25,-85.84 242.25,-78.66"/>
<polygon fill="midnightblue" stroke="midnightblue" points="238.75,-105.17 242.25,-115.17 245.75,-105.17 238.75,-105.17"/>
</g>
<!-- Node7&#45;&gt;Node2 -->
<g id="edge7" class="edge">
<title>Node7&#45;&gt;Node2</title>
<path fill="none" stroke="midnightblue" d="M346.12,-162.92C344.38,-148.37 340.02,-129.01 329.25,-115.5 315.1,-97.74 292.17,-86.05 273.4,-78.92"/>
<polygon fill="midnightblue" stroke="midnightblue" points="342.71,-163.11 347.06,-172.77 349.69,-162.51 342.71,-163.11"/>
</g>
</g>
</svg>
