<?xml version="1.0" encoding="UTF-8" standalone="no"?>
<!DOCTYPE svg PUBLIC "-//W3C//DTD SVG 1.1//EN"
 "http://www.w3.org/Graphics/SVG/1.1/DTD/svg11.dtd">
<!-- Generated by graphviz version 8.0.5 (20230506.1012)
 -->
<!-- Title: TextSpecs Pages: 1 -->
<svg width="156pt" height="203pt"
 viewBox="0.00 0.00 156.00 203.00" xmlns="http://www.w3.org/2000/svg" xmlns:xlink="http://www.w3.org/1999/xlink">
<g id="graph0" class="graph" transform="scale(1 1) rotate(0) translate(4 199)">
<title>TextSpecs</title>
<polygon fill="white" stroke="none" points="-4,4 -4,-199 152,-199 152,4 -4,4"/>
<!-- Node1 -->
<g id="node1" class="node">
<title>Node1</title>
<g id="a_node1"><a xlink:title="The class used to specify text options.">
<polygon fill="#bfbfbf" stroke="black" points="41.62,-0.5 41.62,-21.25 106.38,-21.25 106.38,-0.5 41.62,-0.5"/>
<text text-anchor="middle" x="74" y="-7.75" font-family="Helvetica,sans-Serif" font-size="10.00">TextSpecs</text>
</a>
</g>
</g>
<!-- Node2 -->
<g id="node2" class="node">
<title>Node2</title>
<g id="a_node2"><a xlink:href="classsciplot_1_1TextSpecsOf.html" target="_top" xlink:title=" ">
<polygon fill="white" stroke="black" points="0.38,-58.25 0.38,-79 147.62,-79 147.62,-58.25 0.38,-58.25"/>
<text text-anchor="middle" x="74" y="-65.5" font-family="Helvetica,sans-Serif" font-size="10.00">TextSpecsOf&lt; TextSpecs &gt;</text>
</a>
</g>
</g>
<!-- Node2&#45;&gt;Node1 -->
<g id="edge1" class="edge">
<title>Node2&#45;&gt;Node1</title>
<path fill="none" stroke="midnightblue" d="M74,-47.5C74,-38.39 74,-28.09 74,-20.91"/>
<polygon fill="midnightblue" stroke="midnightblue" points="70.5,-47.42 74,-57.42 77.5,-47.42 70.5,-47.42"/>
</g>
<!-- Node3 -->
<g id="node3" class="node">
<title>Node3</title>
<g id="a_node3"><a xlink:href="classsciplot_1_1FontSpecsOf.html" target="_top" xlink:title=" ">
<polygon fill="white" stroke="black" points="0,-116 0,-136.75 148,-136.75 148,-116 0,-116"/>
<text text-anchor="middle" x="74" y="-123.25" font-family="Helvetica,sans-Serif" font-size="10.00">FontSpecsOf&lt; TextSpecs &gt;</text>
</a>
</g>
</g>
<!-- Node3&#45;&gt;Node2 -->
<g id="edge2" class="edge">
<title>Node3&#45;&gt;Node2</title>
<path fill="none" stroke="midnightblue" d="M74,-105.25C74,-96.14 74,-85.84 74,-78.66"/>
<polygon fill="midnightblue" stroke="midnightblue" points="70.5,-105.17 74,-115.17 77.5,-105.17 70.5,-105.17"/>
</g>
<!-- Node4 -->
<g id="node4" class="node">
<title>Node4</title>
<g id="a_node4"><a xlink:href="classsciplot_1_1Specs.html" target="_top" xlink:title=" ">
<polygon fill="white" stroke="black" points="16.12,-173.75 16.12,-194.5 131.88,-194.5 131.88,-173.75 16.12,-173.75"/>
<text text-anchor="middle" x="74" y="-181" font-family="Helvetica,sans-Serif" font-size="10.00">Specs&lt; TextSpecs &gt;</text>
</a>
</g>
</g>
<!-- Node4&#45;&gt;Node3 -->
<g id="edge3" class="edge">
<title>Node4&#45;&gt;Node3</title>
<path fill="none" stroke="midnightblue" d="M74,-163C74,-153.89 74,-143.59 74,-136.41"/>
<polygon fill="midnightblue" stroke="midnightblue" points="70.5,-162.92 74,-172.92 77.5,-162.92 70.5,-162.92"/>
</g>
</g>
</svg>
