<?xml version="1.0" encoding="UTF-8" standalone="no"?>
<!DOCTYPE svg PUBLIC "-//W3C//DTD SVG 1.1//EN"
 "http://www.w3.org/Graphics/SVG/1.1/DTD/svg11.dtd">
<!-- Generated by graphviz version 8.0.5 (20230506.1012)
 -->
<!-- Title: Graph Legend Pages: 1 -->
<svg width="540pt" height="168pt"
 viewBox="0.00 0.00 540.00 167.75" xmlns="http://www.w3.org/2000/svg" xmlns:xlink="http://www.w3.org/1999/xlink">
<g id="graph0" class="graph" transform="scale(1 1) rotate(0) translate(4 163.75)">
<title>Graph Legend</title>
<polygon fill="white" stroke="none" points="-4,4 -4,-163.75 536,-163.75 536,4 -4,4"/>
<!-- Node9 -->
<g id="node1" class="node">
<title>Node9</title>
<polygon fill="#bfbfbf" stroke="black" points="309.38,-20.75 249.88,-20.75 249.88,0 309.38,0 309.38,-20.75"/>
<text text-anchor="middle" x="279.62" y="-7.25" font-family="Helvetica,sans-Serif" font-size="10.00">Inherited</text>
</g>
<!-- Node10 -->
<g id="node2" class="node">
<title>Node10</title>
<polygon fill="none" stroke="black" points="69.25,-90.25 0,-90.25 0,-69.5 69.25,-69.5 69.25,-90.25"/>
<text text-anchor="middle" x="34.62" y="-76.75" font-family="Helvetica,sans-Serif" font-size="10.00">PublicBase</text>
</g>
<!-- Node10&#45;&gt;Node9 -->
<g id="edge1" class="edge">
<title>Node10&#45;&gt;Node9</title>
<path fill="none" stroke="midnightblue" d="M80.14,-66.34C129.6,-52.71 207.24,-31.32 249.6,-19.65"/>
<polygon fill="midnightblue" stroke="midnightblue" points="79.44,-63.17 70.73,-69.2 81.3,-69.92 79.44,-63.17"/>
</g>
<!-- Node11 -->
<g id="node3" class="node">
<title>Node11</title>
<polygon fill="none" stroke="red" points="66.25,-159.75 3,-159.75 3,-139 66.25,-139 66.25,-159.75"/>
<text text-anchor="middle" x="34.62" y="-146.25" font-family="Helvetica,sans-Serif" font-size="10.00">Truncated</text>
</g>
<!-- Node11&#45;&gt;Node10 -->
<g id="edge2" class="edge">
<title>Node11&#45;&gt;Node10</title>
<path fill="none" stroke="midnightblue" d="M34.62,-127.95C34.62,-115.53 34.62,-100.25 34.62,-90.53"/>
<polygon fill="midnightblue" stroke="midnightblue" points="31.13,-127.7 34.62,-137.7 38.13,-127.7 31.13,-127.7"/>
</g>
<!-- Node13 -->
<g id="node4" class="node">
<title>Node13</title>
<polygon fill="none" stroke="black" points="173.88,-90.25 87.38,-90.25 87.38,-69.5 173.88,-69.5 173.88,-90.25"/>
<text text-anchor="middle" x="130.62" y="-76.75" font-family="Helvetica,sans-Serif" font-size="10.00">ProtectedBase</text>
</g>
<!-- Node13&#45;&gt;Node9 -->
<g id="edge3" class="edge">
<title>Node13&#45;&gt;Node9</title>
<path fill="none" stroke="darkgreen" d="M162.25,-64.55C191.04,-51.51 232.76,-32.6 257.93,-21.2"/>
<polygon fill="darkgreen" stroke="darkgreen" points="160.96,-61.75 153.29,-69.06 163.84,-68.12 160.96,-61.75"/>
</g>
<!-- Node14 -->
<g id="node5" class="node">
<title>Node14</title>
<polygon fill="none" stroke="black" points="266.88,-90.25 192.38,-90.25 192.38,-69.5 266.88,-69.5 266.88,-90.25"/>
<text text-anchor="middle" x="229.62" y="-76.75" font-family="Helvetica,sans-Serif" font-size="10.00">PrivateBase</text>
</g>
<!-- Node14&#45;&gt;Node9 -->
<g id="edge4" class="edge">
<title>Node14&#45;&gt;Node9</title>
<path fill="none" stroke="#8b1a1a" d="M243.07,-60.72C252.54,-47.94 264.83,-31.35 272.47,-21.03"/>
<polygon fill="#8b1a1a" stroke="#8b1a1a" points="239.93,-58.08 236.79,-68.2 245.55,-62.25 239.93,-58.08"/>
</g>
<!-- Node15 -->
<g id="node6" class="node">
<title>Node15</title>
<polygon fill="none" stroke="#bfbfbf" points="374.75,-90.25 284.5,-90.25 284.5,-69.5 374.75,-69.5 374.75,-90.25"/>
<text text-anchor="middle" x="329.62" y="-76.75" font-family="Helvetica,sans-Serif" font-size="10.00">Undocumented</text>
</g>
<!-- Node15&#45;&gt;Node9 -->
<g id="edge5" class="edge">
<title>Node15&#45;&gt;Node9</title>
<path fill="none" stroke="midnightblue" d="M316.18,-60.72C306.71,-47.94 294.42,-31.35 286.78,-21.03"/>
<polygon fill="midnightblue" stroke="midnightblue" points="313.7,-62.25 322.46,-68.2 319.32,-58.08 313.7,-62.25"/>
</g>
<!-- Node16 -->
<g id="node7" class="node">
<title>Node16</title>
<polygon fill="none" stroke="black" points="472.88,-90.25 392.38,-90.25 392.38,-69.5 472.88,-69.5 472.88,-90.25"/>
<text text-anchor="middle" x="432.62" y="-76.75" font-family="Helvetica,sans-Serif" font-size="10.00">Templ&lt; int &gt;</text>
</g>
<!-- Node16&#45;&gt;Node9 -->
<g id="edge6" class="edge">
<title>Node16&#45;&gt;Node9</title>
<path fill="none" stroke="midnightblue" d="M400.53,-64.72C370.97,-51.67 327.86,-32.65 301.9,-21.2"/>
<polygon fill="midnightblue" stroke="midnightblue" points="398.82,-68.23 409.38,-69.06 401.64,-61.82 398.82,-68.23"/>
</g>
<!-- Node17 -->
<g id="node8" class="node">
<title>Node17</title>
<polygon fill="none" stroke="black" points="469.5,-159.75 395.75,-159.75 395.75,-139 469.5,-139 469.5,-159.75"/>
<text text-anchor="middle" x="432.62" y="-146.25" font-family="Helvetica,sans-Serif" font-size="10.00">Templ&lt; T &gt;</text>
</g>
<!-- Node17&#45;&gt;Node16 -->
<g id="edge7" class="edge">
<title>Node17&#45;&gt;Node16</title>
<path fill="none" stroke="orange" stroke-dasharray="5,2" d="M432.62,-127.95C432.62,-115.53 432.62,-100.25 432.62,-90.53"/>
<polygon fill="orange" stroke="orange" points="429.13,-127.7 432.62,-137.7 436.13,-127.7 429.13,-127.7"/>
<text text-anchor="middle" x="450.25" y="-111.5" font-family="Helvetica,sans-Serif" font-size="10.00">&lt; int &gt;</text>
</g>
<!-- Node18 -->
<g id="node9" class="node">
<title>Node18</title>
<polygon fill="none" stroke="black" points="532,-90.25 491.25,-90.25 491.25,-69.5 532,-69.5 532,-90.25"/>
<text text-anchor="middle" x="511.62" y="-76.75" font-family="Helvetica,sans-Serif" font-size="10.00">Used</text>
</g>
<!-- Node18&#45;&gt;Node9 -->
<g id="edge8" class="edge">
<title>Node18&#45;&gt;Node9</title>
<path fill="none" stroke="#9a32cd" stroke-dasharray="5,2" d="M480.7,-69.27C413.9,-49.29 347.41,-30.41 309.8,-19.83"/>
<polygon fill="#9a32cd" stroke="#9a32cd" points="479.4,-72.84 489.99,-72.36 481.41,-66.13 479.4,-72.84"/>
<text text-anchor="middle" x="446.88" y="-42" font-family="Helvetica,sans-Serif" font-size="10.00">m_usedClass</text>
</g>
</g>
</svg>
