<?xml version="1.0" encoding="UTF-8" standalone="no"?>
<!DOCTYPE svg PUBLIC "-//W3C//DTD SVG 1.1//EN"
 "http://www.w3.org/Graphics/SVG/1.1/DTD/svg11.dtd">
<!-- Generated by graphviz version 8.0.3 (20230418.1244)
 -->
<!-- Title: Graph Legend Pages: 1 -->
<svg width="544pt" height="159pt"
 viewBox="0.00 0.00 543.50 159.00" xmlns="http://www.w3.org/2000/svg" xmlns:xlink="http://www.w3.org/1999/xlink">
<g id="graph0" class="graph" transform="scale(1 1) rotate(0) translate(4 155)">
<title>Graph Legend</title>
<polygon fill="white" stroke="none" points="-4,4 -4,-155 539.5,-155 539.5,4 -4,4"/>
<!-- Node9 -->
<g id="node1" class="node">
<title>Node9</title>
<polygon fill="#bfbfbf" stroke="black" points="311,-19 251,-19 251,0 311,0 311,-19"/>
<text text-anchor="middle" x="281" y="-7" font-family="Helvetica,sans-Serif" font-size="10.00">Inherited</text>
</g>
<!-- Node10 -->
<g id="node2" class="node">
<title>Node10</title>
<polygon fill="none" stroke="black" points="70,-85 0,-85 0,-66 70,-66 70,-85"/>
<text text-anchor="middle" x="35" y="-73" font-family="Helvetica,sans-Serif" font-size="10.00">PublicBase</text>
</g>
<!-- Node10&#45;&gt;Node9 -->
<g id="edge1" class="edge">
<title>Node10&#45;&gt;Node9</title>
<path fill="none" stroke="midnightblue" d="M79.88,-62.82C129.43,-49.93 207.83,-29.54 250.64,-18.4"/>
<polygon fill="midnightblue" stroke="midnightblue" points="79.26,-59.63 70.46,-65.53 81.02,-66.4 79.26,-59.63"/>
</g>
<!-- Node11 -->
<g id="node3" class="node">
<title>Node11</title>
<polygon fill="none" stroke="red" points="67,-151 3,-151 3,-132 67,-132 67,-151"/>
<text text-anchor="middle" x="35" y="-139" font-family="Helvetica,sans-Serif" font-size="10.00">Truncated</text>
</g>
<!-- Node11&#45;&gt;Node10 -->
<g id="edge2" class="edge">
<title>Node11&#45;&gt;Node10</title>
<path fill="none" stroke="midnightblue" d="M35,-120.93C35,-109.05 35,-94.46 35,-85.32"/>
<polygon fill="midnightblue" stroke="midnightblue" points="31.5,-120.6 35,-130.6 38.5,-120.6 31.5,-120.6"/>
</g>
<!-- Node13 -->
<g id="node4" class="node">
<title>Node13</title>
<polygon fill="none" stroke="black" points="175.5,-85 88.5,-85 88.5,-66 175.5,-66 175.5,-85"/>
<text text-anchor="middle" x="132" y="-73" font-family="Helvetica,sans-Serif" font-size="10.00">ProtectedBase</text>
</g>
<!-- Node13&#45;&gt;Node9 -->
<g id="edge3" class="edge">
<title>Node13&#45;&gt;Node9</title>
<path fill="none" stroke="darkgreen" d="M162.8,-61.27C192.05,-48.71 235.19,-30.18 260.46,-19.32"/>
<polygon fill="darkgreen" stroke="darkgreen" points="161.52,-58.44 153.72,-65.6 164.29,-64.87 161.52,-58.44"/>
</g>
<!-- Node14 -->
<g id="node5" class="node">
<title>Node14</title>
<polygon fill="none" stroke="black" points="268.5,-85 193.5,-85 193.5,-66 268.5,-66 268.5,-85"/>
<text text-anchor="middle" x="231" y="-73" font-family="Helvetica,sans-Serif" font-size="10.00">PrivateBase</text>
</g>
<!-- Node14&#45;&gt;Node9 -->
<g id="edge4" class="edge">
<title>Node14&#45;&gt;Node9</title>
<path fill="none" stroke="#8b1a1a" d="M244.58,-57.12C254.13,-44.89 266.52,-29.04 274.11,-19.32"/>
<polygon fill="#8b1a1a" stroke="#8b1a1a" points="241.35,-54.57 237.95,-64.6 246.87,-58.88 241.35,-54.57"/>
</g>
<!-- Node15 -->
<g id="node6" class="node">
<title>Node15</title>
<polygon fill="none" stroke="#bfbfbf" points="377.5,-85 286.5,-85 286.5,-66 377.5,-66 377.5,-85"/>
<text text-anchor="middle" x="332" y="-73" font-family="Helvetica,sans-Serif" font-size="10.00">Undocumented</text>
</g>
<!-- Node15&#45;&gt;Node9 -->
<g id="edge5" class="edge">
<title>Node15&#45;&gt;Node9</title>
<path fill="none" stroke="midnightblue" d="M318.15,-57.12C308.41,-44.89 295.77,-29.04 288.03,-19.32"/>
<polygon fill="midnightblue" stroke="midnightblue" points="315.94,-58.96 324.91,-64.6 321.41,-54.6 315.94,-58.96"/>
</g>
<!-- Node16 -->
<g id="node7" class="node">
<title>Node16</title>
<polygon fill="none" stroke="black" points="476.5,-85 395.5,-85 395.5,-66 476.5,-66 476.5,-85"/>
<text text-anchor="middle" x="436" y="-73" font-family="Helvetica,sans-Serif" font-size="10.00">Templ&lt; int &gt;</text>
</g>
<!-- Node16&#45;&gt;Node9 -->
<g id="edge6" class="edge">
<title>Node16&#45;&gt;Node9</title>
<path fill="none" stroke="midnightblue" d="M404.35,-61.43C373.93,-48.87 328.77,-30.23 302.37,-19.32"/>
<polygon fill="midnightblue" stroke="midnightblue" points="402.87,-65.02 413.45,-65.6 405.54,-58.55 402.87,-65.02"/>
</g>
<!-- Node17 -->
<g id="node8" class="node">
<title>Node17</title>
<polygon fill="none" stroke="black" points="473,-151 399,-151 399,-132 473,-132 473,-151"/>
<text text-anchor="middle" x="436" y="-139" font-family="Helvetica,sans-Serif" font-size="10.00">Templ&lt; T &gt;</text>
</g>
<!-- Node17&#45;&gt;Node16 -->
<g id="edge7" class="edge">
<title>Node17&#45;&gt;Node16</title>
<path fill="none" stroke="orange" stroke-dasharray="5,2" d="M436,-120.93C436,-109.05 436,-94.46 436,-85.32"/>
<polygon fill="orange" stroke="orange" points="432.5,-120.6 436,-130.6 439.5,-120.6 432.5,-120.6"/>
<text text-anchor="middle" x="454" y="-106" font-family="Helvetica,sans-Serif" font-size="10.00">&lt; int &gt;</text>
</g>
<!-- Node18 -->
<g id="node9" class="node">
<title>Node18</title>
<polygon fill="none" stroke="black" points="535.5,-85 494.5,-85 494.5,-66 535.5,-66 535.5,-85"/>
<text text-anchor="middle" x="515" y="-73" font-family="Helvetica,sans-Serif" font-size="10.00">Used</text>
</g>
<!-- Node18&#45;&gt;Node9 -->
<g id="edge8" class="edge">
<title>Node18&#45;&gt;Node9</title>
<path fill="none" stroke="#9a32cd" stroke-dasharray="5,2" d="M483.83,-65.43C417.05,-46.67 349.36,-28.58 311.27,-18.49"/>
<polygon fill="#9a32cd" stroke="#9a32cd" points="482.53,-68.98 493.11,-68.32 484.43,-62.24 482.53,-68.98"/>
<text text-anchor="middle" x="450.5" y="-40" font-family="Helvetica,sans-Serif" font-size="10.00">m_usedClass</text>
</g>
</g>
</svg>
