<?xml version="1.0" encoding="UTF-8" standalone="no"?>
<!DOCTYPE svg PUBLIC "-//W3C//DTD SVG 1.1//EN"
 "http://www.w3.org/Graphics/SVG/1.1/DTD/svg11.dtd">
<!-- Generated by graphviz version 8.0.5 (20230506.1012)
 -->
<!-- Title: StringOrDouble Pages: 1 -->
<svg width="126pt" height="159pt"
 viewBox="0.00 0.00 126.00 159.00" xmlns="http://www.w3.org/2000/svg" xmlns:xlink="http://www.w3.org/1999/xlink">
<g id="graph0" class="graph" transform="scale(1 1) rotate(0) translate(4 155)">
<title>StringOrDouble</title>
<polygon fill="white" stroke="none" points="-4,4 -4,-155 122,-155 122,4 -4,4"/>
<!-- Node1 -->
<g id="node1" class="node">
<title>Node1</title>
<g id="a_node1"><a xlink:title="An auxiliary type used to store a string value, while the input can also be a double.">
<polygon fill="#bfbfbf" stroke="black" points="13.88,-0.5 13.88,-21.25 104.12,-21.25 104.12,-0.5 13.88,-0.5"/>
<text text-anchor="middle" x="59" y="-7.75" font-family="Helvetica,sans-Serif" font-size="10.00">StringOrDouble</text>
</a>
</g>
</g>
<!-- Node2 -->
<g id="node2" class="node">
<title>Node2</title>
<g id="a_node2"><a xlink:title="STL class.">
<polygon fill="white" stroke="#bfbfbf" points="37.12,-71 37.12,-91.75 80.88,-91.75 80.88,-71 37.12,-71"/>
<text text-anchor="middle" x="59" y="-78.25" font-family="Helvetica,sans-Serif" font-size="10.00">string</text>
</a>
</g>
</g>
<!-- Node2&#45;&gt;Node1 -->
<g id="edge1" class="edge">
<title>Node2&#45;&gt;Node1</title>
<path fill="none" stroke="#9a32cd" stroke-dasharray="5,2" d="M59,-60.39C59,-47.36 59,-30.97 59,-20.97"/>
<polygon fill="#9a32cd" stroke="#9a32cd" points="55.5,-60.14 59,-70.14 62.5,-60.14 55.5,-60.14"/>
<text text-anchor="middle" x="74" y="-43" font-family="Helvetica,sans-Serif" font-size="10.00"> value</text>
</g>
<!-- Node3 -->
<g id="node3" class="node">
<title>Node3</title>
<g id="a_node3"><a xlink:title="STL class.">
<polygon fill="white" stroke="#bfbfbf" points="0,-129.75 0,-150.5 118,-150.5 118,-129.75 0,-129.75"/>
<text text-anchor="middle" x="59" y="-137" font-family="Helvetica,sans-Serif" font-size="10.00">basic_string&lt; char &gt;</text>
</a>
</g>
</g>
<!-- Node3&#45;&gt;Node2 -->
<g id="edge2" class="edge">
<title>Node3&#45;&gt;Node2</title>
<path fill="none" stroke="midnightblue" d="M59,-118.95C59,-109.6 59,-98.96 59,-91.57"/>
<polygon fill="midnightblue" stroke="midnightblue" points="55.5,-118.75 59,-128.75 62.5,-118.75 55.5,-118.75"/>
</g>
</g>
</svg>
