<?xml version="1.0" encoding="UTF-8" standalone="no"?>
<!DOCTYPE svg PUBLIC "-//W3C//DTD SVG 1.1//EN"
 "http://www.w3.org/Graphics/SVG/1.1/DTD/svg11.dtd">
<!-- Generated by graphviz version 6.0.2 (20221126.1951)
 -->
<!-- Title: ColumnIndex Pages: 1 -->
<svg width="127pt" height="152pt"
 viewBox="0.00 0.00 127.00 152.00" xmlns="http://www.w3.org/2000/svg" xmlns:xlink="http://www.w3.org/1999/xlink">
<g id="graph0" class="graph" transform="scale(1 1) rotate(0) translate(4 148)">
<title>ColumnIndex</title>
<polygon fill="white" stroke="none" points="-4,4 -4,-148 123,-148 123,4 -4,4"/>
<!-- Node1 -->
<g id="node1" class="node">
<title>Node1</title>
<g id="a_node1"><a xlink:title="An auxiliary type used to represent a data column index.">
<polygon fill="#bfbfbf" stroke="black" points="19,-0.5 19,-19.5 100,-19.5 100,-0.5 19,-0.5"/>
<text text-anchor="middle" x="59.5" y="-7.5" font-family="Helvetica,sans-Serif" font-size="10.00">ColumnIndex</text>
</a>
</g>
</g>
<!-- Node2 -->
<g id="node2" class="node">
<title>Node2</title>
<g id="a_node2"><a xlink:title="STL class.">
<polygon fill="white" stroke="#bfbfbf" points="37.5,-67.5 37.5,-86.5 81.5,-86.5 81.5,-67.5 37.5,-67.5"/>
<text text-anchor="middle" x="59.5" y="-74.5" font-family="Helvetica,sans-Serif" font-size="10.00">string</text>
</a>
</g>
</g>
<!-- Node2&#45;&gt;Node1 -->
<g id="edge1" class="edge">
<title>Node2&#45;&gt;Node1</title>
<path fill="none" stroke="#9a32cd" stroke-dasharray="5,2" d="M59.5,-57.04C59.5,-44.67 59.5,-29.12 59.5,-19.63"/>
<polygon fill="#9a32cd" stroke="#9a32cd" points="56,-57.23 59.5,-67.23 63,-57.23 56,-57.23"/>
<text text-anchor="middle" x="75" y="-41" font-family="Helvetica,sans-Serif" font-size="10.00"> value</text>
</g>
<!-- Node3 -->
<g id="node3" class="node">
<title>Node3</title>
<g id="a_node3"><a xlink:title="STL class.">
<polygon fill="white" stroke="#bfbfbf" points="0,-124.5 0,-143.5 119,-143.5 119,-124.5 0,-124.5"/>
<text text-anchor="middle" x="59.5" y="-131.5" font-family="Helvetica,sans-Serif" font-size="10.00">basic_string&lt; char &gt;</text>
</a>
</g>
</g>
<!-- Node3&#45;&gt;Node2 -->
<g id="edge2" class="edge">
<title>Node3&#45;&gt;Node2</title>
<path fill="none" stroke="midnightblue" d="M59.5,-114.12C59.5,-104.82 59.5,-94.06 59.5,-86.71"/>
<polygon fill="midnightblue" stroke="midnightblue" points="56,-114.41 59.5,-124.41 63,-114.41 56,-114.41"/>
</g>
</g>
</svg>
