<?xml version="1.0" encoding="UTF-8" standalone="no"?>
<!DOCTYPE svg PUBLIC "-//W3C//DTD SVG 1.1//EN"
 "http://www.w3.org/Graphics/SVG/1.1/DTD/svg11.dtd">
<!-- Generated by graphviz version 7.1.0 (20230122.1345)
 -->
<!-- Title: StringOrDouble Pages: 1 -->
<svg width="127pt" height="152pt"
 viewBox="0.00 0.00 127.00 152.00" xmlns="http://www.w3.org/2000/svg" xmlns:xlink="http://www.w3.org/1999/xlink">
<g id="graph0" class="graph" transform="scale(1 1) rotate(0) translate(4 148)">
<title>StringOrDouble</title>
<polygon fill="white" stroke="none" points="-4,4 -4,-148 123,-148 123,4 -4,4"/>
<!-- Node1 -->
<g id="node1" class="node">
<title>Node1</title>
<g id="a_node1"><a xlink:title="An auxiliary type used to store a string value, while the input can also be a double.">
<polygon fill="#bfbfbf" stroke="black" points="14,-0.5 14,-19.5 105,-19.5 105,-0.5 14,-0.5"/>
<text text-anchor="middle" x="59.5" y="-7.5" font-family="Helvetica,sans-Serif" font-size="10.00">StringOrDouble</text>
</a>
</g>
</g>
<!-- Node2 -->
<g id="node2" class="node">
<title>Node2</title>
<g id="a_node2"><a xlink:title="STL class.">
<polygon fill="white" stroke="#bfbfbf" points="37.5,-67.5 37.5,-86.5 81.5,-86.5 81.5,-67.5 37.5,-67.5"/>
<text text-anchor="middle" x="59.5" y="-74.5" font-family="Helvetica,sans-Serif" font-size="10.00">string</text>
</a>
</g>
</g>
<!-- Node2&#45;&gt;Node1 -->
<g id="edge1" class="edge">
<title>Node2&#45;&gt;Node1</title>
<path fill="none" stroke="#9a32cd" stroke-dasharray="5,2" d="M59.5,-56.04C59.5,-43.7 59.5,-28.5 59.5,-19.29"/>
<polygon fill="#9a32cd" stroke="#9a32cd" points="56,-55.99 59.5,-65.99 63,-55.99 56,-55.99"/>
<text text-anchor="middle" x="75" y="-41" font-family="Helvetica,sans-Serif" font-size="10.00"> value</text>
</g>
<!-- Node3 -->
<g id="node3" class="node">
<title>Node3</title>
<g id="a_node3"><a xlink:title="STL class.">
<polygon fill="white" stroke="#bfbfbf" points="0,-124.5 0,-143.5 119,-143.5 119,-124.5 0,-124.5"/>
<text text-anchor="middle" x="59.5" y="-131.5" font-family="Helvetica,sans-Serif" font-size="10.00">basic_string&lt; char &gt;</text>
</a>
</g>
</g>
<!-- Node3&#45;&gt;Node2 -->
<g id="edge2" class="edge">
<title>Node3&#45;&gt;Node2</title>
<path fill="none" stroke="midnightblue" d="M59.5,-113.39C59.5,-104.02 59.5,-93.31 59.5,-86.15"/>
<polygon fill="midnightblue" stroke="midnightblue" points="56,-113.37 59.5,-123.37 63,-113.37 56,-113.37"/>
</g>
</g>
</svg>
